<svg width="677" height="609" viewBox="0 0 677 609" fill="none" xmlns="http://www.w3.org/2000/svg">
<path d="M13.3363 575.576C16.332 573.845 17.0566 569.487 14.9548 565.843C12.8529 562.199 8.72062 560.649 5.72494 562.38C2.72927 564.111 2.00463 568.469 4.10646 572.113C6.20828 575.757 10.3406 577.307 13.3363 575.576Z" fill="white"/>
<path d="M243.431 131.955C338.452 60.7949 473.11 80.2144 544.198 175.328C615.286 270.441 595.883 405.23 500.863 476.387C493.512 481.898 485.816 486.933 477.823 491.461C477.256 491.786 476.698 492.104 476.129 492.414C469.332 496.193 462.331 499.594 455.159 502.6C452.257 503.828 449.33 504.973 446.391 506.067L446.383 506.073C445.707 506.317 445.039 506.556 444.363 506.8C431.353 511.449 417.923 514.823 404.261 516.873C405.025 516.314 405.796 515.748 406.563 515.178C486.533 455.297 500.561 338.778 437.896 254.929C375.23 171.079 259.593 151.661 179.627 211.544C178.861 212.117 178.109 212.693 177.362 213.276C183.183 200.739 190.206 188.796 198.333 177.618C198.882 176.871 199.423 176.13 199.986 175.384L200.048 175.3C201.617 173.204 203.23 171.132 204.886 169.086L204.946 169.017C209.453 163.43 214.238 158.075 219.285 152.972L219.351 152.91C219.926 152.331 220.501 151.751 221.089 151.174C228.092 144.268 235.557 137.847 243.431 131.955V131.955Z" fill="white"/>
<path d="M244.182 132.033C283.518 102.675 331.748 87.759 380.773 89.7901C429.799 91.8213 476.632 110.676 513.41 143.188C532.356 159.973 548.217 179.952 560.273 202.217C576.751 232.44 585.703 266.195 586.369 300.619C587.035 335.044 579.397 369.121 564.101 399.96C548.806 430.799 526.305 457.491 498.507 477.77C470.709 498.049 438.435 511.317 404.422 516.45L405.014 516.958C436.308 494.302 459.236 461.92 470.224 424.859C475.635 406.726 478.26 387.876 478.012 368.953C477.76 349.571 474.583 330.337 468.589 311.905C455.982 273.449 431.989 239.74 399.796 215.252C384.477 203.642 367.516 194.381 349.471 187.774C331.922 181.351 313.515 177.579 294.856 176.584C276.474 175.608 258.051 177.439 240.219 182.012C222.045 186.706 204.739 194.282 188.958 204.452C184.717 207.186 180.602 210.102 176.612 213.199L178.318 213.13C189.787 188.52 205.817 166.312 225.556 147.684C231.47 142.126 237.688 136.902 244.182 132.036C244.994 131.426 243.08 131.573 242.679 131.874C214.172 153.136 191.398 181.162 176.408 213.429C176.147 213.989 177.944 213.492 178.113 213.36C193.389 201.495 210.559 192.3 228.897 186.163C246.489 180.315 264.897 177.302 283.433 177.235C302.055 177.171 320.581 179.922 338.382 185.397C356.392 190.927 373.489 199.086 389.122 209.609C422.148 231.942 447.702 263.701 462.461 300.76C469.534 318.571 473.922 337.334 475.481 356.437C477.004 375.117 475.724 393.92 471.685 412.221C467.684 430.339 460.902 447.726 451.581 463.765C441.97 480.24 429.704 495.012 415.279 507.482C411.492 510.753 407.55 513.835 403.511 516.794C402.913 517.235 403.757 517.355 404.103 517.302C433.422 512.864 461.521 502.455 486.663 486.718C511.805 470.981 533.456 450.251 550.279 425.808C571.245 395.238 583.968 359.765 587.215 322.826C590.461 285.888 584.121 248.736 568.808 214.971C553.496 181.206 529.73 151.972 499.814 130.102C469.898 108.231 434.846 94.4665 398.054 90.1404C349.299 84.3205 300.015 95.2724 258.3 121.197C252.94 124.526 247.733 128.083 242.679 131.869C241.866 132.479 243.781 132.332 244.182 132.033Z" fill="black"/>
<path d="M69.2594 493.09C60.9336 501.779 61.4875 517.841 71.0528 530.634C80.6181 543.427 95.8518 548.497 106.524 542.954L38.3166 581.775C31.4316 586.932 20.1426 583.465 13.0942 574.034C6.04576 564.603 5.90327 552.775 12.7883 547.619L69.2594 493.09Z" fill="#B1B1B1"/>
<path d="M68.3784 493.126C60.5947 501.388 61.327 514.179 65.8576 523.851C70.689 534.167 80.1926 542.935 91.5703 545.14C96.8241 546.222 102.288 545.52 107.099 543.146L105.957 542.768L96.9129 547.915L76.1692 559.721L53.6967 572.511L39.1644 580.782C37.6439 581.83 35.9996 582.685 34.2692 583.329C28.3357 584.964 21.8742 581.597 17.6067 577.685C12.4873 572.997 8.82256 566.179 8.68506 559.139C8.55425 556.084 9.34515 553.061 10.9548 550.462C11.78 549.34 12.7424 548.326 13.8194 547.443C16.9511 544.567 19.9462 541.526 23.0051 538.572L40.7407 521.443L59.0393 503.769L69.6279 493.544L70.14 493.046C70.4718 492.725 69.8511 492.636 69.6598 492.633C69.1877 492.632 68.7318 492.805 68.3784 493.119L60.6365 500.599L43.0942 517.543L24.1988 535.794L12.6746 546.923C12.4275 547.161 12.1883 547.414 11.9303 547.642C10.1783 549.066 8.796 550.893 7.9009 552.967C5.42289 559.058 7.16258 566.231 10.3919 571.687C16.0523 581.241 28.4553 588.678 38.9173 581.953C42.2144 579.833 45.7804 578.046 49.1851 576.109L70.7239 563.85L93.2422 551.031L106.452 543.513L107.093 543.148C108.224 542.503 106.459 542.51 105.951 542.77C97.0015 547.325 86.1669 543.386 78.8574 537.49C70.1889 530.494 64.1378 519.43 64.3819 508.128C64.3713 502.565 66.4207 497.196 70.134 493.058C70.4459 492.727 69.862 492.648 69.6538 492.645C69.1835 492.64 68.7285 492.812 68.3784 493.126V493.126Z" fill="black"/>
<path d="M50.3769 484.628C37.2416 498.99 37.682 524.016 52.3537 543.646C67.0255 563.276 90.8889 570.764 108.351 562.197L196.774 522.586C170.391 532.591 137.398 522.011 117.247 495.05C97.0725 468.057 96.2614 433.34 113.352 410.839L50.3769 484.628Z" fill="url(#paint0_linear)"/>
<path d="M49.5683 484.329C42.3336 492.318 39.3723 503.225 40.0359 513.851C40.9449 525.88 45.624 537.314 53.4064 546.524C66.5886 562.401 89.051 571.901 108.785 562.781C115.941 559.474 123.18 556.333 130.374 553.107L171.338 534.756C179.824 530.954 188.384 527.285 196.806 523.347C196.938 523.284 197.073 523.227 197.205 523.167C198.432 522.617 197.33 521.619 196.342 521.991C175.402 529.861 151.704 524.005 134.245 510.849C114.517 495.988 101.699 471.674 102.261 446.781C102.406 433.944 106.567 421.476 114.159 411.13C114.911 410.132 113.114 409.861 112.541 410.531L106.279 417.869L91.2391 435.491L73.0441 456.81L57.3182 475.244L52.137 481.318C51.329 482.265 50.3963 483.183 49.677 484.2C49.6461 484.245 49.6052 484.284 49.5703 484.325C48.7732 485.255 50.6036 485.609 51.1895 484.924L57.4517 477.586L72.4911 459.964L90.6861 438.645L106.416 420.214L111.597 414.14C112.509 413.262 113.333 412.297 114.056 411.258C114.088 411.213 114.124 411.171 114.163 411.133L112.545 410.534C97.7106 430.193 97.1686 457.184 106.87 479.21C116.753 501.65 136.768 519.588 160.795 525.241C172.87 528.168 185.541 527.447 197.207 523.169L196.344 521.993L175.737 531.224L135.683 549.166L108.88 561.171C107.612 561.739 106.362 562.353 105.06 562.841C100.477 564.521 95.5938 565.226 90.723 564.911C80.1723 564.291 70.1745 559.592 62.1875 552.796C45.2679 538.399 35.1347 511.569 46.8193 490.922C48.0477 488.767 49.5103 486.755 51.1805 484.923C52.0095 484.021 50.1702 483.664 49.5683 484.329Z" fill="black"/>
<path d="M108.824 384.547L108.72 384.675C83.7544 413.722 84.2765 461.671 112.108 498.902C139.939 536.133 185.74 550.166 220.628 534.397L220.779 534.333L291.806 505.694C284.838 508.159 232.832 477.819 199.598 433.422C166.364 389.025 151.901 330.57 156.196 324.602L108.824 384.547Z" fill="#B1B1B1"/>
<path d="M108.019 384.266C103.977 389.094 100.513 394.379 97.6979 400.013C94.8592 405.908 92.7567 412.131 91.4376 418.541C88.742 432.06 89.0481 446.006 92.3344 459.393C95.8376 473.583 102.1 486.942 110.765 498.707C119.429 510.473 130.325 520.414 142.829 527.962C153.933 534.642 166.275 539 179.109 540.771C191.326 542.463 203.769 541.245 215.427 537.218C219.89 535.631 224.278 533.657 228.679 531.884L251.088 522.848L276.324 512.675L291.48 506.564L292.23 506.265C293.266 505.848 292.592 504.72 291.632 505.044C291.314 505.138 290.98 505.164 290.651 505.121C290.02 505.059 289.395 504.943 288.783 504.775C286.925 504.251 285.11 503.584 283.355 502.78C277.804 500.242 272.444 497.302 267.32 493.983C251.986 484.267 237.704 472.98 224.703 460.305C209.441 445.601 196.32 428.822 185.724 410.462C176.107 393.721 168.335 375.984 162.546 357.562C160.43 351.011 158.725 344.334 157.442 337.569C156.777 333.891 155.883 329.651 156.645 325.912C156.678 325.708 156.732 325.507 156.806 325.314C156.857 325.183 157.094 324.75 157 324.886C157.704 323.875 155.928 323.643 155.391 324.323L139.303 344.674L113.867 376.866L108.019 384.266C107.264 385.222 109.086 385.517 109.629 384.83L125.711 364.477L151.15 332.284L156.998 324.884L155.389 324.321C154.772 325.375 154.465 326.581 154.5 327.801C154.448 329.765 154.561 331.729 154.838 333.674C155.696 339.873 157.024 345.997 158.809 351.995C164.007 370.142 171.14 387.677 180.083 404.298C190.266 423.472 203.151 441.081 218.344 456.581C231.64 470.161 246.342 482.285 262.202 492.748C267.772 496.478 273.576 499.845 279.578 502.828C282.829 504.409 286.607 506.368 290.302 506.529C290.867 506.573 291.435 506.512 291.978 506.351L291.38 505.13L280.879 509.363L257.478 518.798L233.409 528.503C229.125 530.23 224.826 531.921 220.556 533.689C216.539 535.431 212.396 536.865 208.161 537.977C202.275 539.403 196.239 540.111 190.183 540.085C177.555 539.944 165.103 537.106 153.659 531.76C141.183 525.976 129.965 517.793 120.646 507.675C110.443 496.721 102.564 483.812 97.4827 469.726C92.6984 456.56 90.7955 442.52 91.9029 428.555C92.9158 415.531 97.1486 402.964 104.22 391.985C105.902 389.51 107.708 387.122 109.632 384.83C110.398 383.887 108.571 383.588 108.019 384.266Z" fill="black"/>
<path d="M199.986 175.385C145.503 245.485 145.945 244.555 141.896 250.286C97.0911 313.659 97.2983 403.558 148.301 471.798C201.248 542.639 291.524 566.929 365.304 538.093L446.384 506.078C432.834 510.98 499.847 337.825 437.895 254.938C373.396 168.637 191.742 186.303 199.986 175.385Z" fill="url(#paint1_linear)"/>
<path d="M199.039 175.563C184.196 194.66 169.336 213.745 154.461 232.818C150.463 237.944 146.378 243.017 142.532 248.259C130.627 264.584 121.611 282.835 115.878 302.215C107.79 329.651 106.04 358.569 110.76 386.782C115.692 415.676 126.965 443.114 143.767 467.121C160.569 491.128 182.482 511.106 207.927 525.614C231.14 538.777 256.856 546.914 283.41 549.498C309.133 551.991 335.092 548.933 359.534 540.529C367.276 537.836 374.849 534.639 382.47 531.629L402.435 523.745L429.361 513.111L442.414 507.958L445.235 506.844C445.666 506.744 446.081 506.581 446.464 506.359C446.546 506.312 446.635 506.279 446.727 506.259L446.079 505.884L446.002 505.915C444.727 506.414 445.936 506.571 446.651 506.29L446.711 506.266C447.993 505.76 446.776 505.643 446.063 505.891C446.61 505.701 446.495 506.047 446.188 505.655C445.989 505.414 445.836 505.138 445.736 504.842C445.449 503.674 445.378 502.463 445.527 501.269C445.908 496.619 446.603 492.001 447.605 487.445C450.674 471.403 454.208 455.458 457.08 439.373C461.067 417.933 463.733 396.268 465.065 374.501C466.28 351.973 465.662 329.113 461.066 306.963C456.739 286.09 448.592 265.938 434.767 249.523C421.764 234.084 404.932 222.354 386.93 213.467C368.115 204.178 347.945 197.799 327.54 193.084C308.198 188.735 288.613 185.554 268.89 183.56C253.479 181.91 238.023 180.874 222.571 179.72C217.678 179.354 212.77 179.009 207.91 178.336C206.388 178.15 204.879 177.871 203.39 177.502C202.512 177.372 201.683 177.012 200.989 176.457C200.902 176.379 200.832 176.285 200.782 176.18C200.732 176.075 200.703 175.961 200.698 175.844C200.693 175.728 200.711 175.612 200.752 175.503C200.792 175.394 200.854 175.294 200.934 175.209C200.281 175.075 199.601 175.203 199.041 175.565C196.825 178.573 211.061 179.602 212.151 179.706C225.877 181.003 239.652 181.701 253.389 182.918C272.663 184.522 291.845 187.093 310.862 190.621C331.735 194.611 352.432 200.089 372.099 208.223C391.138 216.103 409.391 226.588 424.31 240.945C439.754 255.805 450.14 274.442 456.057 294.973C462.37 316.878 464.047 339.948 463.597 362.656C463.153 385.057 460.561 407.378 456.938 429.47C454.049 447.086 450.362 464.543 446.843 482.039C445.76 487.424 444.642 492.821 443.941 498.271C443.687 499.965 443.561 501.676 443.565 503.39C443.473 504.326 443.683 505.266 444.163 506.075C444.805 506.812 445.892 506.547 446.71 506.263L446.062 505.888L446.001 505.912L446.649 506.287L446.726 506.256C448.001 505.758 446.792 505.599 446.078 505.881L436.722 509.571L382.684 530.915C368.885 536.364 355.257 542.065 340.736 545.338C327.942 548.208 314.867 549.636 301.756 549.595C275.051 549.46 248.683 543.62 224.414 532.465C199.238 520.877 176.811 504.063 158.623 483.137C138.895 460.51 124.558 433.695 116.691 404.714C109.199 376.943 108.089 347.835 113.445 319.574C118.278 294.296 128.484 270.354 143.371 249.37C146.045 245.615 148.923 242.006 151.754 238.369C163.083 223.822 174.415 209.277 185.751 194.735C190.815 188.227 195.877 181.718 200.937 175.207C200.282 175.083 199.605 175.21 199.039 175.563V175.563Z" fill="black"/>
<path d="M524.081 456.252C607.993 372.258 607.993 236.078 524.081 152.084C440.169 68.0905 304.121 68.0905 220.209 152.084C136.297 236.078 136.297 372.258 220.209 456.252C304.121 540.245 440.169 540.245 524.081 456.252Z" fill="white"/>
<path d="M244.068 132.393C268.341 114.322 296.163 101.604 325.701 95.0757C355.24 88.5476 385.825 88.3578 415.443 94.5188C445.06 100.68 473.037 113.052 497.531 130.82C522.026 148.588 542.481 171.35 557.551 197.604C572.621 223.859 581.962 253.012 584.96 283.142C587.959 313.273 584.545 343.697 574.946 372.411C565.346 401.126 549.778 427.479 529.266 449.734C508.754 471.989 483.765 489.642 455.943 501.53C435.835 510.113 414.522 515.534 392.759 517.599C354.64 521.182 316.258 514.483 281.6 498.2C246.941 481.916 217.271 456.64 195.669 424.999C174.068 393.358 161.324 356.504 158.761 318.266C156.198 280.029 163.91 241.802 181.095 207.555C190.99 187.857 203.876 169.813 219.294 154.067C226.992 146.225 235.274 138.979 244.068 132.393C245.112 131.609 243.556 130.932 242.79 131.507C211.593 154.811 187.288 186.141 172.461 222.168C157.633 258.195 152.837 297.57 158.582 336.107C164.328 374.645 180.399 410.903 205.089 441.027C229.778 471.151 262.162 494.014 298.797 507.185C340.768 522.281 386.375 524.026 429.375 512.182C472.376 500.337 510.67 475.482 539.016 441.017C566.999 406.98 583.879 365.172 587.381 321.232C590.883 277.292 580.837 233.334 558.599 195.288C547.026 175.513 532.406 157.691 515.278 142.481C498.776 127.859 480.121 115.87 459.971 106.934C429.982 93.6116 397.356 87.2987 364.566 88.4747C331.777 89.6506 299.686 98.2844 270.727 113.721C260.981 118.939 251.643 124.884 242.79 131.507C241.745 132.288 243.3 132.966 244.068 132.393Z" fill="black"/>
<path d="M482.348 452.095C447.893 477.874 405.499 490.744 362.543 488.464C319.588 486.183 278.791 468.898 247.254 439.616C226.767 420.593 210.859 397.165 200.729 371.096C190.599 345.027 186.51 316.997 188.771 289.117C191.033 261.237 199.584 234.234 213.783 210.142C227.981 186.05 247.456 165.497 270.741 150.031C305.393 127.159 346.755 116.691 388.103 120.329C429.452 123.968 468.355 141.499 498.489 170.072C518.032 188.552 533.302 211.084 543.232 236.091C553.161 261.099 557.51 287.977 555.972 314.843C554.434 341.709 547.048 367.914 534.33 391.623C521.613 415.331 503.871 435.971 482.348 452.095C481.306 452.878 482.919 453.238 483.565 452.753C511.746 431.714 533.369 403.088 545.911 370.214C558.453 337.339 561.396 301.573 554.398 267.087C547.399 232.602 530.747 200.819 506.385 175.449C482.023 150.078 450.956 132.166 416.807 123.802C393.025 117.84 368.299 116.653 344.056 120.309C319.812 123.965 296.533 132.391 275.561 145.102C254.589 157.812 236.34 174.555 221.867 194.364C207.395 214.172 196.986 236.654 191.241 260.511C185.496 284.369 184.529 309.129 188.396 333.362C192.263 357.596 200.887 380.822 213.77 401.701C226.654 422.58 243.541 440.698 263.458 455.008C283.375 469.319 305.926 479.539 329.81 485.078C372.545 494.972 417.394 489.511 456.512 469.649C465.985 464.783 475.033 459.131 483.562 452.753C484.604 451.974 482.99 451.613 482.348 452.095Z" fill="black"/>
<path d="M438.223 259.233C451.095 252.756 455.155 234.812 447.291 219.155C439.428 203.497 422.618 196.054 409.747 202.531C396.875 209.008 392.815 226.952 400.679 242.61C408.542 258.268 425.352 265.71 438.223 259.233Z" fill="#BBBBBB"/>
<path d="M399.601 487.158C399.484 486.502 404.752 485.158 413.697 482.242C426.007 478.273 437.91 473.137 449.244 466.904C465.156 458.114 479.687 447.024 492.368 433.992C499.489 426.699 505.988 418.823 511.797 410.446C517.74 401.786 522.908 392.617 527.241 383.048C535.776 364.201 541.016 344.027 542.733 323.406C544.167 305.389 542.86 287.259 538.855 269.635C536.008 257.016 531.75 244.759 526.162 233.095C525.166 230.929 524.107 229.059 523.264 227.37C522.393 225.694 521.679 224.227 520.965 223.074L518.638 219.059L517.94 217.809C517.751 217.469 517.525 217.063 517.264 216.597C516.981 216.141 516.66 215.626 516.303 215.05C514.848 212.769 512.968 209.441 510.18 205.569C492.644 179.867 468.554 159.334 440.411 146.101C402.669 128.388 359.959 124.328 319.561 134.612C301.978 139.125 285.165 146.238 269.678 155.716C258.63 162.437 248.244 170.19 238.657 178.872C231.664 185.163 227.86 189.045 227.353 188.617C226.91 188.253 229.791 183.579 236.086 176.33C244.907 166.34 254.903 157.456 265.856 149.871C273.186 144.72 280.886 140.12 288.894 136.107C297.884 131.612 307.235 127.88 316.849 124.95C337.95 118.562 360.01 115.942 382.018 117.208C404.251 118.505 426.084 123.692 446.528 132.533C477.725 146.053 504.679 167.782 524.524 195.411C527.683 199.6 529.85 203.207 531.499 205.692L532.595 207.375C532.893 207.884 533.151 208.325 533.369 208.697L534.157 210.062L536.638 214.539C537.391 215.829 538.15 217.461 539.068 219.326C539.958 221.208 541.069 223.298 542.11 225.709C547.938 238.667 552.269 252.248 555.02 266.189C563.339 307.651 557.59 350.706 538.685 388.526C528.873 408.314 515.553 426.154 499.373 441.177C485.484 454.216 469.641 464.996 452.419 473.125C440.374 478.849 427.678 483.086 414.611 485.741C405.181 487.573 399.693 487.721 399.601 487.158Z" fill="black"/>
<path d="M211.965 211.569C212.49 211.851 206.641 221.876 200.814 238.129C197.52 247.379 194.928 256.864 193.061 266.504C188.773 288.668 188.545 311.427 192.389 333.673C194.1 343.407 196.583 352.989 199.815 362.328C203.116 371.789 207.164 380.973 211.921 389.791C216.611 398.64 221.98 407.112 227.979 415.131C230.569 418.642 233.571 422.264 236.804 426.031C240.097 429.745 243.679 433.553 247.558 437.301C251.46 441.027 255.637 444.713 260.041 448.259C264.463 451.779 269.121 455.14 273.913 458.294C283.32 464.445 293.257 469.743 303.605 474.126C312.647 477.918 321.962 481.022 331.471 483.409C339.818 485.542 346.915 486.712 351.886 487.507L357.665 488.395C359 488.617 359.711 488.794 359.703 488.906C359.695 489.017 358.968 489.078 357.61 489.081C356.931 489.081 356.093 489.072 355.108 489.045L351.73 488.855C344.726 488.35 337.764 487.384 330.887 485.962C321.113 483.971 311.519 481.181 302.201 477.619C291.472 473.479 281.148 468.355 271.362 462.31C266.361 459.204 261.489 455.87 256.853 452.357C252.235 448.819 247.846 445.12 243.739 441.368C239.653 437.593 235.875 433.744 232.398 429.98C228.982 426.163 225.805 422.481 223.065 418.909C216.687 410.733 210.977 402.056 205.99 392.963C196.447 374.685 189.991 354.953 186.884 334.565C185.181 323.1 184.524 311.502 184.921 299.917C185.355 288.409 186.848 276.964 189.382 265.73C191.592 255.986 194.599 246.441 198.37 237.19C201.024 230.678 204.097 224.344 207.57 218.23C210.135 213.847 211.782 211.462 211.965 211.569Z" fill="black"/>
<defs>
<linearGradient id="paint0_linear" x1="40.918" y1="410.839" x2="204.566" y2="410.839" gradientUnits="userSpaceOnUse">
<stop offset="0.177083" stop-color="#8F6AFA"/>
<stop offset="0.651042" stop-color="#375CDC"/>
<stop offset="1" stop-color="#0099EE"/>
</linearGradient>
<linearGradient id="paint1_linear" x1="109.128" y1="175.385" x2="482.401" y2="175.385" gradientUnits="userSpaceOnUse">
<stop offset="0.177083" stop-color="#8F6AFA"/>
<stop offset="0.651042" stop-color="#375CDC"/>
<stop offset="1" stop-color="#0099EE"/>
</linearGradient>
</defs>
</svg>
