<svg width="379" height="276" viewBox="0 0 379 276" fill="none" xmlns="http://www.w3.org/2000/svg">
<path d="M248.589 29.7695C282.213 35.7234 314.544 52.0318 336.399 77.7888C358.255 103.546 368.212 138.881 359.677 170.333C355.022 187.288 344.934 202.95 329.933 212.657C314.932 222.365 294.887 225.341 277.816 218.74C266.953 214.469 257.901 206.833 249.365 199.067C225.441 177.71 202.809 154.93 181.601 130.985C170.22 118.042 158.969 104.581 151.986 89.0494C147.847 80.1186 145.39 70.2818 145.002 60.4449C144.873 54.1028 144.614 42.0656 150.305 37.6649C153.796 35.0762 159.616 34.4291 163.754 33.3936C168.927 32.2287 174.1 31.0638 179.273 30.1578C190.006 28.3458 200.74 27.3103 211.603 27.0514C224.018 26.7926 236.433 27.6986 248.589 29.7695Z" fill="#B2B2B2"/>
<path d="M247.814 30.4166C267.471 33.7818 286.352 40.9006 303.422 51.2552C320.105 61.6097 334.977 75.3295 345.322 92.1557C355.668 108.723 361.358 127.879 361.488 147.423C361.488 166.709 355.151 186.123 342.477 200.749C329.157 216.022 308.724 224.306 288.55 220.811C277.946 218.999 268.634 213.434 260.228 206.833C251.564 199.973 243.417 192.207 235.399 184.57C218.587 168.78 202.551 152.342 187.161 135.257C172.548 119.078 157.417 101.993 150.305 80.8951C147.201 71.576 145.908 61.7392 146.554 51.9023C146.554 48.0194 147.589 44.1364 149.27 40.5123C151.598 36.241 156.383 35.4645 160.78 34.5584C166.211 33.523 171.513 32.0992 176.945 31.1932C182.765 30.1577 188.713 29.2517 194.533 28.734C206.56 27.4397 218.587 27.3102 230.614 28.2163C236.175 28.6046 241.994 29.3811 247.814 30.4166C248.46 30.546 250.659 29.5106 249.365 29.2517C225.182 25.2393 200.482 25.6276 176.428 30.1577C170.738 31.1932 165.177 32.6169 159.487 33.7818C155.478 34.5584 150.951 35.5939 148.106 38.7003C145.52 41.5478 144.614 45.5602 144.227 49.3137C143.839 53.0672 143.709 56.8208 143.839 60.5743C144.485 83.7426 157.417 103.805 171.643 121.149C186.903 139.398 203.197 156.742 220.268 173.31C228.803 181.723 237.597 189.877 246.391 197.902C254.538 205.15 262.815 212.657 272.773 217.446C291.136 226.377 313.768 223.788 330.709 212.916C347.392 202.302 358.125 184.182 362.134 165.026C366.273 145.352 363.298 124.643 355.41 106.264C347.262 87.6256 334.459 71.3172 318.294 59.0211C302.129 46.7251 283.636 37.6648 263.85 32.4875C259.065 31.1932 254.28 30.1577 249.365 29.2517C248.719 29.1223 246.52 30.1577 247.814 30.4166Z" fill="black"/>
<path d="M343.642 129.691C345.065 124.902 347.263 120.372 351.531 117.913C357.48 114.289 365.498 116.748 370.024 121.666C374.938 126.973 376.62 134.61 377.266 141.728C380.111 170.333 370.283 201.914 349.462 222.235C345.582 225.989 340.797 228.966 335.495 229.095C321.399 229.483 319.847 210.586 321.658 200.361C325.537 178.875 335.883 159.461 341.315 138.493C342.091 135.645 342.737 132.668 343.642 129.691Z" fill="white"/>
<path d="M344.935 129.562C346.229 125.42 348.168 121.019 351.919 118.56C355.669 116.101 360.454 116.619 364.334 118.56C372.74 122.831 375.197 133.057 376.102 141.729C377.783 159.331 374.938 177.193 367.955 193.372C364.463 201.397 359.937 208.904 354.376 215.634C349.203 221.718 341.832 230.001 332.908 227.801C326.96 226.377 324.244 220.164 323.209 214.728C322.175 208.257 322.563 201.656 324.244 195.313C328.77 175.381 338.211 157.002 343.254 137.198C343.513 134.61 344.159 132.021 344.935 129.562C345.194 128.527 342.737 128.915 342.478 129.821C340.797 135.257 339.762 140.693 337.952 146.129C336.271 151.565 334.331 156.872 332.262 162.179C328.382 172.533 324.502 182.759 321.916 193.501C320.235 200.62 319.2 207.739 320.364 214.987C321.399 220.812 324.244 227.154 330.322 229.095C339.116 231.943 347.392 225.73 353.083 219.647C359.419 212.787 364.722 204.891 368.731 196.349C376.878 179.264 380.24 160.367 378.43 141.599C377.524 132.539 375.067 122.055 366.532 117.266C362.911 115.195 358.514 114.548 354.376 115.454C350.237 116.619 346.746 119.466 344.806 123.349C343.771 125.291 342.995 127.362 342.349 129.433C342.09 130.856 344.677 130.468 344.935 129.562Z" fill="black"/>
<path d="M302.259 113.771C291.137 82.7075 265.014 58.1154 234.623 45.4311C203.586 32.4878 169.962 31.7113 137.373 37.7946C122.242 40.6421 107.499 44.9133 93.1447 50.22C65.4698 60.5746 36.1136 76.2359 22.2762 103.546C15.2928 117.007 13.3529 132.539 17.1033 147.165C20.4656 160.237 30.8114 169.556 42.3211 176.028C52.0203 181.464 62.754 185.088 73.2291 188.842C84.3508 192.854 95.3432 196.867 106.336 200.75C108.793 214.34 118.492 225.471 131.553 229.872C136.08 231.296 140.865 231.943 145.65 231.943C148.107 231.943 150.564 232.202 152.892 232.849C153.926 234.014 154.961 235.308 155.866 236.602C160.522 243.074 167.505 252.911 185.481 258.476C209.147 265.854 229.062 256.147 238.632 233.237C251.823 233.755 264.885 232.331 276.136 226.118C286.869 220.035 294.758 209.68 299.672 198.42C310.794 172.663 311.699 140.305 302.259 113.771Z" fill="#B2B2B2"/>
<path d="M303.55 113.512C293.722 85.9429 272.254 63.6806 246.648 50.0902C216.387 34.0406 181.082 30.6754 147.458 35.4644C129.483 38.053 111.895 42.5831 94.9535 48.9253C81.116 53.5849 68.0545 59.927 55.6395 67.5635C43.4833 75.3295 32.4909 85.0369 24.7315 97.2035C15.8083 111.312 11.7993 128.267 15.1617 144.705C16.5843 151.824 19.8173 158.425 24.7315 163.732C29.5165 168.909 35.2066 173.31 41.4141 176.675C49.3028 180.817 57.4501 184.311 65.856 187.159C74.7792 190.395 83.5731 193.501 92.4964 196.737C96.8933 198.29 101.29 199.973 105.687 201.526L105.17 201.137C107.368 212.916 114.998 223.012 125.732 228.448C131.293 231.036 137.242 232.46 143.32 232.59C144.743 232.59 146.165 232.59 147.458 232.719C149.01 232.848 151.209 232.719 152.243 233.884C153.795 235.566 155.088 237.508 156.382 239.449C162.46 247.863 170.995 254.205 180.694 257.829C191.428 261.841 203.325 263.136 214.318 259.253C226.345 254.981 234.88 244.886 239.794 233.366L238.113 234.013C249.235 234.402 260.615 233.625 271.09 229.354C280.531 225.471 288.549 218.87 294.239 210.457C300.188 201.914 303.938 191.948 306.395 181.982C308.982 171.368 310.275 160.496 310.016 149.624C309.758 137.327 307.559 125.161 303.55 113.512C303.162 112.606 300.705 113.253 301.093 114.159C307.947 133.962 309.37 155.319 305.361 175.898C301.61 195.054 293.204 215.763 275.358 225.73C264.366 231.942 251.433 232.978 239.148 232.59C238.63 232.59 237.725 232.719 237.467 233.237C233.846 241.65 228.414 249.416 220.655 254.464C213.283 258.994 204.619 260.935 196.083 259.9C185.996 258.864 176.297 254.852 168.279 248.639C165.434 246.439 162.848 243.85 160.649 241.003C158.451 238.414 156.769 235.178 154.442 232.719C153.019 231.166 149.786 231.295 147.846 231.166C145.518 231.036 143.191 231.036 140.863 230.777C135.949 230.389 131.034 228.965 126.637 226.636C118.102 222.106 111.765 214.34 108.791 205.279C108.403 204.114 108.144 203.079 107.886 201.914C107.886 201.396 107.756 200.749 107.498 200.231C107.11 199.843 106.075 199.584 105.558 199.455C102.454 198.29 99.3504 197.255 96.2467 196.09C90.0392 193.889 83.8318 191.56 77.6243 189.359C65.856 185.088 53.5704 181.205 42.7073 174.992C34.0427 170.074 25.7661 163.343 21.2398 154.283C16.067 144.058 15.4203 131.374 17.6188 120.242C21.8865 98.8861 36.8878 81.8011 54.605 70.0227C72.5808 57.9855 93.4016 49.9608 114.222 44.0069C138.147 37.147 163.236 33.3934 188.195 35.3349C211.343 37.147 233.975 43.8774 253.632 56.4324C270.832 67.4341 285.574 82.4482 295.144 100.569C297.472 104.969 299.412 109.5 301.093 114.159C301.352 115.065 303.809 114.418 303.55 113.512Z" fill="black"/>
<path d="M228.803 223.27C222.596 243.203 209.146 252.522 189.23 246.439C165.952 239.191 167.504 224.176 156.771 220.811C148.235 218.223 143.838 220.423 135.303 217.834C126.768 215.246 114.224 203.467 119.914 184.959C123.923 172.015 133.363 164.897 145.132 161.92C153.279 160.108 161.685 159.719 169.961 160.755C176.557 161.531 183.023 162.955 189.36 164.897C204.62 169.556 222.078 183.017 228.156 200.102C230.872 207.609 231.131 215.763 228.803 223.27Z" fill="black"/>
<path d="M227.51 223.4C224.794 232.072 220.009 241.002 211.604 245.015C202.939 249.286 192.464 247.215 184.058 243.332C179.79 241.52 176.04 238.802 172.807 235.437C170.608 232.978 168.41 230.259 166.599 227.541C165.048 225.212 163.237 223.141 161.039 221.587C157.418 219.128 152.633 218.611 148.494 218.481C143.451 218.222 138.278 218.222 133.622 216.022C130.131 214.339 127.156 211.751 124.828 208.644C118.492 200.231 118.88 188.971 123.406 179.781C134.915 156.483 166.858 159.331 187.55 165.414C198.025 168.65 207.465 174.345 215.095 182.111C223.243 190.394 229.45 201.267 229.321 213.174C229.062 216.669 228.545 220.164 227.51 223.4C227.122 224.564 229.709 224.306 230.097 223.141C237.597 198.29 217.035 175.38 195.568 166.191C189.489 163.731 183.023 161.919 176.557 160.884C169.444 159.59 162.202 159.072 154.96 159.59C144.097 160.366 132.976 163.99 125.604 172.403C118.621 180.428 115 192.595 118.621 202.82C121.466 210.974 128.191 217.187 136.597 219.258C142.545 220.681 148.624 219.775 154.572 221.329C157.676 222.105 160.521 223.917 162.461 226.506C164.66 229.095 166.341 232.072 168.539 234.66C171.255 238.025 174.617 240.873 178.368 243.073C187.032 248.121 198.154 251.098 208.112 248.38C217.035 245.921 223.501 238.931 227.381 230.777C228.545 228.318 229.45 225.859 230.226 223.27C230.355 222.105 227.769 222.364 227.51 223.4Z" fill="black"/>
<path d="M273.808 135.257C276.523 125.29 281.567 114.806 293.335 114.418C302.905 114.159 311.44 121.666 315.061 130.597C321.269 146 317.648 165.673 312.992 180.946C309.501 192.725 304.198 203.856 297.344 214.081C291.913 222.106 282.084 236.343 271.351 236.861C252.728 237.767 253.633 211.104 256.349 199.067C260.229 181.593 265.272 164.249 270.575 147.164C271.739 143.67 272.644 139.399 273.808 135.257Z" fill="white"/>
<path d="M274.972 135.127C277.041 127.491 280.92 117.654 289.456 115.454C299.284 112.865 308.854 120.76 312.992 129.044C317.648 138.493 317.777 149.753 316.484 159.978C315.062 170.98 312.216 181.723 307.949 191.948C303.94 201.785 298.767 210.975 292.559 219.517C289.844 223.4 286.869 226.895 283.507 230.131C280.403 233.108 276.394 236.085 271.997 236.343C256.867 237.12 255.573 217.705 256.479 206.962C257.255 197.643 259.97 188.583 262.427 179.523C264.109 173.439 265.79 167.356 267.6 161.273C269.281 155.448 271.351 149.753 272.902 143.799C273.549 140.952 274.196 137.975 274.972 135.127C275.101 134.61 272.644 134.998 272.515 135.516C270.833 141.728 269.281 147.941 267.342 154.154C265.272 160.755 263.333 167.356 261.522 173.957C259.712 180.429 258.03 187.03 256.479 193.631C255.444 197.514 254.668 201.526 254.151 205.539C252.858 216.929 253.504 236.732 268.764 237.508C277.946 237.897 285.317 231.166 290.878 224.565C297.732 216.281 303.552 207.092 307.949 197.255C312.863 186.512 316.355 175.122 318.295 163.344C320.105 152.342 320.493 140.175 315.967 129.691C312.087 120.76 303.423 113.512 293.335 114.03C289.068 114.289 284.929 115.842 281.696 118.56C278.463 121.408 276.006 125.161 274.584 129.174C273.808 131.245 273.032 133.445 272.515 135.645C272.385 136.033 274.842 135.775 274.972 135.127Z" fill="black"/>
<path d="M145.132 161.92C153.28 160.108 161.686 159.719 169.962 160.755C134.916 190.654 137.114 172.274 145.132 161.92Z" fill="white"/>
<path d="M145.261 162.437C153.149 160.625 161.167 160.366 169.185 161.402L168.797 160.884C163.754 165.285 158.451 169.297 152.761 172.921C151.08 173.957 149.399 174.863 147.588 175.639C146.942 175.898 146.295 176.157 145.649 176.286C145.261 176.416 144.743 176.545 144.355 176.545C142.933 176.675 141.769 175.769 141.51 174.345C141.252 172.533 141.51 170.591 142.286 168.909C143.191 166.32 144.614 163.99 146.295 161.79C146.812 161.143 144.355 161.402 143.967 161.919C142.286 163.99 140.993 166.32 139.958 168.779C139.053 170.721 138.794 172.792 138.924 174.863C140.217 180.687 149.658 175.898 152.373 174.345C158.969 170.462 165.176 165.802 170.996 160.755C171.384 160.496 170.866 160.366 170.608 160.237C162.072 159.072 153.279 159.46 144.873 161.402C144.614 161.402 143.579 161.79 143.709 162.178C143.838 162.567 145.131 162.437 145.261 162.437Z" fill="black"/>
<path d="M228.157 200.232C204.104 216.799 199.836 206.056 215.872 182.111C188.456 205.15 177.98 198.549 195.051 167.615C164.79 194.925 153.668 189.489 169.962 160.884C176.558 161.661 183.024 163.085 189.361 165.026C204.492 169.686 222.079 183.147 228.157 200.232Z" fill="white"/>
<path d="M227.123 200.102C223.631 202.691 219.752 204.762 215.743 206.574C213.932 207.351 211.475 208.127 209.535 207.351C205.267 205.409 208.371 198.032 209.535 195.055C211.604 190.395 214.061 185.994 216.906 181.853C217.165 181.464 216.131 181.464 216.001 181.594C215.484 181.594 214.967 181.853 214.449 182.241C210.182 185.865 205.655 189.23 200.871 192.078C198.284 193.501 195.18 195.313 192.206 195.313C186.128 195.313 187.938 187.03 188.973 183.535C190.783 177.97 193.241 172.533 196.215 167.486C196.603 166.838 194.146 167.486 193.887 167.744C189.232 172.145 184.188 176.158 178.886 179.782C175.911 181.853 172.42 184.053 168.799 184.829C162.85 186.124 163.367 179.393 164.531 175.51C166.212 170.333 168.411 165.415 171.256 160.755L169.187 161.532C179.274 162.697 189.62 165.156 198.543 169.945C206.561 174.216 213.673 180.04 219.234 187.159C222.467 191.172 225.054 195.831 226.864 200.62C227.123 201.267 229.58 200.491 229.321 199.973C223.243 183.147 207.078 169.945 190.266 164.638C183.929 162.697 177.334 161.273 170.738 160.496C169.963 160.367 169.187 160.626 168.669 161.273C165.824 165.932 163.626 170.721 162.074 175.899C161.427 178.358 160.522 181.723 161.815 184.182C162.979 186.253 165.566 186.383 167.635 186.124C171.514 185.347 175.135 183.794 178.368 181.594C184.705 177.581 190.654 172.922 196.086 167.744L193.758 168.003C190.783 173.051 188.326 178.487 186.516 184.053C185.74 186.9 184.835 190.395 185.74 193.372C187.809 199.455 196.991 195.443 200.612 193.501C206.431 190.266 211.863 186.512 216.777 182.111L214.449 182.37C211.604 186.512 209.147 190.913 207.078 195.572C205.785 198.29 205.009 201.267 205.009 204.374C205.267 210.069 211.604 209.163 215.484 207.868C220.269 206.056 224.924 203.597 229.063 200.491C229.58 200.232 229.321 199.973 228.933 199.844C228.287 199.585 227.64 199.714 227.123 200.102Z" fill="black"/>
<path d="M228.803 223.27C209.793 229.871 216.388 219.646 228.156 200.102C230.872 207.609 231.131 215.763 228.803 223.27Z" fill="white"/>
<path d="M228.286 222.882C225.829 223.918 223.243 224.565 220.656 224.694C219.492 224.694 218.458 224.436 218.07 223.141C217.941 221.588 218.199 219.905 218.975 218.482C220.01 215.893 221.303 213.434 222.726 211.104C224.795 207.351 226.993 203.726 229.192 200.102L226.735 200.491C229.45 207.868 229.58 215.893 227.381 223.4C227.122 224.177 229.58 223.788 229.838 223.012C232.166 215.375 231.907 207.221 229.192 199.714C228.933 198.937 227.122 199.585 226.735 200.102C224.536 203.726 222.338 207.351 220.268 210.975C218.717 213.563 217.423 216.152 216.259 218.87C215.613 220.294 214.837 222.365 215.483 223.918C216.001 225.471 217.682 225.73 219.105 225.859C222.467 225.989 225.829 224.694 228.933 223.659C229.321 223.53 229.838 223.141 229.58 222.753C229.321 222.365 228.545 222.753 228.286 222.882Z" fill="black"/>
<path d="M77.6262 131.114C77.6262 131.244 77.1089 131.244 76.2036 131.373L74.5224 131.503C73.8758 131.503 73.0999 131.503 72.324 131.373C65.8578 131.114 59.909 127.879 56.288 122.572C55.2534 121.019 54.2189 119.207 53.4429 117.524C52.0204 114.418 51.3738 112.217 51.3738 112.088C51.3738 111.958 51.2444 111.441 50.8565 110.535C50.4685 110.017 50.3392 109.37 50.0805 108.723C49.8219 108.075 49.6926 107.428 49.4339 106.781C48.7873 105.228 47.8821 103.804 46.5888 102.639C45.1663 101.345 43.3558 100.439 41.5453 99.9212C37.7949 99.1446 33.9153 99.0152 30.0356 99.4035C26.8026 99.6623 24.7334 100.051 24.7334 99.7918C24.7334 99.6623 26.6732 98.8857 29.9063 98.2386C33.9153 97.3326 38.0536 97.2031 42.0626 97.8503C44.3904 98.2386 46.4595 99.274 48.27 100.827C49.8219 102.251 51.1151 103.804 51.8911 105.746C52.1497 106.522 52.5377 107.299 52.7963 107.946C53.055 108.593 53.1843 109.111 53.3136 109.629L53.8309 111.182C53.8309 111.311 54.4775 113.512 55.6414 116.489C56.288 118.171 57.0639 119.724 57.9692 121.277C59.0038 122.96 60.297 124.513 61.8489 125.808C64.8233 128.137 68.4443 129.691 72.1946 130.338C72.9706 130.467 73.7465 130.597 74.3931 130.726L76.0743 130.855C77.1089 130.855 77.6262 130.985 77.6262 131.114Z" fill="black"/>
<path d="M43.2266 150.27C43.3559 150.011 46.7183 151.306 52.0205 152.47C54.9949 153.118 58.0986 153.506 61.2023 153.635C64.694 153.765 68.1857 153.247 71.5481 152.082C74.7812 150.917 77.8849 149.105 80.4714 146.775C82.7991 144.705 84.739 142.375 86.4202 139.786C88.1014 137.197 89.6532 134.35 91.0758 131.502C91.2051 131.244 92.8863 127.878 94.9554 122.831C95.99 120.242 97.2832 117.265 98.5765 114.029C99.999 110.534 102.197 107.428 104.784 104.71C107.5 102.121 110.862 100.309 114.612 99.5327C117.716 99.015 120.949 98.8856 124.182 99.4033C126.381 99.7916 128.579 100.18 130.648 100.827C131.424 100.957 132.33 101.215 133.105 101.604C132.2 101.604 131.424 101.604 130.648 101.345C129.096 101.086 126.769 100.698 124.053 100.568C120.949 100.309 117.975 100.439 115 101.086C111.638 101.863 108.664 103.675 106.206 106.134C103.879 108.722 102.068 111.699 100.775 114.935C99.4817 118.171 98.4471 121.148 97.4126 123.737C95.3434 129.043 93.6622 132.538 93.6622 132.667C92.2397 135.644 90.5585 138.492 88.6187 141.21C86.6788 143.928 84.4803 146.387 82.0232 148.458C79.1781 150.917 75.8157 152.729 72.1947 153.894C68.5737 154.93 64.9527 155.318 61.2023 155.189C57.9693 155.059 54.8656 154.412 51.8911 153.506C50.5979 153.118 49.3047 152.729 48.2701 152.341C47.3649 152.082 46.4596 151.694 45.5544 151.306C44.6491 151.176 43.8732 150.788 43.2266 150.27Z" fill="black"/>
<path d="M72.3241 177.322C72.1948 177.193 72.8414 176.416 73.7466 175.51C74.9105 174.345 75.9451 173.051 76.7211 171.627C77.497 170.203 78.1436 168.78 78.5316 167.226C78.6609 166.45 78.7902 165.803 78.9195 165.026C79.0489 164.249 79.0489 163.602 79.0489 162.826C79.0489 162.437 79.0489 162.179 79.0489 161.79C79.0489 161.402 78.9195 161.014 78.9195 160.625C78.7902 159.849 78.5316 158.943 78.1436 158.166C77.8849 157.39 77.497 156.613 76.9797 155.836L75.6865 153.895C74.7812 152.859 74.2639 152.083 74.3933 151.953C74.5226 151.824 75.2985 152.342 76.4624 153.118C76.9797 153.636 77.6263 154.154 78.2729 154.93C78.9195 155.707 79.4368 156.484 79.9541 157.26C80.4714 158.166 80.8594 159.072 81.2473 159.978C81.3766 160.496 81.506 160.884 81.6353 161.273C81.7646 161.661 81.7646 162.049 81.8939 162.567C82.0233 163.473 82.0233 164.379 81.8939 165.285C81.7646 166.191 81.506 167.097 81.2473 167.874C80.6007 169.556 79.6955 171.239 78.5316 172.663C77.3677 174.086 76.0744 175.251 74.5226 176.287C73.3587 177.193 72.4534 177.581 72.3241 177.322Z" fill="black"/>
<path d="M157.676 118.689C158.193 117.783 158.839 116.877 159.615 115.971C161.297 113.641 162.719 111.053 163.754 108.464C165.306 104.71 166.34 100.827 166.728 96.815C167.245 92.2849 166.728 87.6254 165.435 83.2247C164.142 78.824 161.685 74.941 158.451 71.7052C157.029 70.2814 155.218 69.246 153.279 68.5988C151.468 68.0811 149.658 67.8222 147.847 67.8222C145.002 67.8222 142.028 68.2105 139.312 68.9871C137.243 69.5048 135.949 69.8931 135.82 69.8931C135.561 69.8931 130.777 71.3169 123.793 73.6467C120.301 74.8116 116.292 76.2353 111.895 77.5296C107.369 78.9534 102.584 79.8594 97.7994 80.5066C93.0144 81.1537 88.1002 80.8949 83.4446 79.4711C82.41 79.0828 81.2461 78.6945 80.2115 78.1768C77.4958 76.6236 75.168 74.5527 73.3575 72.0935C71.6763 69.6343 70.2537 67.0456 69.2191 64.3276C68.7019 63.2921 68.4432 62.2566 68.1846 61.2212C68.8312 62.1272 69.3485 63.1627 69.7364 64.0687C70.9003 66.6573 72.4522 69.1166 74.1334 71.4463C76.5905 74.5527 79.9529 76.8825 83.8326 78.0474C88.2295 79.2123 92.8851 79.3417 97.4114 78.5651C106.852 77.2708 115.904 73.6467 122.759 71.3169C129.613 68.7283 134.527 67.3045 134.915 67.3045C135.044 67.3045 136.337 66.9162 138.536 66.3985C141.51 65.7513 144.614 65.363 147.718 65.363C149.787 65.363 151.985 65.7513 153.925 66.3985C156.124 67.1751 158.193 68.4694 159.874 70.152C163.366 73.7761 165.823 78.0474 167.116 82.8364C168.409 87.4959 168.668 92.4143 168.021 97.2033C167.504 101.345 166.211 105.358 164.4 109.111C163.107 111.7 161.555 114.288 159.615 116.489C159.357 117.265 158.581 118.042 157.676 118.689Z" fill="black"/>
<path d="M206.302 49.0551C204.879 49.5728 203.457 49.9611 202.034 50.22C198.931 50.9966 196.085 52.1615 193.37 53.7147C190.783 55.2679 188.843 57.5976 187.938 60.4451C187.68 61.4806 187.55 62.3866 187.421 63.4221C187.292 64.1987 187.292 64.7164 187.292 64.8458C186.904 66.399 186.516 67.9522 185.869 69.5054C185.61 70.282 185.222 70.9291 184.834 71.5763C183.541 74.0355 181.731 76.1064 179.403 77.5302C176.558 79.2128 173.325 80.2483 169.962 80.5071C168.54 80.766 166.988 80.766 165.565 80.3777C165.565 80.1188 167.247 79.9894 169.833 79.3422C172.937 78.6951 175.782 77.5302 178.368 75.8476C180.696 74.0355 182.507 71.4469 183.412 68.5994C183.8 67.1756 184.188 65.7519 184.446 64.3281C184.446 64.3281 184.576 63.8104 184.705 63.0338C184.834 61.8689 185.093 60.704 185.481 59.6686C185.998 58.1154 186.904 56.5622 188.067 55.3973C189.361 53.9735 190.783 52.9381 192.464 52.0321C195.439 50.4789 198.672 49.5728 201.905 49.1846C204.491 48.6668 206.302 48.7963 206.302 49.0551Z" fill="black"/>
<path d="M257.254 71.3171C257.384 71.4466 256.22 72.7409 254.28 74.6824C253.245 75.5884 251.952 76.4944 250.659 77.5299C249.883 78.0476 249.107 78.4359 248.331 78.8242C247.555 79.3419 246.779 79.7302 245.874 80.1185C244.193 80.8951 242.512 81.5423 240.701 81.9306C239.796 82.1894 239.02 82.4483 238.244 82.5777L236.046 82.8366C234.882 82.966 233.718 83.0954 232.554 83.0954H231.131C229.45 82.966 227.898 82.8366 226.346 82.4483C222.984 81.8011 219.751 80.7657 216.647 79.3419C213.673 77.9182 210.828 76.1061 208.241 73.9058L206.948 72.6114C206.56 72.2231 206.301 71.8348 206.043 71.576C205.526 70.9288 205.267 70.5405 205.396 70.5405C205.526 70.5405 205.914 70.67 206.431 71.1877C206.689 71.4466 207.077 71.7054 207.465 72.0937L208.888 73.1292C211.604 74.9412 214.319 76.365 217.423 77.6593C220.398 78.8242 223.501 79.6008 226.734 79.9891C228.286 80.1185 229.709 80.2479 231.261 80.2479H232.554C233.588 80.2479 234.623 80.2479 235.787 80.1185L237.856 79.9891C238.632 79.8596 239.408 79.7302 240.184 79.6008C241.865 79.2125 243.546 78.8242 245.098 78.177C245.874 77.9182 246.65 77.5299 247.426 77.1416C248.202 76.7533 248.978 76.4944 249.754 76.1061C251.176 75.2001 252.47 74.5529 253.504 73.7763C255.703 72.2231 257.125 71.1877 257.254 71.3171Z" fill="black"/>
<path d="M226.865 104.97C226.735 104.582 232.038 103.287 236.822 101.087C237.469 100.828 237.986 100.569 238.633 100.31L240.314 99.4042C241.349 98.8865 242.254 98.3688 243.159 97.7216C243.806 97.3333 244.452 96.8156 245.099 96.2979L245.875 95.6507C246.134 95.5213 246.392 95.2624 246.651 95.0035L247.427 94.3564C247.815 94.0975 248.073 93.7092 248.332 93.4503C251.565 90.0851 252.47 85.0373 250.531 80.766C250.272 80.3777 250.143 79.86 250.013 79.6011C249.884 79.3423 249.625 78.954 249.496 78.6951C249.237 78.1774 249.108 77.7891 249.237 77.7891C249.367 77.7891 249.625 77.9185 250.013 78.3068C250.272 78.5657 250.531 78.8245 250.789 79.0834C251.048 79.4717 251.307 79.86 251.565 80.2483C252.988 82.4486 253.634 85.1667 253.505 87.7553C253.246 90.4734 252.212 93.0621 250.531 95.133C250.272 95.5213 249.884 95.9096 249.496 96.2979L248.72 97.2039C248.461 97.4627 248.203 97.7216 247.944 97.9805L247.039 98.6276C246.392 99.1454 245.616 99.6631 244.84 100.051C243.806 100.699 242.771 101.216 241.607 101.734L239.797 102.511L237.857 103.158C232.296 104.84 226.865 105.358 226.865 104.97Z" fill="black"/>
<path d="M185.998 153.118C185.74 152.989 187.938 150.4 190.136 146C191.3 143.54 192.335 140.822 192.982 138.104C193.757 134.998 194.016 131.892 194.016 128.656C194.016 127.879 194.016 127.103 193.887 126.197C193.887 125.42 193.757 124.643 193.628 123.867C193.499 123.09 193.37 122.314 193.111 121.666C192.982 121.019 192.723 120.501 192.335 119.984C192.076 119.725 191.688 119.595 191.3 119.595C190.783 119.725 190.266 119.984 189.749 120.243C188.714 120.89 187.679 121.796 186.774 122.702C183.282 126.197 181.213 129.044 181.084 129.173L175.394 135.904C173.713 137.845 171.773 140.046 169.445 142.376C166.988 144.835 163.625 146.517 160.134 146.906C156.771 147.294 153.28 146.776 150.176 145.611C147.46 144.576 144.874 143.282 142.546 141.599C140.865 140.434 139.313 139.14 137.89 137.587C136.856 136.551 136.468 135.774 136.468 135.774C136.597 135.645 138.925 138.104 143.063 140.563C145.391 141.987 147.977 143.152 150.564 143.929C153.538 144.835 156.642 145.223 159.746 144.705C162.72 144.188 165.565 142.764 167.634 140.434C169.704 138.234 171.643 135.904 173.195 133.962L178.627 127.103C180.567 124.773 182.636 122.702 184.705 120.631C185.74 119.595 186.903 118.689 188.197 117.913C188.973 117.395 189.878 117.136 190.783 117.007C191.042 117.007 191.3 117.007 191.559 117.007C191.818 117.007 192.206 117.136 192.464 117.266C192.723 117.395 192.982 117.525 193.24 117.654C193.499 117.783 193.628 118.042 193.887 118.172C194.533 118.948 194.921 119.854 195.18 120.76C195.439 121.537 195.568 122.443 195.568 123.349C195.697 124.255 195.827 125.032 195.827 125.938C195.827 126.844 195.956 127.62 195.827 128.526C195.827 131.892 195.309 135.257 194.275 138.363C193.499 141.081 192.335 143.799 190.783 146.258C189.749 148.071 188.585 149.624 187.291 151.177C186.645 152.601 185.998 153.248 185.998 153.118Z" fill="black"/>
<path d="M212.896 154.801C212.508 154.93 211.474 151.565 209.922 148.588C209.146 147.294 208.37 146 207.335 144.835C206.818 144.317 206.43 143.799 205.913 143.411L205.525 143.023C205.137 142.634 204.878 142.376 204.361 142.117C203.844 141.728 203.197 141.34 202.68 140.952C202.033 140.564 201.257 140.305 200.481 139.916C199.059 139.399 197.507 139.01 196.084 138.751C194.791 138.622 194.015 138.363 193.886 138.234C193.757 138.104 194.791 137.845 196.084 137.716C197.766 137.587 199.447 137.716 200.999 138.104C201.904 138.234 202.809 138.622 203.585 138.881C204.361 139.14 205.008 139.528 205.784 140.046C206.301 140.305 206.818 140.693 207.206 141.081L207.723 141.599C208.241 142.246 208.887 142.893 209.275 143.54C210.31 144.964 211.086 146.517 211.603 148.071C212.896 151.306 213.155 154.801 212.896 154.801Z" fill="black"/>
<path d="M247.426 151.824C247.426 151.953 247.167 152.212 246.391 152.601C245.356 153.118 244.322 153.248 243.158 153.248C239.796 153.248 236.562 151.824 234.105 149.494C231.778 147.164 229.838 144.317 228.545 141.34C227.381 138.881 226.734 137.198 226.605 137.198C226.475 137.198 225.958 135.386 224.923 133.056C223.76 130.209 222.078 127.75 219.88 125.679C217.681 123.737 214.707 122.702 211.733 122.702C209.276 122.831 207.853 123.996 207.724 123.737C207.724 123.608 207.982 123.349 208.629 122.831C209.534 122.184 210.569 121.796 211.603 121.537C214.966 121.019 218.457 121.925 221.173 123.996C223.76 126.067 225.829 128.785 227.381 131.891C228.674 134.351 229.32 136.033 229.32 136.033C229.32 136.033 229.967 137.845 231.002 140.175C232.036 143.023 233.588 145.741 235.657 148.07C237.726 150.271 240.442 151.695 243.417 152.083C245.744 152.342 247.296 151.565 247.426 151.824Z" fill="black"/>
<path d="M310.147 58.8915C310.277 59.0209 309.889 60.0564 308.983 61.3507C307.819 63.0333 306.397 64.457 304.845 65.6219C299.931 69.3755 293.465 70.5404 287.645 68.5989C285.705 68.0811 283.895 67.1751 282.214 66.0102C280.92 65.1042 280.144 64.3276 280.274 64.0687C280.532 63.8099 284.024 66.0102 288.033 66.528C289.844 66.7868 291.654 66.9163 293.465 66.7868C295.146 66.528 296.827 66.2691 298.508 65.8808C300.319 65.3631 302 64.7159 303.552 63.8099C307.302 61.9978 309.889 58.762 310.147 58.8915Z" fill="black"/>
<path d="M325.536 74.0349C325.536 74.4232 322.303 75.1998 318.941 75.3292C317.389 75.4587 315.707 75.3292 314.156 75.0704C313.38 74.9409 312.604 74.8115 311.957 74.6821C311.181 74.4232 310.535 74.1644 309.888 73.7761C308.465 73.1289 307.043 72.2229 305.75 71.3168C302.905 69.3754 300.835 66.6573 301.094 66.3984C301.353 66.1396 303.939 68.081 306.784 69.5048C308.077 70.152 309.371 70.7991 310.793 71.1874C311.957 71.5757 312.733 71.7051 312.733 71.7051C312.733 71.7051 313.509 71.964 314.673 72.3523C316.095 72.7406 317.518 72.9995 318.941 73.1289C322.174 73.6466 325.536 73.5172 325.536 74.0349Z" fill="black"/>
<path d="M334.718 90.4731C334.847 90.6025 334.459 91.3791 333.554 92.4146C332.39 93.7089 330.838 94.7444 329.286 95.3915C327.605 96.0387 325.924 96.427 324.113 96.5564C323.208 96.5564 322.432 96.5564 321.527 96.5564C320.751 96.427 319.846 96.1681 319.07 96.0387C317.389 95.5209 315.837 94.8738 314.285 93.9678C312.862 93.0617 311.44 92.0263 310.276 90.732C309.371 89.6965 308.853 88.9199 308.983 88.7905C309.112 88.661 309.888 89.1788 310.922 89.8259C312.216 90.732 313.638 91.3791 315.19 92.0263C316.613 92.6734 318.164 93.0617 319.716 93.3206C321.01 93.5795 321.785 93.5795 321.915 93.5795C322.044 93.5795 322.82 93.7089 324.113 93.8383C325.665 93.9678 327.217 93.8383 328.64 93.45C330.191 93.0617 331.614 92.4146 332.907 91.638C333.812 90.8614 334.588 90.3437 334.718 90.4731Z" fill="black"/>
<path d="M353.599 199.843C350.366 199.843 347.779 197.255 347.779 194.019C347.779 193.372 347.909 192.725 348.167 192.077C349.46 188.583 352.435 186.771 354.633 185.476C354.504 185.347 354.504 185.218 354.375 185.088C353.211 183.017 351.659 180.429 352.176 177.193C352.694 173.698 355.28 171.498 357.22 169.815C357.608 169.556 358.125 169.039 358.384 168.78C359.289 165.673 362.393 163.861 365.496 164.638C368.212 165.414 370.023 167.874 369.764 170.721C369.505 174.604 366.66 177.063 364.72 178.617C364.591 178.746 364.462 178.875 364.333 178.875C364.333 178.875 364.333 178.875 364.333 179.005C365.755 181.335 367.824 184.829 366.66 188.971C365.755 192.336 362.781 194.019 360.582 195.313C359.936 195.702 359.418 195.96 358.772 196.349C357.866 198.679 355.927 199.973 353.599 199.843Z" fill="black"/>
<path d="M29.2591 67.5634C29.3885 67.6929 28.2246 68.9872 26.5434 70.7992C24.8622 72.6113 22.5344 75.0705 20.3359 77.6591C18.2668 80.2478 16.1976 82.9659 14.7751 85.1662C13.3525 87.2371 12.4473 88.7903 12.4473 88.9197C12.4473 89.0492 11.4127 90.4729 10.1195 92.6733C8.69692 94.8736 7.14505 97.7211 5.59318 100.827C4.04132 103.804 2.7481 106.911 1.84284 109.241C0.937585 111.57 0.290975 113.124 0.0323306 113.124C-0.0969916 113.124 0.161652 111.441 0.808263 108.852C1.5842 105.875 2.61877 102.898 3.78267 99.9215C4.94657 96.9445 6.36912 94.097 7.92098 91.3789C9.2142 89.0492 10.1195 87.496 10.1195 87.496C10.2488 87.3665 11.154 85.9428 12.8352 83.8719C14.7751 81.2832 16.8442 78.9535 19.0427 76.6237C21.2412 74.2939 23.569 72.223 25.8968 70.1521C27.7073 68.34 29.1298 67.434 29.2591 67.5634Z" fill="black"/>
<path d="M293.723 197.902C290.49 197.902 287.903 195.313 287.903 192.078C287.903 191.43 288.033 190.783 288.291 190.136C289.585 186.641 292.559 184.829 294.757 183.535C294.628 183.406 294.628 183.276 294.499 183.147C293.335 181.076 291.783 178.487 292.3 175.251C292.818 171.757 295.404 169.556 297.344 167.874C297.732 167.615 298.249 167.097 298.508 166.838C299.413 163.732 302.517 161.92 305.62 162.826C308.336 163.602 310.147 166.062 309.888 168.909C309.629 172.792 306.784 175.251 304.845 176.805C304.715 176.934 304.586 177.063 304.457 177.063V177.193C305.879 179.523 307.948 183.017 306.784 187.159C305.879 190.524 302.905 192.207 300.706 193.501C300.06 193.89 299.542 194.148 298.896 194.537C297.99 196.737 296.051 197.902 293.723 197.902Z" fill="black"/>
<path d="M239.019 254.722C239.148 254.852 238.631 256.017 237.597 257.829C236.303 259.9 234.751 261.97 233.07 263.783C231.389 265.595 229.449 267.277 227.38 268.83C225.699 270.125 224.406 270.772 224.406 270.901C224.276 270.901 223.112 271.678 221.173 272.454C218.845 273.49 216.517 274.267 214.06 274.914C211.603 275.431 209.146 275.82 206.689 275.949C205.525 276.079 204.361 275.949 203.326 275.69C203.326 275.431 204.619 275.302 206.559 274.914C208.887 274.396 211.215 273.878 213.543 273.102C215.741 272.325 217.94 271.29 220.138 270.254C221.819 269.348 222.983 268.572 223.112 268.572C223.112 268.572 224.406 267.924 226.087 266.889C228.156 265.595 229.967 264.171 231.777 262.618C233.588 261.064 235.269 259.252 236.821 257.44C237.985 255.628 238.89 254.593 239.019 254.722Z" fill="black"/>
<path d="M229.061 17.344C228.932 17.6028 227.251 16.9557 224.535 16.3085C221.302 15.5319 217.94 14.8848 214.577 14.4965C211.215 14.1082 207.853 14.1082 204.49 14.2376C201.774 14.367 199.835 14.6259 199.705 14.6259C199.576 14.6259 197.636 14.7553 194.92 15.1436C191.558 15.6614 188.325 16.438 185.092 17.344C181.859 18.3794 178.755 19.5443 175.651 20.9681C173.194 22.133 171.513 23.039 171.384 22.7801C172.418 21.6152 173.712 20.7092 175.134 19.9326C178.109 18.1206 181.212 16.5674 184.445 15.2731C187.678 13.9787 191.041 13.0727 194.532 12.4256C197.378 11.9078 199.317 11.649 199.447 11.649C199.576 11.649 201.516 11.5195 204.49 11.5195C207.982 11.5195 211.474 11.9078 214.965 12.4256C218.328 13.0727 221.69 13.9787 224.923 15.1436C226.475 15.7908 227.898 16.438 229.061 17.344Z" fill="black"/>
<path d="M249.624 5.69501C249.495 6.08331 243.676 4.65956 237.856 3.88296C234.882 3.49467 231.907 3.2358 229.709 3.10637C227.51 2.97694 225.958 2.97694 225.829 2.97694C225.7 2.97694 224.148 2.84751 221.949 2.71807C219.751 2.58864 216.777 2.58864 213.802 2.71807C207.853 2.84751 202.034 3.75353 201.904 3.36524C201.775 2.97694 207.595 1.29432 213.673 0.647161C216.647 0.258864 219.751 0.129432 222.079 0C224.407 0 225.958 0 226.088 0C226.217 0 227.769 0.129432 230.097 0.388296C232.424 0.647161 235.399 1.16489 238.373 1.81205C244.193 3.10637 249.754 5.30672 249.624 5.69501Z" fill="black"/>
</svg>
