<svg width="3367" height="984" viewBox="0 0 3367 984" fill="none" xmlns="http://www.w3.org/2000/svg">
<path d="M2521.73 983.033C2733.05 983.033 2903.27 947.416 3032.41 876.182C3161.55 804.948 3273.08 709.969 3367 591.245L3134.55 277.814C3026.54 358.546 2931.45 416.721 2849.27 452.338C2767.09 487.955 2667.3 505.764 2549.9 505.764C2404.33 505.764 2268.15 482.019 2141.36 434.529C2014.56 387.04 1885.43 330.052 1753.94 263.567C1589.58 182.835 1440.48 118.724 1306.65 71.2343C1172.81 23.7448 1019.02 0 845.272 0C633.954 0 463.726 35.6172 334.587 106.851C205.448 178.086 93.9191 273.065 0 391.789L232.45 705.22C340.457 624.487 435.55 566.313 517.729 530.696C599.908 495.078 699.697 477.27 817.096 477.27C962.671 477.27 1098.85 501.015 1225.64 548.504C1352.44 595.994 1481.57 652.981 1613.06 719.466C1777.42 800.199 1926.52 864.31 2060.35 911.799C2194.19 959.289 2347.98 983.033 2521.73 983.033Z" fill="#3E3E3E"/>
<path d="M2521.73 983.033C2733.05 983.033 2903.27 947.416 3032.41 876.182C3161.55 804.948 3273.08 709.969 3367 591.245L3134.55 277.814C3026.54 358.546 2931.45 416.721 2849.27 452.338C2767.09 487.955 2667.3 505.764 2549.9 505.764C2404.33 505.764 2268.15 482.019 2141.36 434.529C2014.56 387.04 1885.43 330.052 1753.94 263.567C1589.58 182.835 1440.48 118.724 1306.65 71.2343C1172.81 23.7448 1019.02 0 845.272 0C633.954 0 463.726 35.6172 334.587 106.851C205.448 178.086 93.9191 273.065 0 391.789L232.45 705.22C340.457 624.487 435.55 566.313 517.729 530.696C599.908 495.078 699.697 477.27 817.096 477.27C962.671 477.27 1098.85 501.015 1225.64 548.504C1352.44 595.994 1481.57 652.981 1613.06 719.467C1777.42 800.199 1926.52 864.31 2060.35 911.799C2194.18 959.289 2347.98 983.033 2521.73 983.033Z" fill="url(#paint0_linear)"/>
<defs>
<linearGradient id="paint0_linear" x1="0" y1="0" x2="3535.35" y2="0" gradientUnits="userSpaceOnUse">
<stop stop-color="#6633FF"/>
<stop offset="0.567708" stop-color="#3366FF"/>
<stop offset="1" stop-color="#0099FF"/>
</linearGradient>
</defs>
</svg>
