<?xml version="1.0" encoding="UTF-8"?>
<svg width="68px" height="42px" viewBox="0 0 68 42" version="1.1" xmlns="http://www.w3.org/2000/svg" xmlns:xlink="http://www.w3.org/1999/xlink">
    <title>abbreviation</title>
    <defs>
        <filter x="-5.7%" y="-9.8%" width="111.4%" height="119.5%" filterUnits="objectBoundingBox" id="filter-1">
            <feOffset dx="1" dy="1" in="SourceAlpha" result="shadowOffsetOuter1"></feOffset>
            <feGaussianBlur stdDeviation="0.25" in="shadowOffsetOuter1" result="shadowBlurOuter1"></feGaussianBlur>
            <feColorMatrix values="0 0 0 0 0.0901960784   0 0 0 0 0.062745098   0 0 0 0 0.250980392  0 0 0 1 0" type="matrix" in="shadowBlurOuter1" result="shadowMatrixOuter1"></feColorMatrix>
            <feMerge>
                <feMergeNode in="shadowMatrixOuter1"></feMergeNode>
                <feMergeNode in="SourceGraphic"></feMergeNode>
            </feMerge>
        </filter>
        <linearGradient x1="0%" y1="0%" x2="105%" y2="0%" id="linearGradient-2">
            <stop stop-color="#8F6AFA" offset="0%"></stop>
            <stop stop-color="#375CDC" offset="56.7708%"></stop>
            <stop stop-color="#0099EE" offset="100%"></stop>
        </linearGradient>
        <linearGradient x1="0%" y1="0%" x2="105%" y2="0%" id="linearGradient-3">
            <stop stop-color="#8F6AFA" offset="0%"></stop>
            <stop stop-color="#375CDC" offset="56.7708%"></stop>
            <stop stop-color="#0099EE" offset="100%"></stop>
        </linearGradient>
    </defs>
    <g id="🧬-Symbols" stroke="none" stroke-width="1" fill="none" fill-rule="evenodd">
        <g id="logowhitebg" transform="translate(0.000000, 0.896400)" filter="url(#filter-1)">
            <path d="M13.4989,25.2798 C16.7713,25.2798 18.4076,23.3324 18.4076,19.4378 L18.4076,9.6658 C18.4076,5.7711 16.7713,3.8238 13.4989,3.8238 C10.2264,3.8238 8.5902,5.7711 8.5902,9.6658 L8.5902,19.4378 C8.5902,23.3324 10.2264,25.2798 13.4989,25.2798 Z M13.4989,29.1036 C11.4714,29.1036 9.62173,28.785 7.94993,28.1476 C6.3137,27.4749 4.8909,26.519 3.68151,25.2798 C2.5077,24.0406 1.60066,22.5181 0.960394,20.7124 C0.320131,18.9067 0,16.8532 0,14.5518 C0,12.2504 0.320131,10.1969 0.960394,8.3912 C1.60066,6.5855 2.5077,5.063 3.68151,3.8238 C4.8909,2.5846 6.3137,1.6463 7.94993,1.009 C9.62173,0.3363 11.4714,1.13686838e-13 13.4989,1.13686838e-13 C15.5264,1.13686838e-13 17.3582,0.3363 18.9945,1.009 C20.6663,1.6463 22.0891,2.5846 23.2629,3.8238 C24.4723,5.063 25.3971,6.5855 26.0374,8.3912 C26.6776,10.1969 26.9978,12.2504 26.9978,14.5518 C26.9978,16.8532 26.6776,18.9067 26.0374,20.7124 C25.3971,22.5181 24.4723,24.0406 23.2629,25.2798 C22.0891,26.519 20.6663,27.4749 18.9945,28.1476 C17.3582,28.785 15.5264,29.1036 13.4989,29.1036 Z" id="Shape" fill="#121212" fill-rule="nonzero"></path>
            <g id="Group-3" transform="translate(26.860200, 1.584200)">
                <g id="Group-2" fill="#121212" fill-rule="nonzero">
                    <path d="M0,0 L7.3098,0 L10.0308,13.4365 L10.9378,21.0842 L11.6848,21.0842 L12.8048,13.4365 L16.0068,0 L23.2628,0 C24.9650951,6.42506205 26.0854284,10.9038954 26.6238,13.4365 C27.1621716,15.9691046 27.5358382,18.518338 27.7448,21.0842 L28.3848,21.0842 L29.2918,13.4365 L32.2268,0 L39.0558,0 L32.2268,27.8821 L24.0628,27.8821 L20.9148,14.2862 L19.9018,6.7979 L19.1548,6.7979 L18.1408,14.2862 L14.9928,27.8821 L6.8298,27.8821 L0,0 Z" id="Path"></path>
                </g>
                <path d="M33.7799409,32.9956 C33.2871652,33.2455 32.8551865,33.4335 32.4840047,33.5597 C32.0792247,33.7071 31.6237804,33.7807 31.1182053,33.7807 C30.5107685,33.7807 29.9166644,33.6794 29.3348264,33.4769 C28.727923,33.2743 28.0954208,33.0441 27.4378531,32.7863 C26.7040226,32.4732 26.0213895,32.2338 25.3888873,32.068 C24.7313197,31.9023 23.9852231,31.8194 23.1505975,31.8194 C22.1133152,31.8194 21.1901607,31.9759 20.3811338,32.289 C19.5865063,32.587 18.9870691,32.96 18.5822891,33.408 C18.4009646,33.4861 18.2281732,33.5551 18.0639146,33.615 C17.6841999,33.7439 17.2415551,33.8084 16.7359799,33.8084 C16.1285432,33.8084 15.5216397,33.7071 14.9147363,33.5045 C14.3328982,33.3019 13.7131954,33.0717 13.0556278,32.8139 C12.3223305,32.5008 11.6263648,32.2614 10.9687972,32.0956 C10.3368283,31.9115 9.60299773,31.8194 8.76837215,31.8194 C7.73162319,31.8194 6.79566926,31.9851 5.96104368,32.3166 C5.15148353,32.6481 4.54447341,33.0533 4.1398,33.5321 L5.84691597,35.6592 C6.35302438,35.4014 6.79566926,35.208 7.1748506,35.0791 C7.57963067,34.9317 8.03507492,34.8581 8.54065003,34.8581 C9.14808679,34.8581 9.74219088,34.9594 10.3240289,35.1619 C10.9309324,35.3645 11.5634346,35.5947 12.2210022,35.8526 C12.9542994,36.1656 13.6374658,36.405 14.269968,36.5708 C14.9275356,36.7365 15.6736322,36.8194 16.5082578,36.8194 C17.5450068,36.8194 18.4681613,36.6629 19.2777215,36.3498 C20.072349,36.0518 20.6717862,35.6788 21.0765663,35.2308 C21.2578907,35.1527 21.4306822,35.0837 21.5949408,35.0238 C21.9746554,34.8949 22.4173003,34.8305 22.9228754,34.8305 C23.5297788,34.8305 24.1372156,34.9317 24.7441191,35.1343 C25.3259571,35.3369 25.9456599,35.5671 26.6032275,35.8249 C27.3365248,36.138 28.0319572,36.3774 28.6900582,36.5432 C29.322027,36.7273 30.0558576,36.8194 30.8904832,36.8194 C31.9272321,36.8194 32.8631861,36.6537 33.6978116,36.3222 C34.3703119,36.0467 34.1735216,32.6184 33.7799409,32.9956 Z" id="Path" fill="url(#linearGradient-2)"></path>
            </g>
            <polygon id="Shape" fill="url(#linearGradient-3)" points="0 34.1036 0 37.1036 27 37.1036 27 34.1036"></polygon>
        </g>
    </g>
</svg>