<svg width="62" height="63" viewBox="0 0 62 63" fill="none" xmlns="http://www.w3.org/2000/svg">
<path d="M1.1656 60.8246H0.62C0.2728 60.8246 0 61.0977 0 61.4452C0 61.7928 0.2728 62.0659 0.62 62.0659H1.1656C1.5128 62.0659 1.7856 61.7928 1.7856 61.4452C1.7856 61.0977 1.5128 60.8246 1.1656 60.8246ZM36.5304 2.66883H37.3364V3.47569C37.3364 3.82326 37.6092 4.09635 37.9564 4.09635C38.3036 4.09635 38.5764 3.82326 38.5764 3.47569V2.66883H39.3824C39.7296 2.66883 40.0024 2.39574 40.0024 2.04817C40.0024 1.70061 39.7296 1.42752 39.3824 1.42752H38.5764V0.620659C38.5764 0.27309 38.3036 0 37.9564 0C37.6092 0 37.3364 0.27309 37.3364 0.620659V1.42752H36.5304C36.1832 1.42752 35.9104 1.70061 35.9104 2.04817C35.9104 2.39574 36.1832 2.66883 36.5304 2.66883ZM30.3056 2.66883H31.1116V3.47569C31.1116 3.82326 31.3844 4.09635 31.7316 4.09635C32.0788 4.09635 32.3516 3.82326 32.3516 3.47569V2.66883H33.1576C33.5048 2.66883 33.7776 2.39574 33.7776 2.04817C33.7776 1.70061 33.5048 1.42752 33.1576 1.42752H32.3516V0.620659C32.3516 0.27309 32.0788 0 31.7316 0C31.3844 0 31.1116 0.27309 31.1116 0.620659V1.42752H30.3056C29.9584 1.42752 29.6856 1.70061 29.6856 2.04817C29.6856 2.39574 29.9584 2.66883 30.3056 2.66883ZM42.7428 2.66883H43.5488V3.47569C43.5488 3.82326 43.8216 4.09635 44.1688 4.09635C44.516 4.09635 44.7888 3.82326 44.7888 3.47569V2.66883H45.5948C45.942 2.66883 46.2148 2.39574 46.2148 2.04817C46.2148 1.70061 45.942 1.42752 45.5948 1.42752H44.7888V0.620659C44.7888 0.27309 44.516 0 44.1688 0C43.8216 0 43.5488 0.27309 43.5488 0.620659V1.42752H42.7428C42.3956 1.42752 42.1228 1.70061 42.1228 2.04817C42.1228 2.39574 42.408 2.66883 42.7428 2.66883ZM42.1352 24.1064H36.4932C34.782 24.1064 33.3932 25.4967 33.3932 27.2097V27.5697C33.3932 28.5131 34.162 29.2827 35.1044 29.2827H43.524C44.4664 29.2827 45.2352 28.5131 45.2352 27.5697V27.2097C45.2352 25.4967 43.8464 24.1064 42.1352 24.1064ZM40.9696 19.5632L44.3548 21.1769C44.4416 21.2141 44.5284 21.239 44.6152 21.239C44.8508 21.239 45.074 21.1024 45.1732 20.8914C45.322 20.5811 45.1856 20.2087 44.8756 20.0597L42.656 19.0046L44.8756 17.9495C45.1856 17.8005 45.3096 17.4281 45.1732 17.1178C45.0244 16.8074 44.6524 16.6709 44.3424 16.8199L40.9572 18.4336C40.7464 18.5329 40.61 18.7563 40.61 18.9922C40.61 19.2404 40.7464 19.4639 40.9696 19.5632ZM61.38 60.8246H60.8344C60.4872 60.8246 60.2144 61.0977 60.2144 61.4452C60.2144 61.7928 60.4872 62.0659 60.8344 62.0659H61.38C61.7272 62.0659 62 61.7928 62 61.4452C62 61.0977 61.7272 60.8246 61.38 60.8246ZM58.1808 60.8246H3.8192C3.472 60.8246 3.1992 61.0977 3.1992 61.4452C3.1992 61.7928 3.472 62.0659 3.8192 62.0659H58.1932C58.5404 62.0659 58.8132 61.7928 58.8132 61.4452C58.8132 61.0977 58.528 60.8246 58.1808 60.8246ZM21.638 40.5415V59.1612C21.638 59.5088 21.9108 59.7819 22.258 59.7819C22.6052 59.7819 22.878 59.5088 22.878 59.1612V39.9208C22.878 39.5732 22.6052 39.3001 22.258 39.3001H17.856V33.6894H30.442C32.0044 34.6824 33.7776 35.3279 35.65 35.5886C35.65 35.5886 35.65 35.5886 35.6624 35.5886C35.7988 35.6134 35.9476 35.6258 36.084 35.6382C36.0964 35.6382 36.1212 35.6382 36.1336 35.6382C36.2576 35.6507 36.3816 35.6631 36.518 35.6755C36.5428 35.6755 36.58 35.6755 36.6048 35.6879C36.7288 35.7003 36.8404 35.7003 36.9644 35.7127C37.0016 35.7127 37.0264 35.7127 37.0636 35.7127C37.2124 35.7127 37.3612 35.7251 37.5224 35.7251C37.6588 35.7251 37.8076 35.7251 37.944 35.7127C37.9812 35.7127 38.0184 35.7127 38.068 35.7127C38.1796 35.7127 38.2912 35.7003 38.3904 35.7003C38.4276 35.7003 38.4648 35.7003 38.4896 35.6879C38.626 35.6755 38.7624 35.6631 38.9112 35.6507C38.936 35.6507 38.9608 35.6507 38.9856 35.6382C39.0972 35.6258 39.2212 35.6134 39.3328 35.601C39.37 35.601 39.4196 35.5886 39.4568 35.5886C39.5684 35.5762 39.68 35.5513 39.7792 35.5389C39.804 35.5389 39.8412 35.5265 39.866 35.5265C39.99 35.5017 40.1264 35.4769 40.2504 35.452C40.3 35.4396 40.362 35.4272 40.4116 35.4148C40.486 35.4024 40.5604 35.3776 40.6472 35.3652C40.7092 35.3527 40.7712 35.3403 40.8332 35.3155C40.9076 35.3031 40.9696 35.2783 41.0316 35.2659C41.1556 35.2286 41.2796 35.1914 41.4036 35.1541C41.4408 35.1417 41.478 35.1293 41.5028 35.1169C41.5896 35.0921 41.6888 35.0548 41.7756 35.03C41.788 35.03 41.788 35.03 41.8004 35.0176C42.7676 34.6824 43.6976 34.248 44.578 33.6894H48.3228C52.142 33.6894 55.2544 36.8051 55.2544 40.6408V44.4764H49.9472V40.1691C49.9472 39.8215 49.6744 39.5484 49.3272 39.5484C48.98 39.5484 48.7072 39.8215 48.7072 40.1691V59.1736C48.7072 59.5212 48.98 59.7943 49.3272 59.7943C49.6744 59.7943 49.9472 59.5212 49.9472 59.1736V45.7177H55.2544V59.1736C55.2544 59.5212 55.5272 59.7943 55.8744 59.7943C56.2216 59.7943 56.4944 59.5212 56.4944 59.1736V40.6408C56.4944 36.1224 52.8364 32.4481 48.3228 32.4481H46.252C49.0668 30.0027 50.8524 26.378 50.8524 22.3561C50.8524 14.9951 44.8756 8.99956 37.5224 8.99956C34.7944 8.99956 32.1656 9.81883 29.9212 11.3829C27.8504 12.8228 26.2508 14.7965 25.2712 17.1054H20.3732C19.5672 17.1054 18.8232 17.4157 18.2528 17.9867L17.298 18.9425H14.5576H13.02C11.6684 18.9425 10.4036 19.6749 9.7216 20.8541L1.4384 35.2659C0.806 36.3706 0.806 37.6864 1.4384 38.7788C2.0708 39.8836 3.2116 40.5415 4.4764 40.5415H21.638ZM37.5224 10.2409C44.1812 10.2409 49.6124 15.6778 49.6124 22.3561C49.6124 27.7683 46.0536 32.3612 41.168 33.9128C41.1432 33.9252 41.1184 33.9252 41.0812 33.9376C41.0068 33.9625 40.9324 33.9873 40.8456 34.0121C40.796 34.0245 40.7464 34.0369 40.6968 34.0494C40.5976 34.0742 40.4984 34.099 40.3992 34.1238C40.3248 34.1362 40.2628 34.1611 40.1884 34.1735C40.1388 34.1859 40.0892 34.1983 40.0272 34.2107C39.9404 34.2356 39.8412 34.248 39.7544 34.2604C39.7172 34.2604 39.6924 34.2728 39.6552 34.2728C39.5312 34.2976 39.4072 34.31 39.2956 34.3349C39.2584 34.3349 39.2212 34.3473 39.184 34.3473C39.0848 34.3597 38.9856 34.3721 38.8864 34.3845C38.8616 34.3845 38.8244 34.3969 38.7996 34.3969C38.6756 34.4093 38.5392 34.4218 38.4152 34.4342C38.3904 34.4342 38.3656 34.4342 38.3408 34.4342C38.2292 34.4466 38.13 34.4466 38.0184 34.4466C37.9812 34.4466 37.944 34.4466 37.9068 34.4466C37.7828 34.4466 37.6464 34.459 37.5224 34.459C37.386 34.459 37.2496 34.459 37.1132 34.4466C37.076 34.4466 37.0388 34.4466 37.0016 34.4466C36.9024 34.4466 36.7908 34.4342 36.6916 34.4342C36.6544 34.4342 36.6296 34.4342 36.5924 34.4217C36.4808 34.4093 36.3568 34.3969 36.2452 34.3845C36.2328 34.3845 36.208 34.3845 36.1956 34.3845C34.3356 34.1859 32.55 33.5528 30.9628 32.5225C30.938 32.5101 30.9132 32.4853 30.876 32.4729C29.7228 31.7157 28.6812 30.7474 27.838 29.593C27.8504 29.593 27.8504 29.593 27.8628 29.5806C27.9372 29.5682 28.0116 29.5434 28.086 29.5185C28.1604 29.4937 28.2348 29.4689 28.2968 29.4441C28.3092 29.4441 28.3216 29.4317 28.334 29.4317C28.396 29.4068 28.4704 29.3696 28.5324 29.3448C28.5448 29.3323 28.5572 29.3323 28.5696 29.3199C28.6316 29.2827 28.6936 29.2455 28.7556 29.2082C28.768 29.2082 28.768 29.1958 28.7804 29.1958C28.8424 29.1586 28.9044 29.1213 28.9664 29.0717C28.9664 29.0717 28.9788 29.0717 28.9788 29.0593C29.0408 29.0096 29.0904 28.9724 29.1524 28.9227C29.1648 28.9103 29.1772 28.9103 29.1772 28.8979C29.2268 28.8482 29.2888 28.7986 29.3384 28.7489C29.3508 28.7365 29.3632 28.7241 29.3632 28.7241C29.4128 28.6744 29.4624 28.6124 29.512 28.5627C29.512 28.5627 29.5244 28.5503 29.5244 28.5379C29.574 28.4758 29.6112 28.4262 29.6484 28.3641C29.6484 28.3517 29.6608 28.3517 29.6608 28.3393C29.698 28.2772 29.7352 28.2152 29.7724 28.1531C29.7848 28.1407 29.7848 28.1283 29.7972 28.1159C29.8344 28.0538 29.8716 27.9917 29.8964 27.9172C29.8964 27.9048 29.9088 27.8924 29.9088 27.88C29.946 27.8055 29.9708 27.7435 29.9956 27.669V27.6566C30.0204 27.5821 30.0452 27.52 30.0576 27.4455C30.0576 27.4331 30.0576 27.4207 30.07 27.4207C30.0948 27.3462 30.1072 27.2718 30.1196 27.1973C30.1196 27.1849 30.1196 27.1725 30.132 27.16C30.1444 27.0856 30.1568 27.0111 30.1568 26.9366C30.1568 26.9242 30.1568 26.9118 30.1568 26.8994C30.1692 26.8249 30.1692 26.738 30.1692 26.6511V20.1094C30.1692 18.4584 28.8176 17.1054 27.1684 17.1054H26.598C28.644 12.9097 32.8228 10.2409 37.5224 10.2409ZM18.166 19.8239L19.1208 18.868C19.4556 18.5329 19.8896 18.3467 20.3608 18.3467H27.1932C28.1604 18.3467 28.954 19.1411 28.954 20.1094V26.7008C28.954 27.669 28.1604 28.4634 27.1932 28.4634H21.9728C21.4768 28.4634 21.08 28.0662 21.08 27.5697V27.0359H23.5352C24.6636 27.0359 25.5812 26.1173 25.5812 24.9877C25.5812 23.8581 24.6636 22.9396 23.5352 22.9396H20.46C20.1128 22.9396 19.84 23.2126 19.84 23.5602C19.84 23.9078 20.1128 24.1809 20.46 24.1809H23.5352C23.9816 24.1809 24.3412 24.5409 24.3412 24.9877C24.3412 25.4346 23.9816 25.7946 23.5352 25.7946H18.1536V19.8239H18.166ZM15.1652 20.1838H16.926V25.7822H15.1652V20.1838ZM14.9172 27.0235H19.8524V27.5573C19.8524 28.7365 20.8072 29.6923 21.9852 29.6923H26.3872C27.0692 30.735 27.8752 31.6536 28.7804 32.4481H11.9784L14.9172 27.0235ZM2.5296 38.1705C2.1204 37.463 2.1204 36.6065 2.5296 35.8989L10.788 21.4748C11.2468 20.6804 12.09 20.1838 13.0076 20.1838H13.9252V26.2539L10.4036 32.7708C10.3044 32.957 10.3044 33.1928 10.416 33.379C10.5276 33.5652 10.726 33.677 10.9492 33.677H16.616V39.2877H4.4888C3.6704 39.3001 2.9388 38.8781 2.5296 38.1705ZM33.4552 20.8914C33.5668 21.1148 33.7776 21.239 34.0132 21.239C34.1 21.239 34.1992 21.2141 34.2736 21.1769L37.6588 19.5632C37.8696 19.4639 38.006 19.2404 38.006 19.0046C38.006 18.7687 37.8696 18.5453 37.6588 18.446L34.2736 16.8323C33.9636 16.6833 33.5916 16.8199 33.4428 17.1302C33.294 17.4405 33.4304 17.8129 33.7404 17.9619L35.96 19.017L33.7404 20.0721C33.4304 20.2087 33.3064 20.5811 33.4552 20.8914Z" fill="url(#paint0_linear)"/>
<defs>
<linearGradient id="paint0_linear" x1="56.3715" y1="-2.85829" x2="-14.7993" y2="30.3181" gradientUnits="userSpaceOnUse">
<stop offset="0.00520833" stop-color="#E6E7ED"/>
<stop offset="0.25" stop-color="#8E8E8E"/>
<stop offset="0.507086" stop-color="#EBECF0"/>
<stop offset="0.765625" stop-color="#8E8E8E"/>
<stop offset="1" stop-color="#EBECF0"/>
</linearGradient>
</defs>
</svg>
