<svg width="24" height="26" viewBox="0 0 24 26" fill="none" xmlns="http://www.w3.org/2000/svg">
<path d="M9.25676 15.2651C8.97943 15.586 9.01348 16.0721 9.3346 16.3541C9.65572 16.6312 10.1423 16.5972 10.4245 16.2763C10.8137 15.829 11.3781 15.5665 11.9717 15.5616C12.5653 15.5665 13.1297 15.829 13.5189 16.2763C13.6698 16.4513 13.8838 16.5388 14.1028 16.5388C14.2828 16.5388 14.4628 16.4756 14.6088 16.3492C14.7645 16.2131 14.8569 16.0284 14.8715 15.8193C14.8861 15.6151 14.818 15.4158 14.6867 15.2602C14.0055 14.4775 13.0178 14.0205 11.9766 14.0156C10.9256 14.0254 9.93793 14.4775 9.25676 15.2651ZM14.3071 15.5811C14.3558 15.6394 14.3801 15.7123 14.3753 15.7853C14.3704 15.8631 14.3363 15.9311 14.278 15.9797C14.1612 16.0818 13.9812 16.0721 13.879 15.9506C13.3973 15.3963 12.7015 15.0755 11.9668 15.0658C11.9668 15.0658 11.9668 15.0658 11.962 15.0658C11.9571 15.0658 11.962 15.0658 11.9571 15.0658C11.2224 15.0755 10.5267 15.3963 10.045 15.9506C9.94279 16.0672 9.76277 16.0818 9.646 15.9797C9.52923 15.8776 9.51463 15.6978 9.6168 15.5811C10.2055 14.9005 11.0619 14.5067 11.9571 14.5018C12.8621 14.5115 13.7184 14.9005 14.3071 15.5811ZM15.2073 12.2703C15.2073 11.6529 14.7061 11.1521 14.0882 11.1521C13.4703 11.1521 12.9691 11.6529 12.9691 12.2703C12.9691 12.8877 13.4703 13.3885 14.0882 13.3885C14.7061 13.3885 15.2073 12.8877 15.2073 12.2703ZM13.4557 12.2703C13.4557 11.9203 13.7379 11.6383 14.0882 11.6383C14.4385 11.6383 14.7207 11.9203 14.7207 12.2703C14.7207 12.6203 14.4385 12.9023 14.0882 12.9023C13.7379 12.9023 13.4557 12.6203 13.4557 12.2703ZM17.4065 18.5224C17.3481 18.6439 17.4016 18.7898 17.5232 18.8481C18.5012 19.31 19.1289 20.3066 19.1289 21.3859V24.0598C19.1289 24.196 19.2359 24.3029 19.3721 24.3029C19.5084 24.3029 19.6154 24.196 19.6154 24.0598V21.3859C19.6154 20.117 18.8759 18.9502 17.7276 18.4106C17.6108 18.3522 17.4649 18.4009 17.4065 18.5224ZM19.304 15.829C19.1678 15.829 19.0607 15.936 19.0607 16.0721V16.3881H18.7445C18.6083 16.3881 18.5012 16.4951 18.5012 16.6312C18.5012 16.7673 18.6083 16.8743 18.7445 16.8743H19.0607V17.1903C19.0607 17.3264 19.1678 17.4334 19.304 17.4334C19.4403 17.4334 19.5473 17.3264 19.5473 17.1903V16.8743H19.8636C19.9998 16.8743 20.1068 16.7673 20.1068 16.6312C20.1068 16.4951 19.9998 16.3881 19.8636 16.3881H19.5473V16.0721C19.5473 15.936 19.4403 15.829 19.304 15.829ZM17.027 19.0329V18.3328C17.027 17.9682 16.7302 17.6716 16.3653 17.6716H15.869C15.8057 17.3167 15.4943 17.0444 15.1197 17.0444H12.4826C12.2831 17.0444 12.1031 17.1222 11.9668 17.2486C11.8306 17.1222 11.6506 17.0444 11.4511 17.0444H8.81399C8.43935 17.0444 8.12796 17.3167 8.06471 17.6716H7.56842C7.20351 17.6716 6.90672 17.9682 6.90672 18.3328V19.0329C6.90672 19.7767 7.51004 20.3795 8.25446 20.3795H8.93563V24.055C8.93563 24.1911 9.04267 24.298 9.17891 24.298C9.31514 24.298 9.42218 24.1911 9.42218 24.055V23.0291H11.7236V24.055C11.7236 24.1911 11.8306 24.298 11.9668 24.298C12.1031 24.298 12.2101 24.1911 12.2101 24.055V23.0291H14.5115V24.055H14.9981V22.7861V20.3795H15.6792C16.4188 20.3795 17.027 19.7767 17.027 19.0329ZM11.7236 22.543H9.42218V20.3795H11.7236V22.543ZM11.7236 19.8934H8.25446C7.77764 19.8934 7.39327 19.5093 7.39327 19.0329V18.3328C7.39327 18.2355 7.47111 18.1578 7.56842 18.1578H8.05011V18.8287C8.05011 18.9648 8.15715 19.0718 8.29339 19.0718C8.42962 19.0718 8.53666 18.9648 8.53666 18.8287V17.8077C8.53666 17.657 8.65829 17.5355 8.80912 17.5355H11.4462C11.5971 17.5355 11.7187 17.657 11.7187 17.8077V19.8934H11.7236ZM14.5115 22.543H12.2101V20.3795H14.5115V22.543ZM14.7548 19.8934H12.2101V17.8029C12.2101 17.6521 12.3317 17.5306 12.4826 17.5306H15.1197C15.2705 17.5306 15.3922 17.6521 15.3922 17.8029V18.8238C15.3922 18.9599 15.4992 19.0669 15.6354 19.0669C15.7717 19.0669 15.8787 18.9599 15.8787 18.8238V18.1529H16.3604C16.4577 18.1529 16.5355 18.2307 16.5355 18.3279V19.028C16.5355 19.5045 16.1512 19.8885 15.6744 19.8885L14.7548 19.8934ZM16.7642 8.74072C17.3286 8.74072 17.786 8.28373 17.786 7.71977C17.786 7.15582 17.3286 6.69882 16.7642 6.69882C16.1998 6.69882 15.7425 7.15582 15.7425 7.71977C15.7425 8.28373 16.1998 8.74072 16.7642 8.74072ZM16.7642 7.18499C17.061 7.18499 17.2994 7.42321 17.2994 7.71977C17.2994 8.01633 17.061 8.25456 16.7642 8.25456C16.4674 8.25456 16.229 8.01633 16.229 7.71977C16.229 7.42321 16.4674 7.18499 16.7642 7.18499ZM7.02836 3.91309C7.02836 2.17261 5.60763 0.753006 3.86578 0.753006C2.12393 0.753006 0.703201 2.17261 0.703201 3.91309C0.703201 5.65356 2.12393 7.07317 3.86578 7.07317C5.60763 7.07317 7.02836 5.65843 7.02836 3.91309ZM1.18975 3.91309C1.18975 2.44 2.39153 1.23917 3.86578 1.23917C5.34003 1.23917 6.54181 2.44 6.54181 3.91309C6.54181 5.38617 5.34003 6.587 3.86578 6.587C2.39153 6.587 1.18975 5.39103 1.18975 3.91309ZM20.2333 24.5654H3.70521C3.56898 24.5654 3.46194 24.6724 3.46194 24.8085C3.46194 24.9446 3.56898 25.0516 3.70521 25.0516H20.2333C20.3696 25.0516 20.4766 24.9446 20.4766 24.8085C20.4766 24.6724 20.3647 24.5654 20.2333 24.5654ZM21.2502 24.5654H21.0653C20.9291 24.5654 20.8221 24.6724 20.8221 24.8085C20.8221 24.9446 20.9291 25.0516 21.0653 25.0516H21.2502C21.3865 25.0516 21.4935 24.9446 21.4935 24.8085C21.4935 24.6724 21.3865 24.5654 21.2502 24.5654ZM4.57128 5.49313C4.80482 5.49313 5.02377 5.40075 5.18919 5.23546C5.52978 4.89514 5.52978 4.34092 5.18919 4.0006L5.10648 3.91795L5.18919 3.83531C5.52978 3.49499 5.52978 2.94075 5.18919 2.60044C5.02377 2.43514 4.80482 2.34277 4.57128 2.34277C4.33773 2.34277 4.11879 2.43514 3.95336 2.60044L3.87064 2.68308L3.78793 2.60044C3.6225 2.43514 3.40355 2.34277 3.17001 2.34277C2.93647 2.34277 2.71752 2.43514 2.55209 2.60044C2.38667 2.76573 2.29422 2.98451 2.29422 3.21787C2.29422 3.45123 2.38667 3.67001 2.55209 3.83531L2.6348 3.91795L2.55209 4.0006C2.38667 4.1659 2.29422 4.38467 2.29422 4.61803C2.29422 4.85139 2.38667 5.07016 2.55209 5.23546C2.71752 5.40075 2.93647 5.49313 3.17001 5.49313C3.40355 5.49313 3.6225 5.40075 3.78793 5.23546L3.87551 5.14796L3.95822 5.2306C4.11878 5.40076 4.33773 5.49313 4.57128 5.49313ZM3.43761 4.89029C3.35976 4.96807 3.26245 5.00211 3.16514 5.00211C3.06783 5.00211 2.96566 4.96321 2.89268 4.89029C2.74185 4.73958 2.74185 4.49163 2.89268 4.34092L3.32084 3.91309L2.89268 3.48526C2.74185 3.33455 2.74185 3.08661 2.89268 2.9359C2.97053 2.85811 3.06783 2.82408 3.16514 2.82408C3.26245 2.82408 3.36463 2.86298 3.43761 2.9359L3.86578 3.36372L4.29395 2.9359C4.37179 2.85811 4.4691 2.82408 4.56641 2.82408C4.66372 2.82408 4.7659 2.86298 4.83888 2.9359C4.98971 3.08661 4.98971 3.33455 4.83888 3.48526L4.41071 3.91309L4.83888 4.34092C4.98971 4.49163 4.98971 4.73958 4.83888 4.89029C4.76103 4.96807 4.66372 5.00211 4.56641 5.00211C4.4691 5.00211 4.36693 4.96321 4.29395 4.89029L3.86578 4.46246L3.43761 4.89029ZM2.86835 24.5654H2.68346C2.54722 24.5654 2.44018 24.6724 2.44018 24.8085C2.44018 24.9446 2.54722 25.0516 2.68346 25.0516H2.86835C3.00458 25.0516 3.11163 24.9446 3.11163 24.8085C3.11163 24.6724 2.99972 24.5654 2.86835 24.5654ZM21.3962 2.60044C21.2308 2.43514 21.0118 2.34277 20.7783 2.34277C20.5447 2.34277 20.3258 2.43514 20.1603 2.60044L20.0776 2.68308L19.9949 2.60044C19.8295 2.43514 19.6106 2.34277 19.377 2.34277C19.1435 2.34277 18.9245 2.43514 18.7591 2.60044C18.4185 2.94075 18.4185 3.49499 18.7591 3.83531L18.8418 3.91795L18.7591 4.0006C18.4185 4.34092 18.4185 4.89514 18.7591 5.23546C18.9245 5.40075 19.1435 5.49313 19.377 5.49313C19.6106 5.49313 19.8295 5.40075 19.9949 5.23546L20.0776 5.15281L20.1603 5.23546C20.3258 5.40075 20.5447 5.49313 20.7783 5.49313C21.0118 5.49313 21.2308 5.40075 21.3962 5.23546C21.7368 4.89514 21.7368 4.34092 21.3962 4.0006L21.3135 3.91795L21.3962 3.83531C21.7368 3.49013 21.7368 2.94075 21.3962 2.60044ZM21.0507 4.34092C21.2016 4.49163 21.2016 4.73471 21.0507 4.88542C20.9729 4.95835 20.8756 4.99724 20.7783 4.99724C20.681 4.99724 20.5788 4.95835 20.5058 4.88542L20.0776 4.45759L19.6495 4.88542C19.5765 4.95835 19.4743 4.99724 19.377 4.99724C19.2797 4.99724 19.1775 4.95835 19.1045 4.88542C18.9537 4.73471 18.9537 4.49163 19.1045 4.34092L19.5327 3.91309L19.1045 3.48526C18.9537 3.33455 18.9537 3.09147 19.1045 2.94075C19.1824 2.86783 19.2797 2.82893 19.377 2.82893C19.4743 2.82893 19.5765 2.86783 19.6495 2.94075L20.0776 3.36858L20.5058 2.94075C20.5788 2.86783 20.681 2.82893 20.7783 2.82893C20.8756 2.82893 20.9778 2.86783 21.0507 2.94075C21.2016 3.09147 21.2016 3.33455 21.0507 3.48526L20.6226 3.91309L21.0507 4.34092ZM9.84548 11.157C9.22756 11.157 8.72641 11.6577 8.72641 12.2751C8.72641 12.8926 9.22756 13.3933 9.84548 13.3933C10.4634 13.3933 10.9645 12.8926 10.9645 12.2751C10.9645 11.6577 10.4585 11.157 9.84548 11.157ZM9.84548 12.9023C9.49516 12.9023 9.21296 12.6203 9.21296 12.2703C9.21296 11.9203 9.49516 11.6383 9.84548 11.6383C10.1958 11.6383 10.478 11.9203 10.478 12.2703C10.478 12.6203 10.1909 12.9023 9.84548 12.9023ZM20.0776 0.767593C18.3406 0.767593 16.9248 2.18234 16.9248 3.91795C16.9248 5.65357 18.3406 7.06831 20.0776 7.06831C21.8146 7.06831 23.2305 5.65357 23.2305 3.91795C23.2305 2.17748 21.8146 0.767593 20.0776 0.767593ZM20.0776 6.57728C18.6083 6.57728 17.4113 5.38131 17.4113 3.91309C17.4113 2.44487 18.6083 1.24889 20.0776 1.24889C21.547 1.24889 22.7439 2.44487 22.7439 3.91309C22.7439 5.38131 21.547 6.57728 20.0776 6.57728ZM10.3904 4.61803C10.3904 4.85139 10.4829 5.07016 10.6483 5.23546C10.8137 5.40075 11.0327 5.49313 11.2662 5.49313C11.4997 5.49313 11.7187 5.40075 11.8841 5.23546L11.9717 5.14796L12.0544 5.2306C12.2199 5.3959 12.4388 5.48827 12.6723 5.48827C12.9059 5.48827 13.1248 5.3959 13.2903 5.2306C13.4557 5.06531 13.5481 4.84653 13.5481 4.61317C13.5481 4.37981 13.4557 4.16103 13.2903 3.99573L13.2075 3.91309L13.2903 3.83044C13.4557 3.66515 13.5481 3.44637 13.5481 3.21301C13.5481 2.97965 13.4557 2.76088 13.2903 2.59558C13.1248 2.43029 12.9059 2.33791 12.6723 2.33791C12.4388 2.33791 12.2199 2.43029 12.0544 2.59558L11.9717 2.67823L11.889 2.59558C11.7236 2.43029 11.5046 2.33791 11.2711 2.33791C11.0375 2.33791 10.8186 2.43029 10.6532 2.59558C10.4877 2.76088 10.3953 2.97965 10.3953 3.21301C10.3953 3.44637 10.4877 3.66515 10.6532 3.83044L10.7359 3.91309L10.6532 3.99573C10.478 4.16589 10.3904 4.38467 10.3904 4.61803ZM10.9889 3.48526C10.838 3.33455 10.838 3.08661 10.9889 2.9359C11.0667 2.85811 11.164 2.82408 11.2613 2.82408C11.3587 2.82408 11.4608 2.86298 11.5338 2.9359L11.962 3.36372L12.3901 2.9359C12.468 2.85811 12.5653 2.82408 12.6626 2.82408C12.7599 2.82408 12.8621 2.86298 12.9351 2.9359C13.0859 3.08661 13.0859 3.33455 12.9351 3.48526L12.5069 3.91309L12.9351 4.34092C13.0859 4.49163 13.0859 4.73958 12.9351 4.89029C12.8572 4.96807 12.7599 5.00211 12.6626 5.00211C12.5653 5.00211 12.4631 4.96321 12.3901 4.89029L11.962 4.46246L11.5338 4.89029C11.456 4.96807 11.3587 5.00211 11.2613 5.00211C11.164 5.00211 11.0619 4.96321 10.9889 4.89029C10.838 4.73958 10.838 4.49163 10.9889 4.34092L11.417 3.91309L10.9889 3.48526ZM11.9668 7.07317C13.7087 7.07317 15.1294 5.65356 15.1294 3.91309C15.1294 2.17261 13.7087 0.753006 11.9668 0.753006C10.225 0.753006 8.80426 2.17261 8.80426 3.91309C8.80426 5.65356 10.225 7.07317 11.9668 7.07317ZM11.9668 1.23917C13.4411 1.23917 14.6429 2.44 14.6429 3.91309C14.6429 5.38617 13.4411 6.587 11.9668 6.587C10.4926 6.587 9.29082 5.38617 9.29082 3.91309C9.29082 2.44 10.4926 1.23917 11.9668 1.23917ZM11.9668 8.64836C9.00862 8.64836 6.60019 11.0597 6.60019 14.0205C6.60019 15.1338 6.93591 16.2034 7.57816 17.1125C7.65601 17.2243 7.80684 17.2486 7.91875 17.1708C8.03065 17.0931 8.05498 16.9423 7.97713 16.8305C7.39813 16.004 7.09161 15.0317 7.09161 14.0205C7.09161 11.3271 9.28108 9.13452 11.9717 9.13452C14.6623 9.13452 16.8518 11.3271 16.8518 14.0205C16.8518 15.0317 16.5453 16.004 15.9663 16.8305C15.8884 16.9423 15.9176 17.0931 16.0247 17.1708C16.0685 17.2 16.1171 17.2146 16.1658 17.2146C16.2436 17.2146 16.3166 17.1806 16.3653 17.1125C17.0026 16.2034 17.3432 15.1338 17.3432 14.0205C17.3335 11.0597 14.9251 8.64836 11.9668 8.64836ZM4.56155 24.298C4.69778 24.298 4.80482 24.1911 4.80482 24.055V21.381C4.80482 20.3018 5.43734 19.3051 6.41044 18.8433C6.53208 18.7849 6.58559 18.6391 6.52721 18.5175C6.46882 18.396 6.32286 18.3425 6.20122 18.4009C5.05783 18.9405 4.3134 20.1121 4.3134 21.3762V24.0501C4.31827 24.1911 4.42531 24.298 4.56155 24.298ZM4.6102 15.8485C4.47397 15.8485 4.36693 15.9554 4.36693 16.0916V16.4076H4.05067C3.91444 16.4076 3.8074 16.5145 3.8074 16.6507C3.8074 16.7868 3.91444 16.8937 4.05067 16.8937H4.36693V17.2098C4.36693 17.3459 4.47397 17.4528 4.6102 17.4528C4.74644 17.4528 4.85348 17.3459 4.85348 17.2098V16.8937H5.16974C5.30597 16.8937 5.41301 16.7868 5.41301 16.6507C5.41301 16.5145 5.30597 16.4076 5.16974 16.4076H4.85348V16.0916C4.85348 15.9554 4.74157 15.8485 4.6102 15.8485ZM6.15742 7.71977C6.15742 8.28373 6.61478 8.74072 7.17918 8.74072C7.74358 8.74072 8.20094 8.28373 8.20094 7.71977C8.20094 7.15582 7.74358 6.69882 7.17918 6.69882C6.61478 6.69882 6.15742 7.15582 6.15742 7.71977ZM7.17918 7.18499C7.47598 7.18499 7.71438 7.42321 7.71438 7.71977C7.71438 8.01633 7.47598 8.25456 7.17918 8.25456C6.88238 8.25456 6.64397 8.01633 6.64397 7.71977C6.64397 7.42321 6.88238 7.18499 7.17918 7.18499Z" fill="url(#paint0_linear)"/>
<defs>
<linearGradient id="paint0_linear" x1="21.1854" y1="-0.366007" x2="-5.33031" y2="11.1055" gradientUnits="userSpaceOnUse">
<stop offset="0.00520833" stop-color="#E6E7ED"/>
<stop offset="0.25" stop-color="#8E8E8E"/>
<stop offset="0.507086" stop-color="#EBECF0"/>
<stop offset="0.765625" stop-color="#8E8E8E"/>
<stop offset="1" stop-color="#EBECF0"/>
</linearGradient>
</defs>
</svg>
