<?xml version="1.0" encoding="UTF-8"?>
<svg width="2819px" height="1803px" viewBox="0 0 2819 1803" version="1.1" xmlns="http://www.w3.org/2000/svg" xmlns:xlink="http://www.w3.org/1999/xlink">
    <title>wallpaper</title>
    <defs>
        <linearGradient x1="-4.84373671%" y1="50.0014339%" x2="104.849611%" y2="50.0014339%" id="linearGradient-1">
            <stop stop-color="#292929" offset="6.33695%"></stop>
            <stop stop-color="#000000" offset="100%"></stop>
        </linearGradient>
        <linearGradient x1="-7.27304185%" y1="51.0705512%" x2="31.5006189%" y2="38.0933741%" id="linearGradient-2">
            <stop stop-color="#8F6AFA" offset="0%"></stop>
            <stop stop-color="#375CDC" offset="44.7917%"></stop>
            <stop stop-color="#0099EE" offset="100%"></stop>
        </linearGradient>
        <linearGradient x1="-7.27744658%" y1="51.0673464%" x2="31.4303606%" y2="38.1112005%" id="linearGradient-3">
            <stop stop-color="#8F6AFA" offset="0%"></stop>
            <stop stop-color="#375CDC" offset="44.7917%"></stop>
            <stop stop-color="#0099EE" offset="100%"></stop>
        </linearGradient>
        <linearGradient x1="-7.27741794%" y1="51.0673315%" x2="31.4303255%" y2="38.1137199%" id="linearGradient-4">
            <stop stop-color="#8F6AFA" offset="0%"></stop>
            <stop stop-color="#375CDC" offset="44.7917%"></stop>
            <stop stop-color="#0099EE" offset="100%"></stop>
        </linearGradient>
        <linearGradient x1="-7.2776276%" y1="51.0673231%" x2="31.4303354%" y2="38.1113286%" id="linearGradient-5">
            <stop stop-color="#8F6AFA" offset="0%"></stop>
            <stop stop-color="#375CDC" offset="44.7917%"></stop>
            <stop stop-color="#0099EE" offset="100%"></stop>
        </linearGradient>
        <linearGradient x1="-7.27751306%" y1="51.0673291%" x2="31.4303019%" y2="38.1113295%" id="linearGradient-6">
            <stop stop-color="#8F6AFA" offset="0%"></stop>
            <stop stop-color="#375CDC" offset="44.7917%"></stop>
            <stop stop-color="#0099EE" offset="100%"></stop>
        </linearGradient>
        <linearGradient x1="-7.2775286%" y1="51.0671626%" x2="31.430369%" y2="38.1117856%" id="linearGradient-7">
            <stop stop-color="#8F6AFA" offset="0%"></stop>
            <stop stop-color="#375CDC" offset="44.7917%"></stop>
            <stop stop-color="#0099EE" offset="100%"></stop>
        </linearGradient>
        <linearGradient x1="-7.27752471%" y1="51.0673615%" x2="31.4303255%" y2="38.1112791%" id="linearGradient-8">
            <stop stop-color="#8F6AFA" offset="0%"></stop>
            <stop stop-color="#375CDC" offset="44.7917%"></stop>
            <stop stop-color="#0099EE" offset="100%"></stop>
        </linearGradient>
        <linearGradient x1="-7.27308215%" y1="51.070598%" x2="31.5006778%" y2="38.0933976%" id="linearGradient-9">
            <stop stop-color="#8F6AFA" offset="0%"></stop>
            <stop stop-color="#375CDC" offset="44.7917%"></stop>
            <stop stop-color="#0099EE" offset="100%"></stop>
        </linearGradient>
        <linearGradient x1="-7.27752083%" y1="51.0673273%" x2="31.4303354%" y2="38.111294%" id="linearGradient-10">
            <stop stop-color="#8F6AFA" offset="0%"></stop>
            <stop stop-color="#375CDC" offset="44.7917%"></stop>
            <stop stop-color="#0099EE" offset="100%"></stop>
        </linearGradient>
        <linearGradient x1="-7.27751889%" y1="51.067313%" x2="31.4303004%" y2="38.1137725%" id="linearGradient-11">
            <stop stop-color="#8F6AFA" offset="0%"></stop>
            <stop stop-color="#375CDC" offset="44.7917%"></stop>
            <stop stop-color="#0099EE" offset="100%"></stop>
        </linearGradient>
        <linearGradient x1="-7.277515%" y1="51.0673557%" x2="31.4303103%" y2="38.1113197%" id="linearGradient-12">
            <stop stop-color="#8F6AFA" offset="0%"></stop>
            <stop stop-color="#375CDC" offset="44.7917%"></stop>
            <stop stop-color="#0099EE" offset="100%"></stop>
        </linearGradient>
        <linearGradient x1="-7.27752471%" y1="51.0673164%" x2="31.4303522%" y2="38.1113393%" id="linearGradient-13">
            <stop stop-color="#8F6AFA" offset="0%"></stop>
            <stop stop-color="#375CDC" offset="44.7917%"></stop>
            <stop stop-color="#0099EE" offset="100%"></stop>
        </linearGradient>
        <linearGradient x1="-7.27752083%" y1="51.0671902%" x2="31.4303354%" y2="38.1117448%" id="linearGradient-14">
            <stop stop-color="#8F6AFA" offset="0%"></stop>
            <stop stop-color="#375CDC" offset="44.7917%"></stop>
            <stop stop-color="#0099EE" offset="100%"></stop>
        </linearGradient>
        <linearGradient x1="-7.27751889%" y1="51.0673366%" x2="31.4303004%" y2="38.1112705%" id="linearGradient-15">
            <stop stop-color="#8F6AFA" offset="0%"></stop>
            <stop stop-color="#375CDC" offset="44.7917%"></stop>
            <stop stop-color="#0099EE" offset="100%"></stop>
        </linearGradient>
        <linearGradient x1="-7.27308603%" y1="51.0706078%" x2="31.5006946%" y2="38.0933535%" id="linearGradient-16">
            <stop stop-color="#8F6AFA" offset="0%"></stop>
            <stop stop-color="#375CDC" offset="44.7917%"></stop>
            <stop stop-color="#0099EE" offset="100%"></stop>
        </linearGradient>
        <linearGradient x1="-7.27752471%" y1="51.0673357%" x2="31.4302188%" y2="38.1112596%" id="linearGradient-17">
            <stop stop-color="#8F6AFA" offset="0%"></stop>
            <stop stop-color="#375CDC" offset="44.7917%"></stop>
            <stop stop-color="#0099EE" offset="100%"></stop>
        </linearGradient>
        <linearGradient x1="-7.27750559%" y1="51.0673235%" x2="31.430248%" y2="38.1137348%" id="linearGradient-18">
            <stop stop-color="#8F6AFA" offset="0%"></stop>
            <stop stop-color="#375CDC" offset="44.7917%"></stop>
            <stop stop-color="#0099EE" offset="100%"></stop>
        </linearGradient>
        <linearGradient x1="-7.2775103%" y1="51.0673586%" x2="31.4302792%" y2="38.1113031%" id="linearGradient-19">
            <stop stop-color="#8F6AFA" offset="0%"></stop>
            <stop stop-color="#375CDC" offset="44.7917%"></stop>
            <stop stop-color="#0099EE" offset="100%"></stop>
        </linearGradient>
        <linearGradient x1="-7.27751336%" y1="51.0673122%" x2="31.4304418%" y2="38.1113348%" id="linearGradient-20">
            <stop stop-color="#8F6AFA" offset="0%"></stop>
            <stop stop-color="#375CDC" offset="44.7917%"></stop>
            <stop stop-color="#0099EE" offset="100%"></stop>
        </linearGradient>
        <linearGradient x1="-7.27750661%" y1="51.0671971%" x2="31.4304802%" y2="38.1117648%" id="linearGradient-21">
            <stop stop-color="#8F6AFA" offset="0%"></stop>
            <stop stop-color="#375CDC" offset="44.7917%"></stop>
            <stop stop-color="#0099EE" offset="100%"></stop>
        </linearGradient>
        <linearGradient x1="-7.27749414%" y1="51.0673324%" x2="31.4302554%" y2="38.1112782%" id="linearGradient-22">
            <stop stop-color="#8F6AFA" offset="0%"></stop>
            <stop stop-color="#375CDC" offset="44.7917%"></stop>
            <stop stop-color="#0099EE" offset="100%"></stop>
        </linearGradient>
        <linearGradient x1="-7.27306273%" y1="51.0705503%" x2="31.5006204%" y2="38.0934133%" id="linearGradient-23">
            <stop stop-color="#8F6AFA" offset="0%"></stop>
            <stop stop-color="#375CDC" offset="44.7917%"></stop>
            <stop stop-color="#0099EE" offset="100%"></stop>
        </linearGradient>
        <linearGradient x1="-7.27750627%" y1="51.0673237%" x2="31.430292%" y2="38.1137342%" id="linearGradient-24">
            <stop stop-color="#8F6AFA" offset="0%"></stop>
            <stop stop-color="#375CDC" offset="44.7917%"></stop>
            <stop stop-color="#0099EE" offset="100%"></stop>
        </linearGradient>
        <linearGradient x1="-7.27750699%" y1="51.067308%" x2="31.4303103%" y2="38.1113818%" id="linearGradient-25">
            <stop stop-color="#8F6AFA" offset="0%"></stop>
            <stop stop-color="#375CDC" offset="44.7917%"></stop>
            <stop stop-color="#0099EE" offset="100%"></stop>
        </linearGradient>
        <linearGradient x1="-7.27751137%" y1="51.0673326%" x2="31.4304857%" y2="38.1112801%" id="linearGradient-26">
            <stop stop-color="#8F6AFA" offset="0%"></stop>
            <stop stop-color="#375CDC" offset="44.7917%"></stop>
            <stop stop-color="#0099EE" offset="100%"></stop>
        </linearGradient>
        <linearGradient x1="-7.27752277%" y1="51.0671404%" x2="31.4302371%" y2="38.1117675%" id="linearGradient-27">
            <stop stop-color="#8F6AFA" offset="0%"></stop>
            <stop stop-color="#375CDC" offset="44.7917%"></stop>
            <stop stop-color="#0099EE" offset="100%"></stop>
        </linearGradient>
        <linearGradient x1="-7.27751889%" y1="51.0673514%" x2="31.4302737%" y2="38.1112154%" id="linearGradient-28">
            <stop stop-color="#8F6AFA" offset="0%"></stop>
            <stop stop-color="#375CDC" offset="44.7917%"></stop>
            <stop stop-color="#0099EE" offset="100%"></stop>
        </linearGradient>
        <linearGradient x1="-7.27306273%" y1="51.0705839%" x2="31.5006204%" y2="38.0934746%" id="linearGradient-29">
            <stop stop-color="#8F6AFA" offset="0%"></stop>
            <stop stop-color="#375CDC" offset="44.7917%"></stop>
            <stop stop-color="#0099EE" offset="100%"></stop>
        </linearGradient>
        <linearGradient x1="-7.27752277%" y1="51.0673327%" x2="31.4302371%" y2="38.1112783%" id="linearGradient-30">
            <stop stop-color="#8F6AFA" offset="0%"></stop>
            <stop stop-color="#375CDC" offset="44.7917%"></stop>
            <stop stop-color="#0099EE" offset="100%"></stop>
        </linearGradient>
        <linearGradient x1="-7.27751889%" y1="51.0673243%" x2="31.4302737%" y2="38.1137334%" id="linearGradient-31">
            <stop stop-color="#8F6AFA" offset="0%"></stop>
            <stop stop-color="#375CDC" offset="44.7917%"></stop>
            <stop stop-color="#0099EE" offset="100%"></stop>
        </linearGradient>
        <linearGradient x1="-7.27748831%" y1="51.0673016%" x2="31.4303103%" y2="38.1113083%" id="linearGradient-32">
            <stop stop-color="#8F6AFA" offset="0%"></stop>
            <stop stop-color="#375CDC" offset="44.7917%"></stop>
            <stop stop-color="#0099EE" offset="100%"></stop>
        </linearGradient>
        <linearGradient x1="-7.27752666%" y1="51.0673332%" x2="31.4304674%" y2="38.1112794%" id="linearGradient-33">
            <stop stop-color="#8F6AFA" offset="0%"></stop>
            <stop stop-color="#375CDC" offset="44.7917%"></stop>
            <stop stop-color="#0099EE" offset="100%"></stop>
        </linearGradient>
        <linearGradient x1="-7.27752277%" y1="51.0671964%" x2="31.4302371%" y2="38.1117731%" id="linearGradient-34">
            <stop stop-color="#8F6AFA" offset="0%"></stop>
            <stop stop-color="#375CDC" offset="44.7917%"></stop>
            <stop stop-color="#0099EE" offset="100%"></stop>
        </linearGradient>
        <linearGradient x1="-7.27751889%" y1="51.0673357%" x2="31.4302737%" y2="38.1112676%" id="linearGradient-35">
            <stop stop-color="#8F6AFA" offset="0%"></stop>
            <stop stop-color="#375CDC" offset="44.7917%"></stop>
            <stop stop-color="#0099EE" offset="100%"></stop>
        </linearGradient>
    </defs>
    <g id="wallpaper" stroke="none" stroke-width="1" fill="none" fill-rule="evenodd">
        <g transform="translate(-929.000000, -61.000000)" fill-rule="nonzero">
            <polygon id="Path" fill="url(#linearGradient-1)" points="3748.358 8.27341e-07 922.358 0 922.357999 1883 3748.358 1883"></polygon>
            <path d="M1068.043,1306.18 C593.204,1393 5.384,1317.9 0,1316.41 L5.72,1306.73 C11.92,1306.83 589.679,1381.31 1052.823,1296.62 C1445.794,1224.77 1682.03,1079.18 1911.135,938.602 C2299.098,698.657 2664.138,472.77 3745.228,595.851 L3741.028,606.488 C2679.248,486.045 2318.178,708.738 1936.528,945.062 C1705.084,1086.07 1468.032,1233.04 1068.043,1306.18 Z" id="Path" fill="url(#linearGradient-2)"></path>
            <path d="M1119.394,1338.13 C644.412,1424.86 56.281,1349.73 50.894,1348.24 L56.609,1338.57 C62.812,1338.67 640.878,1413.17 1104.16,1328.57 C1497.249,1256.8 1733.479,1111.3 1962.578,970.803 C2350.528,731.004 2715.568,505.255 3797.208,628.399 L3793.018,639.03 C2729.168,517.571 2369.628,741.083 1985.648,977.69 C1756.548,1118.19 1519.502,1265.07 1119.394,1338.13 Z" id="Path" fill="url(#linearGradient-3)"></path>
            <g id="Group" opacity="0.8" transform="translate(101.543000, 625.597996)" fill="url(#linearGradient-4)">
                <path d="M1068.499,744.412004 C593.518,831.142004 7.726,755.582004 0,754.522004 L5.715,744.852004 C11.918,744.952004 589.983,819.452004 1053.266,734.862004 C1446.354,663.082004 1682.584,517.582004 1911.685,377.092004 C2297.295,137.716004 2664.675,-88.4609963 3746.315,34.6830037 L3742.125,45.3150037 C2679.795,-75.1899963 2318.735,147.367004 1937.095,383.542004 C1707.177,525.422004 1468.607,671.352004 1068.499,744.412004 Z" id="Path" opacity="0.95"></path>
            </g>
            <g id="Group" opacity="0.6" transform="translate(152.191000, 657.441827)" fill="url(#linearGradient-5)">
                <path d="M1068.5,744.448173 C593.518,831.178173 5.387,756.048173 -1.13686838e-13,754.568173 L5.715,744.888173 C11.918,744.988173 589.983,819.498173 1053.266,734.898173 C1446.354,663.118173 1682.584,517.618173 1911.687,377.128173 C2299.637,137.327173 2664.677,-88.4218274 3746.317,34.7221726 L3742.127,45.3541726 C2679.797,-75.1508274 2318.727,147.406173 1937.097,383.588173 C1707.178,525.468173 1468.608,671.388173 1068.5,744.448173 Z" id="Path" opacity="0.9"></path>
            </g>
            <g id="Group" opacity="0.5" transform="translate(204.247000, 690.209842)" fill="url(#linearGradient-6)">
                <path d="M1068.5,744.450158 C593.518,831.180158 5.386,756.050158 -1.13686838e-13,754.570158 L5.715,744.890158 C11.918,744.990158 589.983,819.490158 1053.266,734.900158 C1446.354,663.120158 1682.584,517.620158 1911.681,377.130158 C2299.631,137.327158 2664.671,-88.4218422 3746.321,34.7221578 L3742.121,45.3541578 C2679.801,-75.1508422 2318.731,147.406158 1937.091,383.590158 C1705.654,524.510158 1468.607,671.390158 1068.5,744.450158 Z" id="Path" opacity="0.88"></path>
            </g>
            <g id="Group" opacity="0.4" transform="translate(254.895000, 722.130974)" fill="url(#linearGradient-7)">
                <path d="M1068.5,744.409026 C593.5182,831.139026 5.387,756.009026 0,754.529026 L5.715,744.849026 C11.918,744.949026 589.9834,819.459026 1053.266,734.859026 C1446.355,663.079026 1682.583,517.579026 1911.683,377.089026 C2297.293,137.716026 2664.673,-88.4609742 3746.313,34.6830258 L3742.123,45.3150258 C2679.793,-75.1899742 2318.733,147.367026 1937.093,383.549026 C1705.653,524.469026 1468.608,671.349026 1068.5,744.409026 Z" id="Path" opacity="0.85"></path>
            </g>
            <g id="Group" opacity="0.3" transform="translate(305.543000, 753.974805)" fill="url(#linearGradient-8)">
                <path d="M1068.5,744.445195 C593.5179,831.185195 5.386,756.045195 0,754.565195 L5.715,744.885195 C11.918,744.985195 589.9832,819.495195 1053.266,734.895195 C1446.354,663.115195 1682.585,517.625195 1911.685,377.125195 C2299.635,137.327195 2664.675,-88.4218053 3746.315,34.7221947 L3742.125,45.3531947 C2679.795,-75.1508053 2318.735,147.406195 1937.095,383.585195 C1707.175,525.465195 1468.608,671.385195 1068.5,744.445195 Z" id="Path" opacity="0.85"></path>
            </g>
            <path d="M1406.55,1536.11 C931.71048,1622.93 343.89,1547.83 338.507,1546.35 L344.227,1536.67 C350.427,1536.77 928.18596,1611.24 1391.33,1526.56 C1784.301,1454.7 2020.538,1309.12 2249.638,1168.54 C2637.598,928.59 3002.648,702.703 4083.728,825.784 L4079.538,836.421 C3017.758,715.979 2656.678,938.672 2275.038,1175 C2043.588,1316.01 1806.538,1462.98 1406.55,1536.11 Z" id="Path" fill="url(#linearGradient-9)"></path>
            <path d="M1457.901,1568.06 C982.9191,1654.79 394.788,1579.66 389.401,1578.18 L395.116,1568.5 C401.319,1568.6 979.3844,1643.1 1442.667,1558.51 C1835.756,1486.73 2071.988,1341.23 2301.088,1200.74 C2689.038,960.938 3054.078,735.189 4135.718,858.333 L4131.528,868.964 C3067.678,747.504 2708.128,971.017 2324.158,1207.62 C2095.058,1348.12 1858.009,1495 1457.901,1568.06 Z" id="Path" fill="url(#linearGradient-10)"></path>
            <g id="Group" opacity="0.8" transform="translate(440.050000, 855.531875)" fill="url(#linearGradient-11)">
                <path d="M1068.499,744.408125 C593.518,831.138125 7.726,755.578125 0,754.528125 L5.715,744.848125 C11.918,744.948125 589.983,819.458125 1053.265,734.858125 C1446.354,663.078125 1682.588,517.588125 1911.688,377.088125 C2297.298,137.715125 2664.668,-88.4608755 3746.318,34.6831245 L3742.128,45.3151245 C2679.798,-75.1898755 2318.728,147.368125 1937.098,383.548125 C1707.178,525.428125 1468.607,671.348125 1068.499,744.408125 Z" id="Path" opacity="0.95"></path>
            </g>
            <g id="Group" opacity="0.6" transform="translate(490.698000, 887.375523)" fill="url(#linearGradient-12)">
                <path d="M1068.5,744.444477 C593.518,831.184477 5.387,756.044477 5.68434189e-14,754.564477 L5.715,744.884477 C11.918,744.994477 589.983,819.494477 1053.266,734.894477 C1446.35,663.124477 1682.58,517.624477 1911.69,377.124477 C2299.63,137.324477 2664.67,-88.4215232 3746.32,34.7224768 L3742.13,45.3534768 C2679.8,-75.1505232 2318.73,147.404477 1937.09,383.584477 C1707.18,525.464477 1468.61,671.384477 1068.5,744.444477 Z" id="Path" opacity="0.9"></path>
            </g>
            <g id="Group" opacity="0.5" transform="translate(542.753000, 920.143721)" fill="url(#linearGradient-13)">
                <path d="M1068.499,744.446279 C593.518,831.176279 5.386,756.046279 0,754.566279 L5.715,744.886279 C11.918,744.986279 589.983,819.496279 1053.266,734.896279 C1446.355,663.116279 1682.585,517.626279 1911.685,377.126279 C2299.635,137.326279 2664.675,-88.4217211 3746.315,34.7222789 L3742.125,45.3532789 C2679.795,-75.1507211 2318.735,147.406279 1937.095,383.586279 C1705.655,524.506279 1468.605,671.386279 1068.499,744.446279 Z" id="Path" opacity="0.88"></path>
            </g>
            <g id="Group" opacity="0.4" transform="translate(593.401000, 952.064853)" fill="url(#linearGradient-14)">
                <path d="M1068.5,744.415147 C593.518,831.145147 5.387,756.005147 -1.13686838e-13,754.525147 L5.715,744.855147 C11.918,744.955147 589.983,819.455147 1053.266,734.855147 C1446.357,663.085147 1682.587,517.585147 1911.687,377.085147 C2297.297,137.715147 2664.677,-88.4608534 3746.317,34.6831466 L3742.127,45.3151466 C2679.797,-75.1898534 2318.727,147.365147 1937.097,383.545147 C1705.657,524.475147 1468.607,671.355147 1068.5,744.415147 Z" id="Path" opacity="0.85"></path>
            </g>
            <g id="Group" opacity="0.3" transform="translate(644.050000, 983.908620)" fill="url(#linearGradient-15)">
                <path d="M1068.5,744.45138 C593.518,831.18138 5.386,756.05138 0,754.56138 L5.715,744.89138 C11.918,744.99138 589.983,819.49138 1053.266,734.90138 C1446.358,663.12138 1682.588,517.62138 1911.688,377.12138 C2299.638,137.33138 2664.668,-88.4216196 3746.318,34.7213804 L3742.128,45.3513804 C2679.798,-75.1506196 2318.728,147.40138 1937.098,383.58138 C1707.178,525.46138 1468.608,671.39138 1068.5,744.45138 Z" id="Path" opacity="0.85"></path>
            </g>
            <path d="M1792.892,1758.55 C1318.052,1845.37 730.232,1770.27 724.849,1768.79 L730.569,1759.1 C736.769,1759.2 1314.528,1833.68 1777.672,1749 C2170.638,1677.14 2406.878,1531.56 2635.988,1390.98 C3023.938,1151.03 3388.988,925.143 4470.068,1048.22 L4465.878,1058.86 C3404.098,938.418 3043.028,1161.11 2661.378,1397.44 C2429.928,1538.45 2192.878,1685.42 1792.892,1758.55 Z" id="Path" fill="url(#linearGradient-16)"></path>
            <path d="M1844.243,1790.5 C1369.261,1877.23 781.129,1802.1 775.743,1800.62 L781.458,1790.94 C787.661,1791.04 1365.726,1865.54 1829.009,1780.95 C2222.098,1709.17 2458.328,1563.67 2687.428,1423.18 C3075.378,1183.38 3440.418,957.628 4522.058,1080.77 L4517.868,1091.4 C3454.018,969.944 3094.478,1193.46 2710.498,1430.06 C2481.398,1570.56 2244.348,1717.44 1844.243,1790.5 Z" id="Path" fill="url(#linearGradient-17)"></path>
            <g id="Group" opacity="0.8" transform="translate(826.391400, 1077.969536)" fill="url(#linearGradient-18)">
                <path d="M1068.4996,744.410464 C593.5176,831.140464 7.7264,755.580464 -2.84217094e-14,754.530464 L5.715,744.850464 C11.918,744.950464 589.9836,819.460464 1053.2656,734.860464 C1446.3566,663.080464 1682.5866,517.580464 1911.6866,377.090464 C2297.2966,137.720464 2664.6766,-88.458536 3746.3166,34.680464 L3742.1266,45.320464 C2679.7966,-75.189536 2318.7266,147.370464 1937.0966,383.550464 C1707.1766,525.430464 1468.6066,671.350464 1068.4996,744.410464 Z" id="Path" opacity="0.95"></path>
            </g>
            <g id="Group" opacity="0.6" transform="translate(877.039700, 1109.815053)" fill="url(#linearGradient-19)">
                <path d="M1068.4983,744.444947 C593.5183,831.184947 5.3866,756.044947 -9.23705556e-14,754.564947 L5.7151,744.884947 C11.9181,744.984947 589.9833,819.494947 1053.2683,734.894947 C1446.3583,663.124947 1682.5883,517.624947 1911.6883,377.124947 C2299.6383,137.324947 2664.6683,-88.4250528 3746.3183,34.7249472 L3742.1283,45.3549472 C2679.7983,-75.1550528 2318.7283,147.404947 1937.0983,383.584947 C1707.1783,525.464947 1468.6083,671.384947 1068.4983,744.444947 Z" id="Path" opacity="0.9"></path>
            </g>
            <g id="Group" opacity="0.5" transform="translate(929.095400, 1142.585053)" fill="url(#linearGradient-20)">
                <path d="M1068.5026,744.444947 C593.5176,831.174947 5.3866,756.044947 2.04281037e-14,754.564947 L5.715,744.884947 C11.918,744.984947 589.9836,819.494947 1053.2626,734.894947 C1446.3526,663.114947 1682.5826,517.624947 1911.6826,377.124947 C2299.6326,137.324947 2664.6726,-88.4250528 3746.3126,34.7249472 L3742.1226,45.3549472 C2679.7926,-75.1550528 2318.7326,147.404947 1937.0926,383.584947 C1705.6526,524.504947 1468.6126,671.384947 1068.5026,744.444947 Z" id="Path" opacity="0.88"></path>
            </g>
            <g id="Group" opacity="0.4" transform="translate(979.743300, 1174.504385)" fill="url(#linearGradient-21)">
                <path d="M1068.5047,744.405615 C593.5177,831.145615 5.3866,756.005615 8.52651283e-14,754.525615 L5.7151,744.845615 C11.9181,744.955615 589.9837,819.455615 1053.2647,734.855615 C1446.3547,663.085615 1682.5847,517.585615 1911.6847,377.085615 C2297.2947,137.715615 2664.6747,-88.4643847 3746.3147,34.6856153 L3742.1247,45.3156153 C2679.7947,-75.1943847 2318.7347,147.365615 1937.0947,383.545615 C1705.6547,524.465615 1468.6047,671.355615 1068.5047,744.405615 Z" id="Path" opacity="0.85"></path>
            </g>
            <g id="Group" opacity="0.3" transform="translate(1030.391000, 1206.349756)" fill="url(#linearGradient-22)">
                <path d="M1068.497,744.450244 C593.519,831.180244 5.387,756.050244 9.9475983e-14,754.560244 L5.715,744.890244 C11.918,744.990244 589.984,819.490244 1053.267,734.900244 C1446.357,663.120244 1682.587,517.620244 1911.687,377.120244 C2299.637,137.330244 2664.677,-88.4197559 3746.317,34.7202441 L3742.127,45.3502441 C2679.797,-75.1497559 2318.727,147.400244 1937.097,383.580244 C1707.177,525.460244 1468.607,671.390244 1068.497,744.450244 Z" id="Path" opacity="0.85"></path>
            </g>
            <path d="M2154.708,1991.17 C1679.87,2077.99 1092.05,2002.89 1086.667,2001.4 L1092.387,1991.72 C1098.587,1991.82 1676.346,2066.3 2139.488,1981.62 C2532.458,1909.76 2768.698,1764.18 2997.808,1623.6 C3385.758,1383.65 3750.808,1157.76 4831.898,1280.84 L4827.698,1291.48 C3765.918,1171.04 3404.848,1393.73 3023.198,1630.05 C2791.748,1771.06 2554.698,1918.03 2154.708,1991.17 Z" id="Path" fill="url(#linearGradient-23)"></path>
            <path d="M2206.058,2023.12 C1731.079,2109.85 1142.948,2034.72 1137.561,2033.23 L1143.276,2023.56 C1149.479,2023.66 1727.545,2098.16 2190.828,2013.57 C2583.918,1941.79 2820.148,1796.29 3049.248,1655.79 C3437.198,1416 3802.238,1190.25 4883.878,1313.39 L4879.688,1324.02 C3815.838,1202.56 3456.288,1426.07 3072.318,1662.68 C2843.218,1803.18 2606.168,1950.06 2206.058,2023.12 Z" id="Path" fill="url(#linearGradient-22)"></path>
            <g id="Group" opacity="0.8" transform="translate(1188.209000, 1310.589157)" fill="url(#linearGradient-24)">
                <path d="M1068.499,744.410843 C593.518,831.140843 7.727,755.580843 -1.13686838e-13,754.530843 L5.715,744.850843 C11.918,744.950843 589.983,819.450843 1053.269,734.860843 C1446.359,663.080843 1682.589,517.580843 1911.689,377.090843 C2297.289,137.720843 2664.669,-88.4591574 3746.319,34.6808426 L3742.129,45.3108426 C2679.799,-75.1891574 2318.729,147.370843 1937.099,383.550843 C1707.179,525.430843 1468.609,671.350843 1068.499,744.410843 Z" id="Path" opacity="0.95"></path>
            </g>
            <g id="Group" opacity="0.6" transform="translate(1238.858000, 1342.435053)" fill="url(#linearGradient-25)">
                <path d="M1068.5,744.444947 C593.518,831.174947 5.387,756.044947 0,754.564947 L5.715,744.884947 C11.918,744.984947 589.983,819.494947 1053.27,734.894947 C1446.35,663.114947 1682.58,517.624947 1911.69,377.124947 C2299.63,137.324947 2664.67,-88.4250528 3746.32,34.7249472 L3742.13,45.3549472 C2679.8,-75.1550528 2318.73,147.404947 1937.1,383.584947 C1707.18,525.464947 1468.61,671.384947 1068.5,744.444947 Z" id="Path" opacity="0.9"></path>
            </g>
            <g id="Group" opacity="0.5" transform="translate(1290.913000, 1375.199830)" fill="url(#linearGradient-26)">
                <path d="M1068.505,744.45017 C593.518,831.18017 5.387,756.05017 1.70530257e-13,754.57017 L5.715,744.89017 C11.918,744.99017 589.984,819.50017 1053.265,734.90017 C1446.355,663.12017 1682.585,517.62017 1911.685,377.13017 C2299.635,137.33017 2664.675,-88.4198297 3746.315,34.7201703 L3742.125,45.3601703 C2679.795,-75.1498297 2318.735,147.41017 1937.095,383.59017 C1705.655,524.51017 1468.605,671.39017 1068.505,744.45017 Z" id="Path" opacity="0.88"></path>
            </g>
            <g id="Group" opacity="0.4" transform="translate(1341.562000, 1407.124385)" fill="url(#linearGradient-27)">
                <path d="M1068.496,744.405615 C593.516,831.145615 5.386,756.005615 2.84217094e-13,754.525615 L5.715,744.845615 C11.918,744.945615 589.986,819.455615 1053.266,734.855615 C1446.356,663.075615 1682.586,517.585615 1911.686,377.085615 C2297.296,137.715615 2664.676,-88.4643847 3746.316,34.6856153 L3742.126,45.3156153 C2679.796,-75.1943847 2318.726,147.365615 1937.096,383.545615 C1705.656,524.465615 1468.606,671.345615 1068.496,744.405615 Z" id="Path" opacity="0.85"></path>
            </g>
            <g id="Group" opacity="0.3" transform="translate(1392.210000, 1438.965053)" fill="url(#linearGradient-28)">
                <path d="M1068.498,744.454947 C593.518,831.184947 5.386,756.054947 1.13686838e-13,754.564947 L5.715,744.894947 C11.918,744.994947 589.988,819.494947 1053.268,734.894947 C1446.358,663.124947 1682.588,517.624947 1911.688,377.124947 C2299.638,137.324947 2664.668,-88.4250528 3746.318,34.7249472 L3742.128,45.3549472 C2679.798,-75.1450528 2318.728,147.404947 1937.098,383.584947 C1707.178,525.464947 1468.608,671.394947 1068.498,744.454947 Z" id="Path" opacity="0.85"></path>
            </g>
            <path d="M2605.468,2171.04 C2130.628,2257.86 1542.81,2182.76 1537.427,2181.28 L1543.147,2171.59 C1549.347,2171.69 2127.108,2246.17 2590.248,2161.49 C2983.218,2089.63 3219.458,1944.05 3448.568,1803.47 C3836.528,1563.52 4201.568,1337.63 5282.658,1460.72 L5278.458,1471.35 C4216.678,1350.91 3855.608,1573.6 3473.958,1809.93 C3242.508,1950.94 3005.458,2097.91 2605.468,2171.04 Z" id="Path" fill="url(#linearGradient-29)"></path>
            <path d="M2656.818,2202.99 C2181.838,2289.72 1593.708,2214.59 1588.322,2213.1 L1594.037,2203.43 C1600.24,2203.53 2178.308,2278.03 2641.588,2193.44 C3034.678,2121.66 3270.908,1976.16 3500.008,1835.67 C3887.958,1595.87 4252.998,1370.12 5334.638,1493.26 L5330.448,1503.89 C4266.598,1382.43 3907.048,1605.95 3523.078,1842.55 C3293.978,1983.05 3056.928,2129.93 2656.818,2202.99 Z" id="Path" fill="url(#linearGradient-30)"></path>
            <g id="Group" opacity="0.8" transform="translate(1638.970000, 1490.459157)" fill="url(#linearGradient-31)">
                <path d="M1068.498,744.410843 C593.518,831.140843 7.726,755.580843 -1.13686838e-13,754.530843 L5.715,744.850843 C11.918,744.950843 589.978,819.460843 1053.268,734.860843 C1446.358,663.080843 1682.588,517.580843 1911.688,377.090843 C2297.298,137.720843 2664.668,-88.4591574 3746.318,34.6808426 L3742.128,45.3208426 C2679.798,-75.1891574 2318.728,147.370843 1937.098,383.550843 C1707.178,525.430843 1468.608,671.350843 1068.498,744.410843 Z" id="Path" opacity="0.95"></path>
            </g>
            <g id="Group" opacity="0.6" transform="translate(1689.618000, 1522.305053)" fill="url(#linearGradient-32)">
                <path d="M1068.5,744.444947 C593.52,831.184947 5.387,756.044947 -2.27373675e-13,754.564947 L5.715,744.884947 C11.918,744.984947 589.98,819.494947 1053.27,734.894947 C1446.35,663.114947 1682.58,517.624947 1911.69,377.124947 C2299.63,137.324947 2664.67,-88.4250528 3746.32,34.7249472 L3742.13,45.3549472 C2679.8,-75.1550528 2318.73,147.404947 1937.1,383.584947 C1707.18,525.464947 1468.61,671.384947 1068.5,744.444947 Z" id="Path" opacity="0.9"></path>
            </g>
            <g id="Group" opacity="0.5" transform="translate(1741.674000, 1555.069830)" fill="url(#linearGradient-33)">
                <path d="M1068.504,744.45017 C593.514,831.18017 5.386,756.05017 2.27373675e-13,754.57017 L5.715,744.89017 C11.918,744.99017 589.984,819.50017 1053.264,734.90017 C1446.354,663.12017 1682.584,517.62017 1911.684,377.13017 C2299.634,137.33017 2664.674,-88.4198297 3746.314,34.7201703 L3742.124,45.3601703 C2679.794,-75.1498297 2318.734,147.41017 1937.094,383.59017 C1705.654,524.51017 1468.604,671.39017 1068.504,744.45017 Z" id="Path" opacity="0.88"></path>
            </g>
            <g id="Group" opacity="0.4" transform="translate(1792.322000, 1586.994385)" fill="url(#linearGradient-34)">
                <path d="M1068.496,744.405615 C593.516,831.145615 5.387,756.005615 1.13686838e-13,754.525615 L5.715,744.845615 C11.918,744.945615 589.986,819.455615 1053.266,734.855615 C1446.356,663.085615 1682.586,517.585615 1911.686,377.085615 C2297.296,137.715615 2664.676,-88.4643847 3746.316,34.6856153 L3742.126,45.3156153 C2679.796,-75.1943847 2318.736,147.365615 1937.096,383.545615 C1705.656,524.465615 1468.606,671.345615 1068.496,744.405615 Z" id="Path" opacity="0.85"></path>
            </g>
            <g id="Group" opacity="0.3" transform="translate(1842.970000, 1618.838840)" fill="url(#linearGradient-35)">
                <path d="M1068.498,744.45116 C593.518,831.18116 5.386,756.05116 -1.13686838e-13,754.56116 L5.715,744.89116 C11.918,744.99116 589.978,819.49116 1053.268,734.90116 C1446.358,663.12116 1682.588,517.62116 1911.688,377.12116 C2299.638,137.32116 2664.668,-88.4188404 3746.318,34.7211596 L3742.128,45.3511596 C2679.798,-75.1488404 2318.728,147.40116 1937.098,383.58116 C1707.178,525.46116 1468.608,671.39116 1068.498,744.45116 Z" id="Path" opacity="0.85"></path>
            </g>
        </g>
    </g>
</svg>