<?xml version="1.0" encoding="UTF-8"?>
<svg width="1440px" height="584px" viewBox="0 0 1440 584" version="1.1" xmlns="http://www.w3.org/2000/svg" xmlns:xlink="http://www.w3.org/1999/xlink">
    <title>waves</title>
    <defs>
        <linearGradient x1="-7.27304185%" y1="51.0705512%" x2="31.5006189%" y2="38.0933741%" id="linearGradient-1">
            <stop stop-color="#8F6AFA" offset="0%"></stop>
            <stop stop-color="#375CDC" offset="44.7917%"></stop>
            <stop stop-color="#0099EE" offset="100%"></stop>
        </linearGradient>
        <linearGradient x1="-7.27744658%" y1="51.0673464%" x2="31.4303606%" y2="38.1112005%" id="linearGradient-2">
            <stop stop-color="#8F6AFA" offset="0%"></stop>
            <stop stop-color="#375CDC" offset="44.7917%"></stop>
            <stop stop-color="#0099EE" offset="100%"></stop>
        </linearGradient>
        <linearGradient x1="-7.27741794%" y1="51.0673315%" x2="31.4303255%" y2="38.1137199%" id="linearGradient-3">
            <stop stop-color="#8F6AFA" offset="0%"></stop>
            <stop stop-color="#375CDC" offset="44.7917%"></stop>
            <stop stop-color="#0099EE" offset="100%"></stop>
        </linearGradient>
        <linearGradient x1="-7.2776276%" y1="51.0673231%" x2="31.4303354%" y2="38.1113286%" id="linearGradient-4">
            <stop stop-color="#8F6AFA" offset="0%"></stop>
            <stop stop-color="#375CDC" offset="44.7917%"></stop>
            <stop stop-color="#0099EE" offset="100%"></stop>
        </linearGradient>
        <linearGradient x1="-7.27751306%" y1="51.0673291%" x2="31.4303019%" y2="38.1113295%" id="linearGradient-5">
            <stop stop-color="#8F6AFA" offset="0%"></stop>
            <stop stop-color="#375CDC" offset="44.7917%"></stop>
            <stop stop-color="#0099EE" offset="100%"></stop>
        </linearGradient>
        <linearGradient x1="-7.2775286%" y1="51.0671626%" x2="31.430369%" y2="38.1117856%" id="linearGradient-6">
            <stop stop-color="#8F6AFA" offset="0%"></stop>
            <stop stop-color="#375CDC" offset="44.7917%"></stop>
            <stop stop-color="#0099EE" offset="100%"></stop>
        </linearGradient>
        <linearGradient x1="-7.27752471%" y1="51.0673615%" x2="31.4303255%" y2="38.1112791%" id="linearGradient-7">
            <stop stop-color="#8F6AFA" offset="0%"></stop>
            <stop stop-color="#375CDC" offset="44.7917%"></stop>
            <stop stop-color="#0099EE" offset="100%"></stop>
        </linearGradient>
        <linearGradient x1="-7.27308215%" y1="51.070598%" x2="31.5006778%" y2="38.0933976%" id="linearGradient-8">
            <stop stop-color="#8F6AFA" offset="0%"></stop>
            <stop stop-color="#375CDC" offset="44.7917%"></stop>
            <stop stop-color="#0099EE" offset="100%"></stop>
        </linearGradient>
        <linearGradient x1="-7.27752083%" y1="51.0673273%" x2="31.4303354%" y2="38.111294%" id="linearGradient-9">
            <stop stop-color="#8F6AFA" offset="0%"></stop>
            <stop stop-color="#375CDC" offset="44.7917%"></stop>
            <stop stop-color="#0099EE" offset="100%"></stop>
        </linearGradient>
        <linearGradient x1="-7.27751889%" y1="51.067313%" x2="31.4303004%" y2="38.1137725%" id="linearGradient-10">
            <stop stop-color="#8F6AFA" offset="0%"></stop>
            <stop stop-color="#375CDC" offset="44.7917%"></stop>
            <stop stop-color="#0099EE" offset="100%"></stop>
        </linearGradient>
        <linearGradient x1="-7.277515%" y1="51.0673557%" x2="31.4303103%" y2="38.1113197%" id="linearGradient-11">
            <stop stop-color="#8F6AFA" offset="0%"></stop>
            <stop stop-color="#375CDC" offset="44.7917%"></stop>
            <stop stop-color="#0099EE" offset="100%"></stop>
        </linearGradient>
        <linearGradient x1="-7.27752471%" y1="51.0673164%" x2="31.4303522%" y2="38.1113393%" id="linearGradient-12">
            <stop stop-color="#8F6AFA" offset="0%"></stop>
            <stop stop-color="#375CDC" offset="44.7917%"></stop>
            <stop stop-color="#0099EE" offset="100%"></stop>
        </linearGradient>
        <linearGradient x1="-7.27752083%" y1="51.0671902%" x2="31.4303354%" y2="38.1117448%" id="linearGradient-13">
            <stop stop-color="#8F6AFA" offset="0%"></stop>
            <stop stop-color="#375CDC" offset="44.7917%"></stop>
            <stop stop-color="#0099EE" offset="100%"></stop>
        </linearGradient>
        <linearGradient x1="-7.27751889%" y1="51.0673366%" x2="31.4303004%" y2="38.1112705%" id="linearGradient-14">
            <stop stop-color="#8F6AFA" offset="0%"></stop>
            <stop stop-color="#375CDC" offset="44.7917%"></stop>
            <stop stop-color="#0099EE" offset="100%"></stop>
        </linearGradient>
        <linearGradient x1="-7.27308603%" y1="51.0706078%" x2="31.5006946%" y2="38.0933535%" id="linearGradient-15">
            <stop stop-color="#8F6AFA" offset="0%"></stop>
            <stop stop-color="#375CDC" offset="44.7917%"></stop>
            <stop stop-color="#0099EE" offset="100%"></stop>
        </linearGradient>
        <linearGradient x1="-7.27752471%" y1="51.0673357%" x2="31.4302188%" y2="38.1112596%" id="linearGradient-16">
            <stop stop-color="#8F6AFA" offset="0%"></stop>
            <stop stop-color="#375CDC" offset="44.7917%"></stop>
            <stop stop-color="#0099EE" offset="100%"></stop>
        </linearGradient>
        <linearGradient x1="-7.27750559%" y1="51.0673235%" x2="31.430248%" y2="38.1137348%" id="linearGradient-17">
            <stop stop-color="#8F6AFA" offset="0%"></stop>
            <stop stop-color="#375CDC" offset="44.7917%"></stop>
            <stop stop-color="#0099EE" offset="100%"></stop>
        </linearGradient>
        <linearGradient x1="-7.2775103%" y1="51.0673586%" x2="31.4302792%" y2="38.1113031%" id="linearGradient-18">
            <stop stop-color="#8F6AFA" offset="0%"></stop>
            <stop stop-color="#375CDC" offset="44.7917%"></stop>
            <stop stop-color="#0099EE" offset="100%"></stop>
        </linearGradient>
        <linearGradient x1="-7.27751336%" y1="51.0673122%" x2="31.4304418%" y2="38.1113348%" id="linearGradient-19">
            <stop stop-color="#8F6AFA" offset="0%"></stop>
            <stop stop-color="#375CDC" offset="44.7917%"></stop>
            <stop stop-color="#0099EE" offset="100%"></stop>
        </linearGradient>
        <linearGradient x1="-7.27750661%" y1="51.0671971%" x2="31.4304802%" y2="38.1117648%" id="linearGradient-20">
            <stop stop-color="#8F6AFA" offset="0%"></stop>
            <stop stop-color="#375CDC" offset="44.7917%"></stop>
            <stop stop-color="#0099EE" offset="100%"></stop>
        </linearGradient>
        <linearGradient x1="-7.27749414%" y1="51.0673324%" x2="31.4302554%" y2="38.1112782%" id="linearGradient-21">
            <stop stop-color="#8F6AFA" offset="0%"></stop>
            <stop stop-color="#375CDC" offset="44.7917%"></stop>
            <stop stop-color="#0099EE" offset="100%"></stop>
        </linearGradient>
        <linearGradient x1="-7.27306273%" y1="51.0705503%" x2="31.5006204%" y2="38.0934133%" id="linearGradient-22">
            <stop stop-color="#8F6AFA" offset="0%"></stop>
            <stop stop-color="#375CDC" offset="44.7917%"></stop>
            <stop stop-color="#0099EE" offset="100%"></stop>
        </linearGradient>
        <linearGradient x1="-7.27750627%" y1="51.0673237%" x2="31.430292%" y2="38.1137342%" id="linearGradient-23">
            <stop stop-color="#8F6AFA" offset="0%"></stop>
            <stop stop-color="#375CDC" offset="44.7917%"></stop>
            <stop stop-color="#0099EE" offset="100%"></stop>
        </linearGradient>
        <linearGradient x1="-7.27750699%" y1="51.067308%" x2="31.4303103%" y2="38.1113818%" id="linearGradient-24">
            <stop stop-color="#8F6AFA" offset="0%"></stop>
            <stop stop-color="#375CDC" offset="44.7917%"></stop>
            <stop stop-color="#0099EE" offset="100%"></stop>
        </linearGradient>
        <linearGradient x1="-7.27751137%" y1="51.0673326%" x2="31.4304857%" y2="38.1112801%" id="linearGradient-25">
            <stop stop-color="#8F6AFA" offset="0%"></stop>
            <stop stop-color="#375CDC" offset="44.7917%"></stop>
            <stop stop-color="#0099EE" offset="100%"></stop>
        </linearGradient>
        <linearGradient x1="-7.27752277%" y1="51.0671404%" x2="31.4302371%" y2="38.1117675%" id="linearGradient-26">
            <stop stop-color="#8F6AFA" offset="0%"></stop>
            <stop stop-color="#375CDC" offset="44.7917%"></stop>
            <stop stop-color="#0099EE" offset="100%"></stop>
        </linearGradient>
        <linearGradient x1="-7.27751889%" y1="51.0673514%" x2="31.4302737%" y2="38.1112154%" id="linearGradient-27">
            <stop stop-color="#8F6AFA" offset="0%"></stop>
            <stop stop-color="#375CDC" offset="44.7917%"></stop>
            <stop stop-color="#0099EE" offset="100%"></stop>
        </linearGradient>
        <linearGradient x1="-7.27306273%" y1="51.0705839%" x2="31.5006204%" y2="38.0934746%" id="linearGradient-28">
            <stop stop-color="#8F6AFA" offset="0%"></stop>
            <stop stop-color="#375CDC" offset="44.7917%"></stop>
            <stop stop-color="#0099EE" offset="100%"></stop>
        </linearGradient>
        <linearGradient x1="-7.27752277%" y1="51.0673327%" x2="31.4302371%" y2="38.1112783%" id="linearGradient-29">
            <stop stop-color="#8F6AFA" offset="0%"></stop>
            <stop stop-color="#375CDC" offset="44.7917%"></stop>
            <stop stop-color="#0099EE" offset="100%"></stop>
        </linearGradient>
        <linearGradient x1="-7.27751889%" y1="51.0673243%" x2="31.4302737%" y2="38.1137334%" id="linearGradient-30">
            <stop stop-color="#8F6AFA" offset="0%"></stop>
            <stop stop-color="#375CDC" offset="44.7917%"></stop>
            <stop stop-color="#0099EE" offset="100%"></stop>
        </linearGradient>
        <linearGradient x1="-7.27748831%" y1="51.0673016%" x2="31.4303103%" y2="38.1113083%" id="linearGradient-31">
            <stop stop-color="#8F6AFA" offset="0%"></stop>
            <stop stop-color="#375CDC" offset="44.7917%"></stop>
            <stop stop-color="#0099EE" offset="100%"></stop>
        </linearGradient>
        <linearGradient x1="-7.27752666%" y1="51.0673332%" x2="31.4304674%" y2="38.1112794%" id="linearGradient-32">
            <stop stop-color="#8F6AFA" offset="0%"></stop>
            <stop stop-color="#375CDC" offset="44.7917%"></stop>
            <stop stop-color="#0099EE" offset="100%"></stop>
        </linearGradient>
        <linearGradient x1="-7.27752277%" y1="51.0671964%" x2="31.4302371%" y2="38.1117731%" id="linearGradient-33">
            <stop stop-color="#8F6AFA" offset="0%"></stop>
            <stop stop-color="#375CDC" offset="44.7917%"></stop>
            <stop stop-color="#0099EE" offset="100%"></stop>
        </linearGradient>
        <linearGradient x1="-7.27751889%" y1="51.0673357%" x2="31.4302737%" y2="38.1112676%" id="linearGradient-34">
            <stop stop-color="#8F6AFA" offset="0%"></stop>
            <stop stop-color="#375CDC" offset="44.7917%"></stop>
            <stop stop-color="#0099EE" offset="100%"></stop>
        </linearGradient>
    </defs>
    <g id="Intro" stroke="none" stroke-width="1" fill="none" fill-rule="evenodd">
        <g id="Home" transform="translate(0.000000, -5253.000000)" fill-rule="nonzero">
            <g id="waves" transform="translate(-138.000000, 5253.000000)">
                <path d="M338.280471,235.965322 C187.885065,263.463757 1.70527034,239.677389 0,239.205463 L1.81169138,236.139524 C3.7754128,236.171197 186.768594,259.761192 333.459851,232.937391 C457.925266,210.180393 532.74812,164.06778 605.312377,119.542614 C728.191612,43.5450113 843.810462,-28.0000115 1186.2233,10.9833428 L1184.89304,14.3523919 C848.596241,-23.7954305 734.234806,46.7379589 613.355084,121.588685 C540.049996,166.250045 464.968691,212.799744 338.280471,235.965322 Z" id="Path" fill="url(#linearGradient-1)"></path>
                <path d="M354.544835,246.084822 C204.104137,273.554751 17.8258396,249.758882 16.119619,249.286955 L17.9297268,246.224183 C19.8943984,246.255856 202.984816,269.852186 349.719782,243.056891 C474.22257,220.325232 549.043524,174.241124 621.605881,129.741613 C744.480998,53.7902527 860.099848,-17.7110614 1202.68689,21.2922468 L1201.35979,24.6593956 C864.407366,-13.8102238 750.530527,56.9825669 628.912825,131.922927 C556.350151,176.423389 481.270747,222.944583 354.544835,246.084822 Z" id="Path" fill="url(#linearGradient-2)"></path>
                <g id="Group" opacity="0.8" transform="translate(32.161639, 20.405087)" fill="url(#linearGradient-3)">
                    <path d="M338.424899,235.777064 C187.984518,263.246993 2.44705028,239.31493 0,238.979197 L1.81010773,235.916425 C3.77477934,235.948098 186.86488,259.544428 333.600163,232.7523 C458.102635,210.017473 532.923588,163.933366 605.486579,119.436072 C727.620549,43.6186882 843.980545,-28.018186 1186.56758,10.9851222 L1185.24049,14.3525877 C848.769492,-23.814872 734.411225,46.6754423 613.534669,121.478976 C540.712911,166.416523 465.150811,212.636824 338.424899,235.777064 Z" id="Path" opacity="0.95"></path>
                </g>
                <g id="Group" opacity="0.6" transform="translate(48.203343, 30.490960)" fill="url(#linearGradient-4)">
                    <path d="M338.425216,235.78852 C187.984518,263.258449 1.70622053,239.462579 -3.60079482e-14,238.99382 L1.81010773,235.927881 C3.77477934,235.959554 186.86488,259.559051 333.600163,232.763756 C458.102635,210.028929 532.923588,163.944822 605.487212,119.447528 C728.362329,43.495534 843.981179,-28.0057801 1186.56822,10.9975281 L1185.24112,14.3649936 C848.770125,-23.8024661 734.408691,46.6878482 613.535303,121.493599 C540.713227,166.431146 465.151127,212.64828 338.425216,235.78852 Z" id="Path" opacity="0.9"></path>
                </g>
                <g id="Group" opacity="0.5" transform="translate(64.691002, 40.869549)" fill="url(#linearGradient-5)">
                    <path d="M338.425216,235.789149 C187.984518,263.259078 1.7059038,239.463208 -3.60079482e-14,238.994449 L1.81010773,235.92851 C3.77477934,235.960183 186.86488,259.556513 333.600163,232.764384 C458.102635,210.029558 532.923588,163.94545 605.485312,119.448156 C728.360429,43.4955293 843.979278,-28.0057848 1186.56948,10.9975234 L1185.23922,14.3649889 C848.771392,-23.8024707 734.409958,46.6878435 613.533402,121.494227 C540.230532,166.127715 465.150811,212.648909 338.425216,235.789149 Z" id="Path" opacity="0.88"></path>
                </g>
                <g id="Group" opacity="0.4" transform="translate(80.732705, 50.979906)" fill="url(#linearGradient-6)">
                    <path d="M338.425216,235.776121 C187.984581,263.24605 1.70622053,239.450181 0,238.981421 L1.81010773,235.915482 C3.77477934,235.947155 186.865007,259.546652 333.600163,232.751357 C458.102951,210.01653 532.923271,163.932423 605.485945,119.435129 C727.619916,43.6186952 843.979912,-28.0181791 1186.56695,10.9851291 L1185.23985,14.3525947 C848.768858,-23.814865 734.410591,46.6754493 613.534036,121.4812 C540.230215,166.114687 465.151127,212.635881 338.425216,235.776121 Z" id="Path" opacity="0.85"></path>
                </g>
                <g id="Group" opacity="0.3" transform="translate(96.774409, 61.065779)" fill="url(#linearGradient-7)">
                    <path d="M338.425216,235.787577 C187.984486,263.260673 1.7059038,239.461636 0,238.992877 L1.81010773,235.926938 C3.77477934,235.958611 186.864943,259.558108 333.600163,232.762812 C458.102635,210.027986 532.923905,163.947046 605.486579,119.446584 C728.361696,43.495541 843.980545,-28.0057731 1186.56758,10.9975351 L1185.24049,14.3646839 C848.769492,-23.8024591 734.411225,46.6878552 613.534669,121.492656 C540.712277,166.430203 465.151127,212.647337 338.425216,235.787577 Z" id="Path" opacity="0.85"></path>
                </g>
                <path d="M445.495543,308.790882 C295.099972,336.289316 108.920026,312.502949 107.215072,312.034189 L109.026764,308.96825 C110.990485,308.999923 293.983654,332.586751 440.674924,305.766117 C565.140338,283.005952 639.963509,236.896507 712.526183,192.370707 C835.404467,116.371521 951.026484,44.8264979 1293.43615,83.8098521 L1292.10906,87.1789013 C955.812263,49.0313955 841.447661,119.564785 720.571106,194.416778 C647.264118,239.078771 572.183447,285.628471 445.495543,308.790882 Z" id="Path" fill="url(#linearGradient-8)"></path>
                <path d="M461.759907,318.910382 C311.319241,346.38031 125.040912,322.584441 123.334691,322.115682 L125.144799,319.049742 C127.109471,319.081415 310.199698,342.677745 456.934854,315.885617 C581.437642,293.150791 656.259229,247.066683 728.821903,202.569389 C851.69702,126.617079 967.31587,55.1157646 1309.90291,94.1190728 L1308.57581,97.4862216 C971.623388,59.0162855 857.743382,129.809393 736.128847,204.748486 C663.566173,249.248948 588.485819,295.770142 461.759907,318.910382 Z" id="Path" fill="url(#linearGradient-9)"></path>
                <g id="Group" opacity="0.8" transform="translate(139.376712, 93.231875)" fill="url(#linearGradient-10)">
                    <path d="M338.424899,235.775836 C187.984518,263.245765 2.44705028,239.313701 0,238.981136 L1.81010773,235.915197 C3.77477934,235.946869 186.86488,259.546367 333.599846,232.751071 C458.102635,210.016245 532.924855,163.935305 605.487529,119.434843 C727.621499,43.6184097 843.978328,-28.0181478 1186.56853,10.9851604 L1185.24144,14.3526259 C848.770442,-23.8148337 734.409007,46.6757973 613.535619,121.480914 C540.713227,166.418462 465.150811,212.635596 338.424899,235.775836 Z" id="Path" opacity="0.95"></path>
                </g>
                <g id="Group" opacity="0.6" transform="translate(155.418415, 103.317690)" fill="url(#linearGradient-11)">
                    <path d="M338.425216,235.787349 C187.984518,263.260446 1.70622053,239.461409 1.80039741e-14,238.99265 L1.81010773,235.92671 C3.77477934,235.961551 186.86488,259.557881 333.600163,232.762585 C458.101368,210.030926 532.922321,163.946818 605.488162,119.446357 C728.360112,43.4946801 843.978962,-28.0056838 1186.56917,10.9976244 L1185.24207,14.3647732 C848.771075,-23.8023697 734.409641,46.6873111 613.533085,121.492428 C540.713861,166.429976 465.151761,212.64711 338.425216,235.787349 Z" id="Path" opacity="0.9"></path>
                </g>
                <g id="Group" opacity="0.5" transform="translate(171.905757, 113.696337)" fill="url(#linearGradient-12)">
                    <path d="M338.424899,235.78792 C187.984518,263.257849 1.7059038,239.46198 0,238.99322 L1.81010773,235.927281 C3.77477934,235.958954 186.86488,259.558451 333.600163,232.763156 C458.102951,210.028329 532.923905,163.947389 605.486579,119.446928 C728.361696,43.4952509 843.980545,-28.0057464 1186.56758,10.9975618 L1185.24049,14.3647105 C848.769492,-23.8024324 734.411225,46.6878819 613.534669,121.492999 C540.230849,166.126486 465.150177,212.64768 338.424899,235.78792 Z" id="Path" opacity="0.88"></path>
                </g>
                <g id="Group" opacity="0.4" transform="translate(187.947461, 123.806694)" fill="url(#linearGradient-13)">
                    <path d="M338.425216,235.77806 C187.984518,263.247989 1.70622053,239.448952 -3.60079482e-14,238.980193 L1.81010773,235.917421 C3.77477934,235.949094 186.86488,259.545424 333.600163,232.750128 C458.103585,210.018469 532.924538,163.934361 605.487212,119.4339 C727.621183,43.6184167 843.981179,-28.0181408 1186.56822,10.9851674 L1185.24112,14.3526329 C848.770125,-23.8148268 734.408691,46.6748541 613.535303,121.479971 C540.231482,166.116626 465.150811,212.63782 338.425216,235.77806 Z" id="Path" opacity="0.85"></path>
                </g>
                <g id="Group" opacity="0.3" transform="translate(203.989481, 133.892546)" fill="url(#linearGradient-14)">
                    <path d="M338.425216,235.789536 C187.984518,263.259465 1.7059038,239.463595 0,238.991669 L1.81010773,235.928897 C3.77477934,235.96057 186.86488,259.5569 333.600163,232.764772 C458.103901,210.029945 532.924855,163.945838 605.487529,119.445376 C728.362646,43.4968667 843.978328,-28.0057143 1186.56853,10.9972772 L1185.24144,14.3641092 C848.770442,-23.8024003 734.409007,46.6863304 613.535619,121.491447 C540.713227,166.428995 465.151127,212.649296 338.425216,235.789536 Z" id="Path" opacity="0.85"></path>
                </g>
                <path d="M567.861359,379.244139 C417.465637,406.742573 231.285842,382.956206 229.580889,382.487446 L231.39258,379.41834 C233.356301,379.450013 416.349483,403.040008 563.04074,376.219374 C687.504571,353.459209 762.328692,307.349763 834.894533,262.823964 C957.76965,186.824778 1073.39167,115.279755 1415.80134,154.261842 L1414.47424,157.631841 C1078.17745,119.484336 963.816012,190.017408 842.936289,264.870035 C769.629301,309.532028 694.54863,356.081728 567.861359,379.244139 Z" id="Path" fill="url(#linearGradient-15)"></path>
                <path d="M584.125724,389.363638 C433.685026,416.833567 247.406411,393.037698 245.700508,392.568939 L247.510615,389.502999 C249.475287,389.534672 432.565388,413.131002 579.30067,386.338874 C703.803459,363.604048 778.624412,317.51994 851.187086,273.022646 C974.062203,197.070969 1089.68105,125.568705 1432.26809,164.57138 L1430.941,167.938212 C1093.98857,129.469542 980.111732,200.2636 858.49403,275.201743 C785.931356,319.702205 710.850685,366.223399 584.125724,389.363638 Z" id="Path" fill="url(#linearGradient-16)"></path>
                <g id="Group" opacity="0.8" transform="translate(261.742338, 163.684391)" fill="url(#linearGradient-17)">
                    <path d="M338.425089,235.776577 C187.984391,263.246505 2.44717697,239.314442 -9.00198704e-15,238.981877 L1.81010773,235.915938 C3.77477934,235.94761 186.86507,259.547108 333.600036,232.751812 C458.103458,210.016986 532.924411,163.932878 605.487085,119.435584 C727.621056,43.6201009 843.981052,-28.0174068 1186.56809,10.9843178 L1185.241,14.3543171 C848.769998,-23.8147262 734.408564,46.6765383 613.535176,121.481655 C540.712784,166.419203 465.150684,212.636337 338.425089,235.776577 Z" id="Path" opacity="0.95"></path>
                </g>
                <g id="Group" opacity="0.6" transform="translate(277.784137, 173.770798)" fill="url(#linearGradient-18)">
                    <path d="M338.424678,235.787498 C187.984613,263.260595 1.70609384,239.461558 -2.92564579e-14,238.992799 L1.8101394,235.926859 C3.77481101,235.958532 186.864975,259.55803 333.600891,232.762734 C458.103996,210.031075 532.92495,163.946967 605.487624,119.446506 C728.362741,43.4948291 843.978423,-28.0068017 1186.56863,10.9984069 L1185.24153,14.3652389 C848.770537,-23.8038044 734.409102,46.6874601 613.535714,121.492577 C540.713322,166.430125 465.151223,212.647259 338.424678,235.787498 Z" id="Path" opacity="0.9"></path>
                </g>
                <g id="Group" opacity="0.5" transform="translate(294.271700, 184.150016)" fill="url(#linearGradient-19)">
                    <path d="M338.42604,235.787498 C187.984391,263.257427 1.70609384,239.461558 6.47017819e-15,238.992799 L1.81010773,235.926859 C3.77477934,235.958532 186.86507,259.55803 333.599086,232.762734 C458.102191,210.027908 532.923145,163.946967 605.485818,119.446506 C728.360935,43.4948291 843.979785,-28.0068017 1186.56682,10.9984069 L1185.23973,14.3652389 C848.768732,-23.8038044 734.410464,46.6874601 613.533909,121.492577 C540.230089,166.126065 465.152584,212.647259 338.42604,235.787498 Z" id="Path" opacity="0.88"></path>
                </g>
                <g id="Group" opacity="0.4" transform="translate(310.313372, 194.259802)" fill="url(#linearGradient-20)">
                    <path d="M338.426705,235.775041 C187.984423,263.248137 1.70609384,239.4491 2.70059611e-14,238.980341 L1.8101394,235.914402 C3.77481101,235.949242 186.865102,259.545572 333.599751,232.750276 C458.102856,210.018617 532.92381,163.93451 605.486484,119.434049 C727.620454,43.6185652 843.98045,-28.0192592 1186.56749,10.9859493 L1185.24039,14.3527814 C848.769397,-23.8162619 734.411129,46.6750025 613.534574,121.48012 C540.230754,166.113607 465.150082,212.637968 338.426705,235.775041 Z" id="Path" opacity="0.85"></path>
                </g>
                <g id="Group" opacity="0.3" transform="translate(326.354981, 204.346163)" fill="url(#linearGradient-21)">
                    <path d="M338.424266,235.789176 C187.984835,263.259105 1.70622053,239.463236 3.15069546e-14,238.991309 L1.81010773,235.928537 C3.77477934,235.96021 186.865197,259.55654 333.600479,232.764412 C458.103585,210.029585 532.924538,163.945478 605.487212,119.445016 C728.362329,43.4965068 843.981179,-28.005124 1186.56822,10.9969173 L1185.24112,14.3637493 C848.770125,-23.8021267 734.408691,46.6859705 613.535303,121.491087 C540.712911,166.428635 465.150811,212.648936 338.424266,235.789176 Z" id="Path" opacity="0.85"></path>
                </g>
                <path d="M682.459074,452.921699 C532.063985,480.420134 345.88419,456.633766 344.179237,456.16184 L345.990928,453.095901 C347.954649,453.127573 530.947831,476.717569 677.638455,449.896935 C802.103552,427.13677 876.927673,381.027324 949.493514,336.501525 C1072.36863,260.502338 1187.99065,188.956365 1530.40349,227.939403 L1529.07322,231.309402 C1192.77643,193.16253 1078.41499,263.694969 957.53527,338.544428 C884.228283,383.206422 809.147611,429.756121 682.459074,452.921699 Z" id="Path" fill="url(#linearGradient-22)"></path>
                <path d="M698.723121,463.041199 C548.283374,490.511128 362.005076,466.715259 360.298856,466.243332 L362.108963,463.18056 C364.073635,463.212233 547.164052,486.808563 693.899335,460.016435 C818.40244,437.281608 893.223394,391.197501 965.786068,346.69704 C1088.66118,270.74853 1204.28003,199.246899 1546.86707,238.24894 L1545.53998,241.615773 C1208.58755,203.145836 1094.70755,273.937994 973.093012,348.879304 C900.530338,393.379766 825.449666,439.900959 698.723121,463.041199 Z" id="Path" fill="url(#linearGradient-21)"></path>
                <g id="Group" opacity="0.8" transform="translate(376.340559, 237.361832)" fill="url(#linearGradient-23)">
                    <path d="M338.424899,235.776697 C187.984518,263.246625 2.447367,239.314562 -3.60079482e-14,238.981997 L1.81010773,235.916057 C3.77477934,235.94773 186.86488,259.54406 333.601113,232.751932 C458.104218,210.017106 532.925172,163.932998 605.487845,119.435704 C727.618649,43.6202208 843.978645,-28.0176036 1186.56885,10.9844377 L1185.24176,14.3512697 C848.770759,-23.8146063 734.409324,46.6766582 613.535936,121.481775 C540.713544,166.419323 465.151444,212.636457 338.424899,235.776697 Z" id="Path" opacity="0.95"></path>
                </g>
                <g id="Group" opacity="0.6" transform="translate(392.382580, 247.448359)" fill="url(#linearGradient-24)">
                    <path d="M338.425216,235.787498 C187.984518,263.257427 1.70622053,239.461558 0,238.992799 L1.81010773,235.926859 C3.77477934,235.958532 186.86488,259.55803 333.601429,232.762734 C458.101368,210.027908 532.922321,163.946967 605.488162,119.446506 C728.360112,43.4948291 843.978962,-28.0068017 1186.56917,10.9984069 L1185.24207,14.3652389 C848.771075,-23.8038044 734.409641,46.6874601 613.536253,121.492577 C540.713861,166.430125 465.151761,212.647259 338.425216,235.787498 Z" id="Path" opacity="0.9"></path>
                </g>
                <g id="Group" opacity="0.5" transform="translate(408.869921, 257.825922)" fill="url(#linearGradient-25)">
                    <path d="M338.4268,235.789153 C187.984518,263.259082 1.70622053,239.463212 5.40119223e-14,238.994453 L1.81010773,235.928514 C3.77477934,235.960187 186.865197,259.559684 333.599846,232.764388 C458.102951,210.029562 532.923905,163.945454 605.486579,119.44816 C728.361696,43.4964835 843.980545,-28.0051474 1186.56758,10.9968939 L1185.24049,14.3668933 C848.769492,-23.8021501 734.411225,46.6891144 613.534669,121.494231 C540.230849,166.127719 465.150177,212.648913 338.4268,235.789153 Z" id="Path" opacity="0.88"></path>
                </g>
                <g id="Group" opacity="0.4" transform="translate(424.911942, 267.937363)" fill="url(#linearGradient-26)">
                    <path d="M338.423949,235.775041 C187.983884,263.248137 1.7059038,239.4491 9.00198704e-14,238.980341 L1.81010773,235.914402 C3.77477934,235.946075 186.86583,259.545572 333.600163,232.750276 C458.103268,210.01545 532.924221,163.93451 605.486895,119.434049 C727.620866,43.6185652 843.980862,-28.0192592 1186.5679,10.9859493 L1185.2408,14.3527814 C848.769808,-23.8162619 734.408374,46.6750025 613.534986,121.48012 C540.231166,166.113607 465.150494,212.634801 338.423949,235.775041 Z" id="Path" opacity="0.85"></path>
                </g>
                <g id="Group" opacity="0.3" transform="translate(440.953645, 278.022234)" fill="url(#linearGradient-27)">
                    <path d="M338.424583,235.790666 C187.984518,263.260595 1.7059038,239.464725 3.60079482e-14,238.992799 L1.81010773,235.930027 C3.77477934,235.9617 186.866464,259.55803 333.600796,232.762734 C458.103901,210.031075 532.924855,163.946967 605.487529,119.446506 C728.362646,43.4948291 843.978328,-28.0068017 1186.56853,10.9984069 L1185.24144,14.3652389 C848.770442,-23.8006371 734.409007,46.6874601 613.535619,121.492577 C540.713227,166.430125 465.151127,212.650426 338.424583,235.790666 Z" id="Path" opacity="0.85"></path>
                </g>
                <path d="M825.227956,509.891792 C674.832233,537.390226 488.653072,513.603859 486.948119,513.135099 L488.75981,510.065993 C490.723531,510.097666 673.717346,533.687661 820.407337,506.867027 C944.872434,484.106863 1019.69656,437.997417 1092.2624,393.471617 C1215.14068,317.472431 1330.75953,245.926458 1673.17237,284.912663 L1671.8421,288.279495 C1335.54531,250.132622 1221.18388,320.665062 1100.30415,395.517688 C1026.99716,440.179681 951.916493,486.729381 825.227956,509.891792 Z" id="Path" fill="url(#linearGradient-28)"></path>
                <path d="M841.492003,520.011292 C691.051939,547.48122 504.773958,523.685351 503.068054,523.213424 L504.878162,520.150653 C506.842834,520.182325 689.933884,543.778655 836.668217,516.986527 C961.171322,494.251701 1035.99228,448.167593 1108.55495,403.670299 C1231.43007,327.718622 1347.04892,256.216991 1689.63595,295.219033 L1688.30886,298.585865 C1351.35643,260.115929 1237.47643,330.911253 1115.86189,405.849397 C1043.29922,450.349858 968.218548,496.871052 841.492003,520.011292 Z" id="Path" fill="url(#linearGradient-29)"></path>
                <g id="Group" opacity="0.8" transform="translate(519.109758, 294.331924)" fill="url(#linearGradient-30)">
                    <path d="M338.424583,235.776697 C187.984518,263.246625 2.44705028,239.314562 -3.60079482e-14,238.981997 L1.81010773,235.916057 C3.77477934,235.94773 186.863296,259.547228 333.600796,232.751932 C458.103901,210.017106 532.924855,163.932998 605.487529,119.435704 C727.621499,43.6202208 843.978328,-28.0176036 1186.56853,10.9844377 L1185.24144,14.354437 C848.770442,-23.8146063 734.409007,46.6766582 613.535619,121.481775 C540.713227,166.419323 465.151127,212.636457 338.424583,235.776697 Z" id="Path" opacity="0.95"></path>
                </g>
                <g id="Group" opacity="0.6" transform="translate(535.151462, 304.418451)" fill="url(#linearGradient-31)">
                    <path d="M338.425216,235.787498 C187.985151,263.260595 1.70622053,239.461558 -7.20158963e-14,238.992799 L1.81010773,235.926859 C3.77477934,235.958532 186.86393,259.55803 333.601429,232.762734 C458.101368,210.027908 532.922321,163.946967 605.488162,119.446506 C728.360112,43.4948291 843.978962,-28.0068017 1186.56917,10.9984069 L1185.24207,14.3652389 C848.771075,-23.8038044 734.409641,46.6874601 613.536253,121.492577 C540.713861,166.430125 465.151761,212.647259 338.425216,235.787498 Z" id="Path" opacity="0.9"></path>
                </g>
                <g id="Group" opacity="0.5" transform="translate(551.639120, 314.796014)" fill="url(#linearGradient-32)">
                    <path d="M338.426483,235.789153 C187.983251,263.259082 1.7059038,239.463212 7.20158963e-14,238.994453 L1.81010773,235.928514 C3.77477934,235.960187 186.865197,259.559684 333.599529,232.764388 C458.102635,210.029562 532.923588,163.945454 605.486262,119.44816 C728.361379,43.4964835 843.980229,-28.0051474 1186.56727,10.9968939 L1185.24017,14.3668933 C848.769175,-23.8021501 734.410908,46.6891144 613.534352,121.494231 C540.230532,166.127719 465.149861,212.648913 338.426483,235.789153 Z" id="Path" opacity="0.88"></path>
                </g>
                <g id="Group" opacity="0.4" transform="translate(567.680824, 324.907455)" fill="url(#linearGradient-33)">
                    <path d="M338.423949,235.775041 C187.983884,263.248137 1.70622053,239.4491 3.60079482e-14,238.980341 L1.81010773,235.914402 C3.77477934,235.946075 186.86583,259.545572 333.600163,232.750276 C458.103268,210.018617 532.924221,163.93451 605.486895,119.434049 C727.620866,43.6185652 843.980862,-28.0192592 1186.5679,10.9859493 L1185.2408,14.3527814 C848.769808,-23.8162619 734.411541,46.6750025 613.534986,121.48012 C540.231166,166.113607 465.150494,212.634801 338.423949,235.775041 Z" id="Path" opacity="0.85"></path>
                </g>
                <g id="Group" opacity="0.3" transform="translate(583.722527, 334.993526)" fill="url(#linearGradient-34)">
                    <path d="M338.424583,235.789466 C187.984518,263.259395 1.7059038,239.463526 -3.60079482e-14,238.991599 L1.81010773,235.928827 C3.77477934,235.9605 186.863296,259.55683 333.600796,232.764702 C458.103901,210.029875 532.924855,163.945768 605.487529,119.445306 C728.362646,43.4936295 843.978328,-28.004834 1186.56853,10.9972072 L1185.24144,14.3640393 C848.770442,-23.8018367 734.409007,46.6862604 613.535619,121.491377 C540.713227,166.428925 465.151127,212.649226 338.424583,235.789466 Z" id="Path" opacity="0.85"></path>
                </g>
            </g>
        </g>
    </g>
</svg>