<svg id="Layer_1" data-name="Layer 1" xmlns="http://www.w3.org/2000/svg" viewBox="0 0 200 29"><defs><style>.cls-1{fill:#231f20;}.cls-2{fill:#1ca6df;}.cls-3{fill:#0075bc;}.cls-4{fill:#262a82;}</style></defs><title>VaughtInc</title><polyline class="cls-1" points="186.42 7.07 186.42 26.7 180.73 26.7 180.73 7.07 169.2 7.07 169.2 1.72 198 1.72 198 7.07 186.42 7.07"/><polyline class="cls-1" points="134.5 26.7 134.5 1.72 140.15 1.72 140.15 11.15 158.63 11.15 158.63 1.72 164.33 1.72 164.33 26.7 158.63 26.7 158.63 16.2 140.15 16.2 140.15 26.7 134.5 26.7"/><path class="cls-1" d="M128,7h-23.9V21.32h18.49v-8l5.54,0v7.46q0,3.44-1.27,4.67T122,26.71H104.75q-3.64,0-4.92-1.24t-1.28-4.67V7.63q0-3.41,1.28-4.66t4.92-1.25h23.09c.25,0,.14,5.4.2,5.27"/><path class="cls-1" d="M70.76,1.72V21.3H87.58V1.72h5.67V20.8q0,3.43-1.27,4.66T87,26.71H71.27q-3.62,0-4.91-1.24T65.07,20.8V1.72h5.69"/><polyline class="cls-1" points="46.63 1.72 61.07 26.7 54.43 26.7 44.31 8.64 34.67 26.7 28.88 26.7 42.61 1.72 46.63 1.72"/><polyline class="cls-1" points="15.08 26.7 0.64 1.72 7.28 1.72 17.4 19.78 27.04 1.72 32.83 1.72 19.1 26.7 15.08 26.7"/><polygon class="cls-2" points="44.37 12.5 36.2 26.65 36.2 26.65 44.37 21.93 44.37 12.5"/><polygon class="cls-3" points="52.53 26.63 44.37 12.5 44.37 21.93 52.53 26.63"/><polygon class="cls-4" points="52.53 26.63 44.37 21.93 36.2 26.65 52.54 26.65 52.53 26.63"/></svg>