<?xml version="1.0" encoding="UTF-8"?>
<svg width="5589.288px" height="1843.84606px" viewBox="0 0 5589.288 1843.84606" version="1.1" xmlns="http://www.w3.org/2000/svg" xmlns:xlink="http://www.w3.org/1999/xlink">
    <title>waves</title>
    <defs>
        <linearGradient x1="-7.27304185%" y1="51.0705512%" x2="31.5006189%" y2="38.0933741%" id="linearGradient-1">
            <stop stop-color="#8F6AFA" offset="0%"></stop>
            <stop stop-color="#375CDC" offset="44.7917%"></stop>
            <stop stop-color="#0099EE" offset="100%"></stop>
        </linearGradient>
        <linearGradient x1="-7.27744658%" y1="51.0673464%" x2="31.4303606%" y2="38.1112005%" id="linearGradient-2">
            <stop stop-color="#8F6AFA" offset="0%"></stop>
            <stop stop-color="#375CDC" offset="44.7917%"></stop>
            <stop stop-color="#0099EE" offset="100%"></stop>
        </linearGradient>
        <linearGradient x1="-7.27741794%" y1="51.0673315%" x2="31.4303255%" y2="38.1137199%" id="linearGradient-3">
            <stop stop-color="#8F6AFA" offset="0%"></stop>
            <stop stop-color="#375CDC" offset="44.7917%"></stop>
            <stop stop-color="#0099EE" offset="100%"></stop>
        </linearGradient>
        <linearGradient x1="-7.2776276%" y1="51.0673231%" x2="31.4303354%" y2="38.1113286%" id="linearGradient-4">
            <stop stop-color="#8F6AFA" offset="0%"></stop>
            <stop stop-color="#375CDC" offset="44.7917%"></stop>
            <stop stop-color="#0099EE" offset="100%"></stop>
        </linearGradient>
        <linearGradient x1="-7.27751306%" y1="51.0673291%" x2="31.4303019%" y2="38.1113295%" id="linearGradient-5">
            <stop stop-color="#8F6AFA" offset="0%"></stop>
            <stop stop-color="#375CDC" offset="44.7917%"></stop>
            <stop stop-color="#0099EE" offset="100%"></stop>
        </linearGradient>
        <linearGradient x1="-7.2775286%" y1="51.0671626%" x2="31.430369%" y2="38.1117856%" id="linearGradient-6">
            <stop stop-color="#8F6AFA" offset="0%"></stop>
            <stop stop-color="#375CDC" offset="44.7917%"></stop>
            <stop stop-color="#0099EE" offset="100%"></stop>
        </linearGradient>
        <linearGradient x1="-7.27752471%" y1="51.0673615%" x2="31.4303255%" y2="38.1112791%" id="linearGradient-7">
            <stop stop-color="#8F6AFA" offset="0%"></stop>
            <stop stop-color="#375CDC" offset="44.7917%"></stop>
            <stop stop-color="#0099EE" offset="100%"></stop>
        </linearGradient>
        <linearGradient x1="-7.27308215%" y1="51.070598%" x2="31.5006778%" y2="38.0933976%" id="linearGradient-8">
            <stop stop-color="#8F6AFA" offset="0%"></stop>
            <stop stop-color="#375CDC" offset="44.7917%"></stop>
            <stop stop-color="#0099EE" offset="100%"></stop>
        </linearGradient>
        <linearGradient x1="-7.27752083%" y1="51.0673273%" x2="31.4303354%" y2="38.111294%" id="linearGradient-9">
            <stop stop-color="#8F6AFA" offset="0%"></stop>
            <stop stop-color="#375CDC" offset="44.7917%"></stop>
            <stop stop-color="#0099EE" offset="100%"></stop>
        </linearGradient>
        <linearGradient x1="-7.27751889%" y1="51.067313%" x2="31.4303004%" y2="38.1137725%" id="linearGradient-10">
            <stop stop-color="#8F6AFA" offset="0%"></stop>
            <stop stop-color="#375CDC" offset="44.7917%"></stop>
            <stop stop-color="#0099EE" offset="100%"></stop>
        </linearGradient>
        <linearGradient x1="-7.277515%" y1="51.0673557%" x2="31.4303103%" y2="38.1113197%" id="linearGradient-11">
            <stop stop-color="#8F6AFA" offset="0%"></stop>
            <stop stop-color="#375CDC" offset="44.7917%"></stop>
            <stop stop-color="#0099EE" offset="100%"></stop>
        </linearGradient>
        <linearGradient x1="-7.27752471%" y1="51.0673164%" x2="31.4303522%" y2="38.1113393%" id="linearGradient-12">
            <stop stop-color="#8F6AFA" offset="0%"></stop>
            <stop stop-color="#375CDC" offset="44.7917%"></stop>
            <stop stop-color="#0099EE" offset="100%"></stop>
        </linearGradient>
        <linearGradient x1="-7.27752083%" y1="51.0671902%" x2="31.4303354%" y2="38.1117448%" id="linearGradient-13">
            <stop stop-color="#8F6AFA" offset="0%"></stop>
            <stop stop-color="#375CDC" offset="44.7917%"></stop>
            <stop stop-color="#0099EE" offset="100%"></stop>
        </linearGradient>
        <linearGradient x1="-7.27751889%" y1="51.0673366%" x2="31.4303004%" y2="38.1112705%" id="linearGradient-14">
            <stop stop-color="#8F6AFA" offset="0%"></stop>
            <stop stop-color="#375CDC" offset="44.7917%"></stop>
            <stop stop-color="#0099EE" offset="100%"></stop>
        </linearGradient>
        <linearGradient x1="-7.27308603%" y1="51.0706078%" x2="31.5006946%" y2="38.0933535%" id="linearGradient-15">
            <stop stop-color="#8F6AFA" offset="0%"></stop>
            <stop stop-color="#375CDC" offset="44.7917%"></stop>
            <stop stop-color="#0099EE" offset="100%"></stop>
        </linearGradient>
        <linearGradient x1="-7.27752471%" y1="51.0673357%" x2="31.4302188%" y2="38.1112596%" id="linearGradient-16">
            <stop stop-color="#8F6AFA" offset="0%"></stop>
            <stop stop-color="#375CDC" offset="44.7917%"></stop>
            <stop stop-color="#0099EE" offset="100%"></stop>
        </linearGradient>
        <linearGradient x1="-7.27750559%" y1="51.0673235%" x2="31.430248%" y2="38.1137348%" id="linearGradient-17">
            <stop stop-color="#8F6AFA" offset="0%"></stop>
            <stop stop-color="#375CDC" offset="44.7917%"></stop>
            <stop stop-color="#0099EE" offset="100%"></stop>
        </linearGradient>
        <linearGradient x1="-7.2775103%" y1="51.0673586%" x2="31.4302792%" y2="38.1113031%" id="linearGradient-18">
            <stop stop-color="#8F6AFA" offset="0%"></stop>
            <stop stop-color="#375CDC" offset="44.7917%"></stop>
            <stop stop-color="#0099EE" offset="100%"></stop>
        </linearGradient>
        <linearGradient x1="-7.27751336%" y1="51.0673122%" x2="31.4304418%" y2="38.1113348%" id="linearGradient-19">
            <stop stop-color="#8F6AFA" offset="0%"></stop>
            <stop stop-color="#375CDC" offset="44.7917%"></stop>
            <stop stop-color="#0099EE" offset="100%"></stop>
        </linearGradient>
        <linearGradient x1="-7.27750661%" y1="51.0671971%" x2="31.4304802%" y2="38.1117648%" id="linearGradient-20">
            <stop stop-color="#8F6AFA" offset="0%"></stop>
            <stop stop-color="#375CDC" offset="44.7917%"></stop>
            <stop stop-color="#0099EE" offset="100%"></stop>
        </linearGradient>
        <linearGradient x1="-7.27749414%" y1="51.0673324%" x2="31.4302554%" y2="38.1112782%" id="linearGradient-21">
            <stop stop-color="#8F6AFA" offset="0%"></stop>
            <stop stop-color="#375CDC" offset="44.7917%"></stop>
            <stop stop-color="#0099EE" offset="100%"></stop>
        </linearGradient>
        <linearGradient x1="-7.27306273%" y1="51.0705503%" x2="31.5006204%" y2="38.0934133%" id="linearGradient-22">
            <stop stop-color="#8F6AFA" offset="0%"></stop>
            <stop stop-color="#375CDC" offset="44.7917%"></stop>
            <stop stop-color="#0099EE" offset="100%"></stop>
        </linearGradient>
        <linearGradient x1="-7.27750627%" y1="51.0673237%" x2="31.430292%" y2="38.1137342%" id="linearGradient-23">
            <stop stop-color="#8F6AFA" offset="0%"></stop>
            <stop stop-color="#375CDC" offset="44.7917%"></stop>
            <stop stop-color="#0099EE" offset="100%"></stop>
        </linearGradient>
        <linearGradient x1="-7.27750699%" y1="51.067308%" x2="31.4303103%" y2="38.1113818%" id="linearGradient-24">
            <stop stop-color="#8F6AFA" offset="0%"></stop>
            <stop stop-color="#375CDC" offset="44.7917%"></stop>
            <stop stop-color="#0099EE" offset="100%"></stop>
        </linearGradient>
        <linearGradient x1="-7.27751137%" y1="51.0673326%" x2="31.4304857%" y2="38.1112801%" id="linearGradient-25">
            <stop stop-color="#8F6AFA" offset="0%"></stop>
            <stop stop-color="#375CDC" offset="44.7917%"></stop>
            <stop stop-color="#0099EE" offset="100%"></stop>
        </linearGradient>
        <linearGradient x1="-7.27752277%" y1="51.0671404%" x2="31.4302371%" y2="38.1117675%" id="linearGradient-26">
            <stop stop-color="#8F6AFA" offset="0%"></stop>
            <stop stop-color="#375CDC" offset="44.7917%"></stop>
            <stop stop-color="#0099EE" offset="100%"></stop>
        </linearGradient>
        <linearGradient x1="-7.27751889%" y1="51.0673514%" x2="31.4302737%" y2="38.1112154%" id="linearGradient-27">
            <stop stop-color="#8F6AFA" offset="0%"></stop>
            <stop stop-color="#375CDC" offset="44.7917%"></stop>
            <stop stop-color="#0099EE" offset="100%"></stop>
        </linearGradient>
        <linearGradient x1="-7.27306273%" y1="51.0705839%" x2="31.5006204%" y2="38.0934746%" id="linearGradient-28">
            <stop stop-color="#8F6AFA" offset="0%"></stop>
            <stop stop-color="#375CDC" offset="44.7917%"></stop>
            <stop stop-color="#0099EE" offset="100%"></stop>
        </linearGradient>
        <linearGradient x1="-7.27752277%" y1="51.0673327%" x2="31.4302371%" y2="38.1112783%" id="linearGradient-29">
            <stop stop-color="#8F6AFA" offset="0%"></stop>
            <stop stop-color="#375CDC" offset="44.7917%"></stop>
            <stop stop-color="#0099EE" offset="100%"></stop>
        </linearGradient>
        <linearGradient x1="-7.27751889%" y1="51.0673243%" x2="31.4302737%" y2="38.1137334%" id="linearGradient-30">
            <stop stop-color="#8F6AFA" offset="0%"></stop>
            <stop stop-color="#375CDC" offset="44.7917%"></stop>
            <stop stop-color="#0099EE" offset="100%"></stop>
        </linearGradient>
        <linearGradient x1="-7.27748831%" y1="51.0673016%" x2="31.4303103%" y2="38.1113083%" id="linearGradient-31">
            <stop stop-color="#8F6AFA" offset="0%"></stop>
            <stop stop-color="#375CDC" offset="44.7917%"></stop>
            <stop stop-color="#0099EE" offset="100%"></stop>
        </linearGradient>
        <linearGradient x1="-7.27752666%" y1="51.0673332%" x2="31.4304674%" y2="38.1112794%" id="linearGradient-32">
            <stop stop-color="#8F6AFA" offset="0%"></stop>
            <stop stop-color="#375CDC" offset="44.7917%"></stop>
            <stop stop-color="#0099EE" offset="100%"></stop>
        </linearGradient>
        <linearGradient x1="-7.27752277%" y1="51.0671964%" x2="31.4302371%" y2="38.1117731%" id="linearGradient-33">
            <stop stop-color="#8F6AFA" offset="0%"></stop>
            <stop stop-color="#375CDC" offset="44.7917%"></stop>
            <stop stop-color="#0099EE" offset="100%"></stop>
        </linearGradient>
        <linearGradient x1="-7.27751889%" y1="51.0673357%" x2="31.4302737%" y2="38.1112676%" id="linearGradient-34">
            <stop stop-color="#8F6AFA" offset="0%"></stop>
            <stop stop-color="#375CDC" offset="44.7917%"></stop>
            <stop stop-color="#0099EE" offset="100%"></stop>
        </linearGradient>
    </defs>
    <g id="waves" stroke="none" stroke-width="1" fill="none" fill-rule="evenodd">
        <path d="M1068.043,745.006386 C593.204,831.826386 5.384,756.726386 0,755.236386 L5.72,745.556386 C11.92,745.656386 589.679,820.136386 1052.823,735.446386 C1445.794,663.596386 1682.03,518.006386 1911.135,377.428386 C2299.098,137.483386 2664.138,-88.4036142 3745.228,34.6773858 L3741.028,45.3143858 C2679.248,-75.1286142 2318.178,147.564386 1936.528,383.888386 C1705.084,524.896386 1468.032,671.866386 1068.043,745.006386 Z" id="Path" fill="url(#linearGradient-1)" fill-rule="nonzero"></path>
        <path d="M1119.394,776.956386 C644.412,863.686386 56.281,788.556386 50.894,787.066386 L56.609,777.396386 C62.812,777.496386 640.878,851.996386 1104.16,767.396386 C1497.249,695.626386 1733.479,550.126386 1962.578,409.629386 C2350.528,169.830386 2715.568,-55.9186142 3797.208,67.2253858 L3793.018,77.8563858 C2729.168,-43.6026142 2369.628,179.909386 1985.648,416.516386 C1756.548,557.016386 1519.502,703.896386 1119.394,776.956386 Z" id="Path" fill="url(#linearGradient-2)" fill-rule="nonzero"></path>
        <g id="Group" opacity="0.8" transform="translate(101.543000, 64.424382)" fill="url(#linearGradient-3)" fill-rule="nonzero">
            <path d="M1068.499,744.412004 C593.518,831.142004 7.726,755.582004 0,754.522004 L5.715,744.852004 C11.918,744.952004 589.983,819.452004 1053.266,734.862004 C1446.354,663.082004 1682.584,517.582004 1911.685,377.092004 C2297.295,137.716004 2664.675,-88.4609963 3746.315,34.6830037 L3742.125,45.3150037 C2679.795,-75.1899963 2318.735,147.367004 1937.095,383.542004 C1707.177,525.422004 1468.607,671.352004 1068.499,744.412004 Z" id="Path" opacity="0.95"></path>
        </g>
        <g id="Group" opacity="0.6" transform="translate(152.191000, 96.268213)" fill="url(#linearGradient-4)" fill-rule="nonzero">
            <path d="M1068.5,744.448173 C593.518,831.178173 5.387,756.048173 -1.13686838e-13,754.568173 L5.715,744.888173 C11.918,744.988173 589.983,819.498173 1053.266,734.898173 C1446.354,663.118173 1682.584,517.618173 1911.687,377.128173 C2299.637,137.327173 2664.677,-88.4218274 3746.317,34.7221726 L3742.127,45.3541726 C2679.797,-75.1508274 2318.727,147.406173 1937.097,383.588173 C1707.178,525.468173 1468.608,671.388173 1068.5,744.448173 Z" id="Path" opacity="0.9"></path>
        </g>
        <g id="Group" opacity="0.5" transform="translate(204.247000, 129.036228)" fill="url(#linearGradient-5)" fill-rule="nonzero">
            <path d="M1068.5,744.450158 C593.518,831.180158 5.386,756.050158 -1.13686838e-13,754.570158 L5.715,744.890158 C11.918,744.990158 589.983,819.490158 1053.266,734.900158 C1446.354,663.120158 1682.584,517.620158 1911.681,377.130158 C2299.631,137.327158 2664.671,-88.4218422 3746.321,34.7221578 L3742.121,45.3541578 C2679.801,-75.1508422 2318.731,147.406158 1937.091,383.590158 C1705.654,524.510158 1468.607,671.390158 1068.5,744.450158 Z" id="Path" opacity="0.88"></path>
        </g>
        <g id="Group" opacity="0.4" transform="translate(254.895000, 160.957360)" fill="url(#linearGradient-6)" fill-rule="nonzero">
            <path d="M1068.5,744.409026 C593.5182,831.139026 5.387,756.009026 0,754.529026 L5.715,744.849026 C11.918,744.949026 589.9834,819.459026 1053.266,734.859026 C1446.355,663.079026 1682.583,517.579026 1911.683,377.089026 C2297.293,137.716026 2664.673,-88.4609742 3746.313,34.6830258 L3742.123,45.3150258 C2679.793,-75.1899742 2318.733,147.367026 1937.093,383.549026 C1705.653,524.469026 1468.608,671.349026 1068.5,744.409026 Z" id="Path" opacity="0.85"></path>
        </g>
        <g id="Group" opacity="0.3" transform="translate(305.543000, 192.801191)" fill="url(#linearGradient-7)" fill-rule="nonzero">
            <path d="M1068.5,744.445195 C593.5179,831.185195 5.386,756.045195 0,754.565195 L5.715,744.885195 C11.918,744.985195 589.9832,819.495195 1053.266,734.895195 C1446.354,663.115195 1682.585,517.625195 1911.685,377.125195 C2299.635,137.327195 2664.675,-88.4218053 3746.315,34.7221947 L3742.125,45.3531947 C2679.795,-75.1508053 2318.735,147.406195 1937.095,383.585195 C1707.175,525.465195 1468.608,671.385195 1068.5,744.445195 Z" id="Path" opacity="0.85"></path>
        </g>
        <path d="M1406.55,974.936386 C931.71048,1061.75639 343.89,986.656386 338.507,985.176386 L344.227,975.496386 C350.427,975.596386 928.18596,1050.06639 1391.33,965.386386 C1784.301,893.526386 2020.538,747.946386 2249.638,607.366386 C2637.598,367.416386 3002.648,141.529386 4083.728,264.610386 L4079.538,275.247386 C3017.758,154.805386 2656.678,377.498386 2275.038,613.826386 C2043.588,754.836386 1806.538,901.806386 1406.55,974.936386 Z" id="Path" fill="url(#linearGradient-8)" fill-rule="nonzero"></path>
        <path d="M1457.901,1006.88639 C982.9191,1093.61639 394.788,1018.48639 389.401,1017.00639 L395.116,1007.32639 C401.319,1007.42639 979.3844,1081.92639 1442.667,997.336386 C1835.756,925.556386 2071.988,780.056386 2301.088,639.566386 C2689.038,399.764386 3054.078,174.015386 4135.718,297.159386 L4131.528,307.790386 C3067.678,186.330386 2708.128,409.843386 2324.158,646.446386 C2095.058,786.946386 1858.009,933.826386 1457.901,1006.88639 Z" id="Path" fill="url(#linearGradient-9)" fill-rule="nonzero"></path>
        <g id="Group" opacity="0.8" transform="translate(440.050000, 294.358261)" fill="url(#linearGradient-10)" fill-rule="nonzero">
            <path d="M1068.499,744.408125 C593.518,831.138125 7.726,755.578125 0,754.528125 L5.715,744.848125 C11.918,744.948125 589.983,819.458125 1053.265,734.858125 C1446.354,663.078125 1682.588,517.588125 1911.688,377.088125 C2297.298,137.715125 2664.668,-88.4608755 3746.318,34.6831245 L3742.128,45.3151245 C2679.798,-75.1898755 2318.728,147.368125 1937.098,383.548125 C1707.178,525.428125 1468.607,671.348125 1068.499,744.408125 Z" id="Path" opacity="0.95"></path>
        </g>
        <g id="Group" opacity="0.6" transform="translate(490.698000, 326.201909)" fill="url(#linearGradient-11)" fill-rule="nonzero">
            <path d="M1068.5,744.444477 C593.518,831.184477 5.387,756.044477 5.68434189e-14,754.564477 L5.715,744.884477 C11.918,744.994477 589.983,819.494477 1053.266,734.894477 C1446.35,663.124477 1682.58,517.624477 1911.69,377.124477 C2299.63,137.324477 2664.67,-88.4215232 3746.32,34.7224768 L3742.13,45.3534768 C2679.8,-75.1505232 2318.73,147.404477 1937.09,383.584477 C1707.18,525.464477 1468.61,671.384477 1068.5,744.444477 Z" id="Path" opacity="0.9"></path>
        </g>
        <g id="Group" opacity="0.5" transform="translate(542.753000, 358.970107)" fill="url(#linearGradient-12)" fill-rule="nonzero">
            <path d="M1068.499,744.446279 C593.518,831.176279 5.386,756.046279 0,754.566279 L5.715,744.886279 C11.918,744.986279 589.983,819.496279 1053.266,734.896279 C1446.355,663.116279 1682.585,517.626279 1911.685,377.126279 C2299.635,137.326279 2664.675,-88.4217211 3746.315,34.7222789 L3742.125,45.3532789 C2679.795,-75.1507211 2318.735,147.406279 1937.095,383.586279 C1705.655,524.506279 1468.605,671.386279 1068.499,744.446279 Z" id="Path" opacity="0.88"></path>
        </g>
        <g id="Group" opacity="0.4" transform="translate(593.401000, 390.891239)" fill="url(#linearGradient-13)" fill-rule="nonzero">
            <path d="M1068.5,744.415147 C593.518,831.145147 5.387,756.005147 -1.13686838e-13,754.525147 L5.715,744.855147 C11.918,744.955147 589.983,819.455147 1053.266,734.855147 C1446.357,663.085147 1682.587,517.585147 1911.687,377.085147 C2297.297,137.715147 2664.677,-88.4608534 3746.317,34.6831466 L3742.127,45.3151466 C2679.797,-75.1898534 2318.727,147.365147 1937.097,383.545147 C1705.657,524.475147 1468.607,671.355147 1068.5,744.415147 Z" id="Path" opacity="0.85"></path>
        </g>
        <g id="Group" opacity="0.3" transform="translate(644.050000, 422.735005)" fill="url(#linearGradient-14)" fill-rule="nonzero">
            <path d="M1068.5,744.45138 C593.518,831.18138 5.386,756.05138 0,754.56138 L5.715,744.89138 C11.918,744.99138 589.983,819.49138 1053.266,734.90138 C1446.358,663.12138 1682.588,517.62138 1911.688,377.12138 C2299.638,137.33138 2664.668,-88.4216196 3746.318,34.7213804 L3742.128,45.3513804 C2679.798,-75.1506196 2318.728,147.40138 1937.098,383.58138 C1707.178,525.46138 1468.608,671.39138 1068.5,744.45138 Z" id="Path" opacity="0.85"></path>
        </g>
        <path d="M1792.892,1197.37639 C1318.052,1284.19639 730.232,1209.09639 724.849,1207.61639 L730.569,1197.92639 C736.769,1198.02639 1314.528,1272.50639 1777.672,1187.82639 C2170.638,1115.96639 2406.878,970.386386 2635.988,829.806386 C3023.938,589.856386 3388.988,363.969386 4470.068,487.046386 L4465.878,497.686386 C3404.098,377.244386 3043.028,599.936386 2661.378,836.266386 C2429.928,977.276386 2192.878,1124.24639 1792.892,1197.37639 Z" id="Path" fill="url(#linearGradient-15)" fill-rule="nonzero"></path>
        <path d="M1844.243,1229.32639 C1369.261,1316.05639 781.129,1240.92639 775.743,1239.44639 L781.458,1229.76639 C787.661,1229.86639 1365.726,1304.36639 1829.009,1219.77639 C2222.098,1147.99639 2458.328,1002.49639 2687.428,862.006386 C3075.378,622.206386 3440.418,396.454386 4522.058,519.596386 L4517.868,530.226386 C3454.018,408.770386 3094.478,632.286386 2710.498,868.886386 C2481.398,1009.38639 2244.348,1156.26639 1844.243,1229.32639 Z" id="Path" fill="url(#linearGradient-16)" fill-rule="nonzero"></path>
        <g id="Group" opacity="0.8" transform="translate(826.391400, 516.795922)" fill="url(#linearGradient-17)" fill-rule="nonzero">
            <path d="M1068.4996,744.410464 C593.5176,831.140464 7.7264,755.580464 -2.84217094e-14,754.530464 L5.715,744.850464 C11.918,744.950464 589.9836,819.460464 1053.2656,734.860464 C1446.3566,663.080464 1682.5866,517.580464 1911.6866,377.090464 C2297.2966,137.720464 2664.6766,-88.458536 3746.3166,34.680464 L3742.1266,45.320464 C2679.7966,-75.189536 2318.7266,147.370464 1937.0966,383.550464 C1707.1766,525.430464 1468.6066,671.350464 1068.4996,744.410464 Z" id="Path" opacity="0.95"></path>
        </g>
        <g id="Group" opacity="0.6" transform="translate(877.039700, 548.641439)" fill="url(#linearGradient-18)" fill-rule="nonzero">
            <path d="M1068.4983,744.444947 C593.5183,831.184947 5.3866,756.044947 -9.23705556e-14,754.564947 L5.7151,744.884947 C11.9181,744.984947 589.9833,819.494947 1053.2683,734.894947 C1446.3583,663.124947 1682.5883,517.624947 1911.6883,377.124947 C2299.6383,137.324947 2664.6683,-88.4250528 3746.3183,34.7249472 L3742.1283,45.3549472 C2679.7983,-75.1550528 2318.7283,147.404947 1937.0983,383.584947 C1707.1783,525.464947 1468.6083,671.384947 1068.4983,744.444947 Z" id="Path" opacity="0.9"></path>
        </g>
        <g id="Group" opacity="0.5" transform="translate(929.095400, 581.411439)" fill="url(#linearGradient-19)" fill-rule="nonzero">
            <path d="M1068.5026,744.444947 C593.5176,831.174947 5.3866,756.044947 2.04281037e-14,754.564947 L5.715,744.884947 C11.918,744.984947 589.9836,819.494947 1053.2626,734.894947 C1446.3526,663.114947 1682.5826,517.624947 1911.6826,377.124947 C2299.6326,137.324947 2664.6726,-88.4250528 3746.3126,34.7249472 L3742.1226,45.3549472 C2679.7926,-75.1550528 2318.7326,147.404947 1937.0926,383.584947 C1705.6526,524.504947 1468.6126,671.384947 1068.5026,744.444947 Z" id="Path" opacity="0.88"></path>
        </g>
        <g id="Group" opacity="0.4" transform="translate(979.743300, 613.330770)" fill="url(#linearGradient-20)" fill-rule="nonzero">
            <path d="M1068.5047,744.405615 C593.5177,831.145615 5.3866,756.005615 8.52651283e-14,754.525615 L5.7151,744.845615 C11.9181,744.955615 589.9837,819.455615 1053.2647,734.855615 C1446.3547,663.085615 1682.5847,517.585615 1911.6847,377.085615 C2297.2947,137.715615 2664.6747,-88.4643847 3746.3147,34.6856153 L3742.1247,45.3156153 C2679.7947,-75.1943847 2318.7347,147.365615 1937.0947,383.545615 C1705.6547,524.465615 1468.6047,671.355615 1068.5047,744.405615 Z" id="Path" opacity="0.85"></path>
        </g>
        <g id="Group" opacity="0.3" transform="translate(1030.391000, 645.176142)" fill="url(#linearGradient-21)" fill-rule="nonzero">
            <path d="M1068.497,744.450244 C593.519,831.180244 5.387,756.050244 9.9475983e-14,754.560244 L5.715,744.890244 C11.918,744.990244 589.984,819.490244 1053.267,734.900244 C1446.357,663.120244 1682.587,517.620244 1911.687,377.120244 C2299.637,137.330244 2664.677,-88.4197559 3746.317,34.7202441 L3742.127,45.3502441 C2679.797,-75.1497559 2318.727,147.400244 1937.097,383.580244 C1707.177,525.460244 1468.607,671.390244 1068.497,744.450244 Z" id="Path" opacity="0.85"></path>
        </g>
        <path d="M2154.708,1429.99639 C1679.87,1516.81639 1092.05,1441.71639 1086.667,1440.22639 L1092.387,1430.54639 C1098.587,1430.64639 1676.346,1505.12639 2139.488,1420.44639 C2532.458,1348.58639 2768.698,1203.00639 2997.808,1062.42639 C3385.758,822.476386 3750.808,596.586386 4831.898,719.666386 L4827.698,730.306386 C3765.918,609.866386 3404.848,832.556386 3023.198,1068.87639 C2791.748,1209.88639 2554.698,1356.85639 2154.708,1429.99639 Z" id="Path" fill="url(#linearGradient-22)" fill-rule="nonzero"></path>
        <path d="M2206.058,1461.94639 C1731.079,1548.67639 1142.948,1473.54639 1137.561,1472.05639 L1143.276,1462.38639 C1149.479,1462.48639 1727.545,1536.98639 2190.828,1452.39639 C2583.918,1380.61639 2820.148,1235.11639 3049.248,1094.61639 C3437.198,854.826386 3802.238,629.076386 4883.878,752.216386 L4879.688,762.846386 C3815.838,641.386386 3456.288,864.896386 3072.318,1101.50639 C2843.218,1242.00639 2606.168,1388.88639 2206.058,1461.94639 Z" id="Path" fill="url(#linearGradient-21)" fill-rule="nonzero"></path>
        <g id="Group" opacity="0.8" transform="translate(1188.209000, 749.415543)" fill="url(#linearGradient-23)" fill-rule="nonzero">
            <path d="M1068.499,744.410843 C593.518,831.140843 7.727,755.580843 -1.13686838e-13,754.530843 L5.715,744.850843 C11.918,744.950843 589.983,819.450843 1053.269,734.860843 C1446.359,663.080843 1682.589,517.580843 1911.689,377.090843 C2297.289,137.720843 2664.669,-88.4591574 3746.319,34.6808426 L3742.129,45.3108426 C2679.799,-75.1891574 2318.729,147.370843 1937.099,383.550843 C1707.179,525.430843 1468.609,671.350843 1068.499,744.410843 Z" id="Path" opacity="0.95"></path>
        </g>
        <g id="Group" opacity="0.6" transform="translate(1238.858000, 781.261439)" fill="url(#linearGradient-24)" fill-rule="nonzero">
            <path d="M1068.5,744.444947 C593.518,831.174947 5.387,756.044947 0,754.564947 L5.715,744.884947 C11.918,744.984947 589.983,819.494947 1053.27,734.894947 C1446.35,663.114947 1682.58,517.624947 1911.69,377.124947 C2299.63,137.324947 2664.67,-88.4250528 3746.32,34.7249472 L3742.13,45.3549472 C2679.8,-75.1550528 2318.73,147.404947 1937.1,383.584947 C1707.18,525.464947 1468.61,671.384947 1068.5,744.444947 Z" id="Path" opacity="0.9"></path>
        </g>
        <g id="Group" opacity="0.5" transform="translate(1290.913000, 814.026215)" fill="url(#linearGradient-25)" fill-rule="nonzero">
            <path d="M1068.505,744.45017 C593.518,831.18017 5.387,756.05017 1.70530257e-13,754.57017 L5.715,744.89017 C11.918,744.99017 589.984,819.50017 1053.265,734.90017 C1446.355,663.12017 1682.585,517.62017 1911.685,377.13017 C2299.635,137.33017 2664.675,-88.4198297 3746.315,34.7201703 L3742.125,45.3601703 C2679.795,-75.1498297 2318.735,147.41017 1937.095,383.59017 C1705.655,524.51017 1468.605,671.39017 1068.505,744.45017 Z" id="Path" opacity="0.88"></path>
        </g>
        <g id="Group" opacity="0.4" transform="translate(1341.562000, 845.950770)" fill="url(#linearGradient-26)" fill-rule="nonzero">
            <path d="M1068.496,744.405615 C593.516,831.145615 5.386,756.005615 2.84217094e-13,754.525615 L5.715,744.845615 C11.918,744.945615 589.986,819.455615 1053.266,734.855615 C1446.356,663.075615 1682.586,517.585615 1911.686,377.085615 C2297.296,137.715615 2664.676,-88.4643847 3746.316,34.6856153 L3742.126,45.3156153 C2679.796,-75.1943847 2318.726,147.365615 1937.096,383.545615 C1705.656,524.465615 1468.606,671.345615 1068.496,744.405615 Z" id="Path" opacity="0.85"></path>
        </g>
        <g id="Group" opacity="0.3" transform="translate(1392.210000, 877.791439)" fill="url(#linearGradient-27)" fill-rule="nonzero">
            <path d="M1068.498,744.454947 C593.518,831.184947 5.386,756.054947 1.13686838e-13,754.564947 L5.715,744.894947 C11.918,744.994947 589.988,819.494947 1053.268,734.894947 C1446.358,663.124947 1682.588,517.624947 1911.688,377.124947 C2299.638,137.324947 2664.668,-88.4250528 3746.318,34.7249472 L3742.128,45.3549472 C2679.798,-75.1450528 2318.728,147.404947 1937.098,383.584947 C1707.178,525.464947 1468.608,671.394947 1068.498,744.454947 Z" id="Path" opacity="0.85"></path>
        </g>
        <path d="M2605.468,1609.86639 C2130.628,1696.68639 1542.81,1621.58639 1537.427,1620.10639 L1543.147,1610.41639 C1549.347,1610.51639 2127.108,1684.99639 2590.248,1600.31639 C2983.218,1528.45639 3219.458,1382.87639 3448.568,1242.29639 C3836.528,1002.34639 4201.568,776.456386 5282.658,899.546386 L5278.458,910.176386 C4216.678,789.736386 3855.608,1012.42639 3473.958,1248.75639 C3242.508,1389.76639 3005.458,1536.73639 2605.468,1609.86639 Z" id="Path" fill="url(#linearGradient-28)" fill-rule="nonzero"></path>
        <path d="M2656.818,1641.81639 C2181.838,1728.54639 1593.708,1653.41639 1588.322,1651.92639 L1594.037,1642.25639 C1600.24,1642.35639 2178.308,1716.85639 2641.588,1632.26639 C3034.678,1560.48639 3270.908,1414.98639 3500.008,1274.49639 C3887.958,1034.69639 4252.998,808.946386 5334.638,932.086386 L5330.448,942.716386 C4266.598,821.256386 3907.048,1044.77639 3523.078,1281.37639 C3293.978,1421.87639 3056.928,1568.75639 2656.818,1641.81639 Z" id="Path" fill="url(#linearGradient-29)" fill-rule="nonzero"></path>
        <g id="Group" opacity="0.8" transform="translate(1638.970000, 929.285543)" fill="url(#linearGradient-30)" fill-rule="nonzero">
            <path d="M1068.498,744.410843 C593.518,831.140843 7.726,755.580843 -1.13686838e-13,754.530843 L5.715,744.850843 C11.918,744.950843 589.978,819.460843 1053.268,734.860843 C1446.358,663.080843 1682.588,517.580843 1911.688,377.090843 C2297.298,137.720843 2664.668,-88.4591574 3746.318,34.6808426 L3742.128,45.3208426 C2679.798,-75.1891574 2318.728,147.370843 1937.098,383.550843 C1707.178,525.430843 1468.608,671.350843 1068.498,744.410843 Z" id="Path" opacity="0.95"></path>
        </g>
        <g id="Group" opacity="0.6" transform="translate(1689.618000, 961.131439)" fill="url(#linearGradient-31)" fill-rule="nonzero">
            <path d="M1068.5,744.444947 C593.52,831.184947 5.387,756.044947 -2.27373675e-13,754.564947 L5.715,744.884947 C11.918,744.984947 589.98,819.494947 1053.27,734.894947 C1446.35,663.114947 1682.58,517.624947 1911.69,377.124947 C2299.63,137.324947 2664.67,-88.4250528 3746.32,34.7249472 L3742.13,45.3549472 C2679.8,-75.1550528 2318.73,147.404947 1937.1,383.584947 C1707.18,525.464947 1468.61,671.384947 1068.5,744.444947 Z" id="Path" opacity="0.9"></path>
        </g>
        <g id="Group" opacity="0.5" transform="translate(1741.674000, 993.896215)" fill="url(#linearGradient-32)" fill-rule="nonzero">
            <path d="M1068.504,744.45017 C593.514,831.18017 5.386,756.05017 2.27373675e-13,754.57017 L5.715,744.89017 C11.918,744.99017 589.984,819.50017 1053.264,734.90017 C1446.354,663.12017 1682.584,517.62017 1911.684,377.13017 C2299.634,137.33017 2664.674,-88.4198297 3746.314,34.7201703 L3742.124,45.3601703 C2679.794,-75.1498297 2318.734,147.41017 1937.094,383.59017 C1705.654,524.51017 1468.604,671.39017 1068.504,744.45017 Z" id="Path" opacity="0.88"></path>
        </g>
        <g id="Group" opacity="0.4" transform="translate(1792.322000, 1025.820770)" fill="url(#linearGradient-33)" fill-rule="nonzero">
            <path d="M1068.496,744.405615 C593.516,831.145615 5.387,756.005615 1.13686838e-13,754.525615 L5.715,744.845615 C11.918,744.945615 589.986,819.455615 1053.266,734.855615 C1446.356,663.085615 1682.586,517.585615 1911.686,377.085615 C2297.296,137.715615 2664.676,-88.4643847 3746.316,34.6856153 L3742.126,45.3156153 C2679.796,-75.1943847 2318.736,147.365615 1937.096,383.545615 C1705.656,524.465615 1468.606,671.345615 1068.496,744.405615 Z" id="Path" opacity="0.85"></path>
        </g>
        <g id="Group" opacity="0.3" transform="translate(1842.970000, 1057.665226)" fill="url(#linearGradient-34)" fill-rule="nonzero">
            <path d="M1068.498,744.45116 C593.518,831.18116 5.386,756.05116 -1.13686838e-13,754.56116 L5.715,744.89116 C11.918,744.99116 589.978,819.49116 1053.268,734.90116 C1446.358,663.12116 1682.588,517.62116 1911.688,377.12116 C2299.638,137.32116 2664.668,-88.4188404 3746.318,34.7211596 L3742.128,45.3511596 C2679.798,-75.1488404 2318.728,147.40116 1937.098,383.58116 C1707.178,525.46116 1468.608,671.39116 1068.498,744.45116 Z" id="Path" opacity="0.85"></path>
        </g>
    </g>
</svg>