<svg width="178" height="114" viewBox="0 0 178 114" fill="none" xmlns="http://www.w3.org/2000/svg">
<path d="M177.489 102.138V102.157C177.423 102.241 177.331 102.304 177.224 102.336L177.159 102.355L177.102 102.39L159.583 113.203L159.563 113.215L159.545 113.229C159.385 113.35 159.197 113.429 158.996 113.459C158.803 113.488 158.606 113.47 158.422 113.408L151.046 109.905L118.641 94.5194L98.8052 85.1004L98.5598 84.9839L98.3285 85.1263L84.6357 93.5609L84.6356 93.561L75.5739 99.1383C75.4641 99.2059 75.2099 99.2956 74.9694 99.3106C74.8524 99.3179 74.7772 99.3048 74.7405 99.291C74.7404 99.291 74.7404 99.291 74.7403 99.291L74.7183 99.2376L74.6635 99.1753L66.8356 90.2711L66.8355 90.271L39.6143 59.2821L39.2387 59.6121L39.6143 59.2821L36.0514 55.2262L36.0311 55.203L36.008 55.1825C35.8453 55.0378 35.6992 54.8764 35.5723 54.7013C35.4888 54.3057 35.4756 53.8987 35.5333 53.4983L35.5384 53.4628V53.427V36.7365C35.5889 36.6978 35.6849 36.6494 35.8288 36.6052C36.1112 36.5185 36.4291 36.4917 36.5637 36.4985C36.6213 36.507 36.6912 36.5161 36.7656 36.5198V36.5198L36.7668 36.5199C39.3785 36.6461 41.9836 36.9093 44.5982 37.1734C45.9255 37.3075 47.2553 37.4419 48.5897 37.5587C48.5898 37.5587 48.5899 37.5587 48.59 37.5587L73.0272 39.7114L73.0272 39.7114L101.288 42.1987L124.548 44.2458L133.356 45.0207L133.462 45.0301L133.562 44.9955C133.743 44.9333 133.941 44.8992 134.086 44.9089C134.133 44.912 134.162 44.9179 134.18 44.9232L134.181 44.9394C134.182 44.9559 134.184 44.9711 134.186 44.9847V61.3303V61.3554L134.189 61.3803C134.238 61.8662 134.236 62.3556 134.184 62.841C134.161 62.9556 134.104 63.0621 134.018 63.1469C133.205 63.7333 132.348 64.2598 131.455 64.722L131.439 64.7306L131.423 64.7403L124.778 68.8343L124.778 68.8344L116.53 73.9147L115.745 74.398L116.578 74.7923L139.158 85.4815L139.372 85.0295L139.158 85.4815L158.931 94.8398L159.178 94.9569L159.41 94.8116C159.884 94.5149 160.36 94.2271 160.839 93.9372C161.108 93.7743 161.378 93.6107 161.65 93.4445L161.65 93.4444L176.667 84.2524L176.668 84.2513C176.718 84.2206 176.822 84.1734 176.959 84.1338C177.095 84.0949 177.234 84.0716 177.351 84.0705C177.418 84.0698 177.462 84.0764 177.489 84.0826V102.138ZM134.186 44.9356V44.939V44.9356Z" fill="white" stroke="black"/>
<path d="M114.609 56.8089L133.715 45.0268L36.002 36.4268L75.2774 81.0629L98.7663 66.6535L159.034 95.1787L177.02 84.1687L114.609 56.8089Z" fill="url(#paint0_linear)"/>
<path d="M115.357 56.8742L132.084 46.5589L134.463 45.0911C134.784 44.8954 134.698 44.6342 134.329 44.6019L124.591 43.7447L101.332 41.6987L73.0712 39.2113L48.6338 37.0586C44.7019 36.7142 40.738 36.1966 36.7901 36.0185C36.7323 36.0155 36.6744 36.0077 36.6166 36.0009C36.3692 35.9813 34.6835 36.2944 35.1014 36.7631L48.3326 51.8036L69.5223 75.8864L74.3729 81.4032C74.6961 81.7701 75.7235 81.3181 76.0257 81.1321L96.5661 68.5271L99.5146 66.7189L97.9825 67.0467L108.124 71.8472L130.021 82.2114L150.884 92.0855L156.929 94.9466C158.142 95.521 158.761 95.8625 160.095 95.0532C165.825 91.5727 171.531 88.0521 177.251 84.552L177.769 84.234C177.995 84.096 178.069 83.8905 177.806 83.7751L156.66 74.5067L123.105 59.796L115.396 56.4153C114.941 56.2196 113.183 56.9192 113.827 57.1981L134.973 66.4664L168.53 81.1772L176.241 84.5579L176.277 84.0989L158.286 95.1129L159.818 94.7851L148.348 89.3574L124.437 78.0391L103.748 68.2473C102.428 67.5004 101.054 66.8502 99.6363 66.302C99.2911 66.2391 98.936 66.251 98.596 66.3371C98.256 66.4231 97.9394 66.5812 97.6683 66.8001C96.625 67.4381 95.5823 68.078 94.5403 68.7199L74.9993 80.7104L74.5325 80.9971L76.1843 80.727L62.9472 65.6865L41.7574 41.6037L36.9058 36.0909L35.3877 36.8502L45.1248 37.7074L68.3842 39.7544L96.6439 42.2417L121.081 44.3944L129.103 45.0999L131.623 45.322C132.049 45.4282 132.489 45.4669 132.927 45.4365C132.985 45.4328 133.044 45.438 133.101 45.4522L132.967 44.9629L116.24 55.2773L113.861 56.745C113.48 56.9799 113.707 57.1364 113.995 57.2343C114.478 57.2791 114.962 57.1513 115.357 56.8742V56.8742Z" fill="black"/>
<path d="M30.5864 29.8904C30.1356 30.3096 18.9921 19.442 18.8172 19.2619C18.6422 19.0818 8.24233 7.53709 8.69711 7.11687C9.15189 6.69665 20.2804 17.5574 20.4544 17.7385C20.6283 17.9196 31.0412 29.4692 30.5864 29.8904Z" fill="black"/>
<path d="M23.9169 43.9142C23.757 44.5047 11.8568 41.8909 11.6669 41.8417C11.477 41.7924 -0.156329 38.2221 0.00159337 37.6326C0.159516 37.0431 12.0537 39.652 12.2446 39.6992C12.4355 39.7465 24.0778 43.3228 23.9169 43.9142Z" fill="black"/>
<path d="M39.3918 0.000895224C39.9985 -0.123104 43.2019 12.6754 43.2459 12.883C43.2899 13.0907 45.5048 26.082 44.8971 26.206C44.2894 26.33 41.087 13.5404 41.044 13.3318C41.001 13.1231 38.7831 0.125878 39.3918 0.000895224Z" fill="black"/>
<defs>
<linearGradient id="paint0_linear" x1="36.002" y1="36.4268" x2="184.071" y2="36.4268" gradientUnits="userSpaceOnUse">
<stop offset="0.177083" stop-color="#8F6AFA"/>
<stop offset="0.651042" stop-color="#375CDC"/>
<stop offset="1" stop-color="#0099EE"/>
</linearGradient>
</defs>
</svg>
