<svg width="173" height="247" viewBox="0 0 173 247" fill="none" xmlns="http://www.w3.org/2000/svg">
<path d="M106.396 68.6463C100.049 48.3311 92.5713 27.7836 83.3159 5.19424C82.6552 3.62108 81.4773 2.3211 79.9776 1.50971C78.4778 0.698314 76.7461 0.424207 75.0694 0.732807C68.3446 2.01291 49.5519 5.84427 37.5337 9.15719C36.9026 9.33167 36.3179 9.64398 35.8218 10.0717C35.3256 10.4994 34.9304 11.0318 34.6644 11.6307C34.3984 12.2296 34.2683 12.88 34.2834 13.5353C34.2986 14.1905 34.4586 14.8342 34.752 15.4202C46.9415 39.822 57.913 61.513 62.8569 77.5493L106.396 68.6463Z" fill="white"/>
<path d="M107.358 68.3918C103.035 54.5672 98.2925 40.8874 93.1308 27.3526C90.4025 20.1505 87.5777 12.985 84.6562 5.85596C83.5806 3.22496 81.9432 1.15824 79.1157 0.316801C76.9405 -0.331228 74.844 0.148314 72.6888 0.572025C61.8358 2.70255 50.9928 4.99857 40.2862 7.78709C37.9139 8.40521 35.2875 8.82693 33.9599 11.1459C32.3066 14.0371 34.3742 16.8475 35.663 19.4267C39.0632 26.231 42.4644 33.0343 45.7879 39.8785C51.7726 52.1951 57.8301 64.6931 61.8946 77.8072C62.034 78.2578 62.6654 78.212 63.015 78.1402L77.7124 75.1353L101.152 70.3409L106.554 69.2362C107.749 68.992 107.42 67.8136 106.238 68.0548L91.5403 71.0607L68.1004 75.8541L62.6983 76.9588L63.8188 77.2918C60.4454 66.4079 55.6369 55.9776 50.7607 45.7038C47.7729 39.4049 44.6854 33.152 41.579 26.9099C39.923 23.5821 38.2631 20.2562 36.5992 16.9323C35.9548 15.6432 35.1172 14.3621 35.2776 12.8597C35.3373 12.1632 35.597 11.4989 36.0254 10.9468C36.4537 10.3947 37.0324 9.97844 37.6918 9.74813C40.2086 8.88575 42.9106 8.36832 45.4931 7.74023C48.2632 7.06628 51.0399 6.41792 53.8233 5.79514C58.9983 4.63068 64.1859 3.52405 69.3862 2.47524C71.2108 2.10636 73.0344 1.71056 74.8639 1.39153C76.234 1.14309 77.6472 1.32143 78.9128 1.90245C80.1784 2.48348 81.2354 3.43922 81.9412 4.64065C82.7597 6.23212 83.4588 7.88234 84.0327 9.57764C84.7631 11.3875 85.4898 13.1993 86.2129 15.0131C87.5634 18.4128 88.8937 21.8204 90.2037 25.236C95.7203 39.6343 100.83 54.187 105.433 68.9033C105.685 69.7048 107.605 69.1774 107.358 68.3918Z" fill="black"/>
<path d="M120.284 68.3921C121.102 68.2659 121.882 67.9633 122.572 67.5053C123.261 67.0473 123.843 66.4449 124.277 65.7397C124.711 65.0344 124.986 64.2432 125.085 63.4208C125.183 62.5984 125.102 61.7645 124.846 60.9766C119.178 43.4679 112.59 25.6321 104.641 6.2321C104.004 4.71641 102.869 3.46398 101.424 2.68219C99.9789 1.90039 98.3103 1.63614 96.6946 1.93317C91.582 2.90687 86.4784 3.90717 81.3837 4.93404C80.5423 5.10481 79.7503 5.46364 79.0668 5.98374C78.3833 6.50385 77.8261 7.17179 77.4366 7.9377C77.0471 8.7036 76.8356 9.54768 76.8176 10.4069C76.7997 11.2661 76.976 12.1183 77.3332 12.8998C85.0309 29.7745 92.9369 52.0418 97.7324 67.0113C98.1487 68.3044 99.0123 69.4064 100.168 70.1191C101.323 70.8319 102.695 71.1086 104.036 70.8995L120.284 68.3921Z" fill="white"/>
<path d="M120.439 68.9671C121.786 68.7495 123.037 68.1307 124.029 67.1912C125.02 66.2518 125.705 65.0352 125.996 63.7001C126.164 62.1915 125.937 60.665 125.338 59.2706C124.75 57.4701 124.155 55.6719 123.552 53.876C121.054 46.4379 118.432 39.0434 115.684 31.6924C112.754 23.8357 109.705 16.0241 106.536 8.25769C106.032 6.63024 105.243 5.10589 104.204 3.75638C103.258 2.73212 102.06 1.97383 100.731 1.55707C99.3711 1.1501 97.9327 1.08165 96.5407 1.35767C94.3804 1.74549 92.2272 2.18316 90.0729 2.60388C87.9993 3.00865 85.9271 3.41774 83.8562 3.83115C82.1926 4.01561 80.5722 4.48044 79.0636 5.20597C77.9227 5.8646 77.0124 6.85939 76.4569 8.05474C75.9013 9.25009 75.7276 10.5878 75.9592 11.8857C76.4191 13.4542 77.0448 14.9692 77.8256 16.4049C78.5401 18.0253 79.2402 19.6514 79.9261 21.2831C81.3802 24.7339 82.7865 28.2041 84.145 31.6934C86.8394 38.5838 89.399 45.5237 91.8238 52.5131C92.942 55.7201 94.0355 58.9359 95.1045 62.1608C95.962 64.7529 96.452 68.1825 98.6113 70.0369C101.428 72.4565 105.119 71.3409 108.396 70.8344L119.424 69.1306L120.176 69.015C121.166 68.8614 121.709 67.5664 120.391 67.7697C114.995 68.6032 109.602 69.5852 104.186 70.2731C101.283 70.642 99.3274 68.7179 98.4908 66.1198C97.611 63.3861 96.7107 60.661 95.7897 57.9446C93.6903 51.7348 91.4971 45.5579 89.2104 39.414C86.8291 33.0234 84.3442 26.6697 81.6889 20.3878C81.1053 19.008 80.5127 17.6319 79.9112 16.2594C79.1419 14.7907 78.4885 13.264 77.9571 11.6932C77.7738 11.0125 77.7354 10.3007 77.8443 9.60414C77.9533 8.90755 78.2072 8.24163 78.5896 7.64952C78.972 7.05741 79.4744 6.55231 80.0643 6.16692C80.6541 5.78153 81.3182 5.52446 82.0136 5.41235C85.8311 4.61477 89.6636 3.88798 93.493 3.15022C95.1036 2.67706 96.7767 2.45216 98.4549 2.48325C100.101 2.7035 101.603 3.53866 102.659 4.82114C103.59 6.17346 104.311 7.65963 104.796 9.22874C105.593 11.1815 106.38 13.1372 107.157 15.0959C108.562 18.6232 109.944 22.1598 111.302 25.7056C114.227 33.3438 117.029 41.0274 119.708 48.7566C120.998 52.4912 122.255 56.2371 123.48 59.9944C124.008 61.6115 124.452 63.1468 123.802 64.8137C123.506 65.5926 123.012 66.28 122.367 66.8073C121.723 67.3347 120.951 67.6834 120.13 67.8186C118.929 68.0419 119.259 69.1894 120.439 68.9671Z" fill="black"/>
<path d="M63.7299 221.526C97.0348 212.999 130.668 205.85 160.499 202.593C162.276 202.406 163.995 201.853 165.549 200.971C167.102 200.088 168.458 198.894 169.529 197.463C170.601 196.032 171.367 194.396 171.778 192.655C172.189 190.915 172.238 189.108 171.92 187.349C160.701 126.088 144.182 82.3967 121.183 24.4249C120.535 22.8154 119.352 21.4791 117.834 20.6418C116.316 19.8046 114.556 19.5178 112.851 19.8299C78.6494 25.9313 48.2517 25.0141 14.8423 34.4853C12.3982 35.1782 7.13059 40.2817 2.8908 44.9046C1.87909 46.0056 1.22919 47.3908 1.02883 48.8732C0.828466 50.3557 1.08728 51.8639 1.77034 53.1944C20.7583 90.0733 42.9263 151.899 54.6607 215.689C54.8392 216.686 55.2211 217.636 55.7827 218.478C56.3442 219.321 57.0734 220.039 57.9245 220.586C58.7757 221.134 59.7305 221.5 60.7294 221.662C61.7283 221.823 62.7497 221.777 63.7299 221.526Z" fill="black"/>
<path d="M63.847 221.96C85.8995 216.318 108.113 211.217 130.549 207.343C135.843 206.43 141.149 205.593 146.469 204.831C149.018 204.469 151.569 204.129 154.124 203.81C156.537 203.511 159.004 203.365 161.394 202.925C165.147 202.262 168.491 200.153 170.708 197.05C173.127 193.573 173.371 189.735 172.622 185.685C168.859 165.373 164.117 145.278 158.396 125.401C152.927 106.511 146.544 87.9014 139.692 69.4714C136.098 59.8008 132.382 50.1721 128.616 40.5653C126.616 35.4601 124.603 30.3596 122.579 25.2638C121.974 23.3007 120.721 21.6013 119.026 20.4435C117.427 19.4701 115.553 19.0477 113.692 19.2411C110.996 19.4983 108.295 20.1434 105.616 20.5551C102.885 20.9739 100.151 21.3617 97.4138 21.7186C91.9828 22.4304 86.5399 23.0366 81.093 23.6058C70.489 24.7185 59.8652 25.6895 49.3 27.1172C38.431 28.5094 27.6639 30.6074 17.0668 33.3981C15.3309 33.7569 13.672 34.4201 12.1667 35.3571C10.4979 36.548 8.92631 37.8699 7.46677 39.3101C5.67903 41.0049 3.95104 42.7776 2.28779 44.594C0.856888 46.0523 0.0382483 48.0038 7.20905e-05 50.0475C-0.0098875 52.1411 1.01396 53.8459 1.92924 55.6584C2.79374 57.3679 3.64462 59.0866 4.48189 60.8147C6.21485 64.3952 7.89238 68.0015 9.51447 71.6338C13.173 79.8003 16.609 88.0619 19.8226 96.4185C27.1848 115.424 33.6067 134.802 39.201 154.396C42.2407 165.044 45.0237 175.762 47.5501 186.547C48.8117 191.954 50.0068 197.376 51.1356 202.814C51.7159 205.62 52.2766 208.431 52.8178 211.245C53.2659 213.574 53.3894 216.269 54.5965 218.359C56.4988 221.649 60.2864 222.78 63.851 221.956C65.0093 221.688 64.7722 220.811 63.6159 221.078C62.5836 221.296 61.5139 221.257 60.4997 220.967C59.4854 220.677 58.5572 220.143 57.7956 219.413C56.0028 217.743 55.6642 215.611 55.233 213.313C54.237 207.996 53.1683 202.691 52.027 197.397C49.7602 186.853 47.2371 176.367 44.4577 165.941C39.2428 146.37 33.1804 127.047 26.2705 107.971C20.4989 91.8581 13.9172 76.0473 6.55049 60.5994C5.7597 58.9604 4.95596 57.3273 4.13928 55.7003C3.29172 54.0204 2.19118 52.3405 1.97008 50.4462C1.67129 47.906 2.8266 45.92 4.49384 44.1304C6.17502 42.3219 7.90898 40.5543 9.72362 38.8814C11.0834 37.5285 12.5861 36.3277 14.2054 35.3003C15.0375 34.8875 15.9202 34.5858 16.8308 34.403C18.1454 34.0441 19.4638 33.6985 20.7857 33.3662C26.0802 32.0352 31.4265 30.9186 36.8037 29.9765C57.3135 26.3754 78.146 25.2778 98.7633 22.4922C101.43 22.1313 104.094 21.7418 106.753 21.3238C108.101 21.1104 109.449 20.8884 110.794 20.6578C111.989 20.3597 113.219 20.2255 114.45 20.259C119.789 20.8084 121.008 26.6626 122.649 30.8129C126.398 40.2941 130.098 49.7942 133.75 59.3133C140.578 77.2288 147.071 95.2769 152.773 113.587C158.562 132.193 163.478 151.037 167.521 170.121C168.601 175.239 169.619 180.37 170.576 185.514C171.115 187.656 171.253 189.88 170.982 192.073C170.638 194.025 169.84 195.87 168.652 197.456C167.464 199.053 165.897 200.328 164.094 201.167C162.061 202.097 159.837 202.187 157.65 202.442C152.68 203.022 147.72 203.687 142.77 204.436C121.433 207.642 100.295 212.123 79.3272 217.179C74.0818 218.442 68.8454 219.745 63.6179 221.087C62.4636 221.377 62.6917 222.256 63.847 221.96Z" fill="black"/>
<path d="M32.0088 29.9191C58.8319 86.5608 76.568 146.4 88.6041 208.284C115.68 201.715 140.23 196.934 164.994 194.661C166.007 194.576 166.991 194.283 167.885 193.799C168.779 193.315 169.563 192.652 170.189 191.85C170.814 191.048 171.267 190.126 171.519 189.14C171.771 188.155 171.817 187.128 171.654 186.124C160.828 121.557 149.289 76.0139 125.523 16.107C124.88 14.5266 123.717 13.2135 122.226 12.3853C120.735 11.557 119.007 11.2634 117.327 11.5529C88.5782 16.6943 60.1894 22.5953 32.0088 29.9191Z" fill="#ACACAC"/>
<path d="M31.0463 30.176C41.4476 52.2263 50.6156 74.8385 58.5079 97.9081C66.4277 120.974 73.1485 144.445 78.8693 168.152C82.0995 181.546 85.0246 195.01 87.6446 208.542C87.7333 208.998 88.4573 208.962 88.7681 208.888C113.405 202.917 138.307 197.848 163.565 195.436C165.955 195.207 168.128 194.782 169.986 193.137C171.561 191.759 172.537 189.821 172.705 187.734C172.717 186.479 172.581 185.227 172.3 184.004C172.014 182.315 171.726 180.626 171.436 178.938C170.918 175.929 170.39 172.921 169.852 169.915C167.766 158.257 165.519 146.625 163.03 135.044C158.355 113.287 152.764 91.7349 146.07 70.5104C142.598 59.5052 138.863 48.5874 134.865 37.757C132.754 32.0098 130.582 26.2849 128.349 20.5822C127.387 18.1217 126.682 15.1298 124.757 13.2166C123.183 11.6601 121.059 10.789 118.846 10.793C117.468 10.8671 116.1 11.064 114.757 11.3812C113.071 11.6849 111.387 11.992 109.704 12.3024C106.421 12.9059 103.141 13.5214 99.8621 14.1488C93.316 15.401 86.7795 16.704 80.2526 18.0579C67.2155 20.769 54.2316 23.7203 41.3007 26.912C38.1455 27.6963 34.9943 28.4972 31.8471 29.3147C30.6678 29.6207 30.9875 30.8291 32.1697 30.522C57.2609 24.0088 82.621 18.5883 108.105 13.8646C111.292 13.2744 114.538 12.4569 117.76 12.1319C118.982 12.0375 120.207 12.2779 121.302 12.8273C122.398 13.3767 123.323 14.2144 123.979 15.2504C124.704 16.5668 125.298 17.9513 125.753 19.3839C126.311 20.8062 126.867 22.2305 127.42 23.6569C128.506 26.4557 129.577 29.2598 130.634 32.0693C134.653 42.7488 138.443 53.5111 142.004 64.3561C148.694 84.8398 154.404 105.605 159.135 126.652C161.624 137.618 163.869 148.636 165.951 159.685C167.047 165.508 168.101 171.338 169.113 177.176C169.645 180.237 170.269 183.303 170.684 186.382C170.869 187.551 170.748 188.748 170.333 189.856C169.918 190.964 169.224 191.946 168.317 192.706C166.226 194.401 163.207 194.179 160.67 194.443C157.72 194.749 154.774 195.089 151.83 195.463C145.886 196.219 139.96 197.099 134.051 198.105C121.962 200.149 109.954 202.648 98.0096 205.411C94.8165 206.15 91.6275 206.906 88.4424 207.68L89.5658 208.026C84.8848 183.988 79.3274 160.118 72.6614 136.552C66.0674 113.106 58.2821 90.0129 49.3361 67.362C44.2839 54.6227 38.8274 42.0556 32.9665 29.6606C32.599 28.876 30.7027 29.4493 31.0463 30.176Z" fill="black"/>
<path d="M10.2414 44.8396C34.8346 96.2194 50.6276 150.712 61.1439 207.099C61.3273 208.094 61.7135 209.039 62.2784 209.878C62.8433 210.716 63.5747 211.429 64.4271 211.971C65.2794 212.514 66.2344 212.875 67.2323 213.031C68.2302 213.188 69.2497 213.137 70.227 212.882C72.8016 212.208 75.3453 211.575 77.8541 210.949C65.8946 149.089 48.2811 89.3024 21.5396 32.6846C19.2857 33.2658 17.0747 33.8809 14.8278 34.4941C13.7912 34.7911 12.8324 35.3123 12.0189 36.0207C11.2055 36.7291 10.5572 37.6076 10.1199 38.5942C9.68251 39.5807 9.46672 40.6513 9.48773 41.7304C9.50873 42.8095 9.76602 43.8709 10.2414 44.8396Z" fill="#ACACAC"/>
<path d="M9.27938 45.0983C20.3192 68.2998 29.7818 92.221 37.6025 116.699C45.4282 141.247 51.9243 166.201 57.0625 191.45C57.7789 194.927 58.4731 198.407 59.145 201.892C59.7068 204.803 59.8044 208.304 61.7116 210.717C62.4892 211.668 63.4718 212.432 64.5858 212.95C65.6998 213.468 66.9164 213.727 68.1445 213.708C69.671 213.599 71.1787 213.304 72.6343 212.831C74.4197 212.375 76.2075 211.925 77.9975 211.483C78.3262 211.401 78.8939 211.115 78.8162 210.691C74.1661 186.664 68.6455 162.809 62.0174 139.254C55.464 115.824 47.7186 92.744 38.8115 70.1052C33.7786 57.3753 28.3427 44.8155 22.5037 32.4258C22.3155 32.027 21.7627 32.0549 21.3992 32.1486C19.0567 32.7558 16.6724 33.3151 14.3677 34.0558C12.9166 34.5035 11.6105 35.3293 10.5831 36.4486C9.54612 37.6054 8.87018 39.0408 8.63868 40.5777C8.40719 42.1147 8.63026 43.6858 9.28038 45.0973C9.60705 45.8161 11.5004 45.2309 11.2036 44.5808C10.5986 43.3368 10.3657 41.9443 10.5328 40.5709C10.7 39.1974 11.2601 37.9016 12.1457 36.8394C13.1447 35.7851 14.4452 35.0663 15.8686 34.7816C17.8038 34.2502 19.7399 33.7219 21.6831 33.2184L20.5785 32.9422C30.9463 54.9802 40.0779 77.5801 47.9305 100.636C55.8116 123.69 62.4954 147.146 68.1764 170.837C71.3867 184.225 74.2906 197.682 76.888 211.207L77.7067 210.415C76.2188 210.786 74.7315 211.159 73.2448 211.533C71.7213 212.067 70.1346 212.4 68.525 212.523C67.3197 212.472 66.1499 212.101 65.1356 211.447C64.1214 210.793 63.2995 209.881 62.7544 208.803C62.2451 207.594 61.9098 206.319 61.7584 205.015C61.4576 203.42 61.1526 201.827 60.8431 200.236C60.2396 197.131 59.6188 194.029 58.9807 190.931C56.4669 178.737 53.6669 166.607 50.5808 154.541C44.4286 130.39 36.8632 106.621 27.9237 83.3579C22.8423 70.2245 17.265 57.2972 11.1916 44.5759C10.861 43.866 8.97362 44.4642 9.27938 45.0983Z" fill="black"/>
<path d="M21.54 32.6855C48.2815 89.3034 65.8951 149.09 77.8545 210.95C81.5017 210.012 85.0849 209.124 88.6039 208.284C76.5677 146.4 58.8317 86.5607 32.0086 29.9189C28.4998 30.7943 25.0309 31.7035 21.54 32.6855Z" fill="url(#paint0_linear)"/>
<path d="M20.578 32.9433C30.9458 54.9813 40.0773 77.5812 47.93 100.637C55.811 123.691 62.4949 147.147 68.1758 170.838C71.3868 184.225 74.291 197.682 76.8885 211.207C76.9751 211.657 77.7061 211.619 78.0089 211.542C81.5857 210.624 85.1689 209.735 88.7583 208.876C89.1218 208.789 89.6487 208.47 89.562 208.026C84.881 183.988 79.3236 160.118 72.6576 136.551C66.0636 113.106 58.2783 90.0126 49.3323 67.3617C44.2828 54.6224 38.8276 42.0553 32.9667 29.6603C32.7675 29.2386 32.2496 29.2246 31.8462 29.3253C28.3444 30.2016 24.8526 31.1198 21.3767 32.0929C20.2104 32.4209 20.5162 33.6083 21.6944 33.2773C25.1693 32.3003 28.6612 31.383 32.1629 30.5107L31.0425 30.1757C41.4452 52.2258 50.6145 74.8381 58.508 97.9078C66.4279 120.974 73.1486 144.444 78.8694 168.151C82.0997 181.546 85.0248 195.009 87.6448 208.541L88.4485 207.691C84.8585 208.55 81.2743 209.44 77.6962 210.36L78.8166 210.695C74.1665 186.668 68.6459 162.813 62.0178 139.258C55.4645 115.828 47.7191 92.7481 38.812 70.1093C33.7791 57.3793 28.3431 44.8195 22.5041 32.4299C22.1366 31.6532 20.2413 32.2295 20.578 32.9433Z" fill="black"/>
<path d="M77.459 208.629C79.5903 217.52 81.5982 226.476 83.4825 235.498L96.9927 246.424C94.2897 232.677 91.3207 219.038 88.0859 205.509" fill="url(#paint1_linear)"/>
<path d="M76.4969 208.887C77.6967 213.899 78.855 218.921 79.9718 223.953C80.5402 226.517 81.0996 229.084 81.65 231.653C81.908 232.855 82.1161 234.08 82.4189 235.272C82.4517 235.536 82.5549 235.786 82.7177 235.996C83.1512 236.414 83.6208 236.794 84.121 237.13L86.5292 239.078L92.4253 243.847L96.1004 246.819C96.5595 247.191 98.1152 246.998 97.9509 246.166C95.2538 232.469 92.2849 218.831 89.044 205.25C88.8647 204.496 86.9366 204.995 87.1198 205.767C90.3507 219.347 93.3197 232.985 96.0267 246.682L97.8772 246.028L89.2123 239.023L84.8142 235.466C84.0333 234.835 84.1339 233.799 83.9268 232.825C83.3956 230.335 82.8574 227.846 82.3123 225.359C81.0641 219.685 79.7643 214.022 78.4131 208.371C78.2329 207.617 76.3047 208.116 76.489 208.887H76.4969Z" fill="black"/>
<defs>
<linearGradient id="paint0_linear" x1="21.54" y1="29.9189" x2="91.9571" y2="29.9189" gradientUnits="userSpaceOnUse">
<stop offset="0.177083" stop-color="#8F6AFA"/>
<stop offset="0.651042" stop-color="#375CDC"/>
<stop offset="1" stop-color="#0099EE"/>
</linearGradient>
<linearGradient id="paint1_linear" x1="77.459" y1="205.509" x2="97.9694" y2="205.509" gradientUnits="userSpaceOnUse">
<stop offset="0.177083" stop-color="#8F6AFA"/>
<stop offset="0.651042" stop-color="#375CDC"/>
<stop offset="1" stop-color="#0099EE"/>
</linearGradient>
</defs>
</svg>
