<svg width="294" height="214" viewBox="0 0 294 214" fill="none" xmlns="http://www.w3.org/2000/svg">
<path d="M192.726 23.2559C218.692 27.8537 243.659 40.4478 260.537 60.3385C277.415 80.2291 285.105 107.516 278.513 131.805C274.918 144.899 267.128 156.993 255.544 164.49C243.959 171.986 228.479 174.285 215.297 169.187C206.908 165.889 199.917 159.992 193.326 153.994C174.85 137.502 157.373 119.91 140.995 101.419C132.206 91.4239 123.518 81.0287 118.125 69.0344C114.929 62.1376 113.032 54.5412 112.732 46.9447C112.632 42.047 112.432 32.7514 116.827 29.353C119.523 27.3539 124.017 26.8542 127.213 26.0546C131.208 25.155 135.202 24.2554 139.197 23.5557C147.486 22.1564 155.775 21.3568 164.164 21.1569C173.752 20.9569 183.339 21.6566 192.726 23.2559Z" fill="url(#paint0_linear)"/>
<path d="M192.127 23.7555C207.307 26.3543 221.888 31.8517 235.071 39.848C247.954 47.8442 259.438 58.4393 267.428 71.4331C275.417 84.2271 279.812 99.0202 279.911 114.113C279.911 129.006 275.018 143.999 265.231 155.294C254.944 167.088 239.165 173.485 223.586 170.787C215.397 169.387 208.206 165.089 201.715 159.992C195.024 154.694 188.732 148.697 182.54 142.8C169.557 130.605 157.173 117.911 145.289 104.718C134.004 92.2234 122.32 79.0296 116.827 62.7372C114.43 55.5406 113.431 47.9442 113.931 40.3477C113.931 37.3492 114.73 34.3506 116.028 31.5519C117.825 28.2534 121.521 27.6537 124.916 26.954C129.111 26.1544 133.205 25.0549 137.4 24.3553C141.894 23.5556 146.488 22.856 150.982 22.4562C160.269 21.4566 169.557 21.3567 178.845 22.0563C183.139 22.3562 187.633 22.9559 192.127 23.7555C192.627 23.8555 194.324 23.0559 193.326 22.856C174.65 19.7574 155.576 20.0573 137 23.5556C132.606 24.3553 128.312 25.4547 123.917 26.3543C120.821 26.954 117.326 27.7537 115.129 30.1525C113.132 32.3515 112.433 35.45 112.133 38.3487C111.833 41.2473 111.733 44.146 111.833 47.0446C112.333 64.9362 122.32 80.4289 133.305 93.8226C145.089 107.916 157.673 121.31 170.855 134.104C177.447 140.601 184.238 146.898 191.029 153.095C197.321 158.692 203.712 164.489 211.402 168.188C225.583 175.084 243.06 173.085 256.143 164.689C269.026 156.493 277.315 142.5 280.411 127.707C283.607 112.514 281.31 96.5214 275.218 82.328C268.926 67.9348 259.039 55.3407 246.556 45.8452C234.072 36.3496 219.791 29.3529 204.511 25.3548C200.816 24.3553 197.121 23.5556 193.326 22.856C192.826 22.756 191.129 23.5556 192.127 23.7555Z" fill="black"/>
<path d="M266.13 100.42C267.228 96.7213 268.926 93.2229 272.222 91.3238C276.816 88.5251 283.007 90.4242 286.503 94.2225C290.298 98.3205 291.596 104.218 292.095 109.715C294.292 131.805 286.702 156.193 270.624 171.886C267.628 174.785 263.933 177.084 259.838 177.184C248.952 177.483 247.754 162.89 249.152 154.994C252.148 138.402 260.138 123.409 264.332 107.216C264.931 105.017 265.431 102.718 266.13 100.42Z" fill="white"/>
<path d="M267.128 100.32C268.127 97.1212 269.625 93.7228 272.521 91.8237C275.417 89.9246 279.112 90.3244 282.108 91.8237C288.6 95.1222 290.497 103.018 291.196 109.715C292.495 123.309 290.298 137.102 284.905 149.597C282.208 155.794 278.713 161.591 274.419 166.789C270.424 171.486 264.731 177.883 257.84 176.184C253.247 175.085 251.149 170.287 250.35 166.089C249.551 161.091 249.851 155.994 251.149 151.096C254.645 135.703 261.935 121.51 265.83 106.217C266.03 104.218 266.529 102.219 267.128 100.32C267.328 99.5201 265.43 99.82 265.231 100.52C263.932 104.718 263.133 108.916 261.735 113.114C260.437 117.312 258.939 121.41 257.341 125.508C254.345 133.504 251.349 141.4 249.352 149.697C248.053 155.194 247.254 160.691 248.153 166.289C248.952 170.787 251.149 175.684 255.843 177.184C262.634 179.383 269.026 174.585 273.42 169.887C278.313 164.59 282.408 158.492 285.504 151.896C291.796 138.702 294.392 124.109 292.994 109.615C292.295 102.619 290.397 94.5225 283.806 90.8242C281.01 89.2249 277.614 88.7252 274.419 89.4248C271.223 90.3244 268.526 92.5234 267.028 95.522C266.229 97.0213 265.63 98.6205 265.131 100.22C264.931 101.319 266.928 101.019 267.128 100.32Z" fill="black"/>
<path d="M234.172 88.1256C225.583 64.1368 205.41 45.1458 181.941 35.3504C157.972 25.3551 132.007 24.7553 106.84 29.4531C95.1553 31.6521 83.7703 34.9505 72.685 39.0486C51.3132 47.0449 28.6431 59.1392 17.9572 80.2293C12.5643 90.6244 11.0663 102.619 13.9625 113.913C16.559 124.009 24.5485 131.205 33.4368 136.203C40.9269 140.401 49.2159 143.2 57.3053 146.098C65.8939 149.197 74.3827 152.295 82.8715 155.294C84.769 165.789 92.2591 174.385 102.346 177.783C105.841 178.883 109.536 179.383 113.231 179.383C115.129 179.383 117.026 179.583 118.824 180.082C119.623 180.982 120.422 181.982 121.121 182.981C124.716 187.979 130.109 195.575 143.991 199.873C162.267 205.57 177.646 198.074 185.037 180.382C195.223 180.782 205.31 179.683 213.998 174.885C222.287 170.187 228.379 162.191 232.174 153.495C240.763 133.604 241.462 108.616 234.172 88.1256Z" fill="url(#paint1_linear)"/>
<path d="M235.17 87.9255C227.58 66.6355 211.002 49.4435 191.228 38.9485C167.859 26.5543 140.595 23.9555 114.63 27.6538C100.748 29.6528 87.1658 33.1512 74.0831 38.0489C63.3972 41.6472 53.3105 46.5449 43.7232 52.4421C34.3356 58.4393 25.8468 65.9358 19.8547 75.3314C12.9638 86.2263 9.86788 99.3201 12.4644 112.014C13.563 117.512 16.0597 122.609 19.8547 126.707C23.5498 130.705 27.944 134.104 32.7377 136.703C38.8296 139.901 45.1213 142.6 51.6128 144.799C58.5037 147.298 65.2947 149.696 72.1856 152.195C75.5811 153.395 78.9766 154.694 82.3722 155.894L81.9727 155.594C83.6704 164.689 89.5627 172.486 97.8517 176.684C102.146 178.683 106.74 179.782 111.434 179.882C112.532 179.882 113.631 179.882 114.63 179.982C115.828 180.082 117.526 179.982 118.325 180.882C119.523 182.181 120.522 183.681 121.52 185.18C126.214 191.677 132.806 196.574 140.296 199.373C148.585 202.472 157.773 203.471 166.261 200.473C175.549 197.174 182.14 189.378 185.935 180.482L184.637 180.982C193.226 181.282 202.014 180.682 210.104 177.383C217.394 174.385 223.586 169.287 227.98 162.79C232.574 156.193 235.47 148.497 237.368 140.801C239.365 132.605 240.364 124.208 240.164 115.812C239.964 106.317 238.266 96.9212 235.17 87.9255C234.871 87.2258 232.973 87.7256 233.273 88.4252C238.566 103.718 239.665 120.21 236.569 136.103C233.672 150.896 227.181 166.888 213.399 174.585C204.91 179.383 194.924 180.182 185.436 179.882C185.037 179.882 184.338 179.982 184.138 180.382C181.342 186.879 177.147 192.876 171.155 196.774C165.462 200.273 158.771 201.772 152.18 200.972C144.39 200.173 136.9 197.074 130.708 192.276C128.511 190.577 126.514 188.578 124.816 186.379C123.118 184.38 121.82 181.881 120.022 179.982C118.924 178.783 116.427 178.883 114.929 178.783C113.132 178.683 111.334 178.683 109.536 178.483C105.741 178.183 101.946 177.084 98.5508 175.284C91.9595 171.786 87.066 165.789 84.769 158.792C84.4694 157.893 84.2697 157.093 84.0699 156.193C84.0699 155.794 83.9701 155.294 83.7703 154.894C83.4707 154.594 82.6718 154.394 82.2723 154.294C79.8755 153.395 77.4786 152.595 75.0818 151.696C70.2881 149.996 65.4944 148.197 60.7008 146.498C51.6128 143.2 42.1253 140.201 33.7364 135.403C27.0452 131.605 20.6536 126.407 17.1583 119.411C13.1635 111.514 12.6642 101.719 14.3619 93.123C17.6576 76.6308 29.2423 63.437 42.9242 54.3412C56.8059 45.0456 72.8847 38.8485 88.9635 34.2507C107.439 28.9532 126.813 26.0545 146.088 27.5538C163.964 28.9532 181.441 34.1507 196.621 43.8462C209.904 52.3422 221.289 63.9367 228.679 77.9302C230.477 81.3286 231.975 84.8269 233.273 88.4252C233.473 89.1249 235.37 88.6251 235.17 87.9255Z" fill="black"/>
<path d="M177.447 172.686C172.653 188.078 162.267 195.275 146.887 190.577C128.911 184.98 130.109 173.385 121.82 170.787C115.229 168.788 111.833 170.487 105.242 168.488C98.6507 166.489 88.9635 157.393 93.3577 143.1C96.4536 133.104 103.744 127.607 112.832 125.308C119.124 123.909 125.615 123.609 132.007 124.408C137.1 125.008 142.093 126.108 146.987 127.607C158.771 131.205 172.254 141.6 176.947 154.794C179.045 160.591 179.244 166.888 177.447 172.686Z" fill="black"/>
<path d="M176.448 172.786C174.351 179.482 170.656 186.379 164.164 189.478C157.473 192.776 149.384 191.177 142.892 188.178C139.597 186.779 136.7 184.68 134.204 182.081C132.506 180.182 130.808 178.083 129.41 175.984C128.212 174.185 126.813 172.586 125.116 171.386C122.319 169.487 118.624 169.087 115.428 168.987C111.534 168.787 107.539 168.787 103.944 167.088C101.247 165.789 98.9502 163.79 97.1526 161.391C92.2591 154.894 92.5587 146.198 96.0541 139.101C104.942 121.11 129.61 123.309 145.589 128.007C153.678 130.505 160.968 134.903 166.861 140.901C173.152 147.298 177.946 155.694 177.846 164.889C177.646 167.588 177.247 170.287 176.448 172.786C176.148 173.685 178.146 173.485 178.445 172.586C184.238 153.395 168.359 135.703 151.78 128.606C147.087 126.707 142.093 125.308 137.1 124.508C131.607 123.509 126.015 123.109 120.422 123.509C112.033 124.108 103.444 126.907 97.7518 133.404C92.3589 139.601 89.5626 148.997 92.3589 156.893C94.556 163.19 99.7492 167.988 106.241 169.587C110.835 170.687 115.528 169.987 120.122 171.186C122.519 171.786 124.716 173.185 126.214 175.184C127.912 177.183 129.21 179.482 130.908 181.481C133.005 184.08 135.602 186.279 138.498 187.978C145.189 191.877 153.778 194.175 161.468 192.076C168.359 190.177 173.352 184.78 176.348 178.483C177.247 176.584 177.946 174.685 178.545 172.686C178.645 171.786 176.648 171.986 176.448 172.786Z" fill="black"/>
<path d="M212.201 104.718C214.298 97.0212 218.193 88.925 227.281 88.6251C234.671 88.4252 241.262 94.2225 244.059 101.119C248.852 113.014 246.056 128.207 242.461 140.001C239.764 149.097 235.67 157.693 230.377 165.589C226.182 171.786 218.592 182.781 210.303 183.181C195.922 183.88 196.621 163.29 198.719 153.994C201.715 140.501 205.609 127.107 209.704 113.913C210.603 111.215 211.302 107.916 212.201 104.718Z" fill="white"/>
<path d="M213.1 104.618C214.698 98.7205 217.694 91.124 224.285 89.4248C231.875 87.4258 239.265 93.5229 242.461 99.9199C246.056 107.216 246.156 115.912 245.157 123.809C244.059 132.305 241.862 140.601 238.566 148.497C235.47 156.094 231.475 163.19 226.682 169.787C224.584 172.786 222.287 175.484 219.691 177.983C217.294 180.282 214.198 182.581 210.803 182.781C199.118 183.381 198.119 168.388 198.818 160.092C199.418 152.895 201.515 145.898 203.412 138.902C204.711 134.204 206.009 129.506 207.407 124.808C208.705 120.31 210.303 115.912 211.502 111.315C212.001 109.116 212.5 106.817 213.1 104.618C213.199 104.218 211.302 104.518 211.202 104.918C209.904 109.715 208.705 114.513 207.207 119.311C205.61 124.408 204.111 129.506 202.713 134.604C201.315 139.601 200.017 144.699 198.818 149.796C198.02 152.795 197.42 155.894 197.021 158.992C196.022 167.788 196.522 183.081 208.306 183.681C215.397 183.98 221.089 178.783 225.383 173.685C230.676 167.288 235.17 160.192 238.566 152.595C242.361 144.299 245.057 135.503 246.555 126.407C247.954 117.911 248.253 108.516 244.758 100.42C241.762 93.5229 235.071 87.9255 227.281 88.3253C223.985 88.5253 220.789 89.7247 218.293 91.8237C215.796 94.0227 213.899 96.9213 212.8 100.02C212.201 101.619 211.602 103.318 211.202 105.018C211.102 105.317 213 105.117 213.1 104.618Z" fill="black"/>
<path d="M112.832 125.308C119.124 123.909 125.615 123.609 132.007 124.408C104.942 147.497 106.64 133.304 112.832 125.308Z" fill="white"/>
<path d="M112.932 125.708C119.024 124.308 125.216 124.108 131.407 124.908L131.108 124.508C127.213 127.907 123.118 131.005 118.724 133.804C117.426 134.603 116.128 135.303 114.729 135.903C114.23 136.103 113.731 136.303 113.231 136.403C112.932 136.503 112.532 136.603 112.233 136.603C111.134 136.702 110.235 136.003 110.036 134.903C109.836 133.504 110.036 132.005 110.635 130.705C111.334 128.706 112.432 126.907 113.731 125.208C114.13 124.708 112.233 124.908 111.933 125.308C110.635 126.907 109.636 128.706 108.837 130.605C108.138 132.105 107.938 133.704 108.038 135.303C109.037 139.801 116.327 136.103 118.425 134.903C123.518 131.905 128.312 128.306 132.806 124.408C133.105 124.208 132.706 124.108 132.506 124.008C125.915 123.109 119.124 123.409 112.632 124.908C112.432 124.908 111.634 125.208 111.733 125.508C111.833 125.808 112.832 125.708 112.932 125.708Z" fill="black"/>
<path d="M176.947 154.894C158.372 167.688 155.076 159.392 167.46 140.901C146.288 158.692 138.198 153.595 151.381 129.706C128.012 150.796 119.423 146.598 132.007 124.508C137.1 125.108 142.093 126.207 146.987 127.707C158.671 131.305 172.253 141.7 176.947 154.894Z" fill="white"/>
<path d="M176.148 154.794C173.452 156.793 170.456 158.393 167.36 159.792C165.962 160.392 164.064 160.991 162.566 160.392C159.271 158.892 161.667 153.195 162.566 150.896C164.164 147.298 166.062 143.899 168.259 140.701C168.458 140.401 167.66 140.401 167.56 140.501C167.16 140.501 166.761 140.701 166.361 141.001C163.066 143.799 159.57 146.398 155.875 148.597C153.878 149.697 151.481 151.096 149.184 151.096C144.49 151.096 145.888 144.699 146.687 142C148.085 137.702 149.983 133.504 152.28 129.606C152.579 129.106 150.682 129.606 150.482 129.806C146.887 133.204 142.992 136.303 138.898 139.102C136.601 140.701 133.904 142.4 131.108 143C126.514 143.999 126.913 138.802 127.812 135.803C129.11 131.805 130.808 128.007 133.005 124.408L131.407 125.008C139.197 125.908 147.187 127.807 154.077 131.505C160.269 134.804 165.762 139.302 170.056 144.799C172.553 147.897 174.55 151.496 175.949 155.194C176.148 155.694 178.046 155.094 177.846 154.694C173.152 141.7 160.669 131.505 147.686 127.407C142.792 125.908 137.699 124.808 132.606 124.209C132.007 124.109 131.407 124.309 131.008 124.808C128.811 128.407 127.113 132.105 125.915 136.103C125.415 138.002 124.716 140.601 125.715 142.5C126.614 144.099 128.611 144.199 130.209 143.999C133.205 143.4 136.001 142.2 138.498 140.501C143.392 137.402 147.986 133.804 152.18 129.806L150.382 130.006C148.085 133.904 146.188 138.102 144.79 142.4C144.191 144.599 143.491 147.298 144.191 149.597C145.788 154.294 152.879 151.196 155.675 149.697C160.169 147.198 164.364 144.299 168.159 140.901L166.361 141.101C164.164 144.299 162.267 147.698 160.669 151.296C159.67 153.395 159.071 155.694 159.071 158.093C159.271 162.491 164.164 161.791 167.16 160.791C170.855 159.392 174.451 157.493 177.646 155.094C178.046 154.894 177.846 154.694 177.546 154.594C177.047 154.394 176.548 154.494 176.148 154.794Z" fill="black"/>
<path d="M177.447 172.686C162.766 177.783 167.859 169.887 176.947 154.794C179.044 160.591 179.244 166.888 177.447 172.686Z" fill="white"/>
<path d="M177.047 172.386C175.15 173.186 173.152 173.685 171.155 173.785C170.256 173.785 169.457 173.585 169.158 172.586C169.058 171.387 169.257 170.087 169.857 168.988C170.656 166.989 171.654 165.089 172.753 163.29C174.351 160.392 176.049 157.593 177.746 154.794L175.849 155.094C177.946 160.791 178.046 166.989 176.348 172.786C176.148 173.386 178.046 173.086 178.246 172.486C180.043 166.589 179.844 160.292 177.746 154.494C177.547 153.895 176.148 154.394 175.849 154.794C174.151 157.593 172.453 160.392 170.855 163.19C169.657 165.189 168.658 167.188 167.759 169.288C167.26 170.387 166.661 171.986 167.16 173.186C167.56 174.385 168.858 174.585 169.957 174.685C172.553 174.785 175.15 173.785 177.547 172.986C177.846 172.886 178.246 172.586 178.046 172.286C177.846 171.986 177.247 172.286 177.047 172.386Z" fill="black"/>
<path d="M60.7008 101.519C60.7008 101.619 60.3013 101.619 59.6023 101.719L58.304 101.819C57.8046 101.819 57.2054 101.819 56.6062 101.719C51.6128 101.519 47.0189 99.02 44.2226 94.9219C43.4236 93.7225 42.6247 92.3232 42.0255 91.0238C40.9269 88.6249 40.4276 86.9257 40.4276 86.8257C40.4276 86.7258 40.3277 86.326 40.0281 85.6263C39.7285 85.2265 39.6286 84.7267 39.4289 84.227C39.2292 83.7272 39.1293 83.2274 38.9296 82.7277C38.4302 81.5282 37.7311 80.4288 36.7325 79.5292C35.6339 78.5296 34.2358 77.83 32.8376 77.4302C29.9414 76.8304 26.9454 76.7305 23.9493 77.0303C21.4526 77.2303 19.8547 77.5301 19.8547 77.3302C19.8547 77.2302 21.3528 76.6305 23.8495 76.1308C26.9454 75.4311 30.1412 75.3311 33.2371 75.8309C35.0347 76.1308 36.6326 76.9304 38.0307 78.1298C39.2292 79.2293 40.2278 80.4287 40.8271 81.928C41.0268 82.5278 41.3264 83.1275 41.5261 83.6272C41.7259 84.127 41.8257 84.5268 41.9256 84.9266L42.3251 86.1261C42.3251 86.226 42.8244 87.9252 43.7232 90.2242C44.2226 91.5235 44.8218 92.723 45.5209 93.9224C46.3198 95.2218 47.3185 96.4212 48.5169 97.4208C50.8139 99.2199 53.6102 100.419 56.5064 100.919C57.1056 101.019 57.7048 101.119 58.2041 101.219L59.5024 101.319C60.3013 101.319 60.7008 101.419 60.7008 101.519Z" fill="black"/>
<path d="M34.1357 116.312C34.2356 116.112 36.8322 117.112 40.9268 118.011C43.2237 118.511 45.6206 118.811 48.0174 118.911C50.7139 119.011 53.4103 118.611 56.0069 117.711C58.5036 116.812 60.9004 115.412 62.8978 113.613C64.6954 112.014 66.1934 110.215 67.4917 108.216C68.79 106.217 69.9884 104.018 71.087 101.819C71.1868 101.619 72.4851 99.0201 74.083 95.1219C74.8819 93.1228 75.8806 90.8239 76.8793 88.3251C77.9779 85.6264 79.6756 83.2275 81.673 81.1285C83.7702 79.1294 86.3668 77.7301 89.263 77.1304C91.6598 76.7305 94.1565 76.6306 96.6532 77.0304C98.351 77.3303 100.049 77.6301 101.647 78.1299C102.246 78.2298 102.945 78.4297 103.544 78.7296C102.845 78.7296 102.246 78.7296 101.647 78.5297C100.448 78.3298 98.6506 78.0299 96.5533 77.93C94.1565 77.7301 91.8595 77.83 89.5626 78.3298C86.966 78.9295 84.669 80.3288 82.7715 82.228C80.9739 84.227 79.5758 86.5259 78.5771 89.0248C77.5784 91.5236 76.7794 93.8225 75.9805 95.8216C74.3826 99.9196 73.0843 102.618 73.0843 102.718C71.9858 105.017 70.6875 107.216 69.1895 109.315C67.6914 111.414 65.9937 113.313 64.0962 114.913C61.8991 116.812 59.3025 118.211 56.5062 119.111C53.7099 119.91 50.9136 120.21 48.0174 120.11C45.5207 120.01 43.1239 119.51 40.8269 118.811C39.8282 118.511 38.8295 118.211 38.0306 117.911C37.3315 117.711 36.6324 117.411 35.9334 117.112C35.2343 117.012 34.6351 116.712 34.1357 116.312Z" fill="black"/>
<path d="M56.6062 137.202C56.5064 137.102 57.0057 136.503 57.7048 135.803C58.6036 134.903 59.4025 133.904 60.0017 132.804C60.601 131.705 61.1003 130.605 61.3999 129.406C61.4998 128.806 61.5996 128.306 61.6995 127.707C61.7994 127.107 61.7994 126.607 61.7994 126.008C61.7994 125.708 61.7994 125.508 61.7994 125.208C61.7994 124.908 61.6995 124.608 61.6995 124.308C61.5996 123.709 61.3999 123.009 61.1003 122.409C60.9006 121.81 60.601 121.21 60.2015 120.61L59.2028 119.111C58.5037 118.311 58.1043 117.711 58.2041 117.611C58.304 117.512 58.9032 117.911 59.802 118.511C60.2015 118.911 60.7008 119.311 61.2002 119.91C61.6995 120.51 62.099 121.11 62.4985 121.71C62.8979 122.409 63.1975 123.109 63.4971 123.809C63.597 124.208 63.6969 124.508 63.7967 124.808C63.8966 125.108 63.8966 125.408 63.9965 125.808C64.0963 126.507 64.0963 127.207 63.9965 127.907C63.8966 128.606 63.6969 129.306 63.4971 129.906C62.9978 131.205 62.2987 132.504 61.3999 133.604C60.5011 134.703 59.5024 135.603 58.304 136.403C57.4052 137.102 56.7061 137.402 56.6062 137.202Z" fill="black"/>
<path d="M122.519 91.9236C122.919 91.2239 123.418 90.5243 124.017 89.8246C125.315 88.0254 126.414 86.0264 127.213 84.0273C128.411 81.1287 129.21 78.1301 129.51 75.0315C129.909 71.5332 129.51 67.9349 128.511 64.5365C127.513 61.1381 125.615 58.1395 123.118 55.6406C122.02 54.5412 120.622 53.7415 119.124 53.2418C117.725 52.8419 116.327 52.642 114.929 52.642C112.732 52.642 110.435 52.9419 108.338 53.5416C106.74 53.9414 105.741 54.2413 105.641 54.2413C105.442 54.2413 101.747 55.3408 96.3537 57.1399C93.6573 58.0395 90.5614 59.139 87.1658 60.1385C83.6705 61.238 79.9753 61.9377 76.2802 62.4374C72.5851 62.9372 68.7901 62.7373 65.1948 61.6378C64.3959 61.338 63.4971 61.0381 62.6981 60.6383C60.6009 59.4389 58.8033 57.8396 57.4051 55.9405C56.1068 54.0414 55.0083 52.0423 54.2093 49.9433C53.8099 49.1437 53.6101 48.3441 53.4104 47.5444C53.9097 48.2441 54.3092 49.0437 54.6088 49.7434C55.5076 51.7425 56.706 53.6416 58.0043 55.4407C59.9018 57.8396 62.4984 59.6388 65.4944 60.5383C68.89 61.4379 72.4852 61.5379 75.9806 60.9381C83.271 59.9386 90.2617 57.1399 95.5548 55.3408C100.848 53.3417 104.643 52.2422 104.942 52.2422C105.042 52.2422 106.041 51.9424 107.739 51.5426C110.036 51.0428 112.432 50.7429 114.829 50.7429C116.427 50.7429 118.125 51.0428 119.623 51.5426C121.321 52.1423 122.919 53.1418 124.217 54.4412C126.913 57.2399 128.811 60.5383 129.81 64.2366C130.808 67.8349 131.008 71.6331 130.509 75.3314C130.109 78.5299 129.11 81.6284 127.712 84.5271C126.714 86.5261 125.515 88.5252 124.017 90.2244C123.817 90.8241 123.218 91.4238 122.519 91.9236Z" fill="black"/>
<path d="M160.07 38.149C158.971 38.5489 157.872 38.8487 156.774 39.0486C154.377 39.6483 152.18 40.5479 150.083 41.7473C148.085 42.9468 146.587 44.7459 145.888 46.9449C145.689 47.7445 145.589 48.4442 145.489 49.2438C145.389 49.8435 145.389 50.2434 145.389 50.3433C145.089 51.5427 144.79 52.7422 144.29 53.9416C144.091 54.5413 143.791 55.0411 143.491 55.5409C142.493 57.44 141.095 59.0392 139.297 60.1387C137.1 61.4381 134.603 62.2377 132.007 62.4376C130.908 62.6375 129.71 62.6375 128.611 62.3377C128.611 62.1378 129.909 62.0378 131.907 61.5381C134.304 61.0383 136.501 60.1387 138.498 58.8393C140.296 57.44 141.694 55.4409 142.393 53.242C142.692 52.1425 142.992 51.043 143.192 49.9435C143.192 49.9435 143.292 49.5437 143.392 48.944C143.491 48.0444 143.691 47.1448 143.991 46.3452C144.39 45.1458 145.089 43.9463 145.988 43.0467C146.987 41.9473 148.085 41.1476 149.384 40.448C151.681 39.2485 154.177 38.5489 156.674 38.249C158.671 37.8492 160.07 37.9491 160.07 38.149Z" fill="black"/>
<path d="M199.418 55.3409C199.517 55.4409 198.619 56.4404 197.121 57.9397C196.322 58.6394 195.323 59.3391 194.324 60.1387C193.725 60.5385 193.126 60.8383 192.527 61.1382C191.927 61.538 191.328 61.8379 190.629 62.1377C189.331 62.7375 188.033 63.2372 186.634 63.5371C185.935 63.737 185.336 63.9369 184.737 64.0368L183.039 64.2368C182.14 64.3367 181.242 64.4367 180.343 64.4367H179.244C177.946 64.3367 176.747 64.2368 175.549 63.9369C172.952 63.4371 170.456 62.6375 168.059 61.538C165.762 60.4385 163.565 59.0392 161.568 57.34L160.569 56.3405C160.269 56.0406 160.069 55.7407 159.87 55.5408C159.47 55.0411 159.271 54.7412 159.37 54.7412C159.47 54.7412 159.77 54.8412 160.169 55.241C160.369 55.4409 160.669 55.6408 160.968 55.9406L162.067 56.7403C164.164 58.1396 166.261 59.2391 168.658 60.2386C170.955 61.1382 173.352 61.7379 175.849 62.0378C177.047 62.1377 178.146 62.2377 179.344 62.2377H180.343C181.142 62.2377 181.941 62.2377 182.839 62.1377L184.437 62.0378C185.037 61.9378 185.636 61.8379 186.235 61.7379C187.533 61.4381 188.832 61.1382 190.03 60.6384C190.629 60.4385 191.228 60.1387 191.828 59.8388C192.427 59.539 193.026 59.3391 193.625 59.0392C194.724 58.3395 195.722 57.8398 196.521 57.24C198.219 56.0406 199.318 55.241 199.418 55.3409Z" fill="black"/>
<path d="M175.949 81.3285C175.849 81.0287 179.943 80.0291 183.638 78.3299C184.138 78.13 184.537 77.9301 185.037 77.7302L186.335 77.0305C187.134 76.6307 187.833 76.2309 188.532 75.7312C189.031 75.4313 189.531 75.0315 190.03 74.6317L190.629 74.1319C190.829 74.032 191.029 73.832 191.228 73.6321L191.828 73.1324C192.127 72.9325 192.327 72.6326 192.527 72.4327C195.023 69.8339 195.722 65.9358 194.224 62.6373C194.025 62.3374 193.925 61.9376 193.825 61.7377C193.725 61.5378 193.525 61.238 193.425 61.0381C193.226 60.6382 193.126 60.3384 193.226 60.3384C193.326 60.3384 193.525 60.4383 193.825 60.7382C194.025 60.9381 194.224 61.138 194.424 61.3379C194.624 61.6378 194.824 61.9376 195.023 62.2375C196.122 63.9367 196.621 66.0357 196.521 68.0348C196.322 70.1338 195.523 72.1328 194.224 73.7321C194.025 74.032 193.725 74.3318 193.425 74.6317L192.826 75.3313C192.627 75.5312 192.427 75.7312 192.227 75.9311L191.528 76.4308C191.029 76.8306 190.429 77.2305 189.83 77.5303C189.031 78.0301 188.232 78.4299 187.334 78.8297L185.935 79.4294L184.437 79.9292C180.143 81.2286 175.949 81.6284 175.949 81.3285Z" fill="black"/>
<path d="M144.39 118.511C144.191 118.411 145.888 116.412 147.586 113.014C148.485 111.114 149.284 109.015 149.783 106.916C150.382 104.517 150.582 102.119 150.582 99.6198C150.582 99.0201 150.582 98.4204 150.482 97.7207C150.482 97.121 150.382 96.5213 150.283 95.9215C150.183 95.3218 150.083 94.7221 149.883 94.2223C149.783 93.7226 149.584 93.3228 149.284 92.9229C149.084 92.723 148.785 92.6231 148.485 92.6231C148.085 92.723 147.686 92.9229 147.287 93.1229C146.488 93.6226 145.689 94.3223 144.99 95.022C142.293 97.7207 140.695 99.9197 140.595 100.02L136.201 105.217C134.903 106.716 133.405 108.416 131.607 110.215C129.71 112.114 127.113 113.413 124.417 113.713C121.82 114.013 119.124 113.613 116.727 112.714C114.63 111.914 112.632 110.914 110.835 109.615C109.536 108.716 108.338 107.716 107.239 106.517C106.44 105.717 106.141 105.117 106.141 105.117C106.241 105.017 108.038 106.916 111.234 108.815C113.032 109.915 115.029 110.815 117.026 111.414C119.323 112.114 121.72 112.414 124.117 112.014C126.414 111.614 128.611 110.515 130.209 108.716C131.807 107.016 133.305 105.217 134.503 103.718L138.698 98.4204C140.196 96.6212 141.794 95.022 143.392 93.4227C144.191 92.6231 145.089 91.9234 146.088 91.3237C146.687 90.9239 147.386 90.724 148.085 90.624C148.285 90.624 148.485 90.624 148.685 90.624C148.884 90.624 149.184 90.724 149.384 90.8239C149.584 90.9239 149.783 91.0238 149.983 91.1238C150.183 91.2237 150.283 91.4236 150.482 91.5236C150.982 92.1233 151.281 92.823 151.481 93.5227C151.681 94.1224 151.781 94.8221 151.781 95.5217C151.88 96.2214 151.98 96.8211 151.98 97.5208C151.98 98.2205 152.08 98.8202 151.98 99.5198C151.98 102.119 151.581 104.717 150.782 107.116C150.183 109.215 149.284 111.314 148.085 113.213C147.287 114.613 146.388 115.812 145.389 117.012C144.89 118.111 144.39 118.611 144.39 118.511Z" fill="black"/>
<path d="M165.163 119.81C164.863 119.91 164.064 117.312 162.866 115.013C162.267 114.013 161.668 113.014 160.869 112.114C160.469 111.714 160.17 111.314 159.77 111.015L159.47 110.715C159.171 110.415 158.971 110.215 158.572 110.015C158.172 109.715 157.673 109.415 157.273 109.115C156.774 108.816 156.175 108.616 155.576 108.316C154.477 107.916 153.279 107.616 152.18 107.416C151.181 107.316 150.582 107.116 150.482 107.016C150.382 106.916 151.181 106.717 152.18 106.617C153.478 106.517 154.777 106.617 155.975 106.916C156.674 107.016 157.373 107.316 157.972 107.516C158.572 107.716 159.071 108.016 159.67 108.416C160.07 108.616 160.469 108.916 160.769 109.215L161.168 109.615C161.568 110.115 162.067 110.615 162.367 111.114C163.166 112.214 163.765 113.413 164.164 114.613C165.163 117.112 165.363 119.81 165.163 119.81Z" fill="black"/>
<path d="M191.828 117.511C191.828 117.611 191.628 117.811 191.029 118.111C190.23 118.511 189.431 118.611 188.532 118.611C185.936 118.611 183.439 117.511 181.541 115.712C179.744 113.913 178.246 111.714 177.247 109.415C176.348 107.516 175.849 106.217 175.749 106.217C175.649 106.217 175.25 104.817 174.451 103.018C173.552 100.819 172.254 98.9202 170.556 97.321C168.858 95.8217 166.561 95.0221 164.264 95.0221C162.367 95.122 161.268 96.0216 161.168 95.8217C161.168 95.7217 161.368 95.5218 161.867 95.122C162.566 94.6222 163.365 94.3224 164.164 94.1225C166.761 93.7227 169.457 94.4223 171.555 96.0216C173.552 97.6208 175.15 99.7199 176.348 102.119C177.347 104.018 177.846 105.317 177.846 105.317C177.846 105.317 178.346 106.717 179.144 108.516C179.943 110.715 181.142 112.814 182.74 114.613C184.338 116.312 186.435 117.412 188.732 117.711C190.529 117.911 191.728 117.312 191.828 117.511Z" fill="black"/>
<path d="M240.264 45.7451C240.364 45.8451 240.064 46.6447 239.365 47.6442C238.466 48.9436 237.368 50.0431 236.169 50.9427C232.374 53.8413 227.381 54.7409 222.887 53.2416C221.389 52.8418 219.99 52.1421 218.692 51.2425C217.694 50.5428 217.094 49.9431 217.194 49.7432C217.394 49.5433 220.09 51.2425 223.186 51.6423C224.584 51.8422 225.983 51.9422 227.381 51.8422C228.679 51.6423 229.977 51.4424 231.276 51.1426C232.674 50.7428 233.972 50.243 235.17 49.5433C238.067 48.144 240.064 45.6451 240.264 45.7451Z" fill="black"/>
<path d="M252.148 57.4397C252.148 57.7396 249.651 58.3393 247.055 58.4393C245.856 58.5392 244.558 58.4393 243.36 58.2394C242.76 58.1394 242.161 58.0395 241.662 57.9395C241.063 57.7396 240.563 57.5397 240.064 57.2398C238.965 56.7401 237.867 56.0404 236.868 55.3407C234.671 53.8414 233.073 51.7424 233.273 51.5425C233.473 51.3426 235.47 52.8419 237.667 53.9414C238.666 54.4411 239.665 54.9409 240.763 55.2408C241.662 55.5406 242.261 55.6406 242.261 55.6406C242.261 55.6406 242.86 55.8405 243.759 56.1403C244.858 56.4402 245.956 56.6401 247.055 56.7401C249.551 57.1399 252.148 57.0399 252.148 57.4397Z" fill="black"/>
<path d="M259.239 70.1337C259.338 70.2336 259.039 70.8333 258.34 71.633C257.441 72.6325 256.243 73.4321 255.044 73.9319C253.746 74.4316 252.448 74.7315 251.049 74.8315C250.35 74.8315 249.751 74.8315 249.052 74.8315C248.453 74.7315 247.754 74.5316 247.155 74.4316C245.856 74.0318 244.658 73.5321 243.459 72.8324C242.361 72.1327 241.262 71.3331 240.363 70.3336C239.664 69.5339 239.265 68.9342 239.365 68.8343C239.465 68.7343 240.064 69.1341 240.863 69.6339C241.861 70.3336 242.96 70.8333 244.158 71.3331C245.257 71.8329 246.455 72.1327 247.654 72.3326C248.653 72.5325 249.252 72.5325 249.352 72.5325C249.451 72.5325 250.051 72.6325 251.049 72.7324C252.248 72.8324 253.446 72.7324 254.545 72.4326C255.743 72.1327 256.842 71.633 257.84 71.0332C258.539 70.4335 259.139 70.0337 259.239 70.1337Z" fill="black"/>
<path d="M273.819 154.594C271.323 154.594 269.325 152.595 269.325 150.096C269.325 149.597 269.425 149.097 269.625 148.597C270.624 145.898 272.921 144.499 274.618 143.5C274.518 143.4 274.518 143.3 274.419 143.2C273.52 141.6 272.321 139.601 272.721 137.103C273.12 134.404 275.118 132.705 276.616 131.405C276.915 131.205 277.315 130.805 277.514 130.606C278.214 128.207 280.61 126.807 283.007 127.407C285.104 128.007 286.503 129.906 286.303 132.105C286.103 135.103 283.906 137.003 282.408 138.202C282.308 138.302 282.208 138.402 282.108 138.402C282.108 138.402 282.108 138.402 282.108 138.502C283.207 140.301 284.805 143 283.906 146.198C283.207 148.797 280.91 150.096 279.212 151.096C278.713 151.396 278.313 151.596 277.814 151.896C277.115 153.695 275.617 154.694 273.819 154.594Z" fill="black"/>
<path d="M23.3501 52.442C23.4499 52.542 22.5511 53.5415 21.2528 54.9408C19.9545 56.3402 18.1569 58.2393 16.4592 60.2384C14.8613 62.2374 13.2634 64.3364 12.1648 66.0356C11.0663 67.6349 10.3672 68.8343 10.3672 68.9343C10.3672 69.0342 9.56825 70.1337 8.56957 71.8329C7.47102 73.5321 6.2726 75.7311 5.07418 78.13C3.87576 80.4289 2.87708 82.8277 2.178 84.6269C1.47893 86.4261 0.979586 87.6255 0.77985 87.6255C0.679982 87.6255 0.879717 86.3261 1.37906 84.327C1.97827 82.0281 2.77721 79.7292 3.67603 77.4303C4.57484 75.1314 5.67339 72.9324 6.87181 70.8334C7.87049 69.0342 8.56957 67.8348 8.56957 67.8348C8.66943 67.7348 9.36851 66.6354 10.6668 65.0361C12.1648 63.037 13.7627 61.2379 15.4605 59.4387C17.1582 57.6396 18.9559 56.0403 20.7535 54.4411C22.1516 53.0417 23.2502 52.3421 23.3501 52.442Z" fill="black"/>
<path d="M227.58 153.095C225.084 153.095 223.086 151.096 223.086 148.597C223.086 148.097 223.186 147.597 223.386 147.098C224.385 144.399 226.682 143 228.379 142C228.28 141.9 228.28 141.8 228.18 141.7C227.281 140.101 226.082 138.102 226.482 135.603C226.881 132.904 228.879 131.205 230.377 129.906C230.676 129.706 231.076 129.306 231.276 129.106C231.975 126.707 234.372 125.308 236.768 126.008C238.866 126.607 240.264 128.506 240.064 130.705C239.864 133.704 237.667 135.603 236.169 136.802C236.069 136.902 235.969 137.002 235.87 137.002V137.102C236.968 138.901 238.566 141.6 237.667 144.799C236.968 147.397 234.671 148.697 232.973 149.696C232.474 149.996 232.075 150.196 231.575 150.496C230.876 152.195 229.378 153.095 227.58 153.095Z" fill="black"/>
<path d="M185.336 196.974C185.436 197.074 185.037 197.974 184.238 199.373C183.239 200.972 182.041 202.572 180.742 203.971C179.444 205.37 177.946 206.67 176.348 207.869C175.05 208.869 174.051 209.368 174.051 209.468C173.951 209.468 173.053 210.068 171.555 210.668C169.757 211.467 167.959 212.067 166.062 212.567C164.164 212.967 162.267 213.267 160.369 213.366C159.47 213.466 158.572 213.367 157.773 213.167C157.773 212.967 158.771 212.867 160.269 212.567C162.067 212.167 163.865 211.767 165.662 211.168C167.36 210.568 169.058 209.768 170.756 208.969C172.054 208.269 172.953 207.669 173.053 207.669C173.053 207.669 174.051 207.169 175.35 206.37C176.947 205.37 178.346 204.271 179.744 203.071C181.142 201.872 182.44 200.473 183.639 199.073C184.537 197.674 185.236 196.874 185.336 196.974Z" fill="black"/>
<path d="M177.646 13.6605C177.547 13.8604 176.248 13.3606 174.151 12.8609C171.654 12.2611 169.058 11.7614 166.461 11.4615C163.865 11.1617 161.268 11.1617 158.671 11.2616C156.574 11.3616 155.076 11.5615 154.976 11.5615C154.876 11.5615 153.378 11.6614 151.281 11.9613C148.685 12.3611 146.188 12.9608 143.691 13.6605C141.195 14.4601 138.798 15.3597 136.401 16.4592C134.503 17.3588 133.205 18.0584 133.105 17.8585C133.904 16.9589 134.903 16.2593 136.001 15.6595C138.298 14.2602 140.695 13.0608 143.192 12.0612C145.689 11.0617 148.285 10.362 150.982 9.86227C153.179 9.46246 154.677 9.26255 154.777 9.26255C154.876 9.26255 156.374 9.1626 158.671 9.1626C161.368 9.1626 164.064 9.46246 166.761 9.86227C169.357 10.362 171.954 11.0617 174.451 11.9613C175.649 12.461 176.748 12.9608 177.646 13.6605Z" fill="black"/>
<path d="M193.525 4.66454C193.425 4.9644 188.931 3.86491 184.437 3.26519C182.14 2.96533 179.843 2.76543 178.146 2.66548C176.448 2.56552 175.249 2.56552 175.15 2.56552C175.05 2.56552 173.851 2.46557 172.154 2.36562C170.456 2.26566 168.159 2.26566 165.862 2.36562C161.268 2.46557 156.774 3.16524 156.674 2.86538C156.574 2.56552 161.068 1.26613 165.762 0.766367C168.059 0.466508 170.456 0.366555 172.253 0.266602C174.051 0.266602 175.249 0.266602 175.349 0.266602C175.449 0.266602 176.648 0.366555 178.445 0.566461C180.243 0.766367 182.54 1.16618 184.837 1.66594C189.331 2.66548 193.625 4.36468 193.525 4.66454Z" fill="black"/>
<defs>
<linearGradient id="paint0_linear" x1="112.696" y1="21.1235" x2="289.27" y2="21.1235" gradientUnits="userSpaceOnUse">
<stop offset="0.177083" stop-color="#8F6AFA"/>
<stop offset="0.651042" stop-color="#375CDC"/>
<stop offset="1" stop-color="#0099EE"/>
</linearGradient>
<linearGradient id="paint1_linear" x1="12.5125" y1="26.6167" x2="250.504" y2="26.6167" gradientUnits="userSpaceOnUse">
<stop offset="0.177083" stop-color="#8F6AFA"/>
<stop offset="0.651042" stop-color="#375CDC"/>
<stop offset="1" stop-color="#0099EE"/>
</linearGradient>
</defs>
</svg>
