<svg width="3933" height="3784" viewBox="0 0 3933 3784" fill="none" xmlns="http://www.w3.org/2000/svg">
<path d="M3108.27 3498.45C3084.39 3531.79 3067.06 3569.36 3057.19 3609.16C3042.53 3642.75 2979.96 3702.28 2871.7 3743.55C2763.44 3784.82 2659.69 3779.23 2643.17 3767C2613.14 3742.22 2577.24 3725.61 2538.92 3718.77L2764.26 3559.86L3108.27 3498.45Z" fill="black"/>
<path d="M2701.68 3783.35C2670.19 3783.35 2647.23 3779.18 2638.8 3772.96C2609.54 3748.96 2574.65 3732.8 2537.42 3726C2536.01 3725.71 2534.72 3725.02 2533.7 3724.01C2532.69 3723 2531.99 3721.71 2531.7 3720.3C2531.41 3718.9 2531.53 3717.44 2532.06 3716.11C2532.59 3714.78 2533.5 3713.63 2534.68 3712.81L2760.03 3553.84C2760.9 3553.23 2761.9 3552.81 2762.96 3552.61L3106.95 3491.21C3108.38 3490.95 3109.85 3491.12 3111.19 3491.69C3112.52 3492.27 3113.65 3493.23 3114.43 3494.46C3115.22 3495.68 3115.62 3497.1 3115.6 3498.56C3115.57 3500.01 3115.11 3501.42 3114.28 3502.61C3090.9 3535.23 3073.93 3571.99 3064.28 3610.94C3047.35 3650.16 2980.96 3709.7 2874.31 3750.37C2819.14 3771.39 2760.71 3782.56 2701.68 3783.35ZM2556.45 3715.41C2590.02 3723.68 2621.28 3739.43 2647.9 3761.47C2660.86 3771.02 2760.74 3778.03 2869.07 3736.71C2978.75 3694.88 3037.6 3635.78 3050.46 3606.28C3058.98 3571.64 3073.23 3538.66 3092.63 3508.72L2767.15 3566.81L2556.45 3715.41Z" fill="black"/>
<path d="M2922.73 2890.63L3122.93 3415.69C3128.53 3430.44 3129.74 3446.5 3126.4 3461.92C3123.07 3477.34 3115.33 3491.46 3104.12 3502.58C3030.85 3575.47 2836.19 3679.17 2638.1 3711.22C2566.95 3722.81 2490.6 3733.48 2465.01 3666.39L2264.84 3141.49L2922.73 2890.63Z" fill="#AFAFAF"/>
<path d="M2908.57 2894.42L3010.64 3162.07L3079.7 3343.11L3101.78 3401.03C3106.77 3412.16 3110.58 3423.79 3113.15 3435.72C3121.29 3488.58 3071.49 3521.54 3033.46 3547.46C2988.18 3577.82 2940.3 3604.09 2890.37 3625.97C2833.23 3651.64 2773.96 3672.29 2713.24 3687.67C2661.06 3700.77 2601.02 3715.89 2546.74 3710.6C2531.5 3709.85 2516.83 3704.57 2504.6 3695.46C2492.37 3686.34 2483.13 3673.78 2478.05 3659.4C2473.03 3646.47 2468.16 3633.46 2463.22 3620.49L2400.57 3456.24L2326.8 3262.79L2298.27 3188.05C2293.43 3173 2287.79 3158.23 2281.38 3143.78C2280.52 3141.82 2279.75 3139.81 2279.1 3137.77L2270.66 3147.87L2493.72 3062.8L2847.14 2927.97L2928.46 2896.96C2932.97 2895.25 2939.39 2890.19 2935.78 2884.99C2932.18 2879.78 2921.34 2882.69 2916.95 2884.36L2693.91 2969.43L2340.49 3104.25L2259.17 3135.26C2256.07 3136.44 2249.04 3140.92 2250.73 3145.36L2359.95 3431.73L2429.24 3613.45C2442.18 3647.38 2452.38 3692.59 2485.16 3712.74C2524.57 3736.89 2577.94 3728.69 2621.04 3722.06C2684.1 3712.37 2746.15 3697.02 2806.46 3676.21C2908.19 3641.03 3012.15 3593.32 3095.29 3523.71C3129.73 3494.87 3153.18 3457.76 3136.97 3411.7C3133.55 3402.01 3129.64 3392.49 3125.98 3382.89L3064.59 3221.9C3022.82 3112.39 2982.52 3002.18 2939.26 2893.27C2938.42 2891.16 2937.63 2889.03 2936.83 2886.91C2932.91 2876.41 2904.86 2884.66 2908.57 2894.42Z" fill="black"/>
<path d="M2920.3 2645.85C2935.12 2739.78 2960.24 2831.78 2995.19 2920.21C3010.02 2959.1 2925.55 3029.58 2800.28 3094.51C2752.28 3119.21 2702.95 3141.19 2652.5 3160.37C2605.94 3178.14 2559.54 3193.16 2515.52 3205.11C2370.43 3244.48 2251.07 3250.43 2235.61 3209.89L2234.79 3210.2C1941.56 2441.3 1299.89 2558.51 1105.6 2049.03C1057.35 1922.88 1034.49 1788.44 1038.33 1653.43C1042.17 1518.42 1072.64 1385.49 1127.98 1262.28C1144.73 1224.73 1163.75 1188.23 1184.93 1152.99C1470.97 654.617 2064.12 502.646 2495.26 747.867C3306.9 1209.6 2813.32 1908.17 2920.3 2645.85Z" fill="url(#paint0_linear)"/>
<path d="M1442 1236.37C1165.27 1636.71 1300.36 2036.1 1692.41 2192.72C1886.6 2270.29 2127.21 2390.78 2236.82 2568.94C2315.96 2697.73 2383.99 2811.85 2460.11 3056.95C2475.5 3107.44 2493.99 3156.93 2515.47 3205.14C2559.44 3193.18 2605.89 3178.16 2652.45 3160.4C2702.89 3141.22 2752.22 3119.23 2800.2 3094.54C2738.37 2904.66 2629.42 2588.02 2601.06 2444.48C2569.37 2284.09 2582.21 2089.18 2672.35 1952.76C2731.9 1862.72 2791.16 1759.18 2795.35 1653.87C2820.53 1022.82 1780.4 746.792 1442 1236.37Z" fill="white"/>
<path d="M2984.32 3225.73C2987.66 3228.67 2978.56 3245.75 2960.87 3268.23C2938.94 3295.48 2914.93 3320.99 2889.06 3344.53C2861.07 3370.58 2831.22 3394.75 2808.03 3412.38C2784.85 3430.01 2768.46 3441.28 2767.44 3441.94C2766.41 3442.6 2749.18 3452.52 2723.25 3465.78C2697.33 3479.04 2662.6 3495.44 2627.01 3509.44C2594.55 3522.54 2561.08 3533.01 2526.94 3540.73C2498.9 3546.72 2479.47 3547.07 2478.38 3542.76C2477.3 3538.46 2493.87 3529.58 2518.26 3516.58C2542.65 3503.58 2575 3486.23 2606.64 3467.5C2638.28 3448.77 2669.35 3428.95 2692.54 3413.36L2732.28 3386.15L2774.03 3362.03C2798.13 3347.8 2829.55 3328.45 2860.13 3307.96C2890.71 3287.48 2920.63 3266.09 2943.08 3249.78C2965.53 3233.47 2980.84 3222.66 2984.32 3225.73Z" fill="black"/>
<path d="M2707.72 3594.2C2704.29 3585.51 2747.88 3559.48 2787.97 3529.29C2808.12 3514.33 2828.01 3499.27 2842.53 3487.1C2857.31 3475.38 2866.77 3466.59 2867.52 3466.28C2868.27 3465.97 2879.02 3458.95 2894.84 3448.69C2910.65 3438.43 2931.18 3424.13 2951.1 3409.05C2971.01 3393.97 2990.67 3378.51 3005.85 3366.9C3021.03 3355.3 3031.68 3347.68 3035.45 3350.42C3039.22 3353.16 3035.04 3366.08 3025.37 3383.57C3013.12 3404.54 2999.01 3424.38 2983.22 3442.85C2967.42 3461.56 2950.57 3479.37 2932.75 3496.17C2917.93 3509.99 2907.38 3518.99 2906.63 3519.39C2905.89 3519.78 2894.43 3527.62 2876.64 3537.4C2855.35 3549.47 2833.39 3560.33 2810.88 3569.92C2762.2 3591.2 2710.89 3602.47 2707.72 3594.2Z" fill="black"/>
<path d="M2341.81 2518.85C2333.92 2509.28 2327.19 2498.81 2321.75 2487.66L2269.36 2397.43C2223.63 2320.14 2157.39 2209.85 2066.99 2085.42C2019.06 2018.26 1966.42 1954.6 1909.48 1894.9C1878.29 1862.99 1844.46 1833.76 1808.36 1807.53C1771.92 1779.24 1732.56 1754.94 1690.94 1735.05C1681.1 1730.73 1670.84 1727.45 1660.31 1725.27C1656.75 1724.48 1653.1 1724.19 1649.45 1724.41C1646.85 1724.58 1644.36 1725.56 1642.33 1727.21C1640.41 1728.96 1639.18 1731.35 1638.86 1733.93C1638.45 1736.97 1638.6 1740.05 1639.28 1743.03C1641.41 1753.29 1644.95 1763.21 1649.81 1772.49C1670.16 1811.14 1708.43 1843.48 1748.9 1869.78C1790.43 1896.35 1835.43 1917.06 1882.61 1931.33C1905.93 1938.5 1929.88 1943.44 1954.13 1946.09C1977.01 1948.92 2000.2 1947.64 2022.63 1942.31C2032.03 1940.29 2040.85 1936.2 2048.46 1930.32C2056.07 1924.45 2062.27 1916.94 2066.59 1908.36C2070.69 1899.32 2073.06 1889.61 2073.6 1879.71L2073.3 1844.43C2068.73 1796.87 2053.31 1750.99 2028.24 1710.31C1976.63 1629.31 1905.12 1562.89 1820.54 1517.39C1810.28 1511.71 1799.81 1506.58 1789.56 1501.17C1779.3 1495.76 1768.48 1491.6 1758.06 1486.78C1747.64 1481.96 1736.74 1478.53 1726.2 1474.32L1718.26 1471.39C1715.86 1470.63 1713.86 1469.92 1711.58 1469.35C1707.12 1468.17 1702.59 1467.28 1698.02 1466.7C1689.99 1465.54 1681.81 1465.83 1673.88 1467.57C1671.54 1468.21 1669.3 1469.17 1667.22 1470.42C1666.42 1471.13 1665.72 1471.94 1665.14 1472.84C1664.6 1474.11 1664.34 1475.48 1664.34 1476.86C1664.44 1479.7 1664.93 1482.51 1665.81 1485.21C1669.02 1494.26 1672.98 1503.02 1677.64 1511.41C1714.17 1582.52 1768.47 1642.99 1835.25 1686.93C1864.86 1706.49 1896.65 1722.53 1929.98 1734.72C1945.33 1740.26 1960.95 1744.99 1976.79 1748.91C1990.63 1751.85 2004.76 1753.18 2018.9 1752.9C2044.07 1753.02 2068.87 1746.89 2091.08 1735.06C2107.91 1725.96 2120.97 1711.2 2127.95 1693.38C2134.08 1677.57 2136.8 1660.65 2135.94 1643.72C2135.51 1629.21 2133.99 1614.76 2131.38 1600.49C2128.87 1586.42 2125.64 1572.5 2121.71 1558.76C2115.73 1536.98 2108.07 1515.69 2098.79 1495.1C2089.7 1474.1 2077.87 1454.39 2063.62 1436.48C2057.08 1427.91 2048.67 1420.94 2039.04 1416.1C2036.55 1414.94 2033.8 1414.47 2031.07 1414.72C2027.67 1415.73 2024.5 1417.4 2021.75 1419.63C2021.75 1420.16 2021.75 1419.26 2020.99 1421.09C2020.08 1424.13 2019.62 1427.28 2019.61 1430.44C2019.62 1440.83 2020.98 1451.18 2023.64 1461.22C2030.38 1486.57 2039.81 1511.14 2051.75 1534.49C2079.58 1589.62 2114.32 1640.96 2155.15 1687.29C2177.21 1712.66 2201.48 1736.04 2227.66 1757.13C2253.79 1778.73 2283.37 1795.76 2315.15 1807.52C2344.88 1819.08 2377.98 1818.46 2407.25 1805.77C2437.72 1789.14 2462.42 1763.63 2478.06 1732.63C2496.75 1698.35 2511.24 1661.93 2521.22 1624.18L2528.88 1594.87C2531.09 1585.24 2533.1 1575.66 2534.74 1565.91C2537.91 1546.45 2539.48 1526.75 2539.42 1507.03C2539.73 1467.72 2531.79 1428.78 2516.13 1392.72C2508.72 1375.72 2498.3 1360.19 2485.36 1346.9C2480.59 1341.37 2474.69 1336.92 2468.07 1333.84C2461.44 1330.77 2454.23 1329.14 2446.93 1329.08C2439.79 1330.54 2433.07 1333.56 2427.24 1337.93C2421.41 1342.31 2416.63 1347.91 2413.22 1354.36C2403.26 1370.9 2395.75 1388.81 2390.93 1407.52C2380.64 1448 2374.38 1489.39 2372.25 1531.09C2367.75 1615.51 2368.91 1700.14 2375.69 1784.4C2388.16 1943.29 2408.96 2101.41 2438.02 2258.11C2464.4 2404.26 2494.08 2536.13 2521.91 2646.71C2549.74 2757.3 2575.85 2846.68 2594.81 2908.38C2613.78 2970.08 2625.11 3004.37 2623.17 3005.1C2618.19 2997.84 2614.24 2989.92 2611.45 2981.56C2604.75 2965.8 2595.33 2942.36 2584.19 2911.97C2561.69 2851.24 2532.06 2762.58 2500.85 2652.37C2469.63 2542.17 2436.63 2410.46 2406.97 2264.02C2374.4 2106.62 2350.47 1947.57 2335.29 1787.56C2326.94 1701.44 2324.42 1614.85 2327.76 1528.4C2329.41 1483.52 2335.54 1438.93 2346.06 1395.27C2351.81 1371.84 2361 1349.4 2373.33 1328.67C2380.48 1317.06 2389.59 1306.79 2400.26 1298.3C2412.3 1288.91 2426.65 1282.94 2441.8 1281.01C2456.95 1279.4 2472.25 1281.97 2486.04 1288.44C2498.34 1294.17 2509.61 1301.9 2519.38 1311.31C2536.97 1328.63 2551.23 1349.02 2561.46 1371.47C2580.71 1413.83 2590.82 1459.77 2591.14 1506.3C2591.5 1528.9 2590 1551.5 2586.67 1573.86C2585.02 1584.95 2582.87 1595.96 2580.5 1606.8C2577.9 1617.29 2575.53 1627.8 2572.73 1638.24C2562.06 1680.43 2546.32 1721.18 2525.83 1759.58C2505.1 1800.78 2472.22 1834.61 2431.63 1856.52C2410.24 1866.91 2386.82 1872.44 2363.05 1872.72C2340.64 1872.9 2318.36 1869.37 2297.1 1862.28C2258.73 1848.84 2222.94 1828.96 2191.26 1803.49C2162.05 1780.53 2134.94 1755.03 2110.23 1727.28C2065.31 1677.4 2026.97 1621.96 1996.16 1562.32C1981.87 1534.99 1970.57 1506.19 1962.45 1476.43C1958.27 1460.87 1956.17 1444.82 1956.21 1428.7C1956.32 1419.16 1957.86 1409.69 1960.8 1400.61C1964.56 1389.42 1971.12 1379.39 1979.85 1371.46C1991.11 1361.74 2004.62 1354.98 2019.15 1351.82C2033.71 1349.24 2048.69 1350.8 2062.4 1356.31C2082 1364.73 2099.24 1377.81 2112.64 1394.41C2122.96 1406.54 2132.16 1419.58 2140.1 1433.39C2146.68 1444.55 2152.7 1456.03 2158.11 1467.8C2169.05 1491.41 2178.08 1515.86 2185.11 1540.91C2189.58 1556.86 2193.2 1573.03 2195.95 1589.36C2199.01 1606.98 2200.71 1624.81 2201.04 1642.69C2201.86 1668.5 2197.26 1694.19 2187.54 1718.11C2174.81 1749.02 2151.84 1774.61 2122.49 1790.6C2090.85 1807.48 2055.48 1816.17 2019.62 1815.85C2000.4 1816.05 1981.22 1814 1962.47 1809.73C1944.14 1805.04 1926.08 1799.38 1908.36 1792.77C1870.7 1778.56 1834.83 1759.99 1801.48 1737.45C1726.6 1687.05 1666.05 1618.1 1625.74 1537.34C1619.61 1525.86 1614.52 1513.85 1610.53 1501.46C1608.04 1493.24 1606.8 1484.7 1606.85 1476.11C1607.03 1465.97 1609.49 1456 1614.03 1446.93C1618.95 1437.65 1625.98 1429.65 1634.55 1423.59C1642.23 1418.51 1650.71 1414.77 1659.64 1412.52C1674.6 1409.09 1690.08 1408.5 1705.26 1410.78C1712.38 1411.76 1719.43 1413.23 1726.35 1415.17C1729.76 1416.08 1733.38 1417.33 1736.61 1418.41L1745.28 1421.8C1756.79 1426.49 1768.73 1430.42 1779.97 1435.84C1791.21 1441.26 1802.91 1446.02 1814.04 1451.96C1825.18 1457.89 1836.41 1463.68 1847.43 1469.94C1892.19 1495.56 1933.91 1526.19 1971.76 1561.22C2011.13 1597.2 2044.93 1638.83 2072.04 1684.75C2100.41 1732.38 2117.45 1785.89 2121.87 1841.15C2122.03 1855.2 2122.05 1869.07 2121.62 1883.34C2120.46 1899.3 2116.31 1914.9 2109.4 1929.33C2105.75 1936.87 2101.24 1943.97 2095.95 1950.47C2090.48 1956.79 2084.3 1962.46 2077.54 1967.37C2064.64 1976.67 2050.12 1983.46 2034.72 1987.39C2006.64 1993.91 1977.62 1995.28 1949.06 1991.43C1922.01 1988.11 1895.33 1982.22 1869.4 1973.85C1818.57 1957.67 1770.24 1934.52 1725.78 1905.06C1703.54 1890.38 1682.7 1873.71 1663.51 1855.23C1643.52 1836.43 1626.87 1814.38 1614.25 1790.02C1607.83 1777.13 1603.3 1763.38 1600.8 1749.2C1599.28 1740.06 1599.52 1730.71 1601.5 1721.65C1603.56 1712.33 1608.57 1703.93 1615.78 1697.68C1623.16 1691.68 1632.15 1688 1641.61 1687.08C1650.14 1686.25 1658.74 1686.74 1667.11 1688.55C1680.37 1691.45 1693.27 1695.77 1705.6 1701.43C1749.45 1723.19 1790.78 1749.69 1828.87 1780.43C1865.82 1808.35 1900.35 1839.35 1932.07 1873.08C1988.76 1935.01 2040.83 2001.01 2087.86 2070.56C2158.41 2173.5 2222.87 2280.49 2280.91 2390.97C2301.8 2430.92 2317.54 2462.59 2327.65 2484.54C2333.7 2495.39 2338.45 2506.9 2341.81 2518.85V2518.85Z" fill="black"/>
<path d="M2696.3 3284.72C2701.4 3292.19 2681.85 3315.42 2659.28 3335.68C2648.1 3345.94 2636.2 3355.34 2627.04 3362.31C2617.88 3369.29 2611.37 3373.71 2610.92 3373.9C2610.46 3374.1 2603.19 3376.98 2592.26 3380.59C2581.33 3384.19 2566.78 3388.6 2552.02 3392.08C2522.46 3399.16 2492.11 3401.81 2489 3393.29C2485.9 3384.78 2509.52 3366.91 2532.72 3349.65L2564.96 3326.34L2580.26 3315.55L2597.85 3309.04L2635.41 3295.65C2662.91 3286.33 2691.15 3277.14 2696.3 3284.72Z" fill="black"/>
<path d="M2045.56 1681.1L2034.53 1684.84L2031.17 1685.94L2030.26 1686.25L2030.03 1686.32L2050.91 1696.58C2050.91 1696.58 2048.44 1689.62 2045.4 1681.04C2042.37 1672.47 2040.16 1665.41 2040.16 1665.41L2061.04 1675.67L2060.8 1675.75L2059.9 1676.08L2056.57 1677.28L2045.56 1681.1Z" fill="black"/>
<path d="M3288.02 2043.21C3290.26 2038.63 3450.55 2111.99 3453.08 2113.24C3455.61 2114.48 3612.2 2195.25 3609.98 2199.8C3607.75 2204.34 3447.55 2131.08 3444.99 2129.83C3442.43 2128.58 3285.79 2047.79 3288.02 2043.21Z" fill="black"/>
<path d="M475.034 1021.3C477.79 1015.63 646.856 1092.45 649.55 1093.76C652.245 1095.07 816.691 1181.07 813.966 1186.7C811.242 1192.34 642.267 1115.64 639.572 1114.3C636.878 1112.96 472.279 1026.97 475.034 1021.3Z" fill="black"/>
<path d="M2045.56 1681.1L2034.53 1684.84L2031.17 1685.94L2030.26 1686.25L2030.03 1686.32L2050.91 1696.58C2050.91 1696.58 2048.44 1689.62 2045.4 1681.04C2042.37 1672.47 2040.16 1665.41 2040.16 1665.41L2061.04 1675.67L2060.8 1675.75L2059.9 1676.08L2056.57 1677.28L2045.56 1681.1Z" fill="black"/>
<path d="M2045.43 1681.21L2034.39 1684.91L2033.37 1685.24L2032.91 1685.38L2032.68 1685.46H2032.58L2040.93 1668.1L2040.48 1666.64L2040.08 1665.41L2040.55 1666.62C2040.68 1667 2040.87 1667.49 2041.06 1668.09L2032.71 1685.44H2032.81L2033.03 1685.35L2033.5 1685.19L2034.5 1684.82L2045.47 1680.93L2056.54 1677.22L2057.55 1676.9L2058 1676.74H2058.24H2058.34C2055.54 1682.6 2052.74 1688.34 2049.99 1694.09C2050.16 1694.64 2050.32 1695.13 2050.44 1695.55L2050.84 1696.8L2050.38 1695.58L2049.85 1694.12C2052.61 1688.39 2055.41 1682.6 2058.21 1676.76H2058.11H2057.89L2057.42 1676.94L2056.43 1677.31L2045.43 1681.21Z" fill="black"/>
<path d="M507.062 2612.92C502.784 2608.29 720.751 2399.85 724.328 2396.54C727.905 2393.24 952.67 2192.46 956.938 2197.08C961.206 2201.7 743.412 2410 739.835 2413.27C736.258 2416.54 511.361 2617.55 507.062 2612.92Z" fill="black"/>
<path d="M3017.04 781.943C3013.23 777.818 3253.73 549.096 3257.71 545.451C3261.7 541.805 3508.17 319.94 3511.96 324.057C3515.74 328.173 3275.43 556.75 3271.49 560.395C3267.54 564.041 3020.86 786.068 3017.04 781.943Z" fill="black"/>
<path d="M2045.45 1681.2L2041.74 1670.15L2041.42 1669.14L2041.25 1668.67V1668.45V1668.34L2032.75 1685.62L2031.29 1686.08L2030.06 1686.47L2031.26 1686.01L2032.73 1685.48L2041.23 1668.21V1668.31V1668.53L2041.4 1669L2041.77 1669.99L2045.67 1680.97C2047.13 1685.37 2048.42 1689.21 2049.37 1692.03L2049.7 1693.05L2049.84 1693.51L2049.92 1693.73V1693.84L2058.42 1676.57L2059.88 1676.1L2061.13 1675.71L2059.91 1676.18L2058.45 1676.7C2055.63 1682.41 2052.8 1688.17 2049.95 1693.97V1693.87L2049.86 1693.65L2049.7 1693.19L2049.33 1692.2C2048.35 1689.38 2046.97 1685.5 2045.45 1681.2Z" fill="black"/>
<path d="M0.00012516 1517.31C0.243812 1510.93 356.322 1519.74 362.069 1519.97C367.816 1520.2 723.244 1539.36 723 1545.7C722.756 1552.04 366.932 1543.29 361.185 1543.06C355.438 1542.84 -0.243562 1523.71 0.00012516 1517.31Z" fill="black"/>
<path d="M3414 1736.15C3414.2 1730.91 3669.83 1736.87 3673.95 1737.03C3678.07 1737.19 3933.2 1751.63 3933 1756.85C3932.8 1762.08 3677.38 1756.14 3673.23 1756.01C3669.09 1755.87 3413.8 1741.41 3414 1736.15Z" fill="black"/>
<path d="M2045.41 1681.1C2042.48 1672.48 2040.16 1665.48 2040.16 1665.48C2040.16 1665.48 2042.62 1672.44 2045.67 1681.01C2048.72 1689.59 2050.92 1696.65 2050.92 1696.65C2050.92 1696.65 2048.44 1689.64 2045.41 1681.1Z" fill="black"/>
<path d="M1019.24 2819.97C1013.58 2817.22 1109.65 2608.27 1111.28 2604.93C1112.9 2601.59 1218.11 2397.27 1223.76 2400.03C1229.41 2402.79 1133.46 2611.59 1131.8 2614.93C1130.15 2618.26 1024.9 2822.73 1019.24 2819.97Z" fill="black"/>
<path d="M2045.43 1681.21L2034.39 1684.91L2033.37 1685.24L2032.91 1685.38L2032.68 1685.46H2032.58L2040.93 1668.1L2040.48 1666.64L2040.08 1665.41L2040.55 1666.62C2040.68 1667 2040.87 1667.49 2041.06 1668.09L2032.71 1685.44H2032.81L2033.03 1685.35L2033.5 1685.19L2034.5 1684.82L2045.47 1680.93L2056.54 1677.22L2057.55 1676.9L2058 1676.74H2058.24H2058.34C2055.54 1682.6 2052.74 1688.34 2049.99 1694.09C2050.16 1694.64 2050.32 1695.13 2050.44 1695.55L2050.84 1696.8L2050.38 1695.58L2049.85 1694.12C2052.61 1688.39 2055.41 1682.6 2058.21 1676.76H2058.11H2057.89L2057.42 1676.94L2056.43 1677.31L2045.43 1681.21Z" fill="black"/>
<path d="M175.011 2079.73C172.982 2073.8 463.657 1968.33 468.384 1966.7C473.111 1965.07 766.94 1869.33 768.989 1875.26C771.038 1881.2 480.546 1986.6 475.839 1988.23C471.133 1989.86 177.07 2085.69 175.011 2079.73Z" fill="black"/>
<path d="M3302.01 1182.79C3300.25 1177.63 3574.91 1078.13 3579.37 1076.62C3583.83 1075.1 3861.21 984.049 3862.99 989.211C3864.78 994.374 3590.26 1093.81 3585.86 1095.32C3581.46 1096.84 3303.78 1187.96 3302.01 1182.79Z" fill="black"/>
<path d="M2045.41 1681.1C2042.48 1672.48 2040.16 1665.48 2040.16 1665.48C2040.16 1665.48 2042.62 1672.44 2045.67 1681.01C2048.72 1689.59 2050.92 1696.65 2050.92 1696.65C2050.92 1696.65 2048.44 1689.64 2045.41 1681.1Z" fill="black"/>
<path d="M2045.57 1681.11L2029.94 1686.35L2045.48 1680.84L2061.11 1675.6L2045.57 1681.11Z" fill="black"/>
<path d="M2486.35 439.959C2479.31 436.543 2579.57 217.243 2581.28 213.739C2583 210.235 2694.6 -3.37581 2701.65 0.0405451C2708.69 3.4569 2608.52 222.619 2606.8 226.123C2605.09 229.627 2493.46 443.376 2486.35 439.959Z" fill="black"/>
<path d="M1164.42 324.017C1170.41 321.987 1239.83 506.338 1240.88 509.341C1241.92 512.345 1301.57 699.933 1295.58 701.983C1289.59 704.033 1220.23 519.814 1219.21 516.831C1218.18 513.847 1158.43 326.046 1164.42 324.017Z" fill="black"/>
<path d="M2906.15 2649.64C2919.22 2732.97 2940.56 2814.79 2969.85 2893.88C2976.6 2906.27 2980.83 2919.86 2982.31 2933.89C2980.74 2943.11 2976.74 2951.74 2970.72 2958.89C2952.44 2981.72 2930.72 3001.55 2906.34 3017.67C2837.4 3065.5 2763.14 3105.15 2685.05 3135.84C2602.48 3170.55 2516.62 3196.84 2428.78 3214.33C2389.61 3222.79 2349.62 3226.85 2309.54 3226.43C2292.75 3225.85 2258 3225.22 2249.77 3206.09C2246.07 3197.5 2236.58 3198 2229.15 3200.86L2228.34 3201.17L2248.95 3206.4C2188.83 3042.98 2095.21 2893.94 1974.11 2768.83C1876.27 2670.37 1761.44 2592.97 1642.29 2522.85C1535.98 2460.23 1425.59 2402.36 1328.9 2325.01C1226.79 2244.52 1150.12 2136.23 1108.12 2013.18C1033.31 1795.29 1034.24 1558.54 1110.74 1341.24C1119.99 1315.17 1130.35 1289.54 1141.59 1264.26L1134.41 1271.31C1141.11 1268.76 1143.2 1260.55 1145.9 1254.8C1151.15 1243.31 1156.62 1231.94 1162.33 1220.67C1173.63 1198.32 1185.78 1176.49 1198.6 1154.95L1191.42 1161.99C1201.15 1158.29 1207.38 1139.88 1212.37 1131.67C1221.99 1115.88 1232.02 1100.33 1242.46 1085.04C1260.59 1058.43 1279.89 1032.65 1300.35 1007.72C1340.22 959.117 1384.47 914.279 1432.55 873.776C1524.61 796.055 1630.13 735.869 1743.89 696.202C1962.56 619.102 2202.36 627.966 2414.74 720.998C2535.91 775.651 2645.76 852.529 2738.61 947.651C2814.72 1025.61 2872.95 1119.19 2909.28 1221.9C2979.92 1425.31 2960.57 1646.35 2936.99 1856.26C2910.62 2090.43 2876.06 2325.21 2896.05 2561.32C2898.54 2590.85 2901.9 2620.3 2906.12 2649.64C2908.12 2663.58 2936.5 2656.41 2934.43 2642.05C2899.67 2399.38 2930.46 2155.42 2958.92 1913.85C2984.23 1698.95 3011.22 1473.45 2952.32 1261.52C2923.31 1157 2872.19 1059.94 2802.42 976.888C2714.78 876.349 2609.24 792.961 2491.15 730.964C2284.22 620.991 2043.53 592.777 1816.79 651.915C1576.06 715.012 1365.92 862.299 1224.48 1067.06C1205.56 1094.26 1187.96 1122.35 1171.4 1151.05L1178.57 1144C1172.35 1146.37 1169.17 1154.68 1166.17 1159.83C1159.86 1170.57 1153.73 1181.46 1147.78 1192.48C1135.79 1214.68 1124.66 1237.31 1114.39 1260.36L1121.57 1253.31C1113.41 1256.42 1110.95 1267.96 1107.91 1274.98C1102.46 1287.68 1097.26 1300.49 1092.31 1313.41C1082.03 1340.24 1072.89 1367.47 1064.9 1395.1C1017.45 1557.47 1010.65 1729.03 1045.1 1894.65C1076.51 2045.88 1138.72 2184.82 1250.74 2292.69C1339.83 2378.53 1448.5 2440.25 1554.9 2501.73C1674.12 2570.61 1792.68 2641.33 1896.25 2732.88C2023.32 2846.81 2124.15 2986.96 2191.78 3143.66C2202.04 3166.87 2211.53 3190.35 2220.62 3214C2223.96 3222.72 2234.04 3221.98 2241.22 3219.24L2242.04 3218.93L2221.44 3213.7C2241.34 3259.92 2323.31 3250.03 2362.05 3246.1C2455.6 3234.86 2547.4 3212.06 2635.34 3178.23C2724.9 3146.58 2810.74 3105.23 2891.32 3054.93C2923.47 3035.36 2953.21 3012.07 2979.9 2985.53C2994.02 2970.88 3010.28 2951.33 3011.25 2929.85C3012.06 2911.7 3000.47 2892.9 2994.6 2876.33C2985.45 2850.46 2976.98 2824.36 2969.19 2798.05C2954.03 2746.91 2942.43 2694.78 2934.46 2642.04C2932.41 2628.12 2904.02 2635.3 2906.15 2649.64Z" fill="black"/>
<defs>
<linearGradient id="paint0_linear" x1="1037.92" y1="632.78" x2="3094.82" y2="632.78" gradientUnits="userSpaceOnUse">
<stop offset="0.177083" stop-color="#8F6AFA"/>
<stop offset="0.651042" stop-color="#375CDC"/>
<stop offset="1" stop-color="#0099EE"/>
</linearGradient>
</defs>
</svg>
