<svg width="262" height="217" viewBox="0 0 262 217" fill="none" xmlns="http://www.w3.org/2000/svg">
<path d="M173.578 215.908C173.546 216.054 173.458 216.181 173.332 216.262C173.207 216.342 173.055 216.37 172.909 216.339C172.522 216.254 172.418 215.791 172.477 215.901C169.209 200.665 162.323 180.58 150.42 170.438C148.964 169.195 147.807 167.64 147.035 165.888C146.263 164.137 145.896 162.235 145.96 160.323C146.025 158.41 146.52 156.537 147.409 154.842C148.298 153.147 149.557 151.674 151.094 150.531C152.631 149.389 154.406 148.607 156.287 148.243C158.167 147.879 160.106 147.943 161.959 148.43C163.812 148.917 165.531 149.815 166.989 151.056C168.447 152.297 169.606 153.851 170.381 155.6C170.573 156.673 182.262 175.941 173.578 215.908Z" fill="url(#paint0_linear)"/>
<path d="M172.659 215.824L173.425 215.653L173.089 216.306L173.101 216.295C173.301 216.125 173.5 215.931 173.437 215.643C170.824 203.524 166.889 191.283 160.254 180.722C158.628 178.097 156.771 175.623 154.703 173.328C152.753 171.189 150.246 169.493 148.715 167.006C147.17 164.443 146.61 161.407 147.139 158.462C147.668 155.518 149.25 152.865 151.592 150.999C153.655 149.469 156.166 148.662 158.735 148.702C161.305 148.743 163.789 149.629 165.803 151.222C167.679 152.832 169.121 154.886 169.995 157.196C172.314 162.483 173.91 168.057 174.741 173.769C176.613 185.75 175.883 198.051 173.79 209.951C173.434 211.973 173.037 213.987 172.6 215.995C172.409 216.876 174.373 216.618 174.545 215.82C177.373 202.715 178.698 189.118 177.021 175.763C176.299 169.318 174.638 163.013 172.089 157.048C171.293 154.91 170.094 152.945 168.556 151.258C166.71 149.487 164.413 148.253 161.915 147.693C159.416 147.132 156.812 147.265 154.384 148.077C151.686 148.971 149.332 150.679 147.646 152.965C145.961 155.252 145.028 158.004 144.975 160.843C144.97 163.774 145.937 166.624 147.724 168.949C148.743 170.112 149.848 171.197 151.029 172.195C152.145 173.264 153.2 174.396 154.189 175.584C162.679 185.739 167.329 198.979 170.473 211.658C170.843 213.151 171.189 214.65 171.512 216.155L171.848 215.502L171.837 215.512C171.675 215.65 171.386 215.911 171.5 216.165C172.082 217.473 173.913 217.103 174.494 215.988C174.971 215.068 173.025 215.126 172.659 215.824Z" fill="black"/>
<path d="M225.937 102.142C212.503 149.328 171.883 178.351 130.645 178.492C93.6177 178.619 52.9641 155.59 36.5725 128.717C28.8357 117.044 24.2856 103.555 23.3726 89.5856C23.3041 88.5797 23.4411 87.5704 23.7752 86.6189C24.1093 85.6675 24.6335 84.7938 25.3161 84.0509C25.9987 83.308 26.8253 82.7115 27.7458 82.2974C28.6663 81.8834 29.6615 81.6606 30.6708 81.6425C31.6802 81.6243 32.6828 81.8113 33.6176 82.192C34.5524 82.5727 35.4 83.1392 36.1088 83.8571C36.8177 84.575 37.373 85.4293 37.7411 86.3682C38.1093 87.307 38.2825 88.3108 38.2502 89.3185C36.7612 135.159 85.1315 169.646 131.571 170.437C178.01 171.229 222.52 138.32 218.257 63.2058V63.151C218.16 61.4435 218.747 59.7676 219.887 58.4918C221.027 57.2161 222.629 56.445 224.338 56.3482C226.048 56.2515 227.726 56.837 229.003 57.9759C230.281 59.1148 231.053 60.7139 231.15 62.4214C231.383 66.6087 230.109 86.6353 225.937 102.142Z" fill="url(#paint1_linear)"/>
<path d="M224.981 102.289C218.505 124.888 205.053 145.285 186.058 159.312C168.361 172.382 146.455 179.363 124.415 177.808C111.722 176.795 99.287 173.683 87.6164 168.599C76.1665 163.767 65.4992 157.263 55.964 149.299C38.7959 134.84 26.3475 114.044 24.4513 91.4193C24.3944 90.7356 24.3515 90.0508 24.3325 89.3651C24.3445 89.8066 24.2976 89.1966 24.3175 88.9773C24.3428 88.2243 24.4489 87.4761 24.6339 86.7456C25.0671 85.3163 25.9475 84.0633 27.1459 83.1703C29.7039 81.2924 33.177 82.0918 35.2769 84.2737C37.3997 86.4795 37.24 89.1258 37.254 91.9666C37.3698 102.671 40.1287 113.182 45.2861 122.567C55.7264 141.784 74.3666 155.745 94.5157 163.578C113.116 170.808 133.793 173.047 153.342 168.64C169.92 165.005 184.937 156.264 196.275 143.651C209.648 128.544 216.461 108.905 218.638 89.084C219.306 82.8894 219.59 76.6595 219.489 70.4299C219.468 68.9182 219.427 67.4061 219.365 65.8938C219.143 64.2742 219.157 62.6311 219.408 61.0157C220.197 57.9846 223.108 56.02 226.168 57.1573C230.741 58.8518 230.293 63.7737 230.097 67.7068C229.826 73.0952 229.277 78.4717 228.552 83.8202C227.75 90.0459 226.558 96.2153 224.982 102.292C224.838 102.83 226.745 102.555 226.895 101.993C229.889 90.368 231.62 78.455 232.059 66.4599C232.15 65.064 232.169 63.6644 232.117 62.2666C232.046 61.0126 231.625 59.8033 230.904 58.7747C230.182 57.7462 229.187 56.9392 228.031 56.4446C223.132 54.3395 217.152 58.0294 217.29 63.4079C217.462 69.8807 217.689 76.2958 217.29 82.7696C216.927 88.88 216.133 94.9572 214.915 100.956C212.9 111.178 209.286 121.02 204.207 130.12C195.339 145.813 181.298 157.95 164.474 164.463C146.323 171.409 126.101 171.456 107.453 166.465C85.6044 160.616 64.7835 147.877 51.6635 129.21C45.3008 120.303 41.1942 109.989 39.6951 99.1501C39.3374 96.3714 39.1657 93.572 39.1812 90.7705C39.1971 87.9477 39.0275 85.4219 36.8548 83.3497C33.0533 79.7216 26.2697 80.8748 23.5491 85.2515C22.1079 87.5689 22.3434 90.1355 22.5989 92.7271C23.0614 97.2055 23.9163 101.635 25.1539 105.964C28.682 118.358 34.9184 129.816 43.4138 139.513C51.5922 148.64 61.2171 156.361 71.9035 162.37C83.0642 168.846 95.1484 173.585 107.74 176.424C130.109 181.684 153.629 178.683 173.956 167.973C194.409 157.19 210.762 140.012 220.515 119.067C223.093 113.554 225.226 107.844 226.894 101.992C227.045 101.469 225.14 101.73 224.981 102.289Z" fill="black"/>
<path d="M235.896 0.576172C237.898 14.9392 230.925 20.8838 221.923 24.6176C216.949 19.8851 212.27 14.2605 218.937 2.02544C201.089 7.56833 192.057 24.8977 191.897 41.3799C191.711 59.9871 202.809 77.5058 225.272 75.6678C267.732 72.1952 273.72 5.83997 235.896 0.576172Z" fill="url(#paint2_linear)"/>
<path d="M234.936 0.834768C235.652 6.17233 235.357 11.8747 232.218 16.4488C229.651 20.1885 225.651 22.5 221.547 24.2164L222.825 24.2393C220.376 21.9019 218.017 19.3353 217.071 16.0022C215.713 11.2178 217.588 6.24509 219.843 2.0478C220.175 1.43082 219.163 1.42584 218.814 1.53548C209.999 4.30343 202.477 10.1491 197.625 18.0027C193.068 25.4977 190.75 34.137 190.945 42.9033C191.087 50.8942 193.34 59.0506 198.283 65.4397C200.807 68.6257 203.98 71.2389 207.593 73.1054C211.205 74.9719 215.174 76.0491 219.236 76.2653C225.965 76.7284 232.699 75.4351 238.776 72.5125C244.854 69.5899 250.065 65.1385 253.898 59.5958C260.743 49.539 263.39 37.2127 261.278 25.237C259.223 14.0944 252.186 4.35726 241.036 1.03013C239.547 0.591102 238.028 0.263266 236.491 0.049334C236.251 0.0023522 236.003 0.0107976 235.767 0.0740249C235.531 0.137252 235.312 0.253588 235.128 0.414142C234.908 0.69024 234.842 1.03711 235.312 1.10389C240.87 1.81807 246.071 4.23068 250.203 8.01132C254.016 11.6965 256.802 16.31 258.287 21.3976C261.603 32.1883 260.173 44.4323 255.117 54.4596C249.628 65.344 239.643 73.308 227.394 74.9177C219.14 76.0032 210.542 74.3715 204.084 68.8904C198.235 63.9256 194.839 56.6953 193.526 49.2386C190.608 32.6658 197.45 13.7546 212.567 5.30416C214.636 4.15551 216.817 3.22039 219.076 2.51328L218.047 2.00096C215.739 6.29592 213.793 11.3444 215.076 16.2654C215.996 19.7938 218.462 22.5379 221.036 24.9958C221.352 25.2948 221.967 25.1653 222.314 25.0197C226.721 23.1758 231.046 20.6809 233.862 16.7159C237.255 11.9405 237.621 5.95105 236.865 0.317458C236.773 -0.333415 234.836 0.105152 234.936 0.834768Z" fill="black"/>
<path d="M190.935 41.6382C190.851 54.4753 196.351 68.1067 208.66 73.6775C219.611 78.6323 233.571 76.5153 243.416 69.9457C251.68 64.4297 257.388 55.784 260.116 46.3109C262.719 37.2575 262.782 27.1376 259.309 18.3024C257.737 14.0781 255.181 10.2881 251.852 7.24563C248.523 4.20319 244.516 1.9957 240.164 0.805614C238.955 0.489325 237.728 0.243709 236.49 0.0700178C236.068 0.0102132 234.845 0.199594 234.935 0.83452C235.613 5.8302 235.422 11.2076 232.753 15.6401C230.504 19.0748 227.288 21.7682 223.51 23.3809C215.673 27.0848 206.803 28.1971 199.174 32.3745C195.44 34.4198 192.279 37.3771 190.941 41.5066C190.742 42.1336 192.663 41.8814 192.866 41.2535C195.461 33.2187 204.743 30.7368 211.941 28.5181C219.809 26.092 229.174 23.6191 234.068 16.3977C237.272 11.6701 237.61 5.82222 236.862 0.318207L235.304 1.08271C239.691 1.67444 243.868 3.32213 247.476 5.88392C251.084 8.44571 254.014 11.8448 256.015 15.7887C260.158 23.8623 260.89 33.442 259.215 42.2642C257.459 51.5159 252.953 60.4129 245.806 66.6634C241.55 70.3684 236.461 72.9916 230.971 74.3095C225.482 75.6274 219.755 75.601 214.278 74.2327C201.468 70.784 194.318 58.5639 193.078 46C192.922 44.3788 192.85 42.7505 192.863 41.1219C192.867 40.5677 190.94 40.9136 190.935 41.6382Z" fill="black"/>
<path d="M65.8574 66.8917C65.9024 66.6525 65.9573 66.4133 65.9952 66.1731C66.1589 65.4874 66.265 64.7892 66.3125 64.0859C68.2148 49.958 64.7417 34.9929 54.1706 25.8827C56.8592 36.9964 49.5796 40.6345 42.7302 45.6292C32.9096 40.7073 24.5441 33.739 28.2189 18.2188C-3.01339 23.9321 -11.4777 86.2844 24.6789 98.5313C45.1484 105.466 60.2575 89.6852 65.1309 70.2497C65.1309 70.2318 65.1389 70.2139 65.1429 70.1959C65.3584 69.3347 65.5471 68.4656 65.7217 67.5924C65.7696 67.3592 65.8135 67.126 65.8574 66.8917Z" fill="url(#paint3_linear)"/>
<path d="M66.8359 66.8237C69.6743 52.2124 66.5215 35.4422 54.9115 25.3173C54.3865 24.8598 53.0252 25.3622 53.2068 26.1406C54.1869 30.3509 53.8825 34.5501 51.0401 37.973C48.588 40.9263 45.1617 42.9427 42.0878 45.1734L43.2855 44.9671C38.7215 42.6686 34.1775 39.799 31.2972 35.4691C27.854 30.2931 27.843 24.0196 29.2013 18.1497C29.348 17.5128 28.3949 17.4749 28.0416 17.5407C19.1262 19.2113 12.0492 25.404 7.43234 32.9773C2.42697 41.4808 -0.142347 51.1946 0.00502488 61.0575C0.0669025 70.6572 2.57993 80.5518 8.57408 88.2118C15.3746 96.9054 27.0056 102.309 38.0937 100.621C51.3675 98.6009 60.4495 87.1054 64.6412 75.0837C65.2041 73.472 65.6842 71.8333 66.1053 70.1797L65.0464 70.9702C65.2844 70.9682 65.5154 70.8904 65.7059 70.748C65.8965 70.6056 66.0364 70.4062 66.1053 70.1787C66.3548 69.0604 66.6173 67.948 66.8299 66.8217C67.0145 65.8469 65.0414 66.0751 64.8738 66.9583C64.6612 68.0856 64.3987 69.1979 64.1492 70.3163L65.2081 69.5259C64.9705 69.5283 64.7398 69.6063 64.5494 69.7484C64.359 69.8905 64.2189 70.0894 64.1492 70.3163C61.1382 82.1636 53.6639 94.9059 41.1876 98.5171C30.6215 101.575 18.722 96.9403 11.6081 88.8886C5.50016 81.9712 2.55898 72.7374 2.04599 63.6331C1.47625 54.266 3.34645 44.9112 7.47426 36.4808C11.2119 29.0112 17.2659 22.1706 25.4497 19.6219C26.4181 19.3229 27.4032 19.0806 28.3999 18.8963L27.2462 18.2873C25.831 24.4163 25.9547 30.9399 29.5416 36.3283C32.5786 40.8934 37.3821 43.8727 42.1856 46.2958C42.387 46.3615 42.6015 46.377 42.8103 46.3408C43.019 46.3047 43.2158 46.218 43.3833 46.0884C46.7267 43.6624 50.4693 41.4546 53.0202 38.1324C55.8476 34.4555 56.17 30.0369 55.144 25.6293L53.4394 26.4516C64.744 36.3104 67.6433 52.7915 64.8887 66.9652C64.6911 67.9331 66.6682 67.7058 66.8359 66.8237Z" fill="black"/>
<path d="M102.072 185.185C91.1303 185.998 78.4563 195.824 71.0101 204.628C67.97 208.22 65.2232 212.05 62.7963 216.081C62.729 216.19 62.6262 216.273 62.5052 216.316C62.3841 216.359 62.252 216.359 62.1309 216.316C62.0098 216.273 61.907 216.191 61.8395 216.081C61.7721 215.972 61.7442 215.843 61.7603 215.716C67.494 173.469 96.6124 160.158 94.4956 161.433C97.4085 159.713 100.884 159.212 104.164 160.039C107.445 160.866 110.266 162.953 112.014 165.847C113.761 168.741 114.293 172.208 113.493 175.491C112.694 178.775 110.629 181.611 107.746 183.381C106.02 184.412 104.077 185.029 102.072 185.185Z" fill="url(#paint4_linear)"/>
<path d="M102.487 184.788C95.3008 185.381 88.583 188.897 82.8144 193.036C76.4928 197.621 70.9368 203.175 66.352 209.492C64.7227 211.657 63.2176 213.912 61.8439 216.247C61.7351 216.438 62.0794 216.475 62.1723 216.483L61.9208 216.148L61.8798 216.203L63.0605 215.938C62.4337 215.949 63.0056 213.526 63.0705 213.121C63.2295 212.137 63.4032 211.156 63.5915 210.177C63.9414 208.362 64.346 206.559 64.8051 204.767C65.6489 201.463 66.6918 198.212 67.9279 195.034C70.0251 189.619 72.7375 184.462 76.0119 179.665C80.2801 173.288 85.6967 167.758 91.9863 163.356C92.7847 162.814 93.6021 162.29 94.4484 161.823C94.6235 161.751 94.7923 161.665 94.9534 161.566C95.0862 161.474 94.9534 161.586 94.9534 161.566C94.9395 161.709 94.155 161.595 94.155 161.596C93.6201 161.521 93.5562 161.544 93.8237 161.353C93.8007 161.37 93.7758 161.385 93.7518 161.4C93.3676 161.633 93.5921 161.743 93.8686 161.837C94.352 161.872 94.8332 161.744 95.2349 161.473C101.669 157.717 109.871 161.684 112.254 168.398C114.764 175.469 110.294 184.055 102.487 184.792C102.181 184.821 101.34 184.926 101.197 185.256C101.054 185.586 101.315 185.619 101.657 185.587C108.485 184.942 114.432 180.061 114.89 172.966C115.053 169.741 114.018 166.571 111.984 164.061C109.95 161.552 107.06 159.881 103.869 159.368C100.364 158.862 96.791 159.58 93.7548 161.401L95.2349 161.473C96.2649 160.846 94.3606 161.07 93.9235 161.259C93.3494 161.525 92.7933 161.828 92.2588 162.166C89.7355 163.711 87.3575 165.481 85.1538 167.454C76.6445 175.104 70.0867 184.672 66.0256 195.363C64.4273 199.483 63.1487 203.719 62.2012 208.035C61.6576 210.494 61.2122 212.972 60.8648 215.469C60.6203 217.215 62.7831 216.973 63.6703 216.01C63.8809 215.782 63.6334 215.694 63.4188 215.676L63.7471 215.91C69.9988 204.984 79.5619 194.92 90.7857 189.063C94.1405 187.188 97.8368 186.002 101.657 185.575C101.957 185.55 102.805 185.438 102.946 185.111C103.086 184.784 102.828 184.759 102.487 184.788Z" fill="black"/>
<path d="M190.083 215.93C190.065 216.001 190.033 216.068 189.988 216.127C189.944 216.186 189.889 216.235 189.825 216.273C189.762 216.31 189.692 216.335 189.619 216.345C189.546 216.356 189.472 216.352 189.4 216.333C189.01 216.234 188.932 215.758 188.984 215.869C188.253 211.225 187.152 206.648 185.691 202.18C182.155 191.351 174.119 177.373 164.247 172.486C162.513 171.626 160.996 170.387 159.81 168.859C158.624 167.332 157.799 165.556 157.397 163.665C156.996 161.774 157.028 159.817 157.491 157.94C157.954 156.063 158.836 154.315 160.071 152.827C161.307 151.338 162.863 150.149 164.624 149.346C166.385 148.544 168.305 148.15 170.24 148.194C172.175 148.237 174.075 148.718 175.798 149.599C177.521 150.48 179.022 151.739 180.189 153.281C180.348 153.631 200.172 176.699 190.083 215.93Z" fill="url(#paint5_linear)"/>
<path d="M189.126 216.082L189.596 215.969C190.101 215.91 190.224 215.867 189.964 215.843C189.829 216.061 189.946 215.655 189.938 215.716C189.933 215.282 189.87 214.85 189.751 214.432C189.575 213.418 189.383 212.406 189.176 211.397C188.764 209.404 188.285 207.427 187.738 205.468C186.828 202.187 185.69 198.975 184.331 195.853C181.775 189.808 178.285 184.2 173.989 179.235C171.996 176.933 169.691 174.92 167.14 173.255C165.907 172.477 164.551 171.912 163.364 171.062C162.115 170.171 161.04 169.059 160.191 167.782C158.572 165.298 157.867 162.329 158.199 159.383C158.53 156.437 159.876 153.698 162.007 151.635C163.994 149.839 166.548 148.795 169.226 148.683C171.904 148.571 174.537 149.398 176.668 151.022C178.192 152.242 179.507 153.704 180.56 155.349C184.392 160.959 187.277 167.159 189.103 173.702C192.43 185.667 192.875 198.249 190.4 210.419C190.034 212.317 189.602 214.201 189.126 216.075C188.995 216.589 190.899 216.311 191.037 215.77C194.331 202.843 194.991 189.219 191.836 176.199C190.108 168.794 187.077 161.753 182.885 155.405C182.009 154.012 180.997 152.71 179.862 151.518C177.993 149.772 175.68 148.57 173.175 148.043C170.671 147.516 168.069 147.684 165.653 148.528C163.003 149.36 160.673 150.983 158.976 153.18C157.279 155.376 156.298 158.04 156.165 160.811C156.077 163.723 156.972 166.581 158.704 168.925C159.604 170.15 160.716 171.205 161.987 172.041C163.293 172.899 164.735 173.517 166.033 174.398C171.631 178.202 175.826 183.953 179.116 189.774C182.628 196.057 185.216 202.812 186.8 209.832C187.031 210.828 187.244 211.83 187.441 212.836C187.533 213.301 187.621 213.768 187.705 214.237C187.721 214.325 188.074 215.932 188.096 215.914C188.065 215.94 188.042 215.974 188.027 216.012C188.013 216.051 188.008 216.092 188.014 216.132C188.502 217.41 190.541 216.655 191.044 215.77C191.235 215.432 189.425 215.561 189.126 216.082Z" fill="black"/>
<path d="M122.986 187.429C106.239 198.549 94.1744 218.266 95.6405 216.104C95.5682 216.21 95.4618 216.288 95.3389 216.325C95.2161 216.362 95.0842 216.356 94.9653 216.308C94.8463 216.26 94.7474 216.173 94.6851 216.061C94.6227 215.949 94.6006 215.819 94.6225 215.692C101.586 175.759 120.354 160.962 120.284 161.071C122.704 158.709 125.964 157.404 129.348 157.443C132.731 157.482 135.96 158.862 138.325 161.279C140.69 163.696 141.996 166.952 141.957 170.331C141.918 173.71 140.537 176.935 138.116 179.297C134.262 183.061 131.584 181.659 122.986 187.429Z" fill="url(#paint6_linear)"/>
<path d="M122.248 187.396C111.899 194.315 103.2 203.882 96.1303 214.066C95.7311 214.647 95.3259 215.232 94.9427 215.828C94.8478 215.977 94.5265 216.327 94.5594 216.526C94.6303 216.974 96.0714 216.426 96.2621 216.3C96.396 216.202 96.509 216.078 96.5944 215.936C96.809 215.623 95.0155 215.948 94.77 216.173L94.5704 216.357L95.3628 215.984L95.1253 216.047L95.9986 215.974C95.2161 215.833 95.8768 213.85 95.9816 213.299C96.1732 212.287 96.3755 211.277 96.5884 210.271C96.953 208.548 97.3492 206.831 97.7771 205.121C98.5961 201.855 99.5402 198.624 100.609 195.428C102.347 190.204 104.482 185.12 106.997 180.222C110.044 174.092 113.952 168.429 118.601 163.402C119.186 162.791 119.788 162.193 120.416 161.627C120.58 161.48 120.767 161.344 120.915 161.188C121.215 160.889 120.942 161.158 120.616 161.294L119.318 161.328C119.328 161.797 120.995 161.154 121.157 161C122.608 159.578 124.426 158.586 126.408 158.136C128.391 157.686 130.46 157.795 132.384 158.451C134.209 159.063 135.87 160.084 137.24 161.436C138.609 162.787 139.652 164.434 140.287 166.249C140.923 168.064 141.134 170 140.906 171.91C140.678 173.819 140.016 175.651 138.971 177.266C137.448 179.548 135.215 181.265 132.616 182.15C128.974 183.505 125.496 185.264 122.248 187.394C121.449 187.922 123.369 187.693 123.726 187.459C127.05 185.358 130.58 183.601 134.261 182.215C137.186 181.102 139.646 179.028 141.235 176.334C142.244 174.502 142.796 172.453 142.845 170.362C142.893 168.271 142.437 166.199 141.513 164.322C140.59 162.445 139.228 160.817 137.542 159.577C135.855 158.336 133.895 157.52 131.826 157.197C129.593 156.885 127.319 157.077 125.171 157.76C123.023 158.442 121.055 159.597 119.413 161.139L121.251 160.811C121.245 160.468 120.035 160.811 119.953 160.845C118.969 161.396 118.097 162.127 117.384 163.001C115.474 164.951 113.706 167.035 112.095 169.238C105.958 177.789 101.259 187.283 98.1843 197.346C96.8948 201.359 95.8119 205.436 94.9097 209.553C94.6762 210.616 94.4546 211.685 94.245 212.76C93.9291 213.798 93.7322 214.868 93.6582 215.95C93.748 217.361 95.8898 216.607 96.5146 216.035L94.6892 216.272C94.5634 216.456 94.6213 216.345 94.781 216.236L96.4846 216.01C96.5026 216.127 96.7102 215.697 96.796 215.563C97.0954 215.099 97.4008 214.642 97.7122 214.189C98.841 212.539 100.026 210.927 101.243 209.342C105.082 204.315 109.329 199.611 113.941 195.28C116.986 192.416 120.257 189.8 123.722 187.46C124.518 186.931 122.603 187.159 122.248 187.396Z" fill="black"/>
<path d="M166.252 113.744C169.353 99.0563 168.981 83.8487 165.167 69.3293C161.354 54.8098 154.202 41.3786 144.281 30.1024L144.23 30.0426C143.591 29.3266 142.807 28.7529 141.931 28.3589C141.055 27.965 140.106 27.7595 139.145 27.7559C138.185 27.7523 137.234 27.9506 136.355 28.338C135.476 28.7254 134.688 29.2932 134.043 30.0044C133.398 30.7156 132.91 31.5545 132.611 32.4663C132.312 33.3782 132.209 34.3427 132.307 35.2972C132.406 36.2517 132.704 37.1748 133.183 38.0065C133.663 38.8382 134.312 39.5599 135.088 40.1247C156.976 56.0198 165.862 87.7501 158.71 110.745C152.351 109.301 145.736 109.428 139.438 111.115C138.145 89.1565 125.675 68.0943 110.655 54.3532C110.16 53.903 109.58 53.5574 108.948 53.3372C108.316 53.1171 107.647 53.0268 106.979 53.072C106.312 53.1171 105.66 53.2967 105.064 53.5999C104.468 53.9032 103.939 54.3238 103.51 54.8364C103.081 55.349 102.76 55.9431 102.567 56.5828C102.374 57.2226 102.312 57.8947 102.386 58.5588C102.46 59.2229 102.668 59.8652 102.997 60.4471C103.326 61.0289 103.769 61.5382 104.3 61.9444L104.347 61.9793C122.175 75.548 131.236 97.5271 130.767 114.022C113.774 121.213 96.808 137.074 86.8347 158.859C85.9238 160.859 85.4219 163.02 85.3584 165.217C85.295 167.413 85.6712 169.6 86.465 171.649C87.2588 173.698 88.4543 175.568 89.9814 177.15C91.5085 178.732 93.3363 179.993 95.3579 180.86C117.972 190.733 146.064 191.112 170.779 180.367C177.591 177.405 183.443 168.863 183.901 161.456C185.496 135.638 177.948 120.407 166.252 113.744Z" fill="url(#paint7_linear)"/>
<path d="M167.224 113.655C169.943 100.928 170.035 87.7803 167.495 75.0162C164.8 61.3028 159.174 48.3314 151.001 36.9875C149.912 35.4817 148.781 34.0076 147.608 32.5649C146.627 31.233 145.524 29.9948 144.314 28.866C143.253 28.0116 141.99 27.4425 140.646 27.2129C139.302 26.9833 137.921 27.1009 136.636 27.5543C135.319 27.9885 134.142 28.7631 133.222 29.7994C132.303 30.8357 131.675 32.0966 131.402 33.454C131.174 34.866 131.355 36.3137 131.925 37.6258C132.495 38.9379 133.429 40.0595 134.618 40.8578C144.787 48.4201 152.091 59.3145 156.22 71.2166C160.14 82.5157 161.417 94.996 158.821 106.736C158.515 108.116 158.153 109.482 157.735 110.833L159.275 110.135C152.673 108.667 145.816 108.796 139.274 110.511L140.399 110.855C139.125 90.2774 128.546 70.6694 114.035 56.3163C112.524 54.8212 111.005 53.0091 108.839 52.5387C107.893 52.3424 106.916 52.361 105.978 52.5931C105.041 52.8251 104.168 53.2647 103.424 53.8793C102.647 54.5176 102.056 55.3536 101.715 56.2992C101.374 57.2449 101.295 58.2649 101.486 59.2517C101.931 61.4386 103.682 62.525 105.29 63.8368C112.837 70.0756 118.951 77.8629 123.219 86.6702C127.356 95.1355 130.032 104.63 129.794 114.107L130.355 113.508C115.163 119.987 102.473 131.731 93.3901 145.37C90.7895 149.278 88.4753 153.368 86.4658 157.608C84.7609 160.891 84.0904 164.611 84.5426 168.282C85.0775 171.861 86.7433 175.177 89.2972 177.745C92.1855 180.635 95.972 182.072 99.7455 183.447C122.163 191.312 146.679 190.766 168.722 181.91C172.591 180.493 176.049 178.141 178.785 175.063C181.464 172.012 183.387 168.373 184.396 164.442C184.829 162.332 185.041 160.184 185.031 158.03C185.105 155.726 185.107 153.419 185.019 151.115C184.52 138.103 181.127 123.724 170.268 115.385C169.229 114.59 168.138 113.866 167.003 113.216C166.334 112.832 164.607 113.757 165.505 114.27C176.214 120.423 180.964 132.495 182.491 144.211C183.018 148.421 183.23 152.665 183.125 156.907C183.04 161.126 182.75 165.05 180.9 168.91C179.185 172.579 176.577 175.761 173.315 178.165C171.626 179.286 169.808 180.199 167.9 180.885C165.65 181.788 163.368 182.601 161.052 183.324C143.56 188.81 124.855 189.134 107.183 184.258C99.8483 182.195 91.2503 179.767 87.8041 172.266C86.3258 169.065 85.9402 165.467 86.7063 162.025C87.2507 160.008 88.0337 158.063 89.0387 156.231C90.0081 154.275 91.0431 152.352 92.1435 150.463C100.259 136.531 112.042 124.227 126.453 116.757C127.998 115.955 129.574 115.213 131.178 114.532C131.393 114.44 131.732 114.201 131.738 113.934C132.149 97.4948 124.481 80.8791 113.413 68.9929C111.833 67.2966 110.166 65.6843 108.417 64.1627C106.888 62.833 104.544 61.5951 103.708 59.6843C103.242 58.664 103.189 57.5037 103.559 56.4453C103.93 55.3868 104.695 54.5119 105.695 54.0029C108.117 52.9444 109.986 54.9309 111.573 56.4668C118.536 63.2145 124.419 70.9908 129.017 79.5235C134.429 89.3374 137.655 100.203 138.473 111.377C138.502 111.839 139.34 111.784 139.599 111.721C145.663 110.129 152.02 110.004 158.142 111.358C158.44 111.449 158.76 111.428 159.044 111.3C159.327 111.171 159.554 110.944 159.682 110.661C162.987 99.9109 162.745 88.2181 160.105 77.3526C157.375 65.7084 151.63 54.9846 143.446 46.2542C141.434 44.1563 139.265 42.2137 136.959 40.4432C135.603 39.5993 134.5 38.4062 133.765 36.9895C133.205 35.6655 133.1 34.1933 133.466 32.8032C133.645 32.0608 133.973 31.3621 134.428 30.7489C134.884 30.1358 135.459 29.6207 136.119 29.2345C136.779 28.8483 137.51 28.5988 138.268 28.5011C139.026 28.4034 139.797 28.4593 140.533 28.6657C141.895 29.1402 143.086 30.0073 143.955 31.1575C145.138 32.5211 146.282 33.9165 147.386 35.3439C155.4 45.7553 161.198 57.6928 164.425 70.4233C167.651 83.1538 168.238 96.4087 166.149 109.374C165.901 110.871 165.614 112.361 165.288 113.844C165.089 114.707 167.052 114.446 167.224 113.655Z" fill="black"/>
<path d="M129.521 125.168C132.69 117.498 132.159 108.587 130.334 100.659C127.956 90.5896 123.371 81.1726 116.908 73.0871C113.423 68.8518 109.499 64.9965 105.201 61.5857C102.957 59.7327 102.539 56.0398 105.067 54.1719C107.862 52.1097 110.633 55.4767 112.453 57.2828C121.096 65.8472 127.977 76.0194 132.706 87.2249C138.05 100.023 140.191 114.186 137.221 127.841C137.086 128.46 139.011 128.153 139.139 127.564C144.611 102.386 133.124 76.2408 115.837 58.1798C114.799 57.0947 113.735 56.0358 112.643 55.0032C111.717 53.9556 110.526 53.1758 109.195 52.7456C108.03 52.474 106.814 52.5169 105.672 52.8699C104.529 53.2228 103.501 53.8731 102.693 54.754C101.87 55.6995 101.413 56.9078 101.403 58.1606C101.394 59.4135 101.834 60.6283 102.643 61.5857C103.521 62.4513 104.47 63.2421 105.481 63.95C106.705 64.9646 107.891 66.0232 109.038 67.1256C117.144 74.963 123.228 84.6442 126.77 95.3414C129.899 104.775 131.515 115.986 127.607 125.443C127.395 125.954 129.285 125.747 129.525 125.166L129.521 125.168Z" fill="black"/>
<path d="M154.215 122.494C154.256 122.4 154.822 121.208 154.457 121.825C154.593 121.595 154.82 121.37 154.968 121.136C155.372 120.495 155.758 119.843 156.126 119.182C156.844 117.884 157.493 116.549 158.071 115.184C159.218 112.454 160.116 109.627 160.755 106.737C162.088 100.548 162.458 94.1907 161.853 87.8889C160.7 74.4541 155.722 61.6291 147.508 50.9276C145.441 48.2782 143.157 45.805 140.68 43.5338C139.464 42.4194 138.2 41.3599 136.887 40.3552C135.366 39.193 134.039 38.1255 133.494 36.2027C132.489 32.6803 134.85 28.6365 138.684 28.473C142.682 28.3026 145.145 32.46 147.294 35.2329C156.995 47.7972 163.44 62.5597 166.057 78.2095C168.551 92.5562 167.609 107.289 163.306 121.202C162.803 122.775 162.253 124.331 161.655 125.871C161.256 126.906 163.188 126.905 163.501 126.098C168.699 112.28 170.483 97.4131 168.699 82.7596C166.86 66.7027 161.053 51.3543 151.8 38.0956C150.607 36.3938 149.359 34.7326 148.057 33.1118C146.93 31.5463 145.652 30.0944 144.243 28.777C142.952 27.7626 141.383 27.1651 139.744 27.0641C138.105 26.9632 136.474 27.3635 135.069 28.2119C133.611 29.0691 132.48 30.3866 131.854 31.9566C131.228 33.5266 131.143 35.26 131.613 36.8835C132.656 40.2505 136.23 41.9928 138.712 44.2156C149.221 53.6258 156.015 66.8715 158.796 80.5967C161.363 93.2663 160.685 107.322 154.352 118.84C153.986 119.504 153.577 120.141 153.201 120.798C153.125 120.935 153.041 121.066 152.949 121.192C152.729 121.538 152.536 121.9 152.372 122.276C151.929 123.287 153.869 123.295 154.217 122.503L154.215 122.494Z" fill="black"/>
<path d="M164.447 51.8964C163.133 59.4487 156.028 62.2785 149.321 59.051C145.604 57.2569 142.693 54.1809 139.881 51.1668C137.69 48.8244 135.5 46.4784 133.311 44.1288L115.596 25.1548C112.86 22.2184 109.921 18.676 110.525 14.7239C111.024 11.4964 113.902 9.01751 117.046 8.1623C120.19 7.3071 123.548 7.77357 126.711 8.58093C139.394 11.8074 148.69 19.7594 155.493 30.0538C157.187 32.6393 158.724 35.3237 160.097 38.0925C162.355 42.6516 165.363 46.6077 164.447 51.8964Z" fill="white"/>
<path d="M163.485 52.0303C162.732 56.0372 160.038 59.5816 155.71 59.8388C150.819 60.1298 146.612 56.7489 143.355 53.4975C139.341 49.4926 135.57 45.2245 131.7 41.079L119.502 28.0087C116.249 24.5201 110.666 19.97 111.487 14.5956C111.694 13.4861 112.15 12.4381 112.821 11.5304C113.492 10.6227 114.361 9.87909 115.362 9.35569C118.073 7.86058 121.351 8.08086 124.29 8.66495C133.482 10.6344 141.837 15.3993 148.207 22.3044C151.995 26.386 155.234 30.9429 157.843 35.8601C159.246 38.4516 160.673 41.0691 161.94 43.7264C163.297 46.268 163.838 49.1652 163.488 52.0243C163.379 52.729 165.316 52.3921 165.412 51.7671C166.291 46.0677 162.747 40.9863 160.211 36.1671C157.702 31.3007 154.607 26.7593 150.993 22.6443C144.144 14.9853 134.799 9.1703 124.554 7.49178C119.633 6.68243 113.627 7.47384 110.682 12.012C107.502 16.913 111.375 21.9456 114.696 25.5239C119.249 30.4298 123.816 35.3225 128.399 40.2019C132.86 44.9793 137.188 49.9411 141.852 54.5221C145.659 58.2619 150.493 61.5342 156.088 60.7777C158.407 60.4814 160.567 59.4439 162.247 57.82C163.926 56.1961 165.035 54.0731 165.406 51.7681C165.539 51.0784 163.603 51.3973 163.485 52.0303Z" fill="black"/>
<path d="M139.576 23.0226C140.69 21.6862 139.177 18.5964 136.199 16.1214C133.22 13.6463 129.902 12.7233 128.789 14.0597C127.676 15.3961 129.188 18.4859 132.167 20.961C135.146 23.436 138.463 24.359 139.576 23.0226Z" fill="black"/>
<path d="M130.554 71.7169C129.156 79.7815 121.563 82.8016 114.403 79.3559C110.433 77.4461 107.326 74.1559 104.323 70.9384C103.648 70.2118 102.972 69.4961 102.296 68.7695C94.3361 60.2387 86.3685 51.7039 78.3936 43.1652C75.4744 40.0304 72.3356 36.2527 72.9793 32.0285C73.5103 28.5828 76.5862 25.9355 79.9426 25.0224C83.2989 24.1094 86.8849 24.6068 90.2622 25.469C105.56 29.3613 116.253 39.6985 123.696 52.8067C124.465 54.1775 125.202 55.5683 125.91 56.979C128.319 61.8471 131.531 66.0713 130.554 71.7169Z" fill="white"/>
<path d="M129.576 71.7913C128.768 76.141 125.756 79.7124 121.146 80.0313C115.843 80.3981 111.296 76.754 107.781 73.2146C103.373 68.7761 99.2042 64.0834 94.9346 59.5114C90.5027 54.7609 86.0708 50.0121 81.6389 45.2649C78.2366 41.6228 72.1986 36.4198 74.2645 30.7593C76.4961 24.6473 84.0451 24.735 89.2688 26.0059C98.8378 28.4018 107.467 33.6101 114.04 40.957C117.724 45.065 120.9 49.6005 123.5 54.4659C125.006 57.2428 126.535 60.0476 127.906 62.8983C129.374 65.6164 129.96 68.7232 129.581 71.7883C129.431 72.7541 131.4 72.5039 131.534 71.6398C132.469 65.6344 128.788 60.3765 126.151 55.2872C123.608 50.2901 120.493 45.6044 116.869 41.3238C109.897 33.035 100.462 27.1793 89.9335 24.6054C84.3875 23.3097 77.6129 23.3216 73.7515 28.2206C69.8532 33.1655 73.1018 38.6964 76.6877 42.6893C81.5161 48.0718 86.5542 53.2708 91.4864 58.5545C96.3139 63.7276 101.027 69.0432 106.016 74.0618C110.126 78.1963 115.397 82.1444 121.577 81.3789C124.073 81.0639 126.397 79.9416 128.194 78.1835C129.991 76.4255 131.162 74.1282 131.529 71.6427C131.707 70.6899 129.737 70.9311 129.576 71.7913Z" fill="black"/>
<path d="M102.768 40.3022C103.957 38.8752 102.342 35.5764 99.1623 32.9341C95.9822 30.2919 92.4407 29.3067 91.252 30.7336C90.0632 32.1606 91.6776 35.4594 94.8576 38.1016C98.0377 40.7439 101.579 41.7291 102.768 40.3022Z" fill="black"/>
<path d="M137.001 163.928C136.759 163.433 136.481 162.957 136.169 162.503C133.166 158.004 129.291 159.173 125.153 158.971C122.601 158.95 120.147 157.992 118.257 156.28C117.235 155.359 116.336 154.31 115.584 153.158C112.789 148.907 112.282 144.326 108.964 143.074C107.65 142.649 106.24 142.618 104.909 142.983C97.5514 144.555 94.8048 166.316 107.316 174.997C119.423 183.401 142.818 175.449 137.001 163.928Z" fill="black"/>
<path d="M137.885 163.506C137.374 162.348 136.619 161.313 135.672 160.472C134.725 159.631 133.607 159.004 132.395 158.634C130.134 158.049 127.795 158.39 125.492 158.278C123.913 158.21 122.369 157.792 120.971 157.055C119.573 156.319 118.356 155.281 117.408 154.018C115.571 151.725 114.581 149.007 113.284 146.413C112.317 144.477 111.041 142.753 108.83 142.227C106.943 141.792 104.963 142.034 103.236 142.91C100.727 144.281 99.3847 147.136 98.6202 149.761C96.4984 157.037 97.8447 165.87 102.62 171.842C108.046 178.62 117.306 180.242 125.466 178.585C132.093 177.238 141.985 171.868 137.973 163.671C137.569 162.845 135.665 163.41 136.045 164.188C139.255 170.743 132.611 175.252 127.021 176.821C119.861 178.829 111.18 177.965 105.726 172.499C100.601 167.362 98.8528 159.424 99.9516 152.406C100.367 149.753 101.201 146.768 103.145 144.796C103.593 144.353 104.125 144.004 104.711 143.773C105.297 143.541 105.924 143.43 106.555 143.448C109.182 143.348 110.56 145.269 111.594 147.41C112.83 149.968 113.847 152.623 115.647 154.864C117.378 157.16 119.868 158.77 122.675 159.406C125.052 159.89 127.45 159.527 129.846 159.716C132.868 159.955 134.775 161.726 136.134 164.352C136.505 165.1 138.346 164.399 137.885 163.506Z" fill="black"/>
<path d="M136.17 162.503C123.761 177.255 120.401 169.487 125.152 158.971C129.291 159.173 133.166 158.004 136.17 162.503Z" fill="white"/>
<path d="M135.38 162.285C133.61 164.498 131.604 166.513 129.398 168.292C128.733 168.819 128.014 169.275 127.254 169.651C127.094 169.724 126.934 169.792 126.771 169.857C126.512 169.957 126.97 169.797 126.715 169.877C126.64 169.899 126.567 169.923 126.492 169.944C126.418 169.965 125.961 170.043 126.262 170.004C126.175 170.016 125.708 170.041 125.991 170.043C125.892 170.043 125.792 170.033 125.692 170.029C125.481 170.02 125.785 170.078 125.524 169.995L125.37 169.946C125.197 169.888 125.515 170.021 125.356 169.939C125.247 169.883 125.143 169.821 125.042 169.752C124.901 169.653 125.142 169.847 125.013 169.73C124.974 169.695 124.934 169.66 124.9 169.621C124.826 169.542 124.757 169.459 124.692 169.373C124.555 169.201 124.451 169.005 124.385 168.795C124.004 167.575 123.94 166.278 124.198 165.026C124.542 162.953 125.168 160.937 126.06 159.034L124.797 159.591C126.702 159.676 128.635 159.445 130.53 159.715C131.505 159.874 132.434 160.241 133.254 160.792C134.073 161.342 134.764 162.063 135.279 162.905C135.701 163.525 137.561 162.846 137.058 162.107C136.458 161.175 135.67 160.376 134.745 159.764C133.82 159.151 132.777 158.738 131.683 158.549C129.63 158.356 127.567 158.291 125.506 158.355C125.099 158.336 124.431 158.489 124.243 158.911C123.35 160.813 122.702 162.82 122.313 164.884C121.984 166.329 122.026 167.832 122.434 169.256C122.614 169.81 122.955 170.298 123.414 170.658C123.873 171.018 124.429 171.232 125.01 171.274C126.725 171.27 128.39 170.697 129.744 169.646C132.461 167.685 134.889 165.354 136.959 162.72C137.026 162.665 137.075 162.591 137.101 162.508C137.128 162.425 137.129 162.337 137.107 162.253C137.084 162.169 137.038 162.093 136.973 162.035C136.909 161.976 136.829 161.937 136.743 161.923C136.504 161.863 136.253 161.865 136.015 161.929C135.776 161.992 135.558 162.114 135.38 162.285Z" fill="black"/>
<path d="M115.583 153.157C109.884 160.382 97.592 162.486 108.964 143.073C112.278 144.328 112.788 148.907 115.583 153.157Z" fill="white"/>
<path d="M114.773 152.872C114.507 153.208 114.227 153.535 113.933 153.85C113.787 154.007 113.633 154.16 113.486 154.312L113.257 154.534L113.141 154.644C113.234 154.557 113.152 154.633 113.103 154.677C112.492 155.229 111.84 155.735 111.152 156.189L110.903 156.349L110.777 156.426C110.659 156.499 110.921 156.342 110.802 156.411C110.626 156.511 110.45 156.61 110.27 156.71C109.948 156.881 109.617 157.039 109.279 157.179C109.198 157.211 109.116 157.241 109.035 157.278C108.867 157.349 109.235 157.215 109.013 157.285C108.845 157.339 108.678 157.397 108.507 157.445C108.355 157.487 108.2 157.523 108.044 157.557C107.998 157.567 107.775 157.607 107.95 157.577C108.124 157.547 107.85 157.59 107.804 157.596C107.661 157.613 107.517 157.625 107.374 157.631C107.305 157.631 107.235 157.631 107.166 157.631C107.353 157.631 107.291 157.639 107.166 157.631C107.041 157.623 106.909 157.598 106.78 157.581C106.564 157.552 106.88 157.619 106.774 157.581C106.709 157.557 106.641 157.542 106.574 157.519C106.48 157.487 106.203 157.336 106.411 157.46C106.302 157.395 106.198 157.33 106.094 157.26C106.046 157.226 106.003 157.185 105.958 157.147C105.98 157.166 106.038 157.246 105.938 157.121C105.857 157.021 105.772 156.921 105.699 156.809C105.669 156.762 105.642 156.709 105.613 156.665C105.522 156.516 105.653 156.774 105.584 156.609C105.524 156.472 105.473 156.331 105.431 156.187C105.391 156.048 105.357 155.907 105.332 155.765C105.318 155.684 105.308 155.603 105.297 155.522C105.291 155.48 105.288 155.437 105.284 155.395C105.276 155.318 105.284 155.483 105.284 155.35C105.258 154.477 105.356 153.605 105.574 152.759C106.532 149.378 107.984 146.156 109.884 143.198L108.406 143.737C110.025 144.373 110.922 146.03 111.628 147.525C112.515 149.615 113.541 151.644 114.699 153.597C115.174 154.327 117.013 153.59 116.464 152.748C115.281 150.714 114.221 148.612 113.287 146.453C112.588 144.684 111.24 143.249 109.517 142.439C109.246 142.351 108.953 142.357 108.686 142.455C108.418 142.552 108.19 142.736 108.039 142.978C106.217 145.893 104.782 149.033 103.771 152.318C103.327 153.936 102.98 155.898 103.814 157.453C105.331 160.286 109.515 158.812 111.598 157.601C113.44 156.53 115.064 155.125 116.389 153.458C116.457 153.388 116.505 153.301 116.53 153.207C116.554 153.112 116.554 153.013 116.529 152.919C116.503 152.825 116.454 152.739 116.386 152.669C116.317 152.599 116.232 152.549 116.138 152.522C115.901 152.445 115.647 152.436 115.405 152.498C115.163 152.56 114.944 152.69 114.773 152.872Z" fill="black"/>
<path d="M125.153 158.971C116.62 172.817 106.016 168.578 115.585 153.158C116.338 154.31 117.236 155.359 118.259 156.28C120.148 157.992 122.602 158.95 125.153 158.971Z" fill="white"/>
<path d="M124.201 159.137C122.895 161.342 121.251 163.33 119.329 165.027C118.668 165.597 117.944 166.088 117.17 166.492C117.078 166.538 116.985 166.581 116.891 166.624C116.844 166.646 116.655 166.724 116.799 166.667C116.71 166.703 116.62 166.738 116.529 166.767C116.438 166.796 116.242 166.861 116.442 166.801C116.356 166.827 116.27 166.849 116.183 166.873C115.954 166.939 116.292 166.859 116.116 166.89L115.903 166.928C115.768 166.952 116.026 166.928 115.796 166.939C115.762 166.939 115.54 166.953 115.633 166.951C115.726 166.949 115.539 166.951 115.509 166.951C115.435 166.951 115.361 166.943 115.287 166.936C115.24 166.937 115.194 166.93 115.149 166.916C114.769 166.85 114.408 166.7 114.095 166.475C113.781 166.251 113.522 165.959 113.337 165.621C112.699 164.234 112.568 162.668 112.965 161.195C113.658 158.272 114.868 155.495 116.536 152.996L114.62 153.418C115.761 155.236 117.3 156.772 119.12 157.912C120.778 158.83 122.635 159.334 124.53 159.379C125.011 159.401 125.488 159.274 125.894 159.014C126.183 158.81 126.167 158.59 125.775 158.571C124.022 158.526 122.309 158.042 120.793 157.163C119.085 156.068 117.636 154.614 116.548 152.903C116.238 152.438 114.864 152.951 114.633 153.327C113.012 155.769 111.818 158.469 111.105 161.312C110.623 162.914 110.736 164.637 111.424 166.163C113.26 169.309 117.957 167.243 120.128 165.651C122.539 163.772 124.567 161.449 126.104 158.809C126.296 158.501 125.414 158.589 125.328 158.603C124.898 158.632 124.495 158.823 124.201 159.137Z" fill="black"/>
<path d="M130.553 71.7158C129.156 79.7804 121.563 82.8006 114.403 79.3548C110.433 77.4451 107.326 74.1548 104.323 70.9373C103.647 70.2107 102.972 69.4951 102.296 68.7684C105.24 59.5256 114.724 50.9377 123.694 52.8056C124.462 54.1764 125.2 55.5672 125.907 56.978C128.318 61.846 131.53 66.0702 130.553 71.7158Z" fill="url(#paint8_linear)"/>
<path d="M129.59 71.8406C128.942 75.3292 126.958 78.6314 123.434 79.7936C119.655 81.0405 115.582 79.4836 112.472 77.3137C110.685 76.0217 109.021 74.5672 107.503 72.9689C106.776 72.2293 106.068 71.4738 105.36 70.7163L104.037 69.2999C103.438 68.655 103.313 68.4218 103.617 67.6054C105.116 63.646 107.583 60.1237 110.792 57.3589C114.196 54.4295 118.544 52.435 123.101 53.3171L122.73 53.062C124.435 56.118 126.079 59.2418 127.643 62.3725C129.14 65.3628 130.115 68.4666 129.59 71.8416C129.477 72.5682 131.416 72.2343 131.516 71.5924C132.077 67.9872 131.017 64.6979 129.393 61.5094C128.538 59.8318 127.613 58.1912 126.765 56.5097C126.304 55.596 125.829 54.6886 125.341 53.7876C124.852 52.8855 124.791 52.3672 123.782 52.2008C117.479 51.1632 111.332 54.6019 107.162 59.0843C104.532 61.8953 102.544 65.2421 101.333 68.8942C101.32 68.9378 101.32 68.9839 101.332 69.0276C101.344 69.0713 101.367 69.111 101.4 69.1424C106.25 74.3464 111.595 80.904 119.294 81.2798C122.172 81.4684 125.017 80.5811 127.276 78.7906C129.535 77.0001 131.047 74.4343 131.516 71.5924C131.648 70.8787 129.71 71.1977 129.59 71.8406Z" fill="black"/>
<path d="M164.447 51.8964C163.133 59.4487 156.028 62.2785 149.321 59.051C145.603 57.2569 142.693 54.1809 139.881 51.1668C137.69 48.8244 135.5 46.4784 133.311 44.1288C134.183 36.5216 147.947 27.5908 155.493 30.0537C157.186 32.6393 158.724 35.3236 160.097 38.0925C162.354 42.6516 165.362 46.6077 164.447 51.8964Z" fill="url(#paint9_linear)"/>
<path d="M163.484 52.0214C163.301 53.339 162.85 54.6051 162.157 55.7415C161.465 56.8778 160.547 57.8602 159.459 58.6278C158.366 59.2665 157.149 59.6652 155.89 59.7972C154.631 59.9292 153.358 59.7915 152.156 59.3933C148.974 58.4783 146.288 56.3323 143.946 54.0707C141.351 51.5689 138.962 48.8517 136.506 46.2193C135.774 45.5893 135.113 44.8814 134.535 44.1082C134.236 43.577 134.39 43.1972 134.569 42.6131C134.9 41.5806 135.381 40.6023 135.997 39.7096C137.414 37.6724 139.176 35.8987 141.205 34.4687C143.311 32.904 145.659 31.692 148.155 30.8804C149.174 30.551 150.225 30.3299 151.291 30.2206C152.325 30.1209 154.101 29.9585 154.846 30.8137C155.556 31.7638 156.178 32.7763 156.704 33.8388C157.17 34.6435 157.622 35.4558 158.062 36.2758C159.005 38.044 159.901 39.8352 160.846 41.6024C162.596 44.8787 164.07 48.2278 163.484 52.0254C163.372 52.75 165.311 52.4151 165.41 51.7752C165.999 47.9527 164.637 44.5827 162.868 41.2645C160.93 37.6254 159.111 33.9325 156.887 30.4538C156.753 30.1562 156.544 29.8986 156.281 29.7063C156.017 29.514 155.707 29.3937 155.383 29.3574C154.778 29.2262 154.162 29.1485 153.544 29.1252C152.227 29.0827 150.91 29.2097 149.625 29.5029C146.768 30.1566 144.046 31.2988 141.578 32.8789C139.098 34.3855 136.891 36.2996 135.05 38.5404C134.266 39.5055 133.608 40.5654 133.09 41.6951C132.849 42.2231 132.657 42.7719 132.515 43.3348C132.303 44.2049 132.279 44.3654 132.906 45.0372C135.871 48.2108 138.756 51.4901 141.856 54.5342C144.405 57.037 147.324 59.3654 150.81 60.3761C153.872 61.3044 157.176 61.0048 160.021 59.5408C161.448 58.7385 162.675 57.6231 163.609 56.2786C164.542 54.9342 165.158 53.3958 165.41 51.7792C165.543 51.0625 163.605 51.3805 163.484 52.0214Z" fill="black"/>
<path d="M28.0447 17.5578C12.704 20.4334 3.81961 35.6906 1.05308 49.8872C-1.8911 64.9879 1.06805 82.8186 13.3657 93.1768C20.4916 99.1791 30.5208 102.247 39.7266 100.312C49.9464 98.1665 57.6342 90.0809 62.1423 81.0334C64.474 76.13 66.1359 70.9361 67.0835 65.5909C67.6057 63.2121 67.2677 60.7255 66.1294 58.5718C63.6114 53.9659 57.9725 51.5946 53.4215 49.5593C47.647 46.9777 41.5899 44.7121 36.503 40.8667C33.8785 38.9971 31.7582 36.5076 30.3314 33.6205C28.9047 30.7334 28.2157 27.5384 28.3262 24.3207C28.4133 22.2374 28.7044 20.1676 29.1954 18.1409C29.413 17.207 27.4409 17.4342 27.2423 18.2874C25.6724 25.0284 26.0886 32.1651 30.5687 37.7319C34.4101 42.5063 40.0809 45.3969 45.5591 47.8808C50.7069 50.2161 56.3458 52.098 60.8838 55.5557C62.6854 56.813 64.0774 58.5713 64.8869 60.6122C65.8759 63.4678 65.0506 66.4929 64.3939 69.3347C62.0615 79.4267 56.744 89.6772 47.8595 95.4653C39.3074 101.036 28.5517 100.37 19.83 95.5022C5.96936 87.7644 0.940299 71.1019 2.13693 56.0979C3.24674 42.1764 9.82473 25.8697 23.6773 20.2341C25.2007 19.6248 26.7815 19.17 28.396 18.8765C29.6156 18.6503 29.2423 17.3336 28.0447 17.5578Z" fill="black"/>
<defs>
<linearGradient id="paint0_linear" x1="145.953" y1="148.011" x2="178.325" y2="148.011" gradientUnits="userSpaceOnUse">
<stop offset="0.177083" stop-color="#8F6AFA"/>
<stop offset="0.651042" stop-color="#375CDC"/>
<stop offset="1" stop-color="#0099EE"/>
</linearGradient>
<linearGradient id="paint1_linear" x1="23.3555" y1="56.3379" x2="241.567" y2="56.3379" gradientUnits="userSpaceOnUse">
<stop offset="0.177083" stop-color="#8F6AFA"/>
<stop offset="0.651042" stop-color="#375CDC"/>
<stop offset="1" stop-color="#0099EE"/>
</linearGradient>
<linearGradient id="paint2_linear" x1="191.895" y1="0.576172" x2="264.468" y2="0.576172" gradientUnits="userSpaceOnUse">
<stop offset="0.177083" stop-color="#8F6AFA"/>
<stop offset="0.651042" stop-color="#375CDC"/>
<stop offset="1" stop-color="#0099EE"/>
</linearGradient>
<linearGradient id="paint3_linear" x1="0.979492" y1="18.2188" x2="70.0997" y2="18.2187" gradientUnits="userSpaceOnUse">
<stop offset="0.177083" stop-color="#8F6AFA"/>
<stop offset="0.651042" stop-color="#375CDC"/>
<stop offset="1" stop-color="#0099EE"/>
</linearGradient>
<linearGradient id="paint4_linear" x1="61.7559" y1="159.649" x2="116.462" y2="159.649" gradientUnits="userSpaceOnUse">
<stop offset="0.177083" stop-color="#8F6AFA"/>
<stop offset="0.651042" stop-color="#375CDC"/>
<stop offset="1" stop-color="#0099EE"/>
</linearGradient>
<linearGradient id="paint5_linear" x1="157.118" y1="148.19" x2="194.735" y2="148.19" gradientUnits="userSpaceOnUse">
<stop offset="0.177083" stop-color="#8F6AFA"/>
<stop offset="0.651042" stop-color="#375CDC"/>
<stop offset="1" stop-color="#0099EE"/>
</linearGradient>
<linearGradient id="paint6_linear" x1="94.6143" y1="157.442" x2="144.325" y2="157.442" gradientUnits="userSpaceOnUse">
<stop offset="0.177083" stop-color="#8F6AFA"/>
<stop offset="0.651042" stop-color="#375CDC"/>
<stop offset="1" stop-color="#0099EE"/>
</linearGradient>
<linearGradient id="paint7_linear" x1="85.3516" y1="27.7559" x2="189.051" y2="27.7559" gradientUnits="userSpaceOnUse">
<stop offset="0.177083" stop-color="#8F6AFA"/>
<stop offset="0.651042" stop-color="#375CDC"/>
<stop offset="1" stop-color="#0099EE"/>
</linearGradient>
<linearGradient id="paint8_linear" x1="102.296" y1="52.5479" x2="132.155" y2="52.5479" gradientUnits="userSpaceOnUse">
<stop offset="0.177083" stop-color="#8F6AFA"/>
<stop offset="0.651042" stop-color="#375CDC"/>
<stop offset="1" stop-color="#0099EE"/>
</linearGradient>
<linearGradient id="paint9_linear" x1="133.311" y1="29.6367" x2="166.181" y2="29.6367" gradientUnits="userSpaceOnUse">
<stop offset="0.177083" stop-color="#8F6AFA"/>
<stop offset="0.651042" stop-color="#375CDC"/>
<stop offset="1" stop-color="#0099EE"/>
</linearGradient>
</defs>
</svg>
