<svg width="943" height="943" viewBox="0 0 943 943" fill="none" xmlns="http://www.w3.org/2000/svg">
<path d="M323.365 786.045C169.458 708.427 106.626 521.232 183.028 367.928C259.43 214.625 446.134 153.283 600.041 230.91C753.948 308.538 816.78 495.724 740.378 649.027C663.977 802.331 477.272 863.664 323.365 786.045Z" fill="url(#paint0_linear)"/>
<path d="M463.839 829.2C414.228 829.2 364.871 817.544 319.126 794.46C160.844 714.635 96.0127 521.405 174.593 363.716C212.511 287.654 277.842 230.989 358.563 204.18C440.01 177.134 527.265 183.622 604.299 222.483C762.582 302.308 827.413 495.538 748.823 653.227C710.905 729.289 645.574 785.954 564.853 812.764C531.782 823.749 497.75 829.2 463.839 829.2ZM459.558 206.622C427.638 206.622 395.623 211.752 364.504 222.087C288.583 247.303 227.127 300.592 191.473 372.137C117.504 520.556 178.572 702.451 327.613 777.627C400.13 814.206 482.284 820.326 558.903 794.865C634.833 769.65 696.279 716.361 731.944 644.815C805.912 496.396 744.844 314.501 595.803 239.325C552.726 217.608 506.246 206.622 459.558 206.622Z" fill="black"/>
<path d="M617.737 237.572L581.13 219.221C571.832 214.563 568.032 203.133 572.69 193.826L576.792 185.641C581.451 176.343 592.88 172.542 602.187 177.201L638.794 195.552C648.092 200.21 651.893 211.639 647.234 220.947L643.132 229.132C638.474 238.439 627.045 242.23 617.737 237.572Z" fill="url(#paint1_linear)"/>
<path d="M626.187 244.282C622.632 244.282 619.021 243.481 615.635 241.783L579.028 223.432C573.408 220.613 569.202 215.756 567.212 209.749C565.213 203.743 565.666 197.34 568.495 191.71L572.597 183.534C578.434 171.897 592.683 167.182 604.31 172.991L640.917 191.342C646.537 194.162 650.743 199.018 652.733 205.025C654.722 211.032 654.279 217.435 651.46 223.055L647.348 231.25C643.208 239.501 634.844 244.282 626.187 244.282ZM619.86 233.343C623.226 235.031 627.083 235.295 630.695 234.107C634.307 232.9 637.23 230.382 638.918 227.016L643.029 218.821C644.717 215.455 644.991 211.598 643.784 207.995C642.586 204.374 640.059 201.46 636.692 199.772L600.085 181.422C593.107 177.904 584.535 180.743 581.018 187.759L576.916 195.934C575.228 199.31 574.954 203.167 576.152 206.77C577.349 210.391 579.877 213.305 583.243 214.993L619.86 233.343Z" fill="black"/>
<path d="M461.702 235.004C427.028 235.004 392.693 241.833 360.658 255.103C328.624 268.372 299.516 287.821 274.998 312.339C250.479 336.858 231.03 365.965 217.761 398C204.492 430.035 197.662 464.37 197.662 499.044C197.662 533.718 204.492 568.053 217.761 600.088C231.03 632.122 250.479 661.23 274.998 685.748C299.516 710.267 328.624 729.716 360.658 742.985C392.693 756.254 427.028 763.084 461.702 763.084C496.376 763.084 530.711 756.254 562.746 742.985C594.781 729.716 623.888 710.267 648.407 685.748C672.925 661.23 692.374 632.122 705.643 600.088C718.913 568.053 725.742 533.718 725.742 499.044C725.742 464.37 718.913 430.035 705.643 398C692.374 365.965 672.925 336.858 648.407 312.339C623.888 287.821 594.781 268.372 562.746 255.103C530.711 241.833 496.376 235.004 461.702 235.004V235.004Z" fill="white"/>
<path d="M649.865 220.48C647.573 220.48 645.555 218.801 645.206 216.463C644.82 213.898 646.593 211.493 649.167 211.106C669.677 208.013 687.462 195.113 696.741 176.602C704.37 161.373 705.615 144.078 700.249 127.915C694.884 111.743 683.539 98.6443 668.301 91.0154C653.071 83.3771 635.776 82.1323 619.613 87.5074C603.45 92.8731 590.343 104.217 582.704 119.447C572.775 139.269 573.076 160.147 583.553 178.243C584.864 180.497 584.091 183.382 581.837 184.693C579.583 186.004 576.707 185.221 575.396 182.977C563.269 162.023 562.873 137.977 574.274 115.222C583.034 97.739 598.075 84.7162 616.634 78.5489C635.192 72.3817 655.033 73.8151 672.516 82.5755C689.999 91.336 703.022 106.377 709.189 124.935C715.356 143.493 713.923 163.334 705.162 180.817C694.516 202.072 674.1 216.878 650.563 220.423C650.336 220.461 650.091 220.48 649.865 220.48Z" fill="black"/>
<path d="M596.829 541.144C600.525 541.219 603.816 540.55 604.854 536.382C605.881 532.261 604.146 529.366 600.374 527.583C599.516 527.178 598.696 526.697 597.838 526.282C572.48 513.721 547.114 501.17 521.276 488.373C522.897 486.686 524.152 485.309 525.491 484.007C535.619 474.2 545.68 464.336 555.94 454.671C559.099 451.7 560.712 448.984 558.09 444.807C555.601 440.846 552.47 441.129 548.679 442.431C535.355 447.013 521.973 451.455 508.611 455.925C506.951 456.481 505.235 456.896 503.094 457.5C503.67 427.663 504.217 398.779 504.782 369.895C504.858 366.198 504.169 362.898 500.067 361.785C495.664 360.597 493.419 363.256 491.675 366.821C483.046 384.398 449.881 470.57 449.881 470.57C449.881 470.57 355.204 466.166 333.949 465.76C329.941 465.685 326.075 465.873 324.971 470.739C323.953 475.247 326.867 477.312 330.441 478.849C331.308 479.226 332.119 479.745 332.968 480.16C358.485 492.806 384.003 505.461 409.926 518.304C408.512 519.851 407.455 521.143 406.258 522.303C395.724 532.515 385.21 542.737 374.611 552.865C371.989 555.374 369.566 557.797 371.763 561.682C374.177 565.945 377.713 564.69 381.278 563.483C396.413 558.372 411.576 553.318 427.287 548.056C427.362 550.008 427.494 551.47 427.466 552.931C426.985 580.684 426.495 608.446 425.957 636.198C425.882 640.112 426.419 643.582 430.908 644.647C435.378 645.704 437.452 642.875 439.15 639.338C443.846 629.569 481.424 543.643 481.424 543.643C481.424 543.643 582.769 540.861 596.829 541.144Z" fill="url(#paint2_linear)"/>
<path d="M432.791 648.096C431.876 648.096 430.896 647.974 429.84 647.728C421.041 645.654 421.211 637.337 421.268 634.602C421.796 607.415 422.267 580.238 422.748 553.061L418.297 554.551C406.293 558.558 394.552 562.491 382.822 566.451C379.219 567.668 372.005 570.091 367.696 562.51C363.66 555.352 368.875 550.354 371.392 547.95C380.794 538.972 390.111 529.929 399.447 520.876L402.2 518.207L329.721 482.251C329.353 482.053 328.986 481.836 328.599 481.666C321.809 478.743 319.046 474.207 320.404 468.181C322.422 459.289 330.598 459.421 334.078 459.534L397.834 460.703C400.437 460.75 402.511 462.891 402.464 465.503C402.417 468.077 400.314 470.133 397.749 470.133C397.721 470.133 397.693 470.133 397.664 470.133L333.889 468.964C329.948 468.87 329.844 469.219 329.608 470.265C329.401 471.189 329.287 471.689 332.343 473.009C333.012 473.292 333.654 473.632 334.276 473.99L335.115 474.443L412.064 512.578C413.394 513.238 414.327 514.473 414.601 515.925C414.874 517.378 414.45 518.877 413.45 519.98L412.215 521.357C411.291 522.394 410.461 523.328 409.574 524.186L406.01 527.647C396.665 536.718 387.32 545.781 377.909 554.768C377.23 555.418 375.796 556.795 375.655 557.332L376.343 558.445C376.881 558.606 378.616 557.917 379.681 557.559C391.544 553.542 403.303 549.619 415.317 545.592L425.832 542.075C427.237 541.613 428.783 541.82 430.009 542.669C431.235 543.518 431.98 544.885 432.037 546.375L432.122 548.148C432.188 549.374 432.235 550.439 432.216 551.514C431.735 579.257 431.245 607.029 430.707 634.781C430.641 638.214 431.103 638.327 432.018 638.544C432.98 638.742 433.442 638.874 434.932 635.781C439.138 627.011 443.428 618.288 447.719 609.556L461.383 581.737C461.392 581.7 461.411 581.671 461.421 581.643C461.505 581.464 461.6 581.285 461.685 581.096L462.863 578.71L462.967 578.757C464.363 576.57 466.164 575.07 469.181 576.551C472.256 578.06 472.067 580.568 471.237 582.831L471.322 582.869L470.37 584.811C470.304 584.953 470.238 585.075 470.172 585.208L456.177 613.705C451.906 622.418 447.624 631.122 443.428 639.864C442.381 642.042 439.477 648.096 432.791 648.096ZM597.241 544.347C597.081 544.347 596.911 544.347 596.751 544.347C590.244 544.215 580.465 543.961 570.441 543.706C558.776 543.414 546.772 543.103 539.209 542.961C536.606 542.914 534.531 540.764 534.579 538.161C534.626 535.587 536.729 533.531 539.294 533.531C539.322 533.531 539.35 533.531 539.378 533.531C546.96 533.673 558.993 533.984 570.686 534.286C580.691 534.54 590.451 534.795 596.939 534.917C600.042 534.908 600.108 534.512 600.296 533.729C600.636 532.371 600.683 531.419 598.382 530.334L595.76 528.976L519.208 491.077C517.859 490.408 516.907 489.144 516.652 487.664C516.397 486.183 516.86 484.674 517.897 483.58L519.359 482.043C520.368 480.978 521.273 480.016 522.225 479.101L529.75 471.812C537.37 464.419 544.999 457.016 552.731 449.727C555.155 447.445 554.976 447.171 554.117 445.813C553.382 444.635 553.203 444.37 550.242 445.389C538.615 449.387 526.94 453.282 515.275 457.176L510.127 458.902C508.948 459.289 507.75 459.619 506.402 459.987L504.403 460.534C502.96 460.958 501.423 460.647 500.234 459.741C499.056 458.827 498.367 457.403 498.396 455.913L500.084 368.308C500.14 365.187 499.603 365.036 498.848 364.838C497.934 364.602 497.387 364.423 495.925 367.403C487.296 384.98 478.64 402.558 469.936 420.098C468.785 422.436 465.947 423.389 463.618 422.238C461.279 421.078 460.327 418.249 461.487 415.92C470.181 398.38 478.838 380.822 487.457 363.244C490.701 356.653 495.387 354.144 501.309 355.738C506.883 357.247 509.636 361.537 509.514 368.497L507.939 449.689L512.277 448.246C523.913 444.361 535.559 440.466 547.158 436.487C549.638 435.619 557.192 433.017 562.086 440.797C567.244 449.001 561.171 454.725 559.181 456.601C551.477 463.862 543.895 471.227 536.304 478.592L529.166 485.514L602.39 521.819C608.312 524.61 610.943 529.919 609.424 536.021C608.066 541.537 603.964 544.347 597.241 544.347Z" fill="black"/>
<path d="M397.104 368.65C394.388 364.406 387.156 364.152 381.017 368.075C374.878 371.998 372.077 378.683 374.793 382.917L442.472 514.73L533.764 631.436C536.48 635.679 543.712 635.934 549.851 632.001C555.99 628.069 558.791 621.393 556.075 617.159L488.396 485.346L397.104 368.65ZM472.063 510.421C466.33 514.089 458.72 512.41 455.052 506.686C451.383 500.953 453.062 493.343 458.786 489.674C464.51 486.006 472.129 487.685 475.788 493.409C479.466 499.142 477.787 506.752 472.063 510.421Z" fill="url(#paint3_linear)"/>
<path d="M540.947 639.546C536.26 639.546 532.111 637.66 529.772 633.992L438.735 517.644L370.575 385.077C368.661 382.126 368.444 377.788 370.217 373.554C371.763 369.867 374.687 366.51 378.459 364.105C386.842 358.758 396.649 359.541 400.911 365.887L492.09 482.442L560.241 615.009C564.201 621.157 560.844 630.54 552.367 635.981C548.642 638.377 544.625 639.546 540.947 639.546ZM389.859 370.027C388.087 370.027 385.814 370.612 383.532 372.055C381.391 373.431 379.713 375.308 378.911 377.213C378.364 378.524 378.298 379.712 378.732 380.391L446.637 512.599L537.448 628.56C538.655 630.399 542.965 630.823 547.284 628.06C551.603 625.288 553.027 621.205 552.074 619.724L484.178 487.516L393.358 371.555C393.273 371.442 393.179 371.328 393.103 371.196C392.67 370.489 391.463 370.027 389.859 370.027ZM465.45 517.079C464.224 517.079 462.989 516.947 461.754 516.682C457.312 515.702 453.512 513.052 451.07 509.223C448.627 505.395 447.807 500.831 448.778 496.399C449.759 491.948 452.399 488.157 456.237 485.705C464.14 480.641 474.701 482.961 479.765 490.873C484.829 498.784 482.509 509.336 474.597 514.391C471.816 516.173 468.666 517.079 465.45 517.079ZM465.403 492.457C464.008 492.457 462.584 492.843 461.32 493.645C457.793 495.899 456.756 500.614 459.019 504.141C460.113 505.857 461.801 507.036 463.781 507.469C465.752 507.931 467.798 507.545 469.505 506.46C473.042 504.197 474.069 499.492 471.816 495.965C470.373 493.692 467.912 492.457 465.403 492.457Z" fill="black"/>
<path d="M199.92 517.908C197.393 517.908 195.3 515.9 195.215 513.363C195.102 510.11 195.102 508.648 195.102 505.367C195.102 358.136 314.881 238.347 462.112 238.347C537.91 238.347 610.418 270.748 661.038 327.243C662.773 329.186 662.613 332.166 660.67 333.901C658.737 335.645 655.757 335.485 654.013 333.543C605.175 279.037 535.232 247.777 462.112 247.777C320.077 247.777 204.532 363.332 204.532 505.367C204.532 508.516 204.532 509.902 204.635 513.024C204.73 515.626 202.693 517.814 200.09 517.908C200.033 517.908 199.977 517.908 199.92 517.908ZM203.787 555.826C201.542 555.826 199.553 554.214 199.147 551.922C198.826 550.112 198.525 548.273 198.242 546.453C197.846 543.879 199.609 541.474 202.183 541.078C204.796 540.691 207.163 542.455 207.559 545.02C207.832 546.793 208.124 548.547 208.436 550.31C208.879 552.865 207.172 555.308 204.607 555.761C204.324 555.808 204.051 555.826 203.787 555.826ZM462.112 772.386C337.589 772.386 230.719 687.856 202.202 566.822C201.608 564.285 203.183 561.749 205.71 561.154C208.219 560.494 210.784 562.126 211.387 564.662C238.894 681.415 341.993 762.947 462.112 762.947C604.147 762.947 719.702 647.392 719.702 505.367C719.702 466.157 711.121 428.512 694.194 393.48C693.062 391.132 694.043 388.312 696.391 387.18C698.739 386.039 701.559 387.03 702.681 389.368C720.23 425.702 729.122 464.723 729.122 505.367C729.132 652.597 609.343 772.386 462.112 772.386ZM685.782 372.979C684.198 372.979 682.651 372.177 681.756 370.734C679.662 367.33 677.493 363.973 675.249 360.673C673.778 358.513 674.334 355.59 676.494 354.128C678.653 352.657 681.576 353.214 683.038 355.373C685.367 358.787 687.621 362.266 689.79 365.803C691.157 368.019 690.459 370.923 688.234 372.29C687.48 372.762 686.621 372.979 685.782 372.979Z" fill="black"/>
<path d="M466.417 301.015C463.814 301.015 461.702 298.902 461.702 296.3V249.15C461.702 246.547 463.814 244.435 466.417 244.435C469.02 244.435 471.132 246.547 471.132 249.15V296.3C471.132 298.912 469.02 301.015 466.417 301.015ZM466.408 772.515C463.805 772.515 461.693 770.402 461.693 767.8V720.65C461.693 718.047 463.805 715.935 466.408 715.935C469.01 715.935 471.123 718.047 471.123 720.65V767.8C471.123 770.412 469.02 772.515 466.408 772.515ZM721.027 517.905H673.877C671.274 517.905 669.162 515.792 669.162 513.19C669.162 510.587 671.274 508.475 673.877 508.475H721.027C723.63 508.475 725.742 510.587 725.742 513.19C725.742 515.792 723.63 517.905 721.027 517.905ZM249.527 517.905H202.377C199.774 517.905 197.662 515.792 197.662 513.19C197.662 510.587 199.774 508.475 202.377 508.475H249.527C252.13 508.475 254.242 510.587 254.242 513.19C254.242 515.792 252.13 517.905 249.527 517.905Z" fill="black"/>
<defs>
<linearGradient id="paint0_linear" x1="150.512" y1="197.284" x2="804.014" y2="197.284" gradientUnits="userSpaceOnUse">
<stop offset="0.177083" stop-color="#8F6AFA"/>
<stop offset="0.651042" stop-color="#375CDC"/>
<stop offset="1" stop-color="#0099EE"/>
</linearGradient>
<linearGradient id="paint1_linear" x1="570.699" y1="175.21" x2="653.152" y2="175.21" gradientUnits="userSpaceOnUse">
<stop offset="0.177083" stop-color="#8F6AFA"/>
<stop offset="0.651042" stop-color="#375CDC"/>
<stop offset="1" stop-color="#0099EE"/>
</linearGradient>
<linearGradient id="paint2_linear" x1="324.766" y1="361.498" x2="619.164" y2="361.498" gradientUnits="userSpaceOnUse">
<stop offset="0.177083" stop-color="#8F6AFA"/>
<stop offset="0.651042" stop-color="#375CDC"/>
<stop offset="1" stop-color="#0099EE"/>
</linearGradient>
<linearGradient id="paint3_linear" x1="373.755" y1="500.045" x2="557.102" y2="500.045" gradientUnits="userSpaceOnUse">
<stop stop-color="#26272B"/>
<stop offset="1" stop-color="#34393F"/>
</linearGradient>
</defs>
</svg>
