<svg width="625" height="555" viewBox="0 0 625 555" fill="none" xmlns="http://www.w3.org/2000/svg">
<path d="M227.461 128.528C220.455 134.982 212.298 137.079 204.89 137.951C197.481 138.822 179.635 135.349 162.685 157.653C175.707 170.644 190.304 169.743 206.923 161.276C218.623 155.309 216.112 147.822 230.013 145.98C228.28 140.326 227.42 134.441 227.461 128.528Z" fill="white"/>
<path d="M226.308 128.296C218.705 135.157 209.281 137.054 199.404 137.394C191.302 137.465 183.355 139.633 176.338 143.686C170.517 147.358 165.432 152.086 161.345 157.626C161.273 157.709 161.234 157.815 161.234 157.924C161.234 158.033 161.273 158.139 161.345 158.222C169.184 165.934 179.176 169.649 190.131 167.891C200.161 166.28 210.542 161.795 217.291 154.05C218.598 152.393 220.092 150.891 221.743 149.576C224.167 147.999 226.938 147.036 229.817 146.77C230.207 146.715 231.698 146.3 231.456 145.59C229.629 140.029 228.765 134.196 228.903 128.343C228.922 127.163 226.039 127.762 226.024 128.707C225.86 134.695 226.723 140.667 228.576 146.363L230.216 145.185C225.958 145.575 221.902 147.184 218.534 149.82C215.74 152.216 213.726 155.363 210.881 157.726C206.322 161.163 201.135 163.675 195.612 165.119C190.569 166.752 185.203 167.123 179.984 166.202C173.894 164.785 168.35 161.619 164.034 157.093V157.69C170.701 149.007 179.45 141.893 190.418 139.83C197.168 138.56 204.01 139.22 210.753 137.742C217.389 136.364 223.549 133.271 228.62 128.77C229.843 127.651 227.007 127.663 226.308 128.296Z" fill="black"/>
<path d="M210.86 136.987C201.595 132.892 190.223 128.366 194.302 112.322C198.38 96.279 207.867 86.6494 212.823 81.429C208.101 94.8456 207.953 108.874 213.419 113.695C218.886 118.515 230.809 123.846 230.809 123.846L210.86 136.987Z" fill="url(#paint0_linear)"/>
<path d="M211.693 136.031C204.923 133.048 196.858 129.662 195.215 121.575C194.108 116.126 196.026 110.291 198.009 105.273C199.962 100.36 202.547 95.7215 205.698 91.4763C208.273 88.1006 211.055 84.8871 214.026 81.8542L211.447 81.2769C209.248 87.2989 208.031 93.6353 207.843 100.044C207.794 104.429 208.229 109.503 210.982 113.119C213.612 116.573 218.265 118.829 221.998 120.85C224.607 122.262 227.266 123.603 229.975 124.817L229.855 123.205L209.907 136.347C208.281 137.418 210.653 138.411 211.812 137.643L231.76 124.503C231.917 124.427 232.047 124.305 232.134 124.154C232.221 124.003 232.261 123.83 232.248 123.656C232.235 123.482 232.171 123.316 232.062 123.18C231.954 123.043 231.807 122.942 231.641 122.89C229.268 121.827 226.938 120.653 224.645 119.425C221.037 117.486 216.518 115.353 213.853 112.149C211.06 108.793 210.687 103.697 210.764 99.5277C210.961 93.4077 212.118 87.3566 214.193 81.5961C214.739 80.0181 212.285 80.3119 211.614 81.0189C205.002 87.9756 199.131 95.4215 195.476 104.395C193.367 109.573 191.451 115.389 192.122 121.048C192.667 125.126 194.77 128.834 197.989 131.394C201.51 134.339 205.862 136.123 210.021 137.956C211.221 138.479 213.363 136.76 211.693 136.031Z" fill="black"/>
<path d="M290.057 119.795C296.701 109.951 305.168 98.3733 291.132 84.9955C277.096 71.6176 261.687 67.9752 253.518 65.8855C266.555 76.2564 275.431 90.0906 273.016 98.2749C270.601 106.459 262.079 119.19 262.079 119.19L290.057 119.795Z" fill="url(#paint1_linear)"/>
<path d="M291.426 119.929C296.858 111.891 303.16 102.444 298.533 92.5173C295.701 86.4586 290.141 81.8541 284.819 78.0327C279.868 74.5102 274.503 71.6116 268.844 69.4025C264.116 67.6177 259.28 66.1331 254.365 64.9576C253.517 64.7399 251.109 65.6467 252.405 66.6864C260.007 72.7869 267.833 80.7951 270.987 90.2636C272.217 93.6223 272.147 97.3199 270.792 100.63C269.178 104.589 267.256 108.415 265.042 112.073C263.665 114.437 262.237 116.781 260.719 119.055C260.335 119.633 261.058 120.174 261.577 120.184L289.553 120.788C290.173 120.802 291.184 120.614 291.435 119.929C291.487 119.797 291.504 119.653 291.485 119.512C291.465 119.371 291.41 119.238 291.324 119.124C291.238 119.011 291.124 118.921 290.994 118.865C290.863 118.808 290.72 118.786 290.579 118.8L262.601 118.196L263.456 119.324C267.418 113.624 270.766 107.52 273.444 101.115C274.893 97.8468 275.174 94.1799 274.241 90.7289C272.901 86.3479 270.764 82.2521 267.937 78.6472C264.109 73.5679 259.639 69.0056 254.641 65.074L252.679 66.8027C262.013 69.1892 271.039 72.1723 279.241 77.369C288.751 83.3889 300.134 92.7724 296.533 105.369C295.03 110.616 291.719 115.186 288.702 119.65C287.838 120.92 290.765 120.905 291.426 119.929Z" fill="black"/>
<path d="M410.388 228.275C413.259 281.375 412.046 355.124 411.879 365.907C381.331 364.788 246.208 361.905 232.175 363.238C228.885 337.819 225.623 259.316 224 244.903C222.438 231.076 231.255 181.489 291.994 159.833C294.589 158.907 297.286 158.021 300.078 157.205C308.901 154.442 318.027 152.761 327.255 152.198C332.006 151.847 336.691 151.701 341.202 151.677C351.136 151.646 360.19 152.202 367.19 152.304C393.696 152.701 402.18 167.028 405.889 184.79C407.995 194.798 409.43 210.353 410.388 228.275Z" fill="white"/>
<path d="M408.948 228.657C410.141 250.862 410.567 273.106 410.75 295.341C410.9 313.847 410.867 332.354 410.65 350.863C410.596 356.006 410.528 361.147 410.446 366.288L412.806 365.265C403.385 364.922 393.959 364.688 384.534 364.451C370.553 364.099 356.572 363.783 342.588 363.504C327.29 363.191 311.991 362.918 296.692 362.683C283.521 362.486 270.348 362.316 257.176 362.263C249.467 362.231 241.702 362.054 234.001 362.506C233.597 362.53 233.193 362.558 232.791 362.595L233.622 362.847C232.229 352.008 231.535 341.07 230.805 330.167C229.86 316.216 229.059 302.255 228.263 288.296C227.603 276.736 226.989 265.177 226.194 253.623C225.781 247.606 224.929 241.69 225.635 235.666C228.092 214.703 239.767 195.23 255.449 181.446C268.499 169.973 284.141 162.728 300.602 157.593C320.933 151.252 342.077 152.28 363.077 152.866C371.111 153.09 379.176 153.496 386.463 157.265C391.785 160.047 396.165 164.344 399.05 169.613C401.933 175.158 403.902 181.132 404.88 187.305C406.365 195.872 407.39 204.513 407.951 213.189C408.353 218.343 408.674 223.501 408.952 228.662C408.985 229.273 411.88 228.769 411.832 227.89C411.278 217.599 410.585 207.298 409.339 197.063C408.66 189.929 407.237 182.886 405.093 176.048C403.277 170.292 400.069 165.073 395.754 160.855C390.664 156.392 384.391 153.5 377.693 152.526C373.464 151.908 369.195 151.597 364.921 151.597C359.919 151.457 354.92 151.233 349.918 151.122C339.47 150.765 329.01 151.231 318.635 152.517C308.169 154.05 297.916 156.797 288.085 160.703C280.143 163.735 272.53 167.568 265.364 172.143C245.218 185.12 229.453 205.202 224.073 228.794C222.654 234.88 222.218 241.154 222.784 247.378C223.678 257.323 224.145 267.315 224.722 277.284C226.252 303.951 227.359 330.713 230.04 357.297C230.252 359.409 230.487 361.52 230.754 363.624C230.792 363.911 231.416 363.893 231.588 363.878C238.304 363.253 245.176 363.523 251.913 363.533C264.583 363.554 277.241 363.709 289.902 363.888C305.059 364.103 320.214 364.365 335.367 364.673C349.67 364.956 363.972 365.272 378.275 365.619C388.386 365.866 398.498 366.118 408.607 366.461C409.395 366.486 410.183 366.514 410.972 366.543C411.558 366.566 413.32 366.354 413.333 365.522C413.513 353.365 413.635 341.208 413.697 329.05C413.787 307.744 413.678 286.436 413.195 265.135C412.912 252.715 412.502 240.296 411.835 227.89C411.795 227.279 408.9 227.783 408.948 228.657Z" fill="black"/>
<path d="M329.15 177.632C328.916 177.644 328.687 177.705 328.478 177.81C328.269 177.916 328.084 178.064 327.936 178.246C327.788 178.427 327.679 178.638 327.617 178.864C327.555 179.09 327.541 179.326 327.576 179.558C327.682 180.63 328.507 181.079 329.636 181.161C330.726 181.039 331.097 180.166 331.042 179.204C331.041 178.97 330.989 178.738 330.889 178.526C330.789 178.314 330.643 178.126 330.463 177.976C330.283 177.826 330.072 177.718 329.845 177.658C329.618 177.599 329.381 177.59 329.15 177.632Z" fill="black"/>
<path d="M330.122 189.395C329.959 189.328 329.782 189.303 329.607 189.321C329.432 189.338 329.264 189.398 329.117 189.495C328.97 189.592 328.849 189.723 328.765 189.878C328.68 190.032 328.634 190.205 328.631 190.381C328.637 190.607 328.699 190.828 328.811 191.024C328.924 191.22 329.083 191.386 329.275 191.505C330.064 191.803 330.57 191.314 330.779 190.527C330.569 190.134 330.436 189.501 330.122 189.395Z" fill="black"/>
<path d="M329.095 199.973C328.86 199.989 328.632 200.055 328.426 200.166C328.219 200.278 328.038 200.432 327.896 200.619C327.754 200.806 327.653 201.022 327.601 201.251C327.548 201.48 327.545 201.717 327.592 201.948C327.617 202.182 327.69 202.408 327.806 202.613C327.922 202.818 328.079 202.997 328.268 203.138C328.456 203.279 328.671 203.38 328.9 203.434C329.129 203.488 329.367 203.495 329.599 203.453C330.752 203.36 331.036 202.47 331.059 201.464C331.043 201.231 330.977 201.005 330.866 200.799C330.755 200.594 330.601 200.414 330.415 200.273C330.229 200.132 330.015 200.032 329.787 199.98C329.56 199.928 329.324 199.926 329.095 199.973Z" fill="black"/>
<path d="M329.791 211.564C328.349 211.759 327.819 212.287 327.774 213.021C327.688 214.436 328.724 214.471 329.684 214.214C330.371 214.032 330.997 213.509 330.727 212.656C330.661 212.416 330.543 212.194 330.381 212.005C330.219 211.816 330.018 211.665 329.791 211.564Z" fill="black"/>
<path d="M320.17 157.533C320.205 157.302 320.192 157.066 320.133 156.84C320.073 156.614 319.968 156.402 319.824 156.217C319.68 156.033 319.5 155.88 319.295 155.767C319.09 155.655 318.865 155.585 318.632 155.563C318.401 155.528 318.166 155.541 317.94 155.601C317.714 155.661 317.504 155.767 317.321 155.912C317.138 156.057 316.987 156.239 316.877 156.445C316.767 156.651 316.701 156.877 316.682 157.11C316.639 157.338 316.645 157.573 316.7 157.798C316.755 158.024 316.858 158.235 317.001 158.418C317.145 158.6 317.326 158.75 317.532 158.856C317.738 158.963 317.965 159.024 318.197 159.035C319.17 158.944 320.111 158.703 320.17 157.533Z" fill="black"/>
<path d="M329.488 170.486C329.722 170.476 329.95 170.416 330.159 170.311C330.367 170.205 330.551 170.057 330.698 169.875C330.845 169.693 330.951 169.482 331.011 169.256C331.07 169.03 331.08 168.794 331.042 168.563C331.049 168.329 331.004 168.096 330.91 167.881C330.816 167.666 330.676 167.475 330.499 167.321C330.323 167.166 330.114 167.054 329.888 166.99C329.663 166.927 329.426 166.914 329.195 166.954C328.96 166.97 328.732 167.033 328.522 167.138C328.312 167.243 328.125 167.389 327.971 167.567C327.818 167.745 327.702 167.951 327.629 168.175C327.556 168.398 327.527 168.633 327.546 168.868C327.595 169.928 328.475 170.371 329.488 170.486Z" fill="black"/>
<path d="M318.608 181.055C318.848 181.085 319.091 181.061 319.321 180.986C319.55 180.911 319.761 180.787 319.937 180.621C320.113 180.456 320.251 180.254 320.34 180.029C320.43 179.805 320.469 179.563 320.455 179.322C320.469 179.082 320.432 178.842 320.345 178.617C320.259 178.393 320.125 178.19 319.953 178.022C319.782 177.854 319.576 177.724 319.35 177.642C319.124 177.56 318.883 177.528 318.644 177.547C318.405 177.578 318.175 177.659 317.969 177.783C317.762 177.908 317.584 178.074 317.446 178.271C317.307 178.468 317.211 178.692 317.163 178.929C317.116 179.165 317.118 179.409 317.169 179.644C317.198 180.014 317.359 180.361 317.624 180.62C317.888 180.88 318.238 181.034 318.608 181.055Z" fill="black"/>
<path d="M325.815 152.32C324.988 152.387 324.161 152.459 323.332 152.541C323.612 152.83 323.978 153.022 324.375 153.088C324.663 153.11 324.952 153.05 325.207 152.914C325.462 152.778 325.673 152.572 325.815 152.32Z" fill="black"/>
<path d="M319.04 167.152C318.861 167.148 318.684 167.187 318.523 167.266C318.363 167.345 318.223 167.461 318.117 167.605C318.011 167.749 317.941 167.917 317.913 168.094C317.886 168.271 317.901 168.452 317.958 168.622C318.002 168.993 318.177 169.337 318.453 169.591C318.728 169.845 319.085 169.991 319.459 170.004C320.227 170.015 320.477 169.487 320.549 169.855C320.367 167.63 319.789 167.148 319.04 167.152Z" fill="black"/>
<path d="M323.728 164.608C324.195 164.665 324.665 164.54 325.042 164.259C325.418 163.978 325.672 163.562 325.75 163.098C325.801 162.634 325.667 162.169 325.378 161.802C325.088 161.436 324.666 161.199 324.202 161.143C323.975 161.088 323.739 161.086 323.51 161.135C323.282 161.184 323.067 161.284 322.883 161.427C322.698 161.57 322.548 161.753 322.443 161.962C322.338 162.171 322.282 162.401 322.278 162.634C322.203 163.641 322.61 164.52 323.728 164.608Z" fill="black"/>
<path d="M341.154 199.87C339.906 200.168 338.896 200.881 338.918 202.31C338.905 202.492 338.934 202.675 339.004 202.843C339.074 203.012 339.183 203.162 339.321 203.281C339.459 203.4 339.623 203.485 339.8 203.53C339.977 203.574 340.162 203.576 340.34 203.536C340.942 203.453 341.496 203.16 341.905 202.71C342.314 202.26 342.551 201.68 342.576 201.072C342.436 200.268 342.044 199.649 341.154 199.87Z" fill="black"/>
<path d="M340.92 189.032C340.563 189.029 340.215 189.141 339.928 189.352C339.64 189.563 339.429 189.862 339.325 190.203C339.271 190.379 339.257 190.564 339.284 190.746C339.31 190.927 339.377 191.101 339.479 191.253C339.581 191.406 339.715 191.534 339.873 191.628C340.03 191.722 340.207 191.78 340.389 191.798C340.625 191.872 340.873 191.893 341.117 191.861C341.362 191.829 341.596 191.744 341.804 191.611C341.592 190.767 341.361 189.925 341.111 189.085C341.045 189.07 340.989 189.043 340.92 189.032Z" fill="black"/>
<path d="M335.931 206.018C335.718 205.977 335.497 205.992 335.291 206.061C335.085 206.13 334.9 206.252 334.755 206.413C334.327 207.159 334.768 207.756 335.533 207.859C335.831 207.9 336.213 207.411 336.557 207.164C336.357 206.762 336.25 206.164 335.931 206.018Z" fill="black"/>
<path d="M335.005 183.655C334.567 183.804 334.232 184.835 334.205 185.479C334.167 185.773 334.244 186.07 334.418 186.309C334.592 186.549 334.851 186.712 335.142 186.766C336.502 186.573 336.94 185.916 336.906 185.184C336.855 184.079 336.137 183.272 335.005 183.655Z" fill="black"/>
<path d="M335.408 194.529C334.531 194.423 334.036 194.928 334.124 195.685C334.15 196.012 334.24 196.331 334.389 196.624C334.538 196.916 334.744 197.176 334.993 197.389C335.149 197.46 335.319 197.495 335.489 197.493C335.66 197.491 335.829 197.451 335.983 197.376C336.136 197.302 336.272 197.194 336.38 197.061C336.488 196.929 336.565 196.774 336.606 196.608C336.995 195.531 336.366 194.899 335.408 194.529Z" fill="black"/>
<path d="M323.857 197.555C324.099 197.575 324.343 197.546 324.574 197.469C324.805 197.391 325.018 197.268 325.199 197.105C325.38 196.943 325.527 196.745 325.629 196.524C325.732 196.303 325.788 196.064 325.794 195.82C325.881 195.025 325.288 194.506 324.495 194.305C324.009 194.299 323.541 194.482 323.187 194.814C322.833 195.146 322.621 195.602 322.595 196.087C322.561 196.27 322.569 196.458 322.617 196.637C322.665 196.817 322.753 196.983 322.874 197.124C322.995 197.265 323.146 197.376 323.316 197.451C323.486 197.526 323.671 197.561 323.857 197.555Z" fill="black"/>
<path d="M323.679 175.357C323.89 175.451 324.118 175.497 324.348 175.493C324.578 175.488 324.805 175.433 325.011 175.331C325.218 175.229 325.399 175.083 325.543 174.903C325.686 174.723 325.789 174.514 325.842 174.29C326.043 173.412 325.501 172.978 324.818 172.732C324.609 172.634 324.38 172.584 324.149 172.587C323.917 172.589 323.69 172.644 323.483 172.747C323.275 172.85 323.094 172.998 322.952 173.18C322.81 173.363 322.711 173.576 322.663 173.802C322.387 174.633 323.025 175.11 323.679 175.357Z" fill="black"/>
<path d="M323.877 187.043C324.483 186.97 325.04 186.672 325.435 186.206C325.83 185.74 326.034 185.142 326.006 184.532C325.999 184.35 325.951 184.171 325.868 184.008C325.784 183.846 325.666 183.704 325.521 183.592C325.377 183.48 325.21 183.401 325.032 183.36C324.854 183.32 324.669 183.318 324.49 183.357C323.412 183.846 322.254 184.379 322.403 185.87C322.398 186.053 322.435 186.235 322.512 186.401C322.589 186.567 322.703 186.712 322.846 186.826C322.99 186.94 323.157 187.019 323.336 187.057C323.515 187.094 323.701 187.089 323.877 187.043Z" fill="black"/>
<path d="M318.362 117.119C313.252 119.391 307.736 120.608 302.145 120.699C293.854 111.869 282.573 110.485 276.819 111.899C272.623 112.929 268.428 113.689 261.8 115.27C255.013 116.895 245.673 119.388 231.16 123.934C226.292 125.362 221.657 127.489 217.4 130.249C203.536 139.591 205.51 152.292 206.486 160.23C208.14 173.439 214.742 196.633 219.986 214.766C219.986 214.766 307.999 243.925 318.049 237.074C328.099 230.223 330.869 217.373 326.655 203.468C322.44 189.562 316.193 164.09 311.044 138.945C310.729 137.413 310.359 135.959 309.934 134.582C316.157 135.294 320.483 139.554 329.684 139.685C351.377 139.992 368.8 127.693 373.622 109.937C347.825 99.0399 325.219 114.181 318.362 117.119Z" fill="white"/>
<path d="M317.737 116.303C312.854 118.418 307.607 119.563 302.287 119.674L303.47 120.07C298.054 114.316 290.637 110.862 282.75 110.422C279.899 110.383 277.057 110.734 274.301 111.466C270.051 112.43 265.782 113.292 261.544 114.3C254.888 115.893 248.29 117.731 241.729 119.67C232.975 122.256 223.799 124.55 216.182 129.795C213.06 131.817 210.408 134.485 208.405 137.621C206.402 140.756 205.095 144.284 204.571 147.968C203.843 153.718 204.784 159.739 205.78 165.406C207.25 173.767 209.366 182.02 211.55 190.219C212.788 194.867 214.067 199.504 215.387 204.13C216 206.29 216.617 208.447 217.237 210.603C217.636 211.995 217.882 214.973 219.149 215.698C220.336 216.216 221.57 216.618 222.833 216.901C226.013 217.928 229.198 218.94 232.388 219.937C242.396 223.071 252.449 226.059 262.547 228.903C273.263 231.895 284.048 234.732 294.965 236.904C299.224 237.799 303.528 238.468 307.859 238.909C310.851 239.343 313.895 239.249 316.855 238.633C318.573 238.053 320.135 237.083 321.416 235.799C324.194 233.351 326.38 230.304 327.81 226.888C330.968 219.315 330.381 210.79 328.093 203.069C322.835 185.336 318.627 167.281 314.725 149.207C313.646 144.208 312.838 139.087 311.372 134.184L309.425 135.588C314.358 136.223 318.73 139.018 323.587 140.052C329.364 141.078 335.288 140.939 341.011 139.643C351.282 137.745 360.599 132.401 367.427 124.492C370.992 120.196 373.601 115.19 375.08 109.806C375.195 109.397 374.77 109.107 374.463 108.98C363.211 104.443 350.76 103.833 339.119 107.247C334.638 108.527 330.273 110.184 326.07 112.199C323.272 113.519 320.573 115.067 317.734 116.3C315.923 117.088 317.533 118.565 318.993 117.931C325.595 115.061 331.697 111.483 338.669 109.429C349.868 105.948 361.926 106.458 372.79 110.873L372.175 110.048C369.564 119.146 363.649 126.94 355.591 131.899C351.27 134.563 346.524 136.465 341.56 137.522C336.12 138.863 330.461 139.055 324.943 138.088C319.96 137.03 315.533 134.21 310.448 133.556C309.761 133.468 308.212 133.995 308.501 134.96C310.309 141.005 311.271 147.349 312.623 153.509C313.949 159.551 315.327 165.581 316.758 171.6C319.133 181.573 321.612 191.533 324.489 201.375C327.2 210.655 328.786 220.677 323.642 229.479C322.452 231.515 320.934 233.34 319.149 234.88C318.483 235.469 317.774 236.008 317.028 236.491C317.435 236.237 316.387 236.731 316.831 236.586C315.553 236.964 314.222 237.133 312.89 237.086C308.324 236.979 303.778 236.452 299.31 235.509C293.155 234.394 287.057 232.974 280.99 231.466C268.069 228.245 255.268 224.545 242.531 220.664C237.793 219.221 233.066 217.748 228.35 216.244C226.782 215.747 225.214 215.243 223.647 214.732C222.848 214.382 222.017 214.111 221.166 213.922C221.051 213.896 220.939 213.859 220.831 213.812L221.427 214.371C217.386 200.395 213.294 186.394 210.171 172.176C208.997 166.996 208.114 161.754 207.528 156.474C206.793 151.492 207.318 146.404 209.056 141.678C214.833 127.861 232.215 124.477 245.029 120.765C250.228 119.257 255.452 117.828 260.711 116.542C263.954 115.748 267.213 115.025 270.477 114.323C273.065 113.766 275.671 112.989 278.288 112.613C284.771 111.955 291.267 113.725 296.521 117.582C297.319 118.145 298.089 118.748 298.827 119.388C299.498 120.158 300.236 120.868 301.032 121.509C301.786 121.774 302.598 121.834 303.384 121.683C304.615 121.631 305.842 121.515 307.061 121.343C311.167 120.727 315.175 119.581 318.987 117.934C320.816 117.167 319.2 115.687 317.737 116.303Z" fill="black"/>
<path d="M249.711 163.577C246.019 165.888 242.65 169.673 242.87 174.303C242.835 175.779 243.365 177.213 244.351 178.31C245.338 179.408 246.707 180.087 248.177 180.208C250.027 180.214 251.82 179.572 253.245 178.393C255.811 176.434 258.226 174.272 260.761 172.277C266.279 167.795 272.227 163.869 278.517 160.557C285.705 156.797 293.588 154.553 301.678 153.964C303.259 153.867 303.94 151.855 301.966 151.976C289.75 152.721 278.363 157.587 268.237 164.265C263.175 167.696 258.299 171.393 253.628 175.341C252.363 176.385 250.647 178.418 248.799 178.202C248.207 178.069 247.658 177.786 247.207 177.38C246.756 176.973 246.417 176.458 246.223 175.883C244.343 171.388 248.033 167.012 251.589 164.785C251.718 164.726 251.829 164.635 251.913 164.521C251.996 164.407 252.049 164.274 252.067 164.134C252.085 163.993 252.067 163.851 252.014 163.719C251.961 163.588 251.876 163.472 251.767 163.383C251.217 162.921 250.221 163.259 249.708 163.58L249.711 163.577Z" fill="black"/>
<path d="M228.937 170.294C230.506 170.868 231.912 171.815 233.035 173.053C234.158 174.29 234.964 175.782 235.384 177.4C235.639 178.518 235.699 180.132 234.375 180.532C233.184 180.681 231.974 180.541 230.848 180.122C229.428 179.767 228.016 179.376 226.592 179.024C221.623 177.615 216.477 176.927 211.312 176.982C206.099 177.25 201.018 178.716 196.465 181.269C194.734 182.213 196.316 183.388 197.657 182.657C203.388 179.469 209.991 178.209 216.492 179.063C219.913 179.551 223.299 180.262 226.628 181.19C229.057 182.072 231.64 182.448 234.219 182.296C234.93 182.248 235.62 182.032 236.232 181.667C236.844 181.301 237.361 180.795 237.741 180.192C238.121 179.588 238.353 178.903 238.418 178.192C238.483 177.482 238.379 176.766 238.115 176.103C237.54 174.357 236.567 172.769 235.274 171.463C233.98 170.157 232.402 169.17 230.662 168.578C229.618 168.234 227.281 169.743 228.939 170.292L228.937 170.294Z" fill="black"/>
<path d="M297.277 186.435C292.217 192.434 277.582 198.666 261.948 196.784C251.215 195.48 250.514 186.244 251.811 178.156C252.024 178.007 252.259 177.837 252.482 177.656C262.088 169.763 277.227 156.61 296.369 153.563C304.576 165.609 301.804 181.064 297.277 186.435Z" fill="white"/>
<path d="M296.063 185.979C292.832 189.31 288.82 191.778 284.391 193.161C278.617 195.246 272.498 196.211 266.363 196.005C261.518 195.84 256.288 195.055 254.038 190.17C252.315 186.432 252.662 182.007 253.274 178.057L252.777 178.849C255.52 176.867 258.039 174.543 260.697 172.444C263.912 169.909 267.211 167.469 270.646 165.234C278.363 159.982 287.08 156.382 296.252 154.657L295.06 154.21C298.646 159.652 300.425 166.088 300.142 172.601C299.966 177.146 299.027 182.36 296.069 185.98C294.908 187.403 297.63 187.952 298.496 186.892C301.714 182.951 302.874 177.368 303.065 172.404C303.373 165.505 301.495 158.684 297.698 152.917C297.554 152.747 297.369 152.617 297.16 152.539C296.951 152.46 296.726 152.437 296.506 152.469C279.561 155.268 265.737 165.249 252.794 175.93C251.583 176.928 250.47 177.475 250.242 179.112C249.988 180.826 249.873 182.558 249.897 184.29C249.825 187.328 250.642 190.321 252.25 192.9C253.222 194.195 254.44 195.286 255.835 196.11C257.229 196.934 258.772 197.475 260.375 197.703C265.271 198.494 270.264 198.476 275.154 197.649C283.352 196.406 292.866 193.386 298.493 186.89C299.688 185.506 296.956 184.954 296.063 185.979Z" fill="black"/>
<path d="M233.677 196.29C230.774 200.874 221.335 206.548 210.423 206.783C199.808 207.01 199.582 188.898 202.475 179.531C212.313 176.1 220.99 178.654 230.35 181.079C231.601 181.447 232.912 181.57 234.21 181.441C236.215 187.36 235.481 193.434 233.677 196.29Z" fill="white"/>
<path d="M232.36 196.339C230.108 199.382 227.066 201.749 223.565 203.184C221.333 204.222 218.988 204.994 216.577 205.487C214.325 206.091 211.978 206.26 209.663 205.984C203.331 204.71 202.359 195.832 202.327 190.662C202.281 186.818 202.811 182.988 203.899 179.3L202.995 179.954C208.353 178.325 214.042 178.119 219.503 179.358C222.195 179.869 224.85 180.565 227.499 181.254C229.584 181.928 231.777 182.207 233.965 182.077L232.765 181.828C234.236 186.374 234.813 192.224 232.248 196.515C231.942 197.025 233.269 196.948 233.44 196.924C233.763 196.904 234.078 196.817 234.365 196.669C234.652 196.521 234.905 196.315 235.109 196.063C237.711 191.712 237.14 185.66 235.651 181.055C235.521 180.654 234.733 180.778 234.459 180.808C232.313 180.77 230.19 180.361 228.183 179.599C226.096 179.064 224.009 178.555 221.889 178.138C217.864 177.277 213.733 177.02 209.632 177.376C207.557 177.588 205.507 177.997 203.509 178.596C202.746 178.724 202.015 179.002 201.36 179.415C200.953 179.936 200.704 180.564 200.644 181.224C200.043 183.677 199.672 186.181 199.535 188.703C199.237 193.634 199.52 199.403 202.359 203.642C205.658 208.564 211.722 207.708 216.818 206.612C223.298 205.219 231.204 202.037 235.004 196.235C235.6 195.306 232.786 195.693 232.36 196.339Z" fill="black"/>
<path d="M329.26 334.688C322.199 326.124 310.189 330.842 302.886 337.146C298.311 341.096 292.997 348.333 293.316 356.037C297.074 354.951 302.829 352.944 309.247 351.249C305.818 358.231 305.222 359.751 299.921 366.512C303.771 368.821 316.102 366.512 321.564 362.187C329.335 356.013 336.846 343.884 329.26 334.688Z" fill="black"/>
<path d="M330.615 334.193C324.478 327.014 314.388 329.166 307.121 333.317C299.01 337.95 291.646 346.634 291.876 356.423C291.886 356.871 293.319 356.54 293.441 356.504C298.766 354.95 304.01 353.146 309.372 351.717L307.826 351.498C306.583 354.034 305.39 356.604 303.965 359.041C302.354 361.682 300.566 364.211 298.615 366.611C298.539 366.708 298.378 366.909 298.566 367.009C301.863 368.841 306.616 368.053 310.108 367.345C314.71 366.595 319.077 364.795 322.87 362.082C330.937 355.734 338.074 343.587 330.621 334.19C330.174 333.635 327.45 334.603 327.911 335.182C334.808 343.875 328.582 355.064 321.406 361.323C317.979 364.099 313.852 365.872 309.481 366.448C307.577 366.814 305.631 366.907 303.701 366.724C303.293 366.673 301.912 366.594 301.652 366.207C301.407 365.849 303.227 363.82 303.589 363.34C306.327 359.454 308.699 355.322 310.675 350.998C310.953 350.43 309.221 350.755 309.127 350.779C303.761 352.21 298.521 354.013 293.197 355.567L294.762 355.649C294.562 347.134 300.434 339.3 307.243 334.727C313.771 330.345 322.211 328.515 327.911 335.182C328.376 335.737 331.08 334.737 330.615 334.193Z" fill="black"/>
<path d="M369.079 255.522C376.498 285.897 366.659 314.345 314.771 330.656C319.215 331.52 323.243 333.844 326.218 337.259C329.192 340.673 330.942 344.984 331.191 349.507C331.191 349.507 397.576 317.168 375.706 255.572L369.079 255.522Z" fill="white"/>
<path d="M367.639 255.907C370.291 266.868 370.905 278.55 367.095 289.327C362.787 301.513 353.381 310.78 342.566 317.456C333.761 322.693 324.345 326.825 314.529 329.757C313.862 329.969 312.526 331.289 313.923 331.565C318.206 332.457 322.077 334.735 324.938 338.047C327.799 341.36 329.49 345.523 329.751 349.893C329.825 350.736 331.39 350.47 331.806 350.27C339.674 346.243 346.979 341.198 353.533 335.265C366.564 323.84 377.115 308.956 380.448 291.692C382.603 279.446 381.463 266.846 377.146 255.186C376.721 253.978 373.855 254.785 374.268 255.959C378.11 266.351 379.427 277.51 378.109 288.512C376.813 297.574 373.644 306.265 368.803 314.033C361.245 326.361 350.271 336.481 338.195 344.297C335.751 345.937 333.207 347.422 330.576 348.743L332.631 349.12C332.29 344.478 330.445 340.074 327.374 336.578C324.304 333.081 320.176 330.683 315.619 329.748L315.011 331.554C330.906 326.526 347.172 319.417 358.844 307.116C367.103 298.515 372.001 287.232 372.644 275.321C372.914 268.525 372.198 261.726 370.519 255.135C370.221 253.914 367.339 254.667 367.639 255.907Z" fill="black"/>
<path d="M251.16 333.522C258.473 325.169 270.337 330.24 277.449 336.766C281.905 340.851 287 348.251 286.451 355.935C282.725 354.742 277.035 352.558 270.67 350.673C273.89 357.754 274.438 359.291 279.536 366.208C275.619 368.4 263.362 365.726 258.033 361.23C250.45 354.833 243.31 342.486 251.16 333.522Z" fill="black"/>
<path d="M252.475 333.443C253.773 331.939 255.469 330.834 257.368 330.253C259.267 329.672 261.291 329.641 263.207 330.161C266.962 331.066 270.479 332.764 273.523 335.143C280.043 340.02 285.465 347.893 285.014 356.323L287.629 355.351C282.354 353.637 277.166 351.678 271.849 350.088C271.461 349.974 268.909 350.348 269.233 351.062C270.454 353.747 271.618 356.478 273.055 359.059C274.604 361.716 276.317 364.274 278.186 366.716L278.695 365.971C277.246 366.465 275.691 366.562 274.191 366.253C272.17 366.042 270.173 365.64 268.228 365.052C264.164 363.963 260.445 361.852 257.425 358.922C250.917 352.439 245.618 341.569 252.478 333.446C253.104 332.7 250.336 333.034 249.856 333.604C244.076 340.447 246.363 349.205 251.233 355.867C253.486 359.155 256.458 361.886 259.924 363.854C263.243 365.558 266.818 366.712 270.507 367.268C273.715 367.777 277.409 367.993 280.387 366.451C280.662 366.302 281.148 366.047 280.897 365.705C279.012 363.238 277.294 360.647 275.756 357.949C274.401 355.467 273.287 352.86 272.119 350.288L269.504 351.262C274.821 352.851 280.009 354.811 285.284 356.523C285.895 356.721 287.856 356.383 287.9 355.551C288.425 345.714 281.082 336.648 272.946 331.952C265.6 327.712 256.023 326.813 249.859 333.602C249.212 334.303 251.969 333.994 252.475 333.443Z" fill="black"/>
<path d="M265.764 329.924C261.297 330.654 257.201 332.855 254.126 336.179C251.051 339.502 249.172 343.758 248.788 348.27C248.788 348.27 212.674 329.116 223.437 278.672L230.064 278.822C228.666 310.561 241.111 321.601 265.764 329.924Z" fill="white"/>
<path d="M265.999 329.269C261.214 329.979 256.795 332.247 253.427 335.723C250.059 339.198 247.929 343.687 247.366 348.496L249.961 347.653C250.321 347.845 249.282 347.25 249.103 347.14C248.225 346.597 247.374 346.012 246.539 345.404C243.627 343.267 240.931 340.851 238.489 338.189C230.604 329.537 225.457 318.741 223.697 307.164C222.345 297.601 222.742 287.871 224.871 278.45L222.848 279.358L229.474 279.508L228.629 279.209C228.223 288.997 228.818 299.362 233.352 308.246C237.159 315.26 243.029 320.933 250.167 324.496C254.803 326.91 259.631 328.935 264.601 330.549C265.347 330.801 267.943 329.654 266.934 329.307C258.735 326.523 250.4 323.117 243.853 317.282C237.9 311.797 233.931 304.493 232.567 296.511C231.511 290.549 231.156 284.483 231.509 278.438C231.522 278.128 230.814 278.14 230.663 278.14L224.036 277.991C223.569 277.982 222.144 278.276 222.013 278.901C218.798 294.185 219.14 310.402 225.951 324.692C229.9 333.019 235.773 340.287 243.083 345.894C244.516 347.016 246.035 348.022 247.627 348.903C248.135 349.174 250.136 348.794 250.221 348.06C251.208 339.679 256.902 332.018 265.533 330.583C266.785 330.369 268.01 328.935 265.999 329.269Z" fill="black"/>
<path d="M272.46 162.79C273.041 169.871 273.619 176.951 274.194 184.031C274.466 185.528 274.288 187.073 273.682 188.468C273.069 189.358 272.182 190.022 271.155 190.36C270.129 190.697 269.021 190.689 268 190.336C265.96 189.58 264.214 188.193 263.015 186.377C260.113 182.438 258.499 177.697 258.394 172.804C262.859 169.162 267.558 165.817 272.46 162.79Z" fill="black"/>
<path d="M271.02 163.177C271.393 167.716 271.763 172.254 272.131 176.794C272.313 179.063 272.499 181.332 272.687 183.601C272.836 185.336 273.283 187.986 271.546 189.12C268.294 191.231 264.723 186.531 263.273 184.21C261.152 180.735 259.973 176.767 259.852 172.696L259.342 173.442C263.813 169.808 268.51 166.462 273.405 163.423C273.535 163.361 273.647 163.266 273.731 163.149C273.815 163.031 273.868 162.895 273.885 162.751C273.902 162.608 273.882 162.462 273.828 162.329C273.774 162.195 273.687 162.077 273.575 161.986C273.248 161.821 272.882 161.751 272.517 161.784C272.153 161.817 271.805 161.952 271.513 162.173C266.996 164.965 262.653 168.029 258.507 171.35C257.473 172.17 256.9 172.488 256.982 173.878C257.049 175.062 257.199 176.24 257.43 177.404C257.917 179.795 258.757 182.1 259.922 184.244C261.937 187.973 265.335 192 270.014 191.575C270.968 191.519 271.897 191.252 272.735 190.793C273.573 190.334 274.3 189.695 274.861 188.922C276.182 186.893 275.683 184.287 275.498 182.02C274.961 175.484 274.428 168.948 273.899 162.412C273.791 161.147 270.908 161.826 271.02 163.177Z" fill="black"/>
<path d="M219.084 178.455C219.858 183.607 220.623 188.761 221.38 193.917C221.704 195.208 221.631 196.567 221.168 197.814C220.685 198.631 219.948 199.267 219.069 199.623C218.19 199.979 217.218 200.036 216.304 199.785C214.479 199.235 212.874 198.123 211.719 196.606C208.579 192.858 206.84 188.135 206.799 183.245C206.784 181.577 206.939 179.912 207.261 178.276C211.184 177.671 215.181 177.731 219.084 178.455Z" fill="black"/>
<path d="M217.647 178.839C218.316 183.296 218.978 187.753 219.634 192.211C219.898 194.001 220.612 196.329 219.746 198.047C218.88 199.765 217.234 199.343 215.828 198.52C212.741 196.714 210.642 193.086 209.478 189.803C208.176 186.021 207.901 181.961 208.682 178.038L207.007 178.872C210.714 178.343 214.482 178.416 218.166 179.089C218.888 179.158 219.61 178.964 220.202 178.543C220.663 178.188 220.57 177.908 220.008 177.817C215.876 177.096 211.655 177.048 207.507 177.675C207.114 177.74 205.927 177.998 205.832 178.509C205.095 181.917 205.185 185.451 206.092 188.817C207 192.183 208.7 195.282 211.049 197.856C212.094 199.046 213.476 199.889 215.013 200.271C216.549 200.652 218.165 200.555 219.644 199.992C220.297 199.788 220.901 199.454 221.421 199.01C221.942 198.567 222.367 198.022 222.672 197.41C223.381 195.746 222.863 193.774 222.611 192.065C221.922 187.399 221.226 182.733 220.524 178.066C220.426 177.396 217.523 178.018 217.647 178.839Z" fill="black"/>
<path d="M410.393 228.277C403.798 234.385 396.27 239.605 387.734 242.271C378.351 245.193 367.599 244.7 359.361 239.355C351.124 234.009 346.164 223.325 348.946 213.904C351.38 205.629 359.082 199.287 359.977 190.707C360.697 183.933 356.954 177.514 352.808 172.092C348.663 166.671 343.881 161.472 341.926 154.939C341.602 153.871 341.364 152.778 341.214 151.671C351.152 151.648 360.211 152.199 367.211 152.296C393.722 152.696 402.195 167.02 405.913 184.786C408 194.799 409.43 210.354 410.393 228.277Z" fill="url(#paint2_linear)"/>
<path d="M409.191 227.865C401.425 235.008 392.048 241.234 381.377 242.669C371.401 244.011 360.683 241.159 354.426 232.86C351.583 229.172 349.914 224.715 349.635 220.066C349.599 215.625 350.869 211.272 353.285 207.547C355.609 203.584 358.491 199.888 360.163 195.573C361.9 191.105 361.888 186.147 360.13 181.688C355.924 170.583 344.516 163.428 342.642 151.291L341.071 152.714C346.489 152.714 351.905 152.874 357.319 153.063C361.727 153.212 366.168 153.182 370.566 153.499C377.892 154.027 385.27 155.885 391.188 160.416C401.623 168.401 404.363 182.313 406.038 194.584C407.568 205.79 408.322 217.106 408.933 228.392C409.014 229.883 411.914 229.418 411.849 228.162C411.276 217.594 410.57 207.014 409.269 196.508C408.577 189.292 407.085 182.176 404.822 175.29C402.835 169.316 399.325 163.964 394.638 159.763C389.048 155.299 382.294 152.536 375.18 151.804C370.112 151.121 364.96 151.23 359.856 151.058C353.683 150.845 347.51 150.639 341.333 150.645C340.61 150.645 339.635 151.251 339.762 152.068C341.551 163.634 351.806 170.549 356.505 180.706C357.758 183.189 358.433 185.924 358.479 188.705C358.526 191.486 357.943 194.242 356.775 196.766C354.703 201.221 351.558 205.068 349.329 209.444C347.249 213.576 346.452 218.236 347.039 222.824C347.627 227.413 349.573 231.721 352.626 235.195C359.249 243.079 369.939 245.934 379.905 244.906C392.129 243.653 402.735 236.852 411.589 228.711C412.12 228.223 411.758 227.583 411.223 227.34C410.869 227.232 410.492 227.224 410.133 227.317C409.775 227.409 409.449 227.599 409.191 227.865Z" fill="black"/>
<path d="M425.87 347.535C428.376 345.22 430.804 342.902 433.033 340.544C435.186 338.264 437.191 335.848 439.034 333.31C440.721 330.899 442.169 328.329 443.357 325.637C444.457 322.973 445.234 320.187 445.673 317.338C446.069 314.358 446.143 311.344 445.894 308.348C445.867 307.579 445.703 306.799 445.617 306.02C445.503 305.274 445.433 304.397 445.29 303.735C445.037 302.341 444.675 300.968 444.208 299.63C442.287 294.111 438.326 288.651 434.049 282.689C431.759 279.567 429.687 276.291 427.847 272.885C425.842 269.146 424.549 265.066 424.036 260.854C423.616 256.638 424.083 252.381 425.408 248.356C426.027 246.342 426.865 244.402 427.908 242.57C428.987 240.731 430.304 239.041 431.824 237.545C434.765 234.674 438.349 232.546 442.277 231.338C446.205 230.129 450.364 229.876 454.41 230.598C458.348 231.304 462.038 233.012 465.125 235.557C466.614 236.823 467.946 238.264 469.09 239.848C470.185 241.422 471.112 243.106 471.855 244.873C471.992 245.193 472.002 245.553 471.883 245.88C471.764 246.207 471.524 246.477 471.213 246.633C470.903 246.789 470.544 246.821 470.211 246.721C469.877 246.622 469.594 246.399 469.42 246.098L469.385 246.038C468.569 244.562 467.602 243.175 466.499 241.898C465.398 240.672 464.155 239.582 462.797 238.651C460.095 236.866 456.98 235.807 453.751 235.576C450.642 235.338 447.52 235.843 444.643 237.048C441.767 238.253 439.217 240.125 437.205 242.509C436.272 243.649 435.494 244.908 434.893 246.253C434.304 247.629 433.868 249.065 433.592 250.535C432.948 253.457 432.931 256.482 433.541 259.41C434.741 265.042 438.722 270.05 443.391 275.307C448.012 280.577 453.47 286.267 457.254 294.041C458.199 296.015 458.987 298.06 459.613 300.157C459.954 301.229 460.128 302.145 460.391 303.152C460.614 304.144 460.908 305.11 461.069 306.135C461.867 310.261 462.214 314.463 462.103 318.664C461.928 322.988 461.227 327.274 460.017 331.428C458.752 335.5 457.077 339.433 455.018 343.166C453.011 346.703 450.77 350.103 448.31 353.342C445.913 356.493 443.425 359.429 440.93 362.279C440.018 363.321 438.91 364.174 437.668 364.788C436.427 365.401 435.077 365.764 433.695 365.856C432.314 365.948 430.928 365.766 429.616 365.322C428.305 364.878 427.093 364.179 426.052 363.266C425.01 362.354 424.158 361.245 423.545 360.003C422.931 358.761 422.569 357.41 422.477 356.027C422.385 354.645 422.567 353.258 423.011 351.946C423.455 350.633 424.153 349.421 425.065 348.379C425.308 348.101 425.565 347.836 425.836 347.584L425.87 347.535Z" fill="white"/>
<path d="M427.007 347.705C436.457 338.958 446.056 328.932 447.309 315.45C448.003 309.297 447.176 303.067 444.9 297.309C442.413 291.527 438.46 286.502 434.866 281.388C431.139 276.093 427.644 270.522 426.123 264.155C424.634 257.606 425.355 250.748 428.173 244.653C429.456 241.854 431.278 239.337 433.535 237.245C435.793 235.152 438.441 233.527 441.327 232.461C444.214 231.396 447.283 230.911 450.357 231.034C453.431 231.158 456.451 231.888 459.243 233.183C462.15 234.588 464.716 236.611 466.762 239.11C467.813 240.387 468.722 241.774 469.473 243.248C469.807 243.896 470.056 244.624 470.421 245.254C470.347 245.127 470.781 246.745 470.831 245.648C470.843 245.394 470.317 244.773 470.18 244.551C468.688 242.045 466.667 239.895 464.259 238.251C461.851 236.607 459.113 235.509 456.236 235.034C450.994 234.257 445.645 235.316 441.094 238.033C438.741 239.432 436.717 241.323 435.162 243.576C433.606 245.83 432.556 248.393 432.081 251.09C431.545 253.969 431.583 256.926 432.195 259.789C432.807 262.653 433.98 265.367 435.646 267.775C438.948 272.86 443.326 277.149 447.227 281.76C451.358 286.396 454.695 291.684 457.104 297.409C459.369 303.416 460.58 309.769 460.681 316.188C460.996 329.984 455.133 342.535 446.979 353.34C444.921 356.068 442.716 358.687 440.478 361.268C438.524 363.52 436.343 365.253 433.204 365.109C430.58 364.893 428.143 363.664 426.409 361.682C424.675 359.7 423.779 357.121 423.911 354.49C424.024 351.911 425.137 349.476 427.015 347.705C428.207 346.633 425.368 346.788 424.738 347.354C422.915 348.983 421.681 351.169 421.229 353.572C420.777 355.976 421.132 358.461 422.239 360.641C423.414 362.762 425.224 364.461 427.413 365.501C429.602 366.542 432.062 366.87 434.447 366.442C440.489 365.493 443.908 360.503 447.499 356.041C451.876 350.766 455.587 344.971 458.547 338.787C463.017 329.536 464.655 319.17 463.254 308.991C461.853 298.812 457.477 289.274 450.675 281.576C446.639 276.705 442 272.256 438.511 266.959C436.502 264.072 435.223 260.741 434.781 257.251C434.34 253.761 434.75 250.217 435.977 246.92C437.213 243.815 439.341 241.145 442.092 239.249C444.842 237.352 448.093 236.314 451.433 236.264C455.095 236.209 458.683 237.292 461.704 239.364C462.973 240.249 464.133 241.279 465.162 242.435C466.279 243.689 466.99 245.155 467.986 246.48C468.327 246.834 468.742 247.108 469.201 247.283C469.66 247.458 470.153 247.53 470.643 247.492C471.133 247.455 471.609 247.31 472.036 247.067C472.464 246.825 472.833 246.491 473.116 246.089C473.705 245.127 473.213 244.242 472.778 243.33C472.072 241.824 471.223 240.389 470.244 239.044C462.791 228.973 448.778 227.112 437.897 232.332C426.152 237.965 420.38 251.703 423.088 264.261C424.499 270.798 428.037 276.542 431.819 281.957C435.817 287.684 440.456 293.322 442.77 300.005C444.979 306.725 445.259 313.931 443.577 320.803C441.829 327.896 437.68 333.911 432.86 339.276C430.305 342.119 427.529 344.752 424.727 347.347C423.552 348.446 426.384 348.281 427.007 347.705Z" fill="black"/>
<path d="M263.368 131.225C261.452 136.245 258.749 140.927 255.361 145.097C253.107 148.406 250.454 151.425 247.46 154.083C244.431 156.76 240.558 158.287 236.519 158.397C234.514 158.42 232.543 157.877 230.831 156.831C229.12 155.785 227.738 154.278 226.843 152.483C225.452 149.277 225.939 145.186 223.516 142.679C221.804 140.916 218.923 140.303 217.871 138.095C217.018 136.266 217.754 134.141 217.747 132.129C217.77 131.487 217.655 130.848 217.41 130.254C221.667 127.493 226.302 125.365 231.17 123.939C245.683 119.392 255.021 116.9 261.811 115.274C261.921 115.423 262.031 115.583 262.128 115.74C265.031 120.235 265.04 126.133 263.368 131.225Z" fill="url(#paint3_linear)"/>
<path d="M261.997 131.083C259.806 137.506 255.553 143.186 251.327 148.418C247.283 153.427 241.009 159.113 234.001 156.91C232.594 156.504 231.305 155.765 230.245 154.754C229.185 153.743 228.384 152.491 227.912 151.105C227.102 148.597 227.126 145.86 225.857 143.498C224.516 141.005 221.882 140.501 220.013 138.619C217.684 136.272 219.902 132.664 218.844 129.854L218.349 130.86C225.829 125.873 234.855 123.733 243.377 121.233C249.565 119.419 255.787 117.71 262.058 116.205L260.484 115.884C263.614 120.466 263.522 126.219 261.912 131.344C261.511 132.624 264.446 132.296 264.823 131.101C266.547 125.617 266.451 119.51 263.125 114.637C262.806 114.17 262.024 114.205 261.553 114.318C254.897 115.916 248.299 117.749 241.737 119.688C233.06 122.252 224.073 124.55 216.459 129.626C216.174 129.815 215.822 130.257 215.964 130.633C216.919 133.169 215.318 135.938 216.425 138.479C217.319 140.54 219.536 141.333 221.251 142.543C223.605 144.205 223.958 146.906 224.473 149.544C224.786 151.894 225.809 154.092 227.405 155.843C229.149 157.455 231.286 158.579 233.602 159.104C235.918 159.629 238.33 159.536 240.599 158.834C246.248 157.301 250.596 153.166 254.137 148.691C258.297 143.426 262.552 137.788 264.738 131.376C265.263 129.832 262.392 129.926 261.997 131.083Z" fill="black"/>
<path d="M467.231 245.413C472.708 254.448 473.328 260.083 470.5 268.533C466.817 279.535 463.256 294.646 481.506 306.688C477.547 286.135 500.302 283.068 493.176 259.199C487.928 241.608 475.916 239.483 468.999 238.783C463.851 238.26 465.164 242.002 467.231 245.413Z" fill="url(#paint4_linear)"/>
<path d="M465.899 245.994C468.701 250.673 471.055 255.795 470.655 261.378C470.357 265.608 468.656 269.505 467.57 273.559C465.617 280.853 465.267 288.667 468.899 295.515C471.678 300.371 475.618 304.459 480.367 307.413C481.035 307.861 483.134 307.322 482.946 306.299C481.713 299.606 483.523 293.815 487.173 288.226C490.346 283.369 494.03 278.763 495.406 272.998C497.25 265.242 494.81 256.524 490.696 249.888C487.308 244.415 481.918 240.482 475.674 238.926C472.991 238.236 469.403 237.357 466.675 238.091C462.415 239.24 464.31 243.321 465.899 245.997C466.419 246.871 469.215 245.931 468.564 244.836C467.606 243.561 467.015 242.047 466.854 240.46C466.947 239.025 468.931 239.687 469.971 239.824C472.24 240.096 474.469 240.632 476.614 241.42C479.665 242.666 482.434 244.516 484.753 246.859C487.071 249.203 488.892 251.992 490.106 255.058C492.889 261.513 494.235 268.834 491.842 275.615C490.082 280.604 486.597 284.676 483.828 289.109C480.292 294.379 478.943 300.819 480.066 307.067L482.643 305.953C474.792 300.694 468.99 293.081 468.969 283.323C469.026 279.778 469.56 276.257 470.558 272.855C471.681 268.767 473.371 264.831 473.573 260.541C473.841 254.794 471.451 249.652 468.563 244.833C468.041 243.959 465.246 244.902 465.899 245.994Z" fill="black"/>
<path d="M243.428 202.786C283.989 199.597 331.63 215.528 337.432 248.046C342.749 277.842 318.608 259.037 308.537 265.857C294.555 275.325 276.819 285.098 246.994 284.651C217.168 284.203 170.497 277.243 171.013 242.609C171.442 213.871 216.238 204.923 243.428 202.786Z" fill="#B2B2B2"/>
<path d="M242.841 203.505C259.278 202.187 275.817 203.961 291.602 208.736C305.265 212.954 319.104 219.836 328.135 231.279C332.234 236.423 334.971 242.519 336.092 249.002C336.8 253.19 338.158 261.024 333.841 263.953C331.027 265.864 326.331 264.644 323.248 264.219C319.134 263.649 314.787 262.972 310.716 264.158C308.41 265.039 306.246 266.254 304.293 267.764C301.547 269.541 298.742 271.229 295.863 272.785C289.237 276.388 282.187 279.15 274.878 281.008C259.487 284.886 243.197 284.506 227.531 282.619C204.607 279.858 171.536 270.713 172.462 241.825C172.876 228.912 183.035 220.197 193.862 214.936C206.234 208.928 220.171 206.136 233.736 204.437C236.764 204.058 239.799 203.747 242.841 203.505C243.34 203.466 244.534 203.324 244.753 202.759C244.957 202.228 244.582 202.022 244.008 202.067C229.825 202.985 215.813 205.683 202.302 210.097C190.644 214.108 177.599 220.538 172.019 232.241C166.592 243.626 170.317 257.711 179.049 266.321C188.472 275.609 202.093 279.824 214.759 282.307C229.638 285.298 244.866 286.148 259.985 284.832C276.017 283.227 291.438 277.832 304.977 269.092C307.018 267.796 309.118 265.837 311.499 265.245C313.474 264.865 315.499 264.824 317.488 265.123C321.835 265.56 326.24 266.661 330.627 266.18C334.758 265.733 338.167 263.575 339.185 259.374C339.798 256.146 339.798 252.831 339.185 249.603C338.7 246.046 337.736 242.572 336.318 239.274C330.55 226.129 318.062 217.314 305.305 211.68C289.928 205.17 273.414 201.773 256.717 201.687C252.48 201.612 248.245 201.738 244.012 202.065C243.514 202.104 242.319 202.247 242.1 202.811C241.891 203.347 242.273 203.549 242.841 203.505Z" fill="black"/>
<path d="M329.172 254.148C327.197 249.822 322.403 247.251 317.968 246.174C315.378 245.466 312.668 245.304 310.012 245.699C307.355 246.094 304.81 247.038 302.537 248.47C299.921 250.341 298.031 253.058 297.187 256.163C296.955 256.949 299.797 256.561 300.045 255.716C300.817 252.637 302.758 249.982 305.456 248.313C307.806 247.09 310.478 246.627 313.103 246.988C318.114 247.5 324.082 250.066 326.292 254.915C326.674 255.75 329.479 254.816 329.172 254.142V254.148Z" fill="black"/>
<path d="M206.306 228.577C203.706 227.608 200.9 227.331 198.162 227.773C195.423 228.216 192.846 229.362 190.684 231.1C188.827 232.514 187.574 234.58 187.18 236.881C186.786 239.183 187.279 241.548 188.56 243.5C190.749 246.83 194.488 248.889 198.057 250.406C199.179 250.883 201.402 249.271 199.747 248.568C195.391 246.716 189.503 243.122 189.87 237.602C190.131 233.661 193.538 230.847 197.012 229.935C199.536 229.327 202.186 229.493 204.614 230.414C205.753 230.826 207.989 229.184 206.303 228.577H206.306Z" fill="black"/>
<path d="M260.685 224.256C263.557 222.179 266.96 220.963 270.497 220.752C273.265 220.69 275.978 221.536 278.221 223.161C280.232 224.646 281.614 226.83 282.096 229.284C282.578 231.737 282.126 234.283 280.827 236.419C278.579 239.801 275.292 242.358 271.463 243.704C271.118 243.846 270.591 244.128 271.087 244.368C271.583 244.608 272.649 244.159 273.093 243.977C279.122 241.51 286.249 236.36 285.105 228.912C284.172 222.83 278.089 219.602 272.387 219.664C267.42 219.861 262.608 221.454 258.504 224.261C258.057 224.56 258.118 224.775 258.653 224.804C259.37 224.814 260.074 224.625 260.69 224.258L260.685 224.256Z" fill="black"/>
<path d="M210.665 198.575C214.043 198.575 216.782 195.834 216.782 192.454C216.782 189.073 214.043 186.332 210.665 186.332C207.286 186.332 204.547 189.073 204.547 192.454C204.547 195.834 207.286 198.575 210.665 198.575Z" fill="white"/>
<path d="M261.906 188.486C265.285 188.486 268.024 185.746 268.024 182.365C268.024 178.984 265.285 176.243 261.906 176.243C258.527 176.243 255.788 178.984 255.788 182.365C255.788 185.746 258.527 188.486 261.906 188.486Z" fill="white"/>
<path d="M310.861 133.942C308.06 133.603 305.224 133.682 302.446 134.177C300.85 134.445 299.318 135.011 297.931 135.847C297.705 135.988 297.496 136.153 297.306 136.339C296.852 136.814 297.703 136.911 298.008 136.894C298.711 136.886 299.39 136.635 299.93 136.184C300.045 136.063 300.107 136.156 299.864 136.231C299.995 136.161 300.116 136.075 300.225 135.975C300.492 135.789 299.961 136.101 300.279 135.944C300.417 135.877 300.559 135.81 300.696 135.74C300.903 135.632 300.367 135.861 300.611 135.776C300.702 135.744 300.792 135.703 300.882 135.668L301.103 135.589C301.489 135.44 300.857 135.652 301.127 135.577C301.34 135.519 301.55 135.455 301.765 135.401C301.85 135.38 302.316 135.288 301.889 135.37C301.999 135.349 302.108 135.325 302.218 135.306C302.516 135.249 302.814 135.204 303.12 135.157L303.314 135.133C303.177 135.148 303.192 135.148 303.358 135.133C303.525 135.118 303.736 135.097 303.925 135.084C305.622 134.977 307.325 135.016 309.016 135.201C309.738 135.253 310.456 135.062 311.058 134.658C311.514 134.336 311.435 133.998 310.865 133.942H310.861Z" fill="black"/>
<path d="M117.02 414.6C120.323 414.236 123.627 413.874 126.933 413.513C135.864 412.536 144.796 411.563 153.729 410.592C167.093 409.14 180.459 407.694 193.828 406.255C210.166 404.495 226.506 402.745 242.848 401.005C260.881 399.084 278.915 397.179 296.949 395.289C315.347 393.362 333.749 391.456 352.152 389.57C369.592 387.786 387.033 386.032 404.474 384.308C419.679 382.81 434.889 381.358 450.104 379.95C461.629 378.895 473.158 377.861 484.699 376.992C488.679 376.694 492.662 376.404 496.648 376.178C498.139 376.092 499.629 376.015 501.12 375.958C502.497 375.905 503.073 375.885 504.186 375.884C504.881 375.884 505.577 375.884 506.273 375.948C506.816 375.994 508.238 375.649 508.253 374.877C508.785 347.005 510.836 319.144 512.021 291.297C512.694 275.474 513.294 259.64 513.431 243.802C513.534 231.87 513.023 219.994 512.434 208.085C510.733 173.678 507.883 138.924 499.342 105.451C495.038 88.5826 489.16 71.977 479.898 57.1538C470.208 41.4968 457.028 28.2965 441.389 18.5863C426.958 9.87445 410.935 4.1326 394.257 1.69732C376.873 -0.965124 358.993 -0.141779 341.572 1.74953C300.567 6.18365 260.873 18.8269 224.853 38.9268C206.804 49.0486 189.576 60.8857 175.363 76.034C163.178 89.1744 153.006 104.049 145.178 120.172C138.223 134.542 132.627 149.531 128.462 164.943C125.211 175.957 122.664 187.166 120.836 198.504C119.259 209.452 118.534 220.539 117.838 231.57C116.824 247.622 116.157 263.697 115.648 279.773C114.487 316.542 114.117 353.366 114.964 390.149C115.148 398.128 115.408 406.104 115.745 414.078C115.791 415.169 118.677 414.545 118.624 413.306C117.079 377.644 117.169 341.897 117.865 306.211C118.47 275.17 119.345 244.028 122.088 213.09C124.364 189.662 129.614 166.62 137.709 144.519C149.752 110.849 169.43 79.8211 198.332 58.2202C232.088 32.9934 272.506 16.2819 313.659 7.88136C332.438 4.00243 351.557 1.99986 370.732 1.90316C387.109 1.75281 403.379 4.5539 418.764 10.1724C435.392 16.3585 450.374 26.2912 462.549 39.2013C474.751 52.4836 484.108 68.1224 490.047 85.1564C502.004 118.189 505.981 153.992 508.383 188.844C509.287 201.97 510.034 215.133 510.417 228.283C510.814 241.947 510.417 255.641 509.97 269.301C508.973 300.027 507.13 330.713 505.823 361.426C505.628 366.007 505.441 370.59 505.355 375.175L507.335 374.104C502.093 373.901 496.844 374.095 491.632 374.686C481.176 375.397 470.731 376.303 460.292 377.232C445.922 378.511 431.558 379.856 417.199 381.268C400.205 382.918 383.219 384.608 366.241 386.34C347.884 388.203 329.531 390.092 311.181 392.008C292.861 393.917 274.543 395.843 256.227 397.787C239.343 399.577 222.461 401.38 205.58 403.196C191.342 404.724 177.105 406.261 162.868 407.806C152.713 408.907 142.558 410.012 132.403 411.122C127.592 411.647 122.769 412.114 117.965 412.703C117.761 412.728 117.556 412.748 117.352 412.77C115.854 412.936 115.036 414.818 117.02 414.6Z" fill="#B2B2B2"/>
<path d="M623.5 456.09C618.219 403.691 476.886 303.932 305.393 318.596C133.9 333.259 0.925475 458.036 2.45489 509.189C3.555 545.93 147.147 563.669 318.644 549.005C490.14 534.342 627.185 492.688 623.5 456.09Z" fill="url(#paint5_linear)"/>
<path d="M624.936 455.703C623.594 442.974 615.806 431.374 607.886 421.739C595.96 407.235 581.27 395.04 565.924 384.333C524.154 355.188 475.388 335.908 425.718 325.391C366.332 312.815 304.9 313.548 245.831 327.537C193.004 340.195 142.915 362.353 98.0063 392.931C79.3305 405.497 61.8267 419.725 45.7079 435.44C33.2624 447.703 21.5279 461.052 12.4662 476.056C6.58105 485.803 0.836037 497.288 1.00001 508.975C1.14908 519.16 10.8622 525.741 18.9819 529.951C34.6442 538.072 52.5829 541.999 69.803 545.156C94.9381 549.526 120.325 552.298 145.81 553.455C213.217 557.121 281.088 553.999 348.172 546.892C409.705 540.368 471.554 530.608 531.033 513.182C551.522 507.182 571.998 500.283 591.096 490.639C602.208 485.029 615.19 477.96 621.929 466.997C624.136 463.661 625.191 459.693 624.933 455.7C624.855 454.861 621.961 455.456 622.053 456.473C622.983 466.607 613.577 474.649 606.2 479.94C591.889 490.205 574.972 496.957 558.499 502.882C534.64 511.236 510.289 518.11 485.584 523.465C455.087 530.346 424.244 535.681 393.283 539.975C325.67 549.511 257.438 553.97 189.16 553.314C160.754 553.119 132.375 551.49 104.133 548.432C83.0669 546.046 61.8116 542.814 41.4953 536.582C29.8548 533.011 15.8023 528.349 7.80637 518.534C1.46361 510.744 4.05736 500.344 7.31594 491.741C12.5333 477.959 21.428 465.601 30.8132 454.373C43.8015 439.111 58.2617 425.167 73.9843 412.745C114.077 380.779 159.457 356.088 208.065 339.792C265.309 320.307 326.162 313.778 386.233 320.676C439.041 326.871 491.133 343.099 537.492 369.288C555.861 379.438 573.028 391.626 588.67 405.622C599.887 415.862 610.757 427.577 617.427 441.38C619.824 446.112 621.387 451.223 622.048 456.486C622.145 457.323 625.043 456.718 624.936 455.703Z" fill="black"/>
<path d="M601.51 461.271C597.411 422.043 467.486 367.965 308.288 381.577C149.09 395.189 24.3587 472.209 24.9997 510.563C25.4603 538.111 158.301 549.233 317.499 535.621C476.697 522.009 604.374 488.673 601.51 461.271Z" fill="#B2B2B2"/>
<path d="M602.95 460.885C601.834 450.892 593.927 442.667 586.612 436.513C574.613 426.416 560.377 419.003 546.066 412.761C502.933 393.938 455.461 384.782 408.777 380.758C350.444 375.807 291.699 379.567 234.472 391.915C186.698 402.184 139.53 418.064 96.4247 441.278C80.5618 449.582 65.5438 459.41 51.5827 470.624C42.2586 478.302 32.7705 487.159 27.1194 498.012C23.8221 504.342 21.3982 512.284 26.8541 518.085C33.8602 525.543 45.7586 528.526 55.278 530.936C72.68 535.355 90.6648 537.499 108.516 539.092C132.943 541.276 157.491 542.086 182.005 542.207C243.4 542.312 304.747 538.753 365.719 531.548C418.542 525.476 471.542 517.336 522.984 503.645C540.286 499.039 557.625 493.844 574.013 486.558C583.185 482.481 594.102 477.529 600.249 469.181C602.142 466.845 603.102 463.889 602.944 460.885C602.859 459.978 599.963 460.587 600.064 461.658C600.777 469.308 591.98 475.061 586.416 478.465C573.894 486.122 559.649 491.095 545.734 495.536C500.035 510.119 452.198 518.389 404.793 525.069C344.421 533.584 283.611 538.635 222.661 540.195C175.39 541.388 127.271 541.239 80.4255 534.023C66.7114 531.909 52.4174 529.382 39.6946 523.596C33.3802 520.725 25.7897 516.288 26.5202 508.345C27.4041 498.728 34.2969 490.148 40.6278 483.363C51.0773 472.176 63.6704 462.987 76.5274 454.779C114.143 430.764 156.585 414.114 199.407 402.083C254.476 386.624 311.505 379.294 368.691 380.324C418.94 381.243 469.846 388.188 517.634 404.15C534.96 409.68 551.65 417.038 567.422 426.099C577.901 432.316 588.786 439.873 595.615 450.205C597.99 453.615 599.522 457.54 600.087 461.658C600.173 462.573 603.068 461.946 602.95 460.885Z" fill="black"/>
<path d="M314.81 503.766C372.531 498.453 418.231 482.272 416.885 467.626C415.538 452.979 367.654 445.413 309.933 450.726C252.212 456.039 206.512 472.22 207.858 486.866C209.205 501.513 257.089 509.079 314.81 503.766Z" fill="white"/>
<path d="M418.323 467.242C417.941 463.618 415.019 460.9 412.12 459.039C407.402 456.243 402.27 454.218 396.915 453.038C380.332 448.804 362.857 447.952 345.814 447.953C323.616 447.982 301.46 449.878 279.579 453.621C262.204 456.578 244.643 460.523 228.36 467.42C222.912 469.562 217.774 472.425 213.085 475.932C210.197 478.223 207.224 481.202 206.5 484.968C204.824 493.695 216.97 498.174 223.243 500.16C238.623 505.027 255.28 506.092 271.303 506.46C293.466 506.901 315.626 505.442 337.539 502.099C355.755 499.372 374.049 495.584 391.331 489.091C397.377 486.942 403.171 484.141 408.611 480.738C412.054 478.501 415.713 475.65 417.489 471.826C418.165 470.397 418.452 468.816 418.323 467.241C418.217 465.898 415.332 466.598 415.443 468.012C415.698 471.249 413.292 474.103 411.041 476.116C406.946 479.518 402.36 482.281 397.439 484.309C382.383 491.11 365.917 494.96 349.737 497.949C328.94 501.76 307.869 503.886 286.73 504.308C269.382 504.675 251.71 504.1 234.652 500.653C228.857 499.622 223.213 497.873 217.85 495.446C214.761 493.955 211.124 491.798 209.775 488.448C206.704 480.824 218.139 474.752 223.32 472.097C237.082 465.048 252.528 461.14 267.581 458.002C288.227 453.772 309.184 451.24 330.243 450.431C348.475 449.67 366.977 449.948 385.021 452.913C391.359 453.839 397.583 455.417 403.596 457.623C407.289 459.055 411.402 460.934 413.87 464.174C414.745 465.28 415.292 466.61 415.447 468.012C415.584 469.36 418.472 468.65 418.323 467.242Z" fill="black"/>
<path d="M329.691 470.236C329.935 470.19 330.162 470.08 330.349 469.917C330.536 469.754 330.676 469.544 330.755 469.309C329.785 469.26 328.798 469.221 327.787 469.198C327.786 470.44 328.764 470.477 329.691 470.236Z" fill="black"/>
<path d="M328.823 490.53C329.32 490.43 329.809 490.328 330.289 490.224C330.247 490.166 330.19 490.12 330.125 490.091C329.891 489.998 329.632 489.99 329.393 490.071C329.155 490.151 328.953 490.314 328.823 490.53Z" fill="black"/>
<path d="M328.233 479.901C328.212 480.264 328.31 480.623 328.513 480.924C328.716 481.225 329.012 481.452 329.355 481.569C330.263 481.834 330.77 481.215 330.945 480.456C331.196 479.363 330.848 478.444 329.572 478.444C328.783 478.444 328.319 479.082 328.233 479.901Z" fill="black"/>
<path d="M317.858 471.186C318.419 471.167 318.959 470.968 319.398 470.619C319.838 470.27 320.154 469.789 320.3 469.247C319.001 469.29 317.684 469.352 316.348 469.433C316.295 469.653 316.295 469.882 316.348 470.102C316.401 470.322 316.506 470.526 316.654 470.697C316.801 470.868 316.987 471.002 317.197 471.087C317.406 471.172 317.633 471.206 317.858 471.186Z" fill="black"/>
<path d="M344.727 473.944C344.717 475.013 345.182 475.935 346.328 475.925C347.395 475.914 347.981 475.095 348.107 474.017C348.076 473.777 347.998 473.547 347.877 473.338C347.756 473.129 347.595 472.947 347.402 472.802C347.209 472.656 346.99 472.551 346.756 472.492C346.522 472.433 346.279 472.422 346.04 472.458C345.671 472.486 345.327 472.656 345.082 472.934C344.837 473.211 344.709 473.574 344.727 473.944Z" fill="black"/>
<path d="M351.902 478.426C351.73 478.423 351.559 478.455 351.399 478.52C351.24 478.585 351.096 478.682 350.975 478.805C350.854 478.928 350.76 479.074 350.697 479.234C350.635 479.395 350.605 479.566 350.611 479.738C350.58 480.721 350.854 481.591 352.021 481.571C352.524 481.118 352.97 480.606 353.351 480.046C353.282 479.161 353.026 478.387 351.902 478.426Z" fill="black"/>
<path d="M346.421 484.213C346.256 484.159 346.08 484.146 345.909 484.176C345.738 484.206 345.577 484.277 345.44 484.383C345.303 484.49 345.194 484.628 345.123 484.787C345.051 484.945 345.02 485.118 345.031 485.292C345.036 485.432 345.057 485.571 345.094 485.706C345.839 485.385 346.532 485.057 347.193 484.725C346.989 484.484 346.721 484.307 346.421 484.213Z" fill="black"/>
<path d="M340.506 470.835C340.976 470.921 341.461 470.823 341.861 470.561C341.004 470.397 340.112 470.248 339.185 470.113C339.514 470.518 339.988 470.777 340.506 470.835Z" fill="black"/>
<path d="M336.67 474.251C336.598 473.787 336.345 473.37 335.966 473.093C335.587 472.815 335.114 472.699 334.65 472.77C334.416 472.793 334.189 472.865 333.984 472.981C333.779 473.097 333.601 473.255 333.461 473.444C333.32 473.633 333.221 473.85 333.169 474.08C333.117 474.31 333.114 474.548 333.16 474.779C333.266 475.911 334.152 476.27 335.169 476.178C336.293 476.071 336.715 475.317 336.67 474.251Z" fill="black"/>
<path d="M324.515 487.341C324.753 487.3 324.981 487.212 325.184 487.081C325.387 486.951 325.562 486.781 325.698 486.581C325.834 486.381 325.929 486.157 325.976 485.92C326.024 485.683 326.023 485.439 325.975 485.202C325.946 484.835 325.778 484.493 325.505 484.246C325.232 483.999 324.876 483.866 324.508 483.873C323.438 483.873 322.57 484.397 322.636 485.553C322.65 486.038 322.856 486.499 323.208 486.833C323.56 487.168 324.03 487.351 324.515 487.341Z" fill="black"/>
<path d="M335.138 487.146C336.278 487.155 336.684 486.345 336.681 485.406C336.479 484.544 335.983 483.93 335.239 484.237C334.959 484.393 334.714 484.604 334.519 484.859C334.324 485.113 334.183 485.405 334.106 485.717C334.059 485.88 334.049 486.052 334.078 486.219C334.107 486.387 334.174 486.545 334.273 486.683C334.373 486.821 334.502 486.934 334.652 487.014C334.802 487.095 334.968 487.139 335.138 487.146Z" fill="black"/>
<path d="M338.876 480.401C338.834 480.579 338.833 480.764 338.874 480.943C338.915 481.122 338.997 481.288 339.113 481.429C339.229 481.571 339.377 481.683 339.544 481.758C339.711 481.833 339.893 481.867 340.076 481.86C340.512 481.904 340.952 481.816 341.337 481.609C341.723 481.401 342.039 481.083 342.242 480.695C342.786 478.717 342.138 478.265 341.4 478.254C340.789 478.239 340.195 478.45 339.729 478.846C339.264 479.242 338.96 479.795 338.876 480.401Z" fill="black"/>
<path d="M320.093 491.089C320.078 490.917 320.025 490.75 319.938 490.6C319.851 490.45 319.732 490.321 319.59 490.223C319.447 490.125 319.285 490.059 319.114 490.031C318.943 490.004 318.768 490.014 318.602 490.062C318.414 490.178 318.257 490.339 318.147 490.531C318.037 490.723 317.978 490.94 317.973 491.161C317.975 491.371 318.032 491.576 318.138 491.757C318.244 491.938 318.396 492.088 318.578 492.192L319.504 492.072C319.74 491.771 319.938 491.44 320.093 491.089Z" fill="black"/>
<path d="M318.785 478.241C317.556 478.551 316.528 479.248 316.582 480.684C316.578 480.866 316.615 481.046 316.689 481.212C316.763 481.379 316.873 481.526 317.011 481.645C317.149 481.763 317.312 481.85 317.487 481.898C317.662 481.946 317.846 481.955 318.025 481.924C318.624 481.833 319.171 481.532 319.569 481.075C319.966 480.617 320.187 480.033 320.192 479.427C320.213 479.246 320.189 479.062 320.121 478.893C320.054 478.724 319.946 478.574 319.806 478.456C319.667 478.339 319.501 478.258 319.323 478.22C319.145 478.183 318.96 478.19 318.785 478.241Z" fill="black"/>
<path d="M325.815 474.13C325.826 473.757 325.69 473.396 325.436 473.123C325.182 472.85 324.831 472.688 324.459 472.673C324.217 472.666 323.976 472.708 323.751 472.797C323.526 472.885 323.321 473.018 323.149 473.187C322.976 473.357 322.839 473.559 322.747 473.783C322.654 474.006 322.607 474.246 322.609 474.488C322.583 474.671 322.597 474.858 322.652 475.035C322.706 475.212 322.799 475.374 322.924 475.511C323.049 475.647 323.202 475.755 323.373 475.825C323.544 475.895 323.729 475.927 323.913 475.917C324.399 475.921 324.868 475.737 325.222 475.405C325.576 475.072 325.788 474.615 325.815 474.13Z" fill="black"/>
<path d="M312.641 472.294C312.396 472.298 312.156 472.353 311.934 472.457C311.713 472.561 311.517 472.711 311.358 472.897C311.199 473.083 311.081 473.3 311.013 473.535C310.944 473.77 310.927 474.016 310.961 474.258C310.941 474.634 311.059 475.005 311.294 475.299C311.528 475.594 311.863 475.792 312.234 475.856C312.472 475.921 312.723 475.932 312.966 475.887C313.209 475.843 313.44 475.745 313.64 475.599C313.84 475.454 314.005 475.266 314.123 475.048C314.241 474.83 314.308 474.589 314.321 474.342C314.461 473.229 313.689 472.58 312.641 472.294Z" fill="black"/>
<path d="M311.044 485.023C310.607 486.515 311.554 487.229 312.848 487.41C313.027 487.426 313.209 487.405 313.38 487.347C313.55 487.29 313.707 487.197 313.84 487.075C313.973 486.953 314.079 486.805 314.152 486.639C314.224 486.474 314.261 486.295 314.26 486.115C314.3 485.643 314.164 485.173 313.877 484.795C313.591 484.418 313.175 484.161 312.709 484.073C312.364 484.01 312.008 484.071 311.704 484.245C311.399 484.418 311.166 484.694 311.044 485.023Z" fill="black"/>
<path d="M295.571 490.097C295.369 490.166 295.184 490.275 295.027 490.419C294.87 490.563 294.745 490.738 294.659 490.933C294.391 491.744 294.97 492.227 295.662 492.336C296.442 492.46 296.875 491.957 296.926 491.162C296.756 490.443 296.41 489.854 295.571 490.097Z" fill="black"/>
<path d="M295.735 478.448C294.947 478.448 294.477 479.076 294.394 479.898C294.379 480.261 294.482 480.619 294.687 480.919C294.892 481.219 295.189 481.445 295.532 481.563C296.446 481.839 296.947 481.22 297.121 480.462C297.37 479.364 297.004 478.454 295.735 478.448Z" fill="black"/>
<path d="M288.389 485.927C288.407 486.264 288.512 486.59 288.693 486.874C288.874 487.159 289.125 487.391 289.422 487.55C290.971 487.899 291.408 486.573 291.87 485.557C291.943 485.385 291.974 485.198 291.962 485.011C291.95 484.825 291.895 484.643 291.801 484.482C291.707 484.32 291.576 484.183 291.42 484.081C291.263 483.978 291.085 483.914 290.899 483.893C290.598 483.841 290.289 483.855 289.994 483.933C289.698 484.01 289.422 484.15 289.185 484.342C288.948 484.535 288.754 484.776 288.617 485.049C288.479 485.322 288.402 485.622 288.389 485.927Z" fill="black"/>
<path d="M301.018 484.708C300.502 485.406 300.884 486.042 301.622 486.24C301.92 486.322 302.367 485.875 302.747 485.667C302.576 485.251 302.509 484.673 302.199 484.474C301.998 484.408 301.784 484.394 301.577 484.435C301.37 484.476 301.178 484.57 301.018 484.708Z" fill="black"/>
<path d="M305.591 479.688C305.491 480.043 305.533 480.424 305.71 480.749C305.887 481.073 306.185 481.315 306.538 481.422C306.717 481.498 306.91 481.538 307.105 481.538C307.3 481.539 307.493 481.502 307.673 481.427C307.853 481.353 308.017 481.244 308.155 481.106C308.292 480.968 308.402 480.805 308.476 480.624C308.887 479.173 308.494 478.526 307.766 478.299C307.532 478.217 307.282 478.189 307.035 478.217C306.788 478.246 306.551 478.33 306.341 478.464C306.132 478.598 305.955 478.778 305.826 478.99C305.696 479.201 305.616 479.44 305.591 479.688Z" fill="black"/>
<path d="M307.507 470.224C307.313 470.246 307.121 470.273 306.928 470.297C307.124 470.307 307.32 470.282 307.507 470.224Z" fill="black"/>
<path d="M307.468 489.853C306.542 489.748 305.858 490.074 305.749 490.793C305.658 491.252 305.71 491.728 305.898 492.157C306.087 492.585 306.403 492.946 306.803 493.188C307.394 493.161 307.99 493.131 308.592 493.097C308.755 492.905 308.875 492.68 308.944 492.438C309.021 492.171 309.044 491.892 309.011 491.616C308.978 491.34 308.89 491.074 308.753 490.833C308.615 490.592 308.43 490.381 308.21 490.212C307.989 490.044 307.737 489.922 307.468 489.853Z" fill="black"/>
<path d="M301.936 472.545C301.088 472.264 300.633 472.916 300.423 473.598C300.331 473.809 300.286 474.038 300.291 474.269C300.297 474.5 300.353 474.727 300.455 474.934C300.557 475.14 300.704 475.322 300.884 475.466C301.064 475.611 301.274 475.714 301.498 475.768C302.382 475.948 302.798 475.376 303.039 474.7C303.137 474.488 303.185 474.257 303.18 474.024C303.175 473.791 303.117 473.562 303.011 473.354C302.905 473.147 302.753 472.966 302.567 472.826C302.38 472.686 302.165 472.59 301.936 472.545Z" fill="black"/>
<path d="M289.935 475.896C291.069 476.033 291.724 475.332 292.008 474.279C291.992 473.848 291.822 473.438 291.529 473.122C290.624 473.349 289.74 473.583 288.883 473.824C288.814 473.993 288.765 474.169 288.734 474.348C288.701 474.53 288.707 474.716 288.751 474.896C288.796 475.075 288.877 475.243 288.99 475.389C289.104 475.535 289.246 475.656 289.409 475.743C289.572 475.83 289.751 475.883 289.935 475.896Z" fill="black"/>
<path d="M283.872 480.089C283.924 480.408 284.054 480.709 284.25 480.965C284.447 481.221 284.704 481.424 284.998 481.557C285.187 481.603 285.384 481.606 285.574 481.566C285.764 481.526 285.943 481.443 286.098 481.325C286.252 481.207 286.379 481.056 286.467 480.883C286.556 480.71 286.605 480.519 286.611 480.325C286.661 479.052 286.155 478.542 285.456 478.398C284.124 478.12 283.835 479.196 283.872 480.089Z" fill="black"/>
<path d="M286.152 491.306C286.21 490.08 285.327 489.78 284.329 489.814C284.154 489.813 283.98 489.847 283.819 489.913C283.657 489.98 283.51 490.078 283.387 490.203C283.264 490.327 283.167 490.474 283.102 490.637C283.036 490.799 283.004 490.973 283.006 491.148C282.994 491.385 283.034 491.622 283.123 491.843C283.942 492.007 284.794 492.16 285.682 492.301C285.826 492.177 285.942 492.025 286.023 491.853C286.104 491.682 286.148 491.495 286.152 491.306Z" fill="black"/>
<path d="M275.511 480.037C275.473 479.841 275.415 479.649 275.337 479.465C274.406 480.069 273.551 480.784 272.792 481.594C273.035 481.7 273.299 481.747 273.563 481.73C274.035 481.722 274.489 481.548 274.846 481.238C275.202 480.929 275.438 480.503 275.511 480.037Z" fill="black"/>
<path d="M277.303 485.512C277.219 485.734 277.191 485.973 277.224 486.208C277.256 486.443 277.347 486.666 277.488 486.857C277.63 487.047 277.817 487.199 278.032 487.298C278.247 487.397 278.484 487.44 278.721 487.423C279.194 487.401 279.643 487.208 279.986 486.881C280.328 486.553 280.541 486.113 280.584 485.641C280.605 485.288 280.496 484.94 280.278 484.662C280.06 484.384 279.748 484.196 279.4 484.133C279.171 484.07 278.932 484.057 278.697 484.094C278.463 484.131 278.239 484.218 278.04 484.348C277.842 484.479 277.674 484.65 277.546 484.851C277.419 485.052 277.336 485.277 277.303 485.512Z" fill="black"/>
<path d="M356.119 58.1709C350.888 54.9193 345.374 51.353 342.834 45.7387C339.078 37.4382 343.508 27.1359 350.94 21.8737C358.373 16.6114 367.967 15.451 377.067 15.7702C394.854 16.4222 412.108 22.0138 426.9 31.9194C434.173 36.8102 440.963 42.9764 444.438 51.0263C450.203 64.3774 444.681 81.5885 432.225 89.0867C421.045 95.8151 405.637 93.9551 395.994 85.316C383.976 74.5528 369.899 66.7325 356.119 58.1709Z" fill="#B2B2B2"/>
<path d="M448.871 114.491C449.288 111.96 450.231 109.545 451.64 107.401C453.048 105.258 454.891 103.434 457.049 102.049C459.233 100.703 461.733 99.9559 464.297 99.8831C466.862 99.8103 469.4 100.414 471.657 101.634C475.719 103.998 478.195 108.383 479.743 112.821C481.724 117.914 482.109 123.49 480.846 128.807C479.376 134.028 475.339 138.722 470.058 139.948C457.235 142.931 446.987 125.113 448.871 114.491Z" fill="#B2B2B2"/>
<defs>
<linearGradient id="paint0_linear" x1="193.448" y1="81.429" x2="232.677" y2="81.429" gradientUnits="userSpaceOnUse">
<stop offset="0.177083" stop-color="#8F6AFA"/>
<stop offset="0.651042" stop-color="#375CDC"/>
<stop offset="1" stop-color="#0099EE"/>
</linearGradient>
<linearGradient id="paint1_linear" x1="253.518" y1="65.8855" x2="300.992" y2="65.8855" gradientUnits="userSpaceOnUse">
<stop offset="0.177083" stop-color="#8F6AFA"/>
<stop offset="0.651042" stop-color="#375CDC"/>
<stop offset="1" stop-color="#0099EE"/>
</linearGradient>
<linearGradient id="paint2_linear" x1="341.214" y1="151.671" x2="413.851" y2="151.671" gradientUnits="userSpaceOnUse">
<stop offset="0.177083" stop-color="#8F6AFA"/>
<stop offset="0.651042" stop-color="#375CDC"/>
<stop offset="1" stop-color="#0099EE"/>
</linearGradient>
<linearGradient id="paint3_linear" x1="217.41" y1="115.274" x2="266.85" y2="115.274" gradientUnits="userSpaceOnUse">
<stop offset="0.177083" stop-color="#8F6AFA"/>
<stop offset="0.651042" stop-color="#375CDC"/>
<stop offset="1" stop-color="#0099EE"/>
</linearGradient>
<linearGradient id="paint4_linear" x1="465.406" y1="238.734" x2="496.026" y2="238.734" gradientUnits="userSpaceOnUse">
<stop offset="0.177083" stop-color="#8F6AFA"/>
<stop offset="0.651042" stop-color="#375CDC"/>
<stop offset="1" stop-color="#0099EE"/>
</linearGradient>
<linearGradient id="paint5_linear" x1="2.44183" y1="317.14" x2="654.63" y2="317.14" gradientUnits="userSpaceOnUse">
<stop offset="0.177083" stop-color="#8F6AFA"/>
<stop offset="0.651042" stop-color="#375CDC"/>
<stop offset="1" stop-color="#0099EE"/>
</linearGradient>
</defs>
</svg>
