<svg width="1565" height="1576" viewBox="0 0 1565 1576" fill="none" xmlns="http://www.w3.org/2000/svg">
<circle cx="777.351" cy="788.314" r="784.851" fill="#B2B2B2" stroke="black" stroke-width="5"/>
<circle cx="777.351" cy="788.314" r="727.678" fill="white" stroke="black" stroke-width="5"/>
<circle cx="772.45" cy="788.314" r="722.777" fill="black" stroke="black" stroke-width="5"/>
<circle cx="768.565" cy="800.565" r="586.479" fill="url(#paint0_linear)" stroke="black" stroke-width="5"/>
<path d="M767.748 1210.63C987.452 1210.63 1165.56 1032.52 1165.56 812.817C1165.56 593.113 987.452 415.008 767.748 415.008C548.045 415.008 369.939 593.113 369.939 812.817C369.939 1032.52 548.045 1210.63 767.748 1210.63Z" fill="#F2F2F2" stroke="black" stroke-width="5"/>
<path d="M767.749 1034.21C897.237 1034.21 1002.21 929.236 1002.21 799.749C1002.21 670.261 897.237 565.291 767.749 565.291C638.261 565.291 533.291 670.261 533.291 799.749C533.291 929.236 638.261 1034.21 767.749 1034.21Z" fill="url(#paint1_linear)" stroke="black" stroke-width="5"/>
<path d="M768.565 903.526C825.429 903.526 871.526 857.429 871.526 800.565C871.526 743.702 825.429 697.605 768.565 697.605C711.702 697.605 665.604 743.702 665.604 800.565C665.604 857.429 711.702 903.526 768.565 903.526Z" fill="white" stroke="black" stroke-width="5"/>
<path d="M923.417 697.8C921.766 697.682 919.996 697.564 918.344 697.328C915.749 696.856 915.749 700.868 918.344 700.396C919.996 700.042 921.648 700.042 923.417 699.924C924.715 699.806 924.715 697.8 923.417 697.8Z" fill="url(#paint2_linear)"/>
<defs>
<linearGradient id="paint0_linear" x1="184.586" y1="216.586" x2="1410.94" y2="216.586" gradientUnits="userSpaceOnUse">
<stop offset="0.385417" stop-color="#8F6AFA"/>
<stop offset="0.75" stop-color="#375CDC"/>
<stop offset="1" stop-color="#0099EE"/>
</linearGradient>
<linearGradient id="paint1_linear" x1="535.791" y1="567.791" x2="1022.9" y2="567.791" gradientUnits="userSpaceOnUse">
<stop offset="0.177083" stop-color="#8F6AFA"/>
<stop offset="0.651042" stop-color="#375CDC"/>
<stop offset="1" stop-color="#0099EE"/>
</linearGradient>
<linearGradient id="paint2_linear" x1="925.848" y1="700.435" x2="908.529" y2="698.712" gradientUnits="userSpaceOnUse">
<stop offset="0.00409913" stop-color="white"/>
<stop offset="0.957588" stop-color="#C9BFD8" stop-opacity="0"/>
</linearGradient>
</defs>
</svg>
