<svg width="3259" height="2715" viewBox="0 0 3259 2715" fill="none" xmlns="http://www.w3.org/2000/svg">
<path d="M1629.12 2432.71C2515.55 2432.71 3234.15 2134.17 3234.15 1765.9C3234.15 1397.63 2515.55 1099.08 1629.12 1099.08C742.691 1099.08 24.0967 1397.63 24.0967 1765.9C24.0967 2134.17 742.691 2432.71 1629.12 2432.71Z" fill="white"/>
<path d="M1629.12 2456.81C1197.29 2456.81 790.958 2386.81 484.936 2259.65C172.216 2129.75 0 1954.38 0 1765.9C0 1577.42 172.216 1402.05 484.936 1272.14C790.958 1145.01 1197.29 1074.99 1629.12 1074.99C2060.95 1074.99 2467.26 1145.01 2773.28 1272.14C3086 1402.07 3258.22 1577.42 3258.22 1765.9C3258.22 1954.38 3086 2129.75 2773.28 2259.65C2467.26 2386.81 2060.92 2456.81 1629.12 2456.81ZM1629.12 1123.18C757.392 1123.18 48.1924 1411.52 48.1924 1765.9C48.1924 2120.28 757.392 2408.62 1629.12 2408.62C2500.85 2408.62 3210.02 2120.28 3210.02 1765.9C3210.02 1411.52 2500.85 1123.18 1629.12 1123.18Z" fill="black"/>
<path d="M1613.22 2075.79L564.532 1898.56C558.863 1897.66 553.056 1898.78 548.137 1901.74C543.217 1904.7 539.499 1909.3 537.641 1914.73L281.932 2682.82C280.458 2687.27 280.311 2692.04 281.509 2696.57C282.706 2701.1 285.197 2705.18 288.676 2708.31C292.155 2711.44 296.471 2713.5 301.097 2714.22C305.724 2714.94 310.46 2714.29 314.727 2712.37L1619.05 2121.5C1623.79 2119.39 1627.71 2115.81 1630.25 2111.28C1632.78 2106.76 1633.79 2101.55 1633.13 2096.4C1632.46 2091.26 1630.16 2086.47 1626.55 2082.75C1622.95 2079.02 1618.24 2076.56 1613.13 2075.72L1613.22 2075.79Z" fill="black"/>
<path d="M622.02 500.231L336.312 1760.1C883.295 2278.7 2313.24 2316.41 2926.12 1760.1L2684.32 500.231H622.02Z" fill="url(#paint0_linear)"/>
<path d="M1621.81 2186.99C1113.04 2186.99 607.554 2050.53 319.725 1777.6C316.688 1774.72 314.451 1771.11 313.234 1767.11C312.017 1763.1 311.863 1758.86 312.785 1754.78L598.518 494.907C599.726 489.578 602.709 484.817 606.978 481.407C611.247 477.996 616.548 476.137 622.012 476.136H2684.31C2689.91 476.136 2695.34 478.086 2699.66 481.653C2703.97 485.219 2706.91 490.178 2707.97 495.678L2949.71 1755.55C2950.49 1759.61 2950.21 1763.8 2948.9 1767.72C2947.59 1771.64 2945.3 1775.16 2942.24 1777.93C2641.93 2050.58 2130.22 2186.99 1621.81 2186.99ZM362.857 1751.93C621.482 1989.69 1084.92 2134.2 1606.68 2139.09C2136.56 2143.18 2619.03 1999.33 2899.88 1751.26L2664.48 524.328H641.265L362.857 1751.93Z" fill="black"/>
<path d="M560.525 1946.43C559.218 1946.42 557.914 1946.33 556.621 1946.14C553.496 1945.63 550.501 1944.51 547.809 1942.84C545.116 1941.17 542.779 1938.99 540.93 1936.42C539.082 1933.85 537.758 1930.94 537.035 1927.85C536.313 1924.77 536.205 1921.58 536.718 1918.45L730.813 729.809C731.842 723.501 735.334 717.861 740.522 714.128C745.71 710.395 752.168 708.876 758.475 709.905C764.783 710.934 770.423 714.427 774.156 719.614C777.889 724.802 779.408 731.26 778.379 737.568L584.284 1926.21C583.364 1931.85 580.469 1936.98 576.117 1940.68C571.765 1944.38 566.239 1946.42 560.525 1946.43V1946.43Z" fill="black"/>
<path d="M957.057 2104C956.383 2104.04 955.707 2104.04 955.033 2104C948.669 2103.47 942.778 2100.43 938.653 2095.55C934.528 2090.68 932.507 2084.37 933.033 2078L1032.36 886.469C1032.58 883.301 1033.43 880.21 1034.87 877.378C1036.3 874.546 1038.29 872.03 1040.71 869.979C1043.14 867.928 1045.95 866.384 1048.98 865.438C1052.01 864.491 1055.2 864.162 1058.36 864.469C1064.73 864.997 1070.62 868.032 1074.75 872.908C1078.88 877.784 1080.91 884.1 1080.38 890.469L981.057 2081.91C980.556 2087.93 977.81 2093.54 973.365 2097.63C968.92 2101.73 963.099 2104 957.057 2104V2104Z" fill="black"/>
<path d="M1475.92 2184.04H1475.58C1472.42 2184 1469.29 2183.33 1466.38 2182.08C1463.47 2180.83 1460.83 2179.02 1458.63 2176.75C1456.42 2174.48 1454.68 2171.8 1453.51 2168.86C1452.33 2165.92 1451.75 2162.77 1451.8 2159.61L1468.14 970.265C1468.22 963.929 1470.79 957.88 1475.3 953.429C1479.81 948.978 1485.9 946.482 1492.23 946.482H1492.57C1495.73 946.526 1498.86 947.193 1501.77 948.445C1504.67 949.697 1507.3 951.509 1509.51 953.778C1511.72 956.047 1513.45 958.728 1514.62 961.669C1515.79 964.609 1516.37 967.752 1516.33 970.916L1499.99 2160.26C1499.91 2166.59 1497.34 2172.63 1492.83 2177.08C1488.33 2181.54 1482.25 2184.03 1475.92 2184.04Z" fill="black"/>
<path d="M2050.38 2150.33C2044.31 2150.34 2038.45 2148.07 2033.98 2143.95C2029.52 2139.84 2026.77 2134.19 2026.29 2128.13L1933.4 957.226C1932.89 950.854 1934.93 944.542 1939.08 939.677C1943.22 934.813 1949.13 931.794 1955.5 931.286C1961.88 930.778 1968.19 932.822 1973.05 936.968C1977.92 941.114 1980.94 947.023 1981.44 953.395L2074.43 2124.33C2074.68 2127.48 2074.31 2130.65 2073.33 2133.66C2072.36 2136.68 2070.8 2139.46 2068.74 2141.87C2066.69 2144.28 2064.18 2146.26 2061.36 2147.7C2058.54 2149.13 2055.47 2150 2052.31 2150.25L2050.38 2150.33Z" fill="black"/>
<path d="M2529.24 2008.57C2523.54 2008.57 2518.02 2006.55 2513.67 2002.86C2509.32 1999.17 2506.42 1994.06 2505.48 1988.43L2318.69 858.317C2317.65 852.009 2319.15 845.546 2322.88 840.35C2326.6 835.153 2332.24 831.648 2338.54 830.606C2344.85 829.565 2351.31 831.071 2356.51 834.795C2361.71 838.519 2365.21 844.154 2366.25 850.462L2553.05 1980.57C2553.57 1983.7 2553.46 1986.89 2552.74 1989.98C2552.03 1993.06 2550.71 1995.97 2548.86 1998.54C2547.02 2001.12 2544.69 2003.3 2542 2004.97C2539.31 2006.64 2536.32 2007.77 2533.19 2008.28C2531.89 2008.5 2530.56 2008.6 2529.24 2008.57Z" fill="black"/>
<path d="M2772.32 1871.78C2766.59 1871.78 2761.05 1869.74 2756.69 1866.02C2752.33 1862.3 2749.44 1857.15 2748.54 1851.49L2569.19 731.959C2568.59 728.792 2568.62 725.536 2569.3 722.384C2569.98 719.232 2571.28 716.248 2573.14 713.609C2574.99 710.97 2577.35 708.73 2580.08 707.021C2582.82 705.311 2585.87 704.168 2589.05 703.658C2592.23 703.149 2595.49 703.283 2598.62 704.054C2601.75 704.824 2604.69 706.215 2607.28 708.144C2609.86 710.073 2612.03 712.501 2613.66 715.284C2615.29 718.067 2616.34 721.148 2616.75 724.345L2796.13 1843.86C2796.63 1846.98 2796.51 1850.17 2795.78 1853.25C2795.05 1856.33 2793.71 1859.24 2791.86 1861.8C2790 1864.36 2787.66 1866.54 2784.97 1868.2C2782.27 1869.86 2779.28 1870.97 2776.15 1871.47C2774.89 1871.68 2773.6 1871.78 2772.32 1871.78V1871.78Z" fill="black"/>
<path d="M1653.23 976.379C2222.74 976.379 2684.42 763.203 2684.42 500.238C2684.42 237.272 2222.74 24.0967 1653.23 24.0967C1083.71 24.0967 622.03 237.272 622.03 500.238C622.03 763.203 1083.71 976.379 1653.23 976.379Z" fill="white"/>
<path d="M1653.23 1000.47C1061.47 1000.47 597.935 780.717 597.935 500.237C597.935 219.757 1061.47 0 1653.23 0C2244.98 0 2708.43 219.733 2708.43 500.237C2708.43 780.741 2244.98 1000.47 1653.23 1000.47ZM1653.23 48.1924C1097.91 48.1924 646.127 250.986 646.127 500.237C646.127 749.488 1097.91 952.282 1653.23 952.282C2208.55 952.282 2660.23 749.392 2660.23 500.237C2660.23 251.082 2208.53 48.1924 1653.23 48.1924Z" fill="black"/>
<path d="M1653.23 976.379C2222.74 976.379 2684.42 763.203 2684.42 500.238C2684.42 237.272 2222.74 24.0967 1653.23 24.0967C1083.71 24.0967 622.03 237.272 622.03 500.238C622.03 763.203 1083.71 976.379 1653.23 976.379Z" fill="white"/>
<path d="M1653.23 1000.47C1061.47 1000.47 597.935 780.717 597.935 500.237C597.935 219.757 1061.47 0 1653.23 0C2244.98 0 2708.43 219.733 2708.43 500.237C2708.43 780.741 2244.98 1000.47 1653.23 1000.47ZM1653.23 48.1924C1097.91 48.1924 646.127 250.986 646.127 500.237C646.127 749.488 1097.91 952.282 1653.23 952.282C2208.55 952.282 2660.23 749.392 2660.23 500.237C2660.23 251.082 2208.53 48.1924 1653.23 48.1924Z" fill="black"/>
<defs>
<linearGradient id="paint0_linear" x1="336.312" y1="500.231" x2="3055.61" y2="500.231" gradientUnits="userSpaceOnUse">
<stop offset="0.177083" stop-color="#8F6AFA"/>
<stop offset="0.651042" stop-color="#375CDC"/>
<stop offset="1" stop-color="#0099EE"/>
</linearGradient>
</defs>
</svg>
