<svg width="268" height="265" viewBox="0 0 268 265" fill="none" xmlns="http://www.w3.org/2000/svg">
<path d="M255.797 181.481C245.997 205.565 229.26 226.205 207.706 240.791C186.152 255.376 160.749 263.251 134.71 263.419C108.672 263.587 83.1688 256.04 61.4279 241.733C39.687 227.427 22.6855 207.003 12.5746 183.048C2.46373 159.092 -0.302129 132.68 4.62701 107.154C9.55615 81.6289 21.9588 58.1366 40.2655 39.6502C58.5723 21.1637 81.9604 8.51391 107.471 3.3014C132.981 -1.9111 159.466 0.547943 183.576 10.3674C199.599 16.835 214.183 26.3991 226.493 38.5103C238.802 50.6215 248.593 65.0412 255.304 80.9412C262.015 96.8412 265.513 113.908 265.597 131.162C265.682 148.415 262.351 165.516 255.797 181.481Z" fill="#B2B2B2"/>
<path d="M222.347 200.974C217.972 208.949 217.664 220.182 209.612 224.439C205.31 226.688 201.356 231.371 197.172 233.819C194.768 235.485 192.693 237.58 191.052 239.998C185.639 246.779 179.251 252.723 172.095 257.638C160.233 261.242 147.918 263.149 135.519 263.3C141.969 251.384 148.401 239.472 154.815 227.563C156.813 223.858 158.847 219.365 156.88 215.639C155.59 213.172 152.903 211.831 150.541 210.351C143.103 205.637 137.72 198.296 135.465 189.794C134.644 187.127 134.519 184.294 135.101 181.565C136.659 175.691 139.978 171.904 142.238 166.247C144.971 159.33 144.556 150.127 150.202 145.277C146.558 141.472 140.038 146.338 134.961 144.889C131.132 143.801 129.311 139.514 126.223 137.021C123.506 134.846 119.845 134.079 117.239 131.764C114.499 129.308 113.366 125.519 110.885 122.804C108.404 120.089 103.084 119.249 101.612 122.614C99.8106 117.701 93.5045 116.443 88.2673 116.338C83.0302 116.234 76.9138 116.073 73.8101 111.851C69.9077 106.585 72.076 96.6251 65.7486 94.9242C63.9705 94.4361 62.0588 94.9242 60.2184 94.718C54.4786 94.0419 51.832 87.0944 51.8396 81.3248C51.8472 75.5552 53.1485 69.3611 50.3955 64.2767C49.0046 61.6875 46.6632 59.6653 45.5471 56.9366C43.1646 51.0669 47.2174 44.7349 50.7691 39.4853C53.3155 35.6955 55.6919 30.9476 55.4292 26.659C70.2211 15.6676 87.1612 7.90154 105.152 3.86421C123.142 -0.173109 141.782 -0.391633 159.863 3.2228C159.774 4.05656 159.665 4.89942 159.651 5.71347C159.635 7.45995 160.041 9.1846 160.834 10.7415C161.627 12.2983 162.784 13.6415 164.207 14.6574C165.76 15.4644 167.186 16.4946 168.439 17.7151C169.242 19.0352 169.863 20.4579 170.284 21.9445C171.971 26.0269 175.825 28.6964 178.974 31.7828C182.123 34.8693 184.823 39.3807 183.306 43.5146C181.1 49.4601 172.873 49.4964 167.13 52.1978C160.71 55.2251 157.082 62.1529 151.295 66.2717C146.051 70.0115 138.229 72.6719 137.983 79.1131C137.786 83.6609 141.182 89.8762 137.01 91.7317C131.984 83.5492 124.036 77.5751 114.77 75.0155C112.129 74.1589 109.311 74.0022 106.591 74.5608C100.6 76.1419 97.4509 82.5952 95.6804 88.4952C94.2971 93.1187 93.2888 98.1804 95.0837 102.655C96.8785 107.13 102.498 110.32 106.715 107.952C109.33 106.473 110.605 103.427 112.851 101.412C117.589 97.1481 123.863 101.488 120.635 107.021C120.548 107.153 111.137 118.316 114.822 117.992C118.409 117.659 122.2 117.36 125.495 118.815C128.79 120.27 131.357 124.121 130.064 127.498C129.414 129.175 127.957 130.489 127.597 132.234C126.725 136.345 131.915 138.822 136.011 139.752C140.949 140.872 147.247 141.471 149.98 137.229C151.535 134.816 151.382 131.41 153.518 129.498C155.165 128.308 157.193 127.768 159.214 127.982C169.987 128.105 180.365 132.049 188.491 139.11C190.154 140.904 192.213 142.286 194.505 143.144C197.086 143.807 199.819 142.894 202.438 143.296C207.966 144.121 215.743 150.443 217.464 155.76C219.184 161.076 219.006 164.467 224.089 166.8C226.896 168.092 227.54 170.287 230.162 171.892C235.006 174.848 234.924 182.158 232.262 187.165C229.601 192.172 225.074 196.009 222.347 200.974Z" fill="url(#paint0_linear)"/>
<path d="M220.891 201.198C218.039 206.521 217.07 212.596 214.325 217.96C212.997 220.672 210.876 222.919 208.242 224.404C205.264 226.34 202.453 228.52 199.837 230.922C197.071 233.196 194.025 234.823 191.671 237.593C189.196 240.503 186.923 243.53 184.256 246.28C181.539 249.066 178.638 251.666 175.572 254.065C174.27 255.236 172.861 256.285 171.365 257.198C169.341 258.003 167.235 258.587 165.084 258.938C155.601 261.248 145.885 262.477 136.124 262.601L136.975 263.078C141.988 253.817 146.992 244.551 151.986 235.281C154.284 231.024 157.264 226.678 158.622 222.003C159.273 220.19 159.295 218.212 158.685 216.385C158.075 214.558 156.868 212.989 155.257 211.929C152.015 209.604 148.662 207.794 145.817 204.923C142.922 202.002 140.568 198.593 138.865 194.853C137.008 190.76 135.455 185.815 136.557 181.338C137.603 177.093 140.083 173.405 142.06 169.558C143.924 165.615 145.258 161.444 146.028 157.153C146.939 152.964 148.023 148.394 151.342 145.408C151.523 145.245 151.827 144.986 151.567 144.741C147.56 140.926 141.91 144.804 137.294 144.437C134.236 144.199 132.301 141.694 130.483 139.52C128.707 137.319 126.466 135.539 123.919 134.305C120.73 132.739 118.128 131.3 116.175 128.228C114.704 125.914 113.527 123.039 111.245 121.377C108.045 119.05 102.166 118.858 100.148 122.832L103.069 122.217C99.7711 114.049 88.7274 116.375 81.9353 115.092C79.8636 114.797 77.931 113.879 76.3953 112.46C74.8595 111.041 73.7935 109.188 73.3394 107.149C72.4389 103.897 72.3569 100.2 70.635 97.2269C70.0426 96.1463 69.1385 95.2685 68.04 94.7074C65.659 93.5295 63.1445 94.4497 60.6663 93.9494C56.521 93.1127 54.4407 88.5982 53.6921 84.863C52.737 80.1363 53.8439 75.3127 53.5569 70.5375C53.4841 68.2237 52.9079 65.9534 51.8684 63.8841C50.6536 61.6314 48.7404 59.8487 47.5256 57.6006C44.4887 51.9704 47.9189 45.8158 51.0469 41.0467C53.9897 36.5626 57.0889 31.8526 56.9021 26.2664L56.5832 26.7924C71.0711 16.002 87.6775 8.38644 105.316 4.44374C122.955 0.501031 141.229 0.320023 158.942 3.91255L158.412 3.44564C157.937 7.79938 158.759 11.9879 162.382 14.8469C164.163 16.2537 166.492 16.9541 167.594 19.0915C168.298 20.933 169.096 22.7368 169.986 24.4958C172.457 28.2856 176.455 30.6504 179.262 34.1416C181.962 37.5009 183.809 42.5899 180.36 46.1371C177.779 48.793 173.488 49.3464 170.104 50.4272C166.652 51.4768 163.475 53.2751 160.799 55.6935C157.532 58.6678 154.906 62.3015 151.487 65.115C148.63 67.4647 145.238 69.0231 142.212 71.1287C139.319 73.1419 136.67 75.7841 136.522 79.5072C136.592 81.6531 136.88 83.7863 137.382 85.8741C137.685 87.7038 138.141 90.4143 136.14 91.4315L138.483 91.3436C135.504 86.4909 131.486 82.3567 126.718 79.2374C121.948 76.1373 116.035 73.5542 110.261 73.5193C107.724 73.5299 105.234 74.1994 103.034 75.4619C100.835 76.7244 99.0033 78.5364 97.7182 80.72C94.6129 85.7277 92.87 91.4576 92.6617 97.3436C92.5661 102.68 95.3357 107.998 100.887 109.236C103.001 109.701 105.209 109.44 107.155 108.495C109.596 107.294 111.003 105.088 112.663 103.037C113.589 101.897 114.789 100.404 116.385 100.412C116.978 100.438 117.556 100.604 118.073 100.896C118.59 101.187 119.031 101.596 119.359 102.09C119.841 102.883 120.075 103.801 120.032 104.728C119.989 105.654 119.67 106.546 119.116 107.291C117.495 109.667 115.516 111.766 113.991 114.226C113.184 115.204 112.669 116.39 112.508 117.646C112.616 118.859 113.922 118.708 114.857 118.638C118.233 118.363 122.003 118.031 125.05 119.832C126.289 120.494 127.309 121.5 127.989 122.727C128.669 123.954 128.979 125.352 128.881 126.751C128.449 129.375 125.766 131.1 126.06 133.94C126.286 136.116 128.216 137.644 130.008 138.615C134.418 140.883 139.421 141.742 144.336 141.075C146.518 140.821 148.572 139.916 150.231 138.478C152.191 136.626 152.475 134.07 153.42 131.679C153.691 130.814 154.233 130.058 154.966 129.522C155.7 128.987 156.585 128.7 157.494 128.704C159.218 128.636 160.945 128.711 162.656 128.929C165.895 129.283 169.085 129.995 172.167 131.052C178.2 133.231 183.746 136.57 188.493 140.879C190.458 142.829 193.081 143.977 195.848 144.099C197.622 144.127 199.405 143.754 201.174 143.948C202.419 144.117 203.63 144.483 204.762 145.03C209.469 147.163 214.43 151.383 216.07 156.413C217.436 160.618 217.88 164.808 222.172 167.072C224.808 168.463 226.366 170.755 228.775 172.424C229.781 173.106 230.631 173.994 231.266 175.03C231.902 176.066 232.308 177.225 232.458 178.43C233.369 184.494 229.786 189.433 226.169 193.882C224.207 196.169 222.44 198.616 220.888 201.197C220.563 201.77 223.34 201.559 223.799 200.742C226.755 195.529 231.657 191.555 234.133 186.054C235.928 182.066 236.355 176.63 233.444 173.041C232.658 172.202 231.768 171.467 230.796 170.852C229.815 170.018 228.897 169.114 228.047 168.148C226.325 166.418 223.864 165.821 222.236 163.997C219.351 160.764 219.711 155.734 217.274 152.164C214.417 147.998 210.316 144.839 205.556 143.135C202.93 142.264 200.426 142.644 197.721 142.68C193.924 142.738 191.598 139.987 188.898 137.758C184.308 133.987 179.027 131.142 173.349 129.381C168.2 127.782 162.061 126.565 156.672 127.501C155.562 127.627 154.491 127.99 153.533 128.566C152.576 129.141 151.753 129.916 151.122 130.836C149.756 133.088 149.829 136.029 148.034 138.046C146.06 140.269 142.699 139.997 140.021 139.624C137.459 139.344 134.966 138.616 132.656 137.475C130.632 136.394 128.537 134.531 129.05 131.996C129.581 129.371 132.032 127.776 131.855 124.886C131.511 119.318 125.43 117.136 120.712 117.016C119.265 116.994 117.819 117.053 116.378 117.192C115.669 117.252 115.446 117.587 115.439 116.854C115.717 115.554 116.314 114.344 117.177 113.332C118.629 111.119 120.442 109.183 121.936 107.015C122.463 106.341 122.807 105.542 122.933 104.696C123.059 103.85 122.963 102.986 122.655 102.187C122.348 101.389 121.838 100.684 121.176 100.141C120.515 99.5973 119.723 99.2343 118.879 99.0869C113.656 98.1364 110.798 102.372 107.864 105.798C107.437 106.457 106.858 107.004 106.175 107.392C105.492 107.781 104.725 108 103.939 108.031C102.539 107.9 101.201 107.389 100.07 106.554C98.9462 105.761 97.9923 104.751 97.2645 103.584C96.5367 102.417 96.0498 101.117 95.8323 99.76C94.7784 94.0571 96.8952 87.2885 99.4993 82.2132C100.686 79.5818 102.621 77.3567 105.064 75.8144C108.276 74.059 112.263 75.1323 115.528 76.2192C123.852 79.0197 130.932 84.6402 135.54 92.1061C135.964 92.7928 137.347 92.291 137.881 92.0182C141.222 90.3249 140.675 86.9853 140.082 83.8322C139.341 79.9059 138.946 76.4814 141.981 73.4177C144.714 70.6588 148.459 69.061 151.655 66.925C154.989 64.4189 158.025 61.5402 160.704 58.3449C163.533 55.0591 167.213 52.6141 171.342 51.2777C174.683 50.2589 178.231 49.4949 181.186 47.547C182.695 46.643 183.873 45.2798 184.549 43.6577C185.224 42.0356 185.361 40.2401 184.938 38.5348C183.827 34.0795 180.157 31.0552 176.93 28.0855C174.908 26.4138 173.229 24.3671 171.986 22.0582C170.944 19.848 170.647 17.5362 168.557 15.9823C166.337 14.3315 164.04 13.3522 162.579 10.8418C161.291 8.4348 160.847 5.66709 161.316 2.97874C161.354 2.62856 161.079 2.57095 160.786 2.51183C125.858 -4.28564 89.6538 2.90101 59.9876 22.5205C58.2307 23.6848 56.4693 24.8702 54.7914 26.1481C54.0428 26.7181 54.0535 26.7227 53.9821 27.6383C53.9199 28.9011 53.7306 30.1546 53.4172 31.3796C52.2025 35.7091 49.4951 39.2124 47.1779 42.9825C45.0004 46.5252 42.8807 50.6728 43.4531 54.9659C44.0362 59.3348 47.843 61.9392 49.4753 65.823C52.7142 73.5314 48.3638 82.2435 52.1843 89.9004C52.7776 91.2689 53.6893 92.4764 54.8435 93.4229C55.9978 94.3693 57.3615 95.0274 58.8214 95.3426C60.9548 95.7125 63.2963 94.9348 65.3234 95.8231C66.6677 96.4893 67.7039 97.6459 68.2176 99.0536C69.5341 102.146 69.6404 105.614 70.6669 108.799C71.1727 110.531 72.1162 112.104 73.4067 113.367C74.6972 114.63 76.2913 115.54 78.036 116.011C84.7855 117.981 96.8086 114.756 100.145 123.013C100.509 123.922 102.762 122.995 103.066 122.397C104.319 119.931 107.693 121.611 109.201 123.026C111.1 124.814 112.147 127.363 113.563 129.51C114.838 131.476 116.601 133.077 118.68 134.159C121.17 135.197 123.507 136.568 125.627 138.233C128.883 141.322 130.906 145.62 135.935 145.843C137.991 145.836 140.039 145.566 142.027 145.039C144.435 144.519 146.857 143.926 148.828 145.797L149.053 145.13C143.243 150.349 143.542 158.595 141.143 165.478C139.723 169.553 137.25 173.117 135.421 176.999C133.326 181.062 132.82 185.757 134 190.171C136.115 198.152 140.971 205.139 147.719 209.91C150.963 212.193 155.558 213.864 156.147 218.337C156.768 223.037 153.338 227.821 151.218 231.747C145.502 242.337 139.783 252.926 134.059 263.513C133.829 263.942 134.741 263.994 134.91 263.991C143.759 263.866 152.575 262.879 161.232 261.042C163.321 260.6 165.396 260.108 167.458 259.566C169.454 259.219 171.396 258.613 173.236 257.763C176.658 255.558 179.853 253.019 182.773 250.184C185.682 247.574 188.402 244.761 190.912 241.767C192.218 240.203 193.413 238.543 194.764 237.016C196.176 235.539 197.772 234.249 199.514 233.178C202.628 231.056 205.242 228.291 208.304 226.097C210.93 224.217 213.566 223.023 215.517 220.337C219.728 214.529 220.446 206.997 223.794 200.746C224.124 200.152 221.328 200.378 220.891 201.198Z" fill="black"/>
<path d="M85.7907 253.102C67.1577 245.538 50.5134 233.804 37.1406 218.803C23.7679 203.803 14.024 185.937 8.66003 166.584C3.29604 147.23 2.45523 126.905 6.20241 107.176C9.9496 87.4461 18.1847 68.8392 30.2729 52.7891C46.2818 31.548 68.421 15.7093 93.714 7.40226C119.374 -0.846199 146.979 -0.854682 172.645 7.37801C198.276 15.505 220.787 31.297 237.132 52.6168C253.477 73.9365 262.867 99.7548 264.031 126.577C265.194 153.4 258.076 179.932 243.638 202.583C229.201 225.234 208.142 242.91 183.31 253.219C158.581 263.299 131.319 265.432 105.318 259.323C98.6603 257.755 92.1335 255.677 85.7952 253.108C85.1632 252.97 84.503 253.045 83.9184 253.322C83.8137 253.36 82.611 253.902 83.021 254.069C101.943 261.825 122.399 265.134 142.806 263.738C163.213 262.343 183.026 256.281 200.712 246.022C218.398 235.762 233.485 221.579 244.804 204.57C256.124 187.561 263.375 168.181 265.995 147.929C269.361 120.948 264.268 93.589 251.416 69.6175C238.564 45.6461 218.586 26.2407 194.231 14.0723C169.558 1.82423 141.694 -2.50604 114.459 1.6751C88.0964 5.71939 63.5093 17.421 43.7629 35.3211C28.6695 49.1197 17.0042 66.2395 9.69226 85.3227C2.38031 104.406 -0.377162 124.927 1.63854 145.26C3.65424 165.592 10.3877 185.176 21.3048 202.458C32.2219 219.74 47.0224 234.245 64.5323 244.822C70.4464 248.374 76.6261 251.466 83.0165 254.069C83.6487 254.206 84.3087 254.131 84.8933 253.854C84.998 253.81 86.2007 253.269 85.7907 253.102Z" fill="black"/>
<defs>
<linearGradient id="paint0_linear" x1="44.8333" y1="0.665039" x2="243.541" y2="0.665039" gradientUnits="userSpaceOnUse">
<stop offset="0.177083" stop-color="#8F6AFA"/>
<stop offset="0.651042" stop-color="#375CDC"/>
<stop offset="1" stop-color="#0099EE"/>
</linearGradient>
</defs>
</svg>
