<svg width="1038" height="1222" viewBox="0 0 1038 1222" fill="none" xmlns="http://www.w3.org/2000/svg">
<path fill-rule="evenodd" clip-rule="evenodd" d="M249.09 1127.09C233.505 1079.92 200.073 1020.34 122.193 1024.66C42.7301 1029.07 -2.20852 964.933 18.6717 885.908C22.0378 909.65 32.8939 926.984 77.1103 939.5C114.996 950.225 147.184 941.039 108.938 901.956C70.6908 862.873 73.5331 849.217 75.7842 826.888C53.582 806.562 40.3713 796.531 44.922 769.109C28.622 739.635 17.0479 705.432 19.527 679.505C35.3941 713.708 75.8919 769.059 70.5007 728.937C65.1096 688.816 50.0175 671.91 53.5355 643.621C58.6627 602.391 33.5633 583.779 15.8041 568.945C0.148107 555.868 -1.5349 522.523 7.7248 472.247C18.4796 534.894 65.2638 564.934 92.061 562.242C118.858 559.55 113.535 607.614 120.053 616.714C126.572 625.814 143.953 556.649 120.923 520.393C100.964 488.97 108.676 459.205 114.702 441.273C115.173 469.835 190.97 520.849 183.86 466.736C175.612 403.943 143.489 379.061 167.811 319.435C172.52 364.972 209.66 434.131 225.882 421.868C242.104 409.606 216.283 391.721 205.23 386.219C238.045 396.009 272.037 402.372 236.06 369.854C258.843 366.216 286.92 369.704 273.984 353.525C261.048 337.346 239.302 313.982 239.302 313.982C252.861 321.316 367.74 386.4 301.491 298.837C274.147 262.698 242.746 239.148 288.743 122.835C281.586 206.84 355.647 197.398 397.072 258.055C402.866 226.121 404.116 214.107 412.677 210.311C409.051 192.684 399.671 162.823 371.744 150.31C400.626 143.072 436.376 150.47 456.583 186.388C475.746 178.295 496.827 128.037 438.634 57.3627C487.008 60.0356 504.786 116.383 570.915 101.183C608.263 92.5986 584.008 75.442 572.508 59.3621C557.703 38.6711 555.167 16.8696 570.802 0.878418C571.357 57.1516 618.829 51.6663 661.669 69.1946C702.31 85.8255 629.616 113.602 621.243 187.247C564.24 232.522 294.032 436.635 258.639 741.175C223.245 1045.71 289.387 1105.92 293.792 1133.29C298.197 1160.65 249.09 1127.09 249.09 1127.09Z" fill="url(#paint0_linear)"/>
<path d="M251.129 1126.54C236.536 1082.68 209.318 1039.66 161.902 1027.35C148.094 1023.76 134.282 1023.51 120.121 1023.97C106.419 1024.54 92.7259 1022.66 79.6822 1018.42C68.2372 1014.63 57.6548 1008.61 48.5422 1000.71C39.4295 992.814 31.966 983.196 26.5798 972.409C13.2024 945.473 13.2763 914.157 20.6819 885.541L16.6317 886.448C18.1775 896.961 21.459 906.987 28.4571 915.186C37.664 925.987 51.2041 932.226 64.3556 936.801C78.3962 941.689 93.8874 945.825 108.897 944.14C116.385 943.296 126.87 940.475 128.08 931.627C128.848 926.01 125.856 920.361 122.915 915.809C117.735 907.786 110.707 901.285 104.271 894.315C94.2654 883.484 83.7873 871.39 79.0804 857.133C76.181 848.364 76.521 839.435 77.4227 830.374C77.7922 826.645 77.9105 826.362 74.9309 823.649C71.5522 820.571 68.1524 817.512 64.8498 814.349C58.9634 809.184 53.9885 803.066 50.1335 796.25C46.639 788.956 45.3411 780.804 46.3979 772.785C46.9879 770.14 46.5122 767.368 45.0739 765.07C43.6661 762.431 42.3041 759.77 40.9878 757.085C38.5045 752.018 36.1922 746.875 34.0509 741.656C26.0266 722.021 19.7697 700.373 21.5752 678.949L17.4954 680.043C23.2392 692.14 29.9227 703.767 37.4845 714.819C43.507 723.714 50.0575 733.325 58.4535 740.182C61.8976 742.994 67.8737 745.94 71.491 741.51C73.4675 739.091 73.1297 734.906 72.9354 732.043C72.1614 723.46 70.6215 714.963 68.334 706.654C64.892 693.074 59.465 679.99 56.6501 666.258C53.6621 651.716 57.5856 637.47 55.6344 622.925C53.7808 610.134 48.2315 598.163 39.668 588.481C32.4271 580.053 23.0554 574.112 15.4935 566.129C7.05948 557.225 5.00904 543.601 4.33119 531.872C3.17188 511.815 6.16413 491.546 9.74554 471.871L5.69323 472.779C11.2153 503.9 27.0296 534.203 54.0147 551.837C62.757 557.865 72.8203 561.702 83.3565 563.027C88.5639 563.528 94.1599 562.014 99.0505 564.262C103.941 566.511 106.864 571.297 108.785 576.086C112.977 586.48 113.338 597.87 115.332 608.773C116.149 613.26 117.654 621.49 123.918 617.202C129.862 613.135 131.171 600.619 132.278 594.332C134.817 580.303 135.229 565.972 133.5 551.82C132.542 543.457 130.372 535.278 127.058 527.54C122.511 517.336 116.026 508.587 112.966 497.644C107.656 478.642 110.587 459.291 116.71 440.906L112.66 441.814C113.159 455.138 125.102 467.15 134.662 475.145C144.181 483.105 157.314 492 170.349 491.358C183.214 490.725 187.179 480.286 186.174 468.719C184.012 443.83 174.52 420.506 167.275 396.855C163.612 385.796 161.481 374.289 160.94 362.652C160.901 347.671 163.919 332.84 169.809 319.066L165.758 319.974C168.985 349.384 180.99 379.836 197.453 404.344C202.153 411.341 208.623 421.098 217.226 423.633C218.907 424.059 220.657 424.141 222.37 423.873C224.084 423.606 225.725 422.995 227.197 422.078C228.668 421.16 229.939 419.955 230.933 418.534C231.926 417.113 232.622 415.506 232.979 413.809C234.937 401.141 216.384 390.213 207.128 385.518L203.538 386.995C212.497 389.8 221.613 392.078 230.838 393.817C236.253 394.75 242.241 395.705 247.66 394.307C262.775 390.412 242.651 373.439 237.963 369.153L235.659 370.588C246.893 368.885 258.6 369.398 269.678 366.769C275.192 365.46 281.586 362.711 278.125 356.079C275.802 351.633 271.686 347.653 268.47 343.865C264.446 339.125 260.359 334.438 256.21 329.806C251.263 324.249 246.26 318.741 241.2 313.281L237.355 314.666C251.482 322.321 265.651 329.924 280.458 336.182C288.545 339.919 297.047 342.683 305.786 344.416C310.772 345.223 317.844 345.683 321.816 341.805C326.567 337.174 322.538 328.733 320.209 323.962C314.256 311.767 305.661 300.902 297.297 290.295C285.085 274.806 273.581 259.148 269.435 239.448C261.223 200.42 276.668 158.223 290.732 122.48L286.679 123.388C284.751 147.706 289.741 170.827 307.866 188.073C324.107 203.523 345.09 213.003 363.019 226.237C375.396 235.185 386.204 246.123 395.002 258.606C395.522 259.359 398.89 258.606 399.052 257.698C401.031 246.759 402.581 235.628 405.387 224.858C406.741 219.675 408.54 213.081 413.817 210.577C414.056 210.463 414.763 210.155 414.683 209.771C409.507 185.011 397.612 160.769 373.632 149.623L371.877 150.937C405.189 142.865 437.519 157.423 454.509 186.941C454.986 187.767 457.134 186.914 457.723 186.656C472.575 180.111 477.995 161.236 478.574 146.439C479.887 112.979 460.899 81.645 440.517 56.6765L437.269 58.1945C471.614 60.4304 493.389 91.5134 525.033 101.221C543.204 106.458 562.578 105.708 580.289 99.0803C585.454 97.1443 592.366 93.8717 592.89 87.58C593.409 81.3516 588.083 75.4419 584.424 70.9892C576.841 61.7584 569.287 52.8909 565.132 41.4581C559.873 26.9934 561.939 12.0916 572.603 0.709486L568.717 1.41467C568.964 14.7435 571.754 28.2412 581.056 38.308C588.841 46.7343 599.736 51.3391 610.44 54.8249C623.296 59.0137 636.555 61.8324 649.392 66.0909C656.32 68.3901 669.421 71.4769 671.564 80.0721C673.146 86.4061 668.133 93.137 664.722 97.9613C658.689 106.493 651.909 114.472 645.85 122.989C637.871 133.906 631.313 145.793 626.334 158.364C623.592 165.542 621.541 172.965 620.21 180.533C619.788 182.987 619.883 186.276 618.386 188.155C617.54 188.98 616.611 189.716 615.613 190.351C591.515 209.397 567.718 228.777 544.777 249.212C508.431 281.457 474.202 316.01 442.302 352.657C403.496 397.004 369.157 445.068 339.784 496.151C307.574 552.779 282.498 613.608 267.803 677.155C259.492 713.092 255.304 749.628 251.966 786.31C248.627 822.992 246.475 859.818 246.241 896.661C245.939 944.886 248.597 993.691 259.065 1040.89C264.404 1065.01 272.296 1088.48 282.608 1110.92C285.517 1116.75 288.125 1122.71 290.421 1128.81C291.619 1132.33 292.955 1136.94 291.458 1140.48C288.253 1148.06 271.197 1138.16 266.629 1135.74C261.248 1132.92 256.031 1129.8 251.003 1126.4C250.065 1125.76 246.604 1127.4 247.157 1127.78C252.584 1131.47 258.234 1134.81 264.074 1137.8C271.023 1141.37 279.776 1145.91 287.868 1144.67C298.606 1143.02 296.429 1132.44 293.468 1124.95C286.677 1107.76 278.184 1091.5 272.396 1073.85C260.383 1037.22 254.856 998.655 252.202 960.303C247.313 889.702 251.919 818.529 259.791 748.326C267.579 679.543 286.478 612.48 315.751 549.751C342.287 493.466 375.154 440.389 413.714 391.547C446.857 349.339 483.14 309.692 522.254 272.946C549.114 247.57 577.187 223.528 606.088 200.508C610.48 197.009 614.883 193.523 619.296 190.051C620.212 189.424 621.083 188.735 621.904 187.988C623.629 186.17 623.45 184.741 623.866 182.06C625.089 174.187 627.097 166.456 629.859 158.983C638.582 135.292 654.745 117.204 668.99 96.9099C672.337 92.1383 676.974 85.7009 675.748 79.4725C674.314 72.1715 665.35 69.127 659.35 66.8658C646.047 61.8661 632.169 58.8111 618.58 54.7573C606.924 51.2821 594.828 46.8968 586.041 38.1243C576.002 28.0997 573.046 14.0552 572.791 0.331559C572.774 -0.595313 569.243 0.677816 568.905 1.03674C552.174 18.8943 557.597 42.613 571.057 60.7872C576.423 68.0291 595.884 84.1258 586.162 93.9351C581.822 98.316 574.455 99.7876 568.709 100.981C562.867 102.224 556.916 102.881 550.943 102.942C542.056 102.989 533.229 101.474 524.866 98.4681C510.084 93.1517 497.581 83.5304 484.765 74.7304C471.101 65.3477 456.756 57.6287 439.909 56.5266C439.417 56.4949 435.943 57.16 436.661 58.0446C456.37 82.1919 474.42 112.027 474.541 144.212C474.595 158.542 470.207 179.587 455.367 186.118L458.578 185.833C449.302 169.717 435.51 156.924 417.715 150.905C402.746 146.142 386.734 145.716 371.533 149.678C371.476 149.693 369.022 150.643 369.776 150.994C392.238 161.434 404.23 183.597 409.706 206.819C410.062 207.804 410.292 208.831 410.39 209.874C410.041 211.517 411.087 209.121 409.949 210.818C409.448 211.568 407.885 212.262 407.203 212.944C405.1 215.298 403.548 218.092 402.661 221.121C398.55 233.008 397.238 246.09 395.011 258.407L399.063 257.499C384.678 236.705 364.628 222.549 343.454 209.361C325.34 198.08 305.946 186.289 296.699 166.121C290.417 152.415 289.564 137.112 290.74 122.28C290.797 121.568 286.992 122.419 286.69 123.187C274.062 155.292 261.504 190.72 263.436 225.798C264.549 246.014 272.265 263.643 284.196 279.755C290.109 287.74 296.511 295.347 302.384 303.364C308.987 312.381 317.51 323.145 319.552 334.491C320.654 340.614 318.025 343.65 311.95 343.188C303.659 342.554 295.407 339.313 287.773 336.237C271.819 329.472 256.261 321.806 241.177 313.276C240.457 312.886 236.603 313.878 237.332 314.661C247.89 326.022 258.296 337.584 268.2 349.528C270.55 352.361 274.761 356.143 275.099 360.133C275.475 364.607 270.409 365.392 266.963 365.95C256.852 367.584 246.53 367.556 236.394 369.096C236.092 369.142 233.383 369.885 234.09 370.531C237.281 373.449 258.854 393.245 243.886 393.289C231.503 393.327 218.603 388.9 206.866 385.42C206.07 385.184 202.656 386.586 203.277 386.898C212.247 391.459 223.338 398.456 227.688 407.933C229.799 412.523 229.335 419.82 223.817 422.134C221.002 423.314 217.34 420.656 215.18 419.009C207.447 413.098 201.851 404.26 196.965 395.996C190.435 384.818 184.908 373.085 180.447 360.933C175.189 347.406 171.622 333.281 169.828 318.88C169.728 317.976 166.05 319.104 165.777 319.788C157.707 339.949 154.624 360.722 159.035 382.125C163.207 402.374 171.688 421.482 176.794 441.497C179.493 452.024 182.449 463.457 182.278 474.404C182.2 479.594 180.96 486.758 175.521 489.089C170.377 491.295 163.129 488.468 158.393 486.411C152.17 483.616 146.326 480.044 141.001 475.781C130.572 467.625 117.266 454.965 116.734 440.718C116.702 439.905 112.933 440.876 112.683 441.628C108.055 455.516 105.024 469.96 106.327 484.67C107.167 493.999 109.658 503.105 113.684 511.564C117.274 519.126 122.178 525.777 124.992 533.733C129.451 547.402 131.249 561.799 130.291 576.145C129.771 587.812 128.346 600.159 124.091 611.13C123.588 612.555 122.952 613.93 122.19 615.236C122.019 615.506 121.016 616.621 121.025 616.855C121.025 616.906 122.596 620.694 122.606 616.634C122.606 616.513 122.087 616.33 122.089 616.159C121.635 614.799 121.07 613.48 120.4 612.213C119.839 610.151 119.409 608.056 119.111 605.94C117.401 595.442 116.818 584.447 112.675 574.521C108.982 565.673 102.615 560.914 92.9351 561.414C82.5074 561.678 72.2162 559 63.2407 553.687C33.1767 537.111 15.6139 504.596 9.75398 471.693C9.60405 470.849 5.84738 471.818 5.70379 472.601C2.56751 488.507 0.680253 504.633 0.0592712 520.832C-0.211024 532.367 0.312672 544.517 4.39666 555.441C7.73944 564.381 13.7197 569.42 20.8023 575.414C29.5489 582.819 37.89 590.876 43.6675 600.881C50.3717 612.895 53.2368 626.673 51.8777 640.363C50.5709 652.694 51.6368 665.161 55.0178 677.092C59.03 690.893 63.8868 704.351 66.6426 718.499C67.8315 724.609 69.3878 731.247 68.8852 737.522C68.7974 739.041 68.4008 740.526 67.7195 741.886C67.2697 742.777 68.5368 742.247 67.6815 742.027C66.8485 741.785 66.0512 741.433 65.3101 740.982C56.0187 735.772 49.0354 724.571 43.1565 716.092C34.9292 704.343 27.7037 691.923 21.5562 678.964C21.1211 678.035 17.5566 679.106 17.4764 680.058C16.051 696.972 19.7992 713.966 25.165 729.923C28.3424 739.276 32.1116 748.418 36.4498 757.292C37.4676 759.387 38.5129 761.466 39.5857 763.529C40.9281 765.428 42.0316 767.484 42.8714 769.652C43.4521 773.201 41.8663 777.816 42.0268 781.558C42.5716 794.922 50.0997 805.059 59.3087 814.1C62.0539 816.798 64.8941 819.403 67.7385 821.998C70.8469 824.836 73.8181 826.597 73.3746 831.028C72.8956 835.098 72.6376 839.191 72.6017 843.289C72.8129 870.062 95.0404 888.866 111.385 907.31C117.298 913.991 130.643 929.978 120.676 938.809C115.98 942.969 108.397 942.992 102.516 942.772C95.016 942.399 87.5823 941.181 80.3558 939.141C64.2881 934.813 46.928 928.656 34.8998 916.613C26.3877 908.089 22.4409 897.06 20.7263 885.365C20.5996 884.506 16.8724 885.513 16.674 886.273C10.1446 911.491 9.1606 938.579 18.1648 963.337C25.9479 985.091 41.5916 1003.14 62.018 1013.95C72.9233 1019.53 84.7265 1023.16 96.8881 1024.66C111.172 1026.51 125.421 1024.5 139.713 1025.72C166.342 1027.96 191.178 1040.05 209.371 1059.62C227.305 1078.75 238.86 1102.97 247.064 1127.63C247.36 1128.56 251.408 1127.37 251.129 1126.54Z" fill="black"/>
<path d="M611.221 69.106C628.028 113.617 573.23 147.858 498.052 107.095C535.281 140.173 515.807 191.683 487.785 219.855C475.47 232.235 458.549 235.295 451.464 227.346C424.031 249.578 397.802 318.31 397.802 318.31C397.802 318.31 403.455 259.077 291.57 223.974C373.503 283.659 389.176 386.715 300.112 365.411C294.269 463.953 222.649 493.712 237.086 455.928C190.706 495.323 230.528 563.817 225.428 582.707C216.715 614.979 166.145 548.666 155.892 518.837C150.945 561.606 160.996 625.67 145.003 675.358C133.333 711.616 96.0116 648.27 93.2158 626.665C61.9524 692.19 138.617 809.457 65.6562 780.547C87.3326 793.196 102.623 810.527 124.266 858.21C152.438 920.283 175.516 1005.24 67.8376 965.093C99.6353 1056.05 198.2 929.549 240.404 1086.76C233.628 1026.46 185.54 930.144 232.012 735.628C294.894 472.437 496.964 273.037 553.99 208.527C534.466 166.362 685.358 131.538 611.221 69.106Z" fill="white"/>
<path d="M189.902 921.794C161.421 843.499 170.147 730.064 209.348 668.925C245.502 612.54 308.753 597.887 386.978 677.737C466.612 759.023 557.409 772.348 619.558 769.215C687.535 765.786 730.888 743.404 751.73 736.949C744.749 761.69 682.818 867.683 750.385 1001.65L757.939 1016.63C747.834 1020.53 675.794 1068.13 541.299 1074.9C532.633 1072.86 256.854 1105.79 189.902 921.794Z" fill="black"/>
<path d="M493.922 1077.06C459.881 1077.06 411.733 1074.55 363.017 1062.26C273.059 1039.56 214.485 992.424 188.915 922.153C160.338 843.59 169.108 729.737 208.465 668.355C226.345 640.47 249.767 624.295 276.199 621.576C310.212 618.08 348.792 637.242 387.738 676.998C467.097 758.003 557.586 771.284 619.509 768.159C673.357 765.444 712.356 750.55 735.652 741.653C741.801 739.306 747.112 737.277 751.424 735.953C751.606 735.895 751.8 735.888 751.986 735.932C752.172 735.977 752.343 736.071 752.48 736.204C752.616 736.337 752.713 736.504 752.762 736.687C752.811 736.871 752.81 737.064 752.758 737.247C751.793 740.665 749.802 745.585 747.293 751.815C731.097 791.93 693.169 885.857 751.339 1001.19L758.893 1016.18C758.958 1016.31 758.995 1016.45 759.002 1016.6C759.009 1016.74 758.986 1016.89 758.935 1017.03C758.882 1017.16 758.801 1017.29 758.697 1017.39C758.593 1017.5 758.468 1017.58 758.331 1017.63C757.077 1018.11 754.686 1019.38 751.377 1021.12C728.44 1033.23 658.634 1070.06 541.365 1075.98C541.265 1075.98 541.166 1075.97 541.069 1075.95C540.324 1075.77 536.142 1075.95 530.846 1076.18C522.469 1076.52 509.708 1077.06 493.922 1077.06ZM190.896 921.433C216.213 991.005 274.292 1037.7 363.53 1060.21C434.547 1078.13 504.433 1075.17 530.747 1074.05C534.282 1073.77 537.831 1073.7 541.375 1073.84C658.1 1067.93 727.553 1031.28 750.38 1019.23C753.094 1017.8 755.092 1016.75 756.492 1016.1L749.445 1002.12C690.844 885.933 729.021 791.379 745.325 751.004C747.371 745.937 749.065 741.74 750.121 738.571C746.24 739.863 741.626 741.624 736.395 743.619C712.981 752.563 673.79 767.53 619.606 770.262C557.242 773.406 466.128 760.035 386.218 678.47C347.739 639.189 309.775 620.242 276.41 623.67C250.648 626.32 227.759 642.163 210.239 669.486C171.192 730.383 162.515 843.402 190.896 921.424V921.433Z" fill="black"/>
<path d="M379.546 639.123C329.525 691.664 324.482 815.778 413.967 714.958C391.015 745.393 382.794 849.257 469.322 749.436C446.824 776.216 459.353 891.811 529.739 771.102C512.814 827.882 553.137 897.37 595.383 781.754C587.093 820.891 620.833 910.581 669.188 779.009C660.351 805.612 691.019 901.221 741.68 758.971C741.129 760.448 731.227 789.724 736.067 804.911C741.724 822.659 771.605 810.759 801.996 724.062C594.496 817.37 403.865 686.757 379.546 639.123Z" fill="white"/>
<path d="M377.703 639.286C367.487 650.354 359.27 663.112 353.419 676.99C347.642 689.897 343.886 703.617 342.284 717.667C341.306 727.21 341.017 738.932 346.598 747.276C351.778 755.029 360.938 755.065 369.049 752.364C376.35 749.657 383.135 745.722 389.11 740.729C398.771 732.899 407.712 724.22 415.825 714.795L411.969 715.321C406.674 722.908 402.806 731.395 400.554 740.368C397.731 749.828 396.394 759.668 396.59 769.538C396.843 776.463 398.068 785.01 403.755 789.731C410.09 794.988 419.592 792.18 426.189 789.002C433.041 785.493 439.401 781.098 445.106 775.931C454.424 767.68 463.138 758.771 471.181 749.273L467.492 749.596C461.942 756.283 459.573 765.284 458.247 773.699C456.597 783.64 456.691 793.791 458.525 803.699C459.957 810.985 462.749 819.832 469.506 823.926C476.931 828.425 486.419 824.576 492.857 820.077C499.364 815.252 505.159 809.533 510.069 803.091C518.095 792.862 525.345 782.048 531.758 770.739L527.746 771.468C524.473 782.551 523.2 794.129 523.99 805.658C524.375 815.277 526.887 824.691 531.344 833.224C534.749 839.22 540.042 844.659 547.298 845.1C556.167 845.638 564.063 839.925 569.733 833.682C582.954 819.114 590.735 799.578 597.41 781.389L593.398 782.117C591.712 791.183 591.646 800.476 593.204 809.564C594.407 818.869 597.331 827.87 601.826 836.106C605.346 842.176 610.638 848.168 618.054 848.858C627.305 849.718 635.454 843.447 641.188 836.879C646.778 830.201 651.569 822.894 655.463 815.104C661.505 803.305 666.771 791.125 671.226 778.64L667.214 779.366C664.959 786.27 665.417 794.116 666.445 801.193C667.478 809.553 670.145 817.629 674.294 824.96C677.686 830.604 682.79 835.814 689.786 835.96C699.35 836.159 707.118 829.046 712.719 822.078C718.382 814.732 723.242 806.8 727.215 798.419C733.506 785.486 739.019 772.19 743.726 758.601C743.982 757.89 740.084 758.297 739.714 759.327C735.438 770.656 733.083 782.618 732.746 794.722C732.693 800.646 733.261 810.027 740.156 812.294C745.857 814.167 752.424 810.84 756.891 807.54C765.382 801.267 771.736 792.102 777.19 783.213C788.593 764.633 796.844 744.185 804.051 723.69C804.397 722.709 801.156 723.671 800.868 723.8C763.405 740.716 723.354 751.182 682.403 754.759C646.52 757.696 610.401 755.42 575.17 748.002C544.18 741.523 514.058 731.426 485.424 717.92C462.117 707.111 440.048 693.812 419.603 678.255C406.365 668.042 392.588 656.436 383.635 642.098C382.921 640.952 382.249 639.776 381.631 638.579C381.128 637.599 377.232 639.052 377.551 639.672C380.778 645.555 384.76 650.99 389.395 655.841C395.822 662.799 402.759 669.267 410.149 675.191C429.979 691.079 451.521 704.706 474.374 715.817C502.825 729.93 532.83 740.665 563.778 747.804C598.771 755.916 634.737 759.039 670.605 757.079C711.079 754.718 750.895 745.767 788.483 730.58C793.436 728.587 798.347 726.497 803.217 724.311L800.034 724.421C793.989 742.347 786.466 759.741 777.543 776.423C772.04 786.395 765.766 796.466 757.414 804.333C755.038 806.716 752.297 808.703 749.293 810.221C748.56 810.672 747.744 810.97 746.893 811.098C746.042 811.225 745.174 811.18 744.341 810.964C738.325 809.63 737.174 801.831 736.897 796.842C736.699 788.596 737.678 780.365 739.805 772.397C740.844 767.725 742.157 763.12 743.739 758.603L739.727 759.33C732.666 779.1 724.878 799.39 713.061 816.889C709.913 821.817 706.072 826.268 701.658 830.103C700.136 831.401 698.451 832.495 696.647 833.357C695.553 833.918 694.352 834.242 693.124 834.307C686.76 834.651 681.749 829.278 678.676 824.32C674.694 817.54 672.037 810.065 670.846 802.293C669.522 794.703 668.768 786.089 671.203 778.633C671.45 777.878 667.552 778.359 667.191 779.36C660.45 797.637 652.926 816.506 641.34 832.343C636.975 838.308 629.692 847.695 621.416 847.264C614.591 846.912 609.464 840.987 606.212 835.546C601.896 827.89 599 819.517 597.662 810.831C595.719 801.122 595.628 791.134 597.394 781.391C597.581 780.483 593.707 781.205 593.381 782.119C587.401 798.417 580.538 815.109 570.06 829.105C565.701 834.924 558.642 843.654 550.487 843.485C543.806 843.346 538.708 837.81 535.589 832.434C531.35 824.53 528.848 815.813 528.251 806.864C527.112 794.71 528.303 782.449 531.76 770.741C532.027 769.838 528.194 770.693 527.748 771.47C518.356 787.531 508.027 804.554 493.763 816.832C488.232 821.59 480.624 826.949 473.362 822.547C467.006 818.694 464.282 810.5 462.823 803.64C460.967 794.408 460.659 784.932 461.91 775.599C463.021 766.637 465.266 756.41 471.187 749.275C471.981 748.317 468.127 748.872 467.498 749.598C455.852 763.001 443.214 777.13 427.822 786.336C421.829 789.925 413.804 793.485 407.607 788.346C402.222 783.878 401.018 775.678 400.706 769.133C400.416 759.752 401.564 750.383 404.11 741.35C406.345 731.758 410.379 722.677 415.998 714.589C416.326 714.151 412.761 714.42 412.142 715.112C405.01 723.311 397.299 730.988 389.068 738.083C383.583 742.971 377.438 747.065 370.815 750.245C363.565 753.469 355.459 753.31 350.695 746.178C345.416 738.29 345.454 727.349 346.22 718.281C347.516 705.059 350.79 692.105 355.934 679.855C361.814 664.764 370.448 650.898 381.396 638.961C382.214 638.104 378.383 638.566 377.703 639.286Z" fill="black"/>
<path d="M305.239 1075.75C408.5 1108.66 634.83 1104.94 718.093 1028.99C715.114 969.951 611.422 904.96 565.134 942.563C439.251 903.611 352.811 958.556 305.239 1075.75Z" fill="url(#paint1_linear)"/>
<path d="M303.562 1076.54C321.216 1081.97 339.256 1086.06 357.528 1088.77C379.141 1092.1 400.914 1094.3 422.758 1095.34C446.327 1096.54 469.917 1096.6 493.527 1095.54C517.522 1094.51 541.447 1092.21 565.197 1088.64C587.704 1085.33 609.95 1080.44 631.77 1074.01C651.319 1068.36 670.221 1060.68 688.166 1051.09C696.218 1046.71 703.918 1041.72 711.198 1036.15C712.888 1034.85 714.544 1033.52 716.167 1032.14C717.479 1031.03 719.894 1029.63 720.103 1027.94C720.142 1025.78 719.885 1023.64 719.339 1021.55C718.937 1019.31 718.413 1017.09 717.77 1014.9C712.155 995.758 698.725 979.328 683.96 966.343C667.823 951.954 648.774 941.212 628.11 934.848C610.564 929.65 590.843 928.318 573.84 936.155C570.066 937.903 566.52 940.107 563.282 942.717L566.804 941.773C524.381 928.702 478.443 924.078 435.473 937.386C396.782 949.366 364.712 975.054 340.833 1007.37C325.488 1028.63 312.858 1051.72 303.237 1076.11C302.967 1076.78 306.827 1076.44 307.249 1075.39C320.181 1043.62 337.161 1012.97 360.54 987.638C380.991 965.482 406.325 948.008 435.181 938.83C466.409 928.907 499.955 929.188 531.896 935.368C541.24 937.177 550.479 939.481 559.612 942.181C561.303 942.975 563.165 943.338 565.03 943.237C566.559 942.705 567.96 941.859 569.142 940.754C571.637 938.984 574.31 937.478 577.118 936.261C589.308 930.97 603.368 931.529 616.12 934.219C645.787 940.477 673.866 958.512 693.634 981.27C702.802 991.827 710.609 1004.15 714.193 1017.78C715.013 1020.88 715.578 1024.04 715.882 1027.24C716.07 1029.25 715.682 1029.67 714.193 1030.97C712.988 1032.03 711.764 1033.06 710.521 1034.07C705.578 1038.07 700.396 1041.76 695.004 1045.13C669.979 1060.85 641.488 1070.69 612.955 1077.83C580.139 1085.78 546.686 1090.82 512.984 1092.9C479.139 1095.24 445.171 1095.21 411.33 1092.83C381.923 1091.04 352.729 1086.69 324.082 1079.82C318.312 1078.37 312.583 1076.76 306.914 1074.96C305.997 1074.68 302.392 1076.17 303.562 1076.54Z" fill="black"/>
<path d="M563.942 943.883C569.804 946.056 575.536 948.564 581.11 951.395C591.259 956.462 601.594 962.426 609.375 970.819C610.57 972.107 614.443 970.494 613.121 969.062C605.139 960.471 594.678 954.323 584.276 949.125C578.449 946.158 572.456 943.528 566.327 941.248C564.679 940.65 561.544 943.019 563.942 943.889V943.883Z" fill="black"/>
<path d="M302.707 1025.55C325.046 979.976 391.252 943.923 371.168 1044.66C404.167 995.591 444.491 953.365 442.135 1058.93C480.65 971.117 523.658 985.721 511.332 1059.78C538.831 977.297 589.874 974.989 579.559 1056.34C600.392 977.162 653.71 956.654 651.715 1040.81C665.018 962.441 717.177 932.864 717.445 1016.16C736.872 907.044 776.084 951.389 776.766 1005.73C776.876 1014.47 647.673 1109.85 464.202 1097.1C315.55 1086.76 302.707 1025.55 302.707 1025.55Z" fill="white"/>
<path d="M304.627 1025.67C312.56 1009.59 325.469 993.761 341.581 985.324C347.01 982.482 353.649 980.09 359.762 982.068C366.577 984.272 369.877 991.345 371.387 997.823C374.939 1013.07 372.099 1029.79 369.119 1044.87C368.733 1046.83 372.525 1045.62 373.091 1044.78C379.152 1035.78 385.451 1026.91 392.356 1018.53C397.741 1011.59 403.954 1005.34 410.854 999.915C414.93 996.907 420.389 993.419 425.518 995.059C431.76 997.044 434.552 1004.71 436.161 1010.37C440.608 1026 440.426 1043.06 440.086 1059.15C440.046 1060.99 443.541 1060.24 444.058 1059.06C449.802 1045.35 457.08 1032.33 465.752 1020.25C471.132 1013.05 477.714 1005.46 486.043 1001.6C491.083 999.269 496.601 999.094 501.108 1002.7C506.56 1007.07 508.898 1014.52 510.146 1021.11C512.566 1033.89 511.375 1047.25 509.284 1059.98C508.969 1061.9 512.929 1060.92 513.387 1059.56C517.635 1046.22 523.522 1033.45 530.914 1021.56C535.902 1013.81 541.973 1006.06 549.919 1001.16C554.683 998.224 560.52 996.598 565.729 999.389C571.84 1002.66 574.866 1009.78 576.543 1016.14C579.987 1029.22 579.153 1043.28 577.5 1056.55C577.263 1058.45 581.218 1057.56 581.603 1056.12C584.958 1042.87 589.883 1030.06 596.275 1017.98C600.77 1009.1 606.863 1001.12 614.249 994.443C618.741 990.642 624.78 986.939 630.931 988.109C637.478 989.346 641.701 995.446 644.167 1001.17C649.468 1013.51 649.941 1027.83 649.658 1041.04C649.616 1042.94 653.497 1042.13 653.759 1040.62C655.912 1027.29 659.644 1014.26 664.877 1001.82C668.595 992.58 673.853 984.037 680.425 976.553C684.374 972.308 689.885 967.407 696.085 967.506C702.209 967.603 706.521 973.038 708.966 978.088C714.613 989.701 715.301 1003.71 715.382 1016.38C715.382 1018.29 719.21 1017.48 719.482 1015.96C722.418 999.596 725.959 982.723 733.143 967.61C736.08 961.432 740.838 952.256 748.001 950.536C753.052 949.322 758.109 953.599 761.262 957.659C766.178 964.538 769.639 972.349 771.432 980.611C772.668 985.536 773.553 990.542 774.08 995.591C774.362 998.266 774.551 1000.95 774.648 1003.65C774.731 1004.47 774.745 1005.29 774.69 1006.11C774.646 1006.42 774.576 1006.51 774.65 1006.33C774.209 1007.35 773.53 1008.25 772.671 1008.95C771.24 1010.44 769.727 1011.85 768.14 1013.18C756.084 1023.46 742.105 1031.74 728.259 1039.33C705.427 1051.75 681.569 1062.18 656.949 1070.52C587.85 1094.21 514.32 1102.11 441.763 1093.66C412.119 1090.22 381.988 1084.15 354.787 1071.49C340.16 1064.67 325.976 1055.74 315.4 1043.37C310.815 1038.28 307.275 1032.33 304.979 1025.87C304.887 1025.59 304.81 1025.3 304.749 1025.01C304.407 1023.4 300.314 1024.43 300.669 1026.1C302.03 1031 304.325 1035.59 307.427 1039.61C315.744 1051.55 327.766 1060.7 340.305 1067.82C364.243 1081.4 391.558 1088.64 418.524 1093.17C458.353 1099.75 498.85 1101.3 539.065 1097.79C574.471 1094.76 609.45 1087.95 643.407 1077.48C670.329 1069.26 696.466 1058.66 721.51 1045.81C737.819 1037.72 753.321 1028.1 767.806 1017.07C771.451 1014.47 774.746 1011.41 777.611 1007.97C778.434 1007.01 778.862 1005.78 778.808 1004.52C778.709 999.114 778.227 993.725 777.366 988.389C776.027 979.029 773.099 969.966 768.708 961.59C765.629 955.998 761.144 950.016 754.693 948.205C747.969 946.317 741.512 949.984 737.166 954.921C729.127 964.046 725.051 976.619 721.776 988.085C719.18 997.397 717.056 1006.83 715.413 1016.36L719.514 1015.94C719.449 1003.54 718.788 990.226 713.844 978.66C711.215 972.517 706.836 966.402 699.844 965.148C692.926 963.898 686.238 967.47 681.118 971.805C673.516 978.234 668.012 987.099 663.658 995.935C656.864 1010.22 652.157 1025.41 649.683 1041.03L653.784 1040.61C654.061 1027.73 653.619 1014.06 648.999 1001.88C646.465 995.182 642.195 988.417 635.037 986.092C628.336 983.916 621.099 986.428 615.459 990.129C607.167 995.564 600.823 1003.81 595.685 1012.16C587.505 1026 581.387 1040.95 577.525 1056.56L581.628 1056.14C583.224 1043.31 583.991 1029.83 581.144 1017.11C579.523 1009.86 576.391 1001.84 569.781 997.745C555.046 988.611 538.653 1005.25 530.745 1016.01C521.048 1029.2 514.485 1044.56 509.299 1060L513.402 1059.58C515.747 1047.31 516.162 1034.75 514.631 1022.35C513.507 1014.94 511.157 1006.57 505.339 1001.42C492.279 989.84 475.045 1004.27 466.463 1014.32C455.25 1027.45 447.154 1043.12 440.23 1058.83L444.202 1058.75C444.531 1043.22 444.599 1027.06 440.931 1011.87C439.303 1005.13 436.516 996.516 429.691 993.294C423.778 990.511 417.09 992.901 411.847 996.039C404.4 1000.93 397.768 1006.96 392.194 1013.91C383.937 1023.65 376.28 1033.88 369.265 1044.55L373.237 1044.46C376.119 1029.88 378.607 1014.18 376.01 999.354C374.717 991.981 371.575 983.835 364.334 980.472C357.725 977.398 350.036 978.924 343.576 981.623C335.214 985.393 327.643 990.714 321.262 997.304C312.92 1005.48 306.004 1014.99 300.802 1025.44C299.858 1027.32 303.947 1027.05 304.627 1025.67Z" fill="black"/>
<path d="M809.64 724.83C827.908 709.017 807.427 680.982 784.511 697.723C778.302 702.69 771.782 707.256 764.991 711.392C836.837 573.172 974.993 461.622 1034.82 413.611C1035.38 413.164 1035.79 412.568 1036.01 411.892C1036.24 411.217 1036.26 410.492 1036.08 409.803C1035.9 409.115 1035.52 408.494 1035 408.014C1034.47 407.534 1033.82 407.215 1033.12 407.097C768.182 360.538 675.255 238.848 629.609 155.058C404.775 284.596 292.659 449.748 242.209 612.35C151.433 657.336 133.986 829.573 170.923 928.877C180.961 956.147 196.439 981.092 216.417 1002.2C229.185 1094.91 250.981 1169.64 263.297 1212.5C500.256 1159.72 739.721 1055.76 768.674 1040.45C797.627 1025.14 805.14 965.826 772.897 986.664C717.634 1019.63 646.015 1052.97 549.368 1057.85C356.212 1067.6 242.171 1014.39 205.572 915.994C156.98 785.37 220.947 530.265 380.695 689.259C540.444 848.252 756.686 773.898 809.636 724.833" fill="white"/>
<path d="M811.307 725.276C821.358 716.077 821.219 699.613 808.01 693.232C791.381 685.209 776.557 703.111 763.69 710.653L766.911 711.512C802.338 643.627 851.703 583.75 905.527 529.674C928.697 506.395 952.871 484.129 977.73 462.663C996.547 446.406 1016.11 431.111 1035.15 415.133C1040.01 411.06 1038.37 406.783 1032.42 405.541C1021.9 403.343 1011.27 401.614 1000.75 399.391C981.149 395.248 961.7 390.453 942.404 385.004C908.062 375.387 874.531 363.078 842.124 348.191C793.093 325.41 747.13 295.619 708.48 257.639C680.644 230.059 656.717 198.797 637.365 164.725C635.369 161.243 633.412 157.741 631.495 154.22C630.954 153.227 628.931 153.962 628.311 154.319C543.529 203.263 464.592 263.077 398.756 335.798C344.285 395.678 299.994 464.076 267.64 538.274C260.414 554.976 253.816 571.933 247.845 589.144C246.422 593.24 245.036 597.349 243.688 601.472C242.471 605.186 241.954 610.986 238.432 612.873C232.013 616.31 225.937 620.351 220.286 624.942C194.382 645.918 177.978 676.544 167.494 707.682C155.514 743.302 150.601 781.3 150.734 818.795C150.867 854.455 155.417 890.73 167.118 924.536C174.849 947.026 186.197 968.104 200.715 986.941C204.324 991.586 208.511 995.809 212.103 1000.45C216.538 1006.18 216.221 1015.84 217.321 1022.92C219.416 1036.38 221.739 1049.8 224.29 1063.19C232.475 1106.26 243.016 1148.81 254.93 1190.98C257.012 1198.35 259.117 1205.71 261.244 1213.06C261.508 1213.98 262.933 1213.84 263.599 1213.69C366.893 1190.63 468.271 1159.17 567.796 1123.31C631.508 1100.35 695.179 1076.13 756.675 1047.67C763.374 1044.57 770.587 1041.65 776.314 1036.9C787.015 1027.63 793.912 1014.72 795.68 1000.67C796.736 992.215 795.125 980.295 784.089 981.019C777.344 981.462 771.472 986.029 765.859 989.31C757.032 994.469 748.087 999.415 739.024 1004.15C698.732 1025.38 655.548 1040.61 610.845 1049.33C560.137 1058.93 507.189 1059.63 455.81 1055.97C384.612 1050.9 306.905 1034.16 253.18 983.791C232.199 964.139 216.226 939.753 206.596 912.669C196.399 883.955 192.207 853.113 191.749 822.745C191.084 791.963 194.829 761.243 202.869 731.521C209.96 706.073 220.943 679.939 239.876 660.948C256.679 644.098 279.031 636.588 302.491 641.693C339.184 649.68 364.834 678.046 391.497 702.132C452.945 757.6 533.033 787.897 615.816 786.99C675.105 786.488 738.014 772.599 789.108 741.554C797.022 736.87 804.453 731.415 811.294 725.27C813.087 723.621 809.089 723.344 807.964 724.381C791.55 739.489 770.513 749.789 750.04 758.139C720.33 770.129 689.148 778.091 657.325 781.813C577.738 791.36 496.58 773.815 430.239 728.141C410.432 714.504 393.372 698.35 375.906 681.954C362.944 669.358 348.372 658.532 332.57 649.758C311.221 638.405 286.341 633.047 263.176 642.121C241.637 650.567 226.104 669.419 215.452 689.31C201.986 714.451 194.684 742.792 190.809 770.908C186.531 801.69 186.49 832.914 190.687 863.707C194.618 892.147 202.512 920.248 217.099 945.145C249.596 1000.62 309.458 1031.08 370.067 1045.9C411.813 1056.1 455.003 1059.87 497.895 1060.24C548.816 1060.69 599.537 1056.76 648.72 1042.93C688.973 1031.26 727.629 1014.65 763.806 993.492C767.633 991.294 771.408 989 775.209 986.772C778.069 985.1 781.711 983.016 785.181 983.656C790.145 984.574 791.579 990.412 791.854 994.694C792.755 1008.7 785.367 1024.43 775.351 1033.93C769.554 1039.42 761.897 1042.48 754.737 1045.79C745.023 1050.29 735.208 1054.59 725.372 1058.83C693.407 1072.59 661.101 1085.57 628.615 1098.05C534.611 1134.52 438.718 1165.93 341.348 1192.14C315.356 1199.03 289.236 1205.43 262.986 1211.32L265.341 1211.95C254.626 1174.66 244.397 1137.25 236.037 1099.34C230.517 1074.31 225.749 1049.13 221.732 1023.79C220.677 1017.11 219.876 1010.37 218.751 1003.7C217.877 998.526 211.132 993.488 207.793 989.396C199.994 979.834 193.044 969.61 187.023 958.839C168.25 925.269 159.423 887.054 156.192 848.966C152.831 810.801 155.404 772.346 163.82 734.969C171.538 701.424 184.67 667.559 207.569 641.34C212.828 635.265 218.659 629.71 224.982 624.752C227.868 622.508 230.86 620.408 233.959 618.451C236.609 616.781 241.662 615.234 243.683 612.945C245.645 610.726 246.279 605.693 247.187 602.897C248.594 598.569 250.039 594.254 251.52 589.953C254.617 580.96 257.894 572.03 261.352 563.162C290.236 489.366 330.918 420.751 381.808 359.998C442.635 287.225 516.58 226.328 596.895 176.201C608.112 169.199 619.451 162.399 630.912 155.801L627.728 155.902C645.39 188.784 667.133 219.304 692.442 246.74C727.101 283.834 768.585 314.026 813.41 337.687C876.872 371.184 946.456 392.096 1016.73 405.535C1019.25 406.016 1021.76 406.487 1024.27 406.947C1026.87 407.424 1031.22 407.338 1032.97 409.341C1035.67 412.418 1030.46 415.329 1028.17 417.179C1024.1 420.444 1020.05 423.72 1016 427.005C1006.19 434.976 996.457 443.037 986.795 451.188C962.864 471.429 939.506 492.359 917.002 514.181C863.906 565.662 814.596 622.319 776.962 686.225C772.115 694.455 767.485 702.805 763.072 711.276C762.087 713.159 765.565 712.56 766.292 712.135C773.212 708.079 779.287 703.069 785.814 698.464C791.761 694.271 799 692.158 805.744 695.848C816.959 701.986 816.755 716.358 807.976 724.391C806.181 726.034 810.179 726.313 811.307 725.28V725.276Z" fill="black"/>
<path d="M614.652 535.92C612.884 538.091 610.651 539.837 608.119 541.031C605.586 542.225 602.818 542.836 600.018 542.82C594.357 542.557 588.83 541.011 583.854 538.299C575.728 533.951 569.43 526.835 566.103 518.242C560.129 503.615 560.19 486.895 560.534 471.36C560.935 452.947 562.462 434.549 561.85 416.123C561.282 399.022 558.944 381.175 550.318 366.085C539.282 346.771 519.46 336.9 498.259 332.709C497.203 332.498 493.522 334.187 495.678 334.609C515.993 338.621 535.19 348.251 545.926 366.628C555.044 382.23 557.329 400.848 557.812 418.604C558.328 437.467 556.687 456.289 556.406 475.139C556.172 490.892 556.324 508.207 563.512 522.629C565.976 527.563 569.439 531.931 573.68 535.456C577.922 538.981 582.849 541.587 588.151 543.109C599.119 546.413 610.554 544.566 618.392 535.791C619.378 534.687 615.404 535.08 614.652 535.922V535.92Z" fill="black"/>
<path d="M653.885 547.537C648.651 552.897 646.953 561.86 651.436 568.227C655.583 574.118 663.365 574.984 670.019 574.758C681.21 574.374 691.855 569.843 701.761 564.995C725.623 553.313 748.928 538.538 776.559 539.448C797.319 540.136 816.449 549.331 833.093 561.209C834.605 562.29 838.146 560.185 836.227 558.815C821.574 548.358 805.094 539.944 787.126 537.261C773.344 535.358 759.309 536.659 746.111 541.061C734.013 545.302 722.299 550.567 711.097 556.799C701.086 562.022 690.916 567.598 679.876 570.311C674.49 571.759 668.862 572.076 663.348 571.24C652.312 569.296 650.025 556.25 657.306 548.784C659.097 546.95 655.195 546.179 653.877 547.518L653.885 547.537Z" fill="black"/>
<path d="M558.585 488.455C556.799 444.987 569.999 387.097 539.675 354.982C507.859 371.293 480.521 395.145 460.05 424.455C405.269 501.862 385.446 560.654 393.933 597.598C399.462 621.843 417.204 636.687 445.217 641.18C513.659 652.159 507.934 591.081 566.018 523.001C561.051 513.576 559.121 501.681 558.585 488.455Z" fill="black"/>
<path d="M560.625 487.917C559.894 469.291 561.598 450.661 561.934 432.043C562.257 414.097 561.753 395.473 555.821 378.339C552.811 369.371 547.953 361.133 541.561 354.158C541.165 353.882 540.7 353.723 540.218 353.699C539.736 353.676 539.257 353.789 538.837 354.025C519.954 363.654 502.567 375.968 487.219 390.585C469.504 407.465 455.461 427.368 442.211 447.831C429.977 466.417 419.108 485.867 409.691 506.026C402.371 521.455 396.76 537.638 392.958 554.287C387.123 581.592 388.599 613.881 413.906 631.177C428.221 640.961 447.481 644.751 464.609 643.566C477.844 642.743 490.286 636.976 499.467 627.408C509.94 616.573 517.042 602.779 524.234 589.687C533.704 571.694 544.391 554.369 556.222 537.833C559.882 532.907 563.701 528.107 567.678 523.434C567.849 523.223 568.223 522.781 568.058 522.46C562.578 511.838 561.136 499.7 560.625 487.915C560.562 486.437 556.471 487.296 556.547 489.006C557.056 500.794 558.498 512.93 563.978 523.552L564.356 522.579C550.809 538.8 538.827 556.266 528.57 574.743C520.678 588.665 513.625 603.231 504.421 616.362C497.106 626.8 487.816 635.969 475.212 639.409C468.005 641.197 460.536 641.678 453.16 640.832C443.856 640.114 434.737 637.853 426.177 634.141C418.688 630.82 412.076 625.802 406.861 619.484C401.647 613.167 397.975 605.723 396.134 597.742C393.625 586.03 393.417 573.942 395.521 562.151C398.144 546.674 402.595 531.562 408.781 517.134C416.702 498.365 426.05 480.231 436.741 462.889C449.135 442.426 462.352 421.852 478.358 404C492.681 387.974 509.314 374.173 527.708 363.051C531.896 360.53 536.168 358.161 540.524 355.944L537.8 355.814C549.784 368.659 554.852 385.699 556.771 402.822C558.864 421.48 557.652 440.332 556.889 459.03C556.482 469.014 556.163 479.011 556.556 489C556.604 490.482 560.693 489.621 560.625 487.917Z" fill="black"/>
<path d="M566.018 523.001C507.947 591.081 513.659 652.157 445.217 641.18C417.204 636.687 399.461 621.843 393.933 597.598C402.827 606.343 415.206 612.033 430.773 614.531C501.861 625.932 492.935 559.637 558.585 488.455C559.121 501.681 561.051 513.576 566.018 523.001Z" fill="#B1B1B1"/>
<path d="M564.162 523.123C550.958 538.918 539.258 555.912 529.214 573.882C521.358 587.662 514.352 602.043 505.436 615.19C498.504 625.415 489.759 635.036 477.773 639.12C471.094 641.215 464.075 642.012 457.096 641.47C447.997 641.04 439.017 639.232 430.461 636.107C421.905 633.019 414.22 627.912 408.061 621.22C402.067 614.306 397.912 605.995 395.98 597.052L392.022 598.308C404.635 610.532 422.515 615.547 439.683 616.55C451.954 617.265 464.436 615.23 474.975 608.628C484.942 602.381 492.133 592.702 498.274 582.87C506.338 569.953 513.146 556.286 520.782 543.118C531.969 523.471 545.267 505.103 560.439 488.339L556.545 489.009C557.054 500.796 558.497 512.932 563.976 523.554C564.521 524.61 568.43 523.189 568.056 522.463C562.576 511.841 561.134 499.703 560.623 487.917C560.579 486.861 557.086 488.2 556.729 488.586C543.845 502.709 532.345 518.034 522.387 534.352C514.346 547.423 507.282 561.037 499.69 574.363C493.799 584.709 487.479 595.255 478.574 603.307C470.156 610.835 459.248 614.979 447.954 614.939C429.503 615.27 409.368 609.981 395.866 596.895C395.26 596.308 391.67 597.13 391.908 598.162C393.684 606.252 397.298 613.826 402.469 620.297C407.64 626.768 414.231 631.963 421.732 635.48C430.031 639.246 438.878 641.664 447.94 642.644C455.776 643.741 463.737 643.598 471.529 642.221C484.153 639.655 495.463 632.71 503.462 622.613C513.309 610.703 520.288 596.579 527.715 583.119C539.42 561.9 552.155 541.395 567.887 522.887C568.74 521.855 564.836 522.332 564.162 523.123Z" fill="black"/>
<path d="M809.744 545.598C729.386 598.632 735.816 716.193 657.813 703.688C601.471 694.651 629.039 620.626 657.112 570.833C658.82 571.827 660.703 572.485 662.659 572.771C696.296 578.165 729.048 536.325 777.112 537.934C788.379 538.384 799.455 540.985 809.744 545.598Z" fill="#B1B1B1"/>
<path d="M808.483 545.009C784.463 560.954 766.809 583.739 752.575 608.492C740.103 630.18 730.448 653.675 716.254 674.334C710.787 682.89 703.682 690.28 695.348 696.081C686.801 701.481 676.766 704.044 666.676 703.403C655.165 702.856 642.941 699.592 635.309 690.393C628.359 682.013 626.693 670.58 627.162 660.021C628.11 646.593 631.027 633.377 635.82 620.797C640.86 606.818 646.919 593.228 653.949 580.135C655.596 577.023 657.285 573.935 659.017 570.871L655.494 571.814C662.968 575.995 673.306 574.641 681.242 572.591C689.908 570.08 698.275 566.634 706.196 562.313C724.842 552.834 743.342 542.057 764.504 539.568C779.408 538.029 794.455 540.447 808.127 546.58C809.322 547.093 813.045 545.34 811.379 544.625C799.609 539.399 786.867 536.718 773.989 536.76C763.253 537.048 752.635 539.074 742.548 542.76C723.716 549.384 707.165 560.878 688.593 568.031C679.844 571.398 667.539 574.787 658.746 569.859C658.133 569.644 657.468 569.619 656.84 569.787C656.211 569.956 655.648 570.31 655.224 570.803C647.828 583.804 641.279 597.267 635.615 611.11C629.965 624.363 626.001 638.272 623.813 652.511C622.335 663.592 622.345 675.772 627.574 685.948C632.83 696.176 642.767 701.956 653.759 704.264C664.934 706.788 676.59 706.16 687.429 702.451C696.771 698.811 705.067 692.916 711.576 685.292C719.019 676.536 725.448 666.967 730.742 656.768C737.102 645.236 742.886 633.4 749.073 621.777C762.673 596.23 778.523 571.371 801.428 553.14C804.516 550.682 807.706 548.365 811 546.187C813.296 544.665 809.769 544.156 808.483 545.009Z" fill="black"/>
<path d="M777.108 537.932C714.541 595.016 714.416 694.047 642.488 682.513C636.902 681.721 631.519 679.866 626.63 677.049C620.559 653.521 631.487 616.268 657.112 570.833C658.82 571.827 660.703 572.485 662.659 572.771C696.296 578.165 729.048 536.325 777.108 537.932Z" fill="black"/>
<path d="M775.25 538.038C758.206 553.661 745.245 572.951 734.089 593.067C724.029 611.21 715.536 630.273 704.511 647.871C695.853 661.679 684.576 675.831 668.312 680.653C658.655 683.272 648.469 683.239 638.829 680.556C635.944 679.792 631.451 678.787 629.21 676.72C627.795 675.413 627.77 672.383 627.531 670.555C626.964 665.898 626.872 661.196 627.257 656.521C628.559 643.298 631.7 630.321 636.591 617.966C642.845 601.576 650.382 585.704 659.131 570.497L655.197 571.553C661.557 575.113 670.054 574.568 676.991 573.242C684.155 571.728 691.109 569.353 697.703 566.169C713.272 559.026 727.849 549.84 744.069 544.125C754.231 540.422 764.989 538.626 775.803 538.827C776.826 538.93 777.852 538.655 778.687 538.055C779.11 537.579 779.403 537.06 778.415 537.033C760.58 536.524 743.613 541.756 727.608 549.247C713.145 556.016 699.419 565.039 684.127 569.9C676.546 572.309 666.353 574.209 659.027 570.111C658.34 569.879 657.6 569.856 656.9 570.044C656.2 570.232 655.572 570.622 655.093 571.166C646.996 585.298 639.91 599.985 633.89 615.118C629.082 626.913 625.689 639.237 623.783 651.832C623.079 656.803 622.826 661.828 623.029 666.845C623.132 669.053 623.362 671.253 623.718 673.435C623.895 674.507 624.085 675.586 624.351 676.642C624.727 678.12 625.758 678.405 627.097 679.076C637.296 683.754 648.617 685.432 659.735 683.913C677.319 681.819 691.18 671.262 701.569 657.423C713.96 640.918 722.53 621.79 732.087 603.603C743.201 582.451 755.489 561.657 772.209 544.388C774.395 542.136 776.648 539.948 778.966 537.824C779.68 537.17 778.333 537.033 777.969 537.033C776.974 537.046 776.014 537.401 775.25 538.038Z" fill="black"/>
<path d="M648.893 278.441C656.184 278.441 662.094 272.532 662.094 265.243C662.094 257.954 656.184 252.045 648.893 252.045C641.603 252.045 635.693 257.954 635.693 265.243C635.693 272.532 641.603 278.441 648.893 278.441Z" fill="#B1B1B1"/>
<path d="M660.024 264.897C660.204 267.35 659.662 269.801 658.464 271.949C657.266 274.097 655.465 275.847 653.284 276.982C649.027 278.954 643.64 276.497 640.808 273.163C639.209 271.251 638.187 268.923 637.864 266.452C637.54 263.981 637.927 261.469 638.979 259.209C640.013 256.981 641.696 255.119 643.809 253.866C645.674 252.855 647.849 252.58 649.907 253.093C652.638 253.713 655.096 255.196 656.918 257.322C658.74 259.448 659.829 262.104 660.024 264.897C660.079 265.577 664.188 264.861 664.102 263.804C663.86 260.897 662.695 258.145 660.777 255.947C658.859 253.75 656.289 252.223 653.442 251.59C650.351 250.955 647.146 251.166 644.164 252.2C641.183 253.234 638.536 255.053 636.502 257.465C634.691 259.81 633.701 262.684 633.684 265.647C633.667 268.609 634.624 271.495 636.407 273.86C638.326 276.18 640.9 277.868 643.793 278.704C646.686 279.539 649.764 279.483 652.625 278.543C659.382 276.643 664.497 271.075 664.102 263.804C664.068 263.153 659.965 263.814 660.024 264.897Z" fill="black"/>
<path d="M666.431 210.7C695.804 187.169 719.088 197.498 717.709 219.386C717.035 239.866 693.23 265.058 669.391 266.81C666.3 267.143 663.173 266.817 660.217 265.852C657.261 264.887 654.544 263.306 652.245 261.213C651.361 260.324 650.163 259.82 648.909 259.809C647.656 259.798 646.449 260.281 645.55 261.154C644.65 262.027 644.132 263.22 644.106 264.473C644.081 265.726 644.551 266.938 645.413 267.847C657.518 280.359 677.986 277.728 693.479 268.749C715.69 256.036 732.733 227.835 725.689 207.045C719.2 187.253 691.775 177.803 659.999 203.92" fill="black"/>
<path d="M668.004 210.795C678.043 202.846 693.849 193.252 706.709 200.749C716.634 206.536 717.176 219.432 713.874 229.252C708.819 242.978 698.843 254.336 685.883 261.12C679.39 264.551 671.598 267.032 664.213 265.554C660.385 264.701 656.841 262.879 653.921 260.261C652.976 259.612 651.901 259.176 650.771 258.981C649.642 258.787 648.483 258.839 647.375 259.134C646.267 259.43 645.237 259.961 644.354 260.693C643.471 261.424 642.757 262.338 642.26 263.371C640.237 268.901 649.035 273.269 653.03 274.884C665.596 279.977 680.693 276.394 692.284 270.364C704.63 263.841 714.879 253.959 721.847 241.861C727.971 231.243 731.791 217.965 727.568 205.968C725.875 201.326 723.001 197.206 719.229 194.013C715.456 190.821 710.917 188.667 706.058 187.765C693.177 185.189 679.8 189.747 668.844 196.37C665.107 198.668 661.536 201.224 658.155 204.02C657.397 204.634 658.818 204.771 659.139 204.767C660.13 204.737 661.085 204.388 661.863 203.773C673.006 194.709 687.541 186.54 702.435 189.35C707.28 190.206 711.807 192.348 715.541 195.552C719.275 198.756 722.079 202.905 723.659 207.565C727.671 219.586 723.659 232.689 717.436 243.197C710.297 255.458 699.584 265.248 686.73 271.257C674.421 276.776 657.686 278.03 647.607 267.378C647.052 266.889 646.625 266.272 646.361 265.58C646.097 264.889 646.004 264.144 646.091 263.409C646.228 262.59 646.98 260.772 647.905 260.569C649.104 260.305 650.566 262.159 651.474 262.892C655.496 265.973 660.409 267.668 665.476 267.723C678.412 268.075 691.186 261.481 700.701 253.154C709.918 245.095 718.105 233.764 719.567 221.311C720.661 211.984 717.666 202.271 708.502 198.273C697.835 193.628 684.975 197.95 675.462 203.34C671.75 205.473 668.208 207.889 664.868 210.567C663.229 211.863 667.256 211.369 668.014 210.778L668.004 210.795Z" fill="black"/>
<path d="M700.655 258.204C700.655 258.204 725.04 243.902 722.868 216.599C721.936 238.398 700.655 258.204 700.655 258.204Z" fill="white"/>
<path d="M853.304 423.526C860.594 423.526 866.504 417.617 866.504 410.328C866.504 403.039 860.594 397.13 853.304 397.13C846.013 397.13 840.104 403.039 840.104 410.328C840.104 417.617 846.013 423.526 853.304 423.526Z" fill="#B1B1B1"/>
<path d="M864.447 410.22C864.586 412.657 864.007 415.082 862.78 417.192C861.553 419.303 859.733 421.007 857.546 422.092C853.202 423.962 847.881 421.486 845.066 418.066C843.503 416.13 842.524 413.789 842.246 411.317C841.968 408.844 842.401 406.344 843.495 404.11C844.378 402.008 845.963 400.277 847.978 399.211C849.994 398.146 852.317 397.811 854.551 398.263C857.267 398.928 859.697 400.449 861.479 402.603C863.262 404.757 864.302 407.428 864.447 410.22C864.495 410.969 868.6 410.268 868.526 409.126C868.333 406.213 867.215 403.437 865.334 401.203C863.453 398.969 860.908 397.394 858.069 396.707C854.98 396.014 851.76 396.177 848.756 397.179C845.753 398.181 843.08 399.984 841.026 402.393C839.191 404.712 838.164 407.567 838.101 410.523C838.038 413.48 838.943 416.376 840.678 418.771C842.554 421.132 845.1 422.871 847.982 423.761C850.864 424.65 853.947 424.647 856.828 423.753C860.167 423.042 863.158 421.196 865.29 418.529C867.423 415.863 868.566 412.54 868.526 409.126C868.501 408.396 864.404 409.046 864.447 410.22Z" fill="black"/>
<path d="M850.198 353.647C857.09 346.416 867.416 332.399 885.904 327.724C906.763 322.524 922.161 334.177 923.857 354.013C928.328 391.628 878.61 435.045 850.394 413.691C849.895 413.314 849.475 412.843 849.158 412.304C848.841 411.764 848.633 411.168 848.547 410.548C848.461 409.929 848.497 409.299 848.655 408.693C848.812 408.088 849.087 407.52 849.464 407.021C849.841 406.521 850.312 406.101 850.852 405.785C851.391 405.468 851.988 405.26 852.607 405.174C853.227 405.088 853.857 405.124 854.463 405.281C855.068 405.439 855.636 405.714 856.136 406.09C859.137 408.321 862.757 409.567 866.496 409.657C894.175 411.417 924.07 368.42 912.068 345.609C904.375 330.197 882.774 335.116 870.153 346.454C866.241 349.877 862.597 353.595 859.252 357.574" fill="black"/>
<path d="M852.037 353.468C861.554 343.42 870.556 332.806 884.4 328.753C898.105 324.741 912.864 329.58 918.939 343.063C924.282 354.923 922.413 369.032 917.186 380.554C911.632 392.687 902.834 403.051 891.762 410.501C882.215 416.865 870.206 421.11 858.955 416.734C856.329 415.834 853.906 414.427 851.824 412.593C851.251 412.046 850.842 411.35 850.642 410.584C850.441 409.817 850.457 409.01 850.687 408.252C850.86 407.68 851.136 407.145 851.503 406.673C851.714 406.407 852.239 405.778 852.558 405.713C851.832 405.862 853.029 406.055 853.137 406.135C857.476 409.158 862.68 410.687 867.965 410.493C880.029 410.047 891.097 403.27 899.302 394.795C907.842 385.976 914.661 374.492 916.449 362.209C918.061 351.152 914.088 338.251 901.9 335.621C889.283 332.895 876.137 339.782 866.922 347.807C863.572 350.946 860.4 354.269 857.419 357.76C856.651 358.605 860.448 358.108 861.098 357.399C870.672 346.969 884.647 332.152 900.645 337.741C913.44 342.208 914.266 358.235 911.05 369.227C907.088 382.244 899.05 393.645 888.121 401.752C883.051 405.83 876.889 408.32 870.408 408.907C866.741 409.148 863.081 408.346 859.85 406.595C858.329 405.33 856.48 404.525 854.518 404.273C850.052 404.273 843.282 409.065 847.761 413.74C851.456 417.597 857.873 419.483 863.03 419.979C874.676 421.102 886.47 416.375 895.898 409.844C906.868 402.278 915.606 391.909 921.203 379.817C926.503 368.118 928.433 353.685 922.892 341.689C917.19 329.337 904.286 324.344 891.293 326.086C876.194 328.113 863.928 336.881 853.851 347.833C852.014 349.828 850.231 351.872 848.36 353.842C847.588 354.659 851.376 354.184 852.039 353.483L852.037 353.468Z" fill="black"/>
<path d="M896.129 402.571C896.129 402.571 920.762 388.697 919.064 361.362C917.75 383.136 896.129 402.571 896.129 402.571Z" fill="white"/>
<path d="M263.578 1037.18C231.106 1016.37 202.592 989.257 184.246 955.016C166.93 922.702 158.796 885.633 155.855 849.321C152.609 810.118 155.892 770.649 165.568 732.52C170.362 713.538 177.07 695.092 185.591 677.465C194.319 659.62 204.949 642.377 219.893 629.051C231.513 618.58 245.552 611.159 260.75 607.456C278.072 603.636 296.041 603.853 313.265 608.089C319.275 609.51 325.173 611.37 330.911 613.653C332.116 614.13 335.827 612.356 334.163 611.7C301.305 598.723 262.165 598.508 231.482 617.339C214.992 627.459 201.908 642.232 191.96 658.689C181.823 675.68 173.616 693.749 167.492 712.562C155.069 750.916 149.403 791.136 150.746 831.429C151.802 869.266 158.283 908.113 173.709 942.888C189.656 978.838 216.23 1008.34 248.152 1030.95C252.143 1033.78 256.201 1036.51 260.326 1039.14C261.422 1039.84 265.193 1038.22 263.578 1037.18Z" fill="black"/>
<path d="M737.966 727.907C746.772 724.392 755.214 720.024 763.171 714.868C771.844 709.167 780.092 702.803 788.615 696.873C790.881 695.296 787.559 693.822 785.899 694.973C777.543 700.787 769.449 706.994 760.969 712.627C753.143 717.72 744.829 722.019 736.15 725.46C733.567 726.516 735.848 728.766 737.966 727.901V727.907Z" fill="black"/>
<path d="M94.5505 174.866C94.6582 174.596 97.718 175.5 102.136 177.356C107.535 179.709 112.737 182.493 117.69 185.681C122.681 188.946 127.428 192.568 131.896 196.518C135.589 199.791 137.914 202.246 138.089 202.364C138.193 202.546 140.505 205.01 143.544 208.895C147.212 213.591 150.537 218.547 153.492 223.722C156.371 228.855 158.833 234.211 160.853 239.739C162.437 244.259 163.15 247.363 162.874 247.456C162.532 247.576 161.227 244.69 159.151 240.461C156.591 235.308 153.744 230.304 150.622 225.471C147.431 220.656 143.938 216.049 140.163 211.677C137.046 208.088 134.727 205.799 134.628 205.62C134.457 205.508 132.32 203.059 128.914 199.725C124.777 195.688 120.387 191.919 115.771 188.44C111.132 185.028 106.305 181.88 101.312 179.011C97.2134 176.678 94.409 175.202 94.5505 174.866Z" fill="black"/>
<path d="M198.405 233.753C198.061 233.835 196.57 228.838 194.268 221.37C191.966 213.902 188.619 204.032 184.694 194.375C180.99 185.537 176.713 176.95 171.891 168.669L166.721 160.528L164.417 157.294C164.206 157.04 161.328 152.486 156.412 146.302C155.249 144.704 153.838 143.105 152.37 141.402C150.903 139.698 149.399 137.865 147.725 136.077C144.333 132.549 140.803 128.715 136.936 125.22C133.228 121.562 129.19 118.272 125.518 115.061C121.772 111.936 118.149 109.179 115.127 106.704C108.866 102.059 104.737 98.8606 104.919 98.5819C105.1 98.3032 109.565 100.98 116.204 105.201C119.413 107.46 123.227 110.023 127.17 112.979C131.04 116.026 135.276 119.174 139.191 122.731C143.258 126.109 147.005 129.882 150.584 133.366C152.349 135.131 153.933 136.955 155.506 138.644C157.079 140.333 158.558 141.934 159.799 143.534C165.03 149.72 168.107 154.334 168.326 154.595L170.609 157.973L175.677 166.476C180.349 175.072 184.408 183.987 187.823 193.154C191.081 202.237 193.831 211.494 196.059 220.882C197.816 228.538 198.709 233.683 198.405 233.753Z" fill="black"/>
<path d="M197.02 151.416C197.252 151.224 199.165 153.067 201.716 156.141C204.794 159.963 207.574 164.015 210.032 168.262C212.497 172.578 214.668 177.054 216.531 181.661C218.069 185.478 218.905 188.168 218.987 188.322C219 188.497 219.796 191.198 220.622 195.224C221.617 200.089 222.283 205.016 222.615 209.972C222.913 214.866 222.834 219.776 222.379 224.658C221.956 228.627 221.38 231.22 221.082 231.188C220.727 231.157 220.677 228.52 220.531 224.603C220.385 220.687 219.988 215.478 219.264 210.314C218.563 205.568 217.59 200.866 216.352 196.231C215.328 192.412 214.451 189.863 214.43 189.686C214.348 189.538 213.674 186.922 212.416 183.17C210.882 178.621 209.09 174.162 207.05 169.816C204.786 165.116 202.238 160.558 200.189 157.209C198.141 153.861 196.735 151.638 197.02 151.416Z" fill="black"/>
<path d="M332.249 1221.84C332.161 1221.52 336.317 1220.06 342.597 1218L365.739 1210.59L400.142 1199.53L434.773 1189.29L458.042 1182.35C464.377 1180.5 468.638 1179.35 468.746 1179.67C468.854 1179.98 464.804 1181.71 458.635 1184.1C452.467 1186.5 444.175 1189.53 435.815 1192.48C427.454 1195.44 419.029 1198.31 412.616 1200.43L401.548 1204.07L390.346 1207.3C383.842 1209.15 375.26 1211.53 366.695 1213.81C358.13 1216.1 349.559 1218.27 343.112 1219.78C336.665 1221.29 332.336 1222.15 332.249 1221.84Z" fill="black"/>
<path d="M873.162 600.911C872.649 600.518 879.539 590.74 887.261 581.457C891.124 576.825 895.121 572.264 898.242 568.89C901.363 565.516 903.553 563.253 903.68 563.107C903.806 562.962 906.091 560.806 909.504 557.721C912.916 554.637 917.494 550.67 922.157 546.846C931.497 539.207 941.327 532.407 941.715 532.911C942.104 533.416 933.057 541.145 924.368 549.363C920.028 553.476 915.71 557.643 912.523 560.88L907.033 566.471L901.393 571.924C898.126 575.091 893.919 579.371 889.778 583.68C881.48 592.318 873.688 601.318 873.162 600.911Z" fill="black"/>
<defs>
<linearGradient id="paint0_linear" x1="2.05957" y1="0.878418" x2="707.525" y2="0.878418" gradientUnits="userSpaceOnUse">
<stop offset="0.385417" stop-color="#8F6AFA"/>
<stop offset="0.75" stop-color="#375CDC"/>
<stop offset="1" stop-color="#0099EE"/>
</linearGradient>
<linearGradient id="paint1_linear" x1="305.239" y1="930.146" x2="738.736" y2="930.146" gradientUnits="userSpaceOnUse">
<stop offset="0.385417" stop-color="#8F6AFA"/>
<stop offset="0.75" stop-color="#375CDC"/>
<stop offset="1" stop-color="#0099EE"/>
</linearGradient>
</defs>
</svg>
