<svg width="550" height="543" viewBox="0 0 550 543" fill="none" xmlns="http://www.w3.org/2000/svg">
<path d="M257.079 304.564C256.979 307.46 255.881 310.257 254.084 312.455L233.517 338.126L223.434 350.613L223.134 350.912L83.363 525.12C67.3892 545.098 38.2369 548.394 18.2695 532.412C-1.6978 516.429 -4.99241 487.262 10.9815 467.284L11.0813 467.184C13.3775 464.287 16.0731 461.69 18.9684 459.392L196.079 323.443L196.378 323.243L209.057 313.554L235.215 293.376C236.612 292.277 238.309 291.478 240.107 290.979L257.079 304.564Z" fill="url(#paint0_linear)"/>
<path d="M256.081 304.763C255.881 308.259 254.283 311.056 252.187 313.753L246.896 320.346L234.216 336.129C230.023 341.323 225.93 346.517 221.737 351.711L211.254 364.797L190.488 390.668L163.831 423.932L135.478 459.293L109.62 491.457L90.5514 515.131C87.8558 518.427 85.26 521.724 82.5644 525.12C69.8852 541.102 48.021 546.496 29.3515 538.105C6.08958 527.917 -4.39327 500.747 5.88991 477.373C8.98484 470.28 13.777 464.187 19.867 459.492C20.7656 458.793 21.6641 458.094 22.5626 457.395L40.034 444.009L68.8868 421.834L103.83 394.964L139.471 367.594L170.421 343.82L191.187 327.838C194.481 325.341 197.776 322.843 201.071 320.246C209.856 313.554 218.542 306.861 227.228 300.168L234.116 294.874C236.113 293.376 237.91 291.878 240.406 291.278H239.408L254.084 303.165L256.081 304.763C256.58 305.263 258.377 304.464 257.977 304.164L244 292.876C243.102 292.177 242.303 291.478 241.405 290.779C240.206 289.88 238.11 291.078 236.912 291.678C235.015 292.777 233.318 293.975 231.72 295.374C222.835 302.266 213.949 309.059 204.964 315.951C200.372 319.547 195.679 323.043 191.087 326.639L170.62 342.422L138.673 366.895L101.334 395.563L65.093 423.432L35.8409 445.907L19.6674 458.294C16.1731 460.891 12.9783 463.887 10.2827 467.184C-5.79098 487.262 -2.69604 516.529 17.3711 532.612C23.6608 537.706 31.2484 541.002 39.2353 542.301C56.5071 544.998 73.7788 538.205 84.661 524.62L95.3435 511.335L117.208 484.065L145.362 449.004L174.913 412.245L201.17 379.581L219.041 357.305C221.737 353.909 224.532 350.513 227.228 347.117C234.616 337.927 241.904 328.837 249.292 319.647L254.283 313.454C256.48 310.956 257.878 307.76 258.077 304.364C258.077 303.864 256.18 304.164 256.081 304.763Z" fill="black"/>
<path d="M257.079 304.564C256.979 307.46 255.881 310.257 254.084 312.455L233.518 338.126L223.434 350.613L223.135 350.912C213.251 342.621 204.266 333.332 196.079 323.343L196.379 323.143L209.058 313.454L235.215 293.276C236.613 292.177 238.31 291.378 240.107 290.879L257.079 304.564Z" fill="black"/>
<path d="M356.916 384.875C463.002 384.875 549.001 298.829 549.001 192.687C549.001 86.5449 463.002 0.499512 356.916 0.499512C250.83 0.499512 164.83 86.5449 164.83 192.687C164.83 298.829 250.83 384.875 356.916 384.875Z" fill="url(#paint1_linear)"/>
<path d="M337.447 0.99895C277.845 7.09222 224.333 40.4554 192.784 91.4989C136.776 181.899 164.63 300.568 254.982 356.606C286.93 376.384 324.069 386.473 361.608 385.374C381.875 384.775 401.942 381.079 421.011 374.386C521.347 339.225 574.26 229.347 539.018 128.858C513.26 55.0392 445.271 4.09553 366.999 0.199833C357.215 -0.199726 347.231 5.36363e-05 337.447 0.99895C336.449 1.09884 335.85 2.19763 337.148 2.09774C442.476 -8.49057 536.422 68.3245 547.104 173.708C554.892 250.723 515.556 324.841 447.467 361.6C429.896 371.09 411.027 377.683 391.359 381.179C287.13 399.958 187.593 330.635 168.923 226.35C155.246 149.934 188.99 72.7197 254.383 30.8659C270.956 20.2776 289.027 12.3864 308.096 7.39189C317.68 4.89465 327.364 3.09663 337.248 2.09774C338.146 1.99785 338.745 0.89906 337.447 0.99895Z" fill="black"/>
<path d="M504.674 130.356C539.018 211.966 500.781 305.962 419.214 340.424C337.647 374.886 243.701 336.528 209.258 254.918C174.814 173.309 213.151 79.3125 294.718 44.8505C313.787 36.7595 334.353 32.5641 355.019 32.2644C420.312 31.5652 479.415 70.3224 504.674 130.356Z" fill="white"/>
<path d="M503.776 130.656C509.766 144.84 513.659 159.923 515.456 175.206C517.154 190.19 516.655 205.273 514.059 220.157C508.967 249.424 495.888 276.694 476.221 299.07C466.137 310.557 454.356 320.446 441.378 328.637C426.203 338.126 409.53 344.919 392.058 348.914C372.79 353.31 352.823 353.909 333.354 350.912C262.57 339.924 207.66 283.387 198.775 212.365C196.878 197.482 197.177 182.398 199.573 167.515C204.266 138.147 216.945 110.578 236.413 88.0028C246.297 76.5155 257.878 66.4266 270.657 58.2357C285.832 48.4465 302.605 41.2545 320.176 37.0591C338.546 32.664 357.515 31.6651 376.284 34.0624C424.605 40.0558 467.435 67.7252 492.893 109.279C496.887 116.072 500.581 123.264 503.776 130.656C504.075 131.255 505.972 130.656 505.672 130.156C499.183 114.773 490.298 100.489 479.515 87.803C468.933 75.5166 456.553 64.8284 442.775 56.3378C367.199 8.99011 267.562 31.9647 220.24 107.581C204.765 132.354 196.279 160.822 195.68 189.99C195.38 205.473 197.377 220.956 201.47 235.839C206.063 252.321 213.151 267.904 222.636 282.188C232.32 296.772 244.3 309.658 258.177 320.246C328.762 374.786 430.196 361.7 484.707 291.078C505.373 264.308 517.054 231.844 518.252 198.081C518.751 182.598 517.054 167.215 513.16 152.232C511.163 144.74 508.668 137.348 505.672 130.156C505.373 129.557 503.476 130.156 503.776 130.656Z" fill="black"/>
<path d="M11.0817 483.066C14.0768 475.175 19.8673 468.682 27.4549 464.986C29.6513 463.788 32.1472 463.188 34.743 463.188C37.2389 463.388 39.7348 464.986 40.5335 467.384C41.3322 469.881 40.0343 472.478 38.8363 474.775L29.9508 491.757C28.4533 494.654 26.7561 497.65 23.9606 499.248C13.977 504.642 8.38611 490.358 11.0817 483.066Z" fill="white"/>
<path d="M16.9722 518.128C15.2749 515.431 16.1735 511.934 18.7692 510.236C19.8674 509.537 21.1653 509.237 22.4632 509.437C24.3601 509.737 26.0573 510.836 27.1555 512.334C28.5532 514.232 28.9526 516.729 27.9542 518.827C25.9575 522.922 18.9689 521.424 16.9722 518.128Z" fill="white"/>
<defs>
<linearGradient id="paint0_linear" x1="0.856445" y1="290.979" x2="269.89" y2="290.979" gradientUnits="userSpaceOnUse">
<stop offset="0.385417" stop-color="#8F6AFA"/>
<stop offset="0.75" stop-color="#375CDC"/>
<stop offset="1" stop-color="#0099EE"/>
</linearGradient>
<linearGradient id="paint1_linear" x1="164.83" y1="0.499512" x2="568.21" y2="0.499512" gradientUnits="userSpaceOnUse">
<stop offset="0.385417" stop-color="#8F6AFA"/>
<stop offset="0.75" stop-color="#375CDC"/>
<stop offset="1" stop-color="#0099EE"/>
</linearGradient>
</defs>
</svg>
