<svg width="871" height="900" viewBox="0 0 871 900" fill="none" xmlns="http://www.w3.org/2000/svg">
<path d="M88.6987 299.667H87.6987V300.667C87.6987 498.308 244.176 660.067 435.499 660.067C626.822 660.067 783.299 498.308 783.299 300.667V299.667H782.299H753.399H752.399V300.667C752.399 482.333 611.206 628.2 435.499 628.2C259.792 628.2 118.599 482.333 118.599 300.667V299.667H117.599H88.6987Z" fill="url(#paint0_linear)" stroke="black" stroke-width="2"/>
<path d="M117.601 270.801H753.401V300.667H117.601V270.801Z" fill="#B2B2B2"/>
<path d="M753.401 270.801H117.601V300.667H753.401V270.801Z" fill="url(#paint1_linear)"/>
<path d="M421.049 644.133H449.949V793.467H421.049V644.133Z" fill="#B2B2B2"/>
<path d="M465.402 629.199V628.199H464.402H406.602H405.602V629.199V808.399V809.399H406.602H464.402H465.402V808.399V629.199Z" fill="url(#paint2_linear)" stroke="black" stroke-width="2"/>
<path d="M435.502 554.534C299.672 554.534 189.852 441.041 189.852 300.667C189.852 160.294 299.672 46.8005 435.502 46.8005C571.332 46.8005 681.152 160.294 681.152 300.667C681.152 441.041 571.332 554.534 435.502 554.534Z" fill="#B2B2B2"/>
<path d="M435.5 62.7331C562.077 62.7331 665.7 169.774 665.7 300.666C665.7 431.559 562.077 538.6 435.5 538.6C308.923 538.6 205.3 431.559 205.3 300.666C205.3 169.774 308.923 62.7331 435.5 62.7331ZM435.5 30.8665C290.417 30.8665 174.4 150.812 174.4 300.666C174.4 450.521 290.417 570.466 435.5 570.466C580.583 570.466 696.6 450.521 696.6 300.666C696.6 150.812 580.583 30.8665 435.5 30.8665Z" fill="url(#paint3_linear)" stroke="black" stroke-width="2"/>
<path d="M767.849 255.867C760.184 255.867 752.833 259.013 747.413 264.614C741.994 270.216 738.949 277.812 738.949 285.733C738.949 293.655 741.994 301.251 747.413 306.852C752.833 312.453 760.184 315.6 767.849 315.6C775.514 315.6 782.864 312.453 788.284 306.852C793.704 301.251 796.749 293.655 796.749 285.733C796.749 277.812 793.704 270.216 788.284 264.614C782.864 259.013 775.514 255.867 767.849 255.867Z" fill="#B2B2B2"/>
<path d="M767.851 271.301C772.067 271.301 775.544 272.751 777.968 275.255C780.393 277.761 781.801 281.363 781.801 285.734C781.801 290.105 780.393 293.707 777.968 296.213C775.544 298.718 772.067 300.167 767.851 300.167C763.635 300.167 760.158 298.718 757.734 296.213C755.309 293.707 753.901 290.105 753.901 285.734C753.901 281.363 755.309 277.761 757.734 275.255C760.158 272.751 763.635 271.301 767.851 271.301ZM767.851 240.434C744.439 240.434 724.001 261.58 724.001 285.734C724.001 309.888 744.439 331.034 767.851 331.034C791.263 331.034 811.701 309.888 811.701 285.734C811.701 261.58 791.263 240.434 767.851 240.434Z" fill="url(#paint4_linear)" stroke="black"/>
<path d="M103.151 255.368C95.3482 255.368 87.8685 258.572 82.3563 264.268C76.8446 269.964 73.751 277.686 73.751 285.735C73.751 293.783 76.8446 301.505 82.3563 307.201C87.8685 312.898 95.3482 316.101 103.151 316.101C110.954 316.101 118.433 312.898 123.946 307.201C129.457 301.505 132.551 293.783 132.551 285.735C132.551 277.686 129.457 269.964 123.946 264.268C118.433 258.572 110.954 255.368 103.151 255.368Z" fill="#B2B2B2" stroke="black"/>
<path d="M103.15 271.301C107.367 271.301 110.844 272.751 113.267 275.255C115.692 277.761 117.1 281.363 117.1 285.734C117.1 290.105 115.692 293.707 113.267 296.213C110.844 298.718 107.367 300.167 103.15 300.167C98.934 300.167 95.4568 298.718 93.0334 296.213C90.6085 293.707 89.2003 290.105 89.2003 285.734C89.2003 281.363 90.6085 277.761 93.0334 275.255C95.4568 272.751 98.934 271.301 103.15 271.301ZM103.15 240.434C79.7388 240.434 59.3003 261.58 59.3003 285.734C59.3003 309.888 79.7388 331.034 103.15 331.034C126.562 331.034 147 309.888 147 285.734C147 261.58 126.562 240.434 103.15 240.434Z" fill="url(#paint5_linear)" stroke="black"/>
<path d="M435.501 90.5996C408.798 90.5996 382.358 96.035 357.69 106.595C333.022 117.154 310.611 132.63 291.734 152.138C272.858 171.646 257.886 194.804 247.672 220.288C237.457 245.772 232.201 273.084 232.201 300.666C232.201 328.248 237.457 355.561 247.672 381.045C257.886 406.529 272.858 429.686 291.734 449.194C310.611 468.702 333.022 484.178 357.69 494.738C382.358 505.298 408.798 510.733 435.501 510.733C462.203 510.733 488.643 505.298 513.311 494.738C537.979 484.178 560.39 468.702 579.267 449.194C598.144 429.686 613.116 406.529 623.33 381.045C633.544 355.561 638.801 328.248 638.801 300.666C638.801 273.084 633.544 245.772 623.33 220.288C613.116 194.804 598.144 171.646 579.267 152.138C560.39 132.63 537.979 117.154 513.311 106.595C488.643 96.035 462.203 90.5996 435.501 90.5996Z" fill="#F8FCFF" stroke="black" stroke-width="2"/>
<path d="M435.501 91.5996C322.791 91.5996 233.201 184.186 233.201 300.666C233.201 312.613 233.201 324.56 236.091 336.506L484.631 100.56C470.181 94.5863 452.841 91.5996 435.501 91.5996ZM296.781 450L591.561 166.266C577.111 148.346 562.661 136.4 545.321 124.453L256.321 399.226C264.991 414.16 276.551 429.093 288.111 444.026C291.001 447.013 293.891 447.013 296.781 450Z" fill="white"/>
<path d="M304.452 853.201V854.201H305.452H565.552H566.552V853.201V838.268C566.552 833.57 565.033 829.574 562.297 826.746C559.557 823.915 555.674 822.334 551.102 822.334H319.902C315.329 822.334 311.446 823.915 308.707 826.746C305.97 829.574 304.452 833.57 304.452 838.268V853.201Z" fill="#B2B2B2" stroke="black" stroke-width="2"/>
<path d="M290.001 868.134V869.134H291.001H580.001H581.001V868.134V838.267C581.001 829.089 578.037 821.36 572.772 815.918C567.504 810.474 560.008 807.4 551.101 807.4H319.901C310.994 807.4 303.498 810.474 298.23 815.918C292.965 821.36 290.001 829.089 290.001 838.267V868.134Z" fill="url(#paint6_linear)" stroke="black" stroke-width="2"/>
<rect x="1" y="1" width="869" height="898" stroke="black" stroke-width="2"/>
<defs>
<linearGradient id="paint0_linear" x1="88.6987" y1="300.667" x2="816.979" y2="300.667" gradientUnits="userSpaceOnUse">
<stop offset="0.177083" stop-color="#8F6AFA"/>
<stop offset="0.651042" stop-color="#375CDC"/>
<stop offset="1" stop-color="#0099EE"/>
</linearGradient>
<linearGradient id="paint1_linear" x1="117.601" y1="270.801" x2="785.191" y2="270.801" gradientUnits="userSpaceOnUse">
<stop offset="0.177083" stop-color="#8F6AFA"/>
<stop offset="0.651042" stop-color="#375CDC"/>
<stop offset="1" stop-color="#0099EE"/>
</linearGradient>
<linearGradient id="paint2_linear" x1="406.602" y1="629.199" x2="467.292" y2="629.199" gradientUnits="userSpaceOnUse">
<stop offset="0.177083" stop-color="#8F6AFA"/>
<stop offset="0.651042" stop-color="#375CDC"/>
<stop offset="1" stop-color="#0099EE"/>
</linearGradient>
<linearGradient id="paint3_linear" x1="175.4" y1="31.8665" x2="721.61" y2="31.8665" gradientUnits="userSpaceOnUse">
<stop offset="0.177083" stop-color="#8F6AFA"/>
<stop offset="0.651042" stop-color="#375CDC"/>
<stop offset="1" stop-color="#0099EE"/>
</linearGradient>
<linearGradient id="paint4_linear" x1="724.501" y1="240.934" x2="815.536" y2="240.934" gradientUnits="userSpaceOnUse">
<stop offset="0.177083" stop-color="#8F6AFA"/>
<stop offset="0.651042" stop-color="#375CDC"/>
<stop offset="1" stop-color="#0099EE"/>
</linearGradient>
<linearGradient id="paint5_linear" x1="59.8003" y1="240.934" x2="150.835" y2="240.934" gradientUnits="userSpaceOnUse">
<stop offset="0.177083" stop-color="#8F6AFA"/>
<stop offset="0.651042" stop-color="#375CDC"/>
<stop offset="1" stop-color="#0099EE"/>
</linearGradient>
<linearGradient id="paint6_linear" x1="291.001" y1="808.4" x2="594.451" y2="808.4" gradientUnits="userSpaceOnUse">
<stop offset="0.177083" stop-color="#8F6AFA"/>
<stop offset="0.651042" stop-color="#375CDC"/>
<stop offset="1" stop-color="#0099EE"/>
</linearGradient>
</defs>
</svg>
