<svg width="6577" height="6066" viewBox="0 0 6577 6066" fill="none" xmlns="http://www.w3.org/2000/svg">
<path d="M1118.68 5074C1230.22 5038.35 1341.73 5003.95 1453.2 4970.8C1480.87 5082.16 1509.58 5192.93 1539.34 5303.11C1649.97 5269.28 1760.57 5236.73 1871.13 5205.46C1905.14 5319.91 1940.21 5433.71 1976.34 5546.86C1866.03 5590.69 1755.84 5635.89 1645.74 5682.46C1597.19 5603.09 1528.49 5537.97 1446.66 5493.76C1364.72 5449.28 1272.18 5428.18 1179.17 5432.77C1157.82 5313.85 1137.66 5194.26 1118.68 5074Z" fill="white"/>
<path d="M1143.53 5094.1C1254.75 5058.56 1366.26 5024.16 1478.05 4990.91L1425.55 4954.8C1453.24 5065.82 1481.96 5176.58 1511.7 5287.09C1515.42 5300.99 1549.08 5327.82 1564.19 5323.17C1674.48 5289.55 1785.08 5257 1895.98 5225.52L1843.48 5189.41C1860.5 5246.56 1877.79 5303.64 1895.32 5360.65C1903.29 5386.49 1911.35 5412.33 1919.49 5438.16C1926.01 5459.05 1949.68 5504.63 1940.19 5524.11C1930.7 5543.6 1889.23 5551.73 1868.86 5559.96C1841.26 5571.11 1813.69 5582.32 1786.17 5593.6C1730.89 5616.23 1675.78 5639.14 1620.86 5662.35L1671.85 5694.76C1617.38 5606.88 1541 5534.66 1450.24 5485.21C1359.47 5435.76 1257.46 5410.79 1154.24 5412.75L1206.72 5448.83C1185.43 5329.45 1165.3 5209.86 1146.32 5090.07C1143.55 5072.71 1089.82 5050.04 1091.05 5057.98C1110.01 5177.78 1130.15 5297.38 1151.47 5416.77C1156.53 5426.68 1163.98 5435.18 1173.15 5441.48C1182.32 5447.79 1192.92 5451.7 1203.97 5452.87C1286.26 5448.53 1368.25 5466.41 1441.35 5504.64C1514.46 5542.87 1575.99 5600.04 1619.5 5670.16C1626.12 5680.59 1655.84 5708.65 1670.52 5702.59C1780.24 5656.18 1890.47 5610.95 2001.21 5566.9C2001.67 5566.83 2002.11 5566.67 2002.5 5566.43C2002.89 5566.19 2003.22 5565.87 2003.48 5565.49C2003.74 5565.11 2003.92 5564.67 2004 5564.22C2004.08 5563.77 2004.07 5563.3 2003.96 5562.85C1967.76 5449.42 1932.7 5335.62 1898.76 5221.45C1894.56 5207.4 1861.8 5180.93 1846.25 5185.35C1735.36 5216.82 1624.76 5249.37 1514.45 5283.01L1566.96 5319.11C1537.2 5208.62 1508.48 5097.85 1480.8 4986.82C1477.42 4972.71 1443.29 4946.25 1428.3 4950.71C1316.45 4984.04 1204.94 5018.44 1093.78 5053.91C1084.82 5056.82 1127.09 5099.41 1143.53 5094.1Z" fill="black"/>
<path d="M1976.37 5546.8C2937.76 3807.86 4180.96 2241.06 5655.45 910.049C5653.82 808.982 5653.11 707.613 5653.31 605.943C5602.46 650.237 5551.89 694.787 5501.6 739.592C4062.1 2025.79 2836.67 3533.2 1871.14 5205.42C1905.15 5319.88 1940.22 5433.67 1976.37 5546.8Z" fill="#ACACAC"/>
<path d="M2003.58 5565.54C2398.55 4851.51 2841.53 4165.22 3329.47 3511.39C3814.21 2862.24 4342.3 2246.71 4910.14 1668.98C5071.35 1504.97 5235.66 1344.12 5403.07 1186.43C5485.89 1108.43 5569.49 1031.24 5653.87 954.859C5681.74 929.584 5683.93 930.228 5683.4 893.013C5682.97 863.687 5682.64 834.384 5682.39 805.104C5681.88 743.608 5681.66 682.183 5681.73 620.827C5681.75 602.219 5642.29 573.126 5626.06 587.253C5003.66 1130.25 4419.36 1715.42 3877.26 2338.66C3333.57 2963.08 2833.12 3623.94 2379.4 4316.65C2252.67 4510.16 2129.67 4706.05 2010.4 4904.31C1980.89 4953.32 1951.62 5002.49 1922.58 5051.83C1906.71 5078.71 1890.93 5105.65 1875.25 5132.66C1861.24 5150.02 1850.24 5169.59 1842.68 5190.59C1846.6 5219.19 1854.72 5247.07 1866.79 5273.32C1874.54 5299.32 1882.44 5325.23 1890.49 5351.06C1909.5 5413.04 1928.89 5474.94 1948.66 5536.76C1954.4 5554.75 2012.17 5582.19 2004.06 5556.87C1971.6 5455.07 1930.67 5351.12 1908.17 5246.67C1897.69 5198.88 1941.38 5149.91 1965.16 5109.45C1992.81 5062.34 2020.68 5015.36 2048.79 4968.5C2153.05 4794.62 2260.17 4622.49 2370.15 4452.12C2592.65 4107.53 2826.63 3770.75 3072.09 3441.78C3562.61 2784.48 4097 2161.16 4671.6 1576.06C4995.55 1246.16 5331.86 929.033 5680.52 624.687L5624.87 591.137C5624.8 644.55 5624.98 697.99 5625.39 751.456C5625.77 802.189 5641.85 873.748 5605.18 912.106C5536.26 984.611 5455.7 1048.67 5382.62 1117.17C5233.65 1256.73 5087.11 1398.83 4943.01 1543.45C4658.84 1828.55 4384.47 2123.02 4119.89 2426.87C3588.09 3037.66 3098.21 3683.79 2653.61 4360.85C2404.17 4740.88 2169.35 5129.96 1949.14 5528.09C1938.72 5546.94 1994.08 5582.74 2003.58 5565.54Z" fill="black"/>
<path d="M1118.7 5074C1230.24 5038.35 1341.75 5003.96 1453.22 4970.8C2436.49 3246.95 3687.91 1691.18 5160.61 361.76C5212.01 315.342 5263.65 269.239 5315.54 223.453C5209.96 208.529 5103.97 194.486 4997.59 181.324C3442.82 1584.8 2131.96 3236.94 1118.31 5070.6L1118.7 5074Z" fill="#ACACAC"/>
<path d="M1143.04 5094.84C1248.92 5060.9 1357.16 5032.2 1462.24 4996.03C1498.47 4983.6 1519.77 4920.49 1538.49 4888.16C1565.78 4840.98 1593.28 4793.93 1620.99 4747.01C1729.1 4563.93 1840.31 4382.71 1954.64 4203.36C2180.23 3849.53 2417.53 3503.56 2666.55 3165.46C3167.56 2485.41 3714.09 1840.18 4302.39 1234.18C4636.32 890.191 4983.12 559.455 5342.79 241.976C5357.33 229.118 5303.27 202.905 5295.57 201.915C5242.73 194.472 5189.83 187.228 5136.89 180.183C5110.4 176.737 5083.89 173.306 5057.37 169.888C5035.54 167.112 4994.46 153.01 4973.24 160.442C4954.73 172.345 4938.24 187.12 4924.38 204.215C4905.23 221.612 4886.11 239.052 4867.03 256.533C4825.08 294.968 4783.29 333.556 4741.66 372.298C4582.98 520.324 4426.85 671.044 4273.27 824.456C3966.74 1130.88 3670.92 1447.61 3385.81 1774.64C2819.97 2423.9 2299.09 3111.07 1826.81 3831.4C1693.81 4034.29 1564.74 4239.68 1439.59 4447.57C1378.3 4549.36 1317.97 4651.73 1258.62 4754.67C1227.66 4808.37 1196.95 4862.25 1166.48 4916.31C1151.27 4943.35 1136.1 4970.41 1121 4997.48C1112.16 5013.37 1088.33 5040.67 1090.27 5058.48C1092.47 5077.8 1148.23 5103.92 1146.67 5089C1144.73 5072.01 1174.39 5036.65 1183.03 5021.19C1195.57 4998.66 1208.21 4976.12 1220.96 4953.56C1248.86 4904.01 1276.99 4854.6 1305.37 4805.35C1359.46 4711.3 1414.37 4617.73 1470.1 4524.66C1578.84 4343.06 1690.59 4163.32 1805.33 3985.44C2037.37 3625.77 2281.43 3274.26 2537.51 2930.88C3046.48 2248.54 3600.88 1601.36 4196.94 993.748C4363.36 824.134 4532.92 657.683 4705.64 494.394C4792.07 412.669 4879.27 331.779 4967.25 251.723C4994.84 226.637 5010.9 204.841 5049.33 206.254C5080.74 207.503 5113.55 214.412 5144.88 218.51C5208.41 226.823 5271.91 235.462 5335.39 244.427L5288.17 204.366C4654.9 763.741 4060.13 1365.26 3507.91 2004.85C2958.03 2642.37 2451.85 3316.38 1992.81 4022.28C1865.58 4217.85 1742.05 4415.77 1622.24 4616.07C1591.59 4667.27 1561.2 4718.61 1531.06 4770.1C1501.31 4820.98 1475.08 4876.84 1441.27 4925C1408.61 4971.71 1329.76 4979.61 1276.62 4996.09C1215.71 5014.83 1154.89 5033.91 1094.16 5053.34C1079.52 5057.92 1124.44 5100.77 1143.04 5094.84Z" fill="black"/>
<path d="M1453.19 4970.77C2471.01 3186.33 3775.93 1582.42 5315.62 223.357L5653.2 605.846C5602.35 650.139 5551.78 694.689 5501.49 739.495C4062.02 2025.73 2836.61 3533.18 1871.12 5205.42C1760.57 5236.71 1649.97 5269.27 1539.32 5303.08C1509.65 5192.93 1480.94 5082.16 1453.19 4970.77Z" fill="#ACACAC"/>
<path d="M1480.38 4989.53C1876.48 4295.42 2316.52 3627.43 2797.84 2989.64C3279.11 2352.19 3800.75 1746.32 4359.54 1175.72C4675.96 852.659 5003.74 541.437 5342.89 242.057L5292.62 215.469C5405.15 342.965 5517.68 470.461 5630.2 597.957L5625.97 587.015C5007.45 1126.63 4426.53 1707.91 3887.27 2326.8C3348.26 2944.94 2851.64 3598.87 2400.79 4284.12C2275.04 4475.2 2152.98 4668.58 2034.6 4864.25C2004.94 4913.22 1975.54 4962.32 1946.4 5011.53C1916.52 5061.99 1890.49 5119.37 1855.67 5166.44C1835.16 5194.13 1802.37 5197.81 1770.93 5206.88C1743.23 5214.84 1715.58 5222.88 1687.97 5231.02C1630.08 5248.02 1572.26 5265.34 1514.53 5282.99L1567.03 5319.1C1537.27 5208.6 1508.55 5097.84 1480.88 4986.81C1476.48 4969.23 1423.95 4948.26 1425.57 4954.78C1453.25 5065.82 1481.97 5176.58 1511.73 5287.08C1515.55 5301.19 1548.92 5327.88 1564.24 5323.18C1664.51 5292.58 1765.05 5262.88 1865.86 5234.09C1897.86 5224.97 1897.36 5225.87 1914.14 5197.2C1927.17 5174.69 1940.27 5152.21 1953.44 5129.74C1979.72 5084.83 2006.19 5040.04 2032.87 4995.39C2139.48 4816.83 2249.13 4640.13 2361.79 4465.29C2584.01 4120.51 2817.73 3783.51 3062.96 3454.3C3555.89 2792.35 4093.27 2164.77 4671.39 1575.88C4995.34 1245.98 5331.65 928.855 5680.31 624.509C5683.02 622.197 5676.86 614.424 5676.08 613.566L5338.53 231.057C5331.64 222.992 5300.26 194.217 5288.26 204.469C4688.71 733.924 4123.69 1301.24 3596.64 1902.96C3070.78 2503.72 2583.96 3137.61 2139.16 3800.75C1887.62 4175.73 1649.89 4559.5 1425.97 4952.05C1418.66 4964.86 1474.27 5000.23 1480.38 4989.53Z" fill="black"/>
<path d="M4410.94 733.76C4469.19 676.451 4527.84 619.531 4586.87 563.003C4693.66 573.186 4799.95 584.147 4905.73 595.888C4846.76 651.08 4788.23 706.65 4730.11 762.596C4624.18 752.17 4517.79 742.558 4410.94 733.76Z" fill="url(#paint0_linear)"/>
<path d="M4438.27 752.632C4496.51 695.337 4555.15 638.418 4614.2 581.875L4598.55 587.599C4704.92 597.67 4811.21 608.632 4917.4 620.483L4878.62 577.305C4819.72 632.471 4761.18 688.041 4703 744.014L4718.66 738.291C4612.3 727.737 4505.89 718.162 4399.41 709.565C4396.56 708.965 4393.59 709.221 4390.88 710.301C4388.17 711.382 4385.85 713.238 4384.2 715.638C4382.54 718.038 4381.64 720.875 4381.59 723.793C4381.54 726.71 4382.36 729.579 4383.93 732.039C4387.66 739.292 4393.13 745.509 4399.85 750.133C4406.56 754.756 4414.32 757.64 4422.42 758.526C4521.3 766.625 4620.11 775.483 4718.85 785.099C4728.39 786.12 4741.45 789.74 4750.72 786.127C4759.4 780.839 4767.08 774.06 4773.4 766.102C4790.64 749.551 4807.92 733.026 4825.24 716.528C4860.97 682.541 4896.84 648.676 4932.86 614.931C4950.59 598.349 4905.68 572.963 4894.1 571.778C4795.5 560.769 4696.83 550.533 4598.08 541.072C4588.54 540.051 4575.38 536.47 4566.09 540.104C4557.33 545.436 4549.58 552.273 4543.2 560.301C4525.75 577.085 4508.32 593.886 4490.9 610.704C4455.02 645.428 4419.28 680.302 4383.66 715.327C4366.53 732.215 4418.79 771.79 4438.27 752.632Z" fill="black"/>
<path d="M4730.24 762.724C4788.4 706.797 4846.93 651.227 4905.85 596.016L5254.56 968.393C5205.13 1014.08 5155.97 1060.05 5107.08 1106.29C5098.93 1113.99 5090.75 1121.67 5082.59 1129.38L4730.24 762.724Z" fill="url(#paint1_linear)"/>
<path d="M4757.45 781.459C4815.64 725.534 4874.17 669.965 4933.06 614.751L4888.17 606.244L5236.88 978.62L5227.33 949.672C5169.7 1002.97 5112.5 1056.78 5055.36 1110.66L5100.25 1119.16L4747.89 752.511C4739.51 743.765 4718.75 732.342 4706.84 740.472C4694.09 749.189 4704.98 765.089 4712.56 772.952L5064.92 1139.6C5075.48 1150.61 5096.94 1160.05 5109.8 1148.11C5166.94 1094.23 5224.11 1040.45 5281.77 987.127C5290.19 979.327 5277.03 963.317 5272.21 958.179L4923.51 585.803C4913.05 574.619 4891.38 565.442 4878.62 577.296C4819.74 632.479 4761.2 688.048 4703.01 744.004C4685.61 760.73 4737.77 800.344 4757.45 781.459Z" fill="black"/>
<path d="M5082.68 1129.28C5090.84 1121.58 5099 1113.89 5107.17 1106.19C5156.06 1059.94 5205.22 1013.98 5254.64 968.293C5257.56 1069.82 5261.34 1171.08 5265.98 1272.06C5209.97 1325.69 5154.35 1379.67 5099.12 1433.99C5093.17 1333.14 5088.06 1231.96 5083.8 1130.44L5082.68 1129.28Z" fill="url(#paint2_linear)"/>
<path d="M5109.78 1148.11C5166.88 1094.22 5224.2 1040.56 5281.75 987.126L5226.52 952.909C5229.1 1040.51 5232.26 1128.13 5236 1215.77C5237.72 1226.59 5238.21 1237.57 5237.47 1248.5C5232.79 1259.86 5224.9 1269.62 5214.77 1276.57C5198.8 1291.91 5182.86 1307.3 5166.94 1322.72C5135.14 1353.53 5103.44 1384.45 5071.85 1415.49L5127.07 1449.71C5123.78 1393.78 5120.76 1337.8 5118.01 1281.78C5116.64 1254.39 5115.34 1227 5114.12 1199.63C5113.13 1177.4 5118.49 1147.75 5102.1 1130.6C5092.19 1118.43 5078.02 1110.5 5062.49 1108.42C5048.96 1109.93 5057.01 1121.79 5063.22 1128.3L5064.29 1129.56L5055.72 1115.16C5060 1216.39 5065.11 1317.57 5071.04 1418.7C5071.91 1433.12 5113.14 1465.82 5126.26 1452.92C5158.84 1420.93 5191.53 1389.04 5224.34 1357.25C5240.23 1341.86 5256.16 1326.48 5272.14 1311.13C5280.51 1305.22 5287.74 1297.85 5293.49 1289.38C5296.66 1280.81 5292.72 1263.96 5292.43 1255C5288.42 1164.71 5285.14 1074.38 5282.58 983.985C5282.16 969.134 5240.63 937.465 5227.35 949.768C5169.73 1003.09 5112.41 1056.75 5055.38 1110.75C5045.65 1119.8 5095.65 1161.4 5109.78 1148.11Z" fill="black"/>
<path d="M1179.09 5432.81C1271.99 5428.74 1364.35 5449.78 1446.44 5493.72C1528.54 5537.65 1597.35 5602.86 1645.65 5682.5C1544.24 5726.14 1446.2 5767.15 1258.96 5851.98C1225.6 5688.29 1195.08 5525.12 1179.09 5432.81Z" fill="url(#paint3_linear)"/>
<path d="M1198.56 5454.89C1282.32 5450.79 1365.71 5469.29 1439.99 5508.45C1514.27 5547.61 1576.71 5605.99 1620.79 5677.49L1621.6 5661.28C1492.29 5716.92 1363.11 5772.72 1234.88 5830.79L1286.48 5862.23C1258.56 5724.53 1231.51 5586.34 1207.46 5447.76C1205.43 5440.82 1201.87 5434.42 1197.05 5429.02C1192.23 5423.62 1186.27 5419.36 1179.6 5416.55C1175.71 5414.53 1148.28 5404.19 1150.71 5417.85C1175.31 5559.56 1202.73 5700.78 1231.39 5841.72C1234.51 5857.04 1267.2 5880.31 1283.02 5873.1C1411.2 5815.12 1540.43 5759.28 1669.72 5703.62C1676.76 5700.6 1673.46 5692.12 1670.53 5687.41C1616.94 5600.63 1541.55 5529.4 1451.9 5480.84C1362.24 5432.29 1261.47 5408.11 1159.66 5410.72C1144.82 5411.36 1152.96 5426.88 1158.46 5433.47C1163.36 5439.57 1169.43 5444.61 1176.32 5448.29C1183.22 5451.97 1190.78 5454.22 1198.56 5454.89Z" fill="black"/>
<defs>
<linearGradient id="paint0_linear" x1="4559.79" y1="908.053" x2="4392.87" y2="712.593" gradientUnits="userSpaceOnUse">
<stop offset="0.177083" stop-color="#8F6AFA"/>
<stop offset="0.651042" stop-color="#375CDC"/>
<stop offset="1" stop-color="#0099EE"/>
</linearGradient>
<linearGradient id="paint1_linear" x1="5059.91" y1="1148.75" x2="4705.08" y2="733.267" gradientUnits="userSpaceOnUse">
<stop offset="0.177083" stop-color="#8F6AFA"/>
<stop offset="0.651042" stop-color="#375CDC"/>
<stop offset="1" stop-color="#0099EE"/>
</linearGradient>
<linearGradient id="paint2_linear" x1="5099.12" y1="1433.99" x2="4926.51" y2="1231.88" gradientUnits="userSpaceOnUse">
<stop offset="0.177083" stop-color="#8F6AFA"/>
<stop offset="0.651042" stop-color="#375CDC"/>
<stop offset="1" stop-color="#0099EE"/>
</linearGradient>
<linearGradient id="paint3_linear" x1="1338.35" y1="5944.94" x2="1002.26" y2="5551.41" gradientUnits="userSpaceOnUse">
<stop offset="0.177083" stop-color="#8F6AFA"/>
<stop offset="0.651042" stop-color="#375CDC"/>
<stop offset="1" stop-color="#0099EE"/>
</linearGradient>
</defs>
</svg>
