<svg width="100" height="100" viewBox="0 0 100 100" fill="none" xmlns="http://www.w3.org/2000/svg">
<path d="M44.5 21.5L42.5 14.5H57.5L55.5 21.5H44.5Z" fill="black"/>
<path d="M55.5004 22H44.5004C44.2764 22 44.0814 21.852 44.0204 21.637L42.0204 14.637C41.9774 14.486 42.0064 14.324 42.1014 14.199C42.1954 14.074 42.3434 14 42.5004 14H57.5004C57.6574 14 57.8054 14.074 57.8994 14.199C57.9944 14.324 58.0234 14.487 57.9804 14.637L55.9804 21.637C55.9194 21.852 55.7244 22 55.5004 22ZM44.8774 21H55.1234L56.8374 15H43.1634L44.8774 21Z" fill="#1F212B"/>
<path d="M62 39C59.791 39 58 37.209 58 35V25.95C59.278 25.69 60.202 24.457 59.962 23.057C59.754 21.844 58.627 21 57.396 21H42.604C41.373 21 40.246 21.844 40.038 23.057C39.798 24.456 40.722 25.69 42 25.95V35C42 37.209 40.209 39 38 39C32.477 39 28 43.477 28 49V81C28 83.209 29.791 85 32 85H68C70.209 85 72 83.209 72 81V49C72 43.477 67.523 39 62 39Z" fill="#E0DECF"/>
<path d="M42.0001 25.95V26H58.0001V25.95C59.2781 25.69 60.2021 24.457 59.9621 23.057C59.7541 21.844 58.6271 21 57.3961 21H42.6041C41.3731 21 40.2461 21.844 40.0381 23.057C39.7981 24.456 40.7221 25.69 42.0001 25.95Z" fill="#CDCBBD"/>
<path d="M28.838 45C28.302 46.226 28 47.577 28 49V81C28 83.209 29.791 85 32 85H68C70.209 85 72 83.209 72 81V49C72 47.577 71.698 46.226 71.162 45H28.838Z" fill="url(#paint0_linear)"/>
<path d="M68 86H32C29.243 86 27 83.757 27 81V49C27 42.935 31.935 38 38 38C39.654 38 41 36.654 41 35V26.665C39.604 26.009 38.777 24.489 39.053 22.887C39.335 21.241 40.861 20 42.604 20H57.397C59.139 20 60.666 21.241 60.948 22.888C61.223 24.489 60.395 26.009 59 26.665V35C59 36.654 60.347 38 62.001 38C68.066 38 73 42.935 73 49V81C72.999 83.757 70.757 86 68 86ZM42.604 22C41.823 22 41.144 22.527 41.024 23.226C40.868 24.137 41.5 24.828 42.2 24.97C42.665 25.064 43 25.474 43 25.95V35C43 37.757 40.757 40 38 40C33.037 40 29 44.038 29 49V81C29 82.654 30.346 84 32 84H68C69.654 84 71 82.654 71 81V49C71 44.038 66.963 40 62 40C59.243 40 57 37.757 57 35V25.95C57 25.474 57.335 25.065 57.801 24.97C58.501 24.827 59.133 24.137 58.977 23.226C58.856 22.527 58.178 22 57.396 22H42.604Z" fill="#1F212B"/>
<path d="M51.5 26H41.5C41.224 26 41 25.776 41 25.5C41 25.224 41.224 25 41.5 25H51.5C51.776 25 52 25.224 52 25.5C52 25.776 51.776 26 51.5 26Z" fill="#1F212B"/>
<path d="M58.5 26H54.5C54.224 26 54 25.776 54 25.5C54 25.224 54.224 25 54.5 25H58.5C58.776 25 59 25.224 59 25.5C59 25.776 58.776 26 58.5 26Z" fill="#1F212B"/>
<path d="M60.5 62C60.5 56.753 55.799 52.5 50 52.5C44.201 52.5 39.5 56.753 39.5 62C39.5 64.587 40.646 66.929 42.5 68.643V70.5C42.5 71.605 43.395 72.5 44.5 72.5H45.5V73.5C45.5 74.605 46.395 75.5 47.5 75.5H52.5C53.605 75.5 54.5 74.605 54.5 73.5V72.5H55.5C56.605 72.5 57.5 71.605 57.5 70.5V68.643C59.354 66.929 60.5 64.587 60.5 62Z" fill="#E3E2E3"/>
<path d="M46.5 66.5C47.6046 66.5 48.5 65.6046 48.5 64.5C48.5 63.3954 47.6046 62.5 46.5 62.5C45.3954 62.5 44.5 63.3954 44.5 64.5C44.5 65.6046 45.3954 66.5 46.5 66.5Z" fill="#444445"/>
<path d="M53.5 66.5C54.6046 66.5 55.5 65.6046 55.5 64.5C55.5 63.3954 54.6046 62.5 53.5 62.5C52.3954 62.5 51.5 63.3954 51.5 64.5C51.5 65.6046 52.3954 66.5 53.5 66.5Z" fill="#444445"/>
<path d="M50 67.5C49.437 67.594 48.5 69.094 48.5 69.938C48.5 70.313 48.875 70.501 49.063 70.501C49.532 70.501 50.376 70.501 50.938 70.501C51.313 70.501 51.501 70.313 51.501 69.938C51.5 69.094 50.563 67.594 50 67.5Z" fill="#444445"/>
<path d="M46.5 67C45.121 67 44 65.878 44 64.5C44 63.122 45.121 62 46.5 62C47.879 62 49 63.122 49 64.5C49 65.878 47.879 67 46.5 67ZM46.5 63C45.673 63 45 63.673 45 64.5C45 65.327 45.673 66 46.5 66C47.327 66 48 65.327 48 64.5C48 63.673 47.327 63 46.5 63Z" fill="#1F212B"/>
<path d="M53.5 67C52.121 67 51 65.878 51 64.5C51 63.122 52.121 62 53.5 62C54.879 62 56 63.122 56 64.5C56 65.878 54.879 67 53.5 67ZM53.5 63C52.673 63 52 63.673 52 64.5C52 65.327 52.673 66 53.5 66C54.327 66 55 65.327 55 64.5C55 63.673 54.327 63 53.5 63Z" fill="#1F212B"/>
<path d="M50.938 70.9997H49.063C48.628 70.9997 48 70.6217 48 69.9377C48 68.9307 49.047 67.1517 49.918 67.0067C49.973 66.9978 50.027 66.9978 50.082 67.0067C50.953 67.1517 52 68.9297 52 69.9377C52 70.5927 51.593 70.9997 50.938 70.9997ZM50 68.0437C49.659 68.2997 49 69.3157 49 69.9377C49 69.9617 49.063 69.9967 49.086 70.0017L50.938 69.9997C50.994 69.3217 50.34 68.3007 50 68.0437Z" fill="#1F212B"/>
<path d="M52.5 76H47.5C46.121 76 45 74.878 45 73.5V73H44.5C43.121 73 42 71.878 42 70.5V68.858C40.063 66.993 39 64.566 39 62C39 56.486 43.935 52 50 52C56.065 52 61 56.486 61 62C61 64.566 59.937 66.993 58 68.858V70.5C58 71.878 56.879 73 55.5 73H55V73.5C55 74.878 53.879 76 52.5 76ZM50 53C44.486 53 40 57.038 40 62C40 64.354 41.009 66.583 42.84 68.275C42.941 68.37 43 68.503 43 68.643V70.5C43 71.327 43.673 72 44.5 72H45.5C45.776 72 46 72.224 46 72.5V73.5C46 74.327 46.673 75 47.5 75H52.5C53.327 75 54 74.327 54 73.5V72.5C54 72.224 54.224 72 54.5 72H55.5C56.327 72 57 71.327 57 70.5V68.643C57 68.503 57.059 68.371 57.16 68.276C58.991 66.583 60 64.354 60 62C60 57.038 55.514 53 50 53Z" fill="#1F212B"/>
<path d="M48.5 76C48.224 76 48 75.776 48 75.5V73.5C48 73.224 48.224 73 48.5 73C48.776 73 49 73.224 49 73.5V75.5C49 75.776 48.776 76 48.5 76Z" fill="#1F212B"/>
<path d="M51.5 76C51.224 76 51 75.776 51 75.5V73.5C51 73.224 51.224 73 51.5 73C51.776 73 52 73.224 52 73.5V75.5C52 75.776 51.776 76 51.5 76Z" fill="#1F212B"/>
<path d="M57.5 46H28.5C28.224 46 28 45.776 28 45.5C28 45.224 28.224 45 28.5 45H57.5C57.776 45 58 45.224 58 45.5C58 45.776 57.776 46 57.5 46Z" fill="#1F212B"/>
<path d="M35.5 53.5C36.6046 53.5 37.5 52.6046 37.5 51.5C37.5 50.3954 36.6046 49.5 35.5 49.5C34.3954 49.5 33.5 50.3954 33.5 51.5C33.5 52.6046 34.3954 53.5 35.5 53.5Z" fill="url(#paint1_linear)"/>
<path d="M64 54.5C64.8284 54.5 65.5 53.8284 65.5 53C65.5 52.1716 64.8284 51.5 64 51.5C63.1716 51.5 62.5 52.1716 62.5 53C62.5 53.8284 63.1716 54.5 64 54.5Z" fill="url(#paint2_linear)"/>
<path d="M33 61.5C33.8284 61.5 34.5 60.8284 34.5 60C34.5 59.1716 33.8284 58.5 33 58.5C32.1716 58.5 31.5 59.1716 31.5 60C31.5 60.8284 32.1716 61.5 33 61.5Z" fill="url(#paint3_linear)"/>
<path d="M66 71.5C67.3807 71.5 68.5 70.3807 68.5 69C68.5 67.6193 67.3807 66.5 66 66.5C64.6193 66.5 63.5 67.6193 63.5 69C63.5 70.3807 64.6193 71.5 66 71.5Z" fill="url(#paint4_linear)"/>
<path d="M56 81.5C56.8284 81.5 57.5 80.8284 57.5 80C57.5 79.1716 56.8284 78.5 56 78.5C55.1716 78.5 54.5 79.1716 54.5 80C54.5 80.8284 55.1716 81.5 56 81.5Z" fill="url(#paint5_linear)"/>
<path d="M35.5 54C34.121 54 33 52.878 33 51.5C33 50.122 34.121 49 35.5 49C36.879 49 38 50.122 38 51.5C38 52.878 36.879 54 35.5 54ZM35.5 50C34.673 50 34 50.673 34 51.5C34 52.327 34.673 53 35.5 53C36.327 53 37 52.327 37 51.5C37 50.673 36.327 50 35.5 50Z" fill="#1F212B"/>
<path d="M64 55C62.897 55 62 54.103 62 53C62 51.897 62.897 51 64 51C65.103 51 66 51.897 66 53C66 54.103 65.103 55 64 55ZM64 52C63.448 52 63 52.449 63 53C63 53.551 63.448 54 64 54C64.552 54 65 53.551 65 53C65 52.449 64.552 52 64 52Z" fill="#1F212B"/>
<path d="M33 62C31.897 62 31 61.103 31 60C31 58.897 31.897 58 33 58C34.103 58 35 58.897 35 60C35 61.103 34.103 62 33 62ZM33 59C32.448 59 32 59.449 32 60C32 60.551 32.448 61 33 61C33.552 61 34 60.551 34 60C34 59.449 33.552 59 33 59Z" fill="#1F212B"/>
<path d="M66 72C64.346 72 63 70.654 63 69C63 67.346 64.346 66 66 66C67.654 66 69 67.346 69 69C69 70.654 67.654 72 66 72ZM66 67C64.897 67 64 67.897 64 69C64 70.103 64.897 71 66 71C67.103 71 68 70.103 68 69C68 67.897 67.103 67 66 67Z" fill="#1F212B"/>
<path d="M56 82C54.897 82 54 81.103 54 80C54 78.897 54.897 78 56 78C57.103 78 58 78.897 58 80C58 81.103 57.103 82 56 82ZM56 79C55.448 79 55 79.449 55 80C55 80.551 55.448 81 56 81C56.552 81 57 80.551 57 80C57 79.449 56.552 79 56 79Z" fill="#1F212B"/>
<path d="M68.5 46H67.5C67.224 46 67 45.776 67 45.5C67 45.224 67.224 45 67.5 45H68.5C68.776 45 69 45.224 69 45.5C69 45.776 68.776 46 68.5 46Z" fill="#1F212B"/>
<path d="M64.5 46H60.5C60.224 46 60 45.776 60 45.5C60 45.224 60.224 45 60.5 45H64.5C64.776 45 65 45.224 65 45.5C65 45.776 64.776 46 64.5 46Z" fill="#1F212B"/>
<defs>
<linearGradient id="paint0_linear" x1="28" y1="45" x2="74.2" y2="45" gradientUnits="userSpaceOnUse">
<stop offset="0.177083" stop-color="#8F6AFA"/>
<stop offset="0.651042" stop-color="#375CDC"/>
<stop offset="1" stop-color="#0099EE"/>
</linearGradient>
<linearGradient id="paint1_linear" x1="33.5" y1="49.5" x2="37.7" y2="49.5" gradientUnits="userSpaceOnUse">
<stop offset="0.177083" stop-color="#8F6AFA"/>
<stop offset="0.651042" stop-color="#375CDC"/>
<stop offset="1" stop-color="#0099EE"/>
</linearGradient>
<linearGradient id="paint2_linear" x1="62.5" y1="51.5" x2="65.65" y2="51.5" gradientUnits="userSpaceOnUse">
<stop offset="0.177083" stop-color="#8F6AFA"/>
<stop offset="0.651042" stop-color="#375CDC"/>
<stop offset="1" stop-color="#0099EE"/>
</linearGradient>
<linearGradient id="paint3_linear" x1="31.5" y1="58.5" x2="34.65" y2="58.5" gradientUnits="userSpaceOnUse">
<stop offset="0.177083" stop-color="#8F6AFA"/>
<stop offset="0.651042" stop-color="#375CDC"/>
<stop offset="1" stop-color="#0099EE"/>
</linearGradient>
<linearGradient id="paint4_linear" x1="63.5" y1="66.5" x2="68.75" y2="66.5" gradientUnits="userSpaceOnUse">
<stop offset="0.177083" stop-color="#8F6AFA"/>
<stop offset="0.651042" stop-color="#375CDC"/>
<stop offset="1" stop-color="#0099EE"/>
</linearGradient>
<linearGradient id="paint5_linear" x1="54.5" y1="78.5" x2="57.65" y2="78.5" gradientUnits="userSpaceOnUse">
<stop offset="0.177083" stop-color="#8F6AFA"/>
<stop offset="0.651042" stop-color="#375CDC"/>
<stop offset="1" stop-color="#0099EE"/>
</linearGradient>
</defs>
</svg>
