<svg width="970" height="1098" viewBox="0 0 970 1098" fill="none" xmlns="http://www.w3.org/2000/svg">
<rect x="309" y="662" width="290" height="436" fill="url(#paint0_linear_217_102)"/>
<path d="M443.5 1084C415.5 1084 393.333 1078.17 377 1066.5C361 1054.83 349.5 1038.5 342.5 1017.5C335.833 996.167 332.5 971.667 332.5 944V808C332.5 779.333 336.167 754.5 343.5 733.5C350.833 712.5 363.333 696.333 381 685C399 673.333 423.333 667.5 454 667.5C484 667.5 507.5 672.5 524.5 682.5C541.833 692.5 554.167 706.333 561.5 724C568.833 741.667 572.5 762.333 572.5 786V812H485V779C485 770.333 484.333 762.333 483 755C482 747.667 479.333 741.833 475 737.5C471 732.833 464.333 730.5 455 730.5C445.333 730.5 438.333 733.167 434 738.5C429.667 743.5 426.833 749.833 425.5 757.5C424.5 765.167 424 773.167 424 781.5V969C424 978 424.833 986.5 426.5 994.5C428.5 1002.17 431.833 1008.5 436.5 1013.5C441.5 1018.17 448.5 1020.5 457.5 1020.5C466.833 1020.5 474 1018 479 1013C484 1008 487.5 1001.5 489.5 993.5C491.5 985.5 492.5 977 492.5 968V920.5H456V868H573V1078H514L509 1044.5C503.667 1055.83 495.833 1065.33 485.5 1073C475.167 1080.33 461.167 1084 443.5 1084Z" fill="black"/>
<path d="M131.5 1078V739.5H70.5V673H282V739.5H221.5V1078H131.5Z" fill="white"/>
<path d="M119.484 430.529H362V591H119.484V430.529Z" fill="url(#paint1_linear_217_102)"/>
<path d="M81.4143 349.583H271.761V528.516H81.4143V349.583Z" fill="url(#paint2_linear_217_102)"/>
<path d="M81.4143 379.405H323.931V539.876H81.4143V379.405Z" fill="url(#paint3_linear_217_102)"/>
<path d="M47.5748 320.471H235.102V480.942H47.5748V320.471Z" fill="url(#paint4_linear_217_102)"/>
<path d="M37 253.016H201.262V413.488H37V253.016Z" fill="url(#paint5_linear_217_102)"/>
<path d="M47.5748 189.112H151.208V349.583H47.5748V189.112Z" fill="url(#paint6_linear_217_102)"/>
<path d="M68.7245 160H139.223V320.471H68.7245V160Z" fill="url(#paint7_linear_217_102)"/>
<ellipse cx="321.5" cy="124.5" rx="40.5" ry="35.5" fill="url(#paint8_linear_217_102)"/>
<ellipse cx="395.5" cy="70.5" rx="40.5" ry="35.5" fill="url(#paint9_linear_217_102)"/>
<path fill-rule="evenodd" clip-rule="evenodd" d="M260.262 383.746C195.042 326.326 118.171 258.652 101.364 163.301C86.2311 185.857 75.1117 208.64 67.3678 231.429C51.5752 277.915 49.6747 324.924 56.2839 370.361C63.9639 423.214 89.6988 485.796 130.134 531.184C161.025 565.871 200.467 590.063 246.484 590.438C271.729 590.644 291.876 585.084 306.952 575.566C321.532 566.367 331.425 553.265 336.545 538.153C341.949 522.169 342.289 503.635 337.474 484.614C331.233 459.983 316.519 434.821 293.103 413.086C283.43 404.107 272.048 394.107 260.276 383.746M211.005 4.94326C194.057 12.2588 177.441 20.8987 161.301 30.8771C94.9819 71.8388 42.179 141.794 17.4795 214.482C-1.2561 269.607 -3.57501 324.846 4.14049 377.918C13.097 439.559 43.2924 512.764 90.8121 566.105C130.879 611.096 183.27 642.483 246.086 642.993C282.21 643.283 311.959 634.757 335.056 620.175C360.223 604.297 377.37 581.451 386.341 554.915C395.007 529.265 395.78 500.42 388.476 471.555C379.916 437.746 360.138 403.618 328.907 374.639C317.781 364.299 306.633 354.491 295.095 344.343C231.322 301.221 84.2809 140.349 189.036 75.6205C202.921 67.0372 217.21 59.6013 231.769 53.3125C262.127 40.1898 241.661 -8.27862 211.012 4.95034L211.005 4.94326ZM317.164 103.636C328.411 99.5502 340.849 105.336 344.941 116.568C349.04 127.8 343.239 140.221 331.992 144.308C320.745 148.401 308.307 142.608 304.215 131.376C300.123 120.144 305.917 107.723 317.164 103.629V103.636ZM421.99 638.064C438.938 630.748 455.561 622.101 471.701 612.13C538.013 571.175 590.816 501.221 615.515 428.525C634.251 373.393 636.577 318.161 628.861 265.082C619.905 203.449 589.71 130.25 542.183 76.8952C502.116 31.9182 449.732 0.531243 386.915 0.00718385C350.792 -0.283173 321.043 8.24342 297.946 22.825C272.779 38.7026 255.624 61.5559 246.661 88.0846C237.995 113.735 237.222 142.58 244.526 171.453C253.086 205.261 272.857 239.389 304.095 268.368C315.221 278.701 326.376 288.516 337.907 298.664C401.687 341.786 548.728 502.658 443.973 567.38C430.081 575.97 415.799 583.406 401.233 589.695C370.882 602.817 391.341 651.286 421.99 638.057V638.064ZM381.966 55.4088C393.213 51.3225 405.651 57.1084 409.743 68.3403C413.842 79.5722 408.041 91.9938 396.794 96.0801C385.547 100.173 373.108 94.3804 369.017 83.1485C364.925 71.9167 370.719 59.495 381.966 55.4017V55.4088ZM207.878 511.645C219.125 507.559 231.563 513.345 235.655 524.577C239.754 535.808 233.953 548.23 222.706 552.316C211.459 556.41 199.021 550.617 194.929 539.385C190.837 528.153 196.631 515.731 207.878 511.638V511.645ZM266.772 446.952C278.019 442.866 290.458 448.652 294.549 459.884C298.648 471.115 292.847 483.537 281.6 487.623C270.353 491.717 257.915 485.924 253.823 474.692C249.731 463.46 255.525 451.038 266.772 446.945V446.952Z" fill="white"/>
<defs>
<linearGradient id="paint0_linear_217_102" x1="309" y1="662" x2="613.5" y2="662" gradientUnits="userSpaceOnUse">
<stop offset="0.177083" stop-color="#8F6AFA"/>
<stop offset="0.651042" stop-color="#375CDC"/>
<stop offset="1" stop-color="#0099EE"/>
</linearGradient>
<linearGradient id="paint1_linear_217_102" x1="37" y1="160" x2="378.25" y2="160" gradientUnits="userSpaceOnUse">
<stop offset="0.177083" stop-color="#8F6AFA"/>
<stop offset="0.651042" stop-color="#375CDC"/>
<stop offset="1" stop-color="#0099EE"/>
</linearGradient>
<linearGradient id="paint2_linear_217_102" x1="37" y1="160" x2="378.25" y2="160" gradientUnits="userSpaceOnUse">
<stop offset="0.177083" stop-color="#8F6AFA"/>
<stop offset="0.651042" stop-color="#375CDC"/>
<stop offset="1" stop-color="#0099EE"/>
</linearGradient>
<linearGradient id="paint3_linear_217_102" x1="37" y1="160" x2="378.25" y2="160" gradientUnits="userSpaceOnUse">
<stop offset="0.177083" stop-color="#8F6AFA"/>
<stop offset="0.651042" stop-color="#375CDC"/>
<stop offset="1" stop-color="#0099EE"/>
</linearGradient>
<linearGradient id="paint4_linear_217_102" x1="37" y1="160" x2="378.25" y2="160" gradientUnits="userSpaceOnUse">
<stop offset="0.177083" stop-color="#8F6AFA"/>
<stop offset="0.651042" stop-color="#375CDC"/>
<stop offset="1" stop-color="#0099EE"/>
</linearGradient>
<linearGradient id="paint5_linear_217_102" x1="37" y1="160" x2="378.25" y2="160" gradientUnits="userSpaceOnUse">
<stop offset="0.177083" stop-color="#8F6AFA"/>
<stop offset="0.651042" stop-color="#375CDC"/>
<stop offset="1" stop-color="#0099EE"/>
</linearGradient>
<linearGradient id="paint6_linear_217_102" x1="37" y1="160" x2="378.25" y2="160" gradientUnits="userSpaceOnUse">
<stop offset="0.177083" stop-color="#8F6AFA"/>
<stop offset="0.651042" stop-color="#375CDC"/>
<stop offset="1" stop-color="#0099EE"/>
</linearGradient>
<linearGradient id="paint7_linear_217_102" x1="37" y1="160" x2="378.25" y2="160" gradientUnits="userSpaceOnUse">
<stop offset="0.177083" stop-color="#8F6AFA"/>
<stop offset="0.651042" stop-color="#375CDC"/>
<stop offset="1" stop-color="#0099EE"/>
</linearGradient>
<linearGradient id="paint8_linear_217_102" x1="281" y1="89" x2="366.05" y2="89" gradientUnits="userSpaceOnUse">
<stop offset="0.177083" stop-color="#8F6AFA"/>
<stop offset="0.651042" stop-color="#375CDC"/>
<stop offset="1" stop-color="#0099EE"/>
</linearGradient>
<linearGradient id="paint9_linear_217_102" x1="355" y1="35" x2="440.05" y2="35" gradientUnits="userSpaceOnUse">
<stop offset="0.177083" stop-color="#8F6AFA"/>
<stop offset="0.651042" stop-color="#375CDC"/>
<stop offset="1" stop-color="#0099EE"/>
</linearGradient>
</defs>
</svg>
