<svg width="1661" height="290" viewBox="0 0 1661 290" fill="none" xmlns="http://www.w3.org/2000/svg">
<rect x="633" y="29" width="669" height="258" fill="url(#paint0_linear_216_20)"/>
<path d="M694.513 245.4C683.313 245.4 674.446 243.067 667.913 238.4C661.513 233.733 656.913 227.2 654.113 218.8C651.446 210.267 650.113 200.467 650.113 189.4V135C650.113 123.533 651.579 113.6 654.513 105.2C657.446 96.8 662.446 90.3333 669.513 85.8C676.713 81.1333 686.446 78.8 698.713 78.8C710.713 78.8 720.113 80.8 726.913 84.8C733.846 88.8 738.779 94.3333 741.713 101.4C744.646 108.467 746.113 116.733 746.113 126.2V136.6H711.113V123.4C711.113 119.933 710.846 116.733 710.313 113.8C709.913 110.867 708.846 108.533 707.113 106.8C705.513 104.933 702.846 104 699.112 104C695.246 104 692.446 105.067 690.713 107.2C688.979 109.2 687.846 111.733 687.313 114.8C686.913 117.867 686.713 121.067 686.713 124.4V199.4C686.713 203 687.046 206.4 687.713 209.6C688.513 212.667 689.846 215.2 691.712 217.2C693.713 219.067 696.513 220 700.113 220C703.846 220 706.713 219 708.713 217C710.713 215 712.113 212.4 712.913 209.2C713.713 206 714.113 202.6 714.113 199V180H699.513V159H746.313V243H722.713L720.713 229.6C718.579 234.133 715.446 237.933 711.313 241C707.179 243.933 701.579 245.4 694.513 245.4ZM769.319 243V81H805.119V146.6H830.119V81H866.119V243H830.119V172.2H805.119V243H769.319ZM937.189 245.4C925.056 245.4 915.456 243.267 908.389 239C901.322 234.733 896.256 228.6 893.189 220.6C890.122 212.6 888.589 203.067 888.589 192V131.8C888.589 120.6 890.122 111.067 893.189 103.2C896.256 95.3333 901.322 89.3333 908.389 85.2C915.456 80.9333 925.056 78.8 937.189 78.8C949.456 78.8 959.122 80.9333 966.189 85.2C973.389 89.3333 978.522 95.3333 981.589 103.2C984.656 111.067 986.189 120.6 986.189 131.8V192C986.189 203.067 984.656 212.6 981.589 220.6C978.522 228.6 973.389 234.733 966.189 239C959.122 243.267 949.456 245.4 937.189 245.4ZM937.189 220C940.922 220 943.656 219.067 945.389 217.2C947.122 215.333 948.256 212.933 948.789 210C949.322 207.067 949.589 204.067 949.589 201V123C949.589 119.8 949.322 116.8 948.789 114C948.256 111.067 947.122 108.667 945.389 106.8C943.656 104.933 940.922 104 937.189 104C933.722 104 931.122 104.933 929.389 106.8C927.656 108.667 926.522 111.067 925.989 114C925.456 116.8 925.189 119.8 925.189 123V201C925.189 204.067 925.389 207.067 925.789 210C926.322 212.933 927.389 215.333 928.989 217.2C930.722 219.067 933.456 220 937.189 220ZM1050.98 245.4C1040.84 245.4 1032.38 243.6 1025.58 240C1018.78 236.4 1013.64 230.867 1010.18 223.4C1006.71 215.8 1004.78 206 1004.38 194L1034.98 189.4C1035.11 196.333 1035.71 201.933 1036.78 206.2C1037.98 210.467 1039.58 213.533 1041.58 215.4C1043.71 217.267 1046.24 218.2 1049.18 218.2C1052.91 218.2 1055.31 216.933 1056.38 214.4C1057.58 211.867 1058.18 209.2 1058.18 206.4C1058.18 199.733 1056.58 194.133 1053.38 189.6C1050.18 184.933 1045.84 180.267 1040.38 175.6L1026.38 163.4C1020.24 158.2 1015.04 152.333 1010.78 145.8C1006.64 139.133 1004.58 130.933 1004.58 121.2C1004.58 107.467 1008.64 97 1016.78 89.8C1024.91 82.4667 1035.98 78.8 1049.98 78.8C1058.64 78.8 1065.58 80.2667 1070.78 83.2C1076.11 86.1333 1080.11 90 1082.78 94.8C1085.58 99.4667 1087.44 104.467 1088.38 109.8C1089.44 115 1090.04 120 1090.18 124.8L1059.38 128.6C1059.24 123.8 1058.91 119.667 1058.38 116.2C1057.98 112.6 1057.04 109.867 1055.58 108C1054.11 106 1051.84 105 1048.78 105C1045.44 105 1042.98 106.4 1041.38 109.2C1039.91 112 1039.18 114.8 1039.18 117.6C1039.18 123.6 1040.58 128.533 1043.38 132.4C1046.31 136.133 1050.11 140.067 1054.78 144.2L1068.18 156C1075.24 162 1081.18 168.8 1085.98 176.4C1090.91 184 1093.38 193.4 1093.38 204.6C1093.38 212.2 1091.64 219.133 1088.18 225.4C1084.71 231.533 1079.78 236.4 1073.38 240C1067.11 243.6 1059.64 245.4 1050.98 245.4ZM1125.31 243V107.6H1100.91V81H1185.51V107.6H1161.31V243H1125.31ZM1242.77 245.4C1232.64 245.4 1224.17 243.6 1217.37 240C1210.57 236.4 1205.44 230.867 1201.97 223.4C1198.51 215.8 1196.57 206 1196.17 194L1226.77 189.4C1226.91 196.333 1227.51 201.933 1228.57 206.2C1229.77 210.467 1231.37 213.533 1233.37 215.4C1235.51 217.267 1238.04 218.2 1240.97 218.2C1244.71 218.2 1247.11 216.933 1248.17 214.4C1249.37 211.867 1249.97 209.2 1249.97 206.4C1249.97 199.733 1248.37 194.133 1245.17 189.6C1241.97 184.933 1237.64 180.267 1232.17 175.6L1218.17 163.4C1212.04 158.2 1206.84 152.333 1202.57 145.8C1198.44 139.133 1196.37 130.933 1196.37 121.2C1196.37 107.467 1200.44 97 1208.57 89.8C1216.71 82.4667 1227.77 78.8 1241.77 78.8C1250.44 78.8 1257.37 80.2667 1262.57 83.2C1267.91 86.1333 1271.91 90 1274.57 94.8C1277.37 99.4667 1279.24 104.467 1280.17 109.8C1281.24 115 1281.84 120 1281.97 124.8L1251.17 128.6C1251.04 123.8 1250.71 119.667 1250.17 116.2C1249.77 112.6 1248.84 109.867 1247.37 108C1245.91 106 1243.64 105 1240.57 105C1237.24 105 1234.77 106.4 1233.17 109.2C1231.71 112 1230.97 114.8 1230.97 117.6C1230.97 123.6 1232.37 128.533 1235.17 132.4C1238.11 136.133 1241.91 140.067 1246.57 144.2L1259.97 156C1267.04 162 1272.97 168.8 1277.77 176.4C1282.71 184 1285.17 193.4 1285.17 204.6C1285.17 212.2 1283.44 219.133 1279.97 225.4C1276.51 231.533 1271.57 236.4 1265.17 240C1258.91 243.6 1251.44 245.4 1242.77 245.4Z" fill="black"/>
<path d="M311.6 238V102.6H287.2V76H371.8V102.6H347.6V238H311.6ZM399.062 238L379.463 76H409.863L419.463 170.4L431.663 76.2H455.463L468.263 169.8L478.063 76H508.063L488.663 238H457.463L443.663 140.2L430.663 238H399.062ZM571.525 240.4C559.392 240.4 549.792 238.267 542.725 234C535.658 229.733 530.592 223.6 527.525 215.6C524.458 207.6 522.925 198.067 522.925 187V126.8C522.925 115.6 524.458 106.067 527.525 98.2C530.592 90.3333 535.658 84.3333 542.725 80.2C549.792 75.9333 559.392 73.8 571.525 73.8C583.792 73.8 593.458 75.9333 600.525 80.2C607.725 84.3333 612.858 90.3333 615.925 98.2C618.992 106.067 620.525 115.6 620.525 126.8V187C620.525 198.067 618.992 207.6 615.925 215.6C612.858 223.6 607.725 229.733 600.525 234C593.458 238.267 583.792 240.4 571.525 240.4ZM571.525 215C575.258 215 577.992 214.067 579.725 212.2C581.458 210.333 582.592 207.933 583.125 205C583.658 202.067 583.925 199.067 583.925 196V118C583.925 114.8 583.658 111.8 583.125 109C582.592 106.067 581.458 103.667 579.725 101.8C577.992 99.9333 575.258 99 571.525 99C568.058 99 565.458 99.9333 563.725 101.8C561.992 103.667 560.858 106.067 560.325 109C559.792 111.8 559.525 114.8 559.525 118V196C559.525 199.067 559.725 202.067 560.125 205C560.658 207.933 561.725 210.333 563.325 212.2C565.058 214.067 567.792 215 571.525 215Z" fill="white"/>
<path d="M48.5011 203.843H147V269H48.5011V203.843Z" fill="url(#paint1_linear_216_20)"/>
<path d="M33.039 170.977H110.349V243.629H33.039V170.977Z" fill="url(#paint2_linear_216_20)"/>
<path d="M33.039 183.086H131.538V248.242H33.039V183.086Z" fill="url(#paint3_linear_216_20)"/>
<path d="M19.295 159.157H95.4599V224.313H19.295V159.157Z" fill="url(#paint4_linear_216_20)"/>
<path d="M15 131.768H81.7158V196.924H15V131.768Z" fill="url(#paint5_linear_216_20)"/>
<path d="M19.295 105.82H61.3861V170.977H19.295V105.82Z" fill="url(#paint6_linear_216_20)"/>
<path d="M27.885 94H56.5184V159.157H27.885V94Z" fill="url(#paint7_linear_216_20)"/>
<ellipse cx="130.5" cy="79.5" rx="16.5" ry="14.5" fill="url(#paint8_linear_216_20)"/>
<ellipse cx="160.5" cy="57.5" rx="16.5" ry="14.5" fill="url(#paint9_linear_216_20)"/>
<path fill-rule="evenodd" clip-rule="evenodd" d="M105.667 184.766C79.1878 161.459 47.9778 133.989 41.1542 95.2856C35.0101 104.441 30.4956 113.689 27.3515 122.939C20.9397 141.808 20.1681 160.89 22.8514 179.333C25.9696 200.787 36.418 226.189 52.8349 244.613C65.3765 258.693 81.3903 268.512 100.073 268.665C110.323 268.748 118.503 266.491 124.624 262.628C130.543 258.894 134.56 253.576 136.638 247.441C138.832 240.953 138.97 233.431 137.015 225.709C134.482 215.711 128.508 205.498 119.001 196.676C115.073 193.031 110.452 188.972 105.673 184.766M85.6687 31.0065C78.7876 33.976 72.0417 37.483 65.4888 41.5333C38.563 58.1601 17.1248 86.5554 7.09673 116.06C-0.509982 138.436 -1.45146 160.858 1.68105 182.401C5.31742 207.421 17.5768 237.136 36.87 258.787C53.1372 277.05 74.4084 289.79 99.9119 289.997C114.578 290.115 126.656 286.654 136.034 280.735C146.252 274.29 153.214 265.017 156.856 254.246C160.374 243.834 160.688 232.125 157.722 220.409C154.247 206.685 146.217 192.833 133.537 181.07C129.02 176.873 124.494 172.891 119.81 168.772C93.9175 151.269 34.2183 85.969 76.7491 59.6951C82.3865 56.2111 88.188 53.1927 94.0989 50.6401C106.425 45.3134 98.1153 25.6396 85.6716 31.0094L85.6687 31.0065ZM128.77 71.067C133.336 69.4084 138.386 71.7569 140.047 76.3161C141.711 80.8752 139.356 85.9173 134.79 87.5759C130.224 89.2374 125.174 86.886 123.512 82.3269C121.851 77.7677 124.203 72.7257 128.77 71.0642V71.067ZM171.329 287.996C178.21 285.027 184.959 281.517 191.512 277.47C218.435 260.846 239.873 232.45 249.901 202.943C257.508 180.564 258.452 158.145 255.32 136.599C251.683 111.582 239.424 81.8698 220.128 60.2125C203.861 41.9559 182.592 29.2156 157.089 29.0029C142.423 28.8851 130.344 32.3461 120.967 38.2649C110.749 44.7098 103.784 53.9861 100.145 64.7544C96.6268 75.1662 96.3129 86.8745 99.2785 98.5943C102.754 112.318 110.781 126.17 123.463 137.933C127.981 142.127 132.51 146.112 137.191 150.231C163.086 167.734 222.785 233.034 180.255 259.305C174.614 262.792 168.816 265.81 162.902 268.363C150.579 273.689 158.886 293.363 171.329 287.993V287.996ZM155.079 51.491C159.646 49.8323 164.696 52.1809 166.357 56.74C168.021 61.2991 165.666 66.3412 161.1 67.9998C156.533 69.6614 151.483 67.3099 149.822 62.7508C148.161 58.1917 150.513 53.1496 155.079 51.4881V51.491ZM84.399 236.682C88.9654 235.023 94.0154 237.372 95.6767 241.931C97.3408 246.49 94.9857 251.532 90.4193 253.191C85.853 254.852 80.803 252.501 79.1417 247.942C77.4804 243.382 79.8327 238.34 84.399 236.679V236.682ZM108.31 210.422C112.877 208.764 117.927 211.112 119.588 215.671C121.252 220.23 118.897 225.272 114.331 226.931C109.764 228.593 104.714 226.241 103.053 221.682C101.392 217.123 103.744 212.081 108.31 210.419V210.422Z" fill="white"/>
<defs>
<linearGradient id="paint0_linear_216_20" x1="633" y1="29" x2="1335.45" y2="29" gradientUnits="userSpaceOnUse">
<stop offset="0.177083" stop-color="#8F6AFA"/>
<stop offset="0.651042" stop-color="#375CDC"/>
<stop offset="1" stop-color="#0099EE"/>
</linearGradient>
<linearGradient id="paint1_linear_216_20" x1="15" y1="94" x2="153.6" y2="94" gradientUnits="userSpaceOnUse">
<stop offset="0.177083" stop-color="#8F6AFA"/>
<stop offset="0.651042" stop-color="#375CDC"/>
<stop offset="1" stop-color="#0099EE"/>
</linearGradient>
<linearGradient id="paint2_linear_216_20" x1="15" y1="94" x2="153.6" y2="94" gradientUnits="userSpaceOnUse">
<stop offset="0.177083" stop-color="#8F6AFA"/>
<stop offset="0.651042" stop-color="#375CDC"/>
<stop offset="1" stop-color="#0099EE"/>
</linearGradient>
<linearGradient id="paint3_linear_216_20" x1="15" y1="94" x2="153.6" y2="94" gradientUnits="userSpaceOnUse">
<stop offset="0.177083" stop-color="#8F6AFA"/>
<stop offset="0.651042" stop-color="#375CDC"/>
<stop offset="1" stop-color="#0099EE"/>
</linearGradient>
<linearGradient id="paint4_linear_216_20" x1="15" y1="94" x2="153.6" y2="94" gradientUnits="userSpaceOnUse">
<stop offset="0.177083" stop-color="#8F6AFA"/>
<stop offset="0.651042" stop-color="#375CDC"/>
<stop offset="1" stop-color="#0099EE"/>
</linearGradient>
<linearGradient id="paint5_linear_216_20" x1="15" y1="94" x2="153.6" y2="94" gradientUnits="userSpaceOnUse">
<stop offset="0.177083" stop-color="#8F6AFA"/>
<stop offset="0.651042" stop-color="#375CDC"/>
<stop offset="1" stop-color="#0099EE"/>
</linearGradient>
<linearGradient id="paint6_linear_216_20" x1="15" y1="94" x2="153.6" y2="94" gradientUnits="userSpaceOnUse">
<stop offset="0.177083" stop-color="#8F6AFA"/>
<stop offset="0.651042" stop-color="#375CDC"/>
<stop offset="1" stop-color="#0099EE"/>
</linearGradient>
<linearGradient id="paint7_linear_216_20" x1="15" y1="94" x2="153.6" y2="94" gradientUnits="userSpaceOnUse">
<stop offset="0.177083" stop-color="#8F6AFA"/>
<stop offset="0.651042" stop-color="#375CDC"/>
<stop offset="1" stop-color="#0099EE"/>
</linearGradient>
<linearGradient id="paint8_linear_216_20" x1="114" y1="65" x2="148.65" y2="65" gradientUnits="userSpaceOnUse">
<stop offset="0.177083" stop-color="#8F6AFA"/>
<stop offset="0.651042" stop-color="#375CDC"/>
<stop offset="1" stop-color="#0099EE"/>
</linearGradient>
<linearGradient id="paint9_linear_216_20" x1="144" y1="43" x2="178.65" y2="43" gradientUnits="userSpaceOnUse">
<stop offset="0.177083" stop-color="#8F6AFA"/>
<stop offset="0.651042" stop-color="#375CDC"/>
<stop offset="1" stop-color="#0099EE"/>
</linearGradient>
</defs>
</svg>
