<?xml version="1.0" encoding="UTF-8"?>
<svg width="120px" height="96px" viewBox="0 0 120 96" version="1.1" xmlns="http://www.w3.org/2000/svg" xmlns:xlink="http://www.w3.org/1999/xlink">
    <title>Brand/Logotype_Vertical/On Dark</title>
    <defs>
        <linearGradient x1="0%" y1="0%" x2="105%" y2="0%" id="linearGradient-1">
            <stop stop-color="#8F6AFA" offset="0%"></stop>
            <stop stop-color="#375CDC" offset="56.7708%"></stop>
            <stop stop-color="#0099EE" offset="100%"></stop>
        </linearGradient>
        <linearGradient x1="0%" y1="0%" x2="105%" y2="0%" id="linearGradient-2">
            <stop stop-color="#8F6AFA" offset="0%"></stop>
            <stop stop-color="#375CDC" offset="56.7708%"></stop>
            <stop stop-color="#0099EE" offset="100%"></stop>
        </linearGradient>
    </defs>
    <g id="🧬-Symbols" stroke="none" stroke-width="1" fill="none" fill-rule="evenodd">
        <g id="Brand/Logotype_Vertical/On-Dark" transform="translate(-33.000000, -9.000000)">
            <g transform="translate(33.000000, 9.000000)">
                <path d="M13.4989,37.1762 C16.7713,37.1762 18.4076,35.2288 18.4076,31.3342 L18.4076,21.5622 C18.4076,17.6675 16.7713,15.7202 13.4989,15.7202 C10.2264,15.7202 8.5902,17.6675 8.5902,21.5622 L8.5902,31.3342 C8.5902,35.2288 10.2264,37.1762 13.4989,37.1762 Z M13.4989,41 C11.4714,41 9.62173,40.6814 7.94993,40.044 C6.3137,39.3713 4.8909,38.4154 3.68151,37.1762 C2.5077,35.937 1.60066,34.4145 0.960394,32.6088 C0.320131,30.8031 0,28.7496 0,26.4482 C0,24.1468 0.320131,22.0933 0.960394,20.2876 C1.60066,18.4819 2.5077,16.9594 3.68151,15.7202 C4.8909,14.481 6.3137,13.5427 7.94993,12.9054 C9.62173,12.2327 11.4714,11.8964 13.4989,11.8964 C15.5264,11.8964 17.3582,12.2327 18.9945,12.9054 C20.6663,13.5427 22.0891,14.481 23.2629,15.7202 C24.4723,16.9594 25.3971,18.4819 26.0374,20.2876 C26.6776,22.0933 26.9978,24.1468 26.9978,26.4482 C26.9978,28.7496 26.6776,30.8031 26.0374,32.6088 C25.3971,34.4145 24.4723,35.937 23.2629,37.1762 C22.0891,38.4154 20.6663,39.3713 18.9945,40.044 C17.3582,40.6814 15.5264,41 13.4989,41 Z" id="Shape" fill="#FFFFFF" fill-rule="nonzero"></path>
                <path d="M39.9522,41 C36.9288,41 34.7234,40.3096 33.3362,38.9288 C31.9845,37.5125 31.3087,35.5475 31.3087,33.0337 C31.3087,27.5458 35.3815,24.8018 43.527,24.8018 L47.2619,24.8018 L47.2619,21.7746 C47.2619,19.6149 46.8528,17.9862 46.0347,16.8886 C45.2166,15.791 43.7938,15.2422 41.7663,15.2422 C41.0193,15.2422 40.3791,15.2953 39.8455,15.4016 C39.312,15.5078 38.8496,15.6494 38.4583,15.8264 L38.4583,16.092 C38.814,16.269 39.1519,16.5877 39.472,17.0479 C39.8277,17.5082 40.0056,18.1278 40.0056,18.9067 C40.0056,19.9689 39.6677,20.8718 38.9918,21.6153 C38.316,22.3234 37.3023,22.6775 35.9506,22.6775 C34.8835,22.6775 33.9942,22.3057 33.2828,21.5622 C32.5714,20.8187 32.2157,19.8804 32.2157,18.7474 C32.2157,17.8977 32.4647,17.0656 32.9627,16.2513 C33.4607,15.4016 34.2077,14.658 35.2036,14.0207 C36.1996,13.3834 37.4268,12.87 38.8851,12.4806 C40.3791,12.0911 42.0865,11.8964 44.0072,11.8964 C47.8844,11.8964 50.7478,12.7284 52.5974,14.3925 C54.4471,16.0212 55.3719,18.3402 55.3719,21.3497 L55.3719,36.8575 L58.5732,36.8575 L58.5732,39.8847 C57.9685,40.2388 57.186,40.5043 56.2256,40.6813 C55.2652,40.8938 54.2692,41 53.2377,41 C51.2813,41 49.8941,40.5574 49.076,39.6723 C48.2934,38.7517 47.9022,37.6187 47.9022,36.2733 L47.9022,36.1671 L47.582,36.1671 C47.333,36.769 47.0129,37.3532 46.6216,37.9197 C46.2659,38.4862 45.7857,38.9996 45.1811,39.4598 C44.6119,39.9201 43.9005,40.2919 43.0468,40.5751 C42.1932,40.8584 41.1616,41 39.9522,41 Z M42.9935,36.2202 C44.3096,36.2202 45.3411,35.9193 46.0881,35.3174 C46.8706,34.7155 47.2619,33.671 47.2619,32.1839 L47.2619,27.9883 L44.3807,27.9883 C42.6734,27.9883 41.3928,28.3424 40.5392,29.0505 C39.721,29.7586 39.312,30.7677 39.312,32.0777 L39.312,32.9275 C39.312,34.0604 39.6499,34.8925 40.3257,35.4236 C41.0016,35.9547 41.8908,36.2202 42.9935,36.2202 Z" id="Shape" fill="#FFFFFF" fill-rule="nonzero"></path>
                <polygon id="Path" fill="#FFFFFF" fill-rule="nonzero" points="61.4698 36.8575 64.6711 36.8575 64.6711 6.0013 61.4698 5.31088 61.4698 2.28368 72.7811 0 72.7811 26.342 73.1013 26.342 76.2492 22.6244 82.5985 16.0389 79.3972 16.0389 79.3972 12.5337 91.5088 12.5337 91.5088 16.0389 87.7206 16.0389 81.5848 22.0402 90.6018 36.8575 93.0028 36.8575 93.0028 40.3627 78.9704 40.3627 78.9704 36.8575 81.3713 36.8575 76.1959 26.9793 72.7811 30.5376 72.7811 36.8575 75.7157 36.8575 75.7157 40.3627 61.4698 40.3627"></polygon>
                <g id="Group-3" transform="translate(0.860200, 56.843300)">
                    <g id="Group-2" fill="#FFFFFF" fill-rule="nonzero">
                        <path d="M0,0.6373 L7.3098,0.6373 L10.0308,14.0738 L10.9378,21.7215 L11.6848,21.7215 L12.8048,14.0738 L16.0068,0.6373 L23.2628,0.6373 C24.9650951,7.06236205 26.0854284,11.5411954 26.6238,14.0738 C27.1621716,16.6064046 27.5358382,19.155638 27.7448,21.7215 L28.3848,21.7215 L29.2918,14.0738 L32.2268,0.6373 L39.0558,0.6373 L32.2268,28.5194 L24.0628,28.5194 L20.9148,14.9235 L19.9018,7.4352 L19.1548,7.4352 L18.1408,14.9235 L14.9928,28.5194 L6.8298,28.5194 L0,0.6373 Z" id="Path"></path>
                        <path d="M60.7788,28.5194 C57.8628,28.5194 56.2798,26.9084 56.0308,23.6865 L55.3368,23.6865 C55.0528,25.386 54.2878,26.7314 53.0428,27.7228 C51.7978,28.6787 50.2148,29.1567 48.2938,29.1567 C45.7688,29.1567 43.8658,28.4486 42.5848,27.0323 C41.3048,25.5807 40.6638,23.5803 40.6638,21.0311 C40.6638,17.9861 41.5888,15.7733 43.4388,14.3925 C45.3238,13.0116 47.9388,12.3212 51.2818,12.3212 L55.3368,12.3212 L55.3368,10.1437 C55.3368,8.6921 55.0348,7.6122 54.4298,6.9041 C53.8248,6.196 52.8118,5.8419 51.3888,5.8419 C50.1438,5.8419 49.0948,6.1606 48.2408,6.7979 C47.4228,7.3998 46.6938,8.2141 46.0528,9.2409 L41.6248,5.3108 C42.7628,3.6468 44.1498,2.3545 45.7868,1.4339 C47.4228,0.4779 49.5208,0 52.0818,0 C55.7458,0 58.4498,0.8497 60.1918,2.5492 C61.9348,4.2487 62.8068,6.7802 62.8068,10.1437 L62.8068,22.7305 L65.1008,22.7305 L65.1008,28.5194 L60.7788,28.5194 Z M51.2818,23.952 C52.3848,23.952 53.3268,23.6511 54.1098,23.0492 C54.9278,22.4119 55.3368,21.4382 55.3368,20.1282 L55.3368,16.6761 L51.9758,16.6761 C49.4148,16.6761 48.1338,17.7383 48.1338,19.8627 L48.1338,20.8717 C48.1338,21.9339 48.4008,22.7128 48.9338,23.2085 C49.5038,23.7042 50.2858,23.952 51.2818,23.952 Z" id="Shape"></path>
                        <polygon id="Path" points="74.2198 28.5194 66.1628 0.6373 73.7398 0.6373 77.6348 15.8264 78.7548 22.2526 79.6088 22.2526 80.7288 15.8264 84.6238 0.6373 91.8798 0.6373 83.8238 28.5194"></polygon>
                        <path d="M105.9888,29.1567 C102.1468,29.1567 99.0698,27.9529 96.7578,25.5453 C94.4818,23.1023 93.3438,19.4555 93.3438,14.6049 C93.3438,9.6481 94.3398,5.9836 96.3308,3.6114 C98.3588,1.2038 101.3288,0 105.2418,0 C109.1538,0 112.1068,1.2038 114.0988,3.6114 C116.1258,5.9836 117.1398,9.6481 117.1398,14.6049 L117.1398,16.4106 L101.1328,16.4106 L101.1328,18.1632 C101.1328,19.721 101.6138,20.9779 102.5738,21.9339 C103.5338,22.8545 104.8498,23.3147 106.5218,23.3147 C107.9098,23.3147 109.0828,23.0138 110.0438,22.4119 C111.0398,21.7746 111.9468,20.9071 112.7648,19.8095 L116.5528,24.2176 C115.4148,25.74 113.9558,26.9438 112.1778,27.829 C110.4348,28.7141 108.3718,29.1567 105.9888,29.1567 Z M105.2418,5.5764 C102.5028,5.5764 101.1328,7.1697 101.1328,10.3562 L101.1328,12.0557 L109.3498,12.0557 L109.3498,10.3562 C109.3498,7.1697 107.9808,5.5764 105.2418,5.5764 Z" id="Shape"></path>
                    </g>
                    <path d="M77.8977649,37.9081 C79.1740281,38.0738 80.6221158,38.1567 82.2420281,38.1567 C84.2552737,38.1567 86.0470105,38.0002 87.6172386,37.6871 C89.1595193,37.3891 90.3229579,37.0161 91.1085895,36.5681 C91.4605193,36.49 91.7958877,36.421 92.1146947,36.3611 C92.8516772,36.2322 93.7108,36.1677 94.6920632,36.1677 C95.8710281,36.1677 97.0489579,36.269 98.2268877,36.4716 C99.3561684,36.6742 100.55894,36.9044 101.835204,37.1622 C103.258449,37.4753 104.609239,37.7147 105.885502,37.8805 C107.112081,38.0646 108.536361,38.1567 110.156274,38.1567 C112.168484,38.1567 113.985063,37.991 115.604975,37.6595 C117.176239,37.328 118.354168,36.9228 119.1398,36.444 L115.826484,34.3169 C114.844186,34.5747 113.985063,34.7681 113.249116,34.897 C112.463484,35.0444 111.579519,35.118 110.598256,35.118 C109.419291,35.118 108.266204,35.0167 107.136923,34.8142 C105.958993,34.6116 104.731379,34.3814 103.455116,34.1236 C102.03187,33.8105 100.705923,33.5711 99.4783088,33.4053 C98.2020456,33.2396 96.7539579,33.1567 95.1340456,33.1567 C93.1218351,33.1567 91.3300982,33.3132 89.7588351,33.6263 C88.2165544,33.9243 87.0531158,34.2973 86.2674842,34.7453 C85.9155544,34.8234 85.580186,34.8924 85.2613789,34.9523 C84.5243965,35.0812 83.6652737,35.1457 82.6840105,35.1457 C81.5060807,35.1457 80.3271158,35.0444 79.149186,34.8418 C78.0199053,34.6392 76.8171333,34.409 75.5408702,34.1512 C74.1176246,33.8381 72.7678702,33.5987 71.4905719,33.4329 C70.263993,33.2488 68.8397123,33.1567 67.2198,33.1567 C65.2075895,33.1567 63.3910105,33.3224 61.7710982,33.6539 C60.4658526,33.9294 59.4318,34.2557 58.6679053,34.6329 C57.7114842,34.8828 56.8730632,35.0708 56.1526421,35.197 C55.3670105,35.3444 54.4830456,35.418 53.5017825,35.418 C52.3228175,35.418 51.1697298,35.3167 50.0404491,35.1142 C48.8625193,34.9116 47.6349053,34.6814 46.3586421,34.4236 C44.9343614,34.1105 43.6094491,33.8711 42.3818351,33.7053 C41.1055719,33.5396 39.6574842,33.4567 38.0375719,33.4567 C36.0243263,33.4567 34.2325895,33.6132 32.6623614,33.9263 C31.1200807,34.2243 29.9566421,34.5973 29.1710105,35.0453 C28.8190807,35.1234 28.4837123,35.1924 28.1649053,35.2523 C27.4279228,35.3812 26.5688,35.4457 25.5875368,35.4457 C24.4085719,35.4457 23.2306421,35.3444 22.0527123,35.1418 C20.9234316,34.9392 19.7206596,34.709 18.4443965,34.4512 C17.0211509,34.1381 15.6703614,33.8987 14.3940982,33.7329 C13.1675193,33.5488 11.7432386,33.4567 10.1233263,33.4567 C8.11111579,33.4567 6.29453684,33.6224 4.67462456,33.9539 C3.1033614,34.2854 1.92522456,34.6906 1.1398,35.1694 L4.45311579,37.2965 C5.43541404,37.0387 6.29453684,36.8453 7.03048421,36.7164 C7.81611579,36.569 8.7000807,36.4954 9.68134386,36.4954 C10.8603088,36.4954 12.0133965,36.5967 13.1426772,36.7992 C14.320607,37.0018 15.5482211,37.232 16.8244842,37.4899 C18.2477298,37.8029 19.5736772,38.0423 20.8012912,38.2081 C22.0775544,38.3738 23.5256421,38.4567 25.1455544,38.4567 C27.1577649,38.4567 28.9495018,38.3002 30.5207649,37.9871 C32.0630456,37.6891 33.2264842,37.3161 34.0121158,36.8681 C34.3640456,36.79 34.699414,36.721 35.0182211,36.6611 C35.7552035,36.5322 36.6143263,36.4678 37.5955895,36.4678 C38.7735193,36.4678 39.9524842,36.569 41.130414,36.7716 C42.2596947,36.9742 43.4624667,37.2044 44.7387298,37.4622 C46.1619754,37.7753 47.5117298,38.0147 48.7890281,38.1805 C50.015607,38.3646 51.4398877,38.4567 53.0598,38.4567 C55.0720105,38.4567 56.8885895,38.291 58.5085018,37.9595 C59.8137474,37.684 60.8478,37.3577 61.6116947,36.9805 C62.5681158,36.7306 63.4065368,36.5426 64.1269579,36.4164 C64.9125895,36.269 65.7965544,36.1954 66.7778175,36.1954 C67.9567825,36.1954 69.1098702,36.2967 70.2391509,36.4992 C71.4170807,36.7018 72.6446947,36.932 73.9209579,37.1898 C75.3452386,37.5029 76.6701509,37.7423 77.8977649,37.9081 Z" id="Path" fill="url(#linearGradient-1)"></path>
                </g>
                <polygon id="Shape" fill="url(#linearGradient-2)" points="0 46 0 49 94 49 94 46"></polygon>
            </g>
        </g>
    </g>
</svg>