<?xml version="1.0" encoding="UTF-8"?>
<svg width="148px" height="37px" viewBox="0 0 148 37" version="1.1" xmlns="http://www.w3.org/2000/svg" xmlns:xlink="http://www.w3.org/1999/xlink">
    <title>lightbglogo</title>
    <defs>
        <linearGradient x1="0%" y1="0%" x2="105%" y2="0%" id="linearGradient-1">
            <stop stop-color="#8F6AFA" offset="0%"></stop>
            <stop stop-color="#375CDC" offset="56.7708%"></stop>
            <stop stop-color="#0099EE" offset="100%"></stop>
        </linearGradient>
    </defs>
    <g id="🧬-Symbols" stroke="none" stroke-width="1" fill="none" fill-rule="evenodd">
        <g id="Brand/Logotype_Horizontal/On-Light" transform="translate(-24.000000, -11.000000)">
            <g id="lightbglogo" transform="translate(24.000000, 11.000000)">
                <path d="M9.5,25.3722838 C11.8029877,25.3722838 12.9545519,24.0340302 12.9545519,21.3576602 L12.9545519,14.6423398 C12.9545519,11.9659011 11.8029877,10.6277162 9.5,10.6277162 C7.19694197,10.6277162 6.04544815,11.9659011 6.04544815,14.6423398 L6.04544815,21.3576602 C6.04544815,24.0340302 7.19694197,25.3722838 9.5,25.3722838 Z M9.5,28 C8.07312448,28 6.77139878,27.781058 5.59485106,27.3430366 C4.44333612,26.880757 3.44202491,26.2238623 2.59090333,25.3722838 C1.76482158,24.5207053 1.12648216,23.474443 0.675887887,22.2335656 C0.225295728,20.9926882 0,19.5815226 0,18 C0,16.4184774 0.225295728,15.0073118 0.675887887,13.7664344 C1.12648216,12.525557 1.76482158,11.4792947 2.59090333,10.6277162 C3.44202491,9.77613766 4.44333612,9.1313377 5.59485106,8.69338501 C6.77139878,8.23110543 8.07312448,8 9.5,8 C10.9268755,8 12.216025,8.23110543 13.3675892,8.69338501 C14.5441369,9.1313377 15.5454481,9.77613766 16.3715229,10.6277162 C17.2226515,11.4792947 17.8734897,12.525557 18.3241079,13.7664344 C18.7746557,15.0073118 19,16.4184774 19,18 C19,19.5815226 18.7746557,20.9926882 18.3241079,22.2335656 C17.8734897,23.474443 17.2226515,24.5207053 16.3715229,25.3722838 C15.5454481,26.2238623 14.5441369,26.880757 13.3675892,27.3430366 C12.216025,27.781058 10.9268755,28 9.5,28 Z" id="Shape" fill="#121212" fill-rule="nonzero"></path>
                <path d="M28.0234554,28 C25.9165178,28 24.3796255,27.525557 23.4129179,26.5766709 C22.4709494,25.6033893 22,24.2530409 22,22.525557 C22,18.7542709 24.8382402,16.8685936 30.5146509,16.8685936 L33.1174164,16.8685936 L33.1174164,14.7883011 C33.1174164,13.3041548 32.8323241,12.1849118 32.2622091,11.4306409 C31.6920941,10.6763699 30.7005777,10.2992345 29.2876598,10.2992345 C28.7670927,10.2992345 28.3209522,10.3357248 27.9490986,10.4087742 C27.5773148,10.4817548 27.2550789,10.5790624 26.982391,10.7006968 L26.982391,10.8832172 C27.2302701,11.0048516 27.4657448,11.2238623 27.6888151,11.5401119 C27.9366942,11.8564301 28.0606686,12.2822194 28.0606686,12.8174796 C28.0606686,13.5474237 27.8251939,14.1678968 27.3541748,14.6788301 C26.8832254,15.1654366 26.1768013,15.4087742 25.2348328,15.4087742 C24.4911955,15.4087742 23.8714629,15.1532731 23.3757047,14.6423398 C22.8799465,14.1314064 22.6320673,13.4866065 22.6320673,12.7080086 C22.6320673,12.1240946 22.8055897,11.5522753 23.1526344,10.9926882 C23.4996791,10.4087742 24.0202461,9.8977721 24.7142658,9.4598194 C25.4083552,9.02186671 26.2635625,8.66905812 27.2798181,8.40146236 C28.3209522,8.13379788 29.5107998,8 30.8492912,8 C33.5512223,8 35.5466596,8.57175057 36.8356031,9.71532044 C38.1246163,10.8345634 38.769088,12.4281807 38.769088,14.4963097 L38.769088,25.1532731 L41,25.1532731 L41,27.2335656 C40.5785985,27.4769032 40.0332924,27.6593549 39.3640118,27.7809893 C38.6947312,27.9270193 38.0006419,28 37.2818133,28 C35.9184434,28 34.9517358,27.6958452 34.3816208,27.0876043 C33.8362449,26.4549678 33.5636267,25.6763699 33.5636267,24.7518108 L33.5636267,24.6788301 L33.3404867,24.6788301 C33.1669644,25.0924559 32.9438941,25.4939183 32.6712061,25.8832172 C32.423327,26.2725161 32.0886868,26.6253247 31.667355,26.9415742 C31.2706927,27.2578925 30.7749344,27.5133935 30.1800106,27.7080086 C29.5851565,27.9026925 28.8662583,28 28.0234554,28 Z M30.1428671,24.7153204 C31.0600268,24.7153204 31.7788553,24.5085419 32.2994223,24.0949161 C32.8447285,23.6812903 33.1174164,22.9635097 33.1174164,21.9415742 L33.1174164,19.058357 L31.1095747,19.058357 C29.9197968,19.058357 29.0273763,19.3016946 28.4325221,19.7883011 C27.8623375,20.2749076 27.5773148,20.9683613 27.5773148,21.8685936 L27.5773148,22.4525763 C27.5773148,23.2311054 27.8127895,23.8029247 28.2837389,24.1678968 C28.754758,24.5328688 29.374421,24.7153204 30.1428671,24.7153204 Z" id="Shape" fill="#121212" fill-rule="nonzero"></path>
                <polygon id="Path" fill="#121212" fill-rule="nonzero" points="43 25.5684085 45.2334887 25.5684085 45.2334887 4.16316054 43 3.68420943 43 1.58421117 50.8916881 0 50.8916881 18.2737032 51.1150858 18.2737032 53.3113183 15.6947677 57.7411093 11.1263419 55.5076206 11.1263419 55.5076206 8.69475035 63.9576634 8.69475035 63.9576634 11.1263419 61.3147052 11.1263419 57.0338693 15.2895024 63.324866 25.5684085 65 25.5684085 65 28 55.20985 28 55.20985 25.5684085 56.8849142 25.5684085 53.2741319 18.7158044 50.8916881 21.184232 50.8916881 25.5684085 52.9391051 25.5684085 52.9391051 28 43 28"></polygon>
                <polygon id="Path" fill="#121212" fill-rule="nonzero" points="65 9 70.0534005 9 71.9344784 18.1561791 72.5615043 23.3676337 73.0779193 23.3676337 73.8521961 18.1561791 76.0657982 9 81.0820057 9 83.4055275 18.1561791 84.1804956 23.3676337 84.6229395 23.3676337 85.2499654 18.1561791 87.2789855 9 92 9 87.2789855 28 81.6350606 28 79.4587897 18.7351993 78.758484 13.6323663 78.242069 13.6323663 77.541072 18.7351993 75.3648011 28 69.7215676 28"></polygon>
                <path d="M106.99333,27.5628449 C104.964767,27.5628449 103.863527,26.4577816 103.690306,24.2477235 L103.207513,24.2477235 C103.009944,25.4134933 102.477759,26.3363687 101.611654,27.0164182 C100.74555,27.6721165 99.6443099,28 98.3079347,28 C96.551377,28 95.2275238,27.5142797 94.3363752,26.5427706 C93.4459222,25.5470475 93,24.1748758 93,22.4262554 C93,20.3375416 93.6434914,18.8196744 94.9304743,17.8725164 C96.2418055,16.9252899 98.0609731,16.4517109 100.386586,16.4517109 L103.207513,16.4517109 L103.207513,14.9580577 C103.207513,13.9623346 102.997422,13.2215786 102.576544,12.7358583 C102.155666,12.250138 101.450956,12.0072436 100.461022,12.0072436 C99.5949175,12.0072436 98.8651635,12.2258555 98.2710644,12.6630106 C97.7020092,13.0758831 97.1948684,13.6344511 96.7489463,14.3387832 L93.6685354,11.6429363 C94.4602038,10.5015177 95.4250931,9.61506618 96.563899,8.98358182 C97.7020092,8.32781488 99.1615174,8 100.943119,8 C103.492041,8 105.373123,8.5828506 106.584974,9.74862039 C107.79752,10.9143902 108.404141,12.6508693 108.404141,14.9580577 L108.404141,23.5919566 L110,23.5919566 L110,27.5628449 L106.99333,27.5628449 Z M100.386586,24.4298429 C101.153906,24.4298429 101.809224,24.2234409 102.353931,23.8105684 C102.922986,23.3734133 103.207513,22.7055051 103.207513,21.8069123 L103.207513,19.4389489 L100.869378,19.4389489 C99.0877767,19.4389489 98.1966281,20.1675635 98.1966281,21.6247929 L98.1966281,22.3169152 C98.1966281,23.0455298 98.382371,23.5798153 98.7531612,23.91984 C99.149691,24.2598648 99.6937022,24.4298429 100.386586,24.4298429 Z" id="Shape" fill="#121212" fill-rule="nonzero"></path>
                <polygon id="Path" fill="#121212" fill-rule="nonzero" points="116.639305 28 111 9 116.30334 9 119.029552 19.3504722 119.81347 23.7295469 120.411207 23.7295469 121.195124 19.3504722 123.921336 9 129 9 123.361395 28"></polygon>
                <path d="M139.033661,28 C136.288914,28 134.090688,27.174255 132.438981,25.5227649 C130.812994,23.8469923 130,21.3454746 130,18.0182119 C130,14.6181015 130.711548,12.1044425 132.13393,10.4772351 C133.582745,8.82574503 135.70453,8 138.5,8 C141.294755,8 143.404396,8.82574503 144.827492,10.4772351 C146.275593,12.1044425 147,14.6181015 147,18.0182119 L147,19.2568295 L135.564507,19.2568295 L135.564507,20.4590231 C135.564507,21.527594 135.908136,22.3897629 136.593965,23.0455298 C137.279795,23.6770142 138.219953,23.9926878 139.414439,23.9926878 C140.406035,23.9926878 141.244033,23.7862858 141.930577,23.3734133 C142.642125,22.9362582 143.290091,22.3411977 143.874475,21.5883005 L146.580644,24.6120309 C145.76765,25.6563191 144.725332,26.4820642 143.455119,27.0892659 C142.209909,27.6963991 140.73609,28 139.033661,28 Z M138.5,11.8251242 C136.543243,11.8251242 135.564507,12.9180463 135.564507,15.1038218 L135.564507,16.2695916 L141.434779,16.2695916 L141.434779,15.1038218 C141.434779,12.9180463 140.456757,11.8251242 138.5,11.8251242 Z" id="Shape" fill="#121212" fill-rule="nonzero"></path>
                <path d="M120.372321,36.5859623 C121.227278,36.7110189 122.19734,36.7735849 123.282505,36.7735849 C124.63116,36.7735849 125.831429,36.6554717 126.883311,36.4191698 C127.916472,36.1942642 128.695849,35.9127547 129.222137,35.5746415 C129.457892,35.5156981 129.682552,35.4636226 129.896118,35.4184151 C130.389816,35.3211321 130.965335,35.2724528 131.622675,35.2724528 C132.412453,35.2724528 133.201538,35.3489057 133.990623,35.5018113 C134.747118,35.654717 135.552844,35.8284528 136.407802,36.0230189 C137.361222,36.2593208 138.266104,36.44 139.121061,36.5651321 C139.942736,36.7040755 140.896849,36.7735849 141.982014,36.7735849 C143.329976,36.7735849 144.546887,36.6485283 145.632052,36.3983396 C146.684627,36.1481509 147.473712,35.8423396 148,35.4809811 L145.780439,33.8756226 C145.122406,34.0701887 144.546887,34.2161509 144.053882,34.313434 C143.527594,34.4246792 142.935434,34.4802264 142.278094,34.4802264 C141.488316,34.4802264 140.715873,34.4037736 139.959377,34.2509434 C139.170292,34.0980377 138.347925,33.9243019 137.492967,33.7297358 C136.539547,33.493434 135.651307,33.3127547 134.828939,33.1876226 C133.973981,33.062566 133.00392,33 131.918755,33 C130.570792,33 129.370524,33.1181132 128.317948,33.3544151 C127.284788,33.5793208 126.50541,33.8608302 125.979123,34.1989434 C125.743368,34.2578868 125.518708,34.3099623 125.305142,34.3551698 C124.811443,34.4524528 124.235925,34.5011321 123.578585,34.5011321 C122.7895,34.5011321 121.999722,34.4246792 121.210637,34.2717736 C120.454142,34.1188679 119.648415,33.9451321 118.793458,33.750566 C117.840038,33.5142642 116.935849,33.3335849 116.080198,33.2084528 C115.258524,33.0695094 114.30441,33 113.219245,33 C111.871283,33 110.654373,33.1250566 109.569208,33.3752453 C108.694835,33.5831698 108.002132,33.829434 107.490406,34.1141132 C106.849708,34.302717 106.288057,34.4446038 105.805453,34.5398491 C105.279165,34.6510943 104.687005,34.7066415 104.029665,34.7066415 C103.239887,34.7066415 102.467443,34.6301887 101.710948,34.4773585 C100.921863,34.3244528 100.099495,34.150717 99.2445377,33.9561509 C98.2904245,33.7198491 97.4028774,33.5391698 96.5805094,33.4140377 C95.7255519,33.2889811 94.7554906,33.2264151 93.6703255,33.2264151 C92.3216698,33.2264151 91.1214009,33.3445283 90.0695189,33.5808302 C89.0363585,33.8057358 88.2569811,34.0872453 87.7306934,34.4253585 C87.4949387,34.4843019 87.2702783,34.5363774 87.0567123,34.5815849 C86.5630142,34.6788679 85.9874953,34.7275472 85.3301557,34.7275472 C84.5403774,34.7275472 83.7512925,34.6510943 82.9622075,34.4981887 C82.2057123,34.345283 81.3999858,34.1715472 80.5450283,33.9769811 C79.5916085,33.7406792 78.6867264,33.56 77.8317689,33.4348679 C77.0100943,33.2959245 76.0559811,33.2264151 74.970816,33.2264151 C73.6228538,33.2264151 72.4059434,33.3514717 71.3207783,33.6016604 C70.2682028,33.8518491 69.4789792,34.1576604 68.9528302,34.5190189 L71.1723915,36.1243774 C71.8304245,35.9298113 72.4059434,35.7838491 72.8989481,35.686566 C73.4252358,35.5753208 74.0173962,35.5197736 74.6747358,35.5197736 C75.4645142,35.5197736 76.2369575,35.5962264 76.9934528,35.7490566 C77.7825377,35.9019623 78.6049057,36.0756981 79.4598632,36.2703396 C80.413283,36.506566 81.3015236,36.6872453 82.1238915,36.8123774 C82.9788491,36.937434 83.9489104,37 85.0340755,37 C86.3820377,37 87.5823066,36.8818868 88.6348821,36.6455849 C89.6680425,36.4206792 90.4474198,36.1391698 90.9737075,35.8010566 C91.2094623,35.7421132 91.4341226,35.6900377 91.6476887,35.6448302 C92.1413868,35.5475472 92.7169057,35.4989434 93.3742453,35.4989434 C94.1633302,35.4989434 94.9531085,35.5753208 95.7421934,35.7282264 C96.4986887,35.8811321 97.3044151,36.0548679 98.1593726,36.249434 C99.1127925,36.4857358 100.016981,36.6664151 100.872632,36.7915472 C101.694307,36.9304906 102.64842,37 103.733585,37 C105.081547,37 106.298458,36.8749434 107.383623,36.6247547 C108.257995,36.4168302 108.950698,36.170566 109.462425,35.8858868 C110.103123,35.697283 110.664774,35.5553962 111.147377,35.4601509 C111.673665,35.3489057 112.265825,35.2933585 112.923165,35.2933585 C113.712943,35.2933585 114.485387,35.3698113 115.241882,35.5226415 C116.030967,35.6755472 116.853335,35.849283 117.708292,36.0438491 C118.662406,36.2801509 119.549953,36.4608302 120.372321,36.5859623 Z M1,33.754717 L1,36.0188679 L66.1792453,36.0188679 L66.1792453,33.754717 L1,33.754717 Z" id="Shape" fill="url(#linearGradient-1)"></path>
            </g>
        </g>
    </g>
</svg>