<svg width="1017" height="930" viewBox="0 0 1017 930" fill="none" xmlns="http://www.w3.org/2000/svg">
<rect x="348" y="672" width="669" height="258" fill="url(#paint0_linear_217_57)"/>
<path d="M409.2 883.4C398 883.4 389.133 881.067 382.6 876.4C376.2 871.733 371.6 865.2 368.8 856.8C366.133 848.267 364.8 838.467 364.8 827.4V773C364.8 761.533 366.267 751.6 369.2 743.2C372.133 734.8 377.133 728.333 384.2 723.8C391.4 719.133 401.133 716.8 413.4 716.8C425.4 716.8 434.8 718.8 441.6 722.8C448.533 726.8 453.467 732.333 456.4 739.4C459.333 746.467 460.8 754.733 460.8 764.2V774.6H425.8V761.4C425.8 757.933 425.533 754.733 425 751.8C424.6 748.867 423.533 746.533 421.8 744.8C420.2 742.933 417.533 742 413.8 742C409.933 742 407.133 743.067 405.4 745.2C403.667 747.2 402.533 749.733 402 752.8C401.6 755.867 401.4 759.067 401.4 762.4V837.4C401.4 841 401.733 844.4 402.4 847.6C403.2 850.667 404.533 853.2 406.4 855.2C408.4 857.067 411.2 858 414.8 858C418.533 858 421.4 857 423.4 855C425.4 853 426.8 850.4 427.6 847.2C428.4 844 428.8 840.6 428.8 837V818H414.2V797H461V881H437.4L435.4 867.6C433.267 872.133 430.133 875.933 426 879C421.867 881.933 416.267 883.4 409.2 883.4ZM484.006 881V719H519.806V784.6H544.806V719H580.806V881H544.806V810.2H519.806V881H484.006ZM651.877 883.4C639.743 883.4 630.143 881.267 623.077 877C616.01 872.733 610.943 866.6 607.877 858.6C604.81 850.6 603.277 841.067 603.277 830V769.8C603.277 758.6 604.81 749.067 607.877 741.2C610.943 733.333 616.01 727.333 623.077 723.2C630.143 718.933 639.743 716.8 651.877 716.8C664.143 716.8 673.81 718.933 680.877 723.2C688.077 727.333 693.21 733.333 696.277 741.2C699.343 749.067 700.877 758.6 700.877 769.8V830C700.877 841.067 699.343 850.6 696.277 858.6C693.21 866.6 688.077 872.733 680.877 877C673.81 881.267 664.143 883.4 651.877 883.4ZM651.877 858C655.61 858 658.343 857.067 660.077 855.2C661.81 853.333 662.943 850.933 663.477 848C664.01 845.067 664.277 842.067 664.277 839V761C664.277 757.8 664.01 754.8 663.477 752C662.943 749.067 661.81 746.667 660.077 744.8C658.343 742.933 655.61 742 651.877 742C648.41 742 645.81 742.933 644.077 744.8C642.343 746.667 641.21 749.067 640.677 752C640.143 754.8 639.877 757.8 639.877 761V839C639.877 842.067 640.077 845.067 640.477 848C641.01 850.933 642.077 853.333 643.677 855.2C645.41 857.067 648.143 858 651.877 858ZM765.664 883.4C755.531 883.4 747.064 881.6 740.264 878C733.464 874.4 728.331 868.867 724.864 861.4C721.397 853.8 719.464 844 719.064 832L749.664 827.4C749.797 834.333 750.397 839.933 751.464 844.2C752.664 848.467 754.264 851.533 756.264 853.4C758.397 855.267 760.931 856.2 763.864 856.2C767.597 856.2 769.997 854.933 771.064 852.4C772.264 849.867 772.864 847.2 772.864 844.4C772.864 837.733 771.264 832.133 768.064 827.6C764.864 822.933 760.531 818.267 755.064 813.6L741.064 801.4C734.931 796.2 729.731 790.333 725.464 783.8C721.331 777.133 719.264 768.933 719.264 759.2C719.264 745.467 723.331 735 731.464 727.8C739.597 720.467 750.664 716.8 764.664 716.8C773.331 716.8 780.264 718.267 785.464 721.2C790.797 724.133 794.797 728 797.464 732.8C800.264 737.467 802.131 742.467 803.064 747.8C804.131 753 804.731 758 804.864 762.8L774.064 766.6C773.931 761.8 773.597 757.667 773.064 754.2C772.664 750.6 771.731 747.867 770.264 746C768.797 744 766.531 743 763.464 743C760.131 743 757.664 744.4 756.064 747.2C754.597 750 753.864 752.8 753.864 755.6C753.864 761.6 755.264 766.533 758.064 770.4C760.997 774.133 764.797 778.067 769.464 782.2L782.864 794C789.931 800 795.864 806.8 800.664 814.4C805.597 822 808.064 831.4 808.064 842.6C808.064 850.2 806.331 857.133 802.864 863.4C799.397 869.533 794.464 874.4 788.064 878C781.797 881.6 774.331 883.4 765.664 883.4ZM839.998 881V745.6H815.598V719H900.198V745.6H875.998V881H839.998ZM957.461 883.4C947.328 883.4 938.861 881.6 932.061 878C925.261 874.4 920.128 868.867 916.661 861.4C913.194 853.8 911.261 844 910.861 832L941.461 827.4C941.594 834.333 942.194 839.933 943.261 844.2C944.461 848.467 946.061 851.533 948.061 853.4C950.194 855.267 952.728 856.2 955.661 856.2C959.394 856.2 961.794 854.933 962.861 852.4C964.061 849.867 964.661 847.2 964.661 844.4C964.661 837.733 963.061 832.133 959.861 827.6C956.661 822.933 952.328 818.267 946.861 813.6L932.861 801.4C926.728 796.2 921.528 790.333 917.261 783.8C913.128 777.133 911.061 768.933 911.061 759.2C911.061 745.467 915.128 735 923.261 727.8C931.394 720.467 942.461 716.8 956.461 716.8C965.128 716.8 972.061 718.267 977.261 721.2C982.594 724.133 986.594 728 989.261 732.8C992.061 737.467 993.928 742.467 994.861 747.8C995.928 753 996.528 758 996.661 762.8L965.861 766.6C965.728 761.8 965.394 757.667 964.861 754.2C964.461 750.6 963.528 747.867 962.061 746C960.594 744 958.328 743 955.261 743C951.928 743 949.461 744.4 947.861 747.2C946.394 750 945.661 752.8 945.661 755.6C945.661 761.6 947.061 766.533 949.861 770.4C952.794 774.133 956.594 778.067 961.261 782.2L974.661 794C981.728 800 987.661 806.8 992.461 814.4C997.394 822 999.861 831.4 999.861 842.6C999.861 850.2 998.128 857.133 994.661 863.4C991.194 869.533 986.261 874.4 979.861 878C973.594 881.6 966.128 883.4 957.461 883.4Z" fill="white"/>
<path d="M26.6 881V745.6H2.2V719H86.8V745.6H62.6V881H26.6ZM114.062 881L94.4625 719H124.863L134.463 813.4L146.663 719.2H170.463L183.263 812.8L193.063 719H223.063L203.663 881H172.463L158.663 783.2L145.663 881H114.062ZM286.525 883.4C274.392 883.4 264.792 881.267 257.725 877C250.658 872.733 245.592 866.6 242.525 858.6C239.458 850.6 237.925 841.067 237.925 830V769.8C237.925 758.6 239.458 749.067 242.525 741.2C245.592 733.333 250.658 727.333 257.725 723.2C264.792 718.933 274.392 716.8 286.525 716.8C298.792 716.8 308.458 718.933 315.525 723.2C322.725 727.333 327.858 733.333 330.925 741.2C333.992 749.067 335.525 758.6 335.525 769.8V830C335.525 841.067 333.992 850.6 330.925 858.6C327.858 866.6 322.725 872.733 315.525 877C308.458 881.267 298.792 883.4 286.525 883.4ZM286.525 858C290.258 858 292.992 857.067 294.725 855.2C296.458 853.333 297.592 850.933 298.125 848C298.658 845.067 298.925 842.067 298.925 839V761C298.925 757.8 298.658 754.8 298.125 752C297.592 749.067 296.458 746.667 294.725 744.8C292.992 742.933 290.258 742 286.525 742C283.058 742 280.458 742.933 278.725 744.8C276.992 746.667 275.858 749.067 275.325 752C274.792 754.8 274.525 757.8 274.525 761V839C274.525 842.067 274.725 845.067 275.125 848C275.658 850.933 276.725 853.333 278.325 855.2C280.058 857.067 282.792 858 286.525 858Z" fill="black"/>
<path d="M273.484 430.529H516V591H273.484V430.529Z" fill="url(#paint1_linear_217_57)"/>
<path d="M235.414 349.583H425.761V528.516H235.414V349.583Z" fill="url(#paint2_linear_217_57)"/>
<path d="M235.414 379.405H477.931V539.876H235.414V379.405Z" fill="url(#paint3_linear_217_57)"/>
<path d="M201.575 320.471H389.102V480.942H201.575V320.471Z" fill="url(#paint4_linear_217_57)"/>
<path d="M191 253.016H355.262V413.488H191V253.016Z" fill="url(#paint5_linear_217_57)"/>
<path d="M201.575 189.112H305.208V349.583H201.575V189.112Z" fill="url(#paint6_linear_217_57)"/>
<path d="M222.725 160H293.223V320.471H222.725V160Z" fill="url(#paint7_linear_217_57)"/>
<ellipse cx="475.5" cy="124.5" rx="40.5" ry="35.5" fill="url(#paint8_linear_217_57)"/>
<ellipse cx="549.5" cy="70.5" rx="40.5" ry="35.5" fill="url(#paint9_linear_217_57)"/>
<path fill-rule="evenodd" clip-rule="evenodd" d="M414.262 383.746C349.042 326.326 272.171 258.652 255.364 163.301C240.231 185.857 229.112 208.64 221.368 231.429C205.575 277.915 203.675 324.924 210.284 370.361C217.964 423.214 243.699 485.796 284.134 531.184C315.025 565.871 354.467 590.063 400.484 590.438C425.729 590.644 445.876 585.084 460.952 575.566C475.532 566.367 485.425 553.265 490.545 538.153C495.949 522.169 496.289 503.635 491.474 484.614C485.233 459.983 470.519 434.821 447.103 413.086C437.43 404.107 426.048 394.107 414.276 383.746M365.005 4.94326C348.057 12.2588 331.441 20.8987 315.301 30.8771C248.982 71.8388 196.179 141.794 171.479 214.482C152.744 269.607 150.425 324.846 158.14 377.918C167.097 439.559 197.292 512.764 244.812 566.105C284.879 611.096 337.27 642.483 400.086 642.993C436.21 643.283 465.959 634.757 489.056 620.175C514.223 604.297 531.37 581.451 540.341 554.915C549.007 529.265 549.78 500.42 542.476 471.555C533.916 437.746 514.138 403.618 482.907 374.639C471.781 364.299 460.633 354.491 449.095 344.343C385.322 301.221 238.281 140.349 343.036 75.6205C356.921 67.0372 371.21 59.6013 385.769 53.3125C416.127 40.1898 395.661 -8.27862 365.012 4.95034L365.005 4.94326ZM471.164 103.636C482.411 99.5502 494.849 105.336 498.941 116.568C503.04 127.8 497.239 140.221 485.992 144.308C474.745 148.401 462.307 142.608 458.215 131.376C454.123 120.144 459.917 107.723 471.164 103.629V103.636ZM575.99 638.064C592.938 630.748 609.561 622.101 625.701 612.13C692.013 571.175 744.816 501.221 769.515 428.525C788.251 373.393 790.577 318.161 782.861 265.082C773.905 203.449 743.71 130.25 696.183 76.8952C656.116 31.9182 603.732 0.531243 540.915 0.00718385C504.792 -0.283173 475.043 8.24342 451.946 22.825C426.779 38.7026 409.624 61.5559 400.661 88.0846C391.995 113.735 391.222 142.58 398.526 171.453C407.086 205.261 426.857 239.389 458.095 268.368C469.221 278.701 480.376 288.516 491.907 298.664C555.687 341.786 702.728 502.658 597.973 567.38C584.081 575.97 569.799 583.406 555.233 589.695C524.882 602.817 545.341 651.286 575.99 638.057V638.064ZM535.966 55.4088C547.213 51.3225 559.651 57.1084 563.743 68.3403C567.842 79.5722 562.041 91.9938 550.794 96.0801C539.547 100.173 527.108 94.3804 523.017 83.1485C518.925 71.9167 524.719 59.495 535.966 55.4017V55.4088ZM361.878 511.645C373.125 507.559 385.563 513.345 389.655 524.577C393.754 535.808 387.953 548.23 376.706 552.316C365.459 556.41 353.021 550.617 348.929 539.385C344.837 528.153 350.631 515.731 361.878 511.638V511.645ZM420.772 446.952C432.019 442.866 444.458 448.652 448.549 459.884C452.648 471.115 446.847 483.537 435.6 487.623C424.353 491.717 411.915 485.924 407.823 474.692C403.731 463.46 409.525 451.038 420.772 446.945V446.952Z" fill="black"/>
<defs>
<linearGradient id="paint0_linear_217_57" x1="348" y1="672" x2="1050.45" y2="672" gradientUnits="userSpaceOnUse">
<stop offset="0.177083" stop-color="#8F6AFA"/>
<stop offset="0.651042" stop-color="#375CDC"/>
<stop offset="1" stop-color="#0099EE"/>
</linearGradient>
<linearGradient id="paint1_linear_217_57" x1="191" y1="160" x2="532.25" y2="160" gradientUnits="userSpaceOnUse">
<stop offset="0.177083" stop-color="#8F6AFA"/>
<stop offset="0.651042" stop-color="#375CDC"/>
<stop offset="1" stop-color="#0099EE"/>
</linearGradient>
<linearGradient id="paint2_linear_217_57" x1="191" y1="160" x2="532.25" y2="160" gradientUnits="userSpaceOnUse">
<stop offset="0.177083" stop-color="#8F6AFA"/>
<stop offset="0.651042" stop-color="#375CDC"/>
<stop offset="1" stop-color="#0099EE"/>
</linearGradient>
<linearGradient id="paint3_linear_217_57" x1="191" y1="160" x2="532.25" y2="160" gradientUnits="userSpaceOnUse">
<stop offset="0.177083" stop-color="#8F6AFA"/>
<stop offset="0.651042" stop-color="#375CDC"/>
<stop offset="1" stop-color="#0099EE"/>
</linearGradient>
<linearGradient id="paint4_linear_217_57" x1="191" y1="160" x2="532.25" y2="160" gradientUnits="userSpaceOnUse">
<stop offset="0.177083" stop-color="#8F6AFA"/>
<stop offset="0.651042" stop-color="#375CDC"/>
<stop offset="1" stop-color="#0099EE"/>
</linearGradient>
<linearGradient id="paint5_linear_217_57" x1="191" y1="160" x2="532.25" y2="160" gradientUnits="userSpaceOnUse">
<stop offset="0.177083" stop-color="#8F6AFA"/>
<stop offset="0.651042" stop-color="#375CDC"/>
<stop offset="1" stop-color="#0099EE"/>
</linearGradient>
<linearGradient id="paint6_linear_217_57" x1="191" y1="160" x2="532.25" y2="160" gradientUnits="userSpaceOnUse">
<stop offset="0.177083" stop-color="#8F6AFA"/>
<stop offset="0.651042" stop-color="#375CDC"/>
<stop offset="1" stop-color="#0099EE"/>
</linearGradient>
<linearGradient id="paint7_linear_217_57" x1="191" y1="160" x2="532.25" y2="160" gradientUnits="userSpaceOnUse">
<stop offset="0.177083" stop-color="#8F6AFA"/>
<stop offset="0.651042" stop-color="#375CDC"/>
<stop offset="1" stop-color="#0099EE"/>
</linearGradient>
<linearGradient id="paint8_linear_217_57" x1="435" y1="89" x2="520.05" y2="89" gradientUnits="userSpaceOnUse">
<stop offset="0.177083" stop-color="#8F6AFA"/>
<stop offset="0.651042" stop-color="#375CDC"/>
<stop offset="1" stop-color="#0099EE"/>
</linearGradient>
<linearGradient id="paint9_linear_217_57" x1="509" y1="35" x2="594.05" y2="35" gradientUnits="userSpaceOnUse">
<stop offset="0.177083" stop-color="#8F6AFA"/>
<stop offset="0.651042" stop-color="#375CDC"/>
<stop offset="1" stop-color="#0099EE"/>
</linearGradient>
</defs>
</svg>
