<svg width="21" height="25" viewBox="0 0 21 25" fill="none" xmlns="http://www.w3.org/2000/svg">
<path d="M3.62451 4.8988L2.35461 6.1677C2.30109 6.22118 2.2719 6.30382 2.28649 6.37674C2.30109 6.45453 2.34974 6.5226 2.41786 6.55663L6.70437 8.68119C6.75789 8.7055 6.81141 8.72007 6.86493 8.72007C6.97684 8.72007 7.08388 8.66659 7.15686 8.56936C7.25904 8.42837 7.24444 8.2339 7.11794 8.1075L4.98685 5.9781L6.08159 4.88423C6.12538 4.84047 6.15457 4.77727 6.15457 4.71407C6.15457 4.65087 6.13024 4.58766 6.08159 4.54391L2.92387 1.38869C2.82656 1.29146 2.67573 1.29146 2.57842 1.38869C2.48111 1.48593 2.48111 1.63662 2.57842 1.73385L5.56584 4.71893L4.4711 5.81281C4.42731 5.85656 4.39812 5.91977 4.39812 5.98297C4.39812 6.04617 4.42245 6.10937 4.4711 6.15312L6.22269 7.90332L2.94334 6.27467L4.14512 5.07383C4.24243 4.97659 4.24243 4.82588 4.14512 4.72864L1.86319 2.44853C1.76588 2.35129 1.61505 2.35129 1.51774 2.44853C1.42043 2.54576 1.42043 2.69648 1.51774 2.79371L3.62451 4.8988ZM8.58732 4.9134H10.0762V7.8158C10.0762 7.99082 10.2027 8.13668 10.373 8.16585C10.3924 8.17071 10.4119 8.17072 10.4313 8.17072C10.5822 8.17072 10.7184 8.07348 10.7671 7.92763L12.2413 3.54727C12.2656 3.47434 12.2559 3.3917 12.2073 3.32849C12.1635 3.26529 12.0856 3.22639 12.0078 3.22639H10.2854V0.358012C10.2854 0.221886 10.1783 0.114929 10.0421 0.114929C9.90587 0.114929 9.79883 0.221886 9.79883 0.358012V3.47434C9.79883 3.61047 9.90587 3.71743 10.0421 3.71743H11.672L10.5627 7.00876V4.67032C10.5627 4.53419 10.4557 4.42723 10.3194 4.42723H8.83059V0.358012C8.83059 0.221886 8.72355 0.114929 8.58732 0.114929C8.45109 0.114929 8.34404 0.221886 8.34404 0.358012V4.67032C8.34404 4.80158 8.45595 4.9134 8.58732 4.9134ZM2.95307 13.572C3.0893 13.572 3.19634 13.465 3.19634 13.3289V13.0129H3.5126C3.64883 13.0129 3.75587 12.906 3.75587 12.7698C3.75587 12.6337 3.64883 12.5267 3.5126 12.5267H3.19634V12.2107C3.19634 12.0746 3.0893 11.9677 2.95307 11.9677C2.81683 11.9677 2.70979 12.0746 2.70979 12.2107V12.5267H2.39353C2.2573 12.5267 2.15026 12.6337 2.15026 12.7698C2.15026 12.906 2.2573 13.0129 2.39353 13.0129H2.70979V13.3289C2.70979 13.4602 2.81683 13.572 2.95307 13.572ZM17.6469 13.5526C17.7831 13.5526 17.8902 13.4456 17.8902 13.3095V12.9935H18.2064C18.3427 12.9935 18.4497 12.8865 18.4497 12.7504C18.4497 12.6143 18.3427 12.5073 18.2064 12.5073H17.8902V12.1913C17.8902 12.0552 17.7831 11.9482 17.6469 11.9482C17.5107 11.9482 17.4036 12.0552 17.4036 12.1913V12.5073H17.0874C16.9511 12.5073 16.8441 12.6143 16.8441 12.7504C16.8441 12.8865 16.9511 12.9935 17.0874 12.9935H17.4036V13.3095C17.4036 13.4407 17.5155 13.5526 17.6469 13.5526ZM13.7302 8.72007C13.7837 8.72007 13.8372 8.7055 13.8907 8.68119L18.1772 6.55663C18.2453 6.5226 18.2989 6.45453 18.3086 6.37674C18.3232 6.29896 18.294 6.22118 18.2405 6.1677L16.9706 4.8988L19.0773 2.79371C19.1747 2.69648 19.1747 2.54576 19.0773 2.44853C18.98 2.35129 18.8292 2.35129 18.7319 2.44853L16.45 4.72864C16.3527 4.82588 16.3527 4.97659 16.45 5.07383L17.6518 6.27467L14.3724 7.90332L16.124 6.15312C16.1678 6.10937 16.197 6.04617 16.197 5.98297C16.197 5.91977 16.1726 5.85656 16.124 5.81281L15.0292 4.71893L18.0167 1.73385C18.114 1.63662 18.114 1.48593 18.0167 1.38869C17.9194 1.29146 17.7685 1.29146 17.6712 1.38869L14.5135 4.54391C14.4697 4.58766 14.4405 4.65087 14.4405 4.71407C14.4405 4.77727 14.4648 4.84047 14.5135 4.88423L15.6082 5.9781L13.4772 8.1075C13.3506 8.2339 13.3361 8.42837 13.4382 8.56936C13.5112 8.66659 13.6182 8.72007 13.7302 8.72007ZM19.0919 23.9371H18.0021C18.3475 23.6162 18.5713 23.1641 18.5957 22.6536C18.5957 22.6439 18.5957 22.6342 18.5957 22.6244V17.0092C18.5957 15.5799 17.4328 14.4228 16.0072 14.4228H15.9294V14.2575C15.9294 13.82 15.8418 13.3921 15.6715 12.9886L14.9319 11.2579C14.7908 10.9273 14.4697 10.7085 14.1145 10.6988C13.1706 9.56115 11.7888 8.90967 10.3097 8.90967C8.83059 8.90967 7.44879 9.56115 6.50488 10.6988C6.14484 10.7085 5.82858 10.9273 5.68748 11.2579L4.94792 12.9886C4.77763 13.3921 4.69005 13.82 4.69005 14.2575V14.4228H4.6122C3.18174 14.4228 2.02376 15.5847 2.02376 17.0092V18.351C2.02376 18.3559 2.02376 18.3559 2.02376 18.3607V22.6196C2.02376 22.6293 2.02376 22.639 2.02376 22.6487C2.04322 23.1592 2.26703 23.6113 2.61735 23.9322H1.50801C1.37178 23.9322 1.26474 24.0392 1.26474 24.1753C1.26474 24.3114 1.37178 24.4184 1.50801 24.4184H5.89183C6.02806 24.4184 6.13511 24.3114 6.13511 24.1753C6.13511 24.0392 6.02806 23.9322 5.89183 23.9322H5.10362C5.3323 23.7232 5.50746 23.4558 5.60963 23.1446L7.35635 17.8163C8.20295 18.4434 9.23443 18.7886 10.3 18.7886C11.3607 18.7886 12.3921 18.4434 13.2436 17.8163L14.9903 23.1446C15.0925 23.4509 15.2677 23.7232 15.4963 23.9322H14.7081C14.5719 23.9322 14.4648 24.0392 14.4648 24.1753C14.4648 24.3114 14.5719 24.4184 14.7081 24.4184H19.0919C19.2282 24.4184 19.3352 24.3114 19.3352 24.1753C19.3352 24.0392 19.2233 23.9371 19.0919 23.9371ZM15.9245 14.9041H16.0023C17.1603 14.9041 18.1042 15.8473 18.1042 17.0043V18.1128H16.8198L16.0656 16.3723C15.9732 16.1536 15.9245 15.925 15.9245 15.6868V14.9041V14.9041ZM4.59761 14.9041H4.67545V15.6917C4.67545 15.9299 4.6268 16.1584 4.53436 16.3772L3.7802 18.1177H2.49084V17.0092C2.49084 15.8473 3.43475 14.9041 4.59761 14.9041ZM7.42446 15.3951C7.42446 15.8375 7.35635 16.2702 7.21525 16.6932L7.00117 17.3398L5.14741 22.9988C4.96252 23.5579 4.44191 23.9371 3.85318 23.9371C3.10876 23.9371 2.51031 23.3537 2.49084 22.6147C2.49084 22.6098 2.49084 22.605 2.49084 22.6001V18.6087H3.56612L2.95307 20.0186C2.89955 20.1401 2.95793 20.286 3.07957 20.3395C3.10876 20.354 3.14282 20.3589 3.17688 20.3589C3.26932 20.3589 3.36177 20.3054 3.40069 20.213L4.15971 18.4677L4.97712 16.5814C5.09875 16.3043 5.16201 16.0077 5.16201 15.7014V14.2624C5.16201 13.888 5.23499 13.5282 5.38095 13.1831L6.12051 11.4523C6.18863 11.2919 6.34432 11.1898 6.51948 11.1898H7.60449C7.79424 11.1898 7.9694 11.2822 8.07158 11.4426C8.17862 11.603 8.19321 11.7975 8.12023 11.9725L7.68234 12.9983C7.51204 13.4019 7.42446 13.8297 7.42446 14.2672V15.3951V15.3951ZM10.3 18.3073C9.28795 18.3073 8.30512 17.9621 7.51691 17.335L7.67747 16.8439C7.83317 16.3772 7.90615 15.891 7.90615 15.3951V14.2526C7.90615 13.8783 7.97913 13.5185 8.1251 13.1734L8.56299 12.1475C8.69923 11.8218 8.67003 11.4523 8.47541 11.1606C8.28079 10.8689 7.9548 10.689 7.59962 10.689H7.14713C7.97913 9.8577 9.10306 9.39097 10.2951 9.39097C11.492 9.39097 12.6111 9.8577 13.4431 10.689H12.9906C12.6354 10.689 12.3094 10.8641 12.1148 11.1606C11.9202 11.4572 11.8861 11.8218 12.0272 12.1475L12.4651 13.1734C12.6111 13.5185 12.6841 13.8783 12.6841 14.2526V15.3951C12.6841 15.8862 12.7619 16.3723 12.9128 16.8439L13.0733 17.335C12.2948 17.9621 11.312 18.3073 10.3 18.3073ZM16.7468 23.9371C16.158 23.9371 15.6374 23.5627 15.4525 22.9988L13.5988 17.335L13.3847 16.6883C13.2485 16.2702 13.1755 15.8327 13.1755 15.3903V14.2478C13.1755 13.8102 13.0879 13.3824 12.9176 12.9789L12.4797 11.9531C12.4067 11.7781 12.4213 11.5836 12.5284 11.4232C12.6354 11.2627 12.8057 11.1703 12.9955 11.1703H14.0805C14.2556 11.1703 14.4113 11.2724 14.4794 11.4329L15.219 13.1636C15.365 13.5088 15.4379 13.8686 15.4379 14.2429V15.682C15.4379 15.9883 15.5012 16.2848 15.6228 16.5619L16.4402 18.4483C16.4402 18.4483 16.4402 18.4483 16.4402 18.4531L17.1993 20.1985C17.2382 20.2908 17.3306 20.3443 17.4231 20.3443C17.4571 20.3443 17.4863 20.3395 17.5204 20.3249C17.642 20.2714 17.7004 20.1304 17.6469 20.004L17.0338 18.5941H18.1091V22.5855C18.1091 22.5904 18.1091 22.5953 18.1091 22.6001C18.0848 23.3537 17.4863 23.9371 16.7468 23.9371ZM20.1137 23.9371H19.9288C19.7926 23.9371 19.6855 24.044 19.6855 24.1802C19.6855 24.3163 19.7926 24.4232 19.9288 24.4232H20.1137C20.2499 24.4232 20.357 24.3163 20.357 24.1802C20.357 24.044 20.2451 23.9371 20.1137 23.9371ZM11.6429 16.4404C11.4385 16.4404 11.2439 16.5328 11.1174 16.6932C11.0833 16.737 11.0298 16.7661 10.9714 16.7661C10.913 16.7661 10.8595 16.7418 10.8255 16.6932C10.6989 16.5328 10.5043 16.4404 10.3 16.4404C10.0956 16.4404 9.90101 16.5328 9.7745 16.6932C9.74044 16.737 9.68692 16.7661 9.62854 16.7661C9.57015 16.7661 9.51663 16.7418 9.48257 16.6932C9.35607 16.5328 9.16145 16.4404 8.9571 16.4404C8.75275 16.4404 8.55813 16.5328 8.43162 16.6932C8.34891 16.8002 8.36837 16.9509 8.47055 17.0335C8.57759 17.1162 8.72842 17.0967 8.81113 16.9946C8.84519 16.9509 8.89871 16.9217 8.9571 16.9217C9.01548 16.9217 9.069 16.946 9.10306 16.9946C9.22957 17.1551 9.42419 17.2474 9.62854 17.2474C9.83289 17.2474 10.0275 17.1551 10.154 16.9946C10.1881 16.9509 10.2416 16.9217 10.3 16.9217C10.3584 16.9217 10.4119 16.946 10.4459 16.9946C10.5724 17.1551 10.7671 17.2474 10.9714 17.2474C11.1758 17.2474 11.3704 17.1551 11.4969 16.9946C11.5309 16.9509 11.5845 16.9217 11.6429 16.9217C11.7012 16.9217 11.7548 16.946 11.7888 16.9946C11.8715 17.1016 12.0272 17.1162 12.1294 17.0335C12.2364 16.9509 12.251 16.7953 12.1683 16.6932C12.0418 16.5328 11.8521 16.4404 11.6429 16.4404ZM0.671145 23.9371H0.486256C0.350022 23.9371 0.242981 24.044 0.242981 24.1802C0.242981 24.3163 0.350022 24.4232 0.486256 24.4232H0.671145C0.80738 24.4232 0.914421 24.3163 0.914421 24.1802C0.914421 24.044 0.80738 23.9371 0.671145 23.9371Z" fill="url(#paint0_linear)"/>
<defs>
<linearGradient id="paint0_linear" x1="18.531" y1="-1.00453" x2="-5.92861" y2="8.44003" gradientUnits="userSpaceOnUse">
<stop offset="0.00520833" stop-color="#E6E7ED"/>
<stop offset="0.25" stop-color="#8E8E8E"/>
<stop offset="0.507086" stop-color="#EBECF0"/>
<stop offset="0.765625" stop-color="#8E8E8E"/>
<stop offset="1" stop-color="#EBECF0"/>
</linearGradient>
</defs>
</svg>
