<svg width="6542" height="3320" viewBox="0 0 6542 3320" fill="none" xmlns="http://www.w3.org/2000/svg">
<path d="M1544.69 1481.18C1069.85 1568 482.026 1492.9 476.642 1491.41L482.362 1481.73C488.562 1481.83 1066.32 1556.31 1529.47 1471.62C1922.44 1399.77 2158.67 1254.18 2387.78 1113.6C2775.74 873.657 3140.78 647.77 4221.87 770.851L4217.67 781.488C3155.89 661.045 2794.82 883.738 2413.17 1120.06C2181.73 1261.07 1944.67 1408.04 1544.69 1481.18Z" fill="url(#paint0_linear)"/>
<path d="M1596.04 1513.13C1121.05 1599.86 532.923 1524.73 527.537 1523.24L533.252 1513.57C539.455 1513.67 1117.52 1588.17 1580.8 1503.57C1973.89 1431.8 2210.12 1286.3 2439.22 1145.8C2827.17 906.004 3192.21 680.255 4273.85 803.399L4269.66 814.031C3205.81 692.571 2846.27 916.083 2462.29 1152.69C2233.19 1293.19 1996.14 1440.07 1596.04 1513.13Z" fill="url(#paint1_linear)"/>
<g opacity="0.8">
<path opacity="0.95" d="M1646.68 1545.01C1171.7 1631.74 585.911 1556.18 578.185 1555.12L583.9 1545.45C590.103 1545.55 1168.17 1620.05 1631.45 1535.46C2024.54 1463.68 2260.77 1318.18 2489.87 1177.69C2875.48 938.314 3242.86 712.137 4324.5 835.282L4320.31 845.913C3257.98 725.408 2896.92 947.966 2515.28 1184.15C2285.36 1326.02 2046.79 1471.95 1646.68 1545.01Z" fill="url(#paint2_linear)"/>
</g>
<g opacity="0.6">
<path opacity="0.9" d="M1697.33 1576.89C1222.35 1663.62 634.22 1588.49 628.834 1587.01L634.549 1577.33C640.752 1577.43 1218.82 1651.94 1682.1 1567.34C2075.19 1495.56 2311.42 1350.06 2540.52 1209.57C2928.47 969.769 3293.51 744.02 4375.15 867.164L4370.96 877.796C3308.63 757.291 2947.56 979.848 2565.93 1216.03C2336.01 1357.91 2097.44 1503.83 1697.33 1576.89Z" fill="url(#paint3_linear)"/>
</g>
<g opacity="0.5">
<path opacity="0.88" d="M1749.39 1609.66C1274.41 1696.39 686.275 1621.26 680.888 1619.78L686.603 1610.1C692.806 1610.2 1270.87 1684.7 1734.15 1600.11C2127.24 1528.33 2363.47 1382.83 2592.57 1242.34C2980.52 1002.54 3345.56 776.788 4427.21 899.932L4423.01 910.564C3360.69 790.059 2999.62 1012.62 2617.98 1248.8C2386.54 1389.72 2149.5 1536.6 1749.39 1609.66Z" fill="url(#paint4_linear)"/>
</g>
<g opacity="0.4">
<path opacity="0.85" d="M1800.04 1641.54C1325.05 1728.27 736.923 1653.14 731.537 1651.66L737.252 1641.98C743.455 1642.08 1321.52 1716.59 1784.8 1631.99C2177.89 1560.21 2414.12 1414.71 2643.22 1274.22C3028.83 1034.85 3396.21 808.671 4477.85 931.815L4473.66 942.446C3411.33 821.942 3050.27 1044.5 2668.63 1280.68C2437.19 1421.6 2200.14 1568.48 1800.04 1641.54Z" fill="url(#paint5_linear)"/>
</g>
<g opacity="0.3">
<path opacity="0.85" d="M1850.68 1673.42C1375.7 1760.16 787.571 1685.02 782.185 1683.54L787.9 1673.86C794.103 1673.96 1372.17 1748.47 1835.45 1663.87C2228.54 1592.09 2464.77 1446.6 2693.87 1306.1C3081.82 1066.3 3446.86 840.553 4528.5 963.697L4524.31 974.329C3461.98 853.824 3100.92 1076.38 2719.28 1312.56C2489.36 1454.44 2250.79 1600.36 1850.68 1673.42Z" fill="url(#paint6_linear)"/>
</g>
<path d="M1883.19 1711.11C1408.35 1797.93 820.533 1722.83 815.15 1721.35L820.869 1711.67C827.07 1711.77 1404.83 1786.24 1867.97 1701.56C2260.94 1629.7 2497.18 1484.12 2726.28 1343.54C3114.24 1103.59 3479.29 877.703 4560.37 1000.78L4556.18 1011.42C3494.4 890.979 3133.32 1113.67 2751.68 1350C2520.23 1491.01 2283.18 1637.98 1883.19 1711.11Z" fill="url(#paint7_linear)"/>
<path d="M1934.54 1743.06C1459.56 1829.79 871.43 1754.66 866.044 1753.18L871.759 1743.5C877.962 1743.6 1456.03 1818.1 1919.31 1733.51C2312.4 1661.73 2548.63 1516.23 2777.73 1375.74C3165.68 1135.94 3530.72 910.189 4612.36 1033.33L4608.17 1043.96C3544.32 922.504 3184.77 1146.02 2800.8 1382.62C2571.7 1523.12 2334.65 1670 1934.54 1743.06Z" fill="url(#paint8_linear)"/>
<g opacity="0.8">
<path opacity="0.95" d="M1985.19 1774.94C1510.21 1861.67 924.418 1786.11 916.692 1785.06L922.407 1775.38C928.61 1775.48 1506.67 1849.99 1969.96 1765.39C2363.05 1693.61 2599.28 1548.12 2828.38 1407.62C3213.99 1168.25 3581.36 942.071 4663.01 1065.22L4658.82 1075.85C3596.49 955.342 3235.42 1177.9 2853.79 1414.08C2623.87 1555.96 2385.3 1701.88 1985.19 1774.94Z" fill="url(#paint9_linear)"/>
</g>
<g opacity="0.6">
<path opacity="0.9" d="M2035.84 1806.82C1560.86 1893.56 972.727 1818.42 967.34 1816.94L973.055 1807.26C979.259 1807.37 1557.32 1881.87 2020.61 1797.27C2413.69 1725.5 2649.92 1580 2879.03 1439.5C3266.97 1199.7 3632.01 973.954 4713.66 1097.1L4709.47 1107.73C3647.14 987.225 3286.07 1209.78 2904.44 1445.96C2674.52 1587.84 2435.95 1733.76 2035.84 1806.82Z" fill="url(#paint10_linear)"/>
</g>
<g opacity="0.5">
<path opacity="0.88" d="M2087.9 1839.59C1612.91 1926.32 1024.78 1851.19 1019.4 1849.71L1025.11 1840.03C1031.31 1840.13 1609.38 1914.64 2072.66 1830.04C2465.75 1758.26 2701.98 1612.77 2931.08 1472.27C3319.03 1232.47 3684.07 1006.72 4765.71 1129.87L4761.52 1140.5C3699.19 1019.99 3338.13 1242.55 2956.49 1478.73C2725.05 1619.65 2488 1766.53 2087.9 1839.59Z" fill="url(#paint11_linear)"/>
</g>
<g opacity="0.4">
<path opacity="0.85" d="M2138.54 1871.48C1663.56 1958.21 1075.43 1883.07 1070.04 1881.59L1075.76 1871.92C1081.96 1872.02 1660.03 1946.52 2123.31 1861.92C2516.4 1790.15 2752.63 1644.65 2981.73 1504.15C3367.34 1264.78 3734.72 1038.6 4816.36 1161.75L4812.17 1172.38C3749.84 1051.88 3388.78 1274.43 3007.14 1510.61C2775.7 1651.54 2538.65 1798.42 2138.54 1871.48Z" fill="url(#paint12_linear)"/>
</g>
<g opacity="0.3">
<path opacity="0.85" d="M2189.19 1903.36C1714.21 1990.09 1126.08 1914.96 1120.69 1913.47L1126.41 1903.8C1132.61 1903.9 1710.68 1978.4 2173.96 1893.81C2567.05 1822.03 2803.28 1676.53 3032.38 1536.03C3420.33 1296.24 3785.36 1070.49 4867.01 1193.63L4862.82 1204.26C3800.49 1083.76 3439.42 1306.31 3057.79 1542.49C2827.87 1684.37 2589.3 1830.3 2189.19 1903.36Z" fill="url(#paint13_linear)"/>
</g>
<path d="M2269.53 1933.55C1794.69 2020.37 1206.87 1945.27 1201.49 1943.79L1207.21 1934.11C1213.41 1934.21 1791.17 2008.68 2254.31 1924C2647.28 1852.14 2883.52 1706.56 3112.63 1565.98C3500.58 1326.03 3865.63 1100.14 4946.71 1223.22L4942.52 1233.86C3880.74 1113.42 3519.66 1336.11 3138.02 1572.44C2906.57 1713.45 2669.52 1860.42 2269.53 1933.55Z" fill="url(#paint14_linear)"/>
<path d="M2320.88 1965.5C1845.9 2052.23 1257.77 1977.1 1252.38 1975.62L1258.1 1965.94C1264.3 1966.04 1842.37 2040.54 2305.65 1955.95C2698.74 1884.17 2934.97 1738.67 3164.07 1598.18C3552.02 1358.38 3917.06 1132.63 4998.7 1255.77L4994.51 1266.4C3930.66 1144.94 3571.12 1368.46 3187.14 1605.06C2958.04 1745.56 2720.99 1892.44 2320.88 1965.5Z" fill="url(#paint15_linear)"/>
<g opacity="0.8">
<path opacity="0.95" d="M2371.53 1997.38C1896.55 2084.11 1310.76 2008.55 1303.03 2007.5L1308.75 1997.82C1314.95 1997.92 1893.02 2072.43 2356.3 1987.83C2749.39 1916.05 2985.62 1770.55 3214.72 1630.06C3600.33 1390.69 3967.7 1164.51 5049.35 1287.65L5045.16 1298.29C3982.83 1177.78 3621.76 1400.34 3240.13 1636.52C3010.21 1778.4 2771.64 1924.32 2371.53 1997.38Z" fill="url(#paint16_linear)"/>
</g>
<g opacity="0.6">
<path opacity="0.9" d="M2422.18 2029.26C1947.2 2116 1359.07 2040.86 1353.68 2039.38L1359.4 2029.7C1365.6 2029.8 1943.66 2104.31 2406.95 2019.71C2800.04 1947.94 3036.27 1802.44 3265.37 1661.94C3653.32 1422.14 4018.35 1196.39 5100 1319.54L5095.81 1330.17C4033.48 1209.66 3672.41 1432.22 3290.78 1668.4C3060.86 1810.28 2822.29 1956.2 2422.18 2029.26Z" fill="url(#paint17_linear)"/>
</g>
<g opacity="0.5">
<path opacity="0.88" d="M2474.24 2062.03C1999.25 2148.76 1411.12 2073.63 1405.74 2072.15L1411.45 2062.47C1417.65 2062.57 1995.72 2137.08 2459 2052.48C2852.09 1980.7 3088.32 1835.21 3317.42 1694.71C3705.37 1454.91 4070.41 1229.16 5152.05 1352.31L5147.86 1362.94C4085.53 1242.43 3724.47 1464.99 3342.83 1701.17C3111.39 1842.09 2874.34 1988.97 2474.24 2062.03Z" fill="url(#paint18_linear)"/>
</g>
<g opacity="0.4">
<path opacity="0.85" d="M2524.88 2093.91C2049.9 2180.65 1461.77 2105.51 1456.38 2104.03L1462.1 2094.36C1468.3 2094.46 2046.37 2168.96 2509.65 2084.36C2902.74 2012.59 3138.97 1867.09 3368.07 1726.59C3753.68 1487.22 4121.06 1261.04 5202.7 1384.19L5198.51 1394.82C4136.18 1274.31 3775.12 1496.87 3393.48 1733.05C3162.04 1873.97 2924.99 2020.86 2524.88 2093.91Z" fill="url(#paint19_linear)"/>
</g>
<g opacity="0.3">
<path opacity="0.85" d="M2575.53 2125.8C2100.55 2212.53 1512.42 2137.4 1507.03 2135.91L1512.75 2126.24C1518.95 2126.34 2097.02 2200.84 2560.3 2116.25C2953.39 2044.47 3189.62 1898.97 3418.72 1758.47C3806.67 1518.68 4171.71 1292.93 5253.35 1416.07L5249.16 1426.7C4186.83 1306.2 3825.76 1528.75 3444.13 1764.93C3214.21 1906.81 2975.64 2052.74 2575.53 2125.8Z" fill="url(#paint20_linear)"/>
</g>
<path d="M2631.35 2166.17C2156.51 2252.99 1568.69 2177.89 1563.31 2176.4L1569.03 2166.72C1575.23 2166.82 2152.99 2241.3 2616.13 2156.62C3009.1 2084.76 3245.34 1939.18 3474.45 1798.6C3862.4 1558.65 4227.45 1332.76 5308.54 1455.84L5304.34 1466.48C4242.56 1346.04 3881.49 1568.73 3499.84 1805.05C3268.39 1946.06 3031.34 2093.03 2631.35 2166.17Z" fill="url(#paint21_linear)"/>
<path d="M2682.7 2198.12C2207.72 2284.85 1619.59 2209.72 1614.2 2208.23L1619.92 2198.56C1626.12 2198.66 2204.19 2273.16 2667.47 2188.57C3060.56 2116.79 3296.79 1971.29 3525.89 1830.79C3913.84 1591 4278.88 1365.25 5360.52 1488.39L5356.33 1499.02C4292.48 1377.56 3932.93 1601.07 3548.96 1837.68C3319.86 1978.18 3082.81 2125.06 2682.7 2198.12Z" fill="url(#paint22_linear)"/>
<g opacity="0.8">
<path opacity="0.95" d="M2733.35 2230C2258.37 2316.73 1672.58 2241.17 1664.85 2240.12L1670.57 2230.44C1676.77 2230.54 2254.83 2305.04 2718.12 2220.45C3111.21 2148.67 3347.44 2003.17 3576.54 1862.68C3962.15 1623.31 4329.52 1397.13 5411.17 1520.27L5406.98 1530.9C4344.65 1410.4 3983.58 1632.96 3601.95 1869.14C3372.03 2011.02 3133.46 2156.94 2733.35 2230Z" fill="url(#paint23_linear)"/>
</g>
<g opacity="0.6">
<path opacity="0.9" d="M2784 2261.88C2309.02 2348.61 1720.89 2273.48 1715.5 2272L1721.22 2262.32C1727.42 2262.42 2305.48 2336.93 2768.77 2252.33C3161.85 2180.55 3398.08 2035.06 3627.19 1894.56C4015.13 1654.76 4380.17 1429.01 5461.82 1552.16L5457.63 1562.79C4395.3 1442.28 4034.23 1664.84 3652.6 1901.02C3422.68 2042.9 3184.11 2188.82 2784 2261.88Z" fill="url(#paint24_linear)"/>
</g>
<g opacity="0.5">
<path opacity="0.88" d="M2836.06 2294.65C2361.07 2381.38 1772.94 2306.25 1767.56 2304.77L1773.27 2295.09C1779.47 2295.19 2357.54 2369.7 2820.82 2285.1C3213.91 2213.32 3450.14 2067.82 3679.24 1927.33C4067.19 1687.53 4432.23 1461.78 5513.87 1584.92L5509.68 1595.56C4447.35 1475.05 4086.29 1697.61 3704.65 1933.79C3473.21 2074.71 3236.16 2221.59 2836.06 2294.65Z" fill="url(#paint25_linear)"/>
</g>
<g opacity="0.4">
<path opacity="0.85" d="M2886.7 2326.53C2411.72 2413.27 1823.59 2338.13 1818.2 2336.65L1823.92 2326.97C1830.12 2327.07 2408.19 2401.58 2871.47 2316.98C3264.56 2245.2 3500.79 2099.71 3729.89 1959.21C4115.5 1719.84 4482.88 1493.66 5564.52 1616.81L5560.33 1627.44C4498 1506.93 4136.93 1729.49 3755.3 1965.67C3523.86 2106.59 3286.81 2253.47 2886.7 2326.53Z" fill="url(#paint26_linear)"/>
</g>
<g opacity="0.3">
<path opacity="0.85" d="M2937.35 2358.42C2462.37 2445.15 1874.24 2370.02 1868.85 2368.53L1874.57 2358.86C1880.77 2358.96 2458.84 2433.46 2922.12 2348.86C3315.21 2277.09 3551.44 2131.59 3780.54 1991.09C4168.49 1751.29 4533.52 1525.54 5615.17 1648.69L5610.98 1659.32C4548.65 1538.82 4187.58 1761.37 3805.95 1997.55C3576.03 2139.43 3337.46 2285.36 2937.35 2358.42Z" fill="url(#paint27_linear)"/>
</g>
<path d="M2269.53 1933.55C1794.69 2020.37 1206.87 1945.27 1201.49 1943.79L1207.21 1934.1C1213.41 1934.2 1791.17 2008.68 2254.31 1924C2647.28 1852.14 2883.52 1706.56 3112.63 1565.98C3500.58 1326.03 3865.63 1100.14 4946.71 1223.22L4942.52 1233.86C3880.74 1113.42 3519.66 1336.11 3138.02 1572.44C2906.57 1713.45 2669.52 1860.42 2269.53 1933.55Z" fill="url(#paint28_linear)"/>
<path d="M2320.88 1965.5C1845.9 2052.23 1257.77 1977.1 1252.38 1975.62L1258.1 1965.94C1264.3 1966.04 1842.37 2040.54 2305.65 1955.95C2698.74 1884.17 2934.97 1738.67 3164.07 1598.18C3552.02 1358.38 3917.06 1132.63 4998.7 1255.77L4994.51 1266.4C3930.66 1144.94 3571.12 1368.46 3187.14 1605.06C2958.04 1745.56 2720.99 1892.44 2320.88 1965.5Z" fill="url(#paint29_linear)"/>
<g opacity="0.8">
<path opacity="0.95" d="M2371.53 1997.38C1896.55 2084.11 1310.76 2008.55 1303.03 2007.5L1308.75 1997.82C1314.95 1997.92 1893.02 2072.43 2356.3 1987.83C2749.39 1916.05 2985.62 1770.55 3214.72 1630.06C3600.33 1390.69 3967.7 1164.51 5049.35 1287.65L5045.16 1298.29C3982.83 1177.78 3621.76 1400.34 3240.13 1636.52C3010.21 1778.4 2771.64 1924.32 2371.53 1997.38Z" fill="url(#paint30_linear)"/>
</g>
<g opacity="0.6">
<path opacity="0.9" d="M2422.18 2029.26C1947.2 2116 1359.07 2040.86 1353.68 2039.38L1359.4 2029.7C1365.6 2029.8 1943.66 2104.31 2406.95 2019.71C2800.04 1947.94 3036.27 1802.44 3265.37 1661.94C3653.32 1422.14 4018.35 1196.39 5100 1319.54L5095.81 1330.17C4033.48 1209.66 3672.41 1432.22 3290.78 1668.4C3060.86 1810.28 2822.29 1956.2 2422.18 2029.26Z" fill="url(#paint31_linear)"/>
</g>
<g opacity="0.5">
<path opacity="0.88" d="M2474.24 2062.03C1999.25 2148.76 1411.12 2073.63 1405.74 2072.15L1411.45 2062.47C1417.65 2062.57 1995.72 2137.08 2459 2052.48C2852.09 1980.7 3088.32 1835.21 3317.42 1694.71C3705.37 1454.91 4070.41 1229.16 5152.05 1352.31L5147.86 1362.94C4085.53 1242.43 3724.47 1464.99 3342.83 1701.17C3111.39 1842.09 2874.34 1988.97 2474.24 2062.03Z" fill="url(#paint32_linear)"/>
</g>
<g opacity="0.4">
<path opacity="0.85" d="M2524.88 2093.91C2049.9 2180.65 1461.77 2105.51 1456.38 2104.03L1462.1 2094.35C1468.3 2094.46 2046.37 2168.96 2509.65 2084.36C2902.74 2012.59 3138.97 1867.09 3368.07 1726.59C3753.68 1487.22 4121.06 1261.04 5202.7 1384.19L5198.51 1394.82C4136.18 1274.31 3775.12 1496.87 3393.48 1733.05C3162.04 1873.97 2924.99 2020.86 2524.88 2093.91Z" fill="url(#paint33_linear)"/>
</g>
<g opacity="0.3">
<path opacity="0.85" d="M2575.53 2125.8C2100.55 2212.53 1512.42 2137.4 1507.03 2135.91L1512.75 2126.24C1518.95 2126.34 2097.02 2200.84 2560.3 2116.25C2953.39 2044.47 3189.62 1898.97 3418.72 1758.47C3806.67 1518.68 4171.71 1292.93 5253.35 1416.07L5249.16 1426.7C4186.83 1306.2 3825.76 1528.75 3444.13 1764.93C3214.21 1906.81 2975.64 2052.74 2575.53 2125.8Z" fill="url(#paint34_linear)"/>
</g>
<defs>
<linearGradient id="paint0_linear" x1="204.249" y1="1320.43" x2="1656.41" y2="-993.047" gradientUnits="userSpaceOnUse">
<stop stop-color="#8F6AFA"/>
<stop offset="0.447917" stop-color="#375CDC"/>
<stop offset="1" stop-color="#0099EE"/>
</linearGradient>
<linearGradient id="paint1_linear" x1="254.898" y1="1352.31" x2="1705.02" y2="-960.607" gradientUnits="userSpaceOnUse">
<stop stop-color="#8F6AFA"/>
<stop offset="0.447917" stop-color="#375CDC"/>
<stop offset="1" stop-color="#0099EE"/>
</linearGradient>
<linearGradient id="paint2_linear" x1="305.546" y1="1384.19" x2="1755.66" y2="-928.724" gradientUnits="userSpaceOnUse">
<stop stop-color="#8F6AFA"/>
<stop offset="0.447917" stop-color="#375CDC"/>
<stop offset="1" stop-color="#0099EE"/>
</linearGradient>
<linearGradient id="paint3_linear" x1="356.195" y1="1416.07" x2="1806.31" y2="-896.842" gradientUnits="userSpaceOnUse">
<stop stop-color="#8F6AFA"/>
<stop offset="0.447917" stop-color="#375CDC"/>
<stop offset="1" stop-color="#0099EE"/>
</linearGradient>
<linearGradient id="paint4_linear" x1="408.25" y1="1448.84" x2="1858.37" y2="-864.074" gradientUnits="userSpaceOnUse">
<stop stop-color="#8F6AFA"/>
<stop offset="0.447917" stop-color="#375CDC"/>
<stop offset="1" stop-color="#0099EE"/>
</linearGradient>
<linearGradient id="paint5_linear" x1="458.898" y1="1480.72" x2="1909.02" y2="-832.192" gradientUnits="userSpaceOnUse">
<stop stop-color="#8F6AFA"/>
<stop offset="0.447917" stop-color="#375CDC"/>
<stop offset="1" stop-color="#0099EE"/>
</linearGradient>
<linearGradient id="paint6_linear" x1="509.546" y1="1512.61" x2="1959.66" y2="-800.309" gradientUnits="userSpaceOnUse">
<stop stop-color="#8F6AFA"/>
<stop offset="0.447917" stop-color="#375CDC"/>
<stop offset="1" stop-color="#0099EE"/>
</linearGradient>
<linearGradient id="paint7_linear" x1="542.756" y1="1550.37" x2="1994.92" y2="-763.113" gradientUnits="userSpaceOnUse">
<stop stop-color="#8F6AFA"/>
<stop offset="0.447917" stop-color="#375CDC"/>
<stop offset="1" stop-color="#0099EE"/>
</linearGradient>
<linearGradient id="paint8_linear" x1="593.405" y1="1582.24" x2="2043.52" y2="-730.674" gradientUnits="userSpaceOnUse">
<stop stop-color="#8F6AFA"/>
<stop offset="0.447917" stop-color="#375CDC"/>
<stop offset="1" stop-color="#0099EE"/>
</linearGradient>
<linearGradient id="paint9_linear" x1="644.053" y1="1614.12" x2="2094.17" y2="-698.791" gradientUnits="userSpaceOnUse">
<stop stop-color="#8F6AFA"/>
<stop offset="0.447917" stop-color="#375CDC"/>
<stop offset="1" stop-color="#0099EE"/>
</linearGradient>
<linearGradient id="paint10_linear" x1="694.702" y1="1646.01" x2="2144.82" y2="-666.909" gradientUnits="userSpaceOnUse">
<stop stop-color="#8F6AFA"/>
<stop offset="0.447917" stop-color="#375CDC"/>
<stop offset="1" stop-color="#0099EE"/>
</linearGradient>
<linearGradient id="paint11_linear" x1="746.757" y1="1678.77" x2="2196.88" y2="-634.14" gradientUnits="userSpaceOnUse">
<stop stop-color="#8F6AFA"/>
<stop offset="0.447917" stop-color="#375CDC"/>
<stop offset="1" stop-color="#0099EE"/>
</linearGradient>
<linearGradient id="paint12_linear" x1="797.405" y1="1710.66" x2="2247.52" y2="-602.258" gradientUnits="userSpaceOnUse">
<stop stop-color="#8F6AFA"/>
<stop offset="0.447917" stop-color="#375CDC"/>
<stop offset="1" stop-color="#0099EE"/>
</linearGradient>
<linearGradient id="paint13_linear" x1="848.052" y1="1742.54" x2="2298.17" y2="-570.376" gradientUnits="userSpaceOnUse">
<stop stop-color="#8F6AFA"/>
<stop offset="0.447917" stop-color="#375CDC"/>
<stop offset="1" stop-color="#0099EE"/>
</linearGradient>
<linearGradient id="paint14_linear" x1="929.097" y1="1772.81" x2="2381.26" y2="-540.673" gradientUnits="userSpaceOnUse">
<stop stop-color="#8F6AFA"/>
<stop offset="0.447917" stop-color="#375CDC"/>
<stop offset="1" stop-color="#0099EE"/>
</linearGradient>
<linearGradient id="paint15_linear" x1="979.746" y1="1804.68" x2="2429.86" y2="-508.234" gradientUnits="userSpaceOnUse">
<stop stop-color="#8F6AFA"/>
<stop offset="0.447917" stop-color="#375CDC"/>
<stop offset="1" stop-color="#0099EE"/>
</linearGradient>
<linearGradient id="paint16_linear" x1="1030.39" y1="1836.56" x2="2480.51" y2="-476.351" gradientUnits="userSpaceOnUse">
<stop stop-color="#8F6AFA"/>
<stop offset="0.447917" stop-color="#375CDC"/>
<stop offset="1" stop-color="#0099EE"/>
</linearGradient>
<linearGradient id="paint17_linear" x1="1081.04" y1="1868.45" x2="2531.16" y2="-444.469" gradientUnits="userSpaceOnUse">
<stop stop-color="#8F6AFA"/>
<stop offset="0.447917" stop-color="#375CDC"/>
<stop offset="1" stop-color="#0099EE"/>
</linearGradient>
<linearGradient id="paint18_linear" x1="1133.1" y1="1901.21" x2="2583.22" y2="-411.701" gradientUnits="userSpaceOnUse">
<stop stop-color="#8F6AFA"/>
<stop offset="0.447917" stop-color="#375CDC"/>
<stop offset="1" stop-color="#0099EE"/>
</linearGradient>
<linearGradient id="paint19_linear" x1="1183.75" y1="1933.1" x2="2633.86" y2="-379.818" gradientUnits="userSpaceOnUse">
<stop stop-color="#8F6AFA"/>
<stop offset="0.447917" stop-color="#375CDC"/>
<stop offset="1" stop-color="#0099EE"/>
</linearGradient>
<linearGradient id="paint20_linear" x1="1234.39" y1="1964.98" x2="2684.51" y2="-347.936" gradientUnits="userSpaceOnUse">
<stop stop-color="#8F6AFA"/>
<stop offset="0.447917" stop-color="#375CDC"/>
<stop offset="1" stop-color="#0099EE"/>
</linearGradient>
<linearGradient id="paint21_linear" x1="1290.92" y1="2005.42" x2="2743.08" y2="-308.056" gradientUnits="userSpaceOnUse">
<stop stop-color="#8F6AFA"/>
<stop offset="0.447917" stop-color="#375CDC"/>
<stop offset="1" stop-color="#0099EE"/>
</linearGradient>
<linearGradient id="paint22_linear" x1="1341.56" y1="2037.3" x2="2791.68" y2="-275.616" gradientUnits="userSpaceOnUse">
<stop stop-color="#8F6AFA"/>
<stop offset="0.447917" stop-color="#375CDC"/>
<stop offset="1" stop-color="#0099EE"/>
</linearGradient>
<linearGradient id="paint23_linear" x1="1392.21" y1="2069.18" x2="2842.33" y2="-243.733" gradientUnits="userSpaceOnUse">
<stop stop-color="#8F6AFA"/>
<stop offset="0.447917" stop-color="#375CDC"/>
<stop offset="1" stop-color="#0099EE"/>
</linearGradient>
<linearGradient id="paint24_linear" x1="1442.86" y1="2101.06" x2="2892.98" y2="-211.851" gradientUnits="userSpaceOnUse">
<stop stop-color="#8F6AFA"/>
<stop offset="0.447917" stop-color="#375CDC"/>
<stop offset="1" stop-color="#0099EE"/>
</linearGradient>
<linearGradient id="paint25_linear" x1="1494.92" y1="2133.83" x2="2945.04" y2="-179.082" gradientUnits="userSpaceOnUse">
<stop stop-color="#8F6AFA"/>
<stop offset="0.447917" stop-color="#375CDC"/>
<stop offset="1" stop-color="#0099EE"/>
</linearGradient>
<linearGradient id="paint26_linear" x1="1545.56" y1="2165.71" x2="2995.68" y2="-147.2" gradientUnits="userSpaceOnUse">
<stop stop-color="#8F6AFA"/>
<stop offset="0.447917" stop-color="#375CDC"/>
<stop offset="1" stop-color="#0099EE"/>
</linearGradient>
<linearGradient id="paint27_linear" x1="1596.21" y1="2197.6" x2="3046.33" y2="-115.318" gradientUnits="userSpaceOnUse">
<stop stop-color="#8F6AFA"/>
<stop offset="0.447917" stop-color="#375CDC"/>
<stop offset="1" stop-color="#0099EE"/>
</linearGradient>
<linearGradient id="paint28_linear" x1="929.097" y1="1772.81" x2="2381.26" y2="-540.674" gradientUnits="userSpaceOnUse">
<stop stop-color="#8F6AFA"/>
<stop offset="0.447917" stop-color="#375CDC"/>
<stop offset="1" stop-color="#0099EE"/>
</linearGradient>
<linearGradient id="paint29_linear" x1="979.746" y1="1804.68" x2="2429.86" y2="-508.234" gradientUnits="userSpaceOnUse">
<stop stop-color="#8F6AFA"/>
<stop offset="0.447917" stop-color="#375CDC"/>
<stop offset="1" stop-color="#0099EE"/>
</linearGradient>
<linearGradient id="paint30_linear" x1="1030.39" y1="1836.56" x2="2480.51" y2="-476.351" gradientUnits="userSpaceOnUse">
<stop stop-color="#8F6AFA"/>
<stop offset="0.447917" stop-color="#375CDC"/>
<stop offset="1" stop-color="#0099EE"/>
</linearGradient>
<linearGradient id="paint31_linear" x1="1081.04" y1="1868.45" x2="2531.16" y2="-444.469" gradientUnits="userSpaceOnUse">
<stop stop-color="#8F6AFA"/>
<stop offset="0.447917" stop-color="#375CDC"/>
<stop offset="1" stop-color="#0099EE"/>
</linearGradient>
<linearGradient id="paint32_linear" x1="1133.1" y1="1901.21" x2="2583.22" y2="-411.701" gradientUnits="userSpaceOnUse">
<stop stop-color="#8F6AFA"/>
<stop offset="0.447917" stop-color="#375CDC"/>
<stop offset="1" stop-color="#0099EE"/>
</linearGradient>
<linearGradient id="paint33_linear" x1="1183.75" y1="1933.1" x2="2633.86" y2="-379.819" gradientUnits="userSpaceOnUse">
<stop stop-color="#8F6AFA"/>
<stop offset="0.447917" stop-color="#375CDC"/>
<stop offset="1" stop-color="#0099EE"/>
</linearGradient>
<linearGradient id="paint34_linear" x1="1234.39" y1="1964.98" x2="2684.51" y2="-347.936" gradientUnits="userSpaceOnUse">
<stop stop-color="#8F6AFA"/>
<stop offset="0.447917" stop-color="#375CDC"/>
<stop offset="1" stop-color="#0099EE"/>
</linearGradient>
</defs>
</svg>
