<svg width="20" height="25" viewBox="0 0 20 25" fill="none" xmlns="http://www.w3.org/2000/svg">
<path d="M4.11337 1.41689H4.42963V1.7329C4.42963 1.86902 4.53667 1.97598 4.6729 1.97598C4.80914 1.97598 4.91618 1.86902 4.91618 1.7329V1.41689H5.23243C5.36867 1.41689 5.47571 1.30993 5.47571 1.1738C5.47571 1.03768 5.36867 0.93072 5.23243 0.93072H4.91618V0.614711C4.91618 0.478585 4.80914 0.371628 4.6729 0.371628C4.53667 0.371628 4.42963 0.478585 4.42963 0.614711V0.93072H4.11337C3.97713 0.93072 3.87009 1.03768 3.87009 1.1738C3.87009 1.30993 3.982 1.41689 4.11337 1.41689ZM9.88385 1.41689H10.2001V1.7329C10.2001 1.86902 10.3071 1.97598 10.4434 1.97598C10.5796 1.97598 10.6867 1.86902 10.6867 1.7329V1.41689H11.0029C11.1391 1.41689 11.2462 1.30993 11.2462 1.1738C11.2462 1.03768 11.1391 0.93072 11.0029 0.93072H10.6867V0.614711C10.6867 0.478585 10.5796 0.371628 10.4434 0.371628C10.3071 0.371628 10.2001 0.478585 10.2001 0.614711V0.93072H9.88385C9.74761 0.93072 9.64057 1.03768 9.64057 1.1738C9.64057 1.30993 9.75248 1.41689 9.88385 1.41689ZM6.9986 1.41689H7.31486V1.7329C7.31486 1.86902 7.4219 1.97598 7.55813 1.97598C7.69437 1.97598 7.80141 1.86902 7.80141 1.7329V1.41689H8.11767C8.2539 1.41689 8.36094 1.30993 8.36094 1.1738C8.36094 1.03768 8.2539 0.93072 8.11767 0.93072H7.80141V0.614711C7.80141 0.478585 7.69437 0.371628 7.55813 0.371628C7.4219 0.371628 7.31486 0.478585 7.31486 0.614711V0.93072H6.9986C6.86237 0.93072 6.75533 1.03768 6.75533 1.1738C6.75533 1.30993 6.86723 1.41689 6.9986 1.41689ZM5.65086 11.0381C6.3369 11.0381 6.89156 10.4839 6.89156 9.7984V8.80176C6.89156 8.79689 6.89156 8.79204 6.89156 8.78718C6.89156 8.76773 6.89156 8.75314 6.89156 8.7337C6.89156 8.0482 6.3369 7.49397 5.65086 7.49397C4.96482 7.49397 4.41016 8.0482 4.41016 8.7337C4.41016 8.75314 4.41016 8.76773 4.41016 8.78718C4.41016 8.79204 4.41016 8.79689 4.41016 8.80176V9.7984C4.41016 10.4839 4.96482 11.0381 5.65086 11.0381ZM5.65086 7.98501C6.06929 7.98501 6.40501 8.32532 6.40501 8.73856C6.40501 8.75315 6.40501 8.76773 6.40501 8.78231C6.40501 8.78231 6.40501 8.78232 6.40501 8.78718C6.39528 8.90872 6.36123 9.0254 6.29797 9.1275C6.28824 9.14694 6.27364 9.16639 6.25905 9.18583C6.24445 9.20528 6.22986 9.21986 6.21526 9.23931C6.21526 9.23931 6.21526 9.23931 6.21039 9.24417C6.1958 9.25876 6.1812 9.27334 6.16661 9.29279L6.16174 9.29766C6.14714 9.31224 6.13254 9.32682 6.11308 9.33654L6.10822 9.34141C6.09363 9.35599 6.07417 9.36571 6.05957 9.37544C6.0547 9.37544 6.05469 9.3803 6.04983 9.3803C6.03523 9.39002 6.01577 9.39974 6.00117 9.40946C5.99631 9.40946 5.99145 9.41433 5.98659 9.41433C5.97199 9.42405 5.95253 9.42892 5.93793 9.43864C5.93307 9.4435 5.92333 9.44351 5.91846 9.44351C5.90387 9.44837 5.8844 9.45322 5.86981 9.45808C5.86008 9.46294 5.85035 9.46295 5.84548 9.46295C5.83088 9.46781 5.81629 9.47267 5.8017 9.47267C5.7871 9.47753 5.77737 9.47754 5.76277 9.47754C5.75304 9.47754 5.73844 9.48239 5.72871 9.48239C5.70439 9.48725 5.68006 9.48726 5.65573 9.48726C5.6314 9.48726 5.60708 9.48725 5.58275 9.48239C5.57302 9.48239 5.55842 9.47754 5.54869 9.47754C5.5341 9.47754 5.52436 9.47267 5.50977 9.47267C5.49517 9.46781 5.48057 9.46781 5.46597 9.46295C5.45624 9.46295 5.45137 9.45808 5.44164 9.45808C5.42704 9.45322 5.40758 9.44836 5.39299 9.43864C5.38812 9.43864 5.38326 9.43377 5.37353 9.43377C5.35407 9.42891 5.33947 9.41919 5.32487 9.40946C5.32001 9.40946 5.31514 9.40461 5.31028 9.40461C5.29081 9.39489 5.27622 9.38516 5.25676 9.37544C5.2519 9.37544 5.25189 9.37058 5.24702 9.37058C5.22756 9.36086 5.21296 9.34626 5.19837 9.33654L5.19351 9.33169C5.17891 9.3171 5.15945 9.30251 5.14485 9.29279L5.13998 9.28792C5.12539 9.27334 5.11079 9.25875 5.0962 9.23931C5.0962 9.23931 5.09619 9.23931 5.09133 9.23445C5.07673 9.21987 5.06214 9.20041 5.04754 9.18097C5.03295 9.16152 5.02321 9.14208 5.00862 9.12263C4.95023 9.02054 4.91131 8.90872 4.90158 8.78231C4.90158 8.78231 4.90158 8.78231 4.90158 8.77745C4.90158 8.76286 4.90158 8.74828 4.90158 8.7337C4.89671 8.32046 5.23243 7.98501 5.65086 7.98501ZM4.89671 9.72062C5.00375 9.80327 5.12052 9.86646 5.24702 9.91022C5.31027 9.92967 5.37353 9.94911 5.43678 9.95884C5.44165 9.95884 5.44165 9.95884 5.44651 9.95884C5.4757 9.9637 5.50976 9.96856 5.53895 9.96856C5.54382 9.96856 5.54868 9.96856 5.55355 9.96856C5.58274 9.96856 5.6168 9.97342 5.65086 9.97342C5.68492 9.97342 5.71411 9.97342 5.74817 9.96856C5.75304 9.96856 5.7579 9.96856 5.76277 9.96856C5.79196 9.96369 5.82602 9.9637 5.85521 9.95884C5.86007 9.95884 5.86008 9.95884 5.86495 9.95884C5.9282 9.94911 5.99145 9.92967 6.0547 9.91022C6.1812 9.86646 6.29797 9.80327 6.40501 9.72062V9.7984C6.40501 10.2165 6.06443 10.552 5.65086 10.552C5.23243 10.552 4.89671 10.2116 4.89671 9.7984V9.72062ZM19.4494 24.1938H19.2645C19.1283 24.1938 19.0213 24.3008 19.0213 24.4369C19.0213 24.573 19.1283 24.68 19.2645 24.68H19.4494C19.5857 24.68 19.6927 24.573 19.6927 24.4369C19.6927 24.3008 19.5808 24.1938 19.4494 24.1938ZM18.3985 24.1938H17.8584V15.4768C17.8584 14.8594 17.3573 14.3586 16.7393 14.3586H16.4717V11.2034C16.4717 10.8728 16.2041 10.6054 15.8733 10.6054H14.9196C14.5888 10.6054 14.3212 10.8728 14.3212 11.2034V14.3586H14.0536C13.4357 14.3586 12.9345 14.8594 12.9345 15.4768V24.1938C12.9345 24.4612 13.1535 24.68 13.4211 24.68H18.3985C18.5347 24.68 18.6418 24.573 18.6418 24.4369C18.6418 24.3008 18.5347 24.1938 18.3985 24.1938ZM14.8077 11.2034C14.8077 11.1402 14.8564 11.0916 14.9196 11.0916H15.8733C15.9365 11.0916 15.9852 11.1402 15.9852 11.2034V11.8841H14.8077V11.2034ZM17.3719 24.1938H13.4211V21.1066H17.3719V24.1938ZM17.3719 20.6205H13.4211V17.5819H17.3719V20.6205ZM17.3719 17.0958H13.4211V15.4768C13.4211 15.1268 13.7033 14.8448 14.0536 14.8448H14.5645C14.7007 14.8448 14.8077 14.7379 14.8077 14.6017V12.3702H15.9852V14.6017C15.9852 14.7379 16.0922 14.8448 16.2285 14.8448H16.7393C17.0897 14.8448 17.3719 15.1268 17.3719 15.4768V17.0958ZM9.47028 11.0381C10.1563 11.0381 10.711 10.4839 10.711 9.7984V8.80176C10.711 8.79689 10.711 8.79204 10.711 8.78718C10.711 8.76773 10.711 8.75314 10.711 8.7337C10.711 8.0482 10.1563 7.49397 9.47028 7.49397C8.78424 7.49397 8.22958 8.0482 8.22958 8.7337C8.22958 8.75314 8.22958 8.76773 8.22958 8.78718C8.22958 8.79204 8.22958 8.79689 8.22958 8.80176V9.7984C8.22958 10.4839 8.78911 11.0381 9.47028 11.0381ZM9.47028 7.98501C9.88871 7.98501 10.2244 8.32532 10.2244 8.73856C10.2244 8.75315 10.2244 8.76773 10.2244 8.78231C10.2244 8.78231 10.2244 8.78232 10.2244 8.78718C10.2147 8.90872 10.1806 9.0254 10.1174 9.1275C10.1077 9.14694 10.0931 9.16639 10.0785 9.18583C10.0639 9.20528 10.0493 9.21986 10.0347 9.23931C10.0347 9.23931 10.0347 9.23931 10.0298 9.24417C10.0152 9.25876 10.0006 9.2782 9.98603 9.29279L9.98116 9.29766C9.96656 9.31224 9.95196 9.32682 9.9325 9.33654L9.92764 9.34141C9.91305 9.35599 9.89358 9.36571 9.87899 9.37544C9.87412 9.37544 9.87411 9.3803 9.86925 9.3803C9.85465 9.39002 9.8352 9.39974 9.81573 9.40946C9.81087 9.40946 9.806 9.41433 9.80114 9.41433C9.78654 9.42405 9.76708 9.42892 9.75248 9.43864C9.74762 9.43864 9.74275 9.44351 9.73302 9.44351C9.71843 9.44837 9.69896 9.45322 9.68437 9.46295C9.67464 9.46781 9.66977 9.46781 9.66004 9.46781C9.64544 9.47268 9.63084 9.47754 9.61624 9.47754C9.60165 9.4824 9.59191 9.48239 9.57732 9.48239C9.56759 9.48239 9.55299 9.48726 9.54326 9.48726C9.51893 9.49212 9.49461 9.49212 9.47028 9.49212C9.44595 9.49212 9.42162 9.49212 9.3973 9.48726C9.38757 9.48726 9.37297 9.48239 9.36324 9.48239C9.34864 9.48239 9.33891 9.47754 9.32431 9.47754C9.30972 9.47267 9.29513 9.47268 9.28053 9.46781C9.2708 9.46781 9.26593 9.46295 9.2562 9.46295C9.24161 9.45809 9.22214 9.45323 9.20755 9.44351C9.20268 9.44351 9.19781 9.43864 9.18808 9.43864C9.16862 9.43378 9.15402 9.42405 9.13942 9.41433C9.13456 9.41433 9.1297 9.40946 9.12484 9.40946C9.10537 9.39974 9.09077 9.39002 9.07131 9.3803C9.06644 9.3803 9.06645 9.37544 9.06158 9.37544C9.04212 9.36571 9.02752 9.35113 9.01293 9.34141L9.00806 9.33654C8.99346 9.32196 8.974 9.30738 8.9594 9.29766L8.95454 9.29279C8.93995 9.2782 8.92534 9.26362 8.91075 9.24417C8.91075 9.24417 8.91075 9.24417 8.90589 9.23931C8.89129 9.22472 8.87669 9.20528 8.86209 9.18583C8.84749 9.16639 8.83776 9.14694 8.82316 9.1275C8.76478 9.0254 8.72586 8.91358 8.71613 8.78718C8.71613 8.78718 8.71613 8.78718 8.71613 8.78231C8.71613 8.76773 8.71613 8.75315 8.71613 8.73856C8.71613 8.32046 9.05671 7.98501 9.47028 7.98501ZM8.71613 9.72062C8.82317 9.80327 8.93994 9.86646 9.06644 9.91022C9.12969 9.92967 9.19295 9.94911 9.2562 9.95884C9.26107 9.95884 9.26106 9.95884 9.26593 9.95884C9.29512 9.9637 9.32918 9.96856 9.35837 9.96856C9.36324 9.96856 9.3681 9.96856 9.37297 9.96856C9.40216 9.96856 9.43622 9.97342 9.47028 9.97342C9.50434 9.97342 9.53353 9.97342 9.56759 9.96856C9.57245 9.96856 9.57732 9.96856 9.58219 9.96856C9.61138 9.96369 9.64544 9.9637 9.67463 9.95884C9.67949 9.95884 9.6795 9.95884 9.68437 9.95884C9.74762 9.94911 9.81087 9.92967 9.87412 9.91022C10.0006 9.86646 10.1174 9.80327 10.2244 9.72062V9.7984C10.2244 10.2165 9.88385 10.552 9.47028 10.552C9.05185 10.552 8.71613 10.2116 8.71613 9.7984V9.72062ZM3.1646 22.2151H12.2339C12.3701 22.2151 12.4772 22.1081 12.4772 21.972C12.4772 21.8359 12.3701 21.7289 12.2339 21.7289H3.40787V15.4379C3.40787 15.3018 3.30083 15.1948 3.1646 15.1948C3.02836 15.1948 2.92132 15.3018 2.92132 15.4379V16.7214H0.629665V15.8609C0.629665 14.3684 1.84118 13.1529 3.33489 13.1529H4.7994C5.14485 13.3669 5.50977 13.5419 5.88928 13.6683H5.89414C5.92819 13.6829 5.96712 13.6926 6.00117 13.7023C6.01577 13.7072 6.0255 13.712 6.0401 13.712C6.09362 13.7266 6.14227 13.7412 6.19579 13.7558C6.22012 13.7607 6.24445 13.7704 6.26878 13.7752C6.2931 13.7801 6.31743 13.7898 6.34176 13.7947C6.37095 13.7996 6.40015 13.8093 6.42934 13.8141C6.4488 13.819 6.47313 13.8239 6.49259 13.8287C6.54125 13.8385 6.5899 13.8482 6.63856 13.8579C6.65316 13.8579 6.66289 13.8628 6.67749 13.8628C6.72128 13.8676 6.76019 13.8773 6.80398 13.8822C6.81858 13.8822 6.83804 13.8871 6.85264 13.8871C6.89643 13.8919 6.94023 13.8968 6.98401 13.9017C6.99375 13.9017 7.00347 13.9016 7.0132 13.9065C7.06672 13.9114 7.12024 13.9162 7.17376 13.9211C7.18836 13.9211 7.20296 13.9211 7.21269 13.926C7.25648 13.9308 7.30026 13.9308 7.33919 13.9308C7.35378 13.9308 7.36839 13.9308 7.38298 13.9308C7.4365 13.9308 7.49489 13.9357 7.54841 13.9357C7.60193 13.9357 7.66032 13.9357 7.71384 13.9308C7.72844 13.9308 7.74303 13.9308 7.75762 13.9308C7.80141 13.9308 7.84521 13.926 7.88413 13.926C7.89873 13.926 7.90845 13.926 7.92305 13.9211C7.97657 13.9162 8.03009 13.9114 8.08361 13.9065C8.09334 13.9065 8.10308 13.9065 8.11281 13.9017C8.1566 13.8968 8.20039 13.8919 8.24905 13.8871C8.26364 13.8871 8.2831 13.8822 8.2977 13.8822C8.34149 13.8773 8.38041 13.8676 8.4242 13.8628C8.43393 13.8628 8.44852 13.8579 8.45825 13.8579C8.50691 13.8482 8.55557 13.8385 8.60909 13.8287C8.62855 13.8239 8.65288 13.819 8.67234 13.8141C8.70153 13.8093 8.73073 13.7996 8.75992 13.7947C8.78425 13.7898 8.80858 13.785 8.83291 13.7752C8.85723 13.7704 8.88642 13.7607 8.91075 13.7558C8.9594 13.7412 9.01293 13.7266 9.06158 13.712C9.07618 13.7072 9.08591 13.7023 9.10051 13.6975C9.13457 13.6877 9.17349 13.6731 9.20755 13.6634C9.21241 13.6634 9.21241 13.6634 9.21728 13.6586C9.59678 13.5322 9.9617 13.3571 10.3023 13.1432H11.7668C12.3896 13.1432 12.9734 13.3474 13.4551 13.7364C13.5573 13.819 13.713 13.8044 13.7957 13.6975C13.8784 13.5905 13.8638 13.4398 13.7568 13.3571C13.1924 12.905 12.4869 12.6571 11.7619 12.6571H10.9494C12.049 11.6993 12.7448 10.2943 12.7448 8.72398C12.7448 5.85073 10.4093 3.51226 7.53868 3.51226C4.66803 3.51226 2.33259 5.85073 2.33259 8.72398C2.33259 10.2943 3.02835 11.6993 4.12796 12.6571H3.31542C1.55411 12.6571 0.123657 14.0913 0.123657 15.8512V23.4451C0.123657 24.116 0.673452 24.6654 1.34489 24.6654H12.2144C12.3507 24.6654 12.4577 24.5584 12.4577 24.4223C12.4577 24.2862 12.3507 24.1792 12.2144 24.1792H1.34489C0.941054 24.1792 0.610207 23.8486 0.610207 23.4451V17.193H2.90185V21.9574C2.92131 22.1081 3.02836 22.2151 3.1646 22.2151ZM2.8386 8.7337C2.8386 6.12784 4.95509 4.00816 7.55813 4.00816C10.1612 4.00816 12.2777 6.12784 12.2777 8.7337C12.2777 10.8437 10.8861 12.6376 8.97887 13.2405C8.96914 13.2453 8.9594 13.2453 8.9448 13.2502C8.91561 13.2599 8.88642 13.2696 8.85236 13.2794C8.8329 13.2842 8.81344 13.2891 8.79398 13.2939C8.75505 13.3037 8.71612 13.3134 8.6772 13.3231C8.64801 13.328 8.62368 13.3377 8.59449 13.3426C8.57503 13.3474 8.55556 13.3523 8.53123 13.3571C8.49718 13.3669 8.46312 13.3717 8.4242 13.3766C8.4096 13.3766 8.39987 13.3815 8.38527 13.3815C8.33662 13.3912 8.29283 13.396 8.24417 13.4058C8.22958 13.4058 8.21499 13.4106 8.20039 13.4106C8.16147 13.4155 8.12254 13.4203 8.08361 13.4252C8.07388 13.4252 8.05929 13.4301 8.04955 13.4301C8.0009 13.4349 7.95224 13.4398 7.89872 13.4446C7.88899 13.4446 7.87926 13.4446 7.86953 13.4446C7.83061 13.4495 7.78682 13.4495 7.7479 13.4495C7.7333 13.4495 7.7187 13.4495 7.7041 13.4495C7.65544 13.4495 7.60193 13.4544 7.55328 13.4544C7.50462 13.4544 7.4511 13.4544 7.40244 13.4495C7.38784 13.4495 7.37325 13.4495 7.35866 13.4495C7.31973 13.4495 7.27594 13.4446 7.23702 13.4446C7.22729 13.4446 7.21755 13.4446 7.20782 13.4446C7.15917 13.4398 7.10565 13.4349 7.057 13.4301C7.04727 13.4301 7.03266 13.4252 7.02293 13.4252C6.98401 13.4203 6.94509 13.4155 6.90616 13.4106C6.89157 13.4106 6.87697 13.4058 6.86238 13.4058C6.81372 13.4009 6.76993 13.3912 6.72127 13.3815C6.70667 13.3815 6.69694 13.3766 6.68234 13.3766C6.64829 13.3717 6.61423 13.362 6.58018 13.3571C6.56071 13.3523 6.53638 13.3474 6.51692 13.3426C6.48773 13.3377 6.4634 13.328 6.43421 13.3231C6.39529 13.3134 6.3515 13.3037 6.31257 13.2939C6.29311 13.2891 6.27364 13.2842 6.25905 13.2794C6.22985 13.2696 6.1958 13.2599 6.16661 13.2502C6.15688 13.2453 6.14714 13.2453 6.13741 13.2405C4.23013 12.6376 2.8386 10.8437 2.8386 8.7337ZM6.44881 12.1952C6.3661 12.3022 6.38555 12.4529 6.48772 12.5355C6.59477 12.6182 6.7456 12.5987 6.82831 12.4966C7.00833 12.273 7.27107 12.1417 7.55813 12.1417C7.8452 12.1417 8.1128 12.273 8.28796 12.4966C8.33662 12.555 8.40474 12.589 8.47772 12.589C8.53124 12.589 8.58476 12.5696 8.62854 12.5355C8.73559 12.4529 8.75018 12.2973 8.66747 12.1952C8.395 11.8549 7.99117 11.6556 7.55328 11.6556C7.12511 11.6604 6.71641 11.8549 6.44881 12.1952Z" fill="url(#paint0_linear)"/>
<defs>
<linearGradient id="paint0_linear" x1="17.9162" y1="-0.747834" x2="-6.04692" y2="8.25432" gradientUnits="userSpaceOnUse">
<stop offset="0.00520833" stop-color="#E6E7ED"/>
<stop offset="0.25" stop-color="#8E8E8E"/>
<stop offset="0.507086" stop-color="#EBECF0"/>
<stop offset="0.765625" stop-color="#8E8E8E"/>
<stop offset="1" stop-color="#EBECF0"/>
</linearGradient>
</defs>
</svg>
