<svg width="933" height="918" viewBox="0 0 933 918" fill="none" xmlns="http://www.w3.org/2000/svg">
<path d="M472.786 424.826C466.687 425.418 460.706 426.135 454.843 426.975C430.139 430.454 405.813 436.405 382.197 444.747C349.521 456.3 318.489 472.422 289.943 492.675C232.797 533.193 204.985 576.315 204.985 576.315C204.985 576.315 171.17 558.496 149.279 524.764C164.048 511.649 179.963 500.016 196.815 490.019C248.83 458.725 311.688 438.129 367.264 426.603C404.588 418.827 438.631 415.162 463.888 415.101C467.819 415.101 471.508 415.169 474.986 415.339C474.986 415.332 478.66 419.105 472.786 424.826Z" fill="white"/>
<path d="M472.998 423.986C446.769 426.496 420.837 431.685 395.574 439.48C348.295 454.168 304.145 478.199 265.514 510.273C249.522 523.486 234.615 538.077 220.952 553.893C216.802 558.717 212.78 563.667 208.95 568.773C207.035 571.003 205.316 573.41 203.815 575.964C203.748 576.08 203.675 576.191 203.595 576.298L206.18 575.575C201.82 573.194 197.603 570.537 193.553 567.619C183.735 560.769 174.618 552.879 166.346 544.074C160.575 537.929 155.331 531.265 150.675 524.16L150.478 525.002C185.653 493.413 228.27 471.598 271.585 455.106C314.533 438.85 358.997 427.369 404.242 420.852C427.4 417.484 450.996 415.104 474.398 416.196L473.596 415.937C476.126 418.626 473.562 422.592 471.592 424.589C470.353 425.84 473.295 425.764 473.981 425.064C476.346 422.664 478.9 418.976 476.913 415.506C476.261 414.372 475.552 414.469 474.26 414.416C471.122 414.288 467.983 414.239 464.842 414.237C454.392 414.237 443.935 414.848 433.525 415.771C408.367 418.114 383.371 422.082 358.682 427.652C334.892 432.885 311.395 439.48 288.297 447.408C264.709 455.418 241.686 465.144 219.394 476.513C196.63 487.977 175.123 501.99 155.249 518.309C152.825 520.337 150.437 522.41 148.084 524.528C147.819 524.764 147.678 525.048 147.887 525.37C161.014 545.482 179.229 562.144 199.271 574.433C200.756 575.343 202.254 576.247 203.79 577.059C204.241 577.217 204.727 577.233 205.186 577.104C205.646 576.975 206.059 576.708 206.375 576.335C210.465 570.212 214.898 564.348 219.648 558.771C231.993 543.929 245.459 530.149 259.914 517.563C297.473 484.622 340.754 459.568 387.385 443.775C411.8 435.56 436.926 429.868 462.403 426.781C465.792 426.366 469.184 425.995 472.58 425.666C474.017 425.524 475.078 423.787 472.998 423.986Z" fill="black"/>
<path d="M111.166 597.89C72.9322 608.88 29.7053 582.123 4.72655 481.639C-12.1185 413.879 42.7468 419.216 45.5003 456.529C47.3742 481.93 52.6243 504.552 64.3323 503.294C76.0404 502.037 70.3722 452.139 59.1644 419.272C41.0928 366.282 117.184 347.85 113.878 412.436C111.865 451.863 104.226 495.379 123.743 494.213C143.26 493.046 143.735 461.962 144.094 437.395C144.734 393.552 209.13 401.077 191.557 451.369C176.194 495.335 157.786 514.858 178.814 524.51C199.842 534.162 205.828 486.265 248.734 490.877C287.451 495.037 287.41 520.703 279.802 532.768C272.195 544.834 257.405 539.734 239.101 539.312C221.59 538.905 193.883 650.005 111.166 597.89Z" fill="white"/>
<path d="M110.997 597.23C103.429 599.368 95.5202 599.846 87.7671 598.633C80.014 597.421 72.5842 594.545 65.9445 590.186C46.857 577.893 34.0168 556.965 24.6504 536.198C17.7602 520.575 12.1558 504.365 7.89825 487.746C4.48804 474.87 1.18315 460.885 4.04512 447.515C5.51327 440.668 9.13255 433.376 15.8585 430.92C21.4616 428.874 27.805 430.876 32.4774 434.359C38.3834 438.936 42.357 445.736 43.5583 453.321C44.1158 456.53 44.2087 459.817 44.5277 463.057C44.9629 467.485 45.522 471.903 46.2809 476.283C47.4966 483.293 49.0824 490.709 52.6212 496.889C54.9303 500.926 58.311 504.244 63.0624 504.129C64.5758 504.116 66.0518 503.635 67.3041 502.747C68.5565 501.858 69.5292 500.601 70.0996 499.134C71.9023 495.059 72.1455 490.205 72.2678 485.789C72.3797 479.162 72.0101 472.535 71.162 465.967C69.3895 450.741 66.1322 435.744 61.4409 421.212C58.3436 411.675 56.3814 401.914 59.6197 392.086C64.2781 377.942 79.1331 368.534 93.1704 373.294C96.7358 374.59 99.9952 376.669 102.73 379.39C105.465 382.111 107.613 385.413 109.029 389.073C114.009 401.137 112.379 414.595 111.451 427.304C110.314 442.843 108.402 458.666 109.453 474.266C110.011 482.538 111.843 494.662 121.864 495.015C126.751 495.183 131.501 493.319 135.076 489.831C138.926 485.987 141.015 480.587 142.355 475.303C143.95 468.416 144.872 461.377 145.106 454.295C145.466 447.52 145.124 440.638 145.751 433.883C146.558 425.202 150.514 416.813 157.964 412.418C161.058 410.661 164.485 409.642 168 409.434C171.515 409.226 175.031 409.835 178.294 411.216C181.814 412.685 184.937 415.033 187.39 418.054C189.844 421.076 191.553 424.679 192.37 428.55C195.26 441.785 189.029 455.184 184.213 467.038C181.291 474.229 178.127 481.305 175.054 488.421C172.594 493.719 170.535 499.209 168.895 504.843C167.689 508.533 167.542 512.512 168.472 516.289C169.807 519.797 172.382 522.634 175.663 524.21C182.266 527.902 188.947 526.731 194.78 522.046C201.306 516.802 206.289 509.694 212.445 504.003C220.358 496.687 229.69 491.825 240.381 491.375C247.751 491.114 255.106 492.223 262.106 494.65C267.321 496.282 272.086 499.197 276.002 503.152C278.701 506.078 280.622 509.692 281.575 513.634C282.527 517.577 282.478 521.711 281.432 525.628C280.53 529.674 278.504 533.35 275.609 536.195C270.592 540.702 263.194 540.136 257.035 539.701C253.286 539.435 249.546 539.053 245.795 538.803C243.349 538.462 240.875 538.403 238.417 538.627C236.508 539.018 234.729 539.918 233.249 541.238C229.196 544.64 226.161 549.417 223.201 553.811C214.143 567.257 205.528 581.188 193.908 592.444C187.761 598.615 180.595 603.566 172.757 607.058C164.158 610.64 154.813 611.812 145.648 610.46C133.842 608.799 122.707 603.656 112.561 597.299C111.736 596.781 109.119 598.052 109.774 598.459C120.274 605.043 131.745 610.334 143.972 612.015C153.38 613.328 162.952 612.263 171.885 608.908C188.326 602.695 201.039 589.238 211.482 575.032C216.151 568.682 220.435 562.042 224.812 555.469C227.881 550.861 230.962 545.793 235.045 542.072C235.674 541.477 236.361 540.953 237.094 540.509C237.351 540.341 237.63 540.212 237.921 540.127C237.731 540.201 238.395 540.081 238.093 540.088C245.338 539.95 252.57 541.267 259.809 541.47C265.694 541.632 272.022 541.065 276.954 537.365C280.292 534.669 282.742 530.952 283.965 526.731C285.219 522.985 285.574 518.974 284.999 515.051C284.423 511.128 282.935 507.413 280.665 504.233C273.186 494.027 259.191 490.72 247.598 489.912C236.42 489.024 225.287 492.149 216.035 498.77C208.619 504.105 202.921 511.339 196.553 517.886C194.26 520.506 191.519 522.655 188.47 524.22C187.05 524.778 185.532 525.015 184.018 524.914C182.503 524.814 181.027 524.379 179.685 523.638C176.158 521.975 172.754 519.426 171.477 515.446C170.211 511.508 171.069 507.184 172.172 503.325C173.971 497.574 176.141 491.958 178.667 486.515C181.91 479.052 185.204 471.611 188.216 464.044C192.844 452.416 198.461 439.402 195.1 426.564C190.806 410.16 172.623 403.861 158.5 410.477C154.836 412.198 151.595 414.769 149.022 417.995C146.45 421.221 144.613 425.017 143.651 429.096C142.223 434.959 142.594 441.113 142.434 447.107C142.348 454.551 141.768 461.98 140.698 469.34C139.149 478.93 134.599 495.357 122.235 493.337C118.093 492.661 115.698 488.898 114.42 485.031C112.8 479.288 112.061 473.314 112.229 467.329C112.024 450.481 114.095 433.634 115.114 416.844C115.798 405.558 115.715 393.706 109.809 383.774C101.586 369.942 84.6279 367.18 71.3804 374.603C64.767 378.284 59.646 384.338 56.959 391.653C53.5999 400.955 54.7646 411.02 57.8526 420.205C62.7567 434.951 66.1736 450.193 68.0476 465.682C68.9474 472.399 69.3667 479.177 69.3021 485.959C69.2107 490.505 68.983 495.647 67.0301 499.812C66.5906 500.909 65.8433 501.842 64.8868 502.486C63.2947 503.082 60.8075 501.838 59.4664 500.767C54.7909 497.017 52.7172 490.15 51.2196 484.464C49.0855 475.764 47.7226 466.876 47.1481 457.914C46.9299 453.346 45.9378 448.856 44.218 444.651C38.6753 432.101 23.8962 423.839 11.55 431.427C4.86128 435.539 1.61833 443.31 0.540444 451.061C-1.48833 465.625 2.57542 480.359 6.45178 494.197C14.3501 522.385 25.2002 551.408 43.8758 573.839C55.5172 587.821 70.9777 598.859 88.9921 600.674C96.5022 601.384 104.073 600.664 111.338 598.55C113.097 598.048 112.783 596.721 110.997 597.23Z" fill="black"/>
<path d="M110.719 576.001C113.351 559.526 125.276 544.831 140.81 540.387C141.076 540.311 142.34 539.924 142.169 539.438C141.999 538.952 140.825 539.245 140.537 539.328C123.983 544.063 110.607 558.674 107.761 576.528C107.632 577.338 110.59 576.805 110.719 576.001Z" fill="black"/>
<path d="M83.3425 548.215C88.8608 548.107 94.3065 549.544 99.116 552.376C103.926 555.208 107.924 559.333 110.698 564.324C111.228 565.296 114.092 564.221 113.689 563.485C110.729 558.191 106.461 553.827 101.333 550.853C96.2055 547.879 90.4067 546.404 84.5458 546.582C83.9635 546.602 82.8686 546.79 82.5635 547.405C82.2584 548.021 82.8159 548.227 83.3378 548.215L83.3425 548.215Z" fill="black"/>
<path d="M465.326 424.68C461.784 425.179 458.281 425.946 454.844 426.974C434.177 432.878 408.938 444.401 391.178 456.895C384.13 438.634 378.688 433.729 367.26 426.601C404.583 418.841 438.625 415.164 463.898 415.099C465.036 418.146 465.523 421.415 465.326 424.68Z" fill="black"/>
<path d="M465.987 424.111C455.584 425.513 445.349 429.258 435.569 433.102C425.289 437.121 415.271 441.838 405.579 447.222C400.258 450.19 395.048 453.391 390.042 456.9L392.675 456.477C389.999 449.587 386.965 442.623 382.222 436.993C378.274 432.645 373.704 428.964 368.675 426.084L366.972 427.108C392.727 421.587 418.821 417.96 445.061 416.254C451.008 415.909 456.963 415.704 462.921 415.682L462.406 415.521C463.517 418.575 464.005 421.839 463.837 425.103C463.813 425.399 466.755 425.13 466.829 424.264C466.996 421 466.509 417.736 465.398 414.681C465.344 414.519 464.994 414.519 464.886 414.519C440.447 414.873 416.071 417.211 391.978 421.513C383.814 422.88 375.675 424.409 367.563 426.099C367.421 426.128 365.344 426.804 365.852 427.123C370.939 430.018 375.549 433.747 379.508 438.168C384.103 443.731 387.067 450.572 389.689 457.324C389.931 457.945 391.977 457.141 392.322 456.901C403.208 449.423 414.74 443.028 426.766 437.8C432.878 435.08 439.091 432.606 445.397 430.424C451.651 428.066 458.105 426.336 464.672 425.257C465.124 425.197 466.465 425.035 466.685 424.536C466.905 424.037 466.496 424.043 465.987 424.111Z" fill="black"/>
<path d="M560.102 530.489C561.479 548.612 539.334 583.529 507.704 583.529C479.663 583.529 445.233 569.474 433.788 524.675C432.242 518.506 431.171 512.218 430.584 505.87C423.974 436.535 461.858 414.804 479.82 414.804C501.903 414.804 503.132 464.287 527.217 485.922C550.598 496.91 558.276 506.458 560.102 530.489Z" fill="black"/>
<path d="M558.606 530.907C559.035 537.18 556.966 543.53 554.387 549.1C550.979 556.381 546.305 562.935 540.604 568.426C534.569 574.44 527.232 578.836 519.22 581.239C511.823 583.312 504.013 582.979 496.488 581.875C481.646 579.894 467.732 573.234 456.594 562.782C442.408 549.083 435.156 529.77 432.589 510.073C428.667 479.871 432.58 442.373 458.453 423.423C464.548 418.955 473.058 414.675 480.754 415.7C486.208 416.432 490.19 420.873 493.084 425.43C496.984 431.57 499.629 438.56 502.33 445.331C505.255 453.104 508.576 460.706 512.279 468.107C514.124 471.67 516.217 475.087 518.54 478.331C519.668 479.889 520.871 481.388 522.144 482.82C523.368 484.443 524.862 485.822 526.554 486.891C533.929 490.552 541.411 494.325 547.307 500.372C552.094 505.418 555.409 511.785 556.865 518.728C557.74 522.735 558.317 526.807 558.594 530.907C558.66 531.763 561.669 531.139 561.586 530.07C560.951 521.97 559.63 513.662 555.625 506.569C551.77 500.243 546.441 495.046 540.138 491.467C538.255 490.304 536.328 489.217 534.374 488.188C532.03 487.251 529.799 486.028 527.728 484.546C524.657 481.654 521.946 478.369 519.66 474.768C515.035 467.382 511.144 459.522 508.045 451.309C505.012 443.843 502.268 436.191 498.587 429.036C495.901 423.816 492.524 418.359 487.292 415.634C479.536 411.593 469.095 415.425 461.974 419.305C451.854 425.032 443.586 433.771 438.214 444.414C429.935 460.29 427.728 478.92 428.428 496.768C429.282 518.529 434.367 540.831 448.123 557.767C458.471 570.164 472.389 578.71 487.782 582.118C494.878 583.853 502.167 584.572 509.449 584.255C518.107 583.714 526.493 580.894 533.83 576.056C546.463 567.828 557.463 553.908 560.855 538.516C561.497 535.754 561.743 532.908 561.584 530.07C561.541 529.221 558.532 529.835 558.606 530.907Z" fill="black"/>
<path d="M735.427 409.544C716.626 404.877 674.076 389.578 674.076 389.578C700.912 442.901 669.05 603.267 555.64 561.209C562.919 552.683 567.327 542.589 567.327 532.517C567.327 501.525 549.672 484.357 527.216 485.93C526.609 551.178 447.034 552.087 433.801 524.675L433.785 524.675C437.926 540.888 445.09 553.057 453.859 562.008C406.996 565.176 314.527 601.565 304.135 687.771C318.953 724.948 331.219 778.106 365.369 824.569C348.609 725.09 324.019 598.341 470.215 574.336C481.837 580.471 494.688 583.622 507.705 583.529C521.908 583.421 535.695 578.507 547.005 569.521C599.878 616.039 737.668 592.8 735.427 409.544Z" fill="url(#paint0_linear)"/>
<path d="M736.305 408.548C717.43 403.832 698.937 397.061 680.563 390.576C678.693 389.917 676.823 389.253 674.954 388.583C674.068 388.259 672.08 389.004 672.701 390.245C678.886 402.612 680.909 417.239 681.406 431.025C681.952 448.202 680.122 465.372 675.972 482.001C671.949 499.211 665.001 515.523 655.459 530.16C646.211 543.93 633.821 555.547 618.755 561.82C601.436 569.03 582.265 568.152 564.576 562.905C561.863 562.095 559.179 561.193 556.523 560.213L556.881 561.611C562.5 555.268 566.409 547.478 568.209 539.038C569.398 531.386 568.996 523.557 567.029 516.083C564.132 504.111 557.064 493.333 546.093 488.167C540.203 485.492 533.778 484.358 527.375 484.864C526.824 484.9 525.721 485.35 525.712 486.071C525.827 496.857 523.036 507.46 517.659 516.664C512.882 524.25 506.217 530.328 498.382 534.244C483.694 541.654 466.81 542.724 451.374 537.225C444.869 534.772 438.434 530.629 435.184 524.008C435.076 523.886 434.947 523.788 434.803 523.719C434.658 523.651 434.502 523.613 434.344 523.609L434.329 523.609C433.643 523.609 432.006 524.006 432.297 525.095C435.719 539.276 442.689 552.248 452.492 562.678L454.02 560.945C436.843 562.398 419.95 566.388 403.843 572.797C384.266 580.096 365.958 590.685 349.639 604.148C332.699 618.388 318.521 636.397 310.243 657.548C308.119 662.975 306.382 668.56 305.044 674.255C304.332 677.297 303.734 680.366 303.25 683.46C302.88 684.915 302.672 686.41 302.63 687.915C302.975 689.401 303.503 690.834 304.2 692.178C308.966 704.607 313.122 717.288 317.519 729.856C327.847 759.414 339.591 788.59 356.667 814.666C359.02 818.259 361.465 821.783 364.001 825.239C364.694 826.185 367.091 825.447 366.873 824.154C362.917 800.679 358.81 777.204 356.314 753.497C353.87 730.271 352.854 706.609 356.043 683.403C358.998 661.894 365.929 640.768 378.867 623.53C393.79 603.646 415.192 590.806 437.962 583.192C445.247 580.78 452.655 578.794 460.151 577.245C462.138 576.828 464.129 576.44 466.125 576.079C466.992 575.917 467.867 575.71 468.742 575.62C469.987 575.666 471.194 576.08 472.223 576.813C476.394 578.817 480.723 580.435 485.163 581.65C502.561 586.408 521.134 585.572 537.353 577.057C541.085 575.094 544.641 572.787 547.981 570.163L545.843 570.381C557.104 580.249 571.121 586.267 585.454 589.173C601.705 592.383 618.426 591.9 634.482 587.757C652.299 583.2 668.876 574.422 682.934 562.098C699.208 547.499 712.014 529.142 720.34 508.477C731.538 481.464 736.107 451.862 736.858 422.571C736.97 418.18 736.998 413.789 736.942 409.397C736.925 407.85 733.908 408.388 733.922 409.679C734.261 439.801 731.061 470.454 721.068 498.867C713.609 520.089 702.27 539.892 686.582 555.567C673.504 568.67 657.678 578.392 640.369 583.958C624.771 588.956 608.321 590.347 592.158 588.036C577.746 586.136 563.995 580.586 552.098 571.867C550.756 570.846 549.448 569.777 548.174 568.659C547.834 568.485 547.453 568.413 547.076 568.451C546.698 568.49 546.339 568.638 546.037 568.878C538.704 574.661 530.287 578.759 521.335 580.905C512.051 582.919 502.476 582.983 493.168 581.093C488.306 580.196 483.536 578.822 478.92 576.991C476.597 576.066 474.314 575.011 472.083 573.848C470.244 572.892 468.398 573.594 466.433 573.949C458.723 575.315 451.086 577.1 443.553 579.295C420.013 586.246 397.276 598.094 380.719 617.337C366.668 633.666 358.287 654.167 354.324 675.59C350.102 698.417 350.461 721.965 352.434 745.031C354.483 768.976 358.423 792.686 362.422 816.341C362.909 819.221 363.396 822.102 363.882 824.983L366.753 823.896C348.208 798.571 335.2 769.705 324.423 740.009C319.8 727.274 315.557 714.392 310.998 701.633C309.927 698.641 308.832 695.659 307.713 692.686C307.237 691.428 306.754 690.175 306.265 688.926C305.755 687.352 305.711 685.654 306.136 684.053C307.034 678.017 308.375 672.063 310.147 666.243C316.746 644.617 329.583 625.722 345.673 610.664C361.2 596.479 378.942 585.19 398.125 577.292C414.222 570.286 431.172 565.657 448.488 563.537C450.228 563.343 451.97 563.185 453.715 563.066C454.251 563.028 456.051 562.163 455.244 561.332C445.556 551.048 438.668 538.246 435.289 524.247L433.257 525.733C432.359 525.733 432.507 525.535 432.975 526.371C433.166 526.714 433.367 527.05 433.578 527.38C434.007 528.051 434.473 528.696 434.971 529.311C435.987 530.556 437.107 531.703 438.318 532.738C441.032 535.018 444.049 536.873 447.273 538.246C454.711 541.378 462.678 542.907 470.695 542.743C488.458 542.668 507.077 535.535 518.133 520.449C525.432 510.489 528.582 498.206 528.74 485.781L527.078 486.988C532.377 486.544 537.702 487.398 542.63 489.483C547.558 491.567 551.955 494.824 555.47 498.995C563.489 508.736 566.822 523.167 565.691 535.813C564.843 545.242 560.327 553.794 554.423 560.798C554.315 560.897 554.236 561.026 554.195 561.17C554.154 561.314 554.151 561.468 554.189 561.613C554.226 561.758 554.301 561.89 554.405 561.993C554.51 562.096 554.64 562.167 554.781 562.197C573.312 569.027 593.605 571.828 612.759 566.106C628.727 561.056 642.851 551.048 653.257 537.41C664.245 523.442 671.821 506.792 676.885 489.581C681.922 472.494 684.505 454.72 684.55 436.839C684.565 422.072 683.014 406.586 677.319 392.925C676.751 391.561 676.13 390.223 675.47 388.904L673.201 390.577C688.428 396.051 703.738 401.323 719.171 406.129C724.266 407.714 729.38 409.256 734.552 410.549C735.738 410.839 738.091 408.993 736.305 408.548Z" fill="black"/>
<path d="M726.542 627.301C734.848 688.742 658.887 638.714 658.887 638.714C652.139 620.454 644.386 596.066 633.665 570.25C616.784 529.613 592.513 485.483 553.223 456.333C536.558 443.945 517.846 434.888 498.032 429.619C496.83 424.877 494.158 420.685 490.434 417.701C517.309 421.49 542.006 428.069 565.346 439.065C605.824 458.102 640.801 487.283 669.565 524.254C692.682 553.964 711.807 588.72 726.542 627.301Z" fill="white"/>
<path d="M725.046 627.719C726.109 635.759 726.702 646.522 720.633 652.764C716.149 657.375 709.279 657.462 703.442 656.594C689.724 654.566 676.535 647.818 664.596 640.731C663.174 640.03 661.815 639.195 660.536 638.238C659.916 637.684 660.192 637.77 659.806 636.715C658.509 633.17 657.246 629.611 655.994 626.051C649.884 608.686 643.881 591.282 636.977 574.24C624.915 544.475 610.216 515.483 590.317 490.582C569.362 464.356 542.617 443.724 511.555 432.678C507.402 431.2 503.199 429.892 498.948 428.752L499.535 429.208C498.271 424.408 495.57 420.159 491.827 417.085L489.53 418.58C511.611 421.47 533.281 427.117 554.078 435.401C573.006 443.27 590.992 453.424 607.67 465.654C641.464 490.258 669.591 522.712 691.637 558.965C704.785 580.753 715.972 603.77 725.053 627.721C725.483 628.847 728.441 627.918 728.045 626.883C712.017 585.021 690.04 545.408 661.236 511.722C634.097 479.981 600.856 453.775 563.404 436.854C540.465 426.486 516.059 420.345 491.35 416.836C490.941 416.777 488.031 417.484 489.053 418.329C492.689 421.291 495.316 425.4 496.542 430.047C496.614 430.316 496.9 430.44 497.128 430.502C530.579 439.553 559.891 459.302 582.854 486.15C604.032 510.912 619.57 540.337 632.176 570.67C639.477 588.24 645.758 606.23 652.061 624.21C653.37 627.946 654.685 631.68 656.031 635.401C656.519 636.749 656.841 638.688 657.9 639.613C659.011 640.442 660.187 641.172 661.415 641.795C673.443 649.025 686.704 655.798 700.5 658.157C707.057 659.28 714.427 659.372 720.272 655.589C726.948 651.267 728.745 642.954 728.678 635.244C728.638 632.444 728.427 629.65 728.045 626.878C727.893 625.788 724.887 626.509 725.046 627.719Z" fill="black"/>
<path d="M717.537 712.205C776.679 766.343 841.422 641.151 858.967 608.579C881.999 565.821 844.503 533.933 827.857 578.2C819.985 599.133 798.785 627.194 785.95 616.836C778.649 610.944 794.622 587.847 808.293 557.849C834.394 500.534 775.803 474.522 767.551 524.609C761.357 562.252 749.531 605.728 734.874 605.412C720.217 605.096 735.069 554.059 737.081 540.823C743.555 498.229 686.102 497.2 689.962 542.404C694.209 592.12 685.099 617.821 672.636 616.007C664.962 614.889 668.087 591.772 639.452 580.604C616.686 571.723 591.539 585.601 592.731 602.286C594.549 627.692 621.884 619.619 635.018 625.127C643.239 628.583 645.885 640.59 645.024 651.604C642.052 689.685 650.637 726.362 717.537 712.205Z" fill="white"/>
<path d="M716.14 712.793C722.939 719.285 731.284 723.741 740.299 725.691C748.43 727.085 756.766 726.282 764.516 723.358C782.343 716.993 797.004 702.707 809.289 688.253C822.37 672.453 834.089 655.473 844.307 637.51C848.413 630.497 852.361 623.386 856.232 616.227C860.987 607.427 865.799 598.697 867.264 588.525C868.614 579.158 867.36 568.232 860.722 561.186C858.121 558.467 854.721 556.742 851.07 556.288C847.418 555.835 843.726 556.68 840.589 558.687C830.236 564.83 827.464 577.479 822.253 587.704C819.164 593.802 815.476 599.547 811.248 604.845C807.571 609.423 803.308 614.014 798.137 616.726C794.585 618.589 789.904 619.114 786.881 615.814C784.558 613.285 785.859 608.859 786.757 605.995C788.727 600.314 791.141 594.811 793.974 589.544C797.598 582.305 801.364 575.143 804.932 567.872C810.791 555.929 816.392 543.7 816.447 529.993C816.707 521.282 813.958 512.764 808.703 506C806.571 503.349 803.929 501.196 800.95 499.682C797.97 498.168 794.72 497.326 791.409 497.211C787.999 497.208 784.632 498 781.552 499.532C778.473 501.064 775.759 503.296 773.61 506.065C766.486 515.057 765.815 527.235 763.675 538.207C760.722 553.346 757.18 568.58 751.623 582.933C749.656 588.452 747.011 593.679 743.756 598.485C741.907 601.051 739.046 604.698 735.627 604.628C728.92 604.49 729.864 591.746 730.152 587.417C731.107 576.969 732.825 566.612 735.291 556.438C737.053 548.317 739.592 539.914 739.025 531.5C738.869 527.616 737.85 523.823 736.048 520.424C734.246 517.024 731.711 514.11 728.644 511.914C725.764 510.047 722.559 508.795 719.214 508.231C715.869 507.667 712.45 507.803 709.155 508.631C705.615 509.444 702.276 511.02 699.351 513.259C696.426 515.498 693.979 518.351 692.168 521.634C686.512 532.067 688.776 543.796 689.279 555.168C689.88 568.776 689.744 582.81 686.727 596.131C685.857 600.409 684.42 604.538 682.459 608.401C681.224 611.07 679.25 613.289 676.794 614.769C671.736 617.262 669.551 610.849 667.858 606.941C663.928 597.869 658.603 590.119 650.358 584.812C644.623 580.99 638.16 578.522 631.42 577.58C624.68 576.638 617.824 577.244 611.331 579.358C601.884 582.573 590.888 590.39 591.218 602.059C591.222 607.177 593.062 612.108 596.375 615.876C599.425 618.799 603.19 620.781 607.252 621.601C611.744 622.573 616.3 623.194 620.88 623.459C625.079 623.602 629.242 624.325 633.26 625.608C639.283 627.92 642.029 634.468 643.092 640.653C644.112 646.603 643.39 652.497 643.153 658.473C642.626 667.146 643.308 675.854 645.179 684.322C646.88 692.061 650.669 699.128 656.096 704.682C662.52 710.93 671.031 714.089 679.599 715.352C692.123 717.199 704.997 715.548 717.311 712.968C717.747 712.875 718.985 712.611 719.031 711.983C719.078 711.354 718.178 711.366 717.775 711.45C698.355 715.521 672.103 718.638 657.11 701.647C646.194 689.277 645.34 670.568 646.297 654.668C646.94 643.927 647.089 628.15 635.091 624.006C626.99 621.208 618.13 622.168 609.847 620.241C605.679 619.482 601.828 617.42 598.802 614.325C597.159 612.324 595.911 610.004 595.127 607.497C594.344 604.99 594.042 602.346 594.238 599.716C595.167 587.121 608.807 580.262 619.327 578.925C626.004 578.237 632.744 579.127 639.048 581.53C645.353 583.934 651.06 587.789 655.747 592.81C658.793 596.18 661.327 600.017 663.262 604.189C664.671 607.145 665.752 610.311 667.37 613.154C667.814 614.145 668.49 615.002 669.335 615.647C670.181 616.292 671.168 616.703 672.205 616.843C674.832 617.074 677.458 616.383 679.667 614.878C685.433 611.012 687.957 603.091 689.526 596.513C692.516 583.975 692.814 570.715 692.417 557.864C692.053 546.069 689.165 533.348 694.585 522.312C696.048 519.133 698.199 516.356 700.868 514.199C703.537 512.043 706.649 510.568 709.959 509.891C713.268 509.213 716.683 509.353 719.932 510.298C723.18 511.243 726.174 512.968 728.673 515.336C741.644 527.648 734.184 547.727 731.072 562.753C729.071 572.411 727.071 582.337 727.01 592.261C726.978 597.788 727.654 606.381 734.675 606.207C743.228 605.997 748.435 596.29 751.71 589.298C757.725 576.468 761.33 562.341 764.409 548.474C766.162 540.603 767.661 532.676 768.993 524.717C769.716 519.738 771.229 514.92 773.468 510.461C776.701 504.356 782.188 499.097 789.146 498.797C795.651 498.52 801.739 502.125 805.903 507.157C811.369 513.758 813.558 522.661 813.45 531.255C813.277 545.127 807.255 557.582 801.305 569.631C797.847 576.631 794.214 583.536 790.729 590.521C788.002 595.619 785.677 600.942 783.779 606.436C782.87 609.339 781.778 613.303 783.469 616.13C785.378 619.321 789.91 620.138 793.193 619.729C803.678 618.433 812.067 607.965 817.84 599.642C821.512 594.35 824.7 588.71 827.362 582.794C830.015 576.878 831.968 570.767 835.88 565.562C838.438 562.16 841.865 558.834 846.042 557.914C847.75 557.598 849.502 557.659 851.186 558.093C852.87 558.527 854.448 559.325 855.82 560.435C863.231 566.113 865.342 576.903 864.622 585.956C863.779 596.539 859.181 605.655 854.301 614.725C846.022 630.115 837.354 645.277 827.729 659.788C816.383 676.896 803.74 693.632 788.298 706.916C775.492 717.931 759.319 727.405 742.172 724.141C733.495 722.222 725.471 717.898 718.941 711.62C718.217 710.97 715.451 712.161 716.14 712.793Z" fill="black"/>
<path d="M706.052 649.67C713.274 654.177 718.753 661.195 721.531 669.498C724.309 677.802 724.209 686.862 721.249 695.096C721.023 695.723 723.903 695.406 724.205 694.568C727.205 686.237 727.313 677.069 724.509 668.664C721.705 660.259 716.168 653.151 708.864 648.581C708.11 648.113 705.595 649.391 706.052 649.67Z" fill="black"/>
<path d="M726.998 684.691C728.882 680.762 732.17 677.769 736.15 676.361C738.359 675.71 740.677 675.574 742.941 675.963C745.205 676.352 747.359 677.257 749.252 678.613C749.558 678.774 749.896 678.857 750.238 678.855C750.581 678.854 750.918 678.767 751.222 678.603C751.451 678.504 752.596 677.808 752.038 677.42C749.782 675.894 747.249 674.869 744.598 674.408C741.947 673.947 739.234 674.061 736.626 674.742C734.019 675.423 731.573 676.657 729.44 678.367C727.307 680.077 725.533 682.227 724.227 684.684C723.608 685.933 726.57 685.546 726.998 684.684L726.998 684.691Z" fill="black"/>
<path d="M431.451 378.353C444.344 392.197 458.243 409.761 465.318 424.685C455.36 435.853 451.099 450.706 454.649 457.39C463.215 473.517 491.263 443.493 488.322 420.576C479.971 402.493 469.513 385.559 457.186 370.162C445.018 373.261 431.451 378.353 431.451 378.353Z" fill="white"/>
<path d="M430.057 378.925C436.572 385.894 442.739 393.209 448.535 400.842C451.301 404.508 453.968 408.26 456.472 412.128C457.739 414.084 458.957 416.073 460.128 418.095C461.376 419.964 462.443 421.958 463.315 424.048C463.71 425.234 463.215 425.553 462.459 426.478C461.84 427.234 461.245 428.008 460.675 428.801C459.397 430.57 458.226 432.42 457.167 434.341C455.282 437.69 453.83 441.285 452.849 445.033C451.58 450.055 451.055 456.333 454.922 460.307C457.85 463.318 462.2 463.078 465.823 461.765C470.562 459.812 474.766 456.662 478.057 452.595C482.219 447.823 485.483 442.272 487.678 436.234C488.759 433.294 489.487 430.225 489.846 427.098C490.002 425.681 490.062 424.254 490.027 422.828C490.031 422.081 489.979 421.336 489.872 420.597C489.531 419.364 489.038 418.182 488.406 417.082C480.236 400.109 470.231 384.174 458.586 369.589C458.296 369.219 457.37 369.443 457.026 369.532C448.186 371.835 439.466 374.613 430.9 377.856C430.522 377.997 429.721 378.411 430.054 378.922C430.364 379.408 431.653 378.978 432.006 378.845C440.315 375.707 448.774 373.018 457.348 370.791L455.787 370.733C462.901 379.73 469.451 389.2 475.395 399.082C478.957 405.076 482.267 411.245 485.256 417.578C486.048 418.897 486.613 420.351 486.925 421.874C487.036 423.069 487.069 424.271 487.024 425.47C486.923 427.805 486.585 430.121 486.016 432.381C483.696 441.604 478.783 449.887 471.912 456.156C467.449 460.158 460.271 464.232 456.314 457.269C453.87 452.966 454.954 447.212 456.325 442.738C458.491 435.989 462.031 429.812 466.701 424.633C466.749 424.586 466.785 424.527 466.806 424.462C466.828 424.396 466.833 424.327 466.823 424.259C458.494 406.863 445.738 391.634 432.861 377.775C432.233 377.114 429.424 378.246 430.057 378.925Z" fill="black"/>
<path d="M480.961 93.8444C452.704 68.362 377.043 13.6648 322.3 3.72454C265.167 -6.6531 320.793 16.9841 347.333 40.1888C373.873 63.3935 268.9 21.1281 197.992 24.4426C127.083 27.757 263.75 62.151 295.836 79.1398C327.922 96.1286 242.358 66.2949 182.147 77.4826C121.936 88.6702 238.002 102.754 265.731 116.848C293.46 130.942 224.364 118.954 191.654 125.551C126.689 138.648 244.339 138.648 304.947 184.39C352.482 156.207 480.961 93.8444 480.961 93.8444Z" fill="url(#paint1_linear)"/>
<path d="M482.124 92.9858C464.015 77.038 444.777 62.5468 424.577 49.6366C400.211 33.6959 374.512 19.0188 347.221 9.33292C334.526 4.77954 321.366 1.7894 308.009 0.422991C304.828 0.108714 300.525 -0.591121 297.533 1.02725C295.348 2.20984 295.797 4.18946 297.211 5.83537C299.687 8.40874 302.458 10.6502 305.463 12.5081C310.017 15.6703 314.688 18.6462 319.325 21.6756C324.498 25.0549 329.655 28.4682 334.685 32.0759C339.165 35.1251 343.426 38.5123 347.435 42.2106C348.196 42.9122 348.884 43.6951 349.489 44.5466C349.744 44.9324 349.926 45.3665 350.023 45.8248C350.062 46.0451 350.037 45.8798 350.08 45.8717C349.845 45.9437 349.606 45.9978 349.363 46.0337C348.9 46.0834 348.435 46.1088 347.969 46.1099C341.671 46.1374 334.552 44.2453 328.207 42.8699C304.269 37.6681 280.482 31.7795 256.307 27.8332C242.765 25.5181 229.106 24.0284 215.399 23.3717C205.393 22.9667 195.021 22.8258 185.125 24.7082C182.578 25.1942 175.875 26.3881 176.37 30.4333C176.801 33.9486 181.988 36.3576 184.544 37.7491C190.982 41.1008 197.613 44.0295 204.399 46.5181C213.19 49.9314 222.078 53.0726 230.976 56.1749C248.507 62.2871 266.222 67.9813 283.46 74.9667C289.265 77.0526 294.833 79.7982 300.065 83.1541C300.386 83.3793 300.696 83.6142 300.995 83.8702C301.096 83.9505 301.188 84.0423 301.27 84.1439C301.337 84.1213 301.137 84.2476 301.3 84.1326C301.462 84.0176 301.538 83.726 301.671 83.5802C301.953 83.2724 302.34 83.3971 301.911 83.402C301.088 83.4236 300.264 83.3982 299.443 83.3258C298.03 83.2011 296.623 83.0018 295.218 82.8091C285.802 81.4677 276.439 79.7311 267.032 78.333C253.868 76.3891 240.627 74.8452 227.339 74.181C213.346 73.284 199.303 73.8527 185.418 75.8788C180.861 76.5421 176.352 77.5282 171.923 78.8304C169.479 79.4235 167.17 80.5091 165.124 82.0266C161.757 84.9134 164.833 87.7922 167.631 89.3522C173.377 92.5565 179.968 94.2802 186.215 96.033C204.578 101.18 223.263 104.959 241.658 109.95C249.042 111.733 256.279 114.129 263.298 117.116C265.649 118.196 268.705 119.455 270.397 121.574C270.489 121.695 270.569 121.826 270.634 121.964C270.78 122.217 270.568 121.956 270.668 122.029C270.63 122 270.823 122.018 270.5 122.118C270.176 122.219 270.623 122.095 270.227 122.223C269.777 122.367 269.318 122.476 268.853 122.547C265.375 123.009 261.867 123.176 258.362 123.046C253.363 123.024 248.366 122.86 243.368 122.722C231.621 122.387 219.847 122.035 208.103 122.648C198.561 123.088 189.095 124.642 179.883 127.281C177.89 127.864 170.117 129.687 171.238 133.346C171.658 134.717 173.292 135.512 174.428 136.073C176.783 137.17 179.217 138.071 181.707 138.767C189.605 141.179 197.659 143.056 205.644 145.107C228.47 150.97 251.285 157.471 272.878 167.316C283.756 172.143 294.113 178.162 303.778 185.273C304.057 185.425 304.368 185.502 304.682 185.5C304.997 185.497 305.306 185.414 305.583 185.259C317.226 178.364 329.123 171.946 341.048 165.603C355.916 157.695 370.858 149.939 385.877 142.336C400.654 134.807 415.465 127.355 430.31 119.98C441.94 114.192 453.583 108.437 465.241 102.715C470.588 100.091 476.14 97.7211 481.365 94.8359C481.44 94.7937 481.52 94.7597 481.595 94.7225C483.453 93.8201 481.791 92.2925 480.306 93.0182C475.937 95.1383 471.573 97.2691 467.215 99.4107C456.116 104.848 445.031 110.318 433.959 115.82C419.346 123.061 404.758 130.375 390.193 137.762C375.109 145.419 360.073 153.185 345.087 161.058C332.616 167.643 320.172 174.306 307.953 181.392C306.733 182.1 305.516 182.814 304.303 183.532L306.11 183.517C286.301 168.626 262.891 159.426 239.69 152.13C229.142 148.812 218.473 145.925 207.787 143.175C199.751 141.109 191.654 139.219 183.703 136.808C181.335 136.154 179.014 135.321 176.761 134.317C176.046 134.004 175.373 133.597 174.757 133.106C174.482 132.884 174.278 132.58 174.171 132.235C174.191 132.313 174.236 132.028 174.196 132.104C174.315 131.874 174.157 132.018 174.534 131.674C174.292 131.895 174.956 131.376 175.122 131.271C175.004 131.346 175.883 130.877 176.158 130.751C178.862 129.63 181.657 128.766 184.509 128.17C205.927 122.957 228.036 124.524 249.835 125.055C254.241 125.162 258.663 125.262 263.063 125.12C265.855 125.213 268.644 124.835 271.322 124C277.803 121.443 268.486 116.74 266.142 115.602C259.454 112.603 252.529 110.218 245.446 108.475C236.195 105.91 226.862 103.681 217.531 101.439C208.351 99.2325 199.158 97.065 190.042 94.575C183.6 92.8157 176.852 91.1099 170.839 88.0578C169.24 87.4587 167.834 86.4031 166.779 85.0106C166.624 84.6986 166.569 84.3421 166.625 83.9949C166.839 83.4865 167.219 83.0739 167.696 82.8301C170.036 81.523 172.548 80.5841 175.15 80.0437C180.526 78.6968 185.981 77.7227 191.479 77.1278C218.117 74.0498 245.199 77.1877 271.573 81.3057C280.016 82.6244 288.441 84.3076 296.929 85.2941C298.819 85.6955 300.766 85.7065 302.66 85.3265C304.498 84.7336 304.707 83.3177 303.329 82.1076C301.232 80.4739 298.959 79.1022 296.558 78.0204C293.835 76.6061 291.032 75.3587 288.215 74.1681C280.592 70.9491 272.81 68.1385 265.03 65.3731C246.806 58.8932 228.42 52.8992 210.311 46.0726C203.177 43.5034 196.17 40.5622 189.317 37.2599C186.273 35.7355 180.914 33.4157 179.547 30.2794C179.082 29.2102 179.503 28.7857 180.321 28.2981C180.984 27.9611 181.672 27.6794 182.378 27.4557C183.626 27.0834 184.895 26.7944 186.178 26.5906C196.63 25.1317 207.199 24.8173 217.713 25.6527C244.578 27.1107 271.161 32.4388 297.42 38.2886C307.858 40.6165 318.264 43.108 328.724 45.3323C334.976 46.6623 341.618 48.4508 348.051 48.2272C349.6 48.1737 351.7 47.9421 352.668 46.489C353.551 45.167 352.682 43.7172 351.84 42.6382C349.372 39.8337 346.595 37.3453 343.566 35.2252C338.702 31.4036 333.63 27.8785 328.509 24.4474C319.862 18.6543 310.623 13.472 302.515 6.84948C301.43 6.03089 300.445 5.07545 299.582 4.00478C299.334 3.71146 299.141 3.37182 299.012 3.00363C298.913 2.67963 298.984 2.54517 298.955 2.64561C298.955 2.64561 298.901 2.61969 299.305 2.52088C299.923 2.38809 300.55 2.31059 301.181 2.28922C303.402 2.2332 305.623 2.35179 307.827 2.64399C335.588 5.66851 361.568 16.5532 386.219 29.8193C410.829 43.1883 434.403 58.5477 456.726 75.7573C464.616 81.7966 472.388 88.0368 479.801 94.7111C480.732 95.5519 483.39 94.1198 482.124 92.9858Z" fill="black"/>
<path d="M505.029 372.356C504.422 373.5 503.8 374.658 503.162 375.85C492.805 395.467 479.899 419.88 450.334 419.88C417.535 419.88 397.961 402.06 388.591 381.314C333.015 369.957 289.237 335.376 276.344 285.596C262.982 234.02 286.109 179.014 331.708 139.51C346.65 126.658 363.14 115.914 380.757 107.553C392.92 101.74 405.52 96.9852 418.43 93.3357C437.637 87.8473 457.425 84.8912 477.333 84.536C498.341 84.1026 519.29 87.0001 539.469 93.13C586.42 107.695 622.364 139.972 633.844 184.288C653.173 258.928 596.109 340.747 505.029 372.356Z" fill="white"/>
<path d="M503.643 372.343C496.601 385.575 489.705 399.721 478.132 409.311C472.03 414.406 464.701 417.638 456.953 418.652C447.819 419.668 438.582 418.818 429.757 416.149C415.301 411.942 402.795 402.391 394.562 389.269C393.614 387.757 392.726 386.206 391.898 384.618C391.271 383.417 390.707 381.253 389.652 380.535C388.667 380.162 387.636 379.939 386.59 379.873C385.623 379.657 384.656 379.435 383.69 379.208C381.39 378.663 379.101 378.073 376.821 377.439C368.402 375.107 360.158 372.129 352.157 368.529C322.949 355.359 296.949 332.89 283.66 302.139C276.855 286.36 273.598 269.159 274.139 251.858C274.864 234.072 279.052 216.629 286.446 200.595C302.994 163.966 333.031 135.148 366.636 115.87C405.911 93.3456 450.494 82.9488 495.197 85.8887C531.958 88.5163 569.408 101.199 597.367 127.028C620.612 148.503 635.254 178.717 636.07 211.337C636.844 242.224 625.37 272.087 607.938 296.607C587.906 324.777 560.169 346.54 529.845 361.244C521.702 365.187 513.354 368.648 504.84 371.612C503.112 372.215 503.437 373.718 505.22 373.095C533.92 363.336 560.498 347.753 583.433 327.236C603.411 309.061 620.244 286.539 630.126 260.703C639.2 236.98 641.825 210.689 635.82 185.785C629.073 157.795 611.995 133.934 589.778 117.161C563.889 97.6158 532.322 87.4406 500.729 84.5392C462.689 81.3268 424.464 87.6086 389.198 102.868C357.382 116.476 327.948 137.263 305.771 164.913C286.53 188.902 272.77 218.635 271.235 250.254C269.913 279.058 278.946 307.335 296.556 329.522C314.491 352.211 339.701 367.635 366.317 376.45C373.327 378.762 380.455 380.661 387.668 382.137L387.095 381.736C391.244 390.954 397.346 399.064 404.936 405.45C412.527 411.835 421.408 416.329 430.906 418.59C441.985 421.278 454.361 421.978 465.307 418.305C474.464 415.05 482.576 409.199 488.74 401.404C495.932 392.667 501.086 382.388 506.417 372.37C507.078 371.126 504.102 371.483 503.643 372.343Z" fill="black"/>
<path d="M567.971 287.979C567.971 307.866 554.897 328.166 536.675 328.166C502.327 328.166 494.673 364.667 478.909 387.017L478.909 387.031C471.954 396.895 463.435 403.996 450.331 403.996C440.702 404.242 431.17 401.931 422.625 397.279L422.625 397.294L422.625 397.279C415.185 393.028 408.99 386.741 404.702 379.09C401.523 373.461 399.272 367.313 398.043 360.903C395.629 348.132 397.846 331.121 404.3 313.696C411.163 295.195 421.736 278.448 435.307 264.581C445.51 254.11 457.604 245.87 470.885 240.343C481.48 236 492.718 233.624 504.094 233.322C505.051 233.29 506.008 233.275 506.981 233.275C516.658 233.092 526.277 234.883 535.3 238.548C544.797 242.503 552.965 249.305 558.778 258.099C564.592 266.893 567.792 277.288 567.977 287.979L567.971 287.979Z" fill="black"/>
<path d="M566.458 288.104C566.368 302.345 559.733 318.43 546.816 324.735C540.759 327.693 534.2 326.641 527.803 327.955C522.123 329.137 516.756 331.592 512.071 335.153C492.847 349.715 488.32 376.71 472.013 393.495C469.194 396.471 465.838 398.832 462.141 400.441C458.443 402.051 454.477 402.877 450.472 402.872C441.2 403.056 432.03 400.83 423.784 396.392C423.345 396.15 422.835 396.091 422.357 396.225C421.878 396.359 421.465 396.677 421.2 397.116L421.2 397.129L424.143 397.171L424.143 397.156C424.157 397.006 424.131 396.855 424.068 396.72C424.004 396.584 423.906 396.47 423.784 396.39C406.181 386.2 397.467 365.52 398.76 344.991C400.138 323.136 409.104 301.63 421.109 283.901C433.114 266.172 449.224 251.21 468.423 242.582C487.548 233.996 510.8 231.185 530.793 238.182C540.737 241.544 549.486 247.953 555.908 256.577C562.557 265.637 566.256 276.687 566.461 288.107C566.472 289.727 569.498 289.233 569.489 287.857C569.305 277.67 566.433 267.734 561.189 259.147C555.945 250.56 548.534 243.656 539.774 239.199C520.459 229.384 496.33 230.411 476.292 237.173C455.779 244.092 437.956 257.829 424.327 275.163C410.48 292.782 400.093 314.464 396.617 337.092C394.867 348.472 395.189 360.005 399.184 370.841C403.298 382.414 411.189 392.094 421.464 398.17L421.104 397.404L421.104 397.419C420.686 398.901 423.598 398.391 424.047 397.461L424.047 397.448L421.464 398.172C428.496 402.037 436.221 404.326 444.146 404.892C451.88 405.519 459.583 404.858 466.459 400.808C469.476 399.002 472.245 396.777 474.689 394.192C475.895 392.928 477.04 391.602 478.119 390.218C479.149 388.904 480.261 387.321 480.893 386.393C484.194 381.39 487.225 376.198 489.971 370.841C495.784 359.898 501.401 348.195 510.382 339.653C514.759 335.411 520.047 332.331 525.8 330.674C532.412 328.832 539.342 330.011 545.812 327.536C560.952 321.743 569.376 303.968 569.478 287.859C569.496 286.25 566.466 286.725 566.458 288.104Z" fill="black"/>
<path d="M505.032 121.093C492.643 106.32 478.468 80.3986 500.293 71.7236C520.075 63.8601 540.869 73.2366 560.308 88.505C581.259 104.962 599.516 135.268 607.072 153.556C614.628 171.844 613.772 196.863 593.735 206.077C576.069 214.203 555.685 199.871 545.193 181.094C534.7 162.316 520.47 139.501 505.032 121.093Z" fill="white"/>
<path d="M506.425 120.493C499.745 112.489 493.231 102.939 491.026 92.3832C490.097 87.9558 490.097 83.0699 492.42 79.0864C495.463 73.87 501.455 71.6458 506.908 70.5004C521.253 67.5099 535.695 73.5071 547.793 81.1713C559.786 88.865 570.449 98.6235 579.332 110.035C587.479 120.356 594.615 131.506 600.633 143.317C605.542 152.943 609.615 162.932 609.946 173.998C610.284 185.129 606.594 196.678 597.402 203.049C586.589 210.555 573.695 207.493 563.633 200.111C558.448 196.259 553.898 191.549 550.159 186.167C546.162 180.476 543.015 174.1 539.45 168.108C531.531 154.634 522.85 141.666 513.454 129.274C511.171 126.296 508.828 123.37 506.425 120.496C505.779 119.722 502.918 120.832 503.637 121.695C514.222 134.568 523.895 148.23 532.58 162.574C540.352 175.182 546.518 189.32 557.866 198.965C567.337 207.022 579.876 211.875 591.912 207.639C597.172 205.783 601.85 202.467 605.446 198.043C609.042 193.62 611.421 188.257 612.327 182.529C614.306 170.972 611.517 159.431 606.773 149.011C601.206 136.946 594.474 125.508 586.681 114.877C578.015 102.613 567.47 91.9316 555.473 83.2659C543.183 74.6006 528.778 67.3155 513.589 68.098C503.47 68.6196 489.274 72.6615 487.61 85.0447C486.165 95.7917 492.748 106.832 498.556 115.087C500.16 117.367 501.862 119.567 503.64 121.698C504.287 122.47 507.148 121.358 506.425 120.493Z" fill="black"/>
<path d="M301.332 300.456C294.847 300.969 288.697 303.67 283.804 308.152C278.912 312.634 275.542 318.656 274.201 325.313C272.86 331.969 273.619 338.902 276.366 345.068C279.113 351.234 283.698 356.302 289.434 359.509C293.753 361.929 298.592 363.151 303.491 363.058C308.389 362.965 313.183 361.56 317.415 358.978C321.578 356.274 324.908 352.372 327.004 347.739C329.101 343.106 329.877 337.939 329.238 332.857L301.332 300.456Z" fill="white"/>
<path d="M301.487 299.403C286.736 300.741 273.371 313.421 272.203 329.165C271.015 345.171 281.758 360.544 296.923 363.538C300.855 364.357 304.904 364.345 308.832 363.503C312.759 362.66 316.486 361.005 319.793 358.633C322.822 356.355 325.369 353.448 327.275 350.094C329.181 346.739 330.406 343.01 330.872 339.138C331.092 337.144 331.522 333.695 330.417 331.963C329.798 331.135 329.125 330.354 328.403 329.624L319.741 319.565L302.706 299.792C301.871 298.82 299.019 300.033 299.954 301.12L312.359 315.523L321.526 326.167C323.444 328.394 325.613 330.541 327.35 332.929C328.301 334.236 328.049 336.023 327.984 337.677C327.821 341.403 326.88 345.047 325.227 348.352C323.481 351.913 320.945 354.984 317.832 357.309C314.718 359.633 311.117 361.143 307.33 361.712C292.06 363.995 278.546 352.304 275.678 336.898C274.99 332.804 275.115 328.607 276.043 324.566C276.972 320.525 278.685 316.728 281.077 313.409C283.468 310.09 286.486 307.321 289.944 305.274C293.402 303.227 297.225 301.946 301.176 301.511C302.786 301.365 303.541 299.21 301.487 299.403Z" fill="white"/>
<path d="M360.187 150.272C347.057 134.616 332.032 107.141 355.165 97.9462C376.129 89.613 402.308 97.9349 422.91 114.119C445.114 131.561 461.915 157.277 469.924 176.66C477.932 196.043 473.915 225.81 452.679 235.579C433.955 244.191 412.353 229 401.232 209.098C389.381 188.161 375.637 168.462 360.187 150.272Z" fill="white"/>
<path d="M361.581 149.676C354.59 141.302 347.836 131.37 345.364 120.39C344.311 115.708 344.177 110.529 346.476 106.21C349.293 100.914 354.883 98.4938 360.233 97.0552C374.017 93.3487 388.817 96.6016 401.607 102.482C415.298 109.08 427.623 118.416 437.886 129.965C447.613 140.536 455.989 152.381 462.806 165.203C465.665 170.289 468.044 175.654 469.908 181.222C471.529 186.583 472.321 192.181 472.253 197.804C472.145 209.241 468.553 221.352 460.354 229.29C456.011 233.622 450.438 236.358 444.477 237.084C438.151 237.519 431.837 236.049 426.285 232.847C420.305 229.526 414.952 225.095 410.488 219.771C405.65 214.133 402.221 207.621 398.429 201.214C389.807 186.756 380.257 172.927 369.843 159.823C367.138 156.397 364.384 153.015 361.581 149.676C360.94 148.909 358.081 150.017 358.793 150.87C370.571 164.827 381.407 179.625 391.223 195.155C395.605 202.155 399.294 209.725 404.112 216.408C408.376 222.4 413.608 227.566 419.571 231.674C430.389 239.005 443.61 241.449 455.397 235.098C465.843 229.466 472.237 218.446 474.37 206.599C476.379 194.775 474.672 182.588 469.507 171.863C463.342 158.612 455.524 146.275 446.257 135.175C426.963 111.859 398.291 90.666 367.297 94.1895C356.877 95.3737 343.089 99.8189 341.744 112.601C340.551 123.941 347.409 135.402 353.571 144.106C355.223 146.436 356.963 148.691 358.792 150.873C359.437 151.637 362.293 150.529 361.581 149.676Z" fill="black"/>
<path d="M301.966 299.772C283.459 301.451 268.461 319.536 272.982 339.138C274.034 343.839 276.079 348.233 278.967 351.999C281.855 355.765 285.512 358.807 289.671 360.901C294.083 362.963 298.891 363.929 303.719 363.724C308.547 363.519 313.265 362.148 317.502 359.718C322.056 357.067 325.748 353.053 328.106 348.192C330.464 343.33 331.379 337.842 330.734 332.433C330.633 331.72 327.618 332.389 327.742 333.272C328.29 337.598 327.799 341.999 326.311 346.077C324.824 350.154 322.388 353.78 319.224 356.624C311.973 363.171 301.451 363.83 292.853 359.971C277.616 353.13 270.644 332.52 278.432 317.245C282.832 308.617 291.261 301.992 300.696 301.135C301.185 301.091 302.466 300.923 302.692 300.365C302.918 299.808 302.508 299.717 301.964 299.767L301.966 299.772Z" fill="black"/>
<path d="M435.301 264.581C425.673 321.336 411.111 357.695 404.294 313.696C411.157 295.195 421.73 278.448 435.301 264.581Z" fill="white"/>
<path d="M433.824 264.852C431.577 278.047 428.972 291.209 425.487 304.114C423.263 312.343 420.891 321.106 416.562 328.448C415.944 329.55 415.209 330.577 414.372 331.508C414.063 331.84 413.686 332.099 413.375 332.42C413.064 332.741 412.862 332.558 413.335 332.582C411.786 332.522 410.538 330.388 409.867 329.034C408.312 325.549 407.218 321.859 406.615 318.065C406.31 316.785 406.079 315.487 405.924 314.177C406.044 312.431 406.549 310.737 407.399 309.228C408.559 306.381 409.81 303.579 411.153 300.82C417.684 287.323 426.299 275.045 436.652 264.481C437.146 263.979 436.213 263.932 435.938 263.938C435.209 263.949 434.504 264.215 433.937 264.693C424.108 274.72 415.827 286.283 409.389 298.967C407.84 302.01 406.4 305.109 405.068 308.264C404.441 309.755 403.839 311.256 403.261 312.769C402.833 314.152 402.837 315.64 403.271 317.02C403.874 321.364 405.043 325.601 406.745 329.612C407.591 331.394 408.806 333.415 410.818 333.824C411.906 333.951 413.008 333.818 414.04 333.435C415.072 333.053 416.008 332.431 416.777 331.616C418.806 329.383 420.425 326.779 421.552 323.933C423.448 319.64 425.064 315.218 426.39 310.698C430.834 295.498 434.301 280.004 436.766 264.321C436.907 263.554 433.957 264.065 433.824 264.852Z" fill="black"/>
<path d="M435.301 264.581C445.504 254.11 457.598 245.87 470.879 240.343C455.101 310.137 429.485 342.096 435.301 264.581Z" fill="white"/>
<path d="M436.523 264.931C446.58 254.674 458.464 246.583 471.502 241.117L469.374 240.512C466.765 252.273 463.55 263.879 459.744 275.278C457.076 283.645 453.653 291.727 449.523 299.416C448.226 301.858 446.673 304.14 444.891 306.22C444.291 306.918 443.615 307.54 442.877 308.075C442.642 308.263 442.381 308.412 442.103 308.519C441.962 308.585 441.812 308.63 441.659 308.653C441.271 308.697 440.881 308.581 440.574 308.329C439.987 307.891 439.497 307.325 439.137 306.67C438.007 304.493 437.277 302.114 436.985 299.656C435.021 288.154 435.947 275.993 436.803 264.437C436.909 263.007 433.884 263.546 433.794 264.761C432.961 276.012 432.191 287.671 433.746 298.898C434.27 302.682 435.199 309.492 439.599 310.553C444.025 311.621 447.745 306.775 449.958 303.518C454.581 296.714 457.753 288.764 460.61 281.019C465.408 267.705 469.341 254.066 472.38 240.196C472.637 239.062 470.71 239.4 470.253 239.588C456.772 245.25 444.484 253.623 434.084 264.233C432.782 265.537 435.701 265.759 436.523 264.931Z" fill="black"/>
<path d="M470.879 240.343C481.474 236 492.712 233.624 504.088 233.322C482.525 303.625 460.887 310.629 470.879 240.343Z" fill="white"/>
<path d="M471.48 241.022C481.712 236.871 492.545 234.579 503.515 234.242L502.585 233.508C499.24 244.78 495.213 255.819 490.529 266.556C487.639 273.002 484.449 279.78 479.879 285.139C478.766 286.599 477.364 287.79 475.768 288.627C475.514 288.742 475.235 288.785 474.96 288.752C474.458 288.644 473.991 288.398 473.609 288.04C472.405 286.739 471.579 285.107 471.229 283.333C470.514 280.493 470.099 277.579 469.99 274.645C469.34 263.156 470.765 251.495 472.367 240.154C472.547 238.883 469.529 239.415 469.371 240.526C467.597 251.469 466.776 262.557 466.918 273.655C466.961 277.003 467.351 280.337 468.082 283.597C468.461 285.605 469.324 287.478 470.588 289.04C473.43 292.068 477.664 290.107 480.272 287.788C485.13 283.467 488.384 276.979 491.229 271.139C496.972 258.89 501.77 246.181 505.577 233.133C505.732 232.619 504.986 232.389 504.648 232.399C492.876 232.752 481.248 235.208 470.267 239.659C469.787 239.855 469.125 240.38 469.482 240.955C469.84 241.531 471.043 241.2 471.48 241.022Z" fill="black"/>
<path d="M506.974 233.277C516.652 233.094 526.271 234.885 535.294 238.55C519.85 291.507 494.278 297.908 504.088 233.324C505.045 233.29 506.002 233.277 506.974 233.277Z" fill="white"/>
<path d="M506.439 234.341C515.996 234.197 525.491 235.963 534.416 239.544L533.784 238.689C531.385 247.263 528.186 255.569 524.234 263.488C521.741 268.327 518.783 273.541 514.571 276.977C513.933 277.519 513.24 277.985 512.505 278.369C512.004 278.636 511.465 278.818 510.91 278.908C510.418 279.009 509.909 278.959 509.445 278.763C508.891 278.554 508.38 278.236 507.941 277.826C504.713 274.842 504.091 269.051 503.705 264.883C502.729 254.353 504.033 243.568 505.598 233.181L503.936 234.39C504.897 234.36 505.859 234.344 506.821 234.341C508.472 234.341 509.166 232.201 507.131 232.208C506.17 232.208 505.208 232.223 504.246 232.255C503.626 232.274 502.697 232.741 502.582 233.463C500.824 243.542 500.154 253.795 500.584 264.031C500.905 268.89 501.514 275.259 504.986 278.949C507.69 281.818 511.563 281.439 514.696 279.55C519.3 276.772 522.585 271.755 525.266 267.097C530.214 258.06 534.09 248.426 536.808 238.407C536.935 237.971 536.481 237.68 536.176 237.55C527.034 233.88 517.307 232.066 507.515 232.204C506.847 232.204 505.856 232.392 505.559 233.133C505.504 233.275 505.485 233.429 505.505 233.581C505.524 233.733 505.581 233.877 505.67 233.999C505.758 234.121 505.876 234.216 506.011 234.276C506.146 234.336 506.293 234.359 506.439 234.341Z" fill="black"/>
<path d="M561.761 263.199C552.833 295.539 524.998 304.642 535.294 238.548C546.638 243.211 556.022 251.951 561.761 263.199Z" fill="white"/>
<path d="M560.289 263.491C558.832 269.016 556.555 274.267 553.542 279.054C551.474 282.236 548.629 285.732 545.323 287.154C545.014 287.298 544.683 287.383 544.346 287.407C543.779 287.446 543.21 287.391 542.659 287.245C541.294 286.82 540.085 285.973 539.189 284.815C536.144 281.066 535.317 275.502 534.862 270.783C533.836 259.929 535.133 248.845 536.79 238.141L533.88 239.078C545.137 243.804 554.467 252.487 560.265 263.632C560.629 264.34 563.46 263.186 563.257 262.793C557.424 251.568 548.037 242.817 536.708 238.043C536.11 237.787 533.92 238.15 533.798 238.981C531.946 249.268 531.26 259.747 531.752 270.203C532.128 275.359 532.885 281.457 536.155 285.593C537.225 286.925 538.658 287.885 540.263 288.342C541.868 288.8 543.569 288.734 545.137 288.154C549.086 286.816 552.524 284.193 554.948 280.668C558.775 275.363 561.586 269.336 563.229 262.916C563.376 262.394 560.499 262.738 560.289 263.491Z" fill="black"/>
<path d="M459.495 310.34C459.145 326.629 474.207 339.328 490.089 337.157C507.899 334.727 504.45 319.616 492.28 319.805C479.766 320.001 466.757 318.195 464.404 305.783C462.386 295.183 459.713 300.155 459.495 310.34Z" fill="url(#paint2_linear)"/>
<path d="M457.999 310.759C457.864 321.731 464.708 331.369 474.221 335.59C478.945 337.679 484.109 338.437 489.2 337.789C493.453 337.248 498.31 336.016 501.494 332.799C502.529 331.861 503.274 330.623 503.635 329.241C503.995 327.859 503.955 326.396 503.519 325.038C502.901 323.616 501.961 322.373 500.78 321.418C499.599 320.462 498.213 319.822 496.742 319.554C494.67 319.201 492.568 319.082 490.472 319.198C487.674 319.191 484.879 318.982 482.109 318.572C477.486 317.842 472.629 316.304 469.334 312.643C467.515 310.498 466.302 307.867 465.832 305.042C465.522 303.519 465.115 299.784 463.253 299.291C462.431 299.141 461.584 299.29 460.854 299.714C460.123 300.139 459.555 300.812 459.242 301.622C458.323 304.569 457.904 307.661 458.003 310.759C457.993 311.18 460.972 310.798 460.995 309.92C460.969 307.188 461.288 304.465 461.942 301.82C461.982 301.682 462.735 299.973 462.749 299.994C462.594 299.751 460.927 300.752 460.941 300.561C460.941 300.602 461.2 300.801 461.231 300.876C461.411 301.31 461.695 301.699 461.861 302.149C462.732 304.417 462.871 306.912 463.751 309.184C464.469 311.039 465.547 312.717 466.916 314.114C473.102 320.442 483.266 320.432 491.313 320.432C492.801 320.354 494.287 320.611 495.671 321.188C497.055 321.765 498.304 322.647 499.333 323.774C500.136 324.718 500.661 325.884 500.844 327.133C501.027 328.382 500.861 329.659 500.366 330.811C498.844 334.213 495.18 335.754 491.858 336.381C486.931 337.27 481.865 336.667 477.255 334.643C472.498 332.688 468.409 329.291 465.511 324.888C462.614 320.484 461.041 315.275 460.994 309.93C460.997 309.484 458.01 309.889 457.999 310.759Z" fill="black"/>
<path d="M433.071 165.155C431.365 165.157 429.719 164.502 428.445 163.314C426.864 161.835 425.6 160.021 424.737 157.994C423.874 155.967 423.432 153.771 423.438 151.552C423.418 150.974 423.355 150.4 423.249 149.833C423.249 149.833 423.194 149.766 423.076 149.658C423.01 149.594 422.939 149.537 422.864 149.486C422.321 149.455 421.777 149.461 421.235 149.506C419.128 149.781 416.99 149.583 414.963 148.925C412.936 148.267 411.067 147.163 409.48 145.688C407.893 144.213 406.626 142.401 405.763 140.373C404.9 138.344 404.46 136.146 404.475 133.926C404.456 133.35 404.394 132.777 404.289 132.211C404.289 132.211 404.232 132.144 404.117 132.037C403.433 131.401 402.875 130.631 402.476 129.769C402.077 128.908 401.843 127.973 401.79 127.017C401.736 126.061 401.863 125.104 402.163 124.199C402.462 123.295 402.93 122.461 403.538 121.745C404.146 121.03 404.883 120.447 405.706 120.029C406.53 119.611 407.424 119.367 408.337 119.311C409.251 119.255 410.166 119.387 411.031 119.701C411.895 120.015 412.692 120.504 413.377 121.14C414.957 122.619 416.22 124.433 417.082 126.46C417.944 128.487 418.386 130.682 418.379 132.901C418.399 133.477 418.462 134.051 418.566 134.618C418.566 134.618 418.622 134.683 418.737 134.79C418.801 134.855 418.873 134.912 418.95 134.96C419.493 134.992 420.036 134.986 420.578 134.942C422.684 134.667 424.822 134.865 426.849 135.524C428.876 136.182 430.745 137.286 432.331 138.76C433.917 140.235 435.185 142.047 436.048 144.076C436.911 146.104 437.35 148.301 437.336 150.521C437.357 151.098 437.42 151.673 437.525 152.24C437.525 152.24 437.581 152.307 437.699 152.417C438.755 153.399 439.501 154.694 439.837 156.13C440.173 157.566 440.084 159.075 439.582 160.457C439.079 161.838 438.187 163.028 437.023 163.867C435.86 164.706 434.48 165.155 433.067 165.155L433.071 165.155Z" fill="black"/>
<path d="M565.838 133.941C564.051 133.944 562.331 133.226 561.037 131.937C559.497 130.398 558.28 128.541 557.465 126.483C556.65 124.425 556.254 122.212 556.303 119.984C556.299 119.377 556.242 118.771 556.133 118.175C556.066 118.07 555.986 117.975 555.894 117.893C555.81 117.802 555.715 117.722 555.611 117.657C555.036 117.576 554.455 117.548 553.875 117.572C551.751 117.745 549.616 117.449 547.609 116.704C545.601 115.959 543.766 114.781 542.221 113.247C540.677 111.712 539.457 109.856 538.642 107.797C537.827 105.739 537.434 103.524 537.49 101.296C537.486 100.69 537.43 100.086 537.321 99.49C537.253 99.3863 537.174 99.2916 537.084 99.2082C536.42 98.5487 535.887 97.7589 535.516 96.884C535.144 96.009 534.94 95.066 534.917 94.1089C534.893 93.1517 535.05 92.199 535.379 91.3053C535.707 90.4116 536.201 89.5944 536.831 88.9002C537.462 88.206 538.217 87.6485 539.053 87.2596C539.89 86.8706 540.791 86.6578 541.706 86.6333C542.621 86.6088 543.532 86.773 544.386 87.1167C545.241 87.4603 546.022 87.9766 546.686 88.6361C548.226 90.1743 549.442 92.0317 550.256 94.0895C551.07 96.1473 551.465 98.3602 551.415 100.587C551.419 101.193 551.476 101.798 551.584 102.393C551.652 102.496 551.733 102.591 551.823 102.673C551.907 102.764 552.002 102.844 552.105 102.91C552.68 102.99 553.261 103.018 553.841 102.992C555.965 102.82 558.1 103.116 560.108 103.861C562.115 104.607 563.951 105.785 565.496 107.32C567.041 108.854 568.26 110.711 569.076 112.77C569.891 114.829 570.284 117.044 570.229 119.272C570.235 119.878 570.292 120.483 570.399 121.08C570.467 121.185 570.548 121.281 570.639 121.365C571.65 122.369 572.35 123.667 572.648 125.091C572.946 126.515 572.829 128 572.312 129.354C571.795 130.708 570.902 131.869 569.748 132.687C568.594 133.504 567.232 133.941 565.838 133.941Z" fill="black"/>
<path d="M422.624 397.279C415.183 393.028 408.988 386.741 404.701 379.09C414.357 344.863 435.301 351.591 422.624 397.279Z" fill="white"/>
<path d="M423.805 396.481C416.469 392.232 410.352 386.009 406.087 378.457L406.205 378.915C407.565 373.606 409.724 368.557 412.602 363.958C413.57 362.458 414.729 361.103 416.046 359.931C416.096 359.887 416.304 359.718 416.101 359.882C416.161 359.833 416.221 359.785 416.283 359.738C416.438 359.623 416.584 359.509 416.739 359.402C416.858 359.318 416.979 359.24 417.103 359.159C417.177 359.111 417.258 359.067 417.327 359.02C417.657 358.816 417.134 359.112 417.397 358.978C417.66 358.844 417.925 358.725 418.196 358.61C417.731 358.803 418.167 358.62 418.289 358.588C418.444 358.545 418.599 358.503 418.763 358.464C418.061 358.626 419.556 358.447 418.907 358.448C419.045 358.448 419.181 358.448 419.319 358.448C419.432 358.448 419.855 358.533 419.466 358.448C419.704 358.495 419.939 358.557 420.171 358.633C420.426 358.719 419.999 358.558 420.158 358.633C420.22 358.66 420.285 358.686 420.346 358.719C420.468 358.784 420.593 358.844 420.713 358.915C421.172 359.17 421.579 359.519 421.908 359.94C422.325 360.425 422.689 360.957 422.992 361.526C424.875 365.081 425.134 369.599 425.081 373.566C424.781 381.673 423.451 389.703 421.125 397.443C420.789 398.658 423.81 398.238 424.126 397.095C426.505 388.483 428.405 379.424 428.047 370.407C427.88 366.169 427.231 360.533 423.711 357.771C420.521 355.265 416.324 356.947 413.575 359.336C409.212 363.13 406.626 369.056 404.707 374.499C404.326 375.579 403.97 376.669 403.638 377.77C403.382 378.311 403.236 378.902 403.209 379.505C403.436 380.079 403.745 380.614 404.128 381.089C405.466 383.291 406.964 385.382 408.608 387.344C412.258 391.674 416.603 395.305 421.447 398.072C421.794 398.216 422.171 398.267 422.542 398.221C422.913 398.175 423.267 398.033 423.573 397.807C424.004 397.509 424.443 396.847 423.805 396.481Z" fill="black"/>
<path d="M450.334 403.996C440.705 404.242 431.173 401.931 422.628 397.279C428.936 364.219 461.22 332.106 450.334 403.996Z" fill="white"/>
<path d="M450.447 402.776C441.074 402.933 431.81 400.664 423.477 396.171L424.149 397.182C425.369 390.98 427.361 384.972 430.074 379.312C432.27 374.427 435.184 369.932 438.711 365.991C439.919 364.666 441.31 363.539 442.839 362.647C443.021 362.552 443.206 362.464 443.392 362.375C443.632 362.26 443.746 362.231 443.604 362.281C443.968 362.149 444.34 362.045 444.719 361.97C444.302 362.048 445.132 361.947 445.338 361.946C445.448 361.946 445.122 361.91 445.544 361.973C445.699 361.998 445.866 362.027 446.024 362.067C445.715 361.988 446.461 362.25 446.644 362.346C446.545 362.294 446.658 362.346 446.831 362.474C447.005 362.602 447.174 362.731 447.336 362.874C447.844 363.381 448.278 363.964 448.625 364.603C449.658 366.707 450.311 368.994 450.55 371.347C451.085 375.706 451.206 380.11 450.911 384.494C450.544 391.062 449.845 397.605 448.817 404.096C448.567 405.753 451.632 405.404 451.858 403.899C453.419 393.531 454.832 382.712 453.748 372.2C453.317 368.021 452.354 362.028 448.208 360.06C444.717 358.406 440.832 360.648 438.188 362.984C434.23 366.743 430.958 371.222 428.532 376.205C425.048 382.83 422.546 389.969 421.111 397.38C421.015 397.877 421.431 398.19 421.781 398.391C430.58 403.08 440.35 405.425 450.223 405.219C451.981 405.222 452.472 402.782 450.447 402.776Z" fill="black"/>
<path d="M478.912 387.013L478.912 387.028C471.957 396.892 463.438 403.993 450.334 403.993C461.022 355.518 483.403 344.863 478.912 387.013Z" fill="white"/>
<path d="M477.402 387.156C477.402 386.766 477.179 387.318 477.057 387.49C476.849 387.773 476.642 388.057 476.43 388.337C476.017 388.894 475.59 389.444 475.15 389.986C474.292 391.05 473.4 392.084 472.467 393.074C470.598 395.071 468.52 396.842 466.272 398.353C461.528 401.415 456.049 403.002 450.475 402.928L451.833 403.856C453.516 395.935 455.863 388.185 458.849 380.696C460.794 375.538 463.442 370.702 466.709 366.336C467.754 364.958 468.984 363.746 470.36 362.736C470.594 362.565 470.841 362.415 471.099 362.288C471.237 362.218 471.376 362.15 471.517 362.087C471.838 361.943 471.517 362.075 471.745 361.993C472.089 361.85 472.459 361.789 472.829 361.815C473.718 361.954 474.52 362.451 475.064 363.2C475.989 364.465 476.642 365.923 476.979 367.476C478.62 373.794 478.064 380.738 477.396 387.153C477.241 388.663 480.278 388.19 480.416 386.873C481.077 380.555 481.545 373.828 480.191 367.567C479.529 364.505 478.161 360.813 474.969 359.876C471.677 358.904 468.425 361.116 466.142 363.375C462.522 367.295 459.608 371.866 457.54 376.869C453.69 385.597 450.765 394.74 448.818 404.133C448.643 404.916 449.709 405.065 450.175 405.062C456.495 405.076 462.691 403.235 468.061 399.748C470.561 398.077 472.867 396.108 474.935 393.882C475.965 392.792 476.949 391.648 477.878 390.469C478.394 389.813 478.902 389.146 479.402 388.468C479.69 388.073 480.416 387.409 480.416 386.873C480.422 385.327 477.402 385.855 477.402 387.156Z" fill="black"/>
<path d="M301.516 352.108C301.061 352.247 299.441 347.888 298.419 343.271C297.916 340.969 297.507 338.626 297.282 336.834C297.058 335.043 296.945 333.813 296.932 333.739C296.92 333.664 296.914 332.426 296.971 330.622C297.028 328.817 297.189 326.445 297.46 324.101C298.012 319.403 299.187 314.892 299.653 314.982C300.12 315.073 299.833 319.661 299.92 324.246C299.968 326.539 300.051 328.83 300.182 330.563C300.312 332.297 300.406 333.479 300.412 333.547C300.418 333.615 300.44 334.805 300.48 336.541C300.521 338.278 300.669 340.57 300.852 342.859C301.225 347.431 301.981 351.967 301.516 352.108Z" fill="black"/>
<path d="M314.79 343.922C314.481 344.314 311.047 341.978 307.344 340.248C305.486 339.391 303.613 338.602 302.158 338.103C300.702 337.604 299.706 337.293 299.65 337.262C299.585 337.262 298.624 336.838 297.18 336.314C295.737 335.791 293.798 335.192 291.831 334.677C287.899 333.659 283.82 333.3 283.804 332.791C283.789 332.282 287.956 331.731 292.218 332.132C294.181 332.313 296.13 332.631 298.052 333.082C299.644 333.457 300.713 333.805 300.782 333.815C300.841 333.85 301.89 334.263 303.367 334.991C305.151 335.871 306.877 336.873 308.534 337.991C312.134 340.41 315.1 343.543 314.79 343.922Z" fill="black"/>
<path d="M565.352 439.077C559.852 443.534 555.651 449.509 553.221 456.329C552.006 459.63 551.316 463.118 551.18 466.652C540.276 451.662 527.779 441.082 498.029 429.627C492.815 423.262 486.724 417.061 486.724 417.061C513.85 420.18 540.364 427.604 565.352 439.077Z" fill="black"/>
<path d="M564.404 438.529C560.155 441.865 556.64 446.117 554.099 450.998C551.558 455.879 550.05 461.275 549.678 466.819L552.563 466.009C547.177 458.496 540.722 451.891 533.423 446.423C523.511 439.117 512.288 433.966 500.992 429.512C498.831 428.66 497.665 426.873 496.14 425.127C494.845 423.645 493.53 422.182 492.194 420.737C490.848 419.279 489.491 417.832 488.105 416.419L486.16 418.02C513.073 421.127 539.379 428.498 564.174 439.879C565.143 440.334 567.852 438.894 566.531 438.273C541.343 426.719 514.622 419.242 487.284 416.097C486.756 416.032 484.497 416.839 485.339 417.698C488.85 421.28 492.231 425.003 495.485 428.866C495.903 429.485 496.411 430.031 496.99 430.486C497.702 430.831 498.439 431.118 499.194 431.344C501.169 432.123 503.133 432.933 505.087 433.774C508.11 435.07 511.108 436.426 514.069 437.884C523.515 442.312 532.227 448.285 539.878 455.578C543.48 459.2 546.8 463.119 549.805 467.295C550.358 468.055 552.645 467.504 552.688 466.485C552.996 461.251 554.37 456.146 556.719 451.513C559.068 446.88 562.337 442.826 566.308 439.624C567.911 438.336 565.412 437.732 564.404 438.529Z" fill="black"/>
<path d="M380.499 269.966C380.394 270.088 379.88 269.265 378.584 269.333C377.827 269.401 377.111 269.716 376.535 270.233C375.824 270.916 375.39 271.858 375.322 272.864C375.026 275.132 375.942 278.013 376.222 281.288C376.408 283.014 376.369 284.758 376.106 286.472C375.801 288.328 375.083 290.083 374.01 291.596C372.857 293.208 371.206 294.353 369.338 294.836C367.549 295.264 365.682 295.172 363.939 294.571C362.322 294.031 360.838 293.126 359.592 291.92C358.511 290.845 357.597 289.601 356.882 288.232C355.85 286.211 355.122 284.036 354.723 281.784C354.426 280.149 354.351 279.181 354.333 279.067C354.314 278.954 354.237 277.975 354.178 276.385C354.141 274.834 354.088 272.667 354.023 270.091C354.008 268.819 353.863 267.553 353.59 266.313C353.376 265.154 352.803 264.101 351.96 263.316C351.535 263.024 351.031 262.882 350.523 262.911C350.015 262.94 349.529 263.139 349.137 263.478C348.039 264.342 347.217 265.532 346.777 266.893C346.24 268.527 345.62 270.13 344.918 271.695C344.094 273.412 342.69 274.747 340.979 275.443C340.119 275.781 339.179 275.825 338.295 275.569C337.41 275.312 336.626 274.769 336.055 274.016C335.219 272.809 334.659 271.416 334.418 269.947C334.166 267.977 333.621 266.06 332.803 264.265C332.112 263.086 331.332 262.738 331.409 262.584C331.409 262.508 332.359 262.618 333.371 263.831C334.507 265.565 335.312 267.512 335.742 269.564C336.034 270.772 336.573 271.899 337.321 272.868C337.687 273.298 338.175 273.594 338.714 273.713C339.253 273.833 339.814 273.768 340.316 273.53C341.501 272.934 342.44 271.908 342.958 270.643C343.577 269.289 343.92 267.674 344.486 265.976C345.032 264.093 346.109 262.426 347.576 261.194C348.409 260.523 349.402 260.104 350.447 259.984C351.538 259.893 352.627 260.172 353.554 260.779C355.042 261.914 356.101 263.56 356.547 265.429C356.933 266.878 357.165 268.367 357.24 269.869C357.433 272.518 357.489 274.679 357.596 276.195C357.703 277.711 357.794 278.597 357.805 278.701C357.816 278.805 357.869 279.707 358.085 281.141C358.362 283.052 358.912 284.909 359.718 286.649C360.742 288.974 362.589 290.792 364.87 291.719C366.107 292.211 367.448 292.343 368.751 292.103C370.064 291.828 371.244 291.083 372.09 289.997C372.994 288.831 373.627 287.461 373.939 285.996C374.246 284.495 374.362 282.957 374.283 281.424C374.23 279.89 374.063 278.395 373.918 276.934C373.727 275.501 373.752 274.045 373.992 272.62C374.126 271.957 374.36 271.322 374.684 270.736C374.993 270.189 375.417 269.722 375.923 269.37C376.709 268.802 377.657 268.532 378.61 268.604C379.223 268.65 379.798 268.93 380.227 269.389C380.499 269.707 380.538 269.942 380.499 269.966Z" fill="black"/>
<path d="M481.356 568.528C481.345 568.653 481.111 568.737 480.689 568.787C480.106 568.863 479.516 568.843 478.94 568.727C477.175 568.421 475.483 567.761 473.956 566.783C472.408 565.839 470.967 564.716 469.66 563.433C469.034 562.834 468.442 562.198 467.886 561.528C467.379 560.821 466.908 560.086 466.476 559.327C465.553 557.75 464.765 556.091 464.124 554.368C463.486 552.67 463.045 550.898 462.809 549.09C462.654 547.609 462.745 546.618 462.964 546.584C463.218 546.543 463.576 547.438 464.116 548.717C464.772 550.274 465.514 551.788 466.34 553.253C467.175 554.703 468.1 556.093 469.111 557.415C469.921 558.517 470.568 559.178 470.588 559.234C470.608 559.291 471.144 560.044 471.982 561.12C473 562.406 474.128 563.593 475.352 564.666C476.556 565.747 477.892 566.656 479.324 567.37C479.906 567.707 480.424 567.879 480.788 568.062C481.152 568.245 481.365 568.402 481.356 568.528Z" fill="black"/>
<path d="M488.989 576.317C488.835 576.502 487.949 575.993 486.719 575.058C485.248 573.864 483.885 572.531 482.646 571.076C481.383 569.614 480.216 568.064 479.152 566.437C478.28 565.086 477.727 564.133 477.706 564.068C477.684 564.004 477.193 563.014 476.622 561.506C475.903 559.696 475.289 557.842 474.782 555.956C473.631 551.88 473.266 547.694 473.729 547.603C474.192 547.512 475.412 551.394 477.094 555.065C477.91 556.91 478.798 558.718 479.516 560.052C480.235 561.387 480.755 562.275 480.781 562.338C480.808 562.401 481.235 563.338 481.907 564.699C482.579 566.059 483.535 567.819 484.604 569.5C485.635 571.214 486.817 572.811 487.684 574.052C488.573 575.256 489.151 576.123 488.989 576.317Z" fill="black"/>
<path d="M550.517 555.52C550.045 555.536 549.515 550.143 547.236 545.43C546.246 543.267 545.025 541.227 543.596 539.351C542.422 537.815 541.496 536.898 541.454 536.828C541.413 536.759 540.59 535.741 539.22 534.398C537.544 532.764 535.697 531.332 533.714 530.13C529.404 527.385 524.31 526.404 524.363 525.918C524.385 525.684 525.71 525.55 527.7 525.79C530.152 526.112 532.547 526.797 534.814 527.824C537.131 528.869 539.311 530.219 541.301 531.842C543.27 533.328 544.934 535.212 546.196 537.382C547.59 539.585 548.707 541.966 549.52 544.467C550.323 546.913 550.788 549.466 550.903 552.05C550.976 554.143 550.743 555.515 550.517 555.52Z" fill="black"/>
<path d="M212.281 665.609C244.406 652.487 275.158 668.575 291.769 678.911C331.933 703.893 350.117 748.104 361.751 798.581C373.414 849.186 357.057 897.471 331.474 912.9C295.927 860.86 212.281 665.609 212.281 665.609Z" fill="black"/>
<path d="M212.803 665.987C236.425 656.495 261.632 663.14 283.168 675.19C301.467 685.266 317.152 699.841 328.876 717.661C341.087 736.315 349.153 757.602 355.22 779.195C358.885 791.311 361.554 803.733 363.196 816.325C364.641 829.14 364.342 842.106 362.307 854.833C359.055 874.795 351.081 896.41 335.379 909.265C333.773 910.571 332.085 911.762 330.325 912.829L332.97 912.472C323.409 898.448 315.438 883.186 307.598 868.069C296.993 847.621 286.95 826.858 277.102 806.004C267.02 784.652 257.144 763.197 247.474 741.637C239.714 724.405 232.045 707.126 224.466 689.797C222.054 684.283 219.65 678.763 217.256 673.238C216.525 671.55 215.795 669.862 215.067 668.174C214.762 667.25 214.378 666.356 213.92 665.504C213.863 665.401 213.815 665.292 213.777 665.18C213.443 664.399 210.536 665.437 210.785 666.017C213.626 672.649 216.493 679.266 219.388 685.869C226.597 702.393 233.889 718.873 241.263 735.311C250.816 756.61 260.53 777.832 270.407 798.976C280.318 820.12 290.422 841.174 301.024 861.95C309.022 878.202 317.806 894.017 327.342 909.335C328.205 910.674 329.082 912.001 329.975 913.316C330.454 914.018 332.091 913.282 332.622 912.96C349.503 902.655 358.974 882.276 363.501 863.118C366.355 850.826 367.515 838.17 366.947 825.534C366.383 811.999 363.625 798.91 360.243 785.879C354.358 763.213 346.572 740.747 334.426 720.868C323.069 702.137 307.439 686.653 288.941 675.809C268.485 663.8 244.959 656.346 221.527 662.06C218.205 662.882 214.941 663.942 211.758 665.233C209.779 666.029 211.64 666.461 212.803 665.987Z" fill="black"/>
<path d="M332.736 757.159C365.651 825.447 365.085 895.182 331.474 912.9C297.863 930.618 243.935 889.639 211.021 821.351C178.107 753.064 188.854 677.592 212.281 665.609C237.509 652.706 299.821 688.871 332.736 757.159Z" fill="white"/>
<path d="M331.24 757.577C343.687 783.497 352.783 811.824 355.061 840.858C356.121 852.464 355.6 864.169 353.512 875.621C351.689 884.904 348.451 894.194 342.766 901.685C338.089 907.999 331.585 912.561 324.225 914.687C317.094 916.473 309.648 916.35 302.574 914.329C283.906 909.451 267.605 896.347 254.215 882.38C236.504 863.565 221.931 841.781 211.101 817.93C199.432 792.776 192.892 765.357 191.898 737.417C191.463 726.13 192.204 714.827 194.107 703.708C195.481 694.893 198.213 686.369 202.198 678.47C205.055 673.124 208.967 667.918 214.601 665.687C219.876 663.597 225.811 663.826 231.287 664.762C247.955 667.613 263.509 677.406 276.719 687.976C294.655 702.524 309.978 720.289 321.975 740.443C325.317 745.997 328.407 751.707 331.245 757.571C331.865 758.841 334.807 757.895 334.236 756.733C323.253 733.843 308.34 713.26 290.239 696.013C276.288 682.833 260.052 671.018 241.968 665.05C230.423 661.238 215.893 659.395 206.234 668.713C200.878 673.878 197.498 681.13 195.083 688.205C191.875 698.027 189.918 708.247 189.262 718.604C187.476 745.66 191.116 772.808 199.948 798.307C209.248 825.173 223.124 850.054 240.904 871.745C254.506 888.43 270.932 904.01 290.447 912.647C304.849 919.021 321.741 920.838 335.481 911.737C351.665 901.019 357.218 879.533 358.333 860.708C359.989 832.772 353.419 804.429 343.638 778.616C340.819 771.177 337.664 763.884 334.229 756.733C333.621 755.468 330.678 756.408 331.24 757.577Z" fill="black"/>
<path d="M261.008 700.01C261.045 700.277 259.138 700.792 256.312 701.596C253.486 702.399 249.758 703.604 246.103 705.02C242.749 706.352 239.464 707.867 236.261 709.556C233.628 710.954 231.885 712.027 231.77 712.065C231.674 712.15 229.862 713.076 227.299 714.615C224.191 716.486 221.179 718.524 218.273 720.721C215.136 723.136 212.13 725.73 209.933 727.758C207.737 729.786 206.283 731.16 206.09 730.987C205.922 730.835 207.041 729.127 208.97 726.759C211.376 723.884 213.973 721.19 216.743 718.699C219.561 716.194 222.525 713.875 225.619 711.754C228.18 710 230.015 708.944 230.11 708.856C230.234 708.816 232.089 707.794 234.897 706.515C238.292 704.975 241.776 703.658 245.329 702.571C248.842 701.517 252.423 700.725 256.044 700.202C258.997 699.82 260.977 699.78 261.008 700.01Z" fill="black"/>
<path d="M285.392 738.491C285.44 738.76 283.056 739.463 279.516 740.558C275.976 741.653 271.3 743.279 266.705 745.146C262.135 747.077 257.627 749.196 254.316 751.015C250.983 752.797 248.781 754.153 248.631 754.206C248.507 754.311 246.227 755.512 242.992 757.477C239.74 759.405 235.597 762.225 231.572 765.196C227.589 768.224 223.757 771.453 220.956 773.972C218.154 776.491 216.309 778.206 216.117 778.022C215.963 777.86 217.479 775.812 220.02 772.949C223.174 769.472 226.531 766.201 230.071 763.157C233.667 760.097 237.42 757.246 241.315 754.616C244.539 752.442 246.836 751.117 246.963 751.008C247.117 750.955 249.428 749.654 252.922 747.992C257.147 745.988 261.473 744.229 265.883 742.722C270.248 741.256 274.696 740.073 279.202 739.181C282.877 738.492 285.351 738.266 285.392 738.491Z" fill="black"/>
<path d="M317.844 781.579C317.88 781.858 314.954 782.47 310.609 783.523C306.263 784.576 300.527 786.211 294.887 788.197C289.708 790.072 284.629 792.235 279.671 794.677C275.582 796.698 272.884 798.268 272.702 798.325C272.547 798.451 269.768 799.844 265.833 802.169C261.066 804.991 256.447 808.077 251.994 811.414C247.193 815.08 242.6 819.028 239.276 822.134C235.953 825.239 233.786 827.381 233.59 827.191C233.435 827.042 235.265 824.569 238.33 821.117C242.136 816.924 246.201 812.999 250.5 809.365C254.869 805.718 259.444 802.349 264.201 799.277C268.136 796.739 270.946 795.216 271.099 795.088C271.288 795.03 274.102 793.51 278.358 791.612C283.506 789.322 288.781 787.359 294.154 785.731C299.476 784.156 304.892 782.95 310.366 782.122C314.835 781.497 317.82 781.359 317.844 781.579Z" fill="black"/>
<path d="M322.721 830.752C322.763 831.016 320.901 831.582 318.134 832.434C315.371 833.31 311.715 834.54 308.146 836.016C304.861 837.374 301.648 838.915 298.52 840.633C295.926 842.018 294.253 843.14 294.129 843.171C294.005 843.202 292.271 844.206 289.754 845.726C286.726 847.614 283.795 849.669 280.975 851.882C277.946 854.329 275.029 856.933 272.946 859.01C270.863 861.086 269.473 862.496 269.268 862.321C269.901 860.733 270.811 859.283 271.952 858.044C274.23 855.127 276.723 852.4 279.407 849.889C282.141 847.367 285.025 845.029 288.043 842.889C290.56 841.154 292.322 840.03 292.443 839.986C292.564 839.942 294.362 838.876 297.126 837.611C300.448 836.042 303.862 834.697 307.347 833.582C310.784 832.484 314.289 831.639 317.838 831.052C320.739 830.613 322.684 830.521 322.721 830.752Z" fill="black"/>
<path d="M331.177 871.961C331.298 872.457 326.531 874.229 322.057 876.669C319.825 877.894 317.634 879.188 316.028 880.267C314.422 881.346 313.35 882.111 313.276 882.143C313.201 882.175 312.085 882.866 310.476 883.933C308.867 885.001 306.796 886.498 304.78 888.075C300.753 891.244 297.172 894.981 296.796 894.656C296.42 894.33 299.406 889.935 303.167 886.128C304.897 884.372 306.722 882.722 308.633 881.184C310.214 879.911 311.354 879.12 311.42 879.06C311.498 879.026 312.672 878.292 314.453 877.345C316.603 876.201 318.814 875.188 321.075 874.309C325.986 872.394 331.07 871.48 331.177 871.961Z" fill="black"/>
<path d="M469.597 575.094C470.563 575.094 472.824 573.581 470.836 573.581C469.871 573.581 467.61 575.094 469.597 575.094Z" fill="black"/>
<path d="M460.323 569.207C462.96 571.798 466.013 573.882 469.343 575.363C469.713 575.483 470.108 575.491 470.482 575.386C470.857 575.281 471.195 575.067 471.458 574.77C471.946 574.182 471.7 573.599 471.084 573.312C471 573.273 470.919 573.232 470.837 573.192C470.638 573.095 471.16 573.354 470.81 573.177L470.447 572.991C469.715 572.607 468.992 572.201 468.279 571.775C466.393 570.697 464.642 569.38 463.066 567.853C462.79 567.605 462.447 567.452 462.085 567.415C461.723 567.378 461.359 567.458 461.042 567.645C460.616 567.875 459.777 568.645 460.322 569.212L460.323 569.207Z" fill="black"/>
<path d="M793.704 285.116C802.834 312.154 795.532 358.39 769.365 389.579C743.198 420.769 707.523 429.2 681.5 415.013C680.337 403.566 671.024 394.738 671.024 375.972C705.045 324.412 793.704 285.116 793.704 285.116Z" fill="black"/>
<path d="M792.208 285.534C796.544 298.559 796.709 312.912 794.912 326.45C792.768 342.698 787.599 358.348 779.696 372.514C764.163 400.187 735.006 423.899 702.835 420.516C699.589 420.174 696.377 419.545 693.233 418.634C691.612 418.164 690.012 417.608 688.432 416.98C686.731 416.423 685.093 415.67 683.549 414.736C682.58 414.044 682.64 412.173 682.348 410.981C681.974 409.5 681.516 408.044 680.975 406.62C679.863 403.639 678.524 400.759 677.311 397.824C675.9 394.502 674.753 391.065 673.882 387.546C673.419 385.589 673.073 383.603 672.846 381.601C672.613 379.544 672.027 376.835 673.057 375.014C674.8 372.218 676.75 369.57 678.891 367.094C681.044 364.394 683.287 361.779 685.62 359.25C704.395 338.827 727.407 322.768 750.81 308.752C764.69 300.406 778.976 292.824 793.611 286.035C793.833 285.933 794.056 285.834 794.279 285.735C796.199 284.883 794.443 283.903 793.108 284.496C780.139 290.383 767.47 296.97 755.154 304.232C730.934 318.238 707.133 334.302 687.235 354.572C682.302 359.549 677.7 364.873 673.461 370.507C672.511 371.781 671.587 373.077 670.688 374.395C670.222 374.931 669.832 375.534 669.531 376.185C669.401 377.406 669.436 378.64 669.636 379.85C669.91 384.034 670.681 388.167 671.933 392.152C673.958 398.661 677.44 404.608 679.211 411.201C679.397 411.896 679.56 412.596 679.695 413.307C679.717 414.033 679.821 414.754 680.004 415.454C680.577 416.531 683.185 417.25 684.259 417.722C687.329 419.077 690.505 420.153 693.752 420.936C724.936 428.485 756.311 409.575 774.903 384.332C784.786 370.701 791.848 355.067 795.64 338.425C799.007 323.981 800.235 308.499 797.531 293.817C796.968 290.725 796.192 287.679 795.208 284.705C794.846 283.632 791.874 284.531 792.208 285.534Z" fill="black"/>
<path d="M763.7 366.116C733.036 398.381 694.833 410.652 678.358 393.524C661.883 376.396 673.382 336.355 704.04 304.088C734.698 271.821 778.101 264.675 789.38 276.679C801.527 289.604 794.358 333.845 763.7 366.116Z" fill="white"/>
<path d="M762.514 365.908C751.468 377.48 738.672 387.627 724.286 394.2C713.91 398.94 701.52 402.531 690.258 399.207C685.753 397.858 681.717 395.177 678.634 391.485C675.551 387.794 673.553 383.249 672.88 378.398C670.819 366.074 674.584 353.127 679.5 342.026C686.353 326.973 695.839 313.394 707.469 301.992C718.132 291.372 730.725 283.099 744.501 277.664C754.584 273.716 766.011 270.86 776.833 272.391C780.467 272.724 783.95 274.063 786.926 276.27C789.57 278.704 791.42 281.943 792.216 285.533C795.019 295.983 793.074 307.667 790.175 317.847C785.994 332.15 779.18 345.46 770.116 357.028C767.663 360.193 765.063 363.222 762.317 366.116C761.798 366.665 762.761 366.909 763.101 366.926C763.467 366.935 763.832 366.867 764.173 366.725C764.514 366.583 764.823 366.37 765.083 366.099C776.143 354.469 784.813 340.594 790.557 325.329C794.717 314.119 797.656 301.449 796.109 289.366C795.713 285.118 794.285 281.048 791.962 277.54C789.725 274.675 786.652 272.656 783.213 271.794C773.224 268.806 761.961 270.705 752.156 273.538C721.971 282.257 696.679 305.058 681.149 333.173C674.551 345.117 669.196 358.85 669.346 372.863C669.458 383.31 673.56 393.429 682.691 398.493C692.705 404.049 705.229 402.434 715.649 399.128C730.278 394.487 743.655 385.813 755.295 375.568C758.623 372.636 761.815 369.542 764.889 366.321C766.079 365.063 763.155 365.238 762.514 365.908Z" fill="black"/>
<path d="M772.15 299.722C771.879 300.147 768.09 298.091 764.078 296.709C762.065 296.024 760.051 295.413 758.486 295.058C756.92 294.703 755.861 294.498 755.799 294.468C755.73 294.468 754.69 294.144 753.136 293.774C751.583 293.403 749.512 293.007 747.42 292.706C743.239 292.118 738.974 292.238 738.902 291.734C738.831 291.23 743.084 290.197 747.543 290.135C749.591 290.101 751.64 290.21 753.675 290.459C755.362 290.668 756.502 290.908 756.574 290.911C756.64 290.94 757.767 291.246 759.373 291.828C761.312 292.532 763.205 293.37 765.038 294.336C769.02 296.424 772.421 299.317 772.15 299.722Z" fill="black"/>
<path d="M758.544 323.205C758.39 323.421 757.151 322.766 755.329 321.806C753.508 320.845 751.032 319.651 748.515 318.621C746.185 317.697 743.807 316.914 741.391 316.277C739.403 315.755 738.026 315.501 737.947 315.467C737.859 315.467 736.516 315.067 734.51 314.631C732.073 314.105 729.608 313.726 727.129 313.497C724.43 313.275 721.709 313.223 719.669 313.254C717.63 313.285 716.239 313.31 716.194 313.048C716.152 312.816 717.467 312.316 719.519 311.844C722.048 311.308 724.615 310.999 727.194 310.921C729.811 310.855 732.429 310.987 735.028 311.316C737.179 311.59 738.633 311.914 738.726 311.914C738.81 311.955 740.253 312.327 742.306 313.061C744.784 313.95 747.197 315.025 749.526 316.277C751.816 317.525 754 318.974 756.054 320.61C757.703 321.965 758.678 323.024 758.544 323.205Z" fill="black"/>
<path d="M742.443 343.363C742.328 343.599 740.973 343.133 738.974 342.433C736.974 341.733 734.295 340.868 731.585 340.149C728.862 339.47 726.12 338.898 724.016 338.611C721.919 338.299 720.481 338.177 720.394 338.147C720.304 338.147 718.884 337.887 716.781 337.631C714.679 337.35 711.89 337.173 709.093 337.103C706.306 337.077 703.503 337.199 701.398 337.343C699.293 337.487 697.873 337.576 697.819 337.319C697.769 337.085 699.101 336.525 701.183 335.943C703.747 335.268 706.357 334.795 708.99 334.528C711.658 334.27 714.34 334.189 717.018 334.283C719.237 334.362 720.747 334.539 720.842 334.532C720.931 334.562 722.437 334.795 724.602 335.308C727.217 335.931 729.793 336.726 732.313 337.686C734.796 338.646 737.206 339.799 739.523 341.137C741.396 342.255 742.548 343.152 742.443 343.363Z" fill="black"/>
<path d="M729.471 370.2C729.242 370.652 723.947 368.246 718.41 366.598C715.641 365.788 712.849 365.053 710.707 364.622C708.565 364.191 707.1 363.938 707.013 363.904C706.92 363.904 705.479 363.532 703.338 363.104C701.198 362.676 698.355 362.223 695.499 361.878C689.783 361.205 684.015 361.33 683.966 360.821C683.916 360.313 689.687 359.282 695.626 359.305C698.362 359.313 701.095 359.475 703.814 359.791C706.066 360.05 707.591 360.332 707.686 360.335C707.775 360.369 709.29 360.715 711.469 361.367C714.1 362.159 716.689 363.096 719.225 364.175C724.733 366.504 729.702 369.769 729.471 370.2Z" fill="black"/>
<path d="M548.183 569.706C549.252 568.752 550.29 567.762 551.335 566.79C551.481 566.652 551.711 566.429 551.645 566.186C551.578 565.943 551.273 565.862 551.084 565.828C550.712 565.78 550.335 565.813 549.975 565.925C549.609 566.011 549.266 566.181 548.969 566.421C547.922 567.401 546.886 568.389 545.817 569.337C545.67 569.468 545.441 569.701 545.507 569.941C545.574 570.18 545.879 570.265 546.068 570.299C546.44 570.346 546.817 570.313 547.177 570.202C547.542 570.112 547.885 569.943 548.183 569.706Z" fill="black"/>
<path d="M932.318 607.074C932.207 608.386 931.947 609.679 931.543 610.926C930.611 614.253 929.473 617.513 928.136 620.685C923.901 630.286 918.543 639.299 912.185 647.519C905.818 655.835 898.827 663.606 891.278 670.757C885.033 676.661 880.471 680.315 880.2 680.56C879.929 680.805 875.411 684.513 868.413 689.387C859.959 695.301 851.115 700.579 841.946 705.181C832.868 709.763 823.391 713.422 813.644 716.106C811.652 716.627 809.826 717.1 808.183 717.402C806.546 717.726 805.127 718.05 803.936 718.183C802.706 718.45 801.449 718.565 800.193 718.524C800.145 718.22 805.505 717.253 813.276 714.738C822.777 711.615 832.004 707.644 840.855 702.869C849.777 698.059 858.379 692.628 866.604 686.612C873.406 681.653 877.776 677.893 878.064 677.683C878.352 677.472 882.881 673.925 889.148 668.245C896.727 661.366 903.794 653.892 910.288 645.889C916.752 637.973 922.334 629.314 926.927 620.078C930.562 612.483 932.02 606.982 932.318 607.074Z" fill="black"/>
<path d="M902.004 690.667C902.095 690.746 901.723 691.359 900.991 692.383C900.621 692.89 900.178 693.517 899.625 694.199L897.649 696.363C893.967 700.123 889.928 703.481 885.595 706.386C881.241 709.336 876.703 711.978 872.012 714.295C870.093 715.299 868.427 716.018 867.237 716.545L865.25 717.424C865.095 717.535 862.325 718.516 858.253 719.903C853.295 721.467 848.251 722.718 843.149 723.65C838.104 724.587 832.999 725.129 827.877 725.27C823.696 725.27 820.938 725.064 820.939 724.831C820.939 724.562 823.691 724.287 827.786 723.859C832.786 723.228 837.749 722.313 842.653 721.12C847.589 719.918 852.461 718.445 857.248 716.707C861.17 715.177 863.836 714.129 863.985 714.021L865.949 713.23C867.124 712.76 868.778 712.127 870.686 711.228C875.354 709.166 879.899 706.814 884.299 704.186C888.667 701.585 892.824 698.616 896.73 695.308L898.885 693.429L900.463 691.887C901.356 691.043 901.909 690.588 902.004 690.667Z" fill="black"/>
<path d="M45.4105 222.643C45.0402 223.948 44.5311 225.206 43.8928 226.392L41.9461 230.575C41.1717 232.178 40.3138 233.991 39.4682 236.018C35.8551 244.012 31.4584 254.881 27.6006 266.002C23.8838 277.18 20.5928 288.538 18.6182 297.303C17.4862 301.647 16.8589 305.382 16.2704 308.018C15.7191 310.663 15.3877 312.256 15.3505 312.441C15.3134 312.625 15.016 314.223 14.5204 316.881C14.0558 319.543 13.2242 323.23 12.6171 327.685C11.1133 336.546 9.82946 348.338 9.01021 360.128C8.33498 371.928 8.25445 383.72 8.5456 392.552C8.55799 394.763 8.66175 396.784 8.76087 398.575C8.85998 400.367 8.90644 401.93 8.9622 403.218C9.09979 404.571 9.08992 405.937 8.93277 407.287C8.56413 405.984 8.33914 404.64 8.26219 403.283C8.10732 402 7.93387 400.443 7.7279 398.655C7.52192 396.866 7.3082 394.844 7.19205 392.628C6.41387 381.771 6.2019 370.878 6.55709 359.997C6.9734 349.009 7.93384 338.051 9.43455 327.168C9.9611 322.651 10.737 318.906 11.1567 316.209C11.6213 313.515 11.8939 311.891 11.931 311.703C11.9682 311.516 12.3337 309.912 12.9315 307.245C13.5726 304.59 14.2757 300.83 15.5038 296.463C18.2483 285.839 21.5162 275.37 25.2946 265.1C29.0939 254.955 33.4191 245.035 38.2509 235.383C39.1972 233.395 40.1574 231.626 41.0277 230.069L43.2764 226.039C43.8606 224.825 44.5767 223.685 45.4105 222.643Z" fill="black"/>
<path d="M44.2288 323.157C44.4596 323.288 43.2888 325.982 41.6131 330.04C39.9374 334.098 37.8746 339.587 36.0719 345.181C34.3389 350.8 32.8057 356.498 31.8905 360.885C30.938 365.259 30.4533 368.278 30.3882 368.457C30.3882 368.646 29.7301 371.628 29.0177 376.049C28.2588 380.464 27.6022 386.34 27.1592 392.222C26.786 398.107 26.6946 403.997 26.7628 408.422C26.8309 412.846 26.9316 415.793 26.6714 415.823C26.4546 415.849 25.8971 412.941 25.4092 408.509C24.863 403.064 24.6251 397.591 24.6968 392.116C24.7979 386.581 25.1815 381.056 25.846 375.563C26.3973 371.027 26.9703 367.949 26.9734 367.752C27.04 367.57 27.6331 364.499 28.7776 360.076C30.1671 354.731 31.8276 349.467 33.752 344.306C35.6825 339.213 37.8994 334.244 40.3912 329.425C42.4618 325.514 44.0384 323.047 44.2288 323.157Z" fill="black"/>
<path d="M368.212 896.791C368.995 895.946 369.88 895.211 370.845 894.606L373.976 892.313C375.2 891.45 376.57 890.465 377.984 889.268C380.854 886.937 384.277 884.327 387.65 881.135C391.171 878.134 394.577 874.518 398.079 871.01C399.76 869.182 401.38 867.285 403.011 865.459C403.812 864.531 404.654 863.654 405.399 862.705L407.608 859.897C409.04 858.038 410.505 856.303 411.761 854.542C413.017 852.781 414.179 851.088 415.269 849.531C415.815 848.753 416.338 848.008 416.838 847.294C417.324 846.573 417.742 845.854 418.16 845.188C418.984 843.86 419.709 842.693 420.315 841.72C421.524 839.776 422.254 838.604 422.337 838.468C422.421 838.332 423.102 837.132 424.241 835.142L426.272 831.598C427.084 830.26 427.883 828.695 428.727 826.981L431.49 821.487C432.449 819.534 433.299 817.399 434.267 815.238L435.709 811.933C436.193 810.815 436.577 809.64 437.025 808.481C437.878 806.146 438.797 803.796 439.625 801.414C441.103 796.587 442.712 791.801 443.746 787.178C445.008 782.611 445.747 778.252 446.491 774.534C446.898 772.68 447.141 770.96 447.347 769.434C447.576 767.91 447.777 766.581 447.943 765.486C448.041 764.316 448.284 763.164 448.668 762.06C448.807 763.223 448.798 764.4 448.642 765.561C448.567 766.674 448.477 768.023 448.374 769.572C448.279 771.309 448.097 773.039 447.829 774.756C447.287 778.538 446.734 782.984 445.64 787.651C444.773 792.376 443.317 797.278 441.962 802.231C441.188 804.675 440.334 807.091 439.534 809.488C439.114 810.679 438.759 811.887 438.295 813.036L436.918 816.438C435.989 818.664 435.179 820.861 434.253 822.876C433.327 824.891 432.405 826.78 431.57 828.546C430.736 830.312 429.971 831.928 429.175 833.312C428.4 834.713 427.736 835.944 427.175 836.971L425.295 840.404L423.17 843.681L420.902 847.167C420.462 847.83 420.02 848.551 419.508 849.273L417.86 851.514L414.168 856.523C412.847 858.282 411.312 860.011 409.805 861.858L407.482 864.646C406.699 865.587 405.817 866.453 404.978 867.372C403.274 869.178 401.571 871.046 399.805 872.843C396.141 876.287 392.57 879.809 388.889 882.703C385.356 885.781 381.779 888.254 378.763 890.424C377.404 891.431 375.995 892.363 374.543 893.216L371.214 895.226C370.284 895.885 369.275 896.411 368.212 896.791Z" fill="black"/>
<path d="M404.106 829.432C403.734 829.108 407.969 823.19 411.695 816.898C413.553 813.749 415.356 810.562 416.623 808.084C417.919 805.624 418.732 803.909 418.8 803.813L421.069 799.601C422.37 797.145 423.976 793.849 425.506 790.518C428.554 783.852 430.984 776.926 431.451 777.072C431.919 777.218 430.298 784.463 427.778 791.519C426.514 795.039 425.105 798.524 423.934 801.121C422.763 803.718 421.91 805.464 421.856 805.571C421.801 805.678 420.864 807.379 419.387 809.799C417.936 812.239 415.873 815.349 413.725 818.364C409.403 824.387 404.461 829.756 404.106 829.432Z" fill="black"/>
<path d="M232.05 303.553C231.843 303.542 231.741 300.493 232.309 295.939C232.64 293.343 233.116 290.769 233.735 288.232C234.473 285.312 235.372 282.439 236.43 279.629C238.465 274.313 241.089 269.264 244.248 264.586C247.181 260.059 250.754 256.023 254.844 252.616C259.056 248.964 263.664 245.841 268.571 243.311C271.166 241.992 273.832 240.833 276.556 239.839C278.926 238.999 281.341 238.304 283.789 237.759C288.08 236.816 290.992 236.687 291.02 236.904C291.06 237.184 288.232 237.788 284.133 239.131C282.074 239.771 279.731 240.699 277.249 241.744C274.676 242.892 272.162 244.176 269.716 245.593C265.135 248.279 260.851 251.484 256.941 255.151C253.724 258.179 251.816 260.533 251.675 260.65C251.576 260.812 249.478 262.982 246.837 266.572C243.638 270.935 240.908 275.653 238.697 280.642C237.535 283.304 236.504 286.027 235.608 288.8C234.804 291.471 234.099 293.984 233.649 296.186C232.679 300.576 232.321 303.574 232.05 303.553Z" fill="black"/>
<path d="M246.972 333.326C246.794 333.436 245.767 332.065 244.599 329.745C243.225 326.852 242.225 323.78 241.626 320.61C241.056 317.382 240.843 314.095 240.991 310.816C241.118 308.099 241.455 306.26 241.431 306.144C241.49 306.042 241.821 304.2 242.651 301.629C243.656 298.521 245 295.544 246.656 292.758C248.318 290.037 250.319 287.56 252.606 285.392C254.502 283.679 255.933 282.8 256.061 282.962C256.235 283.182 255.11 284.429 253.583 286.364C251.75 288.747 250.145 291.314 248.793 294.026C247.494 296.762 246.466 299.63 245.725 302.585C245.12 305.015 244.911 306.717 244.852 306.811C244.872 306.92 244.477 308.593 244.189 311.081C243.849 314.117 243.806 317.182 244.062 320.226C244.375 323.27 244.974 326.274 245.852 329.195C246.597 331.595 247.21 333.186 246.972 333.326Z" fill="black"/>
<path d="M601.261 336.434C600.671 338.419 599.782 340.293 598.629 341.986C596.316 345.87 593.685 349.538 590.766 352.947C587.783 356.373 584.548 359.55 581.091 362.449C578.226 364.845 576.125 366.287 576.018 366.407C575.863 366.459 573.766 367.896 570.52 369.675C566.596 371.82 562.517 373.642 558.321 375.123C554.168 376.549 549.904 377.596 545.578 378.252C543.634 378.676 541.638 378.775 539.664 378.546C539.63 378.265 541.93 377.757 545.315 376.861C549.446 375.743 553.506 374.354 557.471 372.704C561.429 370.996 565.268 369.002 568.962 366.738C572.005 364.867 573.967 363.404 574.113 363.355C574.214 363.238 576.281 361.941 579.145 359.778C582.613 357.147 585.903 354.267 588.991 351.16C592.027 348.022 594.872 344.688 597.509 341.178C599.66 338.291 601.032 336.29 601.261 336.434Z" fill="black"/>
<defs>
<linearGradient id="paint0_linear" x1="304.135" y1="389.578" x2="757.02" y2="389.578" gradientUnits="userSpaceOnUse">
<stop stop-color="#8F6AFA"/>
<stop offset="0.447917" stop-color="#375CDC"/>
<stop offset="1" stop-color="#0099EE"/>
</linearGradient>
<linearGradient id="paint1_linear" x1="165.056" y1="1.21082" x2="496.756" y2="1.21082" gradientUnits="userSpaceOnUse">
<stop stop-color="#8F6AFA"/>
<stop offset="0.447917" stop-color="#375CDC"/>
<stop offset="1" stop-color="#0099EE"/>
</linearGradient>
<linearGradient id="paint2_linear" x1="459.489" y1="299.872" x2="504.579" y2="299.872" gradientUnits="userSpaceOnUse">
<stop stop-color="#8F6AFA"/>
<stop offset="0.447917" stop-color="#375CDC"/>
<stop offset="1" stop-color="#0099EE"/>
</linearGradient>
</defs>
</svg>
