<svg width="821" height="1093" viewBox="0 0 821 1093" fill="none" xmlns="http://www.w3.org/2000/svg">
<path d="M146.795 1.26857C269.371 136.606 586.979 186.321 937.723 19.2208C849.346 202.893 606.306 835.384 894.276 971.462C860.394 1047.35 747.246 1082.57 700.215 1082.57C549.695 1082.57 285.67 968.454 139.994 1091.5C-77.5762 732.2 -9.24068 355.492 146.795 1.26857Z" fill="white"/>
<path d="M145.283 1.88287C171.434 30.6367 203.832 53.1332 238.438 70.5414C279.545 91.2209 323.983 104.958 369.084 113.684C421.981 123.928 476.153 127.27 529.956 125.439C591.773 123.108 653.203 114.61 713.331 100.071C781.834 83.5581 848.632 60.6381 912.843 31.6141C921.39 27.7784 929.893 23.8454 938.351 19.815L936.112 19.4438C917.728 57.6809 901.108 96.7812 885.414 136.194C864.272 189.314 845.061 243.152 827.78 297.709C808.462 358.161 792.302 419.578 779.366 481.71C766.961 542.344 758.068 603.985 756.33 665.918C754.818 720.041 758.543 775.312 774.534 827.313C788.44 872.536 812.643 914.911 849.688 945.061C858.742 952.412 868.396 958.993 878.549 964.733C881.105 966.18 883.689 967.575 886.302 968.917C887.674 969.489 889.004 970.156 890.282 970.914C892.415 972.449 892.27 972.636 890.977 975.281C887.101 983.142 882.431 990.585 877.039 997.495C855.439 1025.4 824.349 1045.13 792.33 1059.07C765.688 1070.67 736.384 1079.85 707.2 1081.53C676.711 1083.28 645.311 1078.23 615.289 1073.51C540.124 1061.67 465.89 1044.05 390.033 1036.78C320.072 1030.08 245.023 1031.07 180.919 1063.43C165.823 1071.06 151.658 1080.42 138.707 1091.31L141.616 1091.08C101.092 1024.47 68.7753 953.207 45.3713 878.834C23.8795 809.45 10.59 737.788 5.77454 665.311C1.18378 593.37 3.86232 521.15 13.7695 449.747C23.536 377.452 39.8197 306.127 60.6945 236.258C82.2374 165.053 107.793 95.1244 137.238 26.8078C140.912 18.1994 144.637 9.6118 148.412 1.04488C148.803 0.154824 145.619 0.490693 145.179 1.49159C114.766 69.942 88.0889 139.993 65.2671 211.335C43.2353 281.063 25.6031 352.267 14.285 424.541C2.9372 495.303 -1.49287 567.001 1.05752 638.621C3.80622 711.197 14.969 783.209 34.3218 853.21C55.1596 927.421 84.9626 998.816 123.072 1065.82C128.045 1074.6 133.145 1083.31 138.372 1091.94C138.904 1092.82 140.66 1092.24 141.28 1091.72C184.887 1055.14 240.47 1039.64 296.443 1036.15C355.42 1032.46 414.622 1040.25 472.67 1050.04C528.254 1059.42 583.432 1071.69 639.368 1078.92C661.094 1081.74 683.561 1084.43 705.504 1083.25C725.742 1082.16 745.885 1077.28 765.099 1071.04C811.735 1055.88 860.336 1029.63 887.31 987.167C890.543 982.061 893.414 976.735 895.901 971.227C896.006 970.991 895.756 970.785 895.585 970.703C840.442 944.496 802.375 896.497 782.142 839.587C759.386 775.581 756.655 705.475 760.798 638.274C765.566 560.952 780.148 484.348 799.085 409.335C817.733 336.324 840.221 264.347 866.455 193.707C886.475 139.344 908.235 85.5229 932.715 33.0046C934.898 28.3225 937.108 23.6534 939.346 18.9971C939.79 18.0752 937.363 18.5051 937.108 18.626C873.131 49.2836 806.453 73.9527 737.928 92.3175C676.893 108.694 614.369 118.908 551.295 122.804C497.099 125.951 442.467 123.97 388.852 115.195C342.794 107.657 297.306 95.1153 254.804 75.655C219.204 59.3653 185.451 38.0544 157.586 10.3653C154.409 7.20809 151.315 3.97086 148.306 0.65359C147.606 -0.11891 144.518 1.04152 145.283 1.88287Z" fill="black"/>
<path d="M164.791 876.375C168.813 835.561 179.095 795.75 198.34 759.357C202.662 750.63 207.985 742.437 214.202 734.94C217.46 731.225 221.819 726.565 226.958 725.677C232.403 724.739 236.102 729.741 237.999 734.148C241.363 741.957 241.934 750.985 241.83 759.377C241.706 769.472 241.16 779.51 241.466 789.616C241.762 799.716 242.581 809.794 243.92 819.81C246.176 836.476 249.769 853.551 257.175 868.767C261.831 878.333 268.885 888.948 279.929 891.569C283.532 892.637 287.402 892.331 290.792 890.711C293.658 888.95 296.069 886.54 297.831 883.676C303.841 874.841 307.433 864.226 311.013 854.248C316.089 840.094 320.679 825.773 325.749 811.619C331.151 795.96 337.555 780.664 344.923 765.827C348.503 758.735 352.533 751.88 356.99 745.303C361.8 738.283 367.451 730.68 374.978 726.354C379.107 723.98 383.736 723.451 387.547 726.689C391.402 729.96 393.272 735.166 394.398 739.936C395.907 746.858 396.344 753.971 395.694 761.025C395.312 766.089 394.293 771.075 393.958 776.135C392.464 798.658 395.573 822.058 400.584 843.973C403.097 855.861 406.947 867.427 412.059 878.45C416.1 886.782 421.386 895.303 429.363 900.393C435.915 904.567 444.477 905.659 451.454 901.88C459.604 897.467 464.459 888.324 468.193 880.239C473.757 868.191 477.717 855.422 481.669 842.779C486.402 827.635 490.942 812.421 496.352 797.5C501.628 782.951 507.688 768.507 516.017 755.412C520.183 748.508 525.065 742.063 530.583 736.183C532.727 734.005 536.412 729.995 539.886 730.401C545.978 731.114 546.643 742.784 546.995 747.107C547.581 756.113 547.352 765.153 546.312 774.117C545.407 783.174 543.965 792.16 543.144 801.23C541.943 813.755 541.556 826.344 541.986 838.918C542.474 851.102 543.841 863.554 547.892 875.124C551.098 884.284 556.371 893.344 565.154 898.122C581.057 906.778 601.115 899.281 613.724 888.239C628.918 874.943 638.377 855.781 645.594 837.282C654.506 814.434 660.308 790.405 664.746 766.326C668.975 743.14 671.996 719.749 673.796 696.249C675.259 680.213 675.826 664.107 675.496 648.008C674.607 630.068 672.627 612.198 669.568 594.498C665.746 569.343 660.418 544.439 653.611 519.921C647.268 497.476 639.607 474.554 627.009 454.763C618.61 441.561 606.134 427.913 589.108 428.857C564.953 430.197 546.927 451.097 534.652 469.87C517.952 495.414 506.616 524.538 497.639 553.574C493.428 567.2 489.777 581.013 486.838 594.969C485.184 603.954 482.227 612.649 478.061 620.781C476.311 623.99 474.158 627.622 470.995 629.637C468.123 631.467 465.354 630.025 463.164 627.777C458.5 622.988 456.036 616.012 453.946 609.82C450.721 600.223 448.366 590.357 446.907 580.339C444.413 561.735 444.108 542.902 445.999 524.226C447.339 508.836 449.816 493.573 451.194 478.187C452.047 468.639 453.219 457.148 448.647 448.294C444.249 439.78 434.718 437.82 425.854 438.172C416.1 438.561 407.06 443.206 399.336 448.892C389.229 456.681 380.217 465.793 372.541 475.984C352.721 501.158 337.36 530.003 324.609 559.299C318.303 573.66 312.788 588.355 308.088 603.319C305.864 610.488 304.18 617.791 302.055 624.982C299.953 632.094 297.194 639.777 292.066 645.327C289.19 648.437 285.495 650.544 281.201 649.321C276.632 648.018 273.074 644.169 270.4 640.432C261.568 628.082 258.899 612.032 257.773 597.252C256.282 577.654 258.085 557.991 260.837 538.584C262.982 523.452 266.243 508.267 266.909 492.975C267.261 484.907 267.123 473.704 258.727 469.525C248.155 464.266 235.125 470.456 226.77 477.043C212.235 488.51 201.784 505.121 192.476 520.843C181.582 539.226 172.093 558.391 162.505 577.468C154.678 593.046 147.098 609.021 137.394 623.543C134.393 628.034 131.059 632.953 126.56 636.087C125.564 636.958 124.306 637.472 122.985 637.547C121.664 637.623 120.356 637.255 119.268 636.503C113.988 633.039 112.281 625.173 111.203 619.437C109.508 609.137 108.946 598.682 109.527 588.259C110.744 560.275 114.965 532.502 122.117 505.419C128.339 480.992 136.267 455.936 149.756 434.434C150.594 433.107 147.329 433.333 146.723 434.3C132.784 456.515 124.671 482.54 118.364 507.799C111.374 534.703 107.306 562.282 106.232 590.058C105.718 600.307 106.323 610.581 108.039 620.699C109.18 626.593 111.017 634 116.169 637.757C122.614 642.459 129.66 637.119 134.022 632.166C143.942 620.901 150.718 606.637 157.531 593.399C166.981 575.029 175.948 556.42 185.77 538.248C195.506 520.235 205.895 501.781 219.849 486.637C228.069 477.714 241.837 465.592 255.152 470.714C264.425 474.282 264.065 486.962 263.57 495.081C262.623 510.659 259.355 526.069 257.235 541.499C254.619 560.556 253.045 579.857 254.612 599.083C255.799 613.627 258.591 629.081 267.101 641.308C272.045 648.415 280.207 654.445 289.029 650.231C293.692 648.005 297.002 643.652 299.447 639.236C303.441 632.022 305.469 624.054 307.547 616.139C311.44 601.617 316.211 587.343 321.832 573.398C333.862 543.1 348.8 513.479 367.624 486.8C375.495 475.217 384.687 464.589 395.017 455.13C402.589 448.448 411.733 441.881 421.988 440.4C430.778 439.132 441.246 440.835 445.571 449.504C450.205 458.793 448.71 470.81 447.737 480.733C446.22 496.198 443.792 511.553 442.541 527.054C440.807 545.556 441.254 564.198 443.874 582.595C445.393 592.572 447.821 602.389 451.125 611.925C453.185 617.788 455.65 624.337 460.026 628.931C465.502 634.678 472.494 632.511 477.109 626.937C482.685 620.205 485.816 611.215 488.14 602.907C489.539 597.9 490.441 592.768 491.597 587.703C493.148 580.919 494.853 574.173 496.712 567.467C504.963 537.589 515.674 507.856 531.069 480.868C537.873 468.932 545.715 457.323 555.576 447.68C563.549 439.882 573.316 433.025 584.553 431.224C602.363 428.365 615.268 442.316 624.013 456.063C636.674 475.966 644.292 499.111 650.623 521.682C657.377 546.178 662.665 571.055 666.461 596.18C669.478 613.733 671.416 631.455 672.263 649.246C672.558 665.641 671.937 682.039 670.404 698.364C668.538 722.071 665.42 745.662 661.064 769.04C656.539 793.029 650.642 816.979 641.55 839.68C634.239 857.938 624.489 877.125 608.762 889.581C594.868 900.582 573.123 905.029 560.039 890.306C552.764 882.119 549.481 870.938 547.553 860.384C545.4 847.507 544.597 834.442 545.157 821.399C545.482 809.694 546.498 798.008 547.972 786.391C548.993 778.402 550.027 770.464 550.389 762.405C550.761 754.132 552.568 722.119 535.998 729.493C531.488 731.503 527.865 735.432 524.724 739.111C519.465 745.353 514.755 752.037 510.646 759.089C503.08 772.447 496.822 786.505 491.959 801.066C486.729 815.852 482.283 830.893 477.573 845.849C473.593 858.491 469.603 871.348 463.655 883.234C460.107 890.326 454.863 899.937 446.411 901.919C438.145 903.859 430.154 898.522 424.947 892.634C417.791 884.551 413.313 874.251 409.79 864.159C405.721 852.161 402.688 839.837 400.723 827.322C398.741 815.536 397.518 803.635 397.062 791.693C396.894 786.835 396.862 781.964 397.122 777.108C397.375 772.418 398.236 767.849 398.714 763.187C399.879 751.841 400.023 736.89 392.496 727.437C385.685 718.882 375.033 722.905 367.947 728.858C361.265 734.473 356.015 741.816 351.337 749.112C347.04 755.89 343.143 762.913 339.666 770.145C332.715 784.813 326.6 799.862 321.35 815.22C316.407 829.201 311.894 843.334 306.806 857.263C303.303 866.847 299.767 877.501 293.305 885.582C291.696 887.592 289.566 889.876 286.859 890.177C281.962 890.72 276.864 888.257 273.163 885.269C262.605 876.755 257.296 862.437 253.57 849.866C248.467 831.685 245.56 812.959 244.91 794.088C244.396 783.356 244.604 772.668 244.999 761.939C245.311 753.492 244.999 744.673 242.435 736.551C240.897 731.662 238.203 726.124 233.05 724.255C229.008 722.788 224.617 724.046 221.033 726.116C215.759 729.161 211.583 733.988 207.946 738.779C201.838 747.175 196.525 756.122 192.078 765.504C174.719 800.356 165.341 838.129 161.538 876.753C161.402 878.132 164.669 877.556 164.784 876.382L164.791 876.375Z" fill="black"/>
<path d="M675.446 646.84C674.851 632.748 673.083 618.678 671.1 604.725C668.283 584.901 664.681 565.175 660.181 545.663C655.729 525.45 649.805 505.59 642.457 486.241C636.385 470.719 629.011 454.642 617.564 442.279C613.369 437.507 608.198 433.689 602.402 431.083C596.263 428.648 589.532 428.123 583.09 429.577C564.124 433.334 549.603 448.687 538.807 463.748C524.501 483.715 514.28 506.553 505.791 529.497C497.642 551.68 491.127 574.43 486.298 597.563C484.844 604.595 482.56 611.431 479.496 617.926C478.091 621.064 476.289 624.008 474.133 626.686C472.73 628.335 470.752 630.423 468.418 630.507C465.642 630.608 463.303 628.107 461.753 626.114C458.487 621.492 455.985 616.377 454.342 610.963C449.075 595.523 445.981 579.427 445.147 563.136C443.552 535.803 448.035 509.006 450.831 481.93C452.205 468.632 455.268 446.401 439.602 440.043C432.197 437.389 424.12 437.271 416.642 439.708C408.561 442.478 401.108 446.815 394.709 452.471C377.095 467.139 363.57 486.794 351.815 506.258C338.113 529.106 326.44 553.109 316.93 577.994C312.544 589.372 308.593 600.941 305.335 612.685C302.199 623.991 300.055 637.643 291.195 646.17C290.116 647.364 288.775 648.292 287.277 648.881C285.78 649.471 284.166 649.706 282.562 649.569C279.121 648.848 276.009 647.025 273.698 644.376C266.522 637.006 262.771 626.465 260.52 616.631C253.634 586.538 258.29 554.671 262.954 524.614C264.722 513.224 266.909 501.667 267.006 490.094C267.061 483.345 266.493 474.963 260.549 470.597C253.803 465.642 243.498 467.558 236.513 470.831C224.843 476.3 215.882 486.694 208.286 496.794C198.456 510.342 189.66 524.612 181.976 539.482C181.901 539.596 181.864 539.731 181.869 539.868C181.874 540.004 181.922 540.136 182.006 540.244C197.957 557.44 210.189 577.74 217.936 599.874C226.83 624.916 231.339 651.302 231.267 677.875C231.29 685.745 230.955 693.606 230.261 701.456C229.897 705.615 229.437 709.765 228.882 713.905C228.608 715.928 228.314 717.947 227.999 719.963C227.58 721.621 227.318 723.315 227.214 725.022C227.231 725.434 227.933 725.606 228.232 725.611C233.315 725.71 236.425 730.335 238.18 734.593C241.056 741.569 241.751 749.448 241.827 756.919C241.919 766.19 241.193 775.45 241.344 784.724C241.492 793.734 242.005 802.741 242.943 811.704C244.368 827.903 247.793 843.865 253.139 859.224C256.962 869.609 262.268 880.788 271.407 887.547C277.023 891.701 285.787 894.376 292.021 890.012C298.034 885.798 301.426 878.016 304.279 871.534C309.018 860.768 312.729 849.554 316.513 838.43C321.11 824.915 325.66 811.379 330.792 798.062C336.012 784.048 342.272 770.442 349.519 757.359C353.42 750.285 357.941 743.57 363.027 737.293C367.036 732.479 371.971 727.043 378.099 724.978C387.531 721.796 392.567 732.295 394.355 739.745C395.734 745.877 396.238 752.173 395.852 758.447C395.61 763.579 394.625 768.594 394.149 773.689C393.482 782.319 393.494 790.987 394.186 799.615C394.912 810.766 396.287 821.866 398.305 832.857C400.267 844.073 403.126 855.113 406.852 865.872C409.86 875.141 414.335 883.868 420.106 891.721C424.775 897.689 430.999 902.791 438.682 903.984C442.18 904.506 445.754 904.142 449.076 902.926C452.397 901.709 455.36 899.68 457.694 897.022C464.142 890.195 468.084 881.126 471.507 872.515C476.159 860.79 479.848 848.706 483.573 836.67C491.918 809.742 499.904 781.843 514.682 757.589C518.541 751.118 522.933 744.979 527.813 739.237C530.524 736.115 533.808 732.278 537.815 730.795C543.255 728.785 545.336 736.608 546.101 740.415C549.087 755.323 546.726 771.197 544.798 786.099C541.991 807.808 540.498 830.089 542.945 851.902C544.929 869.574 550.181 892.984 569.046 899.903C584.186 905.458 601.415 898.791 613.069 888.86C626.79 877.168 635.84 860.517 642.802 844.164C651.053 824.053 657.366 803.202 661.656 781.893C666.245 760.163 669.684 738.206 671.961 716.114C673.825 698.563 675.146 680.923 675.519 663.274C675.637 657.8 675.668 652.314 675.446 646.84Z" fill="black"/>
<path d="M631.393 232.96C631.375 232.819 631.342 232.68 631.294 232.546C630.831 232.193 630.368 231.849 629.906 231.512L629.893 231.512C629.697 231.505 629.503 231.539 629.321 231.611C629.139 231.683 628.975 231.792 628.838 231.931C628.701 232.07 628.595 232.235 628.527 232.417C628.458 232.599 628.429 232.793 628.44 232.987C628.458 234.105 628.933 235.11 630.3 234.795C630.441 234.755 630.573 234.691 630.691 234.605C630.916 234.142 631.148 233.657 631.373 233.202C631.378 233.119 631.394 233.042 631.393 232.96Z" fill="black"/>
<path d="M591.943 339.417C591.943 340.583 592.507 341.583 593.718 341.573C593.875 341.56 594.029 341.525 594.176 341.469C594.242 341.08 594.317 340.703 594.377 340.303C594.486 339.587 594.631 338.842 594.75 338.117C594.337 337.836 593.833 337.718 593.337 337.784C593.137 337.798 592.942 337.852 592.763 337.942C592.584 338.033 592.425 338.157 592.295 338.309C592.165 338.461 592.067 338.638 592.007 338.828C591.946 339.018 591.925 339.218 591.943 339.417Z" fill="black"/>
<path d="M606.017 266.652C604.87 267.152 603.304 267.582 603.075 269.385C602.944 270.423 603.41 271.507 604.734 271.384C605.498 271.294 606.205 270.934 606.724 270.369C607.244 269.805 607.542 269.074 607.564 268.31C607.687 267.522 607.183 266.932 606.017 266.652Z" fill="black"/>
<path d="M600.077 296.715C598.786 296.346 598.209 297.315 598.189 298.475C598.182 298.669 598.213 298.862 598.281 299.044C598.35 299.226 598.453 299.392 598.587 299.534C598.72 299.675 598.88 299.789 599.058 299.869C599.236 299.949 599.428 299.993 599.624 299.998C600.518 299.915 601.212 299.427 601.107 298.555C601.025 297.885 600.575 296.857 600.077 296.715Z" fill="black"/>
<path d="M599.045 285.175C598.795 285.203 598.554 285.282 598.336 285.408C598.119 285.534 597.931 285.703 597.783 285.905C597.635 286.107 597.531 286.337 597.477 286.581C597.423 286.825 597.421 287.078 597.471 287.322C597.498 287.572 597.578 287.813 597.706 288.03C597.834 288.247 598.006 288.434 598.213 288.579C598.419 288.724 598.654 288.824 598.902 288.872C599.15 288.92 599.406 288.915 599.652 288.857C600.84 288.719 601.229 287.824 601.162 286.709C601.147 286.461 601.077 286.219 600.957 286.001C600.837 285.782 600.67 285.593 600.467 285.446C600.265 285.3 600.033 285.199 599.787 285.152C599.541 285.105 599.287 285.113 599.045 285.175Z" fill="black"/>
<path d="M604.581 256.434C604.406 256.794 604.38 257.208 604.508 257.587C604.637 257.967 604.91 258.281 605.269 258.462C606.47 258.948 607.282 258.35 607.45 257.117C607.488 256.733 607.398 256.348 607.194 256.019C606.99 255.691 606.683 255.438 606.321 255.299C605.323 255.046 604.823 255.651 604.581 256.434Z" fill="black"/>
<path d="M605.534 243.372C604.341 243.727 603.293 244.143 603.645 245.386C603.8 245.703 604.032 245.977 604.319 246.183C604.607 246.39 604.941 246.522 605.293 246.569C606.331 246.569 607.331 245.928 607.009 244.695C606.865 244.143 606.009 243.77 605.534 243.372Z" fill="black"/>
<path d="M599.716 308.983C599.347 308.864 598.947 308.886 598.593 309.045C598.24 309.204 597.959 309.489 597.807 309.843C597.7 309.994 597.629 310.168 597.6 310.351C597.571 310.533 597.584 310.72 597.639 310.897C597.694 311.074 597.788 311.236 597.916 311.371C598.043 311.506 598.2 311.61 598.374 311.676C598.576 311.782 598.797 311.847 599.024 311.866C599.252 311.886 599.481 311.86 599.698 311.79C599.915 311.72 600.116 311.607 600.289 311.458C600.461 311.31 600.602 311.128 600.702 310.924C601.092 309.671 600.473 309.188 599.716 308.983Z" fill="black"/>
<path d="M597.453 321.974C597.414 322.418 597.533 322.861 597.788 323.228C598 322.34 598.194 321.46 598.417 320.562C598.142 320.688 597.907 320.886 597.737 321.134C597.567 321.383 597.469 321.673 597.453 321.974Z" fill="black"/>
<path d="M593.778 243.498C593.389 243.479 593.006 243.602 592.702 243.845C592.398 244.088 592.194 244.433 592.129 244.815C591.899 246.221 593.012 246.586 594.008 246.513C594.353 246.443 594.675 246.29 594.946 246.067C595.217 245.844 595.429 245.559 595.564 245.236C595.85 243.922 594.768 243.628 593.778 243.498Z" fill="black"/>
<path d="M595.48 315.463C595.394 315.1 595.183 314.777 594.884 314.552C594.584 314.327 594.214 314.213 593.839 314.23C593.325 314.275 592.845 314.504 592.487 314.873C592.129 315.242 591.918 315.728 591.893 316.24C591.867 316.43 591.883 316.623 591.94 316.806C591.997 316.989 592.093 317.158 592.222 317.301C592.351 317.443 592.509 317.556 592.686 317.632C592.864 317.708 593.055 317.745 593.248 317.739C594.728 317.783 595.703 317.045 595.48 315.463Z" fill="black"/>
<path d="M591.767 328.116C591.717 328.358 591.717 328.609 591.769 328.851C591.821 329.094 591.922 329.323 592.067 329.525C592.212 329.726 592.398 329.896 592.612 330.023C592.826 330.15 593.064 330.232 593.312 330.263C594.401 330.205 595.335 329.784 595.458 328.642C595.5 328.397 595.491 328.145 595.431 327.903C595.37 327.662 595.261 327.435 595.108 327.237C594.956 327.04 594.764 326.875 594.545 326.755C594.325 326.634 594.083 326.559 593.834 326.536C593.59 326.476 593.337 326.472 593.092 326.523C592.846 326.574 592.616 326.68 592.417 326.831C592.219 326.983 592.057 327.177 591.944 327.4C591.832 327.622 591.771 327.867 591.767 328.116Z" fill="black"/>
<path d="M618.156 235.392C619.399 235.333 619.808 234.487 619.793 233.187L619.743 233.114C618.468 233.404 617.2 233.708 615.939 234.025C616.102 234.466 616.408 234.841 616.81 235.088C617.212 235.336 617.686 235.443 618.156 235.392Z" fill="black"/>
<path d="M618.686 243.588C617.432 243.013 615.824 242.953 615.27 244.28C614.716 245.606 615.911 246.689 617.179 247.224C618.327 247.709 619.134 247.058 619.721 246.099C619.846 245.871 619.919 245.618 619.934 245.359C619.948 245.099 619.904 244.84 619.805 244.599C619.706 244.359 619.554 244.143 619.36 243.968C619.167 243.793 618.936 243.663 618.686 243.588Z" fill="black"/>
<path d="M622.128 250.702C622.136 251.178 622.309 251.636 622.618 252C623.046 251.03 623.472 250.07 623.898 249.119C623.759 249.092 623.617 249.083 623.476 249.094C623.084 249.135 622.725 249.326 622.473 249.626C622.222 249.926 622.098 250.312 622.128 250.702Z" fill="black"/>
<path d="M611.649 240.997C612.784 240.997 613.393 240.044 613.508 238.831C613.48 238.578 613.397 238.335 613.264 238.117C613.132 237.899 612.954 237.713 612.742 237.57C612.53 237.428 612.289 237.333 612.037 237.291C611.784 237.25 611.525 237.264 611.279 237.331C610.88 237.348 610.504 237.52 610.233 237.811C609.962 238.101 609.818 238.487 609.832 238.883C609.879 240.026 610.505 241 611.649 240.997Z" fill="black"/>
<path d="M611.104 261.173C610.715 261.244 610.367 261.456 610.128 261.768C609.888 262.08 609.775 262.47 609.809 262.861C609.95 263.957 610.634 264.86 611.822 264.742C613.01 264.624 613.5 263.677 613.456 262.511C613.418 262.255 613.322 262.01 613.174 261.796C613.027 261.582 612.833 261.404 612.607 261.276C612.38 261.147 612.128 261.071 611.867 261.053C611.607 261.035 611.346 261.076 611.104 261.173Z" fill="black"/>
<path d="M611.628 249.142C611.114 249.123 610.613 249.307 610.236 249.654C609.858 250.001 609.635 250.483 609.614 250.993C609.596 251.244 609.634 251.495 609.723 251.73C609.813 251.965 609.953 252.177 610.134 252.353C610.315 252.529 610.531 252.663 610.77 252.747C611.008 252.831 611.262 252.863 611.514 252.84C612.006 252.867 612.491 252.708 612.87 252.394C613.249 252.08 613.493 251.635 613.554 251.148C613.549 250.634 613.347 250.14 612.989 249.768C612.632 249.395 612.145 249.172 611.628 249.142Z" fill="black"/>
<path d="M611.361 272.999C610.864 273.067 610.412 273.324 610.101 273.715C609.79 274.107 609.644 274.602 609.692 275.098C609.742 276.348 610.733 276.753 611.772 276.698C612.036 276.686 612.296 276.623 612.535 276.511C612.804 275.807 613.079 275.112 613.351 274.41C613.23 273.985 612.968 273.613 612.606 273.357C612.244 273.1 611.805 272.974 611.361 272.999Z" fill="black"/>
<path d="M567.073 352.382C566.98 353.549 568.032 354.035 569.197 354.268C570.837 354.029 571.977 353.169 571.847 351.316C571.809 350.934 571.626 350.58 571.337 350.326C571.047 350.071 570.672 349.934 570.285 349.943C568.581 349.898 567.217 350.561 567.073 352.382Z" fill="black"/>
<path d="M558.084 385.287C557.894 385.302 557.707 385.349 557.531 385.425C557.718 385.383 557.899 385.331 558.084 385.287Z" fill="black"/>
<path d="M563.422 371.365C563.922 371.396 564.415 371.238 564.801 370.921C565.188 370.605 565.439 370.155 565.504 369.662C565.56 369.419 565.559 369.166 565.503 368.923C565.446 368.68 565.335 368.453 565.178 368.258C565.021 368.064 564.821 367.907 564.594 367.8C564.368 367.693 564.119 367.638 563.868 367.639C562.796 367.576 561.82 368.007 561.761 369.222C561.714 369.722 561.86 370.22 562.168 370.618C562.476 371.015 562.924 371.282 563.422 371.365Z" fill="black"/>
<path d="M593.594 255.126C593.097 255.135 592.623 255.336 592.273 255.687C591.923 256.037 591.725 256.51 591.72 257.003C591.715 257.497 591.904 257.973 592.247 258.331C592.59 258.688 593.06 258.898 593.557 258.917C593.812 258.926 594.066 258.885 594.305 258.795C594.544 258.705 594.762 258.569 594.947 258.394C595.131 258.219 595.279 258.009 595.38 257.777C595.482 257.544 595.536 257.294 595.538 257.04C595.54 256.787 595.492 256.535 595.395 256.301C595.298 256.066 595.154 255.854 594.973 255.675C594.792 255.497 594.576 255.356 594.339 255.262C594.103 255.167 593.849 255.121 593.594 255.126Z" fill="black"/>
<path d="M587.806 284.963C587.624 284.912 587.433 284.906 587.249 284.945C587.065 284.984 586.893 285.067 586.748 285.186C586.603 285.306 586.49 285.459 586.418 285.632C586.346 285.805 586.317 285.993 586.334 286.179C586.246 286.802 586.407 287.433 586.784 287.938C587.161 288.443 587.723 288.78 588.348 288.877C589.225 289.014 589.629 288.317 589.844 287.557C589.902 287.251 589.893 286.937 589.819 286.634C589.745 286.332 589.607 286.049 589.414 285.803C589.222 285.558 588.978 285.356 588.701 285.211C588.424 285.066 588.119 284.982 587.806 284.963Z" fill="black"/>
<path d="M593.455 291.197C593.089 291.251 592.758 291.443 592.53 291.732C592.302 292.022 592.194 292.387 592.228 292.753C592.27 293.114 592.452 293.444 592.736 293.673C593.02 293.902 593.382 294.012 593.747 293.979C593.992 293.964 594.231 293.895 594.448 293.778C594.664 293.662 594.852 293.499 594.998 293.303C595.145 293.106 595.246 292.881 595.296 292.641C595.345 292.402 595.342 292.154 595.285 291.917C595.104 291.14 594.201 291.003 593.455 291.197Z" fill="black"/>
<path d="M593.317 282.655C593.816 282.722 594.321 282.593 594.726 282.295C595.13 281.997 595.401 281.554 595.481 281.06C595.539 280.566 595.398 280.07 595.088 279.679C594.779 279.287 594.327 279.033 593.831 278.971C593.588 278.91 593.334 278.905 593.089 278.955C592.843 279.005 592.612 279.11 592.414 279.261C592.215 279.412 592.053 279.606 591.94 279.828C591.827 280.05 591.766 280.295 591.762 280.544C591.706 280.786 591.703 281.037 591.753 281.28C591.803 281.523 591.905 281.753 592.053 281.953C592.201 282.153 592.39 282.32 592.608 282.441C592.826 282.562 593.068 282.635 593.317 282.655Z" fill="black"/>
<path d="M593.594 306.498C593.849 306.503 594.103 306.457 594.34 306.362C594.577 306.267 594.793 306.127 594.974 305.948C595.155 305.769 595.299 305.556 595.396 305.322C595.493 305.087 595.541 304.835 595.539 304.582C595.536 304.328 595.482 304.077 595.38 303.845C595.279 303.612 595.131 303.402 594.946 303.227C594.761 303.052 594.543 302.915 594.304 302.826C594.065 302.736 593.81 302.695 593.555 302.704C592.398 302.661 591.878 303.551 591.678 304.612C591.856 305.71 592.485 306.54 593.594 306.498Z" fill="black"/>
<path d="M593.75 270.188C593.996 270.171 594.235 270.102 594.452 269.984C594.668 269.867 594.856 269.703 595.002 269.506C595.148 269.309 595.249 269.082 595.298 268.842C595.347 268.602 595.342 268.355 595.285 268.116C595.109 267.338 594.198 267.203 593.451 267.398C593.084 267.452 592.752 267.645 592.525 267.935C592.297 268.226 592.191 268.593 592.228 268.96C592.273 269.32 592.456 269.65 592.74 269.879C593.023 270.108 593.386 270.218 593.75 270.188Z" fill="black"/>
<path d="M570.002 338.125C569.493 338.109 568.997 338.288 568.617 338.626C568.237 338.964 568.003 339.434 567.963 339.938C567.93 340.187 567.958 340.439 568.045 340.675C568.133 340.91 568.277 341.12 568.465 341.287C568.654 341.454 568.88 341.573 569.125 341.633C569.37 341.693 569.626 341.692 569.871 341.631C570.334 341.575 570.76 341.351 571.067 341.002C571.374 340.653 571.54 340.203 571.534 339.74C571.373 338.662 570.837 338.095 570.002 338.125Z" fill="black"/>
<path d="M521.862 376.884C522.803 376.682 523.91 376.516 523.707 375.116C523.66 374.74 523.472 374.396 523.181 374.153C522.889 373.909 522.516 373.784 522.135 373.803C521.083 373.838 520.055 374.216 520.229 375.552C520.291 375.934 520.491 376.28 520.791 376.525C521.092 376.77 521.473 376.898 521.862 376.884Z" fill="black"/>
<path d="M528.173 380.121C527.827 380.199 527.5 380.344 527.212 380.55C526.924 380.755 526.68 381.016 526.495 381.316C526.093 382.134 526.792 382.666 527.485 382.924C528.804 383.112 529.571 382.543 529.65 381.348C529.666 381.161 529.636 380.973 529.564 380.8C529.491 380.626 529.378 380.473 529.233 380.353C529.088 380.232 528.916 380.148 528.732 380.108C528.547 380.068 528.356 380.072 528.173 380.121Z" fill="black"/>
<path d="M529.688 369.185C529.527 368.849 529.293 368.552 529.003 368.316C528.713 368.08 528.374 367.91 528.01 367.819C526.772 367.729 526.165 368.714 526.229 369.864C526.224 370.123 526.279 370.381 526.391 370.616C526.502 370.851 526.667 371.057 526.872 371.218C527.077 371.38 527.317 371.492 527.573 371.546C527.829 371.6 528.094 371.594 528.348 371.53C529.441 371.113 530.23 370.38 529.688 369.185Z" fill="black"/>
<path d="M534.597 376.309C534.933 376.101 535.005 375.476 535.194 375.027C534.793 374.276 534.151 373.886 533.394 374.321C533.205 374.472 533.058 374.669 532.965 374.892C532.872 375.115 532.838 375.357 532.864 375.597C532.897 375.78 532.976 375.951 533.093 376.096C533.21 376.24 533.362 376.353 533.535 376.424C533.707 376.494 533.895 376.521 534.081 376.501C534.266 376.481 534.444 376.415 534.597 376.309Z" fill="black"/>
<path d="M534.389 385.574C534.096 385.413 533.757 385.352 533.426 385.402C533.094 385.451 532.788 385.608 532.555 385.847C533.422 385.967 534.289 386.078 535.156 386.18C534.949 385.924 534.687 385.716 534.389 385.574Z" fill="black"/>
<path d="M503.977 371.653C504.489 371.655 504.98 371.456 505.344 371.099C505.708 370.742 505.914 370.257 505.918 369.749C505.918 368.679 505.031 368.047 503.96 367.812C503.709 367.816 503.461 367.868 503.231 367.968C503.001 368.068 502.793 368.212 502.62 368.393C502.446 368.573 502.311 368.786 502.222 369.019C502.133 369.252 502.091 369.501 502.1 369.75C502.084 370.001 502.121 370.252 502.209 370.488C502.297 370.724 502.434 370.938 502.611 371.118C502.788 371.297 503.001 371.438 503.237 371.53C503.472 371.622 503.724 371.664 503.977 371.653Z" fill="black"/>
<path d="M517.565 381.679C517.636 381.44 517.649 381.188 517.602 380.943C517.555 380.698 517.45 380.467 517.296 380.27C517.142 380.074 516.942 379.916 516.715 379.811C516.487 379.706 516.237 379.657 515.986 379.667C515.137 379.638 514.829 380.378 514.706 381.388C514.815 381.509 514.928 381.666 515.042 381.829C515.739 382.074 516.443 382.308 517.154 382.531C517.375 382.295 517.518 381.998 517.565 381.679Z" fill="black"/>
<path d="M516.713 371.345C516.948 371.27 517.164 371.144 517.344 370.976C517.525 370.808 517.666 370.603 517.757 370.375C517.849 370.147 517.888 369.901 517.873 369.656C517.858 369.411 517.788 369.172 517.669 368.957C517.526 368.611 517.269 368.324 516.939 368.142C516.61 367.96 516.228 367.895 515.857 367.957C515.05 368.562 514.48 369.314 514.995 370.402C515.322 371.092 515.916 371.69 516.713 371.345Z" fill="black"/>
<path d="M507.769 375.972C507.687 376.782 508.302 377.305 509.111 377.537C510.215 377.547 511.153 377.169 511.337 376.006C511.517 374.881 510.951 373.996 509.722 374.043C509.21 374.058 508.724 374.265 508.361 374.624C507.998 374.982 507.786 375.464 507.769 375.972Z" fill="black"/>
<path d="M556.949 373.879C556.76 373.893 556.576 373.946 556.408 374.034C556.241 374.122 556.093 374.244 555.975 374.391C555.857 374.538 555.771 374.709 555.722 374.891C555.674 375.073 555.664 375.263 555.693 375.449C555.71 375.698 555.788 375.94 555.918 376.154C556.049 376.368 556.229 376.547 556.444 376.678C556.659 376.808 556.902 376.886 557.153 376.904C557.404 376.922 557.656 376.88 557.887 376.782C558.659 376.59 559.229 376.132 559.187 375.636C558.946 373.918 558.04 373.676 556.949 373.879Z" fill="black"/>
<path d="M553.832 369.999C553.882 369.5 553.735 369.003 553.422 368.61C553.109 368.218 552.654 367.962 552.154 367.897C551.911 367.834 551.656 367.827 551.41 367.876C551.163 367.926 550.931 368.031 550.731 368.183C550.531 368.335 550.369 368.53 550.257 368.754C550.145 368.978 550.086 369.224 550.084 369.474C550.028 369.716 550.025 369.968 550.076 370.212C550.127 370.455 550.23 370.685 550.379 370.886C550.527 371.086 550.717 371.253 550.936 371.374C551.155 371.495 551.398 371.567 551.648 371.587C551.896 371.625 552.15 371.615 552.394 371.556C552.639 371.497 552.869 371.39 553.072 371.243C553.275 371.095 553.446 370.91 553.577 370.696C553.707 370.482 553.794 370.245 553.832 369.999Z" fill="black"/>
<path d="M557.454 361.912C557.204 361.884 556.95 361.917 556.716 362.01C556.482 362.102 556.274 362.249 556.11 362.44C555.947 362.63 555.833 362.858 555.778 363.102C555.724 363.346 555.731 363.6 555.798 363.841C555.825 364.092 555.905 364.334 556.033 364.551C556.16 364.769 556.333 364.957 556.539 365.104C556.744 365.251 556.979 365.354 557.227 365.404C557.476 365.455 557.732 365.454 557.979 365.4C558.359 365.371 558.713 365.198 558.967 364.916C559.222 364.635 559.358 364.268 559.347 363.89C559.333 363.386 559.132 362.906 558.782 362.541C558.433 362.176 557.96 361.952 557.454 361.912Z" fill="black"/>
<path d="M551.215 380.43C551.046 380.489 550.893 380.586 550.768 380.713C550.642 380.839 550.547 380.992 550.489 381.16C550.431 381.329 550.412 381.508 550.434 381.684C550.456 381.861 550.517 382.03 550.614 382.179C550.748 382.365 550.924 382.517 551.128 382.624C551.332 382.73 551.558 382.787 551.789 382.791C552.537 382.693 553.081 382.209 552.987 381.693C552.611 380.521 551.908 380.168 551.215 380.43Z" fill="black"/>
<path d="M563.189 359.314C564.323 359.549 565.103 359.132 565.257 358.386C565.425 357.035 564.865 356.553 564.083 356.401C562.981 356.18 562.097 356.533 561.939 357.768C561.913 357.952 561.925 358.139 561.975 358.318C562.025 358.497 562.111 358.664 562.228 358.809C562.345 358.953 562.491 359.073 562.656 359.16C562.821 359.247 563.002 359.299 563.189 359.314Z" fill="black"/>
<path d="M570.233 377.509C570.485 377.462 570.724 377.366 570.938 377.226C571.151 377.087 571.335 376.907 571.478 376.696C571.621 376.486 571.72 376.249 571.771 376C571.821 375.751 571.821 375.495 571.77 375.246C571.737 374.855 571.555 374.491 571.261 374.229C570.968 373.967 570.585 373.826 570.19 373.834C569.046 373.834 568.096 374.364 568.163 375.606C568.173 375.866 568.234 376.121 568.344 376.358C568.453 376.594 568.608 376.807 568.801 376.984C568.993 377.161 569.219 377.298 569.464 377.388C569.71 377.478 569.972 377.519 570.233 377.509Z" fill="black"/>
<path d="M565.896 345.797C565.893 345.419 565.761 345.053 565.52 344.759C565.28 344.466 564.947 344.262 564.574 344.182C563.152 343.897 562.83 345.015 562.872 345.975C562.93 346.315 563.072 346.635 563.285 346.908C563.498 347.18 563.776 347.395 564.093 347.535C565.358 347.815 565.719 346.78 565.896 345.797Z" fill="black"/>
<path d="M563.717 379.433C563.517 379.412 563.315 379.434 563.125 379.497C562.935 379.56 562.76 379.664 562.613 379.8C562.467 379.936 562.351 380.102 562.275 380.287C562.199 380.472 562.164 380.67 562.172 380.87C562.125 381.281 562.215 381.696 562.429 382.05C562.643 382.405 562.969 382.68 563.356 382.833C565.034 382.991 565.526 382.333 565.561 381.516C565.587 381.257 565.558 380.996 565.478 380.748C565.398 380.501 565.267 380.272 565.094 380.077C564.921 379.882 564.71 379.724 564.473 379.613C564.236 379.502 563.979 379.441 563.717 379.433Z" fill="black"/>
<path d="M539.88 379.467C538.642 379.595 538.104 380.253 538.172 381.056C538.174 381.317 538.231 381.574 538.34 381.811C538.448 382.048 538.605 382.26 538.802 382.433C538.998 382.606 539.228 382.736 539.478 382.814C539.728 382.893 539.992 382.918 540.253 382.889C540.451 382.892 540.648 382.851 540.83 382.771C541.011 382.691 541.173 382.573 541.304 382.425C541.436 382.277 541.533 382.102 541.59 381.913C541.647 381.724 541.663 381.525 541.635 381.329C541.62 380.86 541.433 380.413 541.111 380.07C540.788 379.727 540.35 379.513 539.88 379.467Z" fill="black"/>
<path d="M540.746 368.006C539.514 367.917 539.051 368.452 538.936 369.244C538.778 370.305 539.021 371.255 540.308 371.367C540.494 371.387 540.682 371.369 540.861 371.314C541.039 371.259 541.205 371.169 541.347 371.049C541.489 370.928 541.605 370.78 541.688 370.614C541.771 370.447 541.818 370.266 541.828 370.08C542.006 368.98 541.64 368.167 540.746 368.006Z" fill="black"/>
<path d="M545.907 385.499C545.689 385.44 545.46 385.428 545.237 385.463C545.014 385.498 544.801 385.58 544.612 385.702C544.423 385.825 544.262 385.986 544.139 386.174C544.017 386.363 543.936 386.575 543.902 386.797C545.076 386.808 546.251 386.785 547.425 386.733C547.322 386.402 547.124 386.108 546.854 385.888C546.583 385.668 546.254 385.533 545.907 385.499Z" fill="black"/>
<path d="M545.917 377.557C547.019 377.582 547.631 376.735 547.901 375.701C547.893 375.201 547.685 374.725 547.324 374.377C546.963 374.029 546.478 373.837 545.975 373.843C545.726 373.814 545.473 373.84 545.235 373.917C544.996 373.995 544.777 374.122 544.593 374.292C544.409 374.461 544.264 374.668 544.168 374.898C544.071 375.128 544.027 375.377 544.036 375.626C544.029 376.129 544.223 376.615 544.575 376.977C544.927 377.339 545.41 377.547 545.917 377.557Z" fill="black"/>
<path d="M571.512 363.785C571.566 363.541 571.56 363.288 571.494 363.047C571.428 362.806 571.304 362.585 571.133 362.402C570.961 362.22 570.748 362.081 570.51 361.999C570.273 361.917 570.019 361.893 569.77 361.93C569.518 361.945 569.271 362.009 569.043 362.119C568.816 362.229 568.613 362.383 568.446 362.572C568.279 362.761 568.152 362.981 568.072 363.219C567.992 363.457 567.96 363.709 567.979 363.96C567.977 364.338 568.121 364.703 568.379 364.982C568.638 365.26 568.993 365.43 569.373 365.459C569.879 365.515 570.387 365.371 570.788 365.057C571.188 364.744 571.448 364.287 571.512 363.785Z" fill="black"/>
<path d="M588.009 312.309C589.103 311.896 589.792 311.132 589.445 309.961C589.392 309.709 589.28 309.472 589.119 309.27C588.958 309.068 588.752 308.905 588.518 308.795C588.283 308.686 588.026 308.631 587.766 308.637C587.507 308.643 587.252 308.708 587.022 308.828C586.65 308.938 586.329 309.177 586.12 309.503C585.911 309.828 585.827 310.217 585.883 310.599C585.9 310.854 585.97 311.102 586.088 311.329C586.206 311.555 586.37 311.755 586.57 311.915C586.77 312.076 587 312.194 587.248 312.261C587.496 312.329 587.755 312.345 588.009 312.309Z" fill="black"/>
<path d="M581.622 306.533C582.126 306.522 582.606 306.315 582.958 305.955C583.309 305.595 583.504 305.112 583.499 304.611C583.517 304.361 583.481 304.11 583.395 303.875C583.309 303.64 583.174 303.425 582.999 303.245C582.824 303.064 582.613 302.922 582.38 302.828C582.146 302.734 581.895 302.69 581.644 302.698C581.134 302.694 580.643 302.89 580.277 303.243C579.911 303.596 579.699 304.077 579.687 304.584C579.677 305.655 580.571 306.273 581.622 306.533Z" fill="black"/>
<path d="M581.672 326.214C580.558 326.159 579.516 326.589 579.474 327.852C579.422 329.377 580.469 330.094 581.912 330.333C583.299 330.317 583.642 329.279 583.611 328.242C583.621 327.982 583.578 327.722 583.486 327.479C583.393 327.235 583.252 327.012 583.071 326.823C582.891 326.634 582.674 326.483 582.433 326.378C582.193 326.274 581.934 326.218 581.672 326.214Z" fill="black"/>
<path d="M587.911 300.23C588.772 300.363 589.312 299.717 589.535 298.943C589.572 298.682 589.556 298.416 589.488 298.161C589.421 297.906 589.303 297.667 589.142 297.457C588.981 297.248 588.78 297.072 588.551 296.94C588.321 296.807 588.067 296.722 587.804 296.687C587.607 296.665 587.407 296.684 587.218 296.742C587.028 296.799 586.853 296.895 586.702 297.023C586.551 297.151 586.428 297.308 586.341 297.485C586.254 297.662 586.204 297.855 586.195 298.052C586.153 298.308 586.164 298.571 586.229 298.823C586.294 299.074 586.411 299.31 586.572 299.515C586.734 299.719 586.936 299.889 587.166 300.012C587.397 300.135 587.651 300.209 587.911 300.23Z" fill="black"/>
<path d="M581.937 314.157C580.706 314.323 580.384 315.213 580.615 316.308C580.629 316.49 580.679 316.668 580.763 316.83C580.847 316.993 580.962 317.137 581.103 317.255C581.244 317.373 581.406 317.462 581.582 317.516C581.757 317.571 581.942 317.59 582.125 317.573C583.372 317.345 583.697 316.508 583.482 315.417C583.467 315.232 583.415 315.052 583.329 314.888C583.242 314.724 583.123 314.578 582.979 314.461C582.835 314.343 582.668 314.256 582.489 314.204C582.31 314.151 582.123 314.135 581.937 314.157Z" fill="black"/>
<path d="M587.175 321.284C587.164 321.523 587.213 321.761 587.318 321.977C587.424 322.193 587.581 322.379 587.777 322.518C588.113 322.66 588.671 322.279 589.133 322.124C588.972 321.666 588.73 321.24 588.42 320.865C588.326 320.763 588.204 320.691 588.069 320.656C587.934 320.622 587.792 320.627 587.66 320.671C587.528 320.716 587.412 320.797 587.326 320.906C587.24 321.015 587.187 321.146 587.175 321.284Z" fill="black"/>
<path d="M588.537 344.082C588.285 343.995 588.017 343.966 587.752 343.997C587.487 344.027 587.232 344.117 587.007 344.26C586.782 344.403 586.593 344.594 586.453 344.82C586.313 345.046 586.227 345.3 586.2 345.564C586.091 345.941 586.135 346.346 586.323 346.692C586.512 347.038 586.829 347.296 587.207 347.412C588.47 347.806 589.126 346.978 589.534 345.912C589.638 345.538 589.593 345.139 589.407 344.798C589.221 344.456 588.909 344.2 588.537 344.082Z" fill="black"/>
<path d="M588.029 335.521C588.401 335.481 588.743 335.299 588.983 335.013C589.223 334.727 589.341 334.36 589.312 333.989C589.3 333.742 589.23 333.502 589.107 333.287C588.984 333.072 588.812 332.888 588.605 332.751C588.398 332.615 588.161 332.528 587.913 332.499C587.666 332.47 587.416 332.498 587.182 332.583C586.995 332.596 586.813 332.647 586.647 332.732C586.481 332.817 586.334 332.935 586.215 333.078C586.096 333.221 586.008 333.387 585.955 333.565C585.902 333.743 585.886 333.93 585.908 334.114C586.044 335.321 586.898 335.729 588.029 335.521Z" fill="black"/>
<path d="M587.504 357.185C587.404 357.332 587.346 357.503 587.336 357.68C587.325 357.858 587.364 358.035 587.446 358.192C587.529 358.35 587.653 358.482 587.805 358.575C587.957 358.669 588.132 358.72 588.311 358.723C588.623 358.778 589.036 358.264 589.401 358.008C589.195 357.586 589.084 356.963 588.75 356.806C588.527 356.757 588.295 356.766 588.077 356.832C587.858 356.898 587.661 357.02 587.504 357.185Z" fill="black"/>
<path d="M581.122 338.18C580.872 338.198 580.628 338.267 580.406 338.382C580.184 338.498 579.989 338.658 579.833 338.853C579.676 339.047 579.562 339.272 579.497 339.512C579.432 339.752 579.418 340.004 579.456 340.25C579.518 341.463 580.473 341.798 581.551 341.834C581.8 341.833 582.046 341.778 582.271 341.672C582.496 341.566 582.695 341.412 582.853 341.221C583.011 341.03 583.125 340.807 583.187 340.567C583.248 340.328 583.256 340.078 583.209 339.835C583.189 339.587 583.117 339.346 583 339.127C582.882 338.908 582.721 338.715 582.525 338.56C582.33 338.405 582.104 338.291 581.863 338.226C581.622 338.161 581.369 338.145 581.122 338.18Z" fill="black"/>
<path d="M576.708 357.691C576.729 357.38 576.174 357.025 575.881 356.691C575.474 356.913 574.832 357.06 574.731 357.376C574.7 357.606 574.729 357.839 574.815 358.055C574.901 358.27 575.042 358.46 575.223 358.606C576.055 359.029 576.649 358.521 576.708 357.691Z" fill="black"/>
<path d="M581.187 365.669C582.093 365.519 583.143 365.356 583.222 364.08C583.259 363.834 583.245 363.584 583.182 363.345C583.118 363.105 583.006 362.88 582.853 362.684C582.7 362.489 582.508 362.326 582.289 362.206C582.071 362.086 581.83 362.012 581.581 361.987C581.335 361.941 581.082 361.947 580.839 362.005C580.595 362.063 580.366 362.171 580.168 362.323C579.969 362.474 579.805 362.666 579.686 362.885C579.567 363.104 579.496 363.345 579.478 363.593C579.322 364.711 579.934 365.436 581.187 365.669Z" fill="black"/>
<path d="M575.914 332.685C575.723 332.653 575.528 332.66 575.34 332.706C575.152 332.753 574.975 332.837 574.822 332.954C574.668 333.072 574.54 333.219 574.447 333.387C574.353 333.555 574.295 333.741 574.277 333.933C574.225 334.188 574.227 334.451 574.28 334.706C574.333 334.961 574.437 335.203 574.586 335.417C574.736 335.631 574.927 335.813 575.148 335.952C575.369 336.091 575.617 336.185 575.876 336.227C576.116 336.33 576.379 336.369 576.639 336.339C576.899 336.309 577.147 336.212 577.357 336.057C577.567 335.902 577.732 335.695 577.836 335.456C577.94 335.217 577.979 334.956 577.949 334.698C577.897 334.18 577.665 333.696 577.294 333.329C576.923 332.962 576.435 332.734 575.914 332.685Z" fill="black"/>
<path d="M576.045 323.722C576.594 323.587 576.939 322.647 577.176 322.338C577.141 321.05 576.595 320.497 575.743 320.456C575.546 320.432 575.346 320.452 575.158 320.514C574.97 320.576 574.798 320.679 574.655 320.815C574.511 320.951 574.4 321.117 574.329 321.301C574.258 321.485 574.228 321.682 574.243 321.879C574.245 323.017 574.695 324.055 576.045 323.722Z" fill="black"/>
<path d="M577.798 345.592C577.721 345.093 577.448 344.644 577.04 344.343C576.632 344.042 576.121 343.913 575.617 343.984C575.369 344.014 575.13 344.095 574.915 344.222C574.7 344.349 574.514 344.519 574.368 344.721C574.223 344.923 574.122 345.153 574.071 345.396C574.02 345.64 574.021 345.891 574.074 346.134C574.075 346.385 574.136 346.632 574.25 346.856C574.364 347.08 574.529 347.274 574.731 347.425C574.934 347.575 575.168 347.676 575.417 347.721C575.666 347.766 575.921 347.753 576.164 347.683C576.416 347.669 576.662 347.601 576.885 347.484C577.109 347.367 577.304 347.204 577.459 347.006C577.614 346.808 577.724 346.579 577.783 346.335C577.841 346.092 577.847 345.838 577.798 345.592Z" fill="black"/>
<path d="M581.019 351.302C581.006 351.537 581.052 351.771 581.154 351.983C581.255 352.195 581.408 352.378 581.6 352.515C582.474 352.824 583.075 352.312 583.002 351.416C582.977 351.082 582.378 350.801 582.039 350.496C581.682 350.761 581.066 350.991 581.019 351.302Z" fill="black"/>
<path d="M574.247 369.477C574.255 370.622 574.711 371.653 576.062 371.31C576.605 371.168 576.936 370.215 577.147 369.925C577.147 368.592 576.589 368.051 575.728 368.029C575.531 368.011 575.332 368.035 575.146 368.101C574.959 368.167 574.789 368.273 574.648 368.411C574.507 368.549 574.398 368.716 574.329 368.9C574.259 369.084 574.231 369.281 574.247 369.477Z" fill="black"/>
<path d="M623.107 237.806C622.627 237.973 622.268 239.061 622.236 239.744C622.227 239.94 622.262 240.136 622.34 240.317C622.419 240.497 622.537 240.658 622.687 240.786C622.837 240.915 623.014 241.008 623.205 241.058C623.397 241.108 623.597 241.115 623.791 241.077C624.177 241.002 624.524 240.793 624.77 240.488C625.015 240.183 625.144 239.801 625.133 239.411C625.078 238.248 624.331 237.373 623.107 237.806Z" fill="black"/>
<path d="M599.256 241.104C600.731 240.88 601.211 240.182 601.175 239.409C601.163 239.073 601.077 238.744 600.924 238.444C600.053 238.739 599.191 239.051 598.327 239.356C598.3 239.481 598.282 239.608 598.271 239.736C598.232 240.045 598.312 240.357 598.494 240.611C598.677 240.864 598.949 241.04 599.256 241.104Z" fill="black"/>
<path d="M600.837 251.637C601.051 250.693 600.439 250.279 599.696 250.192C599.467 250.193 599.243 250.248 599.04 250.352C598.837 250.457 598.662 250.607 598.53 250.792C598.444 250.947 598.392 251.118 598.379 251.295C598.366 251.471 598.391 251.648 598.453 251.814C598.515 251.98 598.612 252.131 598.738 252.256C598.864 252.381 599.015 252.478 599.182 252.54C599.919 252.846 600.518 252.363 600.837 251.637Z" fill="black"/>
<path d="M599.634 261.39C599.387 261.342 599.134 261.345 598.889 261.4C598.644 261.454 598.413 261.559 598.211 261.706C598.009 261.854 597.84 262.042 597.714 262.258C597.589 262.474 597.51 262.713 597.483 262.961C597.438 263.204 597.444 263.454 597.499 263.694C597.555 263.935 597.659 264.162 597.806 264.362C597.953 264.561 598.139 264.729 598.353 264.855C598.567 264.981 598.805 265.062 599.052 265.094C600.167 265.12 601.038 264.732 601.149 263.527C601.209 263.287 601.216 263.036 601.17 262.793C601.124 262.549 601.026 262.318 600.882 262.115C600.738 261.913 600.553 261.743 600.337 261.618C600.122 261.493 599.882 261.415 599.634 261.39Z" fill="black"/>
<path d="M600.897 274.537C600.855 274.149 600.662 273.793 600.359 273.544C600.056 273.295 599.668 273.173 599.276 273.204C598.385 273.204 598.042 273.882 597.926 274.948C598.283 275.337 598.677 276.168 599.251 276.315C600.624 276.67 601.019 275.67 600.897 274.537Z" fill="black"/>
<path d="M617.231 255.144C616.836 255.185 616.471 255.375 616.213 255.675C615.955 255.976 615.823 256.363 615.844 256.757C615.844 257.902 616.347 258.883 617.587 258.837C618.111 258.808 618.602 258.575 618.953 258.188C619.304 257.8 619.486 257.291 619.459 256.77C619.432 256.513 619.351 256.265 619.222 256.04C619.092 255.816 618.917 255.621 618.707 255.468C618.497 255.315 618.258 255.207 618.004 255.151C617.749 255.096 617.486 255.093 617.231 255.144Z" fill="black"/>
<path d="M603.721 281.037C603.743 281.286 603.817 281.528 603.938 281.747C604.059 281.967 604.224 282.159 604.423 282.312C604.622 282.466 604.851 282.577 605.095 282.638C605.339 282.7 605.593 282.712 605.841 282.672C607.061 282.598 607.405 281.647 607.457 280.576C607.444 280.328 607.378 280.085 607.262 279.865C607.147 279.645 606.985 279.452 606.788 279.299C606.592 279.147 606.364 279.038 606.121 278.98C605.878 278.922 605.625 278.917 605.38 278.964C605.13 278.981 604.886 279.05 604.663 279.166C604.441 279.282 604.246 279.442 604.09 279.637C603.934 279.832 603.82 280.057 603.757 280.299C603.693 280.54 603.681 280.791 603.721 281.037Z" fill="black"/>
<path d="M604.845 292.335C604.816 292.57 604.847 292.81 604.935 293.03C605.023 293.251 605.165 293.447 605.348 293.599C605.487 293.705 605.652 293.774 605.826 293.8C605.999 293.825 606.177 293.806 606.341 293.744C606.517 293.22 606.687 292.693 606.865 292.17C606.82 291.994 606.722 291.836 606.583 291.718C606.436 291.61 606.265 291.54 606.085 291.513C605.904 291.487 605.72 291.505 605.548 291.566C605.376 291.627 605.222 291.729 605.1 291.863C604.977 291.997 604.889 292.159 604.845 292.335Z" fill="black"/>
<path d="M307.722 297.735C307.73 297.957 307.788 298.173 307.891 298.37C307.995 298.566 308.142 298.736 308.321 298.868C308.554 298.135 308.794 297.394 309.032 296.654C308.873 296.631 308.711 296.641 308.556 296.684C308.402 296.728 308.258 296.803 308.134 296.905C308.011 297.007 307.91 297.133 307.839 297.276C307.768 297.42 307.728 297.576 307.722 297.735Z" fill="black"/>
<path d="M307.289 285.833C307.267 286.219 307.373 286.601 307.59 286.921C307.808 287.242 308.125 287.483 308.493 287.607C309.466 287.891 310.012 287.232 310.2 286.423C310.468 285.256 310.096 284.28 308.725 284.28C307.879 284.28 307.376 284.96 307.289 285.833Z" fill="black"/>
<path d="M296.156 276.553C296.526 276.551 296.892 276.469 297.228 276.313C297.565 276.158 297.863 275.932 298.103 275.652C297.629 275.377 297.152 275.105 296.677 274.818C296.073 274.452 295.469 274.065 294.865 273.677C294.718 273.947 294.61 274.236 294.545 274.537C294.466 274.779 294.449 275.037 294.495 275.288C294.54 275.538 294.647 275.774 294.807 275.973C294.966 276.173 295.173 276.33 295.408 276.431C295.643 276.532 295.9 276.574 296.156 276.553Z" fill="black"/>
<path d="M303.291 290.064C302.143 290.064 301.214 290.622 301.278 291.852C301.293 292.368 301.513 292.858 301.89 293.215C302.267 293.572 302.77 293.767 303.291 293.758C303.546 293.714 303.79 293.62 304.008 293.481C304.226 293.342 304.414 293.16 304.56 292.948C304.707 292.735 304.808 292.495 304.859 292.243C304.91 291.991 304.91 291.73 304.858 291.478C304.826 291.089 304.647 290.726 304.356 290.463C304.065 290.201 303.684 290.058 303.291 290.064Z" fill="black"/>
<path d="M301.127 315.513C301.098 315.76 301.121 316.01 301.193 316.248C301.265 316.487 301.385 316.708 301.546 316.898C301.707 317.088 301.905 317.244 302.129 317.356C302.352 317.468 302.596 317.534 302.846 317.549C302.855 317.55 302.863 317.55 302.871 317.549C303.179 316.394 303.494 315.234 303.816 314.07C303.62 313.982 303.415 313.916 303.205 313.872C302.163 313.99 301.168 314.279 301.127 315.513Z" fill="black"/>
<path d="M296.957 296.655C296.756 296.779 296.59 296.95 296.472 297.154C296.355 297.358 296.291 297.587 296.286 297.822C296.359 298.62 296.894 299.25 297.796 298.898C298.149 298.76 298.313 298.142 298.56 297.745C298.544 297.562 298.487 297.384 298.393 297.224C298.299 297.065 298.171 296.929 298.018 296.824C297.865 296.72 297.69 296.651 297.507 296.622C297.323 296.593 297.136 296.604 296.957 296.655Z" fill="black"/>
<path d="M297.15 284.063C295.832 284.396 294.729 285.136 294.786 286.666C294.782 286.86 294.822 287.052 294.902 287.229C294.981 287.406 295.1 287.563 295.248 287.689C295.396 287.815 295.571 287.907 295.759 287.959C295.947 288.01 296.144 288.019 296.337 287.986C296.979 287.89 297.566 287.57 297.992 287.083C298.418 286.595 298.655 285.973 298.66 285.328C298.682 285.135 298.656 284.94 298.584 284.759C298.512 284.579 298.396 284.419 298.247 284.294C298.097 284.169 297.919 284.082 297.728 284.042C297.536 284.002 297.338 284.009 297.15 284.063Z" fill="black"/>
<path d="M296.964 311.357C298.108 311.256 298.566 310.346 298.67 309.27C298.643 309.023 298.565 308.785 298.441 308.57C298.317 308.355 298.151 308.167 297.951 308.018C297.752 307.87 297.524 307.763 297.281 307.705C297.039 307.646 296.787 307.638 296.541 307.68C296.291 307.68 296.043 307.737 295.817 307.844C295.591 307.952 295.392 308.108 295.234 308.301C295.076 308.495 294.964 308.721 294.905 308.963C294.846 309.205 294.842 309.457 294.894 309.701C294.908 309.95 294.975 310.192 295.089 310.413C295.204 310.635 295.364 310.83 295.559 310.986C295.754 311.142 295.98 311.256 296.222 311.32C296.464 311.384 296.717 311.397 296.964 311.357Z" fill="black"/>
<path d="M297.258 319.694C295.773 319.544 295.766 320.694 296.038 321.694C296.234 322.415 296.768 323.092 297.684 322.788C298.424 322.543 298.832 321.932 298.746 320.829C298.352 320.507 297.84 319.754 297.258 319.694Z" fill="black"/>
<path d="M297.605 331.765C296.666 331.483 296.187 332.151 296.015 332.876C295.776 333.866 295.797 335.002 297.253 334.836C297.823 334.771 298.311 333.994 298.706 333.656C298.736 332.598 298.377 331.995 297.605 331.765Z" fill="black"/>
<path d="M294.882 345.467C294.885 345.777 294.988 346.077 295.177 346.323C295.366 346.569 295.631 346.748 295.931 346.832C296.177 345.677 296.425 344.527 296.674 343.381C296.62 343.381 296.575 343.364 296.521 343.371C296.271 343.393 296.029 343.466 295.809 343.585C295.588 343.704 295.395 343.867 295.242 344.064C295.088 344.261 294.976 344.487 294.915 344.728C294.853 344.97 294.842 345.221 294.882 345.467Z" fill="black"/>
<path d="M301.254 280.067C301.226 280.262 301.241 280.461 301.3 280.65C301.358 280.838 301.458 281.011 301.592 281.157C301.725 281.302 301.89 281.416 302.074 281.491C302.257 281.566 302.455 281.599 302.653 281.589C303.174 281.591 303.675 281.395 304.055 281.041C304.434 280.687 304.662 280.202 304.692 279.686C304.667 279.391 304.575 279.107 304.423 278.853C303.92 278.636 303.417 278.418 302.913 278.186C302.456 278.252 302.038 278.478 301.734 278.822C301.43 279.167 301.26 279.609 301.254 280.067Z" fill="black"/>
<path d="M302.818 301.578C302.561 301.59 302.309 301.655 302.078 301.768C301.848 301.881 301.643 302.041 301.477 302.236C301.311 302.431 301.187 302.658 301.113 302.903C301.039 303.148 301.017 303.405 301.048 303.659C301.02 304.051 301.143 304.439 301.392 304.744C301.642 305.049 301.998 305.249 302.39 305.304C302.642 305.37 302.907 305.379 303.163 305.331C303.42 305.283 303.663 305.179 303.874 305.026C304.085 304.873 304.259 304.676 304.384 304.448C304.509 304.221 304.581 303.968 304.596 303.709C304.732 302.543 303.923 301.871 302.818 301.578Z" fill="black"/>
<path d="M214.431 368.755C214.354 368.26 214.084 367.815 213.679 367.516C213.275 367.218 212.768 367.089 212.268 367.159C212.017 367.18 211.773 367.252 211.552 367.373C211.331 367.493 211.138 367.659 210.986 367.858C210.833 368.058 210.725 368.287 210.668 368.531C210.611 368.775 210.606 369.028 210.654 369.274C210.685 369.609 210.816 369.927 211.032 370.187C211.248 370.353 211.47 370.5 211.688 370.657C212.038 370.795 212.417 370.85 212.793 370.815C213.976 370.707 214.431 369.877 214.431 368.755Z" fill="black"/>
<path d="M236.506 370.512C236.693 370.572 236.889 370.593 237.084 370.575C237.279 370.556 237.468 370.498 237.64 370.405C237.812 370.311 237.962 370.184 238.083 370.03C238.203 369.877 238.291 369.7 238.34 369.512C238.502 369.084 238.489 368.61 238.305 368.191C238.121 367.772 237.779 367.441 237.353 367.267C235.988 366.871 235.34 367.356 235.099 368.117C235 368.366 234.959 368.633 234.98 368.899C235.001 369.165 235.082 369.423 235.217 369.654C235.353 369.884 235.539 370.081 235.762 370.23C235.986 370.378 236.24 370.475 236.506 370.512Z" fill="black"/>
<path d="M236.566 378.997C236.382 378.963 236.193 378.971 236.012 379.02C235.832 379.069 235.665 379.158 235.524 379.281C235.383 379.403 235.271 379.556 235.198 379.727C235.125 379.898 235.092 380.084 235.102 380.27C235.102 380.293 235.102 380.316 235.102 380.34C236.22 380.57 237.33 380.775 238.43 380.955C238.442 380.908 238.457 380.865 238.467 380.818C238.468 380.573 238.419 380.33 238.323 380.104C238.227 379.879 238.086 379.675 237.908 379.504C237.731 379.334 237.52 379.201 237.29 379.114C237.059 379.027 236.813 378.987 236.566 378.997Z" fill="black"/>
<path d="M203.19 357.208C203.4 356.113 202.499 355.388 201.328 355.237C200.918 355.218 200.51 355.308 200.146 355.498C199.782 355.687 199.476 355.969 199.258 356.315C199.761 357.315 200.288 358.278 200.858 359.201C201.426 359.212 201.978 359.015 202.408 358.648C202.839 358.28 203.117 357.767 203.19 357.208Z" fill="black"/>
<path d="M272.58 370.138C272.963 370.102 273.321 369.931 273.588 369.656C273.855 369.381 274.014 369.02 274.037 368.639C274.027 368.263 273.898 367.9 273.668 367.6C273.439 367.301 273.12 367.082 272.758 366.973C272.571 366.919 272.374 366.907 272.181 366.938C271.989 366.969 271.806 367.043 271.645 367.153C271.485 367.263 271.351 367.407 271.253 367.574C271.155 367.742 271.096 367.929 271.08 368.122C270.802 369.28 271.255 370.177 272.58 370.138Z" fill="black"/>
<path d="M277.55 361.512C277.415 361.729 277.327 361.97 277.291 362.222C277.254 362.474 277.27 362.731 277.338 362.976C277.405 363.222 277.522 363.451 277.682 363.649C277.842 363.848 278.041 364.012 278.268 364.131C278.982 364.515 279.694 364.055 280.17 363.247C280.247 363.012 280.271 362.765 280.242 362.52C280.212 362.276 280.129 362.041 279.999 361.831C279.869 361.622 279.694 361.443 279.487 361.307C279.28 361.172 279.046 361.082 278.801 361.045C278.57 361.012 278.334 361.038 278.115 361.119C277.896 361.201 277.702 361.336 277.55 361.512Z" fill="black"/>
<path d="M277.785 374.484C278.344 374.121 278.899 373.743 279.451 373.351C279.185 373.243 278.865 373.165 278.612 373.053C278.322 373.15 278.078 373.35 277.925 373.613C277.773 373.877 277.723 374.187 277.785 374.484Z" fill="black"/>
<path d="M289.131 362.465C289.041 362.612 288.991 362.78 288.986 362.952C288.981 363.124 289.02 363.294 289.101 363.447C289.49 362.871 289.867 362.281 290.232 361.675C289.791 361.819 289.407 362.095 289.131 362.465Z" fill="black"/>
<path d="M279.142 349.424C278.147 349.178 277.645 349.784 277.4 350.563C277.226 350.924 277.202 351.339 277.333 351.718C277.465 352.096 277.742 352.408 278.103 352.585C279.311 353.074 280.127 352.471 280.284 351.239C280.319 350.854 280.226 350.469 280.02 350.141C279.814 349.814 279.505 349.562 279.142 349.424Z" fill="black"/>
<path d="M290.121 281.524C290.377 281.594 290.646 281.607 290.908 281.56C291.17 281.513 291.418 281.408 291.633 281.253C291.849 281.098 292.026 280.897 292.153 280.665C292.279 280.432 292.351 280.175 292.364 279.911C292.51 278.724 291.681 278.034 290.557 277.729C290.295 277.733 290.036 277.792 289.798 277.902C289.561 278.012 289.35 278.172 289.179 278.37C289.008 278.568 288.882 278.8 288.809 279.05C288.735 279.3 288.717 279.563 288.754 279.821C288.732 280.222 288.859 280.617 289.111 280.931C289.363 281.245 289.722 281.456 290.121 281.524Z" fill="black"/>
<path d="M290.78 293.826C290.972 293.843 291.166 293.819 291.349 293.758C291.532 293.696 291.699 293.597 291.841 293.467C291.984 293.337 292.097 293.179 292.174 293.004C292.251 292.828 292.291 292.638 292.29 292.446C292.333 291.943 292.186 291.443 291.879 291.041C291.571 290.639 291.125 290.364 290.626 290.27C290.255 290.204 289.872 290.27 289.546 290.456C289.219 290.642 288.969 290.937 288.839 291.288C288.376 292.885 289.391 293.638 290.78 293.826Z" fill="black"/>
<path d="M288.567 350.889C288.475 351.962 288.903 352.889 290.111 353.005C290.609 353.07 291.113 352.94 291.517 352.644C291.921 352.347 292.193 351.906 292.277 351.414C292.31 351.17 292.293 350.921 292.229 350.683C292.164 350.444 292.052 350.221 291.9 350.027C291.747 349.832 291.557 349.669 291.341 349.548C291.124 349.427 290.886 349.35 290.639 349.321C290.397 349.263 290.144 349.259 289.9 349.31C289.656 349.361 289.426 349.465 289.227 349.615C289.029 349.765 288.867 349.958 288.752 350.178C288.638 350.399 288.575 350.641 288.567 350.889Z" fill="black"/>
<path d="M291.396 340.34C291.498 340.383 291.899 339.723 292.273 339.237C291.753 338.787 291.285 338.07 290.688 337.939C289.872 337.762 289.102 338.325 289.641 339.252C290.107 339.777 290.717 340.155 291.396 340.34Z" fill="black"/>
<path d="M290.096 325.493C289.699 325.534 289.334 325.722 289.072 326.021C288.811 326.319 288.674 326.705 288.688 327.101C288.675 328.267 289.235 329.215 290.448 329.177C290.972 329.148 291.464 328.916 291.817 328.53C292.17 328.144 292.356 327.635 292.335 327.114C292.304 326.858 292.22 326.611 292.089 326.388C291.957 326.165 291.781 325.972 291.571 325.82C291.361 325.668 291.121 325.56 290.867 325.504C290.614 325.448 290.351 325.444 290.096 325.493Z" fill="black"/>
<path d="M291.102 302.049C290.931 301.994 290.75 301.978 290.572 302.001C290.393 302.025 290.223 302.088 290.072 302.185C289.921 302.282 289.794 302.412 289.701 302.564C289.607 302.717 289.549 302.888 289.53 303.066C289.406 303.939 290.111 304.242 290.872 304.341C291.683 304.229 292.349 303.892 292.089 302.963C292.002 302.748 291.868 302.555 291.698 302.397C291.527 302.239 291.324 302.121 291.102 302.049Z" fill="black"/>
<path d="M291.243 313.989C291.034 313.908 290.81 313.874 290.586 313.889C290.363 313.904 290.145 313.967 289.949 314.075C289.753 314.183 289.583 314.332 289.452 314.512C289.32 314.692 289.23 314.899 289.188 315.118C289.146 315.336 289.153 315.562 289.208 315.777C289.263 315.993 289.365 316.194 289.507 316.366C289.65 316.538 289.828 316.677 290.03 316.773C290.233 316.869 290.454 316.92 290.678 316.921C291.064 316.947 291.447 316.839 291.762 316.617C292.077 316.394 292.305 316.07 292.407 315.7C292.612 314.722 292.048 314.22 291.243 313.989Z" fill="black"/>
<path d="M279.177 328.94C279.961 328.774 280.284 327.941 280.239 325.716C280.239 326.138 279.62 325.658 278.756 325.654C278.56 325.646 278.364 325.678 278.181 325.75C277.998 325.821 277.833 325.93 277.695 326.07C277.557 326.209 277.451 326.375 277.382 326.558C277.313 326.741 277.284 326.936 277.296 327.131C277.311 328.267 277.832 329.242 279.177 328.94Z" fill="black"/>
<path d="M278.316 338.084C277.981 338.2 277.813 338.86 277.608 339.212C277.751 340.178 278.373 340.588 279.189 340.328C279.396 340.204 279.569 340.031 279.692 339.824C279.815 339.617 279.883 339.383 279.892 339.143C279.892 338.957 279.846 338.773 279.758 338.609C279.67 338.444 279.542 338.303 279.387 338.199C279.232 338.094 279.053 338.029 278.866 338.009C278.679 337.989 278.491 338.014 278.316 338.084Z" fill="black"/>
<path d="M272.433 343.139C271.999 343.222 271.613 343.465 271.354 343.82C271.094 344.174 270.98 344.614 271.035 345.049C271.015 345.31 271.069 345.572 271.19 345.804C271.312 346.037 271.496 346.232 271.722 346.366C271.949 346.501 272.208 346.57 272.472 346.566C272.736 346.563 272.994 346.486 273.216 346.345C273.394 346.257 273.552 346.134 273.682 345.985C273.812 345.835 273.911 345.662 273.974 345.475C274.036 345.287 274.06 345.089 274.046 344.892C274.031 344.695 273.977 344.503 273.887 344.327C273.614 343.546 273.05 343.029 272.433 343.139Z" fill="black"/>
<path d="M277.635 315.64C277.668 315.82 277.746 315.989 277.862 316.132C277.978 316.274 278.129 316.385 278.299 316.455C278.47 316.524 278.655 316.55 278.839 316.53C279.022 316.509 279.197 316.443 279.348 316.338C279.684 316.13 279.756 315.505 279.92 315.133C279.575 314.26 278.895 313.979 278.164 314.382C277.976 314.531 277.83 314.724 277.737 314.944C277.645 315.163 277.61 315.403 277.635 315.64Z" fill="black"/>
<path d="M274.676 357.726C274.75 357.227 274.623 356.719 274.322 356.313C274.02 355.907 273.569 355.636 273.067 355.56C272.829 355.483 272.575 355.471 272.331 355.525C272.087 355.58 271.863 355.699 271.681 355.869C271.5 356.04 271.368 356.256 271.3 356.495C271.231 356.734 271.229 356.986 271.294 357.226C271.357 357.721 271.582 358.181 271.935 358.535C272.288 358.889 272.749 359.118 273.246 359.186C273.628 359.172 273.99 359.013 274.256 358.741C274.522 358.469 274.673 358.105 274.676 357.726Z" fill="black"/>
<path d="M260.642 378.595C259.556 378.735 259.341 379.928 259.481 380.966C259.494 381.063 259.511 381.161 259.528 381.258C260.637 381.08 261.739 380.863 262.838 380.616C262.657 379.453 262.059 378.408 260.642 378.595Z" fill="black"/>
<path d="M286.336 344.815C285.918 343.742 285.232 342.969 283.987 343.386C283.8 343.44 283.627 343.531 283.476 343.654C283.325 343.776 283.201 343.927 283.11 344.098C283.019 344.269 282.964 344.456 282.947 344.648C282.93 344.841 282.952 345.035 283.012 345.219C283.338 346.335 284.118 347.052 285.361 346.657C285.728 346.529 286.032 346.268 286.213 345.926C286.394 345.585 286.438 345.188 286.336 344.815Z" fill="black"/>
<path d="M284.18 355.27C283.929 355.271 283.682 355.329 283.457 355.437C283.231 355.546 283.033 355.704 282.877 355.899C282.721 356.094 282.61 356.321 282.554 356.563C282.498 356.806 282.498 357.058 282.553 357.301C282.687 358.423 283.559 358.903 284.656 358.967C285.152 358.884 285.598 358.616 285.902 358.218C286.206 357.82 286.346 357.322 286.294 356.825C286.22 355.592 285.242 355.195 284.18 355.27Z" fill="black"/>
<path d="M284.333 331.383C283.106 331.603 282.442 332.383 282.784 333.538C282.903 333.889 283.102 334.208 283.366 334.471C283.629 334.733 283.949 334.932 284.302 335.052C284.561 335.085 284.824 335.063 285.073 334.986C285.323 334.909 285.552 334.78 285.747 334.607C285.941 334.434 286.096 334.222 286.201 333.985C286.305 333.747 286.357 333.49 286.353 333.231C286.418 332.028 285.499 331.475 284.333 331.383Z" fill="black"/>
<path d="M285.007 296.426C284.012 296.314 283.279 296.66 283.162 297.425C283.034 298.042 283.149 298.684 283.482 299.22C283.815 299.756 284.341 300.146 284.953 300.31C285.136 300.351 285.326 300.355 285.51 300.319C285.694 300.284 285.869 300.21 286.022 300.104C286.176 299.997 286.306 299.86 286.403 299.7C286.5 299.541 286.562 299.363 286.586 299.178C286.669 298.895 286.694 298.597 286.659 298.304C286.624 298.01 286.53 297.727 286.383 297.47C286.236 297.213 286.038 296.989 285.802 296.809C285.565 296.63 285.295 296.499 285.007 296.426Z" fill="black"/>
<path d="M284.183 367.174C283.933 367.195 283.69 367.267 283.469 367.386C283.248 367.505 283.055 367.668 282.901 367.865C282.747 368.062 282.635 368.289 282.574 368.531C282.512 368.772 282.501 369.024 282.543 369.27C282.552 369.486 282.606 369.697 282.702 369.89C282.798 370.083 282.933 370.255 283.1 370.393C284.017 369.555 284.9 368.666 285.75 367.727C285.554 367.516 285.309 367.355 285.036 367.259C284.763 367.162 284.47 367.133 284.183 367.174Z" fill="black"/>
<path d="M284.056 323.228C285.207 323.228 286.237 322.91 286.299 321.59C286.33 321.33 286.304 321.066 286.221 320.816C286.139 320.567 286.002 320.339 285.821 320.148C285.64 319.957 285.419 319.808 285.173 319.711C284.927 319.614 284.664 319.572 284.4 319.587C284.031 319.67 283.685 319.834 283.39 320.068C283.094 320.302 282.855 320.6 282.692 320.939C282.177 322.102 282.841 322.9 284.056 323.228Z" fill="black"/>
<path d="M284.391 311.422C284.903 311.409 285.389 311.201 285.749 310.84C286.11 310.48 286.316 309.996 286.326 309.488C286.378 308.373 285.517 307.775 284.465 307.597C283.321 307.755 282.474 308.368 282.489 309.471C282.486 309.979 282.684 310.468 283.039 310.832C283.395 311.197 283.88 311.409 284.391 311.422Z" fill="black"/>
<path d="M232.017 363.327C231.849 362.887 231.797 362.259 231.473 362.044C231.324 361.935 231.151 361.864 230.968 361.837C230.785 361.811 230.599 361.829 230.425 361.892C230.251 361.954 230.096 362.058 229.972 362.194C229.849 362.331 229.761 362.495 229.717 362.673C229.691 362.912 229.726 363.153 229.817 363.375C229.909 363.597 230.054 363.794 230.24 363.946C230.971 364.426 231.609 364.078 232.017 363.327Z" fill="black"/>
<path d="M228.631 374.743C228.602 375.004 228.629 375.269 228.71 375.52C228.791 375.771 228.924 376.002 229.101 376.199C229.278 376.395 229.494 376.553 229.736 376.661C229.978 376.769 230.24 376.826 230.505 376.827C231.746 376.875 232.283 375.931 232.35 374.714C232.336 374.455 232.264 374.201 232.139 373.973C232.013 373.745 231.838 373.548 231.626 373.396C231.414 373.243 231.17 373.14 230.912 373.094C230.655 373.048 230.39 373.059 230.138 373.128C229.735 373.177 229.362 373.366 229.087 373.661C228.811 373.957 228.649 374.34 228.631 374.743Z" fill="black"/>
<path d="M224.586 366.868C223.314 366.868 222.895 367.852 222.927 368.9C222.919 369.15 222.967 369.399 223.068 369.628C223.169 369.857 223.319 370.061 223.509 370.225C223.7 370.389 223.924 370.509 224.166 370.576C224.409 370.643 224.663 370.656 224.911 370.613C226.027 370.51 226.559 369.635 226.713 368.562C226.635 368.067 226.373 367.619 225.98 367.306C225.586 366.992 225.089 366.836 224.586 366.868Z" fill="black"/>
<path d="M242.657 376.785C242.909 376.764 243.154 376.692 243.378 376.575C243.601 376.457 243.799 376.296 243.959 376.101C244.119 375.906 244.237 375.681 244.308 375.44C244.378 375.199 244.399 374.946 244.369 374.696C244.339 374.446 244.259 374.205 244.133 373.987C244.008 373.769 243.839 373.578 243.638 373.426C243.436 373.274 243.206 373.163 242.961 373.101C242.716 373.039 242.461 373.027 242.21 373.065C240.971 373.128 240.551 374.106 240.617 375.157C240.616 375.407 240.673 375.653 240.781 375.878C240.89 376.103 241.048 376.301 241.243 376.457C241.439 376.614 241.668 376.724 241.912 376.781C242.157 376.838 242.411 376.839 242.657 376.785Z" fill="black"/>
<path d="M242.407 361.465C242.159 361.461 241.914 361.518 241.694 361.631C241.473 361.743 241.284 361.908 241.143 362.11C241.001 362.312 240.912 362.546 240.884 362.79C240.855 363.035 240.887 363.282 240.977 363.512C241.158 363.816 241.41 364.073 241.712 364.26C242.013 364.448 242.356 364.561 242.71 364.59C243.687 364.613 244.655 364.183 244.606 362.948C244.571 362.702 244.485 362.465 244.353 362.254C244.221 362.043 244.045 361.862 243.838 361.722C243.631 361.582 243.396 361.487 243.15 361.443C242.903 361.399 242.65 361.406 242.407 361.465Z" fill="black"/>
<path d="M219.177 364.535C219.552 364.494 219.898 364.312 220.142 364.026C220.386 363.74 220.509 363.371 220.487 362.997C220.368 362.18 219.959 361.587 219.083 361.537C217.986 361.475 217.014 361.827 217.07 363.098C217.123 364.323 218.05 364.715 219.177 364.535Z" fill="black"/>
<path d="M218.612 372.743C218.252 372.767 217.909 372.905 217.633 373.137C217.358 373.369 217.165 373.682 217.082 374.031C218.155 374.608 219.244 375.146 220.348 375.647C220.551 375.324 220.666 374.955 220.684 374.574C220.742 373.365 219.831 372.803 218.612 372.743Z" fill="black"/>
<path d="M260.67 370.832C261.845 370.747 262.309 369.9 262.348 368.795C262.277 368.302 262.014 367.855 261.616 367.551C261.218 367.247 260.716 367.109 260.217 367.167C259.967 367.189 259.725 367.262 259.505 367.381C259.284 367.5 259.091 367.663 258.937 367.86C258.783 368.056 258.672 368.282 258.61 368.523C258.548 368.765 258.536 369.016 258.576 369.262C258.642 370.482 259.61 370.91 260.67 370.832Z" fill="black"/>
<path d="M254.677 376.829C254.927 376.809 255.169 376.738 255.389 376.62C255.609 376.501 255.802 376.339 255.955 376.142C256.107 375.945 256.217 375.719 256.277 375.478C256.336 375.236 256.344 374.985 256.3 374.741C256.303 374.492 256.25 374.245 256.145 374.019C256.04 373.793 255.885 373.594 255.692 373.435C255.499 373.276 255.272 373.163 255.029 373.102C254.786 373.042 254.532 373.036 254.287 373.086C254.037 373.104 253.793 373.172 253.571 373.287C253.349 373.401 253.152 373.559 252.994 373.751C252.835 373.944 252.717 374.166 252.647 374.405C252.578 374.644 252.558 374.894 252.589 375.141C252.673 376.281 253.587 376.742 254.677 376.829Z" fill="black"/>
<path d="M254.436 364.556C254.813 364.559 255.176 364.415 255.447 364.156C255.719 363.896 255.877 363.541 255.889 363.167C255.989 361.834 254.993 361.539 253.951 361.537C253.764 361.533 253.577 361.565 253.403 361.633C253.228 361.7 253.069 361.801 252.934 361.93C252.799 362.059 252.691 362.214 252.617 362.385C252.542 362.555 252.502 362.739 252.5 362.925C252.428 364.206 253.34 364.54 254.436 364.556Z" fill="black"/>
<path d="M268.426 362.702C267.893 361.747 267.145 361.177 266.019 361.659C265.311 361.962 264.692 362.547 265.012 363.37C265.075 363.61 265.191 363.832 265.351 364.022C265.512 364.211 265.713 364.362 265.941 364.464C266.168 364.566 266.416 364.615 266.665 364.609C266.914 364.604 267.159 364.542 267.381 364.43C267.743 364.327 268.052 364.091 268.246 363.77C268.44 363.449 268.505 363.068 268.426 362.702Z" fill="black"/>
<path d="M266.809 372.998C266.429 372.901 266.027 372.956 265.687 373.15C265.348 373.344 265.098 373.663 264.992 374.038C264.912 374.292 264.888 374.56 264.92 374.824C264.953 375.088 265.041 375.342 265.18 375.569C265.319 375.797 265.505 375.992 265.725 376.143C265.946 376.294 266.196 376.396 266.46 376.444C266.649 376.497 266.846 376.51 267.04 376.485C267.234 376.459 267.421 376.394 267.589 376.295C267.758 376.195 267.904 376.062 268.018 375.904C268.133 375.747 268.214 375.567 268.257 375.377C268.621 374.163 267.95 373.398 266.809 372.998Z" fill="black"/>
<path d="M262.304 357.31C262.364 357.068 262.367 356.816 262.315 356.573C262.263 356.33 262.156 356.102 262.002 355.905C261.848 355.709 261.651 355.55 261.427 355.44C261.202 355.33 260.956 355.272 260.705 355.27C259.628 355.188 258.68 355.615 258.583 356.813C258.55 357.056 258.565 357.302 258.628 357.539C258.691 357.776 258.801 357.998 258.95 358.193C259.252 358.586 259.699 358.845 260.192 358.911C260.685 358.977 261.185 358.846 261.581 358.546C261.977 358.247 262.238 357.803 262.304 357.313L262.304 357.31Z" fill="black"/>
<path d="M248.609 370.365C248.978 370.349 249.326 370.195 249.586 369.935C249.845 369.674 249.997 369.327 250.01 368.96C250.06 367.884 249.69 366.999 248.445 367.007C248.26 367 248.075 367.03 247.902 367.097C247.73 367.163 247.573 367.265 247.442 367.394C247.31 367.524 247.208 367.68 247.14 367.851C247.072 368.022 247.04 368.205 247.047 368.389C247.025 369.43 247.314 370.315 248.609 370.365Z" fill="black"/>
<path d="M248.76 379.033C248.361 379.06 247.988 379.241 247.722 379.537C247.455 379.833 247.315 380.221 247.332 380.618C247.347 381.093 247.496 381.555 247.762 381.951C248.683 381.986 249.607 381.994 250.545 381.988C250.818 381.567 250.973 381.081 250.995 380.581C250.978 380.322 250.902 380.07 250.773 379.844C250.645 379.617 250.467 379.423 250.252 379.274C250.037 379.125 249.792 379.027 249.534 378.985C249.275 378.943 249.011 378.96 248.76 379.033Z" fill="black"/>
<path d="M207.087 361.88C206.197 361.567 205.705 362.213 205.588 362.942C205.453 363.775 205.992 364.235 206.846 364.283C207.613 364.1 208.265 363.745 208 362.84C207.923 362.626 207.801 362.431 207.644 362.266C207.487 362.101 207.298 361.969 207.087 361.88Z" fill="black"/>
<path d="M607.229 236.415C594.478 262.169 578.634 301.734 573.944 332.608C568.586 367.837 544.663 376.346 522.011 373.766C499.358 371.187 475.612 363.102 480.142 329.714C481.93 316.559 484.58 303.534 488.076 290.722C527.635 277.28 563.615 249.602 607.229 236.415Z" fill="url(#paint0_linear)"/>
<path d="M605.611 236.63C596.083 255.842 587.99 275.725 581.399 296.117C578.033 306.343 575.316 316.768 573.262 327.331C571.465 336.949 570.057 346.398 564.858 354.922C561.025 361.379 555.309 366.529 548.465 369.689C541.998 372.431 534.985 373.667 527.963 373.301C520.555 373.058 513.214 371.821 506.14 369.624C499.341 367.743 493.2 364.026 488.401 358.886C482.172 351.702 480.627 341.999 481.393 332.801C482.103 325.793 483.198 318.829 484.672 311.939C486.084 304.738 487.757 297.596 489.69 290.512L488.7 291.345C520.548 280.452 548.762 261.556 579.347 247.854C588.471 243.709 597.851 240.143 607.43 237.178C609.324 236.601 608.962 235.083 607.024 235.678C575.597 245.228 547.656 262.461 518.432 276.93C511.195 280.511 503.846 283.89 496.33 286.858C494.652 287.524 492.966 288.165 491.272 288.779C489.958 289.257 487.452 289.584 486.574 290.727C486.177 291.543 485.922 292.42 485.821 293.321C485.509 294.505 485.203 295.693 484.903 296.884C484.308 299.257 483.741 301.637 483.202 304.024C481.104 313.019 479.487 322.117 478.358 331.282C477.46 337.578 477.93 343.992 479.738 350.093C482.945 359.871 490.925 366.423 500.373 370.025C510.114 373.668 520.482 375.369 530.884 375.032C541.083 374.916 550.961 371.47 558.993 365.226C568.712 357.25 573.507 345.164 575.463 333.083C580.399 302.618 591.569 273.135 604.538 245.21C605.94 242.19 607.379 239.191 608.853 236.211C609.27 235.335 606.1 235.64 605.611 236.63Z" fill="black"/>
<path d="M296.681 274.82C289.211 294.95 283.329 315.626 279.086 336.662C273.57 362.453 251.069 369.509 232.53 367.617C213.991 365.726 186.819 356.518 188.634 322.987C191.191 275.45 207.18 232.439 220.895 205.221C245.999 222.241 270.414 258.887 296.681 274.82Z" fill="url(#paint1_linear)"/>
<path d="M295.141 274.67C290.69 286.668 286.752 298.85 283.48 311.217C281.971 316.901 280.596 322.618 279.301 328.352C278.072 333.806 277.216 339.422 275.033 344.606C271.564 353.001 264.928 359.717 256.541 363.318C248.895 366.414 240.571 367.486 232.382 366.431C217.858 364.821 202.48 359.021 194.948 345.769C189.622 336.397 189.914 325.789 190.78 315.402C191.91 302.152 193.984 288.999 196.988 276.041C202.117 253.78 209.648 232.133 219.451 211.475C220.42 209.429 221.415 207.394 222.435 205.371L219.632 206.111C230.584 213.591 239.899 223.226 248.992 232.781C258.622 242.903 267.99 253.331 278.399 262.686C283.66 267.535 289.358 271.895 295.421 275.71C296.558 276.406 299.447 274.842 297.937 273.92C286.576 266.97 276.951 257.527 267.738 248.029C258.008 237.994 248.728 227.517 238.573 217.899C233.47 212.949 227.978 208.411 222.148 204.328C221.672 204.088 221.122 204.031 220.605 204.168C220.089 204.305 219.642 204.628 219.35 205.073C209.143 225.448 201.157 246.847 195.526 268.906C192.081 282.237 189.6 295.796 188.101 309.478C186.895 320.699 185.531 332.585 190.062 343.281C196.397 358.246 211.8 365.578 227.126 368.089C243.692 370.81 262.526 367.371 273.201 353.38C280.045 344.416 281.323 333.251 283.84 322.587C286.826 309.944 290.361 297.437 294.577 285.145C295.748 281.735 296.962 278.342 298.219 274.965C298.845 273.287 295.607 273.412 295.141 274.67Z" fill="black"/>
<path d="M180.984 201.236C190.173 196.123 200.236 196.258 209.733 200.471C218.422 204.322 225.958 210.434 232.918 216.781C246.272 228.961 257.942 242.817 270.804 255.489C282.677 267.19 296.857 280.181 313.983 282.969C325.757 284.886 338.664 281.79 345.42 271.304C348.584 266.281 349.875 260.316 349.068 254.445C348.261 248.575 345.408 243.171 341.004 239.174C340.091 238.341 337.031 239.593 338.009 240.489C341.946 244.012 344.617 248.715 345.617 253.883C346.616 259.052 345.889 264.403 343.546 269.123C337.52 280.804 323.917 283.435 311.978 280.239C303.215 277.893 295.349 272.796 288.322 267.222C281.69 261.828 275.405 256.027 269.502 249.854C257.342 237.446 246 224.148 232.852 212.733C225.319 206.191 216.993 199.979 207.351 196.925C202.652 195.451 197.694 194.974 192.798 195.523C187.901 196.072 183.175 197.636 178.925 200.113C178.32 200.446 178.145 201.062 178.679 201.509C179.263 201.995 180.442 201.546 180.984 201.244L180.984 201.236Z" fill="black"/>
<path d="M454.523 252.915C441.373 254.376 428.661 263.261 427.155 277.103C426.797 279.907 427.095 282.756 428.026 285.427C428.957 288.098 430.496 290.52 432.523 292.505C437.892 297.599 445.814 298.837 452.956 298.592C466.462 298.137 480.135 294.244 492.745 289.635C505.412 284.815 517.757 279.198 529.705 272.819C554.059 260.215 577.969 246.373 604.209 237.896C630.903 229.151 659.448 227.562 686.959 233.289C690.665 234.064 694.341 234.965 697.996 235.955C698.74 236.156 701.577 234.955 700.659 234.71C675.404 227.65 648.821 226.664 623.107 231.834C596.993 237.251 572.888 248.716 549.455 261.021C525.786 273.447 502.143 287.121 476.008 293.784C462.419 297.25 436.619 302.568 431.059 284.001C427.453 271.962 436.332 259.06 447.789 255.324C449.524 254.768 451.312 254.392 453.124 254.199C453.627 254.143 455.053 253.978 455.293 253.433C455.533 252.888 455.099 252.848 454.53 252.911L454.523 252.915Z" fill="black"/>
<path d="M209.881 285.686C215.041 272.839 228.725 266.988 233.501 283.203C236.568 293.618 255.312 358.741 223.648 348.98C212.986 345.692 204.044 329.517 203.477 319.061C203.19 313.87 205.111 297.565 209.881 285.686Z" fill="white"/>
<path d="M499.004 303.671C503.571 292.301 515.679 287.124 519.905 301.473C522.62 310.688 539.199 368.316 511.181 359.677C501.746 356.768 493.832 342.454 493.332 333.203C493.555 323.114 495.472 313.133 499.004 303.671Z" fill="white"/>
<path d="M930.933 916.15C929.89 916.514 928.8 916.726 927.697 916.778L923.935 917.245L921.613 917.51C920.793 917.588 919.929 917.558 919.026 917.587L913.187 917.658L911.608 917.673L909.997 917.55L906.665 917.277C901.93 916.892 897.223 916.22 892.569 915.263C890.204 914.713 887.862 914.046 885.536 913.445C884.382 913.112 883.204 912.88 882.098 912.481L878.808 911.315C876.657 910.518 874.522 909.87 872.586 909.025L867.135 906.576L864.7 905.478C863.935 905.105 863.241 904.691 862.568 904.331L859.07 902.412L855.795 900.6L852.714 898.481L849.439 896.219C848.818 895.776 848.133 895.343 847.464 894.822L845.408 893.14L840.785 889.363C839.17 888.006 837.632 886.389 835.955 884.823L833.449 882.404C832.603 881.586 831.863 880.644 831.055 879.758C829.481 877.949 827.837 876.154 826.293 874.283C823.36 870.552 820.658 866.646 818.202 862.586C817.613 861.618 817.037 860.668 816.473 859.735L815.64 858.35L814.947 856.933C814.046 855.069 813.193 853.307 812.406 851.683C812.028 850.863 811.615 850.104 811.32 849.337L810.526 847.144L809.268 843.573C808.822 842.564 808.525 841.495 808.385 840.4C809.048 841.287 809.583 842.263 809.973 843.3L811.552 846.703L812.498 848.801C812.841 849.535 813.301 850.261 813.724 851.043C814.587 852.598 815.523 854.281 816.514 856.064L817.262 857.42L818.142 858.74L819.974 861.46C822.55 865.325 825.342 869.042 828.337 872.593C829.913 874.368 831.58 876.066 833.168 877.782C833.984 878.615 834.728 879.515 835.581 880.279L838.102 882.564C839.778 884.042 841.312 885.572 842.923 886.849L847.519 890.402L849.569 891.99C850.236 892.489 850.902 892.884 851.523 893.298L854.757 895.421L857.784 897.419L860.924 899.239L864.27 901.183C864.915 901.548 865.581 901.969 866.314 902.349L868.646 903.474L873.887 905.995C875.748 906.872 877.807 907.556 879.884 908.397L883.049 909.632C884.119 910.057 885.255 910.32 886.371 910.676C888.618 911.332 890.885 912.063 893.177 912.684C897.697 913.777 902.275 914.615 906.889 915.194L910.14 915.614L911.718 915.812L913.265 915.875L919.013 916.128C919.902 916.157 920.757 916.243 921.568 916.223L923.872 916.133L927.625 916.025C928.728 915.911 929.842 915.953 930.933 916.15Z" fill="black"/>
<defs>
<linearGradient id="paint0_linear" x1="479.581" y1="236.415" x2="613.611" y2="236.415" gradientUnits="userSpaceOnUse">
<stop stop-color="#8F6AFA"/>
<stop offset="0.447917" stop-color="#375CDC"/>
<stop offset="1" stop-color="#0099EE"/>
</linearGradient>
<linearGradient id="paint1_linear" x1="188.548" y1="205.221" x2="302.087" y2="205.221" gradientUnits="userSpaceOnUse">
<stop stop-color="#8F6AFA"/>
<stop offset="0.447917" stop-color="#375CDC"/>
<stop offset="1" stop-color="#0099EE"/>
</linearGradient>
</defs>
</svg>
