<svg width="1395" height="1650" viewBox="0 0 1395 1650" fill="none" xmlns="http://www.w3.org/2000/svg">
<path d="M887.25 309.99H508C502.228 309.99 497.5 305.261 497.5 299.49V251.65C497.5 245.878 502.228 241.15 508 241.15H887.25C893.022 241.15 897.75 245.878 897.75 251.65V299.49C897.75 305.261 893.022 309.99 887.25 309.99Z" fill="#9A9C9A" stroke="black" stroke-width="3"/>
<path d="M1210.61 869.67H184.641V344.57C184.641 307.288 214.859 277.07 252.141 277.07H1143.11C1180.39 277.07 1210.61 307.288 1210.61 344.57V869.67Z" fill="#868786" stroke="black" stroke-width="3"/>
<path opacity="0.47" d="M719.261 917.52C741.531 1063.97 744.751 1249.56 661.701 1387.97C544.591 1583.15 324.951 1541.55 215.761 1505.3L224.971 1602.27L226.351 1616.74C228.131 1635.51 243.891 1649.85 262.751 1649.85H1132.51C1151.36 1649.85 1167.12 1635.52 1168.91 1616.74L1170.29 1602.27L1235.3 917.52H719.261V917.52Z" fill="#4B9B5E"/>
<path d="M1230.88 963.87L1235.28 917.52H159.96L164.36 963.87H1230.88Z" fill="#2B7554"/>
<path d="M563.59 984.73H558.19C548.8 984.73 541.19 977.12 541.19 967.73V917.52H580.59V967.73C580.59 977.11 572.98 984.73 563.59 984.73Z" fill="#2B7554"/>
<path d="M580.59 917.52H541.19V963.87H580.59V917.52Z" fill="#1D5E3F"/>
<path d="M1058.85 908.671C1099.25 850.819 1164.69 893.818 1189.37 835.639C1214.06 777.459 1081.05 600.954 1215.59 476.928C1140.77 489.277 1087.88 537.104 1071.51 637.972C1059.24 579.684 1111.21 493.622 1142.43 450.039C1185.63 389.733 1170.21 268.832 1135.57 205.882C1126.62 275.516 1108.33 343.556 1051.54 386.042C994.754 428.527 908.822 481.592 895.901 634.561C893.006 552.099 886.069 489.543 868.266 423.537C864.663 495.668 848.975 543.763 813.611 577.289C821.294 498.962 843.361 345.203 713.634 233.637C754.892 282.785 792.182 382.784 769.589 436.042C726.14 538.46 688.306 511.359 669.554 555.561C650.802 599.762 723.462 631.98 696.002 696.709C687.633 716.434 669.955 729.035 647.013 715.634C620.01 699.86 639.898 667.002 598.952 643.083C558.005 619.164 500.261 649.389 487.667 712.295C522.793 681.408 548.42 689.523 577.362 706.43C611.248 726.225 615.218 790.234 559.313 800.196C594.566 813.308 645.846 862.69 614.606 944.635C647.496 908.638 710.578 896.982 751.474 993.689C770.723 921.323 840.387 828.084 869.203 844.917C916.501 872.546 891.602 941.615 884.094 959.312C924.922 901.492 994.78 835.451 1058.85 908.671Z" fill="url(#paint0_linear)"/>
<path d="M1057.42 907.187C1069.51 890.092 1085.77 880.057 1104.08 875.275C1120.32 871.032 1137.17 870.627 1153.29 865.64C1168.59 860.907 1182.34 850.178 1188.59 832.471C1192.01 822.764 1191.22 811.606 1189.77 801.496C1185.31 770.271 1174.36 740.409 1166.66 710.183C1157.5 674.305 1150.63 636.741 1153.54 599.097C1156.87 555.926 1174.45 517.591 1201.37 488.237C1205.48 483.762 1209.76 479.519 1214.15 475.443L1216.81 478.571C1189.81 483.089 1163.05 492.558 1140.11 510.271C1117.78 527.782 1100 552.187 1088.73 580.796C1081.45 599.418 1076.19 619.033 1073.05 639.186C1072.76 640.984 1070.13 637.847 1069.97 637.083C1064.52 610.331 1071.73 582.006 1080.81 557.504C1091.25 529.34 1105.45 503.145 1120.94 478.466C1127.66 467.746 1134.84 457.503 1141.97 447.17C1150.05 435.144 1156.15 421.452 1159.95 406.798C1168.53 375.086 1168.78 340.638 1164.8 307.939C1160.46 272.304 1150.97 236.291 1134.33 205.819L1137.11 207.104C1132.04 246.221 1124.06 285.52 1107.3 320.214C1098.84 337.859 1088.06 353.818 1075.34 367.499C1064.64 378.931 1052.55 387.891 1040.34 396.87C1020.74 411.284 1001.27 425.988 983.41 443.298C963.008 462.707 945.441 485.892 931.401 511.939C911.631 549.384 901.208 592.167 897.434 635.777C897.301 637.298 894.397 634.755 894.355 633.676C892.373 577.916 888.246 522.086 877.308 467.652C874.289 452.633 870.794 437.764 866.824 423.043L869.799 424.754C868.189 455.978 864.409 487.66 854.156 516.752C845.728 540.929 832.281 562.249 815.039 578.772C814 579.763 811.947 577.293 812.068 576.067C815.912 536.955 819.828 497.946 817.825 458.494C815.215 407.072 802.881 356.761 778.574 313.553C761.256 282.768 738.688 256.601 713.429 234.793L714.583 233.26C736.665 259.737 753.47 292.95 764.918 327.344C775.126 358.018 783.308 395.266 774.402 427.744C771.818 436.123 768.536 444.182 764.603 451.805C760.542 460.426 756.048 468.758 751.145 476.755C744.095 488.42 735.693 498.875 726.182 507.817C719.396 513.885 712.152 519.21 704.539 523.727C697.885 527.41 691.491 531.706 685.416 536.574C679.451 541.802 674.604 548.588 671.258 556.394C669.279 561.051 668.198 566.162 668.094 571.365C667.99 576.568 668.864 581.734 670.654 586.495C678 607.818 693.089 624.129 700.056 645.806C707.782 669.856 702.938 702.57 683.337 717.113C671.501 725.896 656.793 723.633 645.065 715.713C637.459 710.394 631.856 701.888 629.387 691.91C626.137 680.493 623.879 668.996 616.906 659.7C606.921 646.388 591.274 638.656 576.433 636.979C545.227 633.457 514.476 654.068 498.764 685.343C494.408 694.128 491.184 703.622 489.197 713.515L486.225 710.81C499.165 699.551 513.891 690.653 530.268 689.813C543.963 689.117 557.197 694.19 569.531 700.726C581.561 707.112 592.024 715.151 598.429 729.159C601.393 735.371 603.155 742.273 603.591 749.374C604.027 756.476 603.125 763.603 600.95 770.25C594.14 789.548 577.17 798.71 560.527 801.832L558.708 798.573C594.467 812.036 625.163 849.551 625.806 895.208C625.746 912.71 622.445 929.987 616.131 945.844L613.16 943.139C627.062 927.706 645.091 918.402 664.18 916.813C686.4 915.386 707.204 926.835 723.048 944.617C735.618 958.722 745.141 976.004 752.895 994.167L749.92 992.456C757.634 963.783 770.715 937.043 785.693 912.786C799.428 890.538 815.468 868.565 834.993 853.045C841.574 847.815 848.957 842.895 856.942 841.554C864.817 840.233 871.289 844.191 877.566 849.504C892.957 862.529 899.582 883.041 898.824 904.855C898.147 924.246 892.816 943.503 885.508 960.795L882.646 957.825C914.081 913.411 963.655 860.54 1017.28 877.928C1033.4 883.151 1047.5 894.352 1059.43 907.864C1061.06 909.701 1059.9 911.338 1058.24 909.452C1047.28 897.041 1034.51 886.701 1019.78 881.596C1007.47 877.437 994.475 876.891 981.942 880.006C956.705 886.073 934.429 903.883 915.562 923.781C904.792 935.247 894.747 947.617 885.508 960.795C884.673 961.975 882.101 959.112 882.646 957.825C895.402 927.642 905.572 881.2 880.896 855.339C874.81 848.961 867.533 843.445 859.113 844.886C851.548 846.18 844.445 850.827 838.188 855.753C819.993 870.075 804.913 890.166 791.822 910.57C775.495 936.031 761.225 964.39 753.013 994.91C752.557 996.609 750.303 993.827 750.04 993.2C738.1 965.234 720.815 937.446 695.154 925.647C677.547 917.823 658.03 918.395 640.777 927.239C631.663 931.81 623.293 938.198 616.038 946.12C615.171 947.061 612.634 944.585 613.066 943.415C622.424 918.575 626.371 890.516 618.256 864.429C611.919 844.056 599.211 827.28 583.912 815.43C576.474 809.629 568.396 805.045 559.903 801.805C559.44 801.633 556.677 798.819 558.083 798.548C572.392 795.866 587.009 789.001 595.081 774.088C598.081 768.329 599.927 761.845 600.481 755.127C601.034 748.408 600.28 741.63 598.276 735.304C593.69 720.351 584.078 711.338 572.16 704.797C560.709 698.513 548.529 693.362 535.751 693.113C518.442 692.77 502.7 701.921 489.082 713.771C488.088 714.635 485.841 712.354 486.11 711.065C493.485 675.334 516.734 646.025 547.197 636.429C572.93 628.326 604.315 636.247 621.018 662.127C626.968 671.364 629.185 682.116 632.251 692.876C633.488 697.871 635.53 702.542 638.266 706.634C642.541 712.536 649.04 716.054 655.293 718.031C683.934 727.087 703.054 690.615 700.471 660.869C698.376 636.727 683.793 618.315 673.489 598.442C669.208 590.181 665.269 581.032 664.892 571.189C664.52 561.476 668.052 552.459 672.911 544.816C681.702 530.971 695.637 524.849 708.046 516.667C728.748 503.022 744.314 482.58 756.663 458.994C764.73 443.586 772.299 427.767 774.191 409.577C775.977 392.401 774.048 374.858 770.621 358.124C762.505 320.107 747.7 284.505 727.157 253.604C722.65 246.748 717.807 240.204 712.653 234.006C711.456 232.571 712.447 231.301 713.807 232.474C755.838 268.768 789.699 316.926 806.912 375.191C820.252 420.348 823.172 468.42 820.587 515.854C819.444 536.82 817.178 557.647 815.135 578.512L812.163 575.807C829.6 559.127 843.141 537.524 851.518 513.024C861.428 484.276 865.122 453.095 866.711 422.318C866.792 420.723 869.507 423.36 869.685 424.028C883.603 475.837 891.207 529.258 894.831 583.342C895.994 600.688 896.806 618.058 897.42 635.448L894.343 633.348C897.688 594.704 906.189 556.69 921.926 522.366C934.904 494.539 951.937 469.594 972.252 448.665C989.621 430.508 1008.87 415.12 1028.48 400.529C1038.85 392.813 1049.58 385.566 1059.47 377.018C1073.7 364.72 1086.1 349.747 1096.17 332.704C1118.48 294.924 1128.21 249.496 1134.03 204.662C1134.24 203.081 1136.56 205.491 1136.81 205.947C1151.2 232.297 1160.22 262.652 1165.46 293.217C1171.01 325.635 1172.46 359.843 1166.76 392.377C1164.27 407.364 1159.8 421.802 1153.5 435.164C1147.78 446.998 1139.85 456.958 1132.74 467.618C1116.3 491.748 1101.93 517.715 1089.82 545.145C1077.79 573.137 1066.58 607.1 1073.05 638.844L1069.97 636.741C1075.59 602.618 1086.2 569.168 1104.88 541.834C1121.52 517.977 1143.27 499.734 1167.89 488.971C1182.89 482.383 1198.48 477.795 1214.36 475.292C1215.15 475.161 1218.1 477.414 1217.01 478.42C1186.76 506.453 1164.19 543.902 1157.94 589.129C1152.7 627.063 1158.53 665.647 1167.31 702.222C1174.87 733.712 1185.83 764.294 1191.71 796.322C1193.67 807.012 1195.21 818.617 1193.12 829.454C1190.19 844.652 1179.48 857.387 1167.78 863.896C1153.19 872 1136.47 872.907 1120.75 875.583C1102.94 878.624 1085.2 883.945 1070.98 897.567C1067.08 901.349 1063.49 905.566 1060.28 910.16C1059.49 911.274 1056.59 908.345 1057.42 907.187Z" fill="black"/>
<path d="M740.796 906.211C726.554 869.962 690.261 858.985 661.003 886.88C661.63 838.17 654.724 833.913 633.203 812.763C650.135 788.578 659.663 775.045 640.493 740.128C674.478 769.896 708.538 782.92 730.327 741.289C759.421 685.694 668.635 586.861 777.99 504.331C749.467 557.191 750.267 627.183 788.051 706.509C798.44 657.367 832.555 609.818 854.519 599.134C839.233 641.325 851.745 725.315 862.493 742.839C873.241 760.364 905.969 744.832 907.308 694.439C919.242 732.025 917.851 780.271 838.934 809.326C760.017 838.381 751.209 867.112 740.796 906.211Z" fill="white"/>
<path d="M917.692 867.108C919.746 839.679 915.889 826.18 904.01 813.107C945.478 787.238 958.933 746.687 939.584 638.892C921.812 539.883 1078.98 497.618 1079.9 402.608C1112.94 494.498 991.433 578.509 1008.63 661.363C1025.92 744.596 1045.91 784.612 1073.48 783.284C1101.06 781.956 1105.25 746.239 1107.67 637.621C1111.36 687.834 1123.75 706.318 1138.17 735.987C1153.67 767.872 1169.44 807.641 1128.64 811.411C1087.83 815.181 1077.1 815.041 1056.36 856.103C1035.18 824.295 969.561 807.445 917.692 867.108Z" fill="white"/>
<path d="M336.147 930.553C295.748 872.701 230.307 915.7 205.625 857.52C180.944 799.34 313.948 622.836 179.414 498.809C254.232 511.158 307.124 558.985 323.491 659.853C335.76 601.566 283.792 515.503 252.572 471.921C209.371 411.615 224.787 290.713 259.427 227.764C268.382 297.397 286.671 365.438 343.459 407.923C400.246 450.409 486.178 503.474 499.099 656.443C501.994 573.981 508.931 511.425 526.734 445.419C530.337 517.55 546.025 565.645 581.389 599.17C573.706 520.844 551.639 367.084 681.366 255.519C640.108 304.667 602.818 404.666 625.411 457.924C668.86 560.341 706.694 533.241 725.446 577.442C744.198 621.644 671.538 653.862 698.998 718.591C707.367 738.316 725.045 750.917 747.987 737.515C774.99 721.741 755.102 688.883 796.048 664.964C836.995 641.045 894.739 671.27 907.333 734.177C872.207 703.29 846.58 711.405 817.638 728.312C783.752 748.106 779.782 812.116 835.687 822.078C800.434 835.189 749.154 884.571 780.394 966.516C747.504 930.519 684.422 918.863 643.526 1015.57C624.277 943.205 554.613 849.965 525.797 866.798C478.499 894.427 503.398 963.496 510.906 981.194C470.078 923.374 400.22 857.333 336.147 930.553Z" fill="url(#paint1_linear)"/>
<path d="M337.579 929.068C325.488 911.974 309.228 901.939 290.925 897.157C274.679 892.913 257.826 892.509 241.713 887.522C226.415 882.788 212.658 872.06 206.414 854.352C202.989 844.646 203.777 833.488 205.225 823.378C209.687 792.153 220.635 762.291 228.345 732.065C237.505 696.187 244.372 658.623 241.464 620.978C238.128 577.808 220.546 539.473 193.627 510.119C189.522 505.644 185.243 501.401 180.846 497.324L178.193 500.452C205.188 504.971 231.949 514.44 254.888 532.153C277.22 549.664 295 574.068 306.27 602.678C313.545 621.3 318.812 640.915 321.948 661.068C322.244 662.866 324.87 659.729 325.026 658.964C330.478 632.213 323.266 603.888 314.187 579.386C303.749 551.221 289.546 525.027 274.061 500.347C267.336 489.628 260.158 479.384 253.03 469.051C244.946 457.026 238.848 443.334 235.049 428.68C226.475 396.968 226.221 362.519 230.204 329.821C234.541 294.185 244.026 258.173 260.668 227.7L257.89 228.985C262.959 268.102 270.945 307.402 287.699 342.095C296.156 359.74 306.943 375.7 319.66 389.381C330.36 400.813 342.455 409.772 354.663 418.751C374.256 433.166 393.733 447.87 411.59 465.18C431.992 484.589 449.559 507.774 463.599 533.821C483.369 571.266 493.792 614.048 497.566 657.659C497.699 659.179 500.603 656.636 500.645 655.558C502.627 599.798 506.754 543.967 517.692 489.534C520.711 474.515 524.206 459.645 528.176 444.925L525.201 446.635C526.811 477.86 530.591 509.542 540.844 538.633C549.272 562.811 562.719 584.131 579.961 600.654C581 601.645 583.053 599.175 582.932 597.949C579.088 558.837 575.172 519.827 577.175 480.376C579.785 428.953 592.119 378.643 616.426 335.435C633.744 304.65 656.312 278.482 681.571 256.674L680.417 255.142C658.335 281.619 641.53 314.832 630.082 349.226C619.874 379.9 611.692 417.148 620.598 449.626C623.182 458.004 626.464 466.064 630.397 473.686C634.458 482.308 638.952 490.64 643.855 498.636C650.905 510.302 659.307 520.757 668.818 529.699C675.604 535.766 682.848 541.092 690.461 545.609C697.115 549.292 703.509 553.587 709.584 558.456C715.549 563.684 720.396 570.469 723.742 578.275C725.721 582.932 726.802 588.044 726.906 593.247C727.01 598.45 726.136 603.615 724.346 608.377C717 629.699 701.911 646.011 694.944 667.688C687.218 691.738 692.062 724.452 711.663 738.995C723.499 747.778 738.207 745.515 749.935 737.595C757.541 732.276 763.144 723.769 765.613 713.791C768.863 702.375 771.121 690.877 778.094 681.582C788.079 668.27 803.726 660.537 818.567 658.861C849.773 655.339 880.524 675.95 896.236 707.225C900.592 716.01 903.816 725.504 905.803 735.396L908.775 732.691C895.835 721.433 881.109 712.535 864.732 711.695C851.037 710.998 837.803 716.072 825.469 722.608C813.439 728.994 802.976 737.032 796.571 751.04C793.607 757.253 791.845 764.155 791.409 771.256C790.973 778.358 791.875 785.485 794.05 792.132C800.86 811.43 817.83 820.592 834.473 823.714L836.292 820.455C800.533 833.917 769.837 871.433 769.194 917.09C769.254 934.592 772.555 951.869 778.869 967.726L781.84 965.021C767.938 949.587 749.909 940.284 730.82 938.695C708.6 937.268 687.796 948.717 671.952 966.499C659.382 980.604 649.859 997.886 642.105 1016.05L645.08 1014.34C637.366 985.665 624.285 958.925 609.307 934.668C595.572 912.42 579.532 890.446 560.007 874.927C553.426 869.697 546.043 864.777 538.058 863.436C530.183 862.115 523.711 866.073 517.434 871.386C502.043 884.411 495.418 904.922 496.176 926.736C496.853 946.128 502.184 965.385 509.492 982.676L512.354 979.707C480.919 935.293 431.345 882.422 377.718 899.81C361.604 905.033 347.501 916.234 335.566 929.746C333.944 931.583 335.099 933.22 336.762 931.334C347.718 918.923 360.491 908.583 375.221 903.478C387.532 899.319 400.525 898.773 413.058 901.888C438.295 907.955 460.571 925.765 479.438 945.663C490.208 957.129 500.253 969.499 509.492 982.676C510.327 983.856 512.899 980.994 512.354 979.707C499.598 949.523 489.428 903.082 514.104 877.221C520.19 870.843 527.467 865.327 535.887 866.767C543.452 868.062 550.555 872.709 556.812 877.634C575.007 891.957 590.087 912.047 603.178 932.452C619.505 957.912 633.775 986.272 641.987 1016.79C642.443 1018.49 644.697 1015.71 644.96 1015.08C656.9 987.115 674.185 959.328 699.846 947.529C717.453 939.705 736.97 940.277 754.223 949.121C763.337 953.692 771.707 960.079 778.962 968.002C779.829 968.943 782.366 966.467 781.934 965.297C772.576 940.457 768.629 912.398 776.744 886.311C783.081 865.937 795.789 849.162 811.088 837.311C818.526 831.51 826.604 826.927 835.097 823.687C835.56 823.515 838.323 820.701 836.917 820.43C822.608 817.748 807.991 810.883 799.919 795.97C796.919 790.21 795.073 783.727 794.519 777.009C793.966 770.29 794.72 763.512 796.724 757.185C801.31 742.233 810.922 733.219 822.84 726.678C834.291 720.395 846.471 715.243 859.249 714.995C876.558 714.652 892.3 723.803 905.918 735.652C906.912 736.517 909.159 734.235 908.89 732.947C901.515 697.215 878.266 667.906 847.803 658.311C822.07 650.207 790.685 658.129 773.982 684.009C768.032 693.245 765.815 703.998 762.749 714.758C761.512 719.753 759.47 724.423 756.734 728.516C752.459 734.417 745.96 737.935 739.707 739.913C711.066 748.969 691.946 712.497 694.529 682.75C696.624 658.609 711.207 640.197 721.511 620.324C725.792 612.063 729.731 602.914 730.108 593.071C730.48 583.358 726.948 574.341 722.089 566.697C713.298 552.852 699.363 546.731 686.954 538.549C666.252 524.903 650.686 504.461 638.337 480.876C630.27 465.468 622.701 449.649 620.809 431.458C619.023 414.283 620.952 396.74 624.379 380.006C632.495 341.989 647.3 306.386 667.843 275.486C672.35 268.63 677.193 262.086 682.347 255.888C683.544 254.452 682.553 253.183 681.193 254.355C639.162 290.65 605.301 338.808 588.088 397.073C574.748 442.23 571.828 490.302 574.413 537.736C575.556 558.701 577.822 579.529 579.865 600.394L582.837 597.689C565.4 581.009 551.859 559.406 543.482 534.906C533.572 506.158 529.878 474.976 528.289 444.2C528.208 442.605 525.493 445.242 525.315 445.91C511.397 497.719 503.793 551.14 500.169 605.223C499.006 622.569 498.194 639.94 497.58 657.33L500.657 655.23C497.312 616.586 488.811 578.571 473.074 544.248C460.096 516.42 443.063 491.476 422.748 470.547C405.379 452.39 386.132 437.001 366.517 422.411C356.145 414.694 345.423 407.447 335.531 398.899C321.301 386.602 308.902 371.629 298.835 354.585C276.516 316.806 266.786 271.377 260.967 226.544C260.763 224.962 258.437 227.373 258.189 227.829C243.798 254.179 234.775 284.534 229.538 315.099C223.986 347.517 222.538 381.725 228.24 414.259C230.727 429.246 235.2 443.684 241.497 457.046C247.218 468.88 255.153 478.839 262.26 489.5C278.697 513.629 293.073 539.596 305.18 567.027C317.207 595.019 328.42 628.982 321.95 660.726L325.028 658.622C319.414 624.5 308.802 591.05 290.118 563.715C273.476 539.859 251.734 521.616 227.114 510.852C212.109 504.265 196.52 499.676 180.641 497.174C179.854 497.043 176.902 499.296 177.988 500.302C208.236 528.335 230.812 565.784 237.058 611.011C242.3 648.945 236.471 687.528 227.686 724.104C220.129 755.594 209.171 786.175 203.291 818.203C201.327 828.893 199.794 840.499 201.883 851.336C204.813 866.533 215.516 879.269 227.224 885.777C241.807 893.882 258.533 894.789 274.254 897.465C292.06 900.506 309.797 905.826 324.015 919.449C327.922 923.23 331.506 927.448 334.719 932.042C335.508 933.156 338.408 930.227 337.579 929.068Z" fill="black"/>
<path d="M654.204 928.093C668.446 891.844 704.739 880.867 733.997 908.762C733.37 860.052 740.276 855.794 761.797 834.644C744.865 810.459 735.337 796.927 754.507 762.009C720.522 791.778 686.462 804.802 664.673 763.171C635.579 707.576 726.365 608.742 617.01 526.212C645.533 579.073 644.733 649.065 606.949 728.39C596.56 679.249 562.445 631.7 540.481 621.016C555.767 663.207 543.255 747.196 532.507 764.721C521.759 782.245 489.031 766.714 487.692 716.321C475.758 753.907 477.149 802.153 556.066 831.208C634.983 860.263 643.791 888.994 654.204 928.093Z" fill="white"/>
<path d="M477.308 888.99C475.254 861.561 479.111 848.062 490.99 834.989C449.522 809.119 436.067 768.569 455.416 660.773C473.188 561.764 316.016 519.5 315.101 424.489C282.061 516.38 403.567 600.39 386.365 683.244C369.081 766.477 349.089 806.494 321.516 805.166C293.942 803.838 289.746 768.121 287.332 659.503C283.637 709.716 271.247 728.2 256.826 757.869C241.326 789.753 225.559 829.523 266.364 833.293C307.169 837.063 317.905 836.923 338.639 877.985C359.824 846.176 425.439 829.326 477.308 888.99Z" fill="white"/>
<path d="M1255.8 885.07V903.61C1255.8 910.431 1250.21 916.02 1243.39 916.02H151.85C145.03 916.02 139.45 910.433 139.45 903.61V885.07C139.45 878.249 145.038 872.67 151.85 872.67H1243.39C1250.21 872.67 1255.8 878.259 1255.8 885.07Z" fill="#B2B2B2" stroke="black" stroke-width="3"/>
<path d="M1168.56 1604.52L1168.56 1604.52L1167.57 1614.95L1167.57 1614.95L1167.41 1616.6L1167.41 1616.6C1166.35 1627.69 1160.22 1637.16 1151.43 1642.8L1151.43 1642.8C1145.95 1646.33 1139.45 1648.35 1132.5 1648.35H262.74C255.795 1648.35 249.286 1646.33 243.824 1642.8L243.82 1642.8C235.024 1637.16 228.898 1627.69 227.843 1616.6L227.842 1616.59L227.673 1614.95L227.672 1614.94L226.693 1604.52L226.693 1604.52L226.463 1602.13L226.463 1602.13L161.609 919.02H1233.63L1204.73 1223.55L1168.79 1602.13L1168.79 1602.13L1168.56 1604.52Z" fill="#B2B2B2" stroke="black" stroke-width="3"/>
<path opacity="0.61" d="M1255.8 885.07V892.84H139.45V885.07C139.45 878.249 145.038 872.67 151.85 872.67H1243.39C1250.21 872.67 1255.8 878.259 1255.8 885.07Z" fill="black" stroke="black" stroke-width="3"/>
<path d="M360 935L415.04 1632.57" stroke="black" stroke-width="11" stroke-miterlimit="10"/>
<path d="M323 935L378.04 1632.57" stroke="black" stroke-width="11" stroke-miterlimit="10"/>
<defs>
<linearGradient id="paint0_linear" x1="1392.79" y1="356.14" x2="719.484" y2="70.4991" gradientUnits="userSpaceOnUse">
<stop stop-color="#6646FC"/>
<stop offset="0.447917" stop-color="#3348B7"/>
<stop offset="1" stop-color="#039CEF"/>
</linearGradient>
<linearGradient id="paint1_linear" x1="2.20605" y1="378.021" x2="675.516" y2="92.3807" gradientUnits="userSpaceOnUse">
<stop stop-color="#6646FC"/>
<stop offset="0.447917" stop-color="#3348B7"/>
<stop offset="1" stop-color="#039CEF"/>
</linearGradient>
</defs>
</svg>
