<svg width="114" height="6" viewBox="0 0 114 6" fill="none" xmlns="http://www.w3.org/2000/svg">
<path fill-rule="evenodd" clip-rule="evenodd" d="M78.353 5C76.7879 5 75.3889 4.91713 74.1557 4.75138C72.9701 4.58564 71.6895 4.34622 70.3141 4.03315C69.081 3.77532 67.8954 3.54512 66.7571 3.34254C65.6663 3.13996 64.5518 3.03867 63.4135 3.03867C62.465 3.03867 61.6113 3.11234 60.8524 3.25967C60.1558 3.3859 59.3455 3.57393 58.4216 3.82377C57.6844 4.20097 56.6852 4.5273 55.4241 4.80277C53.859 5.13426 52.1042 5.3 50.1597 5.3C48.5946 5.3 47.2192 5.20792 46.0335 5.02376C44.8004 4.85801 43.4962 4.6186 42.1208 4.30553C40.8877 4.0477 39.7257 3.8175 38.6349 3.61492C37.4966 3.41234 36.3584 3.31105 35.2201 3.31105C34.2716 3.31105 33.4416 3.37551 32.7302 3.50442C32.4219 3.56429 32.0979 3.63327 31.7582 3.71138C30.999 4.15944 29.8746 4.53244 28.3852 4.83039C26.8675 5.14347 25.1364 5.3 23.1919 5.3C21.6268 5.3 20.2277 5.21713 18.9946 5.05138C17.8089 4.88564 16.5284 4.64623 15.153 4.33315C13.9199 4.07533 12.7342 3.84512 11.5959 3.64254C10.5051 3.43997 9.39058 3.33868 8.25232 3.33868C7.30378 3.33868 6.45009 3.41234 5.69126 3.55967C4.97985 3.68858 4.14988 3.88195 3.20133 4.13978L0 2.01271C0.758834 1.53389 1.89709 1.12873 3.41475 0.797241C4.97985 0.465749 6.73466 0.300003 8.67917 0.300003C10.2443 0.300003 11.6197 0.392084 12.8053 0.576247C14.0384 0.741993 15.3427 0.981403 16.7181 1.29448C17.9512 1.5523 19.1131 1.78251 20.204 1.98509C21.3422 2.18766 22.4805 2.28895 23.6187 2.28895C24.5673 2.28895 25.3972 2.2245 26.1086 2.09558C26.417 2.03572 26.741 1.96673 27.0806 1.88863C27.8399 1.44057 28.9642 1.06756 30.4537 0.769616C31.9714 0.456541 33.7024 0.300003 35.647 0.300003C37.2121 0.300003 38.6112 0.382876 39.8443 0.548622C41.0299 0.714368 42.3105 0.953778 43.6859 1.26685C44.919 1.52468 46.1046 1.75488 47.2429 1.95746C48.3337 2.16004 49.4483 2.26133 50.5865 2.26133C51.5351 2.26133 52.3887 2.18766 53.1476 2.04034C53.8442 1.9141 54.6545 1.72607 55.5785 1.47623C56.3156 1.09903 57.3148 0.772701 58.5759 0.497238C60.141 0.165746 61.8958 0 63.8403 0C65.4054 0 66.7808 0.0920812 67.9665 0.276244C69.1996 0.441989 70.5039 0.6814 71.8792 0.994475C73.1124 1.2523 74.2743 1.4825 75.3651 1.68508C76.5034 1.88766 77.6416 1.98895 78.7799 1.98895C79.7284 1.98895 80.5584 1.92449 81.2698 1.79558C81.5782 1.73571 81.9022 1.66672 82.2419 1.58861C83.0011 1.14056 84.1254 0.767557 85.6149 0.469613C87.1326 0.156538 88.8637 0 90.8082 0C92.3733 0 93.7724 0.0828732 95.0055 0.248619C96.1911 0.414365 97.4717 0.653775 98.8471 0.966851C100.08 1.22468 101.266 1.45488 102.404 1.65746C103.495 1.86004 104.609 1.96133 105.748 1.96133C106.696 1.96133 107.55 1.88766 108.309 1.74033C109.02 1.61142 109.85 1.41805 110.799 1.16022L114 3.28729C113.241 3.76611 112.103 4.17127 110.585 4.50276C109.02 4.83425 107.265 5 105.321 5C103.756 5 102.38 4.90792 101.195 4.72376C99.9616 4.55801 98.6574 4.3186 97.282 4.00553C96.0489 3.7477 94.8869 3.5175 93.7961 3.31492C92.6578 3.11234 91.5196 3.01105 90.3813 3.01105C89.4328 3.01105 88.6028 3.07551 87.8914 3.20442C87.583 3.26429 87.259 3.33328 86.9194 3.41139C86.1601 3.85944 85.0358 4.23244 83.5463 4.53039C82.0287 4.84346 80.2976 5 78.353 5Z" fill="url(#paint0_linear)"/>
<defs>
<linearGradient id="paint0_linear" x1="0" y1="0" x2="119.7" y2="0" gradientUnits="userSpaceOnUse">
<stop stop-color="#8F6AFA"/>
<stop offset="0.567708" stop-color="#375CDC"/>
<stop offset="1" stop-color="#0099EE"/>
</linearGradient>
</defs>
</svg>
