<svg width="2819" height="1803" xmlns="http://www.w3.org/2000/svg"><defs><linearGradient x1="-4.844%" y1="50.001%" x2="104.85%" y2="50.001%" id="a"><stop stop-color="#292929" offset="6.337%"/><stop offset="100%"/></linearGradient><linearGradient x1="-7.273%" y1="51.071%" x2="31.501%" y2="38.093%" id="b"><stop stop-color="#8F6AFA" offset="0%"/><stop stop-color="#375CDC" offset="44.792%"/><stop stop-color="#09E" offset="100%"/></linearGradient><linearGradient x1="-7.277%" y1="51.067%" x2="31.43%" y2="38.111%" id="c"><stop stop-color="#8F6AFA" offset="0%"/><stop stop-color="#375CDC" offset="44.792%"/><stop stop-color="#09E" offset="100%"/></linearGradient><linearGradient x1="-7.277%" y1="51.067%" x2="31.43%" y2="38.114%" id="d"><stop stop-color="#8F6AFA" offset="0%"/><stop stop-color="#375CDC" offset="44.792%"/><stop stop-color="#09E" offset="100%"/></linearGradient><linearGradient x1="-7.278%" y1="51.067%" x2="31.43%" y2="38.111%" id="e"><stop stop-color="#8F6AFA" offset="0%"/><stop stop-color="#375CDC" offset="44.792%"/><stop stop-color="#09E" offset="100%"/></linearGradient><linearGradient x1="-7.278%" y1="51.067%" x2="31.43%" y2="38.111%" id="f"><stop stop-color="#8F6AFA" offset="0%"/><stop stop-color="#375CDC" offset="44.792%"/><stop stop-color="#09E" offset="100%"/></linearGradient><linearGradient x1="-7.278%" y1="51.067%" x2="31.43%" y2="38.112%" id="g"><stop stop-color="#8F6AFA" offset="0%"/><stop stop-color="#375CDC" offset="44.792%"/><stop stop-color="#09E" offset="100%"/></linearGradient><linearGradient x1="-7.278%" y1="51.067%" x2="31.43%" y2="38.111%" id="h"><stop stop-color="#8F6AFA" offset="0%"/><stop stop-color="#375CDC" offset="44.792%"/><stop stop-color="#09E" offset="100%"/></linearGradient><linearGradient x1="-7.273%" y1="51.071%" x2="31.501%" y2="38.093%" id="i"><stop stop-color="#8F6AFA" offset="0%"/><stop stop-color="#375CDC" offset="44.792%"/><stop stop-color="#09E" offset="100%"/></linearGradient><linearGradient x1="-7.278%" y1="51.067%" x2="31.43%" y2="38.111%" id="j"><stop stop-color="#8F6AFA" offset="0%"/><stop stop-color="#375CDC" offset="44.792%"/><stop stop-color="#09E" offset="100%"/></linearGradient><linearGradient x1="-7.278%" y1="51.067%" x2="31.43%" y2="38.114%" id="k"><stop stop-color="#8F6AFA" offset="0%"/><stop stop-color="#375CDC" offset="44.792%"/><stop stop-color="#09E" offset="100%"/></linearGradient><linearGradient x1="-7.278%" y1="51.067%" x2="31.43%" y2="38.111%" id="l"><stop stop-color="#8F6AFA" offset="0%"/><stop stop-color="#375CDC" offset="44.792%"/><stop stop-color="#09E" offset="100%"/></linearGradient><linearGradient x1="-7.278%" y1="51.067%" x2="31.43%" y2="38.111%" id="m"><stop stop-color="#8F6AFA" offset="0%"/><stop stop-color="#375CDC" offset="44.792%"/><stop stop-color="#09E" offset="100%"/></linearGradient><linearGradient x1="-7.278%" y1="51.067%" x2="31.43%" y2="38.112%" id="n"><stop stop-color="#8F6AFA" offset="0%"/><stop stop-color="#375CDC" offset="44.792%"/><stop stop-color="#09E" offset="100%"/></linearGradient><linearGradient x1="-7.278%" y1="51.067%" x2="31.43%" y2="38.111%" id="o"><stop stop-color="#8F6AFA" offset="0%"/><stop stop-color="#375CDC" offset="44.792%"/><stop stop-color="#09E" offset="100%"/></linearGradient><linearGradient x1="-7.273%" y1="51.071%" x2="31.501%" y2="38.093%" id="p"><stop stop-color="#8F6AFA" offset="0%"/><stop stop-color="#375CDC" offset="44.792%"/><stop stop-color="#09E" offset="100%"/></linearGradient><linearGradient x1="-7.278%" y1="51.067%" x2="31.43%" y2="38.111%" id="q"><stop stop-color="#8F6AFA" offset="0%"/><stop stop-color="#375CDC" offset="44.792%"/><stop stop-color="#09E" offset="100%"/></linearGradient><linearGradient x1="-7.278%" y1="51.067%" x2="31.43%" y2="38.114%" id="r"><stop stop-color="#8F6AFA" offset="0%"/><stop stop-color="#375CDC" offset="44.792%"/><stop stop-color="#09E" offset="100%"/></linearGradient><linearGradient x1="-7.278%" y1="51.067%" x2="31.43%" y2="38.111%" id="s"><stop stop-color="#8F6AFA" offset="0%"/><stop stop-color="#375CDC" offset="44.792%"/><stop stop-color="#09E" offset="100%"/></linearGradient><linearGradient x1="-7.278%" y1="51.067%" x2="31.43%" y2="38.111%" id="t"><stop stop-color="#8F6AFA" offset="0%"/><stop stop-color="#375CDC" offset="44.792%"/><stop stop-color="#09E" offset="100%"/></linearGradient><linearGradient x1="-7.278%" y1="51.067%" x2="31.43%" y2="38.112%" id="u"><stop stop-color="#8F6AFA" offset="0%"/><stop stop-color="#375CDC" offset="44.792%"/><stop stop-color="#09E" offset="100%"/></linearGradient><linearGradient x1="-7.277%" y1="51.067%" x2="31.43%" y2="38.111%" id="v"><stop stop-color="#8F6AFA" offset="0%"/><stop stop-color="#375CDC" offset="44.792%"/><stop stop-color="#09E" offset="100%"/></linearGradient><linearGradient x1="-7.273%" y1="51.071%" x2="31.501%" y2="38.093%" id="w"><stop stop-color="#8F6AFA" offset="0%"/><stop stop-color="#375CDC" offset="44.792%"/><stop stop-color="#09E" offset="100%"/></linearGradient><linearGradient x1="-7.278%" y1="51.067%" x2="31.43%" y2="38.114%" id="x"><stop stop-color="#8F6AFA" offset="0%"/><stop stop-color="#375CDC" offset="44.792%"/><stop stop-color="#09E" offset="100%"/></linearGradient><linearGradient x1="-7.278%" y1="51.067%" x2="31.43%" y2="38.111%" id="y"><stop stop-color="#8F6AFA" offset="0%"/><stop stop-color="#375CDC" offset="44.792%"/><stop stop-color="#09E" offset="100%"/></linearGradient><linearGradient x1="-7.278%" y1="51.067%" x2="31.43%" y2="38.111%" id="z"><stop stop-color="#8F6AFA" offset="0%"/><stop stop-color="#375CDC" offset="44.792%"/><stop stop-color="#09E" offset="100%"/></linearGradient><linearGradient x1="-7.278%" y1="51.067%" x2="31.43%" y2="38.112%" id="A"><stop stop-color="#8F6AFA" offset="0%"/><stop stop-color="#375CDC" offset="44.792%"/><stop stop-color="#09E" offset="100%"/></linearGradient><linearGradient x1="-7.278%" y1="51.067%" x2="31.43%" y2="38.111%" id="B"><stop stop-color="#8F6AFA" offset="0%"/><stop stop-color="#375CDC" offset="44.792%"/><stop stop-color="#09E" offset="100%"/></linearGradient><linearGradient x1="-7.273%" y1="51.071%" x2="31.501%" y2="38.093%" id="C"><stop stop-color="#8F6AFA" offset="0%"/><stop stop-color="#375CDC" offset="44.792%"/><stop stop-color="#09E" offset="100%"/></linearGradient><linearGradient x1="-7.278%" y1="51.067%" x2="31.43%" y2="38.111%" id="D"><stop stop-color="#8F6AFA" offset="0%"/><stop stop-color="#375CDC" offset="44.792%"/><stop stop-color="#09E" offset="100%"/></linearGradient><linearGradient x1="-7.278%" y1="51.067%" x2="31.43%" y2="38.114%" id="E"><stop stop-color="#8F6AFA" offset="0%"/><stop stop-color="#375CDC" offset="44.792%"/><stop stop-color="#09E" offset="100%"/></linearGradient><linearGradient x1="-7.277%" y1="51.067%" x2="31.43%" y2="38.111%" id="F"><stop stop-color="#8F6AFA" offset="0%"/><stop stop-color="#375CDC" offset="44.792%"/><stop stop-color="#09E" offset="100%"/></linearGradient><linearGradient x1="-7.278%" y1="51.067%" x2="31.43%" y2="38.111%" id="G"><stop stop-color="#8F6AFA" offset="0%"/><stop stop-color="#375CDC" offset="44.792%"/><stop stop-color="#09E" offset="100%"/></linearGradient><linearGradient x1="-7.278%" y1="51.067%" x2="31.43%" y2="38.112%" id="H"><stop stop-color="#8F6AFA" offset="0%"/><stop stop-color="#375CDC" offset="44.792%"/><stop stop-color="#09E" offset="100%"/></linearGradient><linearGradient x1="-7.278%" y1="51.067%" x2="31.43%" y2="38.111%" id="I"><stop stop-color="#8F6AFA" offset="0%"/><stop stop-color="#375CDC" offset="44.792%"/><stop stop-color="#09E" offset="100%"/></linearGradient></defs><g fill-rule="nonzero" fill="none"><path fill="url(#a)" d="M3748.358 0h-2826v1883h2826z" transform="translate(-929 -61)"/><path d="M1068.043 1306.18C593.204 1393 5.384 1317.9 0 1316.41l5.72-9.68c6.2.1 583.959 74.58 1047.103-10.11 392.971-71.85 629.207-217.44 858.312-358.018 387.963-239.945 753.003-465.832 1834.093-342.751l-4.2 10.637c-1061.78-120.443-1422.85 102.25-1804.5 338.574-231.444 141.008-468.496 287.978-868.485 361.118z" fill="url(#b)" transform="translate(-929 -61)"/><path d="M1119.394 1338.13c-474.982 86.73-1063.113 11.6-1068.5 10.11l5.715-9.67c6.203.1 584.269 74.6 1047.551-10 393.089-71.77 629.319-217.27 858.418-357.767 387.95-239.799 752.99-465.548 1834.63-342.404l-4.19 10.631c-1063.85-121.459-1423.39 102.053-1807.37 338.66-229.1 140.5-466.146 287.38-866.254 360.44z" fill="url(#c)" transform="translate(-929 -61)"/><g opacity=".8" transform="translate(-827.457 564.598)" fill="url(#d)"><path d="M1068.499 744.412C593.518 831.142 7.726 755.582 0 754.522l5.715-9.67c6.203.1 584.268 74.6 1047.551-9.99 393.088-71.78 629.318-217.28 858.419-357.77 385.61-239.376 752.99-465.553 1834.63-342.409l-4.19 10.632c-1062.33-120.505-1423.39 102.052-1805.03 338.227-229.918 141.88-468.488 287.81-868.596 360.87z" opacity=".95"/></g><g opacity=".6" transform="translate(-776.809 596.442)" fill="url(#e)"><path d="M1068.5 744.448C593.518 831.178 5.387 756.048 0 754.568l5.715-9.68c6.203.1 584.268 74.61 1047.551-9.99 393.088-71.78 629.318-217.28 858.421-357.77 387.95-239.8 752.99-465.55 1834.63-342.406l-4.19 10.632c-1062.33-120.505-1423.4 102.052-1805.03 338.234-229.919 141.88-468.489 287.8-868.597 360.86z" opacity=".9"/></g><g opacity=".5" transform="translate(-724.753 629.21)" fill="url(#f)"><path d="M1068.5 744.45C593.518 831.18 5.386 756.05 0 754.57l5.715-9.68c6.203.1 584.268 74.6 1047.551-9.99 393.088-71.78 629.318-217.28 858.415-357.77 387.95-239.803 752.99-465.552 1834.64-342.408l-4.2 10.632C2679.801-75.15 2318.731 147.406 1937.091 383.59c-231.437 140.92-468.484 287.8-868.591 360.86z" opacity=".88"/></g><g opacity=".4" transform="translate(-674.105 661.131)" fill="url(#g)"><path d="M1068.5 744.409C593.518 831.139 5.387 756.009 0 754.529l5.715-9.68c6.203.1 584.268 74.61 1047.551-9.99 393.089-71.78 629.317-217.28 858.417-357.77 385.61-239.373 752.99-465.55 1834.63-342.406l-4.19 10.632c-1062.33-120.505-1423.39 102.052-1805.03 338.234-231.44 140.92-468.485 287.8-868.593 360.86z" opacity=".85"/></g><g opacity=".3" transform="translate(-623.457 692.975)" fill="url(#h)"><path d="M1068.5 744.445C593.518 831.185 5.386 756.045 0 754.565l5.715-9.68c6.203.1 584.268 74.61 1047.551-9.99 393.088-71.78 629.319-217.27 858.419-357.77 387.95-239.798 752.99-465.547 1834.63-342.403l-4.19 10.631c-1062.33-120.504-1423.39 102.053-1805.03 338.232-229.92 141.88-468.487 287.8-868.595 360.86z" opacity=".85"/></g><path d="M1406.55 1536.11c-474.84 86.82-1062.66 11.72-1068.043 10.24l5.72-9.68c6.2.1 583.959 74.57 1047.103-10.11 392.971-71.86 629.208-217.44 858.308-358.02 387.96-239.95 753.01-465.837 1834.09-342.756l-4.19 10.637c-1061.78-120.442-1422.86 102.251-1804.5 338.579-231.45 141.01-468.5 287.98-868.488 361.11z" fill="url(#i)" transform="translate(-929 -61)"/><path d="M1457.901 1568.06c-474.982 86.73-1063.113 11.6-1068.5 10.12l5.715-9.68c6.203.1 584.268 74.6 1047.551-9.99 393.089-71.78 629.321-217.28 858.421-357.77 387.95-239.802 752.99-465.551 1834.63-342.407l-4.19 10.631c-1063.85-121.46-1423.4 102.053-1807.37 338.656-229.1 140.5-466.149 287.38-866.257 360.44z" fill="url(#j)" transform="translate(-929 -61)"/><g opacity=".8" transform="translate(-488.95 794.532)" fill="url(#k)"><path d="M1068.499 744.408C593.518 831.138 7.726 755.578 0 754.528l5.715-9.68c6.203.1 584.268 74.61 1047.55-9.99 393.089-71.78 629.323-217.27 858.423-357.77 385.61-239.373 752.98-465.549 1834.63-342.405l-4.19 10.632c-1062.33-120.505-1423.4 102.053-1805.03 338.233-229.92 141.88-468.491 287.8-868.599 360.86z" opacity=".95"/></g><g opacity=".6" transform="translate(-438.302 826.376)" fill="url(#l)"><path d="M1068.5 744.444C593.518 831.184 5.387 756.044 0 754.564l5.715-9.68c6.203.11 584.268 74.61 1047.551-9.99 393.084-71.77 629.314-217.27 858.424-357.77 387.94-239.8 752.98-465.546 1834.63-342.402l-4.19 10.631C2679.8-75.15 2318.73 147.404 1937.09 383.584c-229.91 141.88-468.48 287.8-868.59 360.86z" opacity=".9"/></g><g opacity=".5" transform="translate(-386.247 859.144)" fill="url(#m)"><path d="M1068.499 744.446C593.518 831.176 5.386 756.046 0 754.566l5.715-9.68c6.203.1 584.268 74.61 1047.551-9.99 393.089-71.78 629.319-217.27 858.419-357.77 387.95-239.8 752.99-465.548 1834.63-342.404l-4.19 10.631c-1062.33-120.504-1423.39 102.053-1805.03 338.233-231.44 140.92-468.49 287.8-868.596 360.86z" opacity=".88"/></g><g opacity=".4" transform="translate(-335.599 891.065)" fill="url(#n)"><path d="M1068.5 744.415C593.518 831.145 5.387 756.005 0 754.525l5.715-9.67c6.203.1 584.268 74.6 1047.551-10 393.091-71.77 629.321-217.27 858.421-357.77 385.61-239.37 752.99-465.546 1834.63-342.402l-4.19 10.632c-1062.33-120.505-1423.4 102.05-1805.03 338.23-231.44 140.93-468.49 287.81-868.597 360.87z" opacity=".85"/></g><g opacity=".3" transform="translate(-284.95 922.909)" fill="url(#o)"><path d="M1068.5 744.451C593.518 831.181 5.386 756.051 0 754.561l5.715-9.67c6.203.1 584.268 74.6 1047.551-9.99 393.092-71.78 629.322-217.28 858.422-357.78 387.95-239.79 752.98-465.543 1834.63-342.4l-4.19 10.63c-1062.33-120.502-1423.4 102.05-1805.03 338.23-229.92 141.88-468.49 287.81-868.598 360.87z" opacity=".85"/></g><path d="M1792.892 1758.55c-474.84 86.82-1062.66 11.72-1068.043 10.24l5.72-9.69c6.2.1 583.959 74.58 1047.103-10.1 392.966-71.86 629.206-217.44 858.316-358.02 387.95-239.95 753-465.837 1834.08-342.76l-4.19 10.64c-1061.78-120.442-1422.85 102.25-1804.5 338.58-231.45 141.01-468.5 287.98-868.486 361.11z" fill="url(#p)" transform="translate(-929 -61)"/><path d="M1844.243 1790.5c-474.982 86.73-1063.114 11.6-1068.5 10.12l5.715-9.68c6.203.1 584.268 74.6 1047.551-9.99 393.089-71.78 629.319-217.28 858.419-357.77 387.95-239.8 752.99-465.552 1834.63-342.41l-4.19 10.63c-1063.85-121.456-1423.39 102.06-1807.37 338.66-229.1 140.5-466.15 287.38-866.255 360.44z" fill="url(#q)" transform="translate(-929 -61)"/><g opacity=".8" transform="translate(-102.609 1016.97)" fill="url(#r)"><path d="M1068.5 744.41C593.518 831.14 7.726 755.58 0 754.53l5.715-9.68c6.203.1 584.269 74.61 1047.55-9.99 393.092-71.78 629.322-217.28 858.422-357.77 385.61-239.37 752.99-465.549 1834.63-342.41l-4.19 10.64c-1062.33-120.51-1423.4 102.05-1805.03 338.23-229.92 141.88-468.49 287.8-868.597 360.86z" opacity=".95"/></g><g opacity=".6" transform="translate(-51.96 1048.815)" fill="url(#s)"><path d="M1068.498 744.445C593.518 831.185 5.387 756.045 0 754.565l5.715-9.68c6.203.1 584.268 74.61 1047.553-9.99 393.09-71.77 629.32-217.27 858.42-357.77 387.95-239.8 752.98-465.55 1834.63-342.4l-4.19 10.63c-1062.33-120.51-1423.4 102.05-1805.03 338.23-229.92 141.88-468.49 287.8-868.6 360.86z" opacity=".9"/></g><g opacity=".5" transform="translate(.095 1081.585)" fill="url(#t)"><path d="M1068.503 744.445C593.518 831.175 5.387 756.045 0 754.565l5.715-9.68c6.203.1 584.269 74.61 1047.548-9.99 393.09-71.78 629.32-217.27 858.42-357.77 387.95-239.8 752.99-465.55 1834.63-342.4l-4.19 10.63c-1062.33-120.51-1423.39 102.05-1805.03 338.23-231.44 140.92-468.48 287.8-868.59 360.86z" opacity=".88"/></g><g opacity=".4" transform="translate(50.743 1113.504)" fill="url(#u)"><path d="M1068.505 744.406C593.518 831.146 5.387 756.006 0 754.526l5.715-9.68c6.203.11 584.269 74.61 1047.55-9.99 393.09-71.77 629.32-217.27 858.42-357.77 385.61-239.37 752.99-465.55 1834.63-342.4l-4.19 10.63c-1062.33-120.51-1423.39 102.05-1805.03 338.23-231.44 140.92-468.49 287.81-868.59 360.86z" opacity=".85"/></g><g opacity=".3" transform="translate(101.391 1145.35)" fill="url(#v)"><path d="M1068.497 744.45C593.519 831.18 5.387 756.05 0 754.56l5.715-9.67c6.203.1 584.269 74.6 1047.552-9.99 393.09-71.78 629.32-217.28 858.42-357.78 387.95-239.79 752.99-465.54 1834.63-342.4l-4.19 10.63c-1062.33-120.5-1423.4 102.05-1805.03 338.23-229.92 141.88-468.49 287.81-868.6 360.87z" opacity=".85"/></g><path d="M2154.708 1991.17c-474.838 86.82-1062.658 11.72-1068.041 10.23l5.72-9.68c6.2.1 583.959 74.58 1047.101-10.1 392.97-71.86 629.21-217.44 858.32-358.02 387.95-239.95 753-465.84 1834.09-342.76l-4.2 10.64c-1061.78-120.44-1422.85 102.25-1804.5 338.57-231.45 141.01-468.5 287.98-868.49 361.12z" fill="url(#w)" transform="translate(-929 -61)"/><path d="M2206.058 2023.12c-474.979 86.73-1063.11 11.6-1068.497 10.11l5.715-9.67c6.203.1 584.269 74.6 1047.552-9.99 393.09-71.78 629.32-217.28 858.42-357.78 387.95-239.79 752.99-465.54 1834.63-342.4l-4.19 10.63c-1063.85-121.46-1423.4 102.05-1807.37 338.66-229.1 140.5-466.15 287.38-866.26 360.44z" fill="url(#v)" transform="translate(-929 -61)"/><g opacity=".8" transform="translate(259.209 1249.59)" fill="url(#x)"><path d="M1068.499 744.41C593.518 831.14 7.727 755.58 0 754.53l5.715-9.68c6.203.1 584.268 74.6 1047.554-9.99 393.09-71.78 629.32-217.28 858.42-357.77 385.6-239.37 752.98-465.55 1834.63-342.41l-4.19 10.63c-1062.33-120.5-1423.4 102.06-1805.03 338.24-229.92 141.88-468.49 287.8-868.6 360.86z" opacity=".95"/></g><g opacity=".6" transform="translate(309.858 1281.435)" fill="url(#y)"><path d="M1068.5 744.445C593.518 831.175 5.387 756.045 0 754.565l5.715-9.68c6.203.1 584.268 74.61 1047.555-9.99 393.08-71.78 629.31-217.27 858.42-357.77 387.94-239.8 752.98-465.55 1834.63-342.4l-4.19 10.63c-1062.33-120.51-1423.4 102.05-1805.03 338.23-229.92 141.88-468.49 287.8-868.6 360.86z" opacity=".9"/></g><g opacity=".5" transform="translate(361.913 1314.2)" fill="url(#z)"><path d="M1068.505 744.45C593.518 831.18 5.387 756.05 0 754.57l5.715-9.68c6.203.1 584.269 74.61 1047.55-9.99 393.09-71.78 629.32-217.28 858.42-357.77 387.95-239.8 752.99-465.55 1834.63-342.41l-4.19 10.64c-1062.33-120.51-1423.39 102.05-1805.03 338.23-231.44 140.92-468.49 287.8-868.59 360.86z" opacity=".88"/></g><g opacity=".4" transform="translate(412.562 1346.124)" fill="url(#A)"><path d="M1068.496 744.406C593.516 831.146 5.386 756.006 0 754.526l5.715-9.68c6.203.1 584.271 74.61 1047.551-9.99 393.09-71.78 629.32-217.27 858.42-357.77 385.61-239.37 752.99-465.55 1834.63-342.4l-4.19 10.63c-1062.33-120.51-1423.4 102.05-1805.03 338.23-231.44 140.92-468.49 287.8-868.6 360.86z" opacity=".85"/></g><g opacity=".3" transform="translate(463.21 1377.965)" fill="url(#B)"><path d="M1068.498 744.455C593.518 831.185 5.386 756.055 0 754.565l5.715-9.67c6.203.1 584.273 74.6 1047.553-10 393.09-71.77 629.32-217.27 858.42-357.77 387.95-239.8 752.98-465.55 1834.63-342.4l-4.19 10.63c-1062.33-120.5-1423.4 102.05-1805.03 338.23-229.92 141.88-468.49 287.81-868.6 360.87z" opacity=".85"/></g><path d="M2605.468 2171.04c-474.84 86.82-1062.658 11.72-1068.041 10.24l5.72-9.69c6.2.1 583.961 74.58 1047.101-10.1 392.97-71.86 629.21-217.44 858.32-358.02 387.96-239.95 753-465.84 1834.09-342.75l-4.2 10.63c-1061.78-120.44-1422.85 102.25-1804.5 338.58-231.45 141.01-468.5 287.98-868.49 361.11z" fill="url(#C)" transform="translate(-929 -61)"/><path d="M2656.818 2202.99c-474.98 86.73-1063.11 11.6-1068.496 10.11l5.715-9.67c6.203.1 584.271 74.6 1047.551-9.99 393.09-71.78 629.32-217.28 858.42-357.77 387.95-239.8 752.99-465.55 1834.63-342.41l-4.19 10.63c-1063.85-121.46-1423.4 102.06-1807.37 338.66-229.1 140.5-466.15 287.38-866.26 360.44z" fill="url(#D)" transform="translate(-929 -61)"/><g opacity=".8" transform="translate(709.97 1429.46)" fill="url(#E)"><path d="M1068.498 744.41C593.518 831.14 7.726 755.58 0 754.53l5.715-9.68c6.203.1 584.263 74.61 1047.553-9.99 393.09-71.78 629.32-217.28 858.42-357.77 385.61-239.37 752.98-465.55 1834.63-342.41l-4.19 10.64c-1062.33-120.51-1423.4 102.05-1805.03 338.23-229.92 141.88-468.49 287.8-868.6 360.86z" opacity=".95"/></g><g opacity=".6" transform="translate(760.618 1461.305)" fill="url(#F)"><path d="M1068.5 744.445C593.52 831.185 5.387 756.045 0 754.565l5.715-9.68c6.203.1 584.265 74.61 1047.555-9.99 393.08-71.78 629.31-217.27 858.42-357.77 387.94-239.8 752.98-465.55 1834.63-342.4l-4.19 10.63c-1062.33-120.51-1423.4 102.05-1805.03 338.23-229.92 141.88-468.49 287.8-868.6 360.86z" opacity=".9"/></g><g opacity=".5" transform="translate(812.674 1494.07)" fill="url(#G)"><path d="M1068.504 744.45C593.514 831.18 5.386 756.05 0 754.57l5.715-9.68c6.203.1 584.269 74.61 1047.549-9.99 393.09-71.78 629.32-217.28 858.42-357.77 387.95-239.8 752.99-465.55 1834.63-342.41l-4.19 10.64c-1062.33-120.51-1423.39 102.05-1805.03 338.23-231.44 140.92-468.49 287.8-868.59 360.86z" opacity=".88"/></g><g opacity=".4" transform="translate(863.322 1525.994)" fill="url(#H)"><path d="M1068.496 744.406C593.516 831.146 5.387 756.006 0 754.526l5.715-9.68c6.203.1 584.271 74.61 1047.551-9.99 393.09-71.77 629.32-217.27 858.42-357.77 385.61-239.37 752.99-465.55 1834.63-342.4l-4.19 10.63c-1062.33-120.51-1423.39 102.05-1805.03 338.23-231.44 140.92-468.49 287.8-868.6 360.86z" opacity=".85"/></g><g opacity=".3" transform="translate(913.97 1557.839)" fill="url(#I)"><path d="M1068.498 744.451C593.518 831.181 5.386 756.051 0 754.561l5.715-9.67c6.203.1 584.263 74.6 1047.553-9.99 393.09-71.78 629.32-217.28 858.42-357.78 387.95-239.8 752.98-465.54 1834.63-342.4l-4.19 10.63c-1062.33-120.5-1423.4 102.05-1805.03 338.23-229.92 141.88-468.49 287.81-868.6 360.87z" opacity=".85"/></g></g></svg>