<svg width="1771" height="584" xmlns="http://www.w3.org/2000/svg"><defs><linearGradient x1="-7.273%" y1="51.071%" x2="31.501%" y2="38.093%" id="a"><stop stop-color="#8F6AFA" offset="0%"/><stop stop-color="#375CDC" offset="44.792%"/><stop stop-color="#09E" offset="100%"/></linearGradient><linearGradient x1="-7.277%" y1="51.067%" x2="31.43%" y2="38.111%" id="b"><stop stop-color="#8F6AFA" offset="0%"/><stop stop-color="#375CDC" offset="44.792%"/><stop stop-color="#09E" offset="100%"/></linearGradient><linearGradient x1="-7.277%" y1="51.067%" x2="31.43%" y2="38.114%" id="c"><stop stop-color="#8F6AFA" offset="0%"/><stop stop-color="#375CDC" offset="44.792%"/><stop stop-color="#09E" offset="100%"/></linearGradient><linearGradient x1="-7.278%" y1="51.067%" x2="31.43%" y2="38.111%" id="d"><stop stop-color="#8F6AFA" offset="0%"/><stop stop-color="#375CDC" offset="44.792%"/><stop stop-color="#09E" offset="100%"/></linearGradient><linearGradient x1="-7.278%" y1="51.067%" x2="31.43%" y2="38.111%" id="e"><stop stop-color="#8F6AFA" offset="0%"/><stop stop-color="#375CDC" offset="44.792%"/><stop stop-color="#09E" offset="100%"/></linearGradient><linearGradient x1="-7.278%" y1="51.067%" x2="31.43%" y2="38.112%" id="f"><stop stop-color="#8F6AFA" offset="0%"/><stop stop-color="#375CDC" offset="44.792%"/><stop stop-color="#09E" offset="100%"/></linearGradient><linearGradient x1="-7.278%" y1="51.067%" x2="31.43%" y2="38.111%" id="g"><stop stop-color="#8F6AFA" offset="0%"/><stop stop-color="#375CDC" offset="44.792%"/><stop stop-color="#09E" offset="100%"/></linearGradient><linearGradient x1="-7.273%" y1="51.071%" x2="31.501%" y2="38.093%" id="h"><stop stop-color="#8F6AFA" offset="0%"/><stop stop-color="#375CDC" offset="44.792%"/><stop stop-color="#09E" offset="100%"/></linearGradient><linearGradient x1="-7.278%" y1="51.067%" x2="31.43%" y2="38.111%" id="i"><stop stop-color="#8F6AFA" offset="0%"/><stop stop-color="#375CDC" offset="44.792%"/><stop stop-color="#09E" offset="100%"/></linearGradient><linearGradient x1="-7.278%" y1="51.067%" x2="31.43%" y2="38.114%" id="j"><stop stop-color="#8F6AFA" offset="0%"/><stop stop-color="#375CDC" offset="44.792%"/><stop stop-color="#09E" offset="100%"/></linearGradient><linearGradient x1="-7.278%" y1="51.067%" x2="31.43%" y2="38.111%" id="k"><stop stop-color="#8F6AFA" offset="0%"/><stop stop-color="#375CDC" offset="44.792%"/><stop stop-color="#09E" offset="100%"/></linearGradient><linearGradient x1="-7.278%" y1="51.067%" x2="31.43%" y2="38.111%" id="l"><stop stop-color="#8F6AFA" offset="0%"/><stop stop-color="#375CDC" offset="44.792%"/><stop stop-color="#09E" offset="100%"/></linearGradient><linearGradient x1="-7.278%" y1="51.067%" x2="31.43%" y2="38.112%" id="m"><stop stop-color="#8F6AFA" offset="0%"/><stop stop-color="#375CDC" offset="44.792%"/><stop stop-color="#09E" offset="100%"/></linearGradient><linearGradient x1="-7.278%" y1="51.067%" x2="31.43%" y2="38.111%" id="n"><stop stop-color="#8F6AFA" offset="0%"/><stop stop-color="#375CDC" offset="44.792%"/><stop stop-color="#09E" offset="100%"/></linearGradient><linearGradient x1="-7.273%" y1="51.071%" x2="31.501%" y2="38.093%" id="o"><stop stop-color="#8F6AFA" offset="0%"/><stop stop-color="#375CDC" offset="44.792%"/><stop stop-color="#09E" offset="100%"/></linearGradient><linearGradient x1="-7.278%" y1="51.067%" x2="31.43%" y2="38.111%" id="p"><stop stop-color="#8F6AFA" offset="0%"/><stop stop-color="#375CDC" offset="44.792%"/><stop stop-color="#09E" offset="100%"/></linearGradient><linearGradient x1="-7.278%" y1="51.067%" x2="31.43%" y2="38.114%" id="q"><stop stop-color="#8F6AFA" offset="0%"/><stop stop-color="#375CDC" offset="44.792%"/><stop stop-color="#09E" offset="100%"/></linearGradient><linearGradient x1="-7.278%" y1="51.067%" x2="31.43%" y2="38.111%" id="r"><stop stop-color="#8F6AFA" offset="0%"/><stop stop-color="#375CDC" offset="44.792%"/><stop stop-color="#09E" offset="100%"/></linearGradient><linearGradient x1="-7.278%" y1="51.067%" x2="31.43%" y2="38.111%" id="s"><stop stop-color="#8F6AFA" offset="0%"/><stop stop-color="#375CDC" offset="44.792%"/><stop stop-color="#09E" offset="100%"/></linearGradient><linearGradient x1="-7.278%" y1="51.067%" x2="31.43%" y2="38.112%" id="t"><stop stop-color="#8F6AFA" offset="0%"/><stop stop-color="#375CDC" offset="44.792%"/><stop stop-color="#09E" offset="100%"/></linearGradient><linearGradient x1="-7.277%" y1="51.067%" x2="31.43%" y2="38.111%" id="u"><stop stop-color="#8F6AFA" offset="0%"/><stop stop-color="#375CDC" offset="44.792%"/><stop stop-color="#09E" offset="100%"/></linearGradient><linearGradient x1="-7.273%" y1="51.071%" x2="31.501%" y2="38.093%" id="v"><stop stop-color="#8F6AFA" offset="0%"/><stop stop-color="#375CDC" offset="44.792%"/><stop stop-color="#09E" offset="100%"/></linearGradient><linearGradient x1="-7.277%" y1="51.067%" x2="31.43%" y2="38.111%" id="w"><stop stop-color="#8F6AFA" offset="0%"/><stop stop-color="#375CDC" offset="44.792%"/><stop stop-color="#09E" offset="100%"/></linearGradient><linearGradient x1="-7.278%" y1="51.067%" x2="31.43%" y2="38.114%" id="x"><stop stop-color="#8F6AFA" offset="0%"/><stop stop-color="#375CDC" offset="44.792%"/><stop stop-color="#09E" offset="100%"/></linearGradient><linearGradient x1="-7.278%" y1="51.067%" x2="31.43%" y2="38.111%" id="y"><stop stop-color="#8F6AFA" offset="0%"/><stop stop-color="#375CDC" offset="44.792%"/><stop stop-color="#09E" offset="100%"/></linearGradient><linearGradient x1="-7.278%" y1="51.067%" x2="31.43%" y2="38.111%" id="z"><stop stop-color="#8F6AFA" offset="0%"/><stop stop-color="#375CDC" offset="44.792%"/><stop stop-color="#09E" offset="100%"/></linearGradient><linearGradient x1="-7.278%" y1="51.067%" x2="31.43%" y2="38.112%" id="A"><stop stop-color="#8F6AFA" offset="0%"/><stop stop-color="#375CDC" offset="44.792%"/><stop stop-color="#09E" offset="100%"/></linearGradient><linearGradient x1="-7.278%" y1="51.067%" x2="31.43%" y2="38.111%" id="B"><stop stop-color="#8F6AFA" offset="0%"/><stop stop-color="#375CDC" offset="44.792%"/><stop stop-color="#09E" offset="100%"/></linearGradient><linearGradient x1="-7.273%" y1="51.071%" x2="31.501%" y2="38.093%" id="C"><stop stop-color="#8F6AFA" offset="0%"/><stop stop-color="#375CDC" offset="44.792%"/><stop stop-color="#09E" offset="100%"/></linearGradient><linearGradient x1="-7.278%" y1="51.067%" x2="31.43%" y2="38.111%" id="D"><stop stop-color="#8F6AFA" offset="0%"/><stop stop-color="#375CDC" offset="44.792%"/><stop stop-color="#09E" offset="100%"/></linearGradient><linearGradient x1="-7.278%" y1="51.067%" x2="31.43%" y2="38.114%" id="E"><stop stop-color="#8F6AFA" offset="0%"/><stop stop-color="#375CDC" offset="44.792%"/><stop stop-color="#09E" offset="100%"/></linearGradient><linearGradient x1="-7.277%" y1="51.067%" x2="31.43%" y2="38.111%" id="F"><stop stop-color="#8F6AFA" offset="0%"/><stop stop-color="#375CDC" offset="44.792%"/><stop stop-color="#09E" offset="100%"/></linearGradient><linearGradient x1="-7.278%" y1="51.067%" x2="31.43%" y2="38.111%" id="G"><stop stop-color="#8F6AFA" offset="0%"/><stop stop-color="#375CDC" offset="44.792%"/><stop stop-color="#09E" offset="100%"/></linearGradient><linearGradient x1="-7.278%" y1="51.067%" x2="31.43%" y2="38.112%" id="H"><stop stop-color="#8F6AFA" offset="0%"/><stop stop-color="#375CDC" offset="44.792%"/><stop stop-color="#09E" offset="100%"/></linearGradient><linearGradient x1="-7.278%" y1="51.067%" x2="31.43%" y2="38.111%" id="I"><stop stop-color="#8F6AFA" offset="0%"/><stop stop-color="#375CDC" offset="44.792%"/><stop stop-color="#09E" offset="100%"/></linearGradient></defs><g fill-rule="nonzero" fill="none"><path d="M338.28 235.965C187.885 263.464 1.705 239.677 0 239.205l1.812-3.065c1.963.031 184.957 23.621 331.648-3.203 124.465-22.757 199.288-68.87 271.852-113.394C728.192 43.545 843.81-28 1186.223 10.983l-1.33 3.37C848.596-23.796 734.235 46.737 613.355 121.588 540.05 166.25 464.97 212.799 338.28 235.965z" fill="url(#a)"/><path d="M354.545 246.085c-150.44 27.47-336.72 3.674-338.425 3.202l1.81-3.063c1.964.032 185.055 23.628 331.79-3.167 124.503-22.732 199.324-68.816 271.886-113.315C744.48 53.79 860.1-17.711 1202.686 21.292l-1.326 3.367C864.407-13.81 750.53 56.983 628.913 131.923c-72.563 44.5-147.642 91.022-274.368 114.162z" fill="url(#b)"/><g opacity=".8" transform="translate(32.162 20.405)" fill="url(#c)"><path d="M338.425 235.777C187.985 263.247 2.447 239.315 0 238.98l1.81-3.063c1.965.032 185.055 23.628 331.79-3.164 124.503-22.735 199.324-68.819 271.887-113.316C727.62 43.62 843.98-28.018 1186.567 10.986l-1.327 3.367C848.77-23.815 734.411 46.675 613.535 121.479c-72.822 44.938-148.384 91.158-275.11 114.298z" opacity=".95"/></g><g opacity=".6" transform="translate(48.203 30.491)" fill="url(#d)"><path d="M338.425 235.789C187.985 263.259 1.706 239.463 0 238.994l1.81-3.066c1.965.032 185.055 23.631 331.79-3.164 124.503-22.735 199.324-68.82 271.887-113.316 122.875-75.952 238.494-147.454 581.081-108.45l-1.327 3.367C848.771-23.802 734.41 46.688 613.535 121.494c-72.822 44.937-148.384 91.154-275.11 114.295z" opacity=".9"/></g><g opacity=".5" transform="translate(64.691 40.87)" fill="url(#e)"><path d="M338.425 235.79C187.985 263.26 1.705 239.462 0 238.993l1.81-3.065c1.965.031 185.055 23.628 331.79-3.165 124.503-22.734 199.324-68.819 271.885-113.316C728.36 43.496 843.98-28.006 1186.57 10.998l-1.33 3.367C848.771-23.802 734.41 46.688 613.533 121.495c-73.302 44.633-148.382 91.154-275.108 114.294z" opacity=".88"/></g><g opacity=".4" transform="translate(80.733 50.98)" fill="url(#f)"><path d="M338.425 235.776C187.985 263.246 1.706 239.45 0 238.981l1.81-3.066c1.965.032 185.055 23.632 331.79-3.164 124.503-22.734 199.323-68.819 271.886-113.316C727.62 43.62 843.98-28.018 1186.566 10.985l-1.326 3.368C848.769-23.815 734.41 46.675 613.534 121.48c-73.304 44.634-148.383 91.155-275.109 114.295z" opacity=".85"/></g><g opacity=".3" transform="translate(96.774 61.066)" fill="url(#g)"><path d="M338.425 235.788C187.985 263.26 1.705 239.462 0 238.993l1.81-3.066c1.965.032 185.055 23.631 331.79-3.164 124.503-22.735 199.324-68.816 271.887-113.316 122.875-75.951 238.494-147.453 581.08-108.45l-1.327 3.368C848.77-23.802 734.411 46.688 613.535 121.493c-72.823 44.937-148.384 91.154-275.11 114.295z" opacity=".85"/></g><path d="M445.496 308.79c-150.396 27.5-336.576 3.713-338.28 3.244l1.81-3.066c1.964.032 184.958 23.619 331.649-3.202 124.465-22.76 199.289-68.87 271.851-113.395 122.878-76 238.5-147.545 580.91-108.561l-1.327 3.369C955.812 49.03 841.448 119.565 720.571 194.417c-73.307 44.662-148.388 91.211-275.075 114.374z" fill="url(#h)"/><path d="M461.76 318.91c-150.44 27.47-336.72 3.674-338.425 3.206l1.81-3.066c1.964.031 185.055 23.628 331.79-3.164 124.503-22.735 199.324-68.82 271.887-113.317 122.875-75.952 238.494-147.453 581.08-108.45l-1.326 3.367c-336.953-38.47-450.833 32.323-572.447 107.262-72.563 44.5-147.643 91.022-274.37 114.162z" fill="url(#i)"/><g opacity=".8" transform="translate(139.377 93.232)" fill="url(#j)"><path d="M338.425 235.776C187.985 263.246 2.447 239.314 0 238.98l1.81-3.066c1.965.032 185.055 23.631 331.79-3.164 124.503-22.735 199.325-68.816 271.888-113.316 122.133-75.817 238.49-147.453 581.08-108.45l-1.327 3.368C848.771-23.815 734.41 46.676 613.536 121.48c-72.823 44.937-148.385 91.155-275.111 114.295z" opacity=".95"/></g><g opacity=".6" transform="translate(155.418 103.318)" fill="url(#k)"><path d="M338.425 235.787C187.985 263.26 1.706 239.461 0 238.993l1.81-3.066c1.965.035 185.055 23.63 331.79-3.164 124.501-22.732 199.322-68.816 271.888-113.317C728.36 43.495 843.98-28.006 1186.57 10.998l-1.327 3.367C848.772-23.802 734.41 46.687 613.533 121.492c-72.82 44.938-148.381 91.155-275.108 114.295z" opacity=".9"/></g><g opacity=".5" transform="translate(171.906 113.696)" fill="url(#l)"><path d="M338.425 235.788C187.985 263.258 1.705 239.462 0 238.993l1.81-3.066c1.965.032 185.055 23.631 331.79-3.164 124.503-22.735 199.324-68.816 271.887-113.316 122.875-75.952 238.494-147.453 581.08-108.45l-1.327 3.368C848.77-23.802 734.411 46.688 613.535 121.493c-73.304 44.633-148.385 91.155-275.11 114.295z" opacity=".88"/></g><g opacity=".4" transform="translate(187.947 123.807)" fill="url(#m)"><path d="M338.425 235.778C187.985 263.248 1.706 239.45 0 238.98l1.81-3.063c1.965.032 185.055 23.628 331.79-3.167 124.504-22.732 199.325-68.816 271.887-113.316C727.621 43.618 843.981-28.018 1186.568 10.985l-1.327 3.368C848.771-23.815 734.41 46.675 613.535 121.48c-73.304 44.637-148.384 91.158-275.11 114.298z" opacity=".85"/></g><g opacity=".3" transform="translate(203.99 133.893)" fill="url(#n)"><path d="M338.425 235.79C187.985 263.26 1.705 239.464 0 238.992l1.81-3.063c1.965.032 185.055 23.628 331.79-3.164 124.504-22.735 199.325-68.82 271.888-113.32 122.875-75.948 238.49-147.45 581.08-108.448l-1.327 3.367C848.771-23.802 734.41 46.686 613.536 121.491 540.713 166.43 465.15 212.65 338.426 235.79z" opacity=".85"/></g><path d="M567.861 379.244c-150.395 27.499-336.575 3.712-338.28 3.243l1.812-3.069c1.963.032 184.956 23.622 331.648-3.199 124.464-22.76 199.288-68.87 271.854-113.395 122.875-76 238.497-147.544 580.906-108.562l-1.327 3.37c-336.297-38.148-450.658 32.385-571.538 107.238-73.307 44.662-148.387 91.212-275.075 114.374z" fill="url(#o)"/><path d="M584.126 389.364c-150.441 27.47-336.72 3.674-338.425 3.205l1.81-3.066c1.964.032 185.054 23.628 331.79-3.164 124.502-22.735 199.323-68.82 271.886-113.316 122.875-75.952 238.494-147.454 581.081-108.452l-1.327 3.367c-336.952-38.468-450.83 32.326-572.447 107.264-72.563 44.5-147.643 91.021-274.368 114.162z" fill="url(#p)"/><g opacity=".8" transform="translate(261.742 163.684)" fill="url(#q)"><path d="M338.425 235.777C187.985 263.247 2.447 239.314 0 238.982l1.81-3.066c1.965.032 185.055 23.631 331.79-3.164 124.503-22.735 199.324-68.82 271.887-113.316C727.621 43.62 843.981-28.017 1186.568 10.984l-1.327 3.37C848.77-23.815 734.409 46.677 613.535 121.482c-72.822 44.937-148.384 91.154-275.11 114.295z" opacity=".95"/></g><g opacity=".6" transform="translate(277.784 173.77)" fill="url(#r)"><path d="M338.425 235.787C187.985 263.261 1.706 239.462 0 238.993l1.81-3.066c1.965.032 185.055 23.631 331.79-3.164 124.504-22.732 199.325-68.816 271.888-113.316 122.875-75.952 238.49-147.454 581.08-108.449l-1.326 3.367C848.77-23.804 734.409 46.687 613.536 121.493c-72.823 44.937-148.385 91.154-275.111 114.294z" opacity=".9"/></g><g opacity=".5" transform="translate(294.272 184.15)" fill="url(#s)"><path d="M338.426 235.787C187.984 263.257 1.706 239.462 0 238.993l1.81-3.066c1.965.032 185.055 23.631 331.79-3.164 124.502-22.735 199.323-68.816 271.886-113.316C728.36 43.495 843.98-28.007 1186.566 10.998l-1.326 3.367C848.769-23.804 734.41 46.687 613.534 121.493c-73.304 44.633-148.381 91.154-275.108 114.294z" opacity=".88"/></g><g opacity=".4" transform="translate(310.313 194.26)" fill="url(#t)"><path d="M338.427 235.775C187.984 263.248 1.707 239.449 0 238.98l1.81-3.066c1.965.035 185.055 23.632 331.79-3.164 124.503-22.731 199.324-68.815 271.886-113.316C727.62 43.619 843.98-28.019 1186.567 10.986l-1.327 3.367C848.77-23.817 734.411 46.675 613.535 121.48c-73.304 44.634-148.385 91.158-275.108 114.295z" opacity=".85"/></g><g opacity=".3" transform="translate(326.355 204.346)" fill="url(#u)"><path d="M338.424 235.79C187.984 263.26 1.706 239.462 0 238.99l1.81-3.062c1.965.031 185.055 23.628 331.79-3.165 124.504-22.734 199.325-68.819 271.887-113.319 122.875-75.948 238.494-147.45 581.081-108.448l-1.327 3.367C848.771-23.802 734.41 46.686 613.535 121.49c-72.822 44.938-148.384 91.158-275.11 114.298z" opacity=".85"/></g><path d="M682.46 452.922c-150.396 27.498-336.576 3.712-338.28 3.24l1.81-3.066c1.965.032 184.958 23.622 331.648-3.2 124.466-22.76 199.29-68.869 271.856-113.394 122.875-76 238.497-147.546 580.91-108.563l-1.33 3.37c-336.298-38.146-450.659 32.386-571.539 107.235-73.307 44.662-148.387 91.212-275.076 114.378z" fill="url(#v)"/><path d="M698.723 463.041c-150.44 27.47-336.718 3.674-338.424 3.202l1.81-3.062c1.965.031 185.055 23.628 331.79-3.165 124.503-22.734 199.324-68.818 271.887-113.319 122.875-75.948 238.494-147.45 581.081-108.448l-1.327 3.367c-336.952-38.47-450.832 32.322-572.447 107.263-72.563 44.5-147.643 91.022-274.37 114.162z" fill="url(#w)"/><g opacity=".8" transform="translate(376.34 237.362)" fill="url(#x)"><path d="M338.425 235.777C187.985 263.247 2.447 239.315 0 238.982l1.81-3.066c1.965.032 185.055 23.628 331.791-3.164 124.503-22.735 199.324-68.819 271.887-113.316 122.13-75.816 238.49-147.454 581.08-108.452l-1.326 3.367C848.77-23.815 734.409 46.677 613.536 121.481c-72.822 44.938-148.385 91.155-275.111 114.296z" opacity=".95"/></g><g opacity=".6" transform="translate(392.383 247.448)" fill="url(#y)"><path d="M338.425 235.787C187.985 263.257 1.706 239.462 0 238.993l1.81-3.066c1.965.032 185.055 23.631 331.791-3.164 124.5-22.735 199.321-68.816 271.887-113.316C728.36 43.495 843.98-28.007 1186.57 10.998l-1.327 3.367C848.772-23.804 734.41 46.687 613.536 121.493c-72.822 44.937-148.384 91.154-275.11 114.294z" opacity=".9"/></g><g opacity=".5" transform="translate(408.87 257.826)" fill="url(#z)"><path d="M338.427 235.79C187.985 263.26 1.707 239.462 0 238.993l1.81-3.065c1.965.031 185.055 23.63 331.79-3.165 124.503-22.734 199.324-68.819 271.887-113.316C728.362 43.496 843.98-28.005 1186.567 10.997l-1.327 3.37c-336.47-38.17-450.829 32.322-571.705 107.127C540.23 166.128 465.15 212.65 338.427 235.79z" opacity=".88"/></g><g opacity=".4" transform="translate(424.912 267.937)" fill="url(#A)"><path d="M338.424 235.775C187.984 263.248 1.706 239.449 0 238.98l1.81-3.066c1.965.032 185.056 23.632 331.79-3.164 124.503-22.735 199.324-68.815 271.887-113.316C727.62 43.619 843.98-28.019 1186.567 10.986l-1.326 3.367C848.77-23.817 734.408 46.675 613.535 121.48c-73.304 44.634-148.385 91.155-275.111 114.295z" opacity=".85"/></g><g opacity=".3" transform="translate(440.954 278.022)" fill="url(#B)"><path d="M338.425 235.79C187.985 263.26 1.705 239.466 0 238.994l1.81-3.063c1.965.032 185.056 23.628 331.79-3.167 124.504-22.732 199.325-68.816 271.888-113.316 122.875-75.952 238.49-147.454 581.08-108.449l-1.327 3.367C848.771-23.8 734.41 46.687 613.536 121.493 540.713 166.43 465.15 212.65 338.425 235.79z" opacity=".85"/></g><path d="M825.228 509.892c-150.396 27.498-336.575 3.712-338.28 3.243l1.812-3.069c1.964.032 184.957 23.622 331.647-3.199 124.465-22.76 199.29-68.87 271.855-113.395 122.879-76 238.498-147.546 580.91-108.56l-1.33 3.367c-336.297-38.146-450.658 32.386-571.538 107.239-73.307 44.662-148.388 91.211-275.076 114.374z" fill="url(#C)"/><path d="M841.492 520.011c-150.44 27.47-336.718 3.674-338.424 3.202l1.81-3.062c1.965.031 185.056 23.628 331.79-3.164 124.503-22.735 199.324-68.82 271.887-113.317 122.875-75.951 238.494-147.453 581.08-108.451l-1.326 3.367c-336.953-38.47-450.833 32.325-572.447 107.263-72.563 44.5-147.643 91.022-274.37 114.162z" fill="url(#D)"/><g opacity=".8" transform="translate(519.11 294.332)" fill="url(#E)"><path d="M338.425 235.777C187.985 263.247 2.447 239.315 0 238.982l1.81-3.066c1.965.032 185.053 23.631 331.79-3.164 124.504-22.735 199.325-68.819 271.888-113.316C727.62 43.62 843.978-28.018 1186.568 10.984l-1.327 3.37C848.771-23.815 734.41 46.677 613.536 121.482c-72.823 44.937-148.385 91.154-275.111 114.295z" opacity=".95"/></g><g opacity=".6" transform="translate(535.151 304.418)" fill="url(#F)"><path d="M338.425 235.787C187.985 263.261 1.706 239.462 0 238.993l1.81-3.066c1.965.032 185.054 23.631 331.791-3.164 124.5-22.735 199.321-68.816 271.887-113.316C728.36 43.495 843.98-28.007 1186.57 10.998l-1.327 3.367C848.772-23.804 734.41 46.687 613.536 121.493c-72.822 44.937-148.384 91.154-275.11 114.294z" opacity=".9"/></g><g opacity=".5" transform="translate(551.64 314.796)" fill="url(#G)"><path d="M338.426 235.79C187.983 263.26 1.706 239.462 0 238.993l1.81-3.065c1.965.031 185.055 23.63 331.79-3.165 124.503-22.734 199.324-68.819 271.886-113.316C728.361 43.496 843.98-28.005 1186.567 10.997l-1.327 3.37c-336.47-38.17-450.83 32.322-571.706 107.127-73.303 44.634-148.384 91.155-275.108 114.295z" opacity=".88"/></g><g opacity=".4" transform="translate(567.68 324.907)" fill="url(#H)"><path d="M338.424 235.775C187.984 263.248 1.706 239.449 0 238.98l1.81-3.066c1.965.032 185.056 23.632 331.79-3.164 124.503-22.731 199.324-68.815 271.887-113.316C727.62 43.619 843.98-28.019 1186.567 10.986l-1.326 3.367C848.77-23.817 734.41 46.675 613.535 121.48c-73.304 44.634-148.385 91.155-275.111 114.295z" opacity=".85"/></g><g opacity=".3" transform="translate(583.723 334.994)" fill="url(#I)"><path d="M338.425 235.79C187.985 263.26 1.705 239.463 0 238.991l1.81-3.063c1.965.031 185.053 23.628 331.79-3.164 124.504-22.735 199.325-68.82 271.888-113.32 122.875-75.951 238.49-147.45 581.08-108.448l-1.327 3.367C848.771-23.802 734.41 46.686 613.536 121.491 540.713 166.43 465.15 212.65 338.425 235.79z" opacity=".85"/></g></g></svg>