<svg width="1000" height="1000" viewBox="0 0 1000 1000" fill="none" xmlns="http://www.w3.org/2000/svg">
<path d="M542.007 82.1646C555.859 77.9098 601.103 78.1926 627.247 85.5999C638.748 88.8574 637.781 93.4939 639.185 101.26C641.638 114.824 653.552 165.91 686.308 214.05C693.636 224.821 684.792 228.316 676.559 234.272C668.325 240.227 647.758 252.736 635.835 259.552C625.383 247.498 553.518 152.576 546.255 124.056C538.992 95.5363 542.007 82.1646 542.007 82.1646Z" fill="white"/>
<path d="M542.087 82.4664C545.201 81.5982 548.388 81.0195 551.608 80.7377C556.016 80.2531 560.449 80.0093 564.881 79.8834C575.66 79.5944 586.446 79.9595 597.181 80.9765C602.617 81.4841 608.043 82.1606 613.425 83.0879C618.365 83.852 623.242 84.9757 628.019 86.4503C631.935 87.7363 635.539 89.7628 636.833 93.9076C637.785 96.9562 637.963 100.248 638.577 103.378C641.879 119.488 646.542 135.287 652.515 150.605C657.002 162.428 662.173 173.979 668 185.198C671.255 191.451 674.727 197.583 678.414 203.593C680.309 206.675 682.263 209.719 684.276 212.725C685.895 215.141 687.707 217.629 688.03 220.613C688.56 225.515 684.015 228.617 680.476 231.038C676.755 233.584 673.084 236.201 669.314 238.67C660.154 244.666 650.778 250.347 641.342 255.896C639.267 257.116 637.186 258.324 635.098 259.52L636.742 259.221C630.814 252.373 625.423 245.008 619.969 237.781C610.552 225.304 601.341 212.673 592.337 199.887C582.778 186.305 573.421 172.557 564.708 158.411C561.062 152.493 557.522 146.5 554.285 140.346C551.786 135.815 549.661 131.086 547.931 126.207C546.605 121.887 545.558 117.485 544.797 113.03C543.786 107.91 543.067 102.737 542.643 97.5358C542.111 92.5548 542.18 87.5277 542.849 82.5633C542.88 82.3734 542.912 82.1836 542.949 81.9957C543.048 81.5711 541.155 81.8489 541.049 82.3335C540.453 85.6285 540.245 88.9821 540.428 92.3258C540.786 102.647 542.297 112.896 544.932 122.879C546.218 127.719 548.022 132.405 550.313 136.856C553.247 142.819 556.552 148.599 559.965 154.296C568.37 168.329 577.517 181.917 586.86 195.336C596.076 208.572 605.527 221.639 615.213 234.538C621.284 242.64 627.354 250.785 633.824 258.576C634.187 259.015 634.555 259.45 634.928 259.882C635.227 260.223 636.29 259.744 636.572 259.582C646.206 254.073 655.712 248.344 665.092 242.396C669 239.922 672.907 237.429 676.678 234.748C678.785 233.25 680.942 231.829 683.056 230.339C684.991 229.09 686.731 227.561 688.22 225.801C689.465 224.281 690.094 222.347 689.983 220.383C689.758 217.286 687.868 214.698 686.203 212.213C682.138 206.146 678.314 199.926 674.732 193.554C668.203 181.935 662.411 169.915 657.391 157.565C650.396 140.704 644.918 123.25 641.024 105.411C640.443 102.663 639.972 99.909 639.543 97.1331C639.005 93.6518 638.1 90.4383 635.106 88.2959C631.158 85.4641 625.821 84.5328 621.163 83.5286C616.004 82.4144 610.788 81.598 605.557 80.9545C594.477 79.6072 583.323 78.9544 572.162 79C563.478 79.024 554.608 79.2508 546.054 80.8786C544.661 81.133 543.284 81.4615 541.926 81.8628C541.749 81.9168 540.964 82.1216 541.044 82.4234C541.124 82.7252 541.946 82.5093 542.087 82.4664Z" fill="black"/>
<path d="M529.267 96.6865C531.403 88.4768 535.915 83.5665 542.007 82.1646C548.099 80.7627 544.21 106.621 568.594 149.355C592.978 192.089 622.016 226.005 642.362 244.417C647.024 248.862 642.628 253.588 637.611 258.121C633.894 261.48 629.847 257.54 627.838 256.044C605.2 239.196 578.149 201.906 562.728 177.413C540.243 141.704 527.13 104.9 529.267 96.6865Z" fill="url(#paint0_linear)"/>
<path d="M530.228 96.5646C531.076 92.8552 532.835 89.4174 535.347 86.5643C536.399 85.444 537.628 84.5048 538.985 83.7844C539.667 83.4276 540.381 83.1343 541.117 82.9081C541.452 82.8082 541.791 82.7183 542.133 82.6363C541.761 82.7253 542.286 82.6503 542.109 82.6443C542.176 82.6443 542.079 82.6063 542.27 82.6763C542.134 82.6263 542.469 82.7632 542.545 82.8172C542.763 83.0014 542.959 83.2099 543.13 83.4387C543.645 84.259 544.03 85.1552 544.269 86.0947C545.29 89.3662 545.911 92.7715 546.681 96.107C547.931 101.513 549.343 106.884 551.027 112.175C556.187 128.402 563.837 143.503 572.578 158.063C581.815 173.454 591.971 188.272 602.99 202.435C612.026 214.148 621.757 225.305 632.13 235.846C634.273 238.005 636.452 240.127 638.668 242.212C641.094 244.487 644.384 246.75 643.007 250.537C642.062 252.64 640.67 254.511 638.929 256.017C638.172 256.812 637.365 257.557 636.513 258.248C636.034 258.598 635.469 258.811 634.879 258.868C634.289 258.924 633.695 258.82 633.159 258.568C631.651 257.885 630.253 256.979 629.011 255.882C627.757 254.916 626.495 253.965 625.268 252.963C613.508 243.357 603.419 231.679 593.976 219.848C584.243 207.657 575.168 194.921 566.686 181.826C556.96 166.915 548.457 151.237 541.261 134.946C538.324 128.34 535.725 121.587 533.475 114.715C531.851 110.123 530.721 105.37 530.106 100.537C529.922 99.2152 529.963 97.8721 530.228 96.5646C530.4 95.8782 528.466 96.1649 528.305 96.8124C527.459 100.203 528.56 104.244 529.353 107.53C530.936 113.754 532.935 119.863 535.339 125.816C542.09 142.886 550.356 159.314 560.037 174.902C568.425 188.489 577.506 201.632 587.244 214.281C597.091 227.118 607.589 239.734 619.709 250.493C622.23 252.732 624.872 254.79 627.524 256.866C630.053 258.846 633.005 260.862 636.338 259.546C638.352 258.747 639.98 256.874 641.44 255.336C642.838 253.981 643.978 252.383 644.805 250.618C645.159 249.84 645.325 248.988 645.287 248.132C645.249 247.277 645.009 246.443 644.587 245.699C643.628 244.346 642.477 243.142 641.17 242.124C630.84 232.387 621.163 221.976 612.204 210.959C600.734 197.021 590.129 182.39 580.448 167.149C570.404 151.362 561.159 135.044 554.87 117.358C552.762 111.396 550.956 105.33 549.461 99.1846C548.49 95.2217 547.704 91.2107 546.671 87.2628C546.237 85.5951 545.739 82.8512 544.079 81.8979C543.035 81.2984 541.787 81.6771 540.722 82.0108C537.739 82.9471 535.08 84.7091 533.051 87.0939C530.765 89.9373 529.143 93.2581 528.305 96.8124C528.124 97.4859 530.056 97.2111 530.228 96.5646Z" fill="black"/>
<path d="M567.958 103.181C572.806 103.181 576.736 99.2409 576.736 94.3801C576.736 89.5193 572.806 85.5789 567.958 85.5789C563.111 85.5789 559.181 89.5193 559.181 94.3801C559.181 99.2409 563.111 103.181 567.958 103.181Z" fill="#B1B1B1"/>
<path d="M575.773 94.639C575.782 96.3108 575.287 97.9464 574.353 99.3312C573.419 100.716 572.089 101.785 570.538 102.399C567.354 103.486 563.774 101.915 561.831 99.3014C560.85 97.9547 560.274 96.3542 560.172 94.6894C560.071 93.0247 560.447 91.3656 561.256 89.9086C562.024 88.4531 563.264 87.3034 564.771 86.6491C566.278 85.9948 567.963 85.875 569.547 86.3094C571.341 86.8406 572.916 87.9382 574.038 89.439C575.159 90.9398 575.768 92.7635 575.773 94.639C575.773 95.0527 577.707 94.7389 577.698 94.1214C577.67 92.1843 577.028 90.3064 575.863 88.7609C574.698 87.2154 573.071 86.0829 571.22 85.528C569.302 84.9941 567.273 85.0085 565.362 85.5697C563.451 86.1308 561.735 87.2163 560.407 88.7036C559.139 90.1907 558.385 92.0493 558.258 94.0016C558.131 95.9539 558.637 97.8952 559.701 99.5353C560.807 101.125 562.368 102.342 564.178 103.024C565.988 103.707 567.961 103.824 569.839 103.359C572.002 102.947 573.961 101.807 575.39 100.127C576.819 98.4473 577.633 96.3285 577.698 94.1214C577.704 93.7217 575.781 94.0135 575.773 94.639Z" fill="black"/>
<path d="M502.001 961C621.294 961 718.001 950.031 718.001 936.5C718.001 922.969 621.294 912 502.001 912C382.707 912 286 922.969 286 936.5C286 950.031 382.707 961 502.001 961Z" fill="#B2B2B2"/>
<path d="M446.377 235.869C436.005 222.079 390.628 206.185 352.752 231.144C270.702 241.645 255.648 304.858 262.713 333.807C262.847 334.325 263.117 334.796 263.495 335.173C263.873 335.551 264.344 335.819 264.861 335.952C265.377 336.084 265.92 336.075 266.432 335.926C266.944 335.776 267.406 335.492 267.771 335.103C286.06 316.057 311.047 315.152 328.218 330.696C316.414 328.739 302.802 334.116 298.653 345.297C329.307 333.337 352.393 350.366 363.995 358.036C377.997 349.891 446.377 235.869 446.377 235.869Z" fill="url(#paint1_linear)"/>
<path d="M447.265 235.476C444.809 232.466 441.82 229.937 438.448 228.016C434 225.356 429.26 223.223 424.321 221.661C412.032 217.676 399.012 216.48 386.205 218.161C378.947 219.11 371.848 221.031 365.099 223.87C361.507 225.39 358.03 227.169 354.696 229.194C354.001 229.719 353.263 230.186 352.491 230.589C351.593 230.812 350.675 230.945 349.751 230.988C347.98 231.249 346.213 231.539 344.451 231.86C331.892 234.011 319.73 238.057 308.38 243.861C299.147 248.646 290.766 254.927 283.575 262.45C271.787 274.908 264.002 290.628 261.226 307.573C260.09 314.306 259.9 321.165 260.661 327.95C260.833 329.38 261.058 330.803 261.342 332.215C261.739 334.197 262.236 336.127 264.522 336.563C267.808 337.188 269.942 333.798 272.09 331.911C274.886 329.441 277.95 327.293 281.224 325.509C287.013 322.298 293.511 320.591 300.127 320.542C306.742 320.493 313.265 322.104 319.101 325.229C322.06 326.856 324.821 328.822 327.327 331.087L328.791 330.131C316.751 328.207 302.314 333.245 297.685 345.4C297.43 346.067 298.824 345.833 299.044 345.748C309.214 341.724 320.334 340.763 331.041 342.983C339.208 344.884 347.002 348.137 354.101 352.608C357.207 354.488 360.209 356.528 363.236 358.53C363.459 358.619 363.7 358.651 363.939 358.623C364.177 358.596 364.405 358.509 364.602 358.372C366.764 356.904 368.686 355.108 370.297 353.047C373.104 349.851 375.701 346.469 378.242 343.057C385.424 333.413 392.135 323.412 398.752 313.373C406.19 302.087 413.487 290.709 420.641 279.239C426.712 269.564 432.723 259.851 438.674 250.101C440.599 246.95 442.517 243.794 444.43 240.633C445.416 239.171 446.328 237.66 447.162 236.105C447.193 236.04 447.239 235.978 447.276 235.915C447.773 235.094 445.833 235.217 445.472 235.815C443.197 239.609 440.906 243.392 438.597 247.165C432.983 256.38 427.318 265.564 421.6 274.718C414.479 286.119 407.254 297.456 399.926 308.726C393.152 319.097 386.281 329.417 379.012 339.445C376.292 343.197 373.521 346.92 370.563 350.49C368.744 352.833 366.702 354.993 364.465 356.939C364.121 357.215 363.758 357.468 363.379 357.694L364.745 357.536C358.526 353.421 352.331 349.316 345.503 346.267C336.766 342.243 327.216 340.309 317.607 340.618C310.972 340.965 304.437 342.39 298.258 344.838L299.617 345.186C303.792 334.223 316.741 329.515 327.641 331.256C327.946 331.305 329.769 330.895 329.105 330.299C324.487 326.059 318.978 322.914 312.985 321.096C306.992 319.279 300.669 318.834 294.481 319.796C287.964 320.91 281.756 323.399 276.27 327.098C273.305 329.085 270.538 331.355 268.008 333.875C267.449 334.429 266.849 335.33 266.012 335.434C265.658 335.451 265.305 335.382 264.984 335.232C264.663 335.081 264.383 334.855 264.169 334.572C263.703 333.812 263.418 332.955 263.336 332.067C262.122 325.92 261.81 319.629 262.41 313.392C263.07 305.851 264.748 298.435 267.399 291.348C270.394 283.322 274.586 275.798 279.832 269.033C285.855 261.327 293.118 254.683 301.322 249.374C311.273 243.019 322.174 238.3 333.612 235.396C336.873 234.537 340.162 233.795 343.479 233.172C345.23 232.84 346.986 232.541 348.747 232.275C350.344 232.032 352.336 232.113 353.723 231.241C360.207 227.076 367.25 223.86 374.64 221.689C387.638 218.057 401.321 217.641 414.515 220.475C424.185 222.518 434.436 226.126 442.047 232.671C443.316 233.742 444.469 234.945 445.485 236.259C445.928 236.838 447.778 236.151 447.265 235.476Z" fill="black"/>
<path d="M352.619 231.667C364.489 230.163 376.955 229.662 388.8 231.709C389.039 231.755 389.285 231.746 389.52 231.683C389.755 231.62 389.973 231.504 390.157 231.344C390.385 231.062 390.438 230.757 389.979 230.679C377.831 228.579 365.061 229.078 352.886 230.622C351.965 230.738 351.284 231.837 352.618 231.667H352.619Z" fill="black"/>
<path d="M551.007 305.878C548.392 338.249 528.076 371.837 494.311 393.713C445.686 425.207 386.436 421.231 356.915 386.059C354.903 383.677 353.047 381.167 351.359 378.544C334.362 352.163 335.972 318.177 352.393 288.217C359.203 275.903 368.007 264.808 378.444 255.388C384.019 250.324 389.996 245.724 396.316 241.634C405.285 235.804 414.906 231.05 424.982 227.471C429.986 225.686 435.099 224.221 440.289 223.086C480.236 214.306 519.558 226.216 539.268 256.813C548.72 271.485 552.408 288.496 551.007 305.878Z" fill="white"/>
<path d="M550.047 306.136C548.489 324.979 541.122 343.073 530.328 358.47C518.086 375.732 501.958 389.856 483.253 399.699C465.452 409.141 445.474 414.641 425.283 414.635C407.345 414.635 389.161 410.127 374.087 400.172C365.829 394.718 358.728 387.68 353.194 379.463C347.659 371.246 343.801 362.013 341.84 352.294C337.483 330.495 342.65 307.761 353.13 288.457C364.248 267.977 381.354 250.982 401.278 239.08C420.979 227.32 443.753 220.412 466.769 220.722C485.723 220.978 504.879 226.314 520.205 237.744C528.432 243.926 535.306 251.736 540.4 260.689C545.495 269.643 548.703 279.55 549.825 289.797C550.413 295.224 550.487 300.695 550.046 306.136C550.018 306.498 551.916 306.256 551.966 305.62C552.96 294.079 551.486 282.458 547.64 271.534C544.083 261.72 538.513 252.763 531.29 245.241C517.985 231.403 499.745 223.414 480.917 220.823C459.05 217.813 436.487 221.756 416.302 230.46C394.156 239.933 374.882 255.075 360.409 274.368C346.997 292.499 338.207 314.641 338.366 337.42C338.516 358.769 347.212 379.386 363.092 393.746C376.449 405.823 393.782 412.631 411.513 414.759C431.185 417.121 451.36 413.913 469.77 406.755C489.992 398.901 508.099 386.409 522.642 370.278C535.751 355.642 545.728 337.861 550.008 318.578C550.954 314.309 551.608 309.98 551.966 305.622C551.997 305.26 550.099 305.499 550.047 306.136Z" fill="black"/>
<path d="M374.287 283.165C394.951 292.378 408.033 301.989 420.138 292.74C432.244 283.491 430.193 259.651 404.158 250.432C381.211 242.303 362.781 251.355 356.42 260.534C352.628 266.008 352.876 273.619 374.287 283.165Z" fill="white"/>
<path d="M373.733 283.814C382.012 287.517 390.014 292.052 398.576 295.085C404.677 297.246 411.357 298.291 417.379 295.305C426.881 290.591 430.31 279.432 426.904 269.691C422.015 255.709 406.504 248.623 392.793 246.942C384.865 245.904 376.804 246.929 369.384 249.918C364.044 252.131 358.731 255.599 355.459 260.482C354.507 261.755 353.905 263.255 353.714 264.833C353.522 266.412 353.746 268.013 354.366 269.477C356.738 274.76 362.591 278.166 367.454 280.761C369.509 281.858 371.612 282.861 373.737 283.814C374.539 284.174 375.958 283.017 374.845 282.518C371.024 280.871 367.348 278.904 363.856 276.638C361.547 275.188 359.481 273.38 357.737 271.28C355.749 268.73 354.874 265.63 356.238 262.577C358.1 258.41 362.293 255.21 366.15 253.037C372.425 249.606 379.479 247.862 386.626 247.976C395.176 248.028 403.573 250.258 411.03 254.455C416.294 257.338 420.636 261.658 423.553 266.913C427.766 274.899 427.349 285.849 420.004 291.905C415.054 295.986 409.053 296.476 403.03 294.845C395.44 292.79 388.386 288.872 381.319 285.514C379.17 284.494 377.011 283.497 374.841 282.524C374.038 282.158 372.619 283.317 373.733 283.814Z" fill="black"/>
<path d="M373.522 283.629C381.801 287.331 389.804 291.867 398.365 294.9C404.417 297.044 411.045 298.12 417.064 295.259C419.36 294.193 421.425 292.683 423.138 290.815C424.851 288.947 426.18 286.759 427.048 284.375C428.642 279.687 428.62 274.597 426.983 269.924C422.244 255.922 406.707 248.795 393.049 247.121C385.162 246.083 377.14 247.063 369.732 249.972C364.304 252.164 358.904 255.615 355.526 260.518C354.573 261.751 353.958 263.212 353.742 264.757C353.525 266.301 353.715 267.876 354.293 269.324C356.537 274.54 362.325 277.915 367.066 280.478C369.173 281.617 371.34 282.651 373.527 283.631C374.091 283.884 375.845 283.058 375.057 282.704C369.002 279.99 362.146 276.807 357.882 271.494C355.813 268.915 354.861 265.751 356.171 262.598C357.897 258.447 362.052 255.245 365.799 253.051C372.059 249.506 379.149 247.698 386.337 247.814C400.153 247.879 416.653 253.808 423.477 266.744C427.72 274.787 427.436 285.642 420.203 291.912C417.974 293.892 415.245 295.219 412.314 295.747C409.32 296.143 406.278 295.907 403.381 295.055C395.737 293.062 388.631 289.069 381.534 285.698C379.385 284.677 377.226 283.681 375.057 282.708C374.488 282.448 372.733 283.276 373.522 283.629Z" fill="black"/>
<path d="M447.751 238.957C457.272 245.719 469.31 258.701 478.347 257.157C492.091 254.809 498.616 239.909 479.125 225.527C459.635 211.145 441.528 214.257 435.564 219.977C429.6 225.696 435.301 230.117 447.751 238.957Z" fill="white"/>
<path d="M446.993 239.46C452.041 243.066 456.618 247.286 461.577 251.009C465.712 254.114 470.674 257.669 476.045 257.886C480.449 257.889 484.699 256.256 487.972 253.302C489.444 251.996 490.598 250.369 491.344 248.546C492.09 246.723 492.409 244.752 492.275 242.786C491.895 237.344 488.369 232.563 484.559 228.932C479.145 223.835 472.76 219.886 465.787 217.323C456.946 214.06 445.586 212.882 437.145 217.982C434.522 219.568 431.537 222.454 432.374 225.831C432.981 227.66 434.07 229.29 435.526 230.55C437.666 232.574 439.95 234.439 442.36 236.131C443.896 237.26 445.448 238.366 447.001 239.47C447.585 239.885 449.329 239.045 448.509 238.463C445.837 236.565 443.154 234.671 440.587 232.629C438.718 231.245 437.034 229.628 435.574 227.816C435.076 227.248 434.699 226.583 434.466 225.863C434.234 225.143 434.151 224.383 434.222 223.63C434.628 222.067 435.562 220.693 436.866 219.743C439.507 217.551 443.075 216.535 446.408 216.089C451.426 215.494 456.512 215.941 461.35 217.403C467.803 219.343 473.839 222.472 479.148 226.631C483.628 230.064 488.04 234.511 489.737 240.052C490.343 241.863 490.518 243.792 490.247 245.683C489.976 247.574 489.267 249.376 488.176 250.942C486.967 252.497 485.464 253.798 483.753 254.77C482.043 255.743 480.157 256.367 478.206 256.608C472.918 257.342 467.526 253.312 463.537 250.354C458.405 246.55 453.705 242.182 448.505 238.47C447.92 238.038 446.175 238.875 446.993 239.46Z" fill="black"/>
<path d="M540.231 456.831C555.751 495.011 551.075 584.729 505.748 620.196C478.454 641.554 430.25 644.321 404.364 619.087C394.16 609.14 389.251 594.769 389.491 580.661C389.761 564.865 396.959 552.486 408.585 542.124C417.233 534.421 426.129 528.237 434.894 520.671C445.195 511.778 454.016 499.952 458.36 487.049C463.803 470.883 463.387 450.832 473.345 440.35C483.304 429.869 499.324 425.263 513.359 429.518C526.382 433.466 535.252 444.584 540.231 456.831Z" fill="black"/>
<path d="M453.505 638.115C433.471 638.115 415.809 631.637 403.673 619.802C393.77 610.148 388.24 595.875 388.499 580.643C388.755 565.646 395.11 552.803 407.927 541.38C412.586 537.228 417.393 533.457 422.042 529.81C426.053 526.664 430.201 523.409 434.248 519.916C445.157 510.498 453.387 498.711 457.422 486.728C459.219 480.914 460.634 474.987 461.655 468.987C463.872 457.515 465.964 446.68 472.629 439.666C483.012 428.735 499.496 424.277 513.65 428.567C525.539 432.173 535.307 442.077 541.153 456.458C549.303 476.499 551.512 509.168 546.79 539.687C541.153 576.123 526.795 604.996 506.361 620.985C492.723 631.656 473.835 637.899 454.54 638.112C454.195 638.113 453.848 638.115 453.505 638.115ZM502.551 428.94C497.238 428.946 491.98 430.02 487.088 432.098C482.196 434.176 477.768 437.215 474.067 441.037C467.805 447.629 465.765 458.187 463.605 469.363C462.569 475.453 461.132 481.467 459.305 487.367C455.158 499.683 446.72 511.78 435.549 521.426C431.467 524.95 427.299 528.219 423.27 531.381C418.646 535.008 413.865 538.756 409.255 542.869C396.877 553.901 390.74 566.268 390.494 580.678C390.243 595.362 395.555 609.101 405.066 618.374C417.029 630.034 434.551 636.343 454.525 636.114C473.393 635.905 491.843 629.816 505.144 619.409C525.177 603.733 539.272 575.31 544.831 539.378C549.503 509.192 547.338 476.939 539.317 457.208C536.065 449.208 528.333 435.097 513.076 430.473C509.662 429.447 506.115 428.93 502.551 428.94Z" fill="black"/>
<path d="M334.748 604.213C341.23 606.813 351.202 603.953 358.981 602.133C366.759 600.313 372.688 604.688 371.731 614.292C370.999 621.637 357.501 630.538 346.806 625.601C337.632 621.365 327.622 625.328 329.951 632.088C332.28 638.847 338.056 642.63 343.305 656.477C348.076 669.063 347.194 680.916 339.156 686.116C331.118 691.317 325.673 684.296 324.116 671.296C322.714 659.577 319.709 645.296 312.708 648.157C305.706 651.017 312.877 669.286 317.976 684.858C321.296 694.993 320.896 706.087 312.095 707.87C304.144 709.476 298.737 704.092 295.569 691.586C292.509 679.507 291.829 655.308 281.069 655.696C272.301 656.014 271.086 667.006 279.572 682.626C286.259 694.936 289.626 708.631 277.958 708.866C266.03 709.105 243.045 670.029 242.952 639.056C242.894 618.947 248.659 610.713 258.511 603.432C262.049 507.245 332.501 467.418 404.087 447.924C437.573 438.805 471.309 434.13 498.563 430.223C498.562 430.231 498.559 430.238 498.553 430.243C498.538 430.258 498.525 430.275 498.513 430.293C498.513 430.303 498.503 430.313 498.493 430.323C497.847 431.12 492.808 436.582 470.255 443.339C444.68 447.695 421.978 454.253 402.248 462.575C334.229 486.955 298.706 536.874 308.663 595.559C319.579 593.618 328.265 601.613 334.748 604.213Z" fill="white"/>
<path d="M334.192 604.856C337.882 606.267 341.982 606.111 345.833 605.59C350.267 604.993 354.592 603.841 358.945 602.834C361.927 602.142 365.222 602.25 367.678 604.299C370.282 606.472 370.995 610.074 370.837 613.312C370.502 620.211 362.958 624.883 356.822 626.029C354.922 626.39 352.974 626.417 351.066 626.108C349.003 625.764 347.234 624.776 345.272 624.131C341.804 622.919 338.046 622.819 334.519 623.844C331.968 624.668 329.358 626.371 328.754 629.168C328.214 631.671 329.67 634.286 330.895 636.376C332.314 638.8 334.019 641.045 335.559 643.391C337.827 646.832 339.772 650.477 341.37 654.278C344.528 661.82 347.053 671.185 343.821 679.139C341.797 684.115 335.04 690.333 330.088 685.104C327.795 682.683 326.688 679.258 325.947 676.076C325.004 672.017 324.743 667.826 324.004 663.728C323.435 659.956 322.41 656.266 320.953 652.741C319.978 650.569 318.58 648.108 316.175 647.319C315.13 647.013 314.018 647.016 312.974 647.329C311.931 647.641 310.999 648.249 310.292 649.08C308.769 650.959 308.727 653.653 308.885 655.946C309.255 659.731 310.021 663.466 311.171 667.09C312.417 671.424 313.869 675.696 315.307 679.971C317.621 686.857 320.972 695.471 317.676 702.618C315.069 708.275 307.527 708.809 303.2 704.857C298.177 700.273 296.604 692.521 295.437 686.106C294.287 679.779 293.499 673.356 291.76 667.153C290.554 662.856 288.634 656.987 283.94 655.379C282.88 655.028 281.761 654.893 280.648 654.983C279.535 655.074 278.452 655.387 277.462 655.905C276.473 656.423 275.597 657.136 274.887 657.999C274.177 658.863 273.647 659.862 273.33 660.935C272.625 663.951 272.687 667.097 273.507 670.084C274.567 674.357 276.182 678.472 278.312 682.323C280.335 685.958 282.023 689.77 283.355 693.713C284.311 696.755 285.127 700.165 284.487 703.357C283.472 708.413 277.91 709.117 274.06 706.822C269.587 704.156 266.145 699.738 263.189 695.544C254.536 683.058 248.537 668.92 245.565 654.01C243.927 646.094 243.525 637.971 244.372 629.931C245.088 623.453 246.884 617.009 250.864 611.751C252.564 609.543 254.515 607.542 256.678 605.788C257.624 605.006 259.4 604.193 259.503 602.911C259.676 600.718 259.709 598.515 259.869 596.323C260.437 588.317 261.559 580.36 263.227 572.51C266.218 558.312 271.352 544.655 278.449 532.01C285.081 520.391 293.35 509.792 303 500.54C312.623 491.372 323.28 483.36 334.755 476.667C346.288 469.934 358.356 464.167 370.836 459.425C384.363 454.279 398.188 449.959 412.236 446.489C432.09 441.486 452.252 437.84 472.476 434.728C481.135 433.397 489.806 432.163 498.478 430.92L497.648 430.118C497.657 430.1 497.73 430.029 497.548 430.217C497.424 430.345 497.304 430.478 497.175 430.602C496.779 430.967 496.365 431.311 495.934 431.634C493.997 433.042 491.934 434.267 489.771 435.292C485.731 437.253 481.568 438.951 477.31 440.375C474.276 441.511 471.159 442.407 467.986 443.054C464.888 443.6 461.799 444.186 458.716 444.809C446.621 447.235 434.676 450.357 422.94 454.161C417.628 455.895 412.37 457.789 407.167 459.842C402.037 461.869 396.861 463.793 391.768 465.912C373.659 473.445 356.473 483.603 342.054 497.007C329.454 508.721 319.141 522.995 312.926 539.115C306.886 555.052 304.772 572.215 306.764 589.147C307.014 591.381 307.332 593.607 307.705 595.824C307.763 596.167 308.292 596.31 308.578 596.263C313.727 595.409 318.645 596.773 323.253 599.047C326.952 600.873 330.37 603.293 334.194 604.863C334.995 605.192 336.429 604.039 335.305 603.577C331.214 601.898 327.572 599.252 323.568 597.378C319 595.052 313.834 594.177 308.757 594.87L309.63 595.308C306.602 578.203 307.779 560.615 313.061 544.069C318.605 527.783 327.871 513.024 340.119 500.97C353.893 487.167 370.699 476.658 388.458 468.807C393.401 466.62 398.504 464.874 403.483 462.795C408.69 460.62 413.964 458.62 419.305 456.793C430.766 452.89 442.443 449.659 454.277 447.115C457.398 446.436 460.527 445.8 463.665 445.207C466.894 444.705 470.091 444.011 473.239 443.128C478.099 441.634 482.873 439.871 487.538 437.846C491.442 436.119 495.866 434.145 498.908 431.022C499.002 430.922 499.097 430.828 499.186 430.723C499.31 430.61 499.412 430.475 499.484 430.324C499.752 429.788 499.098 429.458 498.655 429.522C479.523 432.264 460.388 435.022 441.403 438.677C423.364 442.039 405.541 446.473 388.027 451.956C375.036 456.042 362.348 461.04 350.058 466.913C337.88 472.717 326.315 479.734 315.537 487.858C304.882 495.909 295.337 505.337 287.149 515.899C278.622 527.026 271.841 539.394 267.041 552.576C261.709 567.544 258.579 583.211 257.75 599.084C257.69 600.112 257.637 601.142 257.592 602.174C257.575 602.546 257.662 603.04 257.512 603.27C257.226 603.553 256.906 603.798 256.558 603.999C255.425 604.884 254.329 605.814 253.272 606.789C251.232 608.67 249.431 610.795 247.91 613.118C244.2 618.846 242.718 625.668 242.212 632.393C240.993 648.577 245.138 664.68 251.811 679.327C254.71 685.853 258.284 692.056 262.475 697.834C265.393 701.773 268.856 705.98 273.262 708.309C277.108 710.34 282.776 710.003 285.325 706.049C286.829 703.718 286.808 700.746 286.43 698.094C285.801 694.371 284.653 690.755 283.02 687.353C279.635 679.825 274.355 672.292 274.812 663.64C274.937 661.256 275.648 658.573 277.808 657.242C278.764 656.668 279.859 656.37 280.973 656.381C282.086 656.392 283.175 656.712 284.119 657.305C286.133 658.634 287.383 660.95 288.294 663.121C289.447 666.033 290.329 669.046 290.928 672.121C292.277 678.4 292.95 684.813 294.426 691.063C295.854 697.103 298.32 704.805 304.355 707.741C309.424 710.205 316.382 708.58 319.165 703.512C322.773 696.944 320.249 688.494 318.056 681.928C315.34 673.795 311.983 665.483 310.943 656.912C310.666 654.63 310.32 651.126 312.159 649.338C314.172 647.378 316.561 649.177 317.797 651.006C319.763 653.917 320.668 657.584 321.423 660.973C322.339 665.083 322.761 669.245 323.41 673.396C324.241 678.74 326.252 687.282 332.649 688.431C338.889 689.553 344.425 683.383 346.137 678.012C348.757 669.796 346.286 660.713 342.995 653.079C341.435 649.463 339.566 645.989 337.409 642.696C335.818 640.264 334.046 637.944 332.587 635.428C331.295 633.2 329.685 630.192 331.247 627.713C333.119 624.742 337.503 624.307 340.648 624.658C344.787 625.122 348.274 627.549 352.491 627.713C356.112 627.814 359.701 627.008 362.934 625.37C366.002 623.921 368.671 621.741 370.705 619.02C372.434 616.524 373.153 613.463 372.718 610.455C372.63 608.953 372.217 607.489 371.508 606.163C370.798 604.838 369.808 603.684 368.608 602.781C366.126 601.224 363.15 600.662 360.273 601.208C356.09 601.837 352.023 603.211 347.848 603.922C343.748 604.62 339.282 605.095 335.307 603.575C334.498 603.262 333.059 604.422 334.192 604.856Z" fill="black"/>
<path d="M350.342 365.755C338.59 359.231 321.648 376.882 333.134 393.518C343.185 408.069 368.871 397.319 368.1 386.036L350.342 365.755Z" fill="white"/>
<path d="M351.089 365.242C345.623 362.293 339.19 364.075 334.728 368.019C332.199 370.271 330.318 373.161 329.28 376.389C328.241 379.616 328.084 383.063 328.823 386.373C330.377 393.095 335.151 398.846 341.927 400.559C347.816 401.863 353.975 401.052 359.328 398.267C364.014 395.925 369.377 391.589 369.056 385.776C369.016 385.024 367.09 385.45 367.136 386.291C367.381 390.709 363.638 394.254 360.189 396.368C355.699 399.145 350.414 400.343 345.168 399.773C339.015 399.006 334.368 394.989 331.913 389.374C330.603 386.457 330.084 383.246 330.408 380.063C330.731 376.881 331.886 373.841 333.756 371.249C337.342 366.357 343.831 363.161 349.587 366.266C350.234 366.615 351.963 365.711 351.089 365.24V365.242Z" fill="black"/>
<path d="M346.778 393.774C346.479 393.835 345.671 391.109 345.217 388.266C344.992 386.848 344.825 385.412 344.746 384.318C344.666 383.223 344.637 382.473 344.633 382.424C344.629 382.375 344.665 381.627 344.76 380.536C344.854 379.446 345.023 378.009 345.257 376.594C345.729 373.757 346.549 371.037 346.847 371.1C347.145 371.163 346.891 373.952 346.829 376.748C346.801 378.143 346.79 379.546 346.817 380.606C346.845 381.666 346.867 382.387 346.868 382.432C346.869 382.477 346.841 383.199 346.805 384.259C346.77 385.318 346.772 386.718 346.791 388.119C346.835 390.916 347.083 393.71 346.778 393.774Z" fill="black"/>
<path d="M359.675 385.847C359.524 386.12 356.657 384.876 353.694 383.889C352.212 383.398 350.721 382.937 349.578 382.623L347.607 382.096L345.667 381.47C344.541 381.105 343.035 380.69 341.526 380.292C338.507 379.503 335.429 378.961 335.454 378.648C335.479 378.335 338.641 378.328 341.816 378.734C343.401 378.94 344.989 379.206 346.182 379.47C347.375 379.734 348.185 379.937 348.237 379.945C348.288 379.953 349.078 380.228 350.225 380.662C351.372 381.096 352.852 381.727 354.295 382.423C357.185 383.819 359.825 385.579 359.675 385.847Z" fill="black"/>
<path d="M417.653 499.408C417.812 499.667 412.905 502.946 407.652 505.759C405.026 507.16 402.346 508.492 400.279 509.43C398.211 510.369 396.785 510.977 396.701 511.02C396.616 511.063 395.163 511.605 393.017 512.343C390.871 513.08 388.02 513.978 385.157 514.778C379.423 516.373 373.618 517.389 373.555 517.092C373.493 516.795 379.137 515.226 384.688 513.264C387.462 512.28 390.227 511.25 392.3 510.405L395.871 508.938L399.467 507.532C401.554 506.709 404.265 505.538 406.952 504.342C412.324 501.919 417.491 499.139 417.653 499.408Z" fill="black"/>
<path d="M435.864 491.398C435.626 491.994 435.302 492.551 434.901 493.051C434.211 494.048 433.284 495.524 431.998 497.166C428.909 501.247 425.586 505.144 422.046 508.837C418.446 512.548 414.647 516.059 410.668 519.357C409.053 520.759 407.587 521.803 406.581 522.606L404.877 523.919L403.099 525.127C402.023 525.83 400.575 526.897 398.74 527.992C394.37 530.741 389.854 533.25 385.211 535.507C380.604 537.713 375.873 539.648 371.041 541.304C369.084 542.011 367.398 542.43 366.237 542.772C365.638 542.998 365.008 543.132 364.37 543.171C364.315 543.002 366.906 542.046 370.737 540.49C374.569 538.934 379.597 536.65 384.501 534.094C389.371 531.469 394.142 528.639 397.621 526.26C399.399 525.134 400.802 524.047 401.843 523.33L403.568 522.104L405.272 520.847C406.279 520.08 407.751 519.088 409.378 517.748C412.723 515.187 416.91 511.531 420.929 507.719C424.894 503.851 428.639 499.784 431.319 496.622C434 493.461 435.724 491.292 435.864 491.398Z" fill="black"/>
<path d="M629.957 519.331C629.902 519.473 627.239 518.614 623.274 517.209C619.308 515.805 614.041 513.837 608.829 511.638C603.618 509.439 598.48 506.978 594.686 504.893C590.881 502.827 588.39 501.215 588.23 501.131C588.089 501.015 585.581 499.431 582.146 496.775C577.983 493.57 574.125 489.984 570.622 486.064C568.787 483.971 567.069 481.777 565.475 479.493C564.108 477.496 562.863 475.418 561.747 473.27C561.242 472.338 560.836 471.456 560.491 470.668C560.13 469.887 559.838 469.199 559.636 468.615C559.357 468.027 559.165 467.402 559.067 466.759C559.241 466.686 560.36 469.259 562.506 472.843C563.732 474.883 565.061 476.857 566.488 478.76C568.149 480.925 569.917 483.005 571.787 484.992C575.348 488.705 579.229 492.096 583.385 495.126C586.813 497.634 589.3 499.132 589.438 499.246C589.597 499.329 592 500.959 595.691 503.091C599.369 505.243 604.374 507.824 609.468 510.19C614.562 512.556 619.725 514.746 623.59 516.398C627.454 518.051 630.014 519.185 629.957 519.331Z" fill="black"/>
<path d="M620.557 480.527C620.557 480.668 618.884 480.865 616.344 480.954C613.227 481.034 610.107 480.938 607.001 480.668C603.603 480.343 600.201 479.86 597.647 479.34C595.087 478.841 593.361 478.397 593.251 478.386C593.152 478.341 591.43 477.876 588.961 477.042C586.484 476.234 583.289 474.971 580.176 473.576C577.343 472.276 574.586 470.819 571.916 469.211C569.753 467.878 568.39 466.878 568.464 466.757C568.549 466.613 570.054 467.355 572.329 468.442C574.604 469.529 577.663 470.89 580.789 472.114C583.93 473.302 587.117 474.386 589.576 475.071C592.027 475.779 593.722 476.173 593.821 476.218C593.929 476.228 595.599 476.723 598.081 477.319C600.559 477.939 603.867 478.573 607.186 479.093C610.509 479.573 613.845 479.904 616.358 480.082C618.871 480.26 620.553 480.359 620.557 480.527Z" fill="black"/>
<path d="M264.851 531.212C264.988 531.302 264.374 532.508 263.46 534.302C262.545 536.096 261.394 538.524 260.343 540.996C259.321 543.482 258.378 546.005 257.769 547.954C257.142 549.896 256.782 551.243 256.744 551.319C256.734 551.405 256.282 552.721 255.724 554.683C255.144 556.639 254.525 559.258 253.99 561.891C253.486 564.529 253.096 567.185 252.852 569.186C252.609 571.187 252.448 572.528 252.284 572.525C252.139 572.525 252.004 571.173 251.985 569.136C251.987 566.633 252.136 564.133 252.43 561.648C252.737 559.136 253.17 556.641 253.729 554.173C254.192 552.131 254.596 550.757 254.607 550.669C254.646 550.589 255.078 549.222 255.829 547.266C256.739 544.904 257.767 542.588 258.91 540.33C260.05 538.102 261.319 535.943 262.711 533.863C263.867 532.182 264.73 531.137 264.851 531.212Z" fill="black"/>
<path d="M264.851 517.283C265.088 517.49 262.831 520.511 260.893 523.733C259.929 525.348 259.017 526.992 258.38 528.266C257.743 529.54 257.333 530.417 257.313 530.474C257.293 530.531 256.816 531.371 256.195 532.652C255.551 533.921 254.804 535.642 254.114 537.387C252.723 540.875 251.802 544.527 251.489 544.471C251.191 544.424 251.572 540.621 252.613 536.889C253.083 535.167 253.65 533.473 254.312 531.815C254.848 530.437 255.298 529.532 255.313 529.47C255.328 529.408 255.823 528.526 256.58 527.259C257.338 525.991 258.428 524.38 259.587 522.84C261.92 519.76 264.626 517.083 264.851 517.283Z" fill="black"/>
<path d="M712.607 325.325C712.301 325.258 713.179 319.805 713.637 314.281C713.862 311.518 714.04 308.746 714.106 306.639C714.173 304.532 714.206 303.097 714.206 303.009C714.206 302.92 714.275 301.486 714.371 299.383C714.466 297.28 714.485 294.499 714.465 291.732C714.415 286.193 713.942 280.695 714.252 280.651C714.562 280.607 715.586 286.062 716.042 291.655C716.265 294.445 716.404 297.263 716.428 299.402C716.452 301.54 716.428 303.002 716.437 303.089C716.425 303.179 716.351 304.639 716.157 306.771C715.963 308.903 715.63 311.702 715.201 314.473C714.337 320.021 712.904 325.392 712.607 325.325Z" fill="black"/>
<path d="M721.495 334.211C721.351 334.133 721.761 333.071 722.365 331.489C722.969 329.907 723.717 327.783 724.353 325.624C724.963 323.455 725.495 321.263 725.791 319.579C726.105 317.9 726.252 316.744 726.277 316.676C726.277 316.603 726.516 315.464 726.766 313.776C727.038 312.088 727.252 309.845 727.385 307.596C727.484 305.348 727.474 303.096 727.421 301.404C727.369 299.712 727.328 298.575 727.49 298.549C727.633 298.525 727.964 299.621 728.285 301.311C728.655 303.391 728.882 305.494 728.965 307.604C729.039 309.741 728.988 311.881 728.813 314.012C728.667 315.776 728.48 316.974 728.481 317.049C728.456 317.119 728.239 318.312 727.801 320.028C727.27 322.1 726.618 324.14 725.848 326.136C725.078 328.104 724.176 330.017 723.146 331.862C722.294 333.353 721.623 334.28 721.495 334.211Z" fill="black"/>
<path d="M339.689 204.299C339.283 204.765 318.31 187.057 317.977 186.768C317.644 186.479 297.345 168.032 297.751 167.561C298.158 167.091 319.115 184.788 319.448 185.08C319.781 185.372 340.095 203.833 339.689 204.299Z" fill="black"/>
<path d="M356.932 201.074C356.48 201.495 347.265 192.277 347.121 192.122C346.978 191.968 338.504 182.073 338.956 181.657C339.408 181.242 348.617 190.448 348.76 190.602C348.904 190.757 357.384 200.652 356.932 201.074Z" fill="black"/>
<path d="M320.252 212.758C320.026 213.335 307.988 209.164 307.8 209.094C307.612 209.024 295.941 203.916 296.171 203.339C296.4 202.762 308.426 206.927 308.618 207.005C308.81 207.083 320.476 212.184 320.252 212.758Z" fill="black"/>
<path d="M455.1 922.709C455.1 942.383 432.696 947.007 416.882 948.452C411.196 948.97 405.464 949.479 399.716 949.479C353.664 949.479 323.827 949.467 323.827 915.423C323.827 888.294 357.394 878.836 378.952 878.836C409.398 878.836 455.1 891.29 455.1 922.709Z" fill="black"/>
<path d="M454.14 922.967C454.173 925.647 453.667 928.306 452.652 930.785C451.637 933.264 450.135 935.513 448.233 937.397C444.495 941.026 439.61 943.261 434.688 944.772C429.532 946.278 424.243 947.283 418.896 947.774C410.82 948.603 402.707 949.002 394.589 948.97C382.114 948.954 369.492 949.07 357.109 947.342C348.613 946.158 339.403 944.019 332.955 937.96C326.432 931.832 324.407 922.436 324.823 913.761C325.342 902.963 331.91 894.348 340.909 888.892C349.999 883.382 360.743 880.68 371.245 879.702C381.856 878.714 392.745 879.766 403.179 881.795C414.228 883.941 425.295 887.422 434.96 893.312C443.374 898.44 450.863 905.898 453.284 915.747C453.854 918.115 454.142 920.542 454.142 922.978C454.142 923.516 456.065 923.17 456.062 922.461C456.016 911.936 450.473 902.945 442.414 896.523C433.501 889.422 422.493 885.202 411.558 882.413C400.466 879.525 389.035 878.158 377.576 878.347C366.683 878.505 355.927 880.819 345.928 885.157C336.397 889.431 327.408 896.41 324.175 906.758C322.704 911.975 322.428 917.458 323.369 922.797C323.945 927.119 325.493 931.254 327.897 934.888C332.834 942.064 341.283 945.416 349.482 947.2C361.243 949.76 373.522 949.853 385.503 949.958C399.972 950.084 414.689 950.157 428.925 947.188C438.904 945.103 450.593 940.764 454.646 930.46C455.608 927.902 456.088 925.188 456.062 922.454C456.064 921.917 454.145 922.256 454.14 922.967Z" fill="black"/>
<path d="M455.1 922.709C456.491 946.215 423.122 948.829 399.716 949.479C375.522 935.85 370.242 898.512 422.62 886.59C442.508 894.422 454.033 904.682 455.1 922.709Z" fill="white"/>
<path d="M454.139 922.967C454.339 925.499 454.016 928.045 453.189 930.446C452.362 932.847 451.049 935.051 449.334 936.92C445.685 940.791 440.673 943.099 435.676 944.671C429.808 946.405 423.78 947.54 417.685 948.059C414.549 948.379 411.403 948.605 408.254 948.771C406.755 948.85 405.254 948.917 403.752 948.97C402.549 949.015 400.958 949.359 399.967 948.771C392.742 944.651 387.232 938.066 384.444 930.214C383.166 926.39 382.772 922.324 383.292 918.324C383.812 914.325 385.232 910.496 387.445 907.128C393.992 897.091 405.755 891.587 416.88 888.384C418.804 887.83 420.745 887.338 422.697 886.889L421.829 886.962C434.148 891.834 447.058 899.05 451.951 912.177C453.205 915.646 453.942 919.281 454.137 922.966C454.16 923.316 456.092 922.987 456.058 922.449C455.695 914.463 452.572 906.852 447.223 900.922C441.087 894.244 432.732 889.959 424.436 886.618C423.588 886.217 422.618 886.162 421.731 886.466C420.365 886.787 419.006 887.135 417.656 887.51C415.294 888.165 412.954 888.905 410.65 889.739C406.632 891.173 402.754 892.974 399.066 895.121C393.359 898.489 388.115 902.969 384.753 908.761C379.266 918.213 380.36 929.652 386.43 938.541C389.539 943.095 393.648 946.874 398.441 949.588C399.12 949.874 399.867 949.957 400.592 949.826C401.617 949.795 402.642 949.759 403.667 949.72C405.688 949.64 407.707 949.54 409.725 949.421C413.848 949.162 417.965 948.785 422.057 948.216C434.469 946.491 453.095 942.396 455.773 927.601C456.069 925.901 456.165 924.171 456.061 922.448C456.042 922.105 454.112 922.425 454.139 922.967Z" fill="black"/>
<path d="M684.397 909.75C683.725 913.345 681.055 916.057 678.433 918.392C672.647 923.541 652.563 933.094 601.727 933.094C535.965 933.094 529.997 921.517 537.864 895.863C547.919 863.073 569.818 864.745 590.427 863.557C607.382 862.592 634.585 868.188 651.29 876.363C669.609 885.311 683.693 897.356 684.524 907.196C684.597 908.049 684.554 908.908 684.397 909.75Z" fill="black"/>
<path d="M683.446 909.905C682.502 914.421 678.684 917.985 674.916 920.37C672.454 921.878 669.85 923.14 667.142 924.138C657.156 927.98 646.39 929.774 635.809 930.97C618.291 932.797 600.655 933.227 583.069 932.254C576.294 931.992 569.538 931.356 562.833 930.347C558.072 929.675 553.398 928.485 548.895 926.798C543.256 924.563 538.113 920.8 536.633 914.614C535.082 908.128 537.108 901.054 539.07 894.887C541.29 887.91 544.494 881.056 549.558 875.691C553.421 871.632 558.265 868.643 563.619 867.015C568.824 865.551 574.183 864.715 579.585 864.523C585.528 864.03 591.492 863.84 597.454 863.955C605.356 864.335 613.212 865.384 620.938 867.093C628.785 868.721 636.484 870.994 643.957 873.89C651.942 877.064 659.517 881.188 666.52 886.174C672.265 890.255 678.215 895.158 681.62 901.468C683.145 903.999 683.787 906.966 683.445 909.903C683.356 910.447 685.262 910.114 685.347 909.594C686.379 903.299 681.769 897.467 677.64 893.281C671.487 887.041 663.937 882.184 656.244 878.087C641.75 870.371 625.431 866.086 609.207 864.008C602.161 863.135 595.052 862.889 587.962 863.271C582.333 863.417 576.715 863.856 571.132 864.586C565.604 865.312 560.262 867.07 555.379 869.768C550.072 872.943 545.664 877.427 542.575 882.795C539.386 888.398 537.033 894.44 535.588 900.727C534.704 903.988 534.237 907.349 534.197 910.728C534.172 913.641 534.914 916.508 536.348 919.042C537.782 921.575 539.857 923.684 542.364 925.156C545.94 927.234 549.811 928.751 553.844 929.655C559.603 931.021 565.458 931.941 571.357 932.407C579.587 933.161 587.857 933.421 596.119 933.503C605.74 933.603 615.366 933.427 624.965 932.748C637.629 931.851 650.468 930.256 662.636 926.469C668.327 924.7 674.479 922.497 679.076 918.545C681.859 916.154 684.569 913.309 685.346 909.595C685.456 909.073 683.556 909.378 683.446 909.905Z" fill="black"/>
<path d="M684.397 909.75C684.553 908.909 684.595 908.05 684.521 907.197C683.688 897.356 669.607 885.311 651.287 876.364L651.187 876.315C636.03 888.45 628.575 905.009 639.508 930.9C663.278 927.771 674.376 922.001 678.431 918.392C681.055 916.057 683.725 913.345 684.397 909.75Z" fill="white"/>
<path d="M685.357 909.631C686.215 904.409 683.096 899.473 679.86 895.672C675.369 890.406 669.689 886.163 663.875 882.475C660.035 880.028 656.052 877.815 651.948 875.847C651.687 875.762 651.409 875.746 651.141 875.799C650.872 875.853 650.621 875.975 650.413 876.153C644.739 880.718 639.719 886.232 636.654 892.91C633.583 899.883 632.608 907.604 633.849 915.125C634.738 920.645 636.316 926.032 638.545 931.158C638.671 931.457 639.101 931.476 639.376 931.44C648.191 930.406 656.881 928.494 665.319 925.733C669.913 924.315 674.255 922.175 678.181 919.394C681.362 916.962 684.516 913.67 685.36 909.626C685.513 908.896 683.579 909.198 683.44 909.865C682.316 915.233 677.199 919.159 672.554 921.58C667.062 924.279 661.26 926.288 655.277 927.56C650.12 928.78 644.891 929.663 639.639 930.361L640.47 930.643C637.025 922.425 634.612 913.468 635.433 904.485C636.12 897.393 638.846 890.653 643.279 885.085C645.836 881.894 648.749 879.006 651.961 876.479L650.426 876.785C657.321 880.029 663.839 884.024 669.862 888.698C674.391 892.261 678.939 896.435 681.69 901.588C683.17 904.079 683.786 906.991 683.442 909.87C683.312 910.621 685.248 910.297 685.357 909.631Z" fill="black"/>
<path d="M514.567 612.103C529.067 596.637 538.362 574.946 543.435 552.133C532.243 585.501 440.758 588.103 408.951 541.808C408.833 541.917 408.713 542.017 408.593 542.127C396.964 552.482 389.768 564.87 389.489 580.657C389.241 595.379 394.459 610.104 405.818 620.417C413.339 644.002 418.839 665.401 421.514 689.918C427.769 745.93 411.312 798.691 378.5 843.94C364.801 862.834 353.575 873.783 338.963 887.643C330.216 895.941 342.898 904.451 364.15 899.996C389.09 894.767 395.311 883.789 410.261 882.782C412.547 879.956 414.249 877.717 414.833 876.808C464.586 799.699 465.004 717.941 430.035 633.783C453.355 640.777 481.286 636.444 500.982 623.587C590.52 716.076 592.115 810.459 549.92 872.98C545.537 879.474 547.915 887.086 559.794 885.89C597.719 882.074 613.041 872.635 615.158 866.501C619.915 852.747 621.657 838.089 622.658 823.563C627.44 754.245 598.156 678.437 514.567 612.103Z" fill="#B1B1B1"/>
<path d="M515.34 612.27C530.78 595.692 539.493 573.881 544.396 552.015C544.569 551.247 542.679 551.649 542.474 552.251C540.071 559.284 534.265 564.367 527.92 567.849C519.762 572.326 510.426 574.546 501.25 575.623C479.74 578.144 456.786 574.579 437.41 564.748C426.555 559.239 416.809 551.502 409.842 541.426C409.52 540.959 408.485 541.367 408.179 541.639C399.967 548.962 393.177 557.901 390.232 568.656C387.277 580.044 388.09 592.086 392.549 602.97C394.747 608.392 397.886 613.38 401.82 617.703C402.862 618.84 404.405 619.922 405.067 621.329C405.725 623.023 406.269 624.76 406.696 626.528C407.747 629.931 408.763 633.344 409.746 636.767C413.61 650.032 416.645 663.525 418.833 677.169C422.851 702.977 422.908 729.071 417.707 754.719C412.548 779.487 403.242 803.2 390.184 824.851C383.421 836.165 375.812 846.949 367.422 857.109C359.746 866.224 351.543 874.882 342.857 883.036C340.835 884.795 338.912 886.667 337.098 888.642C336.109 889.738 335.462 891.1 335.237 892.561C334.938 895.401 336.978 897.572 339.262 898.909C342.987 901.09 347.611 901.689 351.845 901.77C358.126 901.752 364.372 900.821 370.387 899.005C379.584 896.438 387.669 891.996 396.105 887.679C399.385 885.89 402.901 884.578 406.55 883.781C407.481 883.603 408.422 883.474 409.367 883.383C409.854 883.395 410.336 883.275 410.762 883.036C411.188 882.797 411.543 882.448 411.788 882.025C413.391 880.092 414.891 878.075 416.28 875.981C430.689 853.762 441.48 829.385 448.247 803.765C454.427 779.468 456.654 754.331 454.844 729.323C453.014 703.111 447.044 677.312 438.321 652.573C436.057 646.156 433.617 639.807 431.001 633.525L429.456 634.315C448.203 639.859 468.967 638.408 487.105 631.295C492.168 629.316 497.021 626.834 501.59 623.884L500.099 623.968C519.209 643.741 536.372 665.601 549.625 689.774C560.473 709.56 568.683 730.9 572.796 753.139C576.478 772.588 576.701 792.538 573.454 812.065C570.362 830.152 564.103 847.548 554.966 863.449C553.827 865.429 552.644 867.383 551.419 869.312C550.172 871.057 549.031 872.876 548.002 874.76C546.598 877.705 546.34 881.429 548.814 883.896C552.132 887.203 557.501 886.679 561.721 886.222C568.133 885.524 574.521 884.599 580.845 883.332C589.366 881.626 598.024 879.375 605.811 875.414C609.466 873.555 613.942 871.029 615.81 867.149C616.746 864.933 617.489 862.64 618.032 860.295C618.999 856.848 619.802 853.355 620.476 849.838C621.8 842.661 622.736 835.417 623.281 828.139C624.134 818.205 624.325 808.225 623.853 798.265C622.799 778.362 618.935 758.709 612.376 739.894C605.089 719.241 595.033 699.677 582.484 681.743C567.954 660.77 550.508 641.925 531.416 625.065C526.218 620.475 520.901 616.027 515.465 611.72C514.926 611.291 513.144 612.052 513.683 612.479C534.185 628.777 553.226 647.011 569.567 667.532C583.659 685.04 595.38 704.339 604.424 724.929C612.394 743.244 617.783 762.583 620.437 782.389C623.216 803.904 622.764 825.715 619.094 847.095C617.975 853.643 616.682 860.614 614.149 866.783C613.465 868.266 612.447 869.571 611.177 870.594C606.395 874.791 599.92 877.138 593.95 878.997C582.691 882.425 571.083 884.571 559.346 885.395C555.271 885.694 549.832 884.776 548.957 879.972C548.207 875.854 551.28 872.408 553.321 869.186C562.83 854.174 569.716 837.646 573.684 820.313C577.828 801.83 578.763 782.769 576.448 763.968C573.724 742.645 567.599 721.9 558.308 702.527C547.446 679.457 532.888 658.252 516.29 638.969C511.644 633.571 506.84 628.316 501.878 623.204C501.53 622.844 500.736 623.063 500.387 623.288C480.194 636.36 453.652 640.059 430.624 633.248C430.284 633.148 428.835 633.447 429.079 634.038C442.373 666.109 451.513 700.133 453.225 734.93C454.882 768.22 449.351 801.475 437.011 832.425C433.334 841.595 429.119 850.539 424.387 859.209C419.928 867.399 415.233 875.489 409.368 882.752L410.392 882.233C399.757 883.016 391.15 889.63 381.692 893.846C374.279 897.236 366.385 899.447 358.294 900.398C352.355 901.021 344.441 901.104 339.5 897.091C338.76 896.568 338.16 895.871 337.749 895.062C337.338 894.254 337.13 893.357 337.143 892.449C337.324 889.933 339.33 888.195 341.028 886.582C346.646 881.245 352.232 875.87 357.578 870.257C368.939 858.297 379.124 845.268 387.993 831.35C405.656 803.697 417.821 772.502 422.059 739.867C426.532 705.397 421.43 670.753 412.027 637.521C410.753 633.018 409.415 628.533 408.013 624.066C407.673 622.98 407.343 621.89 406.986 620.809C406.66 620.015 406.119 619.327 405.424 618.824C403.974 617.405 402.616 615.896 401.357 614.304C394.254 605.075 390.445 593.722 390.542 582.064C390.638 570.406 394.633 559.118 401.888 550.008C404.287 547.128 406.906 544.441 409.722 541.97L408.059 542.183C421.098 561.034 443.304 571.353 465.265 575.408C476.248 577.458 487.461 577.98 498.587 576.962C508.228 576.054 518.015 573.94 526.763 569.657C534.355 565.941 541.568 560.289 544.395 552.016L542.473 552.252C537.631 573.865 529.066 595.54 513.794 611.937C513.024 612.762 514.89 612.751 515.34 612.27Z" fill="black"/>
<path d="M498.443 625.663C518.38 614.009 531.06 593.422 538.638 572.088C540.958 565.5 542.877 558.777 544.383 551.956C544.469 551.57 542.594 551.838 542.494 552.304C537.468 574.798 528.335 597.652 511.781 614.165C507.354 618.601 502.38 622.453 496.98 625.626C496.598 625.849 496.815 625.937 497.086 626.025C497.566 626.051 498.041 625.923 498.444 625.66L498.443 625.663Z" fill="black"/>
<path d="M496.611 431.015C496.61 431.023 496.607 431.03 496.601 431.035C496.591 431.045 496.581 431.065 496.561 431.085C496.561 431.095 496.551 431.105 496.541 431.115C495.855 432.071 489.673 439.875 468.303 444.131C447.534 452.647 422.642 469.417 404.749 488.92C401.866 482.891 400.196 472.894 400.296 463.366C400.259 458.423 400.877 453.496 402.135 448.715C435.624 439.596 469.356 434.922 496.611 431.015Z" fill="black"/>
<path d="M404.749 489.917C404.699 489.917 404.65 489.913 404.602 489.906C404.441 489.882 404.289 489.819 404.158 489.723C404.028 489.626 403.922 489.499 403.852 489.352C400.941 483.262 399.197 473.306 399.302 463.355C399.265 458.322 399.896 453.306 401.179 448.439C401.227 448.275 401.316 448.125 401.438 448.005C401.559 447.885 401.71 447.798 401.875 447.754C434.268 438.932 467.186 434.22 493.634 430.434L496.472 430.027C496.613 430.006 496.758 430.016 496.895 430.056C497.032 430.097 497.159 430.167 497.267 430.261C497.374 430.355 497.46 430.471 497.519 430.6C497.578 430.73 497.609 430.871 497.609 431.014C497.606 431.248 497.526 431.474 497.381 431.657L497.368 431.675L497.353 431.697C496.697 432.611 490.33 440.741 468.595 445.089C446.529 454.158 422.36 471.201 405.484 489.595C405.391 489.697 405.277 489.778 405.15 489.834C405.024 489.889 404.887 489.918 404.749 489.917ZM402.94 449.53C401.815 454.057 401.261 458.708 401.29 463.373C401.197 472.178 402.654 481.275 405.047 487.134C422.075 468.941 446.033 452.186 467.926 443.208C467.985 443.183 468.046 443.165 468.109 443.153C483.67 440.055 490.982 435.111 493.988 432.396L493.913 432.407C467.667 436.164 435.039 440.835 402.94 449.53Z" fill="black"/>
<path d="M490.11 387.458C500.729 399.803 503.628 415.624 503.755 426.414C512.118 435.936 515.77 451.448 507.255 454.559C494.615 459.176 482.947 445.389 478.952 433.687C479.057 421.799 474.542 409.675 467.713 400.414C459.141 388.791 479.238 374.818 490.11 387.458Z" fill="white"/>
<path d="M489.213 387.813C497.835 397.926 502.106 411.177 502.731 424.35C502.76 424.979 502.739 425.621 502.793 426.244C502.854 426.941 503.338 427.308 503.78 427.858C504.845 429.183 505.813 430.585 506.676 432.05C508.252 434.691 509.469 437.53 510.297 440.493C511.416 444.602 512.215 451.264 507.799 453.826C505.272 455.291 501.818 455.25 499.077 454.524C496.158 453.687 493.457 452.219 491.164 450.223C486.318 446.034 482.605 440.687 480.369 434.676C479.743 433.038 479.92 431.338 479.795 429.6C479.655 427.681 479.406 425.771 479.051 423.881C478.347 420.154 477.272 416.507 475.843 412.995C474.435 409.524 472.705 406.194 470.674 403.049C469.183 400.733 467.264 398.653 466.751 395.859C465.934 391.397 468.739 387.177 472.417 384.913C474.483 383.617 476.877 382.943 479.314 382.971C481.751 383 484.128 383.73 486.163 385.074C487.295 385.849 488.321 386.768 489.216 387.809C489.594 388.24 491.421 387.567 491.011 387.099C489.254 385.063 486.974 383.547 484.42 382.716C481.865 381.885 479.133 381.77 476.518 382.384C471.976 383.381 467.528 386.299 465.573 390.644C464.647 392.663 464.442 394.94 464.994 397.092C465.829 400.233 468.343 402.781 469.964 405.523C474.186 412.573 476.839 420.455 477.739 428.629C477.841 429.617 477.912 430.609 477.953 431.604C477.888 432.598 477.976 433.597 478.212 434.565C478.781 436.13 479.449 437.658 480.212 439.139C481.761 442.182 483.683 445.019 485.935 447.583C490.069 452.251 495.761 456.133 502.223 455.937C504.893 455.856 507.975 455.221 510.084 453.472C511.764 451.973 512.799 449.879 512.971 447.63C513.674 441.524 510.961 435.116 507.703 430.108C507.301 429.488 506.88 428.88 506.442 428.284C505.923 427.586 504.903 426.73 504.708 425.869C504.635 425.241 504.615 424.607 504.649 423.975C504.615 423.212 504.568 422.448 504.508 421.683C504.255 418.434 503.775 415.207 503.07 412.026C501.536 404.855 498.685 398.034 494.662 391.909C493.537 390.233 492.316 388.624 491.004 387.09C490.637 386.668 488.806 387.335 489.213 387.813Z" fill="black"/>
<path d="M489.779 583.281C488.751 592.244 487.56 607.66 479.342 620.265L489.779 583.281Z" fill="#B1B1B1"/>
<path d="M479.34 620.265C479.207 620.178 479.717 619.088 480.509 617.494C481.246 615.866 482.235 613.712 483.017 611.465C483.853 609.24 484.486 606.938 484.965 605.196C485.396 603.438 485.684 602.239 485.69 602.162C485.696 602.085 486.054 600.903 486.468 599.137C486.914 597.38 487.393 595.033 487.846 592.682C488.721 587.978 489.452 583.24 489.779 583.28C490.064 583.315 489.893 588.085 489.41 592.91C489.154 595.319 488.829 597.739 488.485 599.563C488.173 601.392 487.865 602.626 487.86 602.704C487.855 602.783 487.495 604 486.941 605.779C486.24 607.921 485.418 610.021 484.478 612.069C483.556 614.099 482.482 616.056 481.266 617.924C480.225 619.416 479.465 620.348 479.34 620.265Z" fill="black"/>
<path d="M408.016 600.61C407.917 600.472 408.86 599.635 410.216 598.351C411.864 596.776 413.415 595.103 414.86 593.34C416.286 591.554 417.588 589.672 418.757 587.707C419.716 586.085 420.275 584.928 420.33 584.868C420.348 584.789 421.005 583.686 421.821 581.991C422.814 579.933 423.664 577.808 424.365 575.633C425.036 573.454 425.576 571.235 425.98 568.99C426.302 567.15 426.477 565.901 426.65 565.908C426.911 566.945 426.979 568.023 426.849 569.085C426.738 571.431 426.418 573.763 425.893 576.052C425.345 578.368 424.614 580.636 423.707 582.836C422.955 584.657 422.32 585.849 422.301 585.932C422.245 585.993 421.599 587.181 420.497 588.815C419.164 590.786 417.678 592.649 416.051 594.385C414.433 596.085 412.667 597.637 410.773 599.023C409.214 600.126 408.092 600.725 408.016 600.61Z" fill="black"/>
<path d="M499.808 583.28C500.289 597.604 495.508 607.997 486.255 615.359L499.808 583.28Z" fill="#B1B1B1"/>
<path d="M486.255 615.358C486.149 615.225 486.94 614.43 488.072 613.216C489.455 611.743 490.733 610.175 491.899 608.525C493.045 606.864 494.051 605.112 494.908 603.285C495.234 602.522 495.509 601.88 495.703 601.421C495.874 600.952 495.976 600.669 495.988 600.636C496.012 600.57 496.485 599.54 497.026 597.968C497.317 597.188 497.56 596.251 497.859 595.26C498.092 594.252 498.388 593.187 498.564 592.097C499.006 589.93 499.21 587.722 499.395 586.064C499.524 584.404 499.649 583.285 499.806 583.28C499.963 583.275 500.127 584.386 500.264 586.078C500.382 588.16 500.337 590.247 500.129 592.322C500.047 593.466 499.831 594.597 499.668 595.67C499.436 596.728 499.247 597.732 498.995 598.576C498.735 599.557 498.424 600.523 498.064 601.471C498.05 601.505 497.925 601.8 497.717 602.289L496.745 604.217C495.716 606.084 494.513 607.85 493.152 609.489C491.805 611.094 490.3 612.558 488.659 613.859C487.319 614.902 486.34 615.468 486.255 615.358Z" fill="black"/>
<path d="M688.148 224.642C722.625 299.49 680.944 428.349 565.277 441.924C554.727 443.079 544.115 443.555 533.505 443.349C527.816 443.25 524.682 429.643 525.692 428.117C531.073 427.802 554.885 426.198 570.463 420.065C607.393 405.524 648.698 386.45 659.564 347.01C668.973 312.859 660.401 272.759 639.475 254.819C609.926 240.833 623.352 234.886 598.806 220.278C581.245 209.825 569.433 187.887 572.278 180.612C574.255 175.556 580.579 174.432 583.922 176.604C591.51 181.534 603.583 197.865 609.593 198.116C615.602 198.367 614.884 196.415 613.881 195.702C603.538 188.353 590.16 168.407 590.16 168.407C576.331 150.835 585 121.605 598.052 138.079C604.91 146.735 620.34 180.618 628.402 179.273C637.706 177.721 624.987 161.143 619.663 149.22C608.11 123.343 630.395 110.287 635.023 123.833C640.062 138.584 650.053 168.772 663.407 177.598C659.192 168.088 657.11 162.389 655.372 157.418C666.908 154.712 672.567 166.364 680.284 175.323C688.978 185.414 699.849 208.396 683.853 232.531" fill="white"/>
<path d="M687.188 224.896C695.269 242.505 698.803 261.993 698.916 281.307C698.979 302.309 695.224 323.147 687.836 342.8C680.33 363.163 668.832 381.811 654.02 397.644C638.313 414.271 618.846 426.864 597.265 434.362C584.513 438.653 571.268 441.297 557.849 442.229C550.247 442.821 542.631 443.06 535 442.945C529.951 442.867 527.889 436.498 526.94 432.361C526.677 431.218 526.005 429.078 526.641 427.949L525.283 428.523C536.84 427.956 548.323 426.36 559.598 423.752C566.403 421.948 573.062 419.627 579.515 416.809C585.906 414.187 592.25 411.441 598.482 408.456C622.518 396.941 646.942 380.899 657.599 355.304C663.317 341.572 665.008 325.921 664.12 311.152C663.256 296.816 659.77 282.273 652.636 269.73C649.576 264.207 645.633 259.224 640.964 254.98C639.521 253.699 637.386 253.025 635.677 252.126C633.948 251.213 632.243 250.252 630.583 249.217C628.178 247.75 625.912 246.064 623.815 244.179C620.816 241.425 618.667 238.106 616.393 234.767C613.848 231.01 610.722 227.683 607.134 224.911C604.272 222.699 601.17 220.912 598.139 218.954C595.036 216.931 592.131 214.617 589.465 212.042C584.566 207.375 580.41 201.982 577.14 196.053C574.953 192.049 572.567 187.133 572.828 182.431C572.907 181.132 573.347 179.881 574.097 178.819C574.847 177.758 575.878 176.927 577.074 176.422C579.914 175.261 582.506 176.414 584.748 178.176C589.644 182.027 593.753 186.84 598.204 191.176C601.429 194.319 605.254 198.545 610.09 198.537C611.387 198.537 614.851 198.53 615.449 196.872C615.512 196.657 615.514 196.429 615.454 196.212C615.395 195.996 615.276 195.801 615.112 195.649C614.219 194.823 613.267 194.062 612.263 193.374C607.539 189.153 603.236 184.48 599.416 179.421C596.633 175.897 593.987 172.269 591.422 168.581C588.359 164.177 585.955 159.761 584.84 154.45C583.727 149.167 583.582 143.149 585.735 138.098C586.406 136.525 587.499 134.521 589.176 133.82C590.852 133.118 592.853 134.312 594.145 135.326C597.673 138.083 599.948 142.409 602.187 146.201C605.069 151.085 607.824 156.028 610.735 160.888C613.373 165.506 616.344 169.926 619.622 174.112C621.475 176.378 624.127 179.676 627.361 179.711C628.199 179.735 629.033 179.583 629.809 179.263C630.585 178.944 631.285 178.465 631.864 177.857C633.016 176.435 632.724 174.375 632.307 172.736C630.772 166.714 627.014 161.197 624.081 155.793C618.828 146.116 613.127 132.064 621.543 122.327C623.673 119.865 626.935 117.842 630.199 119.346C634.082 121.14 634.865 126.472 636.119 130.09C640.393 142.433 644.98 155.014 651.982 166.104C654.789 170.549 658.094 174.96 662.501 177.923C662.789 178.115 664.568 177.791 664.364 177.325C661.433 170.696 658.724 163.987 656.329 157.144L655.198 157.786C661.299 156.444 666.151 159.766 670.087 164.118C672.075 166.311 673.847 168.682 675.654 171.019C677.364 173.229 679.22 175.323 680.922 177.541C687.816 186.471 691.395 197.529 691.043 208.817C690.522 217.362 687.71 225.607 682.905 232.683C682.743 232.93 684.484 232.846 684.803 232.359C692.822 220.111 695.228 205.433 690.497 191.47C688.785 186.422 686.293 181.675 683.114 177.4C681.408 175.108 679.491 172.983 677.742 170.723C675.838 168.267 673.981 165.767 671.895 163.46C669.91 161.09 667.458 159.155 664.693 157.779C661.805 156.541 658.593 156.278 655.543 157.029C655.395 157.062 654.284 157.306 654.412 157.671C656.807 164.513 659.516 171.225 662.447 177.851L664.309 177.253C656.781 172.204 652.11 163.248 648.278 155.285C644.163 146.428 640.569 137.337 637.515 128.059C636.531 125.196 635.874 121.729 633.483 119.654C632.602 118.943 631.573 118.438 630.472 118.177C629.372 117.916 628.227 117.906 627.121 118.146C621.023 119.219 617.082 124.908 615.901 130.66C613.861 140.588 618.607 149.864 623.247 158.29C624.347 160.289 635.44 178.545 628.498 178.89C626.291 179 624.04 176.405 622.725 174.955C620.196 172.041 617.913 168.922 615.9 165.628C611.31 158.459 607.31 150.939 602.9 143.662C600.181 139.177 596.037 131.602 589.735 132.958C583.125 134.376 582.022 143.307 582.181 148.829C582.322 153.525 583.409 158.144 585.379 162.407C586.759 165.115 588.373 167.697 590.203 170.122C594.864 176.974 600.045 183.455 605.701 189.507C607.293 191.193 608.976 192.79 610.742 194.291C611.316 194.772 613.851 196.057 613.586 197.081C613.26 198.355 609.751 197.725 608.755 197.335C607.098 196.583 605.568 195.576 604.22 194.352C600.61 191.362 597.398 187.895 594.107 184.563C591.214 181.636 588.186 178.14 584.565 176.092C581.384 174.298 576.928 175.08 574.085 177.188C571.402 179.181 570.596 182.107 571.034 185.288C571.688 189.015 572.981 192.6 574.857 195.883C577.158 200.186 579.93 204.218 583.122 207.905C586.601 212.004 590.59 215.638 594.991 218.718C599.287 221.687 603.849 224.124 607.79 227.603C610.33 229.87 612.576 232.448 614.475 235.277C615.954 237.607 617.557 239.855 619.278 242.011C621.823 244.899 624.778 247.395 628.049 249.42C630.491 250.971 633.013 252.395 635.603 253.685C636.978 254.249 638.271 254.996 639.446 255.906C640.323 256.697 641.17 257.519 641.988 258.373C648.992 265.675 653.797 274.917 657.014 284.46C660.575 295.23 662.393 306.502 662.399 317.848C662.599 329.488 660.791 341.076 657.055 352.099C649.991 371.978 634.287 386.738 616.762 397.628C607.607 403.197 598.069 408.11 588.221 412.328C578.421 416.633 568.488 421.013 558.028 423.416C548.529 425.504 538.885 426.864 529.18 427.485C527.981 427.47 526.783 427.566 525.602 427.774C524.474 428.084 524.5 428.962 524.56 429.976C524.831 433.538 525.949 436.982 527.818 440.023C528.554 441.37 529.645 442.488 530.971 443.257C532.723 444.132 535.022 443.783 536.91 443.79C542.675 443.81 548.438 443.63 554.199 443.248C564.868 442.621 575.459 441.02 585.838 438.464C603.157 434.098 619.53 426.582 634.145 416.291C647.814 406.541 659.752 394.555 669.458 380.835C678.996 367.356 686.5 352.54 691.727 336.865C696.872 321.573 699.877 305.638 700.656 289.518C701.464 274.262 699.946 258.972 696.155 244.175C694.38 237.387 692.022 230.765 689.108 224.385C688.879 223.886 687.021 224.528 687.188 224.901V224.896Z" fill="black"/>
<path d="M671.307 181.875C668.445 181.158 663.306 177.695 661.597 176.194L671.307 181.875Z" fill="white"/>
<path d="M671.877 181.287C670.063 180.719 668.342 179.887 666.77 178.818C665.263 177.926 663.829 176.917 662.482 175.799C662.297 175.662 662.077 175.582 661.848 175.566C661.619 175.55 661.391 175.601 661.189 175.711C660.954 175.82 660.351 176.293 660.709 176.608C662.137 177.812 663.661 178.897 665.266 179.852C666.95 180.99 668.792 181.874 670.733 182.475C670.971 182.534 671.221 182.532 671.458 182.468C671.696 182.404 671.913 182.281 672.09 182.111C672.16 182.054 672.212 181.979 672.24 181.893C672.268 181.808 672.27 181.716 672.247 181.629C672.224 181.542 672.176 181.464 672.109 181.404C672.043 181.344 671.96 181.304 671.872 181.29L671.877 181.287Z" fill="black"/>
<path d="M507.628 427.943C548.911 430.543 581.352 416.218 591.108 411.46C590.634 423.191 584.993 441.437 577.446 449.732C563.431 453.186 545.937 451.962 524.479 446.385C510.988 433.747 507.628 427.943 507.628 427.943Z" fill="black"/>
<path d="M560.222 452.168C549.835 452.168 537.957 450.408 524.355 446.873C524.274 446.851 524.201 446.81 524.14 446.753C510.748 434.206 507.337 428.432 507.199 428.192C507.154 428.114 507.131 428.026 507.132 427.936C507.133 427.846 507.159 427.758 507.206 427.681C507.252 427.603 507.319 427.54 507.399 427.498C507.48 427.457 507.57 427.438 507.66 427.445C547.258 429.936 579.057 416.781 590.891 411.013C590.968 410.975 591.054 410.958 591.14 410.963C591.226 410.969 591.309 410.996 591.381 411.044C591.453 411.091 591.511 411.156 591.551 411.233C591.59 411.309 591.609 411.395 591.605 411.481C591.126 423.32 585.47 441.651 577.813 450.072C577.747 450.145 577.66 450.197 577.565 450.22C571.883 451.567 566.06 452.221 560.222 452.168ZM524.726 445.939C546.302 451.534 563.462 452.629 577.18 449.288C584.463 441.175 589.881 423.894 590.571 412.275C578.217 418.2 547.153 430.686 508.591 428.499C509.973 430.487 514.318 436.175 524.726 445.939Z" fill="black"/>
<path d="M421.013 280.437C419.45 284.992 408.083 277.375 395.751 272.202C383.599 267.104 373.257 262.834 375.109 259.358C377.375 255.108 386.847 254.662 399.488 259.026C412.128 263.391 422.574 275.883 421.013 280.437Z" fill="black"/>
<path d="M420.063 280.607C419.665 281.655 419.244 281.517 418.183 281.312C416.67 280.975 415.195 280.481 413.784 279.837C409.791 278.151 405.946 276.123 402.025 274.279C397.489 272.146 392.824 270.315 388.239 268.293C384.789 266.771 381.14 265.247 378.1 262.971C376.421 261.713 374.96 260.024 376.785 258.204C378.807 256.189 382.287 256.251 384.917 256.391C393.713 256.882 402.176 259.934 409.269 265.173C412.494 267.536 415.327 270.395 417.663 273.644C418.916 275.445 420.792 278.279 420.06 280.612C419.943 280.983 421.798 280.765 421.953 280.273C422.681 277.956 421.046 275.299 419.814 273.467C417.59 270.268 414.884 267.435 411.791 265.071C408.195 262.215 404.141 259.993 399.803 258.499C395.095 256.784 390.154 255.797 385.15 255.573C382.089 255.512 378.616 255.838 375.997 257.586C374.109 258.846 373.26 260.63 374.932 262.446C376.084 263.578 377.401 264.528 378.839 265.263C380.849 266.408 382.948 267.391 385.053 268.342C390.214 270.67 395.497 272.71 400.616 275.13C405.277 277.334 409.874 279.966 414.789 281.575C416.876 282.258 420.914 283.012 421.953 280.273C422.083 279.932 420.251 280.111 420.063 280.607Z" fill="black"/>
<path d="M486.048 246.757C484.3 249.918 475.258 241.897 465.175 235.547C455.235 229.291 444.699 224.385 448.665 221.733C451.771 219.655 459.132 220.453 469.557 226.247C479.982 232.042 487.795 243.595 486.048 246.757Z" fill="black"/>
<path d="M485.161 246.767C485.122 246.831 484.949 247.076 485.001 247.025C485.084 246.946 485.263 246.981 485.036 246.973C484.55 246.92 484.076 246.785 483.634 246.574C482.337 246.01 481.093 245.33 479.917 244.542C476.688 242.491 473.601 240.216 470.439 238.064C466.836 235.612 463.117 233.361 459.371 231.139C456.232 229.468 453.25 227.516 450.463 225.305C449.194 224.193 447.804 222.404 450.051 221.553C452.139 220.764 454.73 221.261 456.82 221.746C464.326 223.589 471.223 227.362 476.83 232.694C479.49 235.142 481.779 237.967 483.626 241.079C484.468 242.56 485.979 245.141 485.092 246.894C484.853 247.365 486.714 247.193 487.003 246.623C487.904 244.846 486.52 242.317 485.677 240.797C483.941 237.777 481.786 235.02 479.277 232.607C476.25 229.619 472.8 227.094 469.039 225.113C465.348 223.055 461.381 221.54 457.26 220.614C454.671 219.964 451.954 220.042 449.407 220.841C447.687 221.491 446.084 222.787 447.377 224.648C448.261 225.761 449.33 226.714 450.536 227.464C452.226 228.66 454.001 229.726 455.774 230.789C460.175 233.429 464.593 236.02 468.836 238.914C472.643 241.51 476.335 244.395 480.38 246.612C482.118 247.567 485.516 249.081 486.94 246.751C487.362 246.046 485.46 246.274 485.161 246.767Z" fill="black"/>
<path d="M389.992 363.199C403.621 377.849 435.409 383.673 463.454 357.449C478.588 343.296 479.059 328.347 473.158 319.317V319.305C468.662 312.444 460.483 309.005 452.259 311.941C449.319 313.027 446.634 314.711 444.373 316.886C441.213 319.939 437.559 322.431 433.565 324.254C426.104 327.531 419.242 326.971 412.877 325.749C404.857 324.212 397.611 321.641 390.91 324.4C388.979 325.206 387.213 326.364 385.702 327.814C380.827 332.374 379.212 339.667 381.124 347.433C382.698 353.358 385.749 358.783 389.992 363.199Z" fill="black"/>
<path d="M389.107 363.599C398.477 373.598 413.061 377.347 426.364 376.018C434.898 375.086 443.135 372.342 450.529 367.968C459.154 362.962 467.491 356.017 472.745 347.436C476.684 341.001 478.795 333.184 476.976 325.709C475.237 318.564 469.875 312.363 462.443 310.705C458.121 309.793 453.618 310.386 449.677 312.385C444.923 314.736 441.518 318.957 437.033 321.736C432.501 324.574 427.267 326.081 421.924 326.086C416.745 326.076 411.724 324.79 406.69 323.733C401.988 322.736 397.025 321.913 392.309 323.289C387.963 324.572 384.257 327.447 381.927 331.343C377.183 339.447 379.607 349.727 384.26 357.274C385.668 359.535 387.29 361.654 389.103 363.603C389.623 364.17 391.454 363.435 390.872 362.801C384.664 356.055 379.938 346.655 381.645 337.243C382.006 335.097 382.786 333.044 383.941 331.202C385.095 329.36 386.6 327.764 388.371 326.506C392.546 323.575 397.457 323.49 402.312 324.285C407.168 325.081 411.901 326.478 416.794 327.057C421.348 327.661 425.978 327.322 430.396 326.06C434.811 324.667 438.914 322.424 442.472 319.455C444.399 317.686 446.42 316.022 448.526 314.472C450.542 313.139 452.802 312.22 455.174 311.767C463.144 310.331 470.619 315.414 473.775 322.482C476.559 328.706 476.117 335.858 473.582 342.086C469.951 351.005 462.667 358.039 454.983 363.554C448.018 368.66 440.054 372.23 431.614 374.029C418.734 376.632 404.292 374.228 393.971 365.722C392.877 364.816 391.842 363.841 390.872 362.802C390.35 362.235 388.521 362.977 389.107 363.599Z" fill="black"/>
<path d="M452.259 311.94C464.213 351.448 474.598 335.69 473.158 319.316V319.304C468.663 312.447 460.483 309.004 452.259 311.94Z" fill="white"/>
<path d="M451.299 312.199C453.429 319.207 455.796 326.69 460.087 332.724C461.858 335.215 464.46 337.873 467.801 337.001C470.652 336.257 472.165 333.481 473.016 330.867C473.575 329.094 473.938 327.265 474.098 325.413C474.192 324.424 474.242 323.428 474.251 322.433C474.335 321.363 474.295 320.286 474.132 319.224C473.791 318.402 473.283 317.66 472.642 317.043C471.943 316.21 471.176 315.438 470.347 314.734C468.724 313.355 466.874 312.268 464.881 311.521C460.674 310.037 456.084 310.07 451.899 311.616C451.645 311.704 451.145 311.977 451.363 312.297C451.58 312.617 452.38 312.348 452.62 312.265C456.167 311.126 459.991 311.194 463.495 312.46C466.999 313.726 469.988 316.118 471.994 319.265C472.34 320.207 472.455 321.219 472.329 322.215C472.34 323.142 472.316 324.068 472.247 324.992C472.132 326.699 471.858 328.391 471.43 330.048C471.095 331.431 470.566 332.76 469.857 333.993C469.557 334.506 469.195 334.98 468.78 335.405C468.5 335.68 468.183 335.915 467.839 336.102C467.614 336.235 467.347 336.275 467.094 336.214C466.569 336.151 466.062 335.981 465.603 335.716C464.249 334.88 463.086 333.766 462.193 332.447C460.446 329.988 458.984 327.338 457.835 324.547C456.043 320.355 454.5 316.06 453.215 311.684C453.044 311.103 451.13 311.637 451.299 312.199Z" fill="black"/>
<path d="M444.371 316.886C441.212 319.939 437.557 322.431 433.564 324.254C441.394 357.72 458.886 345.477 452.257 311.941C449.317 313.027 446.633 314.711 444.371 316.886Z" fill="white"/>
<path d="M443.576 316.626C440.515 319.551 436.991 321.948 433.149 323.72C432.86 323.848 432.522 324.159 432.606 324.512C433.819 329.656 435.389 334.953 438.261 339.442C439.763 341.791 441.939 344.312 444.876 344.683C447.479 345.012 449.725 343.436 451.149 341.378C453.236 338.369 454.038 334.524 454.429 330.944C454.996 324.499 454.588 318.005 453.219 311.682C453.133 311.243 452.406 311.201 452.091 311.315C448.927 312.495 446.031 314.302 443.575 316.626C443.507 316.69 443.457 316.772 443.432 316.862C443.406 316.953 443.405 317.049 443.43 317.139C443.454 317.23 443.502 317.313 443.57 317.378C443.637 317.443 443.72 317.489 443.812 317.511C444.05 317.576 444.301 317.577 444.54 317.513C444.778 317.449 444.996 317.322 445.169 317.146C447.262 315.152 449.728 313.593 452.425 312.562L451.297 312.195C452.444 317.639 452.908 323.206 452.68 328.765C452.613 332.489 451.797 336.16 450.281 339.56C449.783 340.65 449.073 341.63 448.194 342.442C447.61 343.016 446.832 343.348 446.014 343.371C443.822 343.42 441.74 341.099 440.49 339.303C437.362 334.812 435.771 329.258 434.526 323.992L433.982 324.789C438.107 322.879 441.887 320.296 445.17 317.147C445.239 317.083 445.289 317.001 445.315 316.911C445.34 316.82 445.341 316.724 445.317 316.633C445.293 316.543 445.244 316.46 445.177 316.395C445.109 316.329 445.025 316.283 444.934 316.262C444.696 316.196 444.444 316.196 444.206 316.26C443.967 316.323 443.75 316.45 443.576 316.626Z" fill="black"/>
<path d="M412.877 325.752C418.594 363.909 434.797 356.09 433.565 324.257C426.104 327.531 419.242 326.971 412.877 325.752Z" fill="white"/>
<path d="M411.917 326.01C412.828 332.027 414.039 338.16 416.47 343.769C417.672 346.54 419.359 349.881 422.204 351.284C423.279 351.748 424.467 351.885 425.619 351.68C426.771 351.474 427.838 350.933 428.687 350.125C431.073 348.022 432.237 344.682 433.019 341.694C434.377 335.899 434.884 329.937 434.526 323.996C434.511 323.598 433.333 323.922 433.217 323.972C426.833 326.725 420.196 326.585 413.487 325.313C413.004 325.222 411.264 326.002 412.267 326.192C419.613 327.587 426.948 327.54 433.914 324.536L432.605 324.512C432.875 329.63 432.544 334.761 431.619 339.801C430.984 342.972 430.052 346.433 428.031 349.029C427.47 349.794 426.737 350.414 425.891 350.84C425.804 350.878 425.712 350.9 425.618 350.906C425.47 350.921 425.321 350.923 425.173 350.911C424.733 350.864 424.305 350.74 423.909 350.542C421.318 349.304 419.734 346.236 418.612 343.753C416.018 338.022 414.774 331.68 413.841 325.494C413.765 325.015 411.83 325.436 411.917 326.01Z" fill="black"/>
<path d="M390.912 324.407C403.022 362.793 413.65 355.71 412.878 325.756C404.857 324.216 397.611 321.644 390.912 324.407Z" fill="white"/>
<path d="M389.952 324.66C391.779 330.835 394.152 336.834 397.043 342.586C398.56 345.465 400.444 348.865 403.305 350.618C404.202 351.223 405.278 351.504 406.356 351.414C407.434 351.323 408.448 350.866 409.233 350.12C411.302 348.179 412.127 345.068 412.703 342.39C413.741 336.886 414.128 331.278 413.857 325.683C413.847 325.284 413.572 325.113 413.212 325.043C405.758 323.596 397.924 320.867 390.488 323.823C390.388 323.853 390.296 323.904 390.217 323.973C390.139 324.042 390.076 324.127 390.034 324.223C389.991 324.318 389.969 324.422 389.97 324.527C389.971 324.631 389.995 324.735 390.039 324.829C390.307 325.253 390.975 325.128 391.345 324.982C398.117 322.291 405.789 325.149 412.553 326.463L411.909 325.823C412.095 330.592 411.86 335.368 411.209 340.096C410.777 342.916 410.198 346.12 408.525 348.51C408.274 348.879 407.978 349.214 407.642 349.507C407.425 349.699 407.173 349.848 406.9 349.946C406.629 350.055 406.331 350.074 406.049 349.999C405.68 349.921 405.323 349.791 404.99 349.612C402.393 348.208 400.659 345.108 399.284 342.625C396.211 336.725 393.729 330.534 391.874 324.143C391.592 323.25 389.671 323.775 389.952 324.66Z" fill="black"/>
<path d="M390.911 324.407C388.98 325.213 387.214 326.371 385.703 327.822C380.828 332.381 379.213 339.674 381.125 347.441C392.015 361.811 396.369 353.709 390.911 324.407Z" fill="white"/>
<path d="M390.507 323.909C387.439 325.214 384.788 327.338 382.841 330.049C380.894 332.761 379.726 335.956 379.464 339.287C379.318 340.999 379.351 342.721 379.563 344.426C379.673 345.328 379.828 346.223 380.028 347.11C380.212 347.765 380.555 348.364 381.027 348.853C382.238 350.434 383.613 351.881 385.131 353.168C386.98 354.677 389.576 355.844 391.714 354.165C394.036 352.336 394.144 348.375 394.215 345.71C394.407 338.495 393.18 331.216 391.871 324.15C391.726 323.363 389.798 323.844 389.95 324.665C391.172 330.675 391.945 336.768 392.263 342.893C392.363 345.932 392.561 349.717 391.106 352.511C390.925 352.877 390.684 353.209 390.392 353.494C390.262 353.625 390.092 353.71 389.91 353.734C389.035 353.657 388.2 353.333 387.502 352.799C386.233 351.879 385.085 350.804 384.083 349.597C383.297 348.838 382.622 347.971 382.079 347.022C381.565 345.476 381.313 343.855 381.336 342.225C380.961 334.933 384.373 327.815 391.315 324.898C392.538 324.38 391.444 323.518 390.507 323.909Z" fill="black"/>
<path d="M393.128 278.657C397.388 278.657 400.841 275.194 400.841 270.923C400.841 266.651 397.388 263.188 393.128 263.188C388.868 263.188 385.415 266.651 385.415 270.923C385.415 275.194 388.868 278.657 393.128 278.657Z" fill="white"/>
<path d="M459.89 241.814C464.15 241.814 467.603 238.352 467.603 234.08C467.603 229.809 464.15 226.346 459.89 226.346C455.63 226.346 452.177 229.809 452.177 234.08C452.177 238.352 455.63 241.814 459.89 241.814Z" fill="white"/>
<defs>
<linearGradient id="paint0_linear" x1="529.04" y1="82.1104" x2="650.105" y2="82.1104" gradientUnits="userSpaceOnUse">
<stop offset="0.385417" stop-color="#6633FF"/>
<stop offset="0.75" stop-color="#3366FF"/>
<stop offset="1" stop-color="#0099FF"/>
</linearGradient>
<linearGradient id="paint1_linear" x1="261.169" y1="218.031" x2="455.637" y2="218.031" gradientUnits="userSpaceOnUse">
<stop offset="0.385417" stop-color="#6633FF"/>
<stop offset="0.75" stop-color="#3366FF"/>
<stop offset="1" stop-color="#0099FF"/>
</linearGradient>
</defs>
</svg>
