<svg width="975" height="629" viewBox="0 0 975 629" fill="none" xmlns="http://www.w3.org/2000/svg">
<path d="M612.173 425.764C633.875 431.252 642.017 449.196 628.923 467.045C591.316 518.293 670.201 522.037 677.661 562.17C693.799 532.23 654.98 517.744 664.302 503.361C687.166 468.061 729.614 629.178 973.527 554.839C925.448 274.084 742.666 354.366 757.345 310.714C765.412 286.721 792.334 316.665 814.37 290.006C781.517 293.153 758.691 250.878 736.419 287.636C725.632 305.44 701.495 293.911 701.495 293.911C666.566 287.06 612.173 425.764 612.173 425.764Z" fill="url(#paint0_linear)"/>
<path d="M611.315 426.669C619.115 428.692 626.83 432.717 631.021 439.89C634.795 446.358 634.355 454.153 631.244 460.786C629.461 464.585 626.791 467.791 624.55 471.315C622.749 474.091 621.203 477.025 619.932 480.08C617.953 484.618 617.114 489.571 617.486 494.507C618.399 503.69 624.823 510.863 631.57 516.577C639.516 523.309 648.451 528.746 656.621 535.19C665.592 542.259 674.001 550.951 676.223 562.564C676.45 563.752 678.685 562.977 679.051 562.288C683.35 554.194 684.424 545.273 680.88 536.701C677.987 529.704 672.984 524.023 668.676 517.9C665.621 513.558 662.508 508.252 665.869 503.203C666.415 502.382 667.046 501.622 667.752 500.934C668.007 500.645 668.306 500.398 668.638 500.203C668.81 500.086 668.983 499.973 669.159 499.863C669.282 499.787 669.035 499.909 669.46 499.706C669.968 499.422 670.534 499.259 671.114 499.229C671.414 499.158 671.726 499.152 672.029 499.211C672.23 499.229 672.432 499.247 672.631 499.269C672.733 499.281 672.835 499.298 672.931 499.314C673.286 499.369 672.71 499.263 673.065 499.34C674.995 499.778 676.83 500.561 678.481 501.652C683.612 504.986 688.454 508.746 692.955 512.893C699.601 518.58 706.242 524.273 713.181 529.608C721.868 536.329 731.024 542.422 740.578 547.84C752.157 554.355 764.333 559.744 776.941 563.934C792.074 568.903 807.684 572.275 823.519 573.998C842.943 576.066 862.525 576.198 881.976 574.393C906.263 572.122 930.312 567.777 953.857 561.404C960.531 559.639 967.169 557.749 973.771 555.732C974.325 555.564 975.105 555.149 974.985 554.451C970.545 527.365 963.808 500.706 954.847 474.762C947.906 454.665 938.822 435.373 927.754 417.219C918.911 402.782 908.293 389.51 896.148 377.713C886.072 368.012 874.836 359.592 862.696 352.645C852.267 346.746 841.271 341.913 829.873 338.219C820.206 335.122 810.356 332.626 800.38 330.746C792.505 329.211 784.528 328.004 776.763 326.445C771.649 325.42 766.057 324.359 761.871 321.632C760.375 320.736 759.21 319.378 758.553 317.762C757.897 316.146 757.783 314.36 758.231 312.674C758.735 310.032 759.847 307.543 761.477 305.403C764 302.245 767.726 301.493 771.59 301.574C776.253 301.681 780.853 302.535 785.5 302.81C790.678 303.248 795.891 302.645 800.832 301.037C806.613 298.867 811.702 295.178 815.563 290.358C816.267 289.517 815.355 288.965 814.522 289.041C800.872 290.262 788.834 283.325 777.027 277.532C767.292 272.75 756.189 268.507 746.17 275.024C743.556 276.788 741.234 278.948 739.285 281.426C736.771 284.527 735.04 288.271 732.264 291.14C727.751 295.803 721.325 297.068 715.066 296.445C710.962 296.018 706.945 294.977 703.151 293.356C700.782 292.598 698.252 292.494 695.829 293.055C688.759 294.464 682.75 299.485 677.792 304.438C670.914 311.593 664.786 319.432 659.503 327.834C647.017 346.842 636.709 367.286 627.143 387.885C621.454 400.136 615.936 412.517 611.013 425.101C610.941 425.286 610.862 425.469 610.793 425.654C610.217 427.124 613.122 426.958 613.545 425.883C617.58 415.593 622.014 405.447 626.565 395.377C635.528 375.042 645.731 355.277 657.116 336.192C662.433 327.192 668.465 318.635 675.155 310.603C680.036 304.909 685.706 298.918 692.743 295.932C695.145 294.829 697.812 294.43 700.432 294.782C700.98 294.866 700.094 294.631 700.479 294.752C700.599 294.791 700.72 294.86 700.837 294.911C701.439 295.17 702.04 295.421 702.642 295.654C704.456 296.345 706.312 296.919 708.199 297.375C713.666 298.863 719.422 298.932 724.923 297.576C727.919 296.753 730.703 295.296 733.087 293.305C736.053 290.797 737.768 287.513 739.971 284.389C743.43 279.475 748.148 274.669 754.345 273.693C759.533 272.875 764.789 274.65 769.501 276.661C781.093 281.608 791.729 288.827 804.442 290.701C807.674 291.173 810.951 291.262 814.204 290.966L813.164 289.648C809.128 294.823 803.503 298.529 797.155 300.195C792.129 301.14 786.979 301.235 781.921 300.476C773.989 299.632 764.141 297.846 758.655 305.249C755.61 309.356 753.22 316.379 756.919 320.88C759.867 324.469 765.051 325.89 769.355 326.987C776.402 328.783 783.645 329.831 790.791 331.104C800.203 332.776 809.577 334.68 818.797 337.222C829.811 340.209 840.527 344.203 850.809 349.154C862.901 355.041 874.238 362.367 884.573 370.974C896.829 381.304 907.713 393.162 916.958 406.256C928.579 422.811 938.251 440.651 945.784 459.422C955.381 483.335 962.782 508.071 967.897 533.325C969.428 540.597 970.819 547.898 972.068 555.227L973.282 553.945C948.4 561.693 922.914 567.349 897.091 570.856C876.605 573.625 855.896 574.355 835.266 573.035C818.622 571.934 802.144 569.055 786.114 564.447C772.909 560.607 760.123 555.45 747.949 549.054C737.903 543.732 728.279 537.648 719.164 530.855C711.817 525.407 704.802 519.544 697.86 513.594C692.998 509.172 687.878 505.041 682.529 501.223C679.069 498.91 674.914 496.637 670.609 497.43C665.153 498.435 660.64 504.513 661.496 509.971C662.472 516.198 667.827 521.552 671.393 526.44C676.056 532.846 680.283 540.058 680.164 548.249C679.989 553.1 678.657 557.839 676.281 562.072L679.109 561.797C675.033 540.482 652.531 529.76 637.01 517.61C629.896 512.045 622.52 505.174 620.696 495.923C619.859 491.011 620.401 485.964 622.26 481.342C623.418 478.334 624.858 475.442 626.561 472.704C628.691 469.213 631.355 466.062 633.268 462.441C637.064 455.26 638.023 446.765 634.097 439.428C629.864 431.524 621.41 427.045 613.02 424.869C611.908 424.573 609.597 426.227 611.315 426.669Z" fill="black"/>
<path d="M673.561 467.475C673.426 467.497 673.288 467.497 673.152 467.475C669.258 424.007 639.797 408.572 633.787 401.984C637.74 393.341 647.074 387.846 652.348 377.539C669.963 343.133 678.334 329.356 684.13 323.242C688.825 324.295 702.512 339.997 727.04 328.674C763.028 409.906 893.068 322.616 933.112 529.6C769.351 587.051 747.567 439.753 673.561 467.475Z" fill="white"/>
<path d="M701.91 280.379C699.948 290.285 697.425 300.073 694.354 309.694C691.278 319.43 687.601 329.335 683.401 339.204C682.46 341.46 681.478 343.71 680.456 345.953C678.691 349.873 676.847 353.78 674.925 357.674C658.378 391.065 636.199 422.297 611.239 442.504C577.405 447.768 542.545 447.081 510.754 445.401L658.9 188.996C658.9 188.996 686.813 240.396 701.91 280.379Z" fill="#B2B2B2"/>
<path d="M694.353 309.695C691.277 319.43 687.601 329.335 683.401 339.204C672.916 325.367 662.432 311.539 651.948 297.721C646.382 290.396 641.615 282.752 634.22 277.765C628.223 273.719 624.19 266.887 626.222 259.466C627.404 255.613 629.953 252.324 633.391 250.219C636.829 248.113 640.917 247.337 644.887 248.035C652.742 249.676 658.08 256.766 662.657 263.344C673.339 278.723 683.905 294.174 694.353 309.695Z" fill="white"/>
<path d="M680.456 345.953C678.691 349.873 676.847 353.78 674.925 357.675C667.604 347.257 660.283 336.84 652.963 326.423C651.267 324.016 649.491 321.327 650.059 319.991C650.867 318.095 655.912 320.389 659.796 323.275C667.646 329.081 673.485 336.634 678.705 343.601C679.28 344.386 679.874 345.17 680.456 345.953Z" fill="white"/>
<path d="M510.184 446.192C543.297 447.934 576.714 448.429 609.595 443.485C610.92 443.409 612.186 442.908 613.205 442.057C614.475 441.015 615.728 439.953 616.966 438.87C619.29 436.839 621.558 434.744 623.769 432.586C628.282 428.188 632.583 423.562 636.682 418.771C645.345 408.567 653.236 397.733 660.29 386.357C674.736 363.232 686.33 338.445 694.82 312.536C696.823 306.42 698.64 300.243 700.236 294.008C701.021 290.931 701.75 287.84 702.423 284.736C702.786 283.405 703.066 282.054 703.261 280.688C703.151 279.172 702.712 277.699 701.973 276.37C697.047 263.729 691.517 251.323 685.75 239.045C677.876 222.28 669.557 205.727 660.792 189.387C660.651 189.124 660.509 188.861 660.367 188.597C659.908 187.753 657.96 188.278 657.564 188.973L653.597 195.839L642.801 214.524L626.909 242.023L607.444 275.714L586.116 312.623L564.589 349.88L544.601 384.474L527.63 413.844L515.429 434.963C513.508 438.285 511.453 441.565 509.653 444.957C509.578 445.108 509.49 445.241 509.408 445.383C508.749 446.523 511.643 446.207 512.105 445.41L516.072 438.542L526.869 419.857L542.757 392.358L562.224 358.667L583.55 321.757L605.077 284.5L625.066 249.906L642.036 220.535L654.238 199.417C656.33 196.185 658.257 192.848 660.013 189.421C660.088 189.276 660.169 189.134 660.258 188.997L657.457 189.372C662.388 198.462 667.098 207.678 671.724 216.925C680.999 235.461 689.9 254.233 697.614 273.478C698.103 274.698 698.587 275.921 699.064 277.146C699.731 278.363 700.169 279.692 700.356 281.067C700.068 283.391 699.579 285.686 698.895 287.926C697.797 292.739 696.564 297.517 695.195 302.26C692.323 312.274 688.915 322.133 685.073 331.813C677.038 352.156 667.037 371.666 655.21 390.065C643.978 407.461 630.964 423.981 615.425 437.744C613.677 439.293 611.897 440.802 610.085 442.271L611.451 441.714C585.411 445.73 558.991 446.305 532.697 445.506C525.571 445.29 518.448 444.969 511.336 444.595C510.259 444.547 508.23 446.09 510.184 446.192Z" fill="black"/>
<path d="M845.216 158.71C845.216 158.71 812.805 136.929 776.622 134.114C731.24 131.999 684.127 150.809 645.982 173.713C645.982 173.713 575.131 141.174 519.925 76.067C547.552 57.6662 577.487 45.4998 622.191 39.3932C634.837 37.6741 648.657 36.4287 663.939 35.6661C668.842 35.4195 673.895 35.2244 679.1 35.0811C739.672 59.9464 812.763 111.264 845.216 158.71Z" fill="url(#paint1_linear)"/>
<path d="M629.986 165.853C653.379 152.099 677.208 138.67 703.093 130.164C731.896 120.702 762.889 118.008 792.021 127.703C811.577 134.21 828.99 145.659 844.09 159.543C845.016 160.396 847.56 159.012 846.334 157.889C832.688 145.012 816.749 134.809 799.342 127.807C784.534 122.123 768.79 119.27 752.928 119.396C723.217 119.547 694.477 129.517 668.079 142.478C654.617 149.088 641.626 156.582 628.704 164.179C627.009 165.176 628.554 166.692 629.982 165.854L629.986 165.853Z" fill="black"/>
<path d="M846.547 158.096C832.431 137.522 814.109 119.923 794.971 104.065C773.333 86.2235 750.156 70.3335 725.712 56.5818C714.167 50.0556 702.348 44.0032 690.244 38.578C687.336 37.2745 684.416 36.0111 681.485 34.7878C678.254 33.4416 674.265 34.2388 670.805 34.3756C663.322 34.6765 655.844 35.1071 648.373 35.6676C624.353 37.5237 600.276 40.956 577.166 47.9379C558.753 53.4981 541.161 61.482 524.854 71.6796C522.877 72.917 520.916 74.1829 518.972 75.4774C518.612 75.7166 518.233 76.2806 518.581 76.6897C538.164 99.4944 560.333 119.945 584.641 137.63C600.623 149.448 617.437 160.098 634.951 169.5C638.11 171.188 641.314 173.03 644.634 174.409C644.996 174.582 645.395 174.663 645.795 174.645C646.196 174.628 646.587 174.512 646.932 174.308C650.63 172.394 654.153 170.059 657.797 168.043C664.929 164.102 672.197 160.422 679.602 157.004C694.678 149.971 710.394 144.4 726.535 140.369C742.587 136.459 759.544 134.052 776.099 135.105C790.92 136.04 805.622 140.626 819.208 146.435C827.464 149.917 835.424 154.06 843.012 158.826C843.37 159.054 843.728 159.277 844.08 159.519C845.059 160.175 847.657 158.805 846.336 157.922C841.005 154.446 835.445 151.335 829.693 148.611C817.155 142.336 803.846 137.734 790.11 134.924C774.27 131.844 757.935 132.707 742.077 135.287C725.75 138.049 709.759 142.523 694.369 148.635C677.265 155.399 660.76 163.59 645.029 173.12L647.105 172.917C637.8 168.488 628.748 163.547 619.989 158.117C598.316 145.091 577.847 130.159 558.824 113.5C545.392 101.749 532.835 89.0337 521.254 75.4549L520.863 76.6671C536.404 66.2557 553.245 57.9307 570.955 51.9056C592.702 44.5943 615.448 40.7153 638.236 38.4968C645.264 37.8129 652.303 37.2755 659.354 36.8844C663.07 36.6719 666.787 36.4929 670.507 36.3475C672.372 36.2743 674.238 36.2076 676.103 36.1474C676.985 36.0368 677.878 36.0576 678.753 36.2091C679.627 36.5114 680.481 36.8675 681.311 37.2755C693.327 42.3487 705.051 48.1048 716.51 54.3332C740.717 67.4595 763.75 82.6413 785.356 99.711C805.062 115.307 823.918 132.625 839.117 152.733C840.754 154.895 842.339 157.095 843.872 159.332C844.56 160.33 847.353 159.265 846.547 158.096Z" fill="black"/>
<path d="M574.393 628.051C517.374 620.726 438.427 578.976 388.74 536.34C383.982 526.351 379.762 516.904 376.027 507.913C372.065 498.424 368.656 489.446 365.753 480.894C351.7 439.682 349.131 408.181 352.877 375.937C435.963 395.5 497.17 443.796 497.17 443.796C495.389 469.443 496.206 497.13 501.563 523.551V523.564C501.937 525.44 502.336 527.29 502.766 529.151C503.869 533.988 505.141 538.767 506.581 543.489C507.947 547.971 509.473 552.383 511.16 556.725C514.004 564.107 517.393 571.267 521.3 578.146C540.254 609.094 574.393 628.051 574.393 628.051Z" fill="url(#paint2_linear)"/>
<path d="M575.523 627.237C565.328 622.164 555.087 617.131 545.35 611.208C535.855 605.608 527.15 598.765 519.466 590.861C511.044 581.854 504.269 571.438 499.447 560.089C493.054 545.285 489.48 529.378 487.311 513.448C484.202 490.594 483.908 467.401 484.703 444.383C484.823 440.931 484.969 437.481 485.142 434.033C485.212 432.586 482.266 433.042 482.205 434.284C481.019 458.334 480.882 482.557 483.469 506.528C485.291 523.411 488.495 540.329 494.638 556.213C499.118 568.125 505.622 579.172 513.864 588.868C521.298 597.255 529.889 604.54 539.38 610.501C549.068 616.514 559.078 621.993 569.364 626.914C570.668 627.564 571.971 628.212 573.275 628.859C574.34 629.39 576.917 627.928 575.532 627.237H575.523Z" fill="black"/>
<path d="M575.318 627.382C551.426 624.277 528.217 616.363 506.122 606.974C481.331 596.36 457.497 583.637 434.883 568.947C423.924 561.866 413.24 554.348 402.952 546.321C400.485 544.398 398.043 542.443 395.626 540.455C394.549 539.571 393.477 538.679 392.41 537.781C391.853 537.312 391.246 536.86 390.725 536.352C389.939 535.434 389.324 534.382 388.911 533.246C385.59 526.192 382.392 519.082 379.318 511.915C369.625 489.204 361.284 465.719 356.648 441.411C352.934 422.041 351.912 402.251 353.612 382.601C353.813 380.302 354.047 378.005 354.314 375.71L351.694 376.553C381.946 383.876 411.207 394.814 438.844 409.132C456.302 417.986 473.097 428.093 489.097 439.373C490.791 440.576 492.472 441.802 494.139 443.05C494.604 443.33 495.038 443.66 495.431 444.034C495.986 444.718 495.678 444.75 495.597 446.005C494.535 461.879 494.631 477.809 495.884 493.669C497.112 509.892 499.977 525.948 504.436 541.594C508.754 556.4 514.612 571.388 523.487 584.091C531.582 595.39 541.234 605.488 552.157 614.086C558.422 619.193 565.052 623.835 571.995 627.974C572.34 628.177 572.684 628.379 573.033 628.576C573.815 629.012 576.284 627.824 575.756 627.532C570.789 624.685 566.006 621.53 561.434 618.085C550.845 610.423 541.212 601.52 532.741 591.567C527.732 585.656 523.391 579.21 519.797 572.346C516.146 565.254 513.004 557.913 510.392 550.376C505.152 535.017 501.599 519.134 499.796 503.007C497.941 486.87 497.351 470.612 498.03 454.383C498.101 452.546 498.185 450.711 498.285 448.877C498.335 447.965 498.387 447.054 498.443 446.144C498.483 445.481 498.855 443.888 498.528 443.286C498.452 443.146 498.194 443.053 498.077 442.942C496.945 441.951 495.738 441.05 494.467 440.246C480.031 429.835 464.898 420.427 449.173 412.089C422.866 397.805 395.038 386.517 366.213 378.438C362.178 377.329 358.122 376.294 354.047 375.332C353.504 375.204 351.518 375.368 351.426 376.176C349.139 395.457 349.448 414.958 352.345 434.156C356.046 458.149 363.627 481.396 372.719 503.845C375.527 510.774 378.478 517.643 381.573 524.45C383.228 528.108 384.915 531.751 386.634 535.379C387.896 538.046 390.846 539.829 393.112 541.686C403.104 549.883 413.53 557.547 424.242 564.775C446.716 579.968 470.435 593.234 495.145 604.432C517.596 614.574 541.12 623.19 565.449 627.49C568.113 627.96 570.786 628.37 573.468 628.719C574.206 628.809 576.836 627.579 575.318 627.382Z" fill="black"/>
<path d="M670 182.904C670.156 194.819 669.328 206.727 667.524 218.506C666.889 222.812 666.125 227.151 665.258 231.51C646.768 323.912 577.25 426.201 506.095 459.978C489.073 455.005 472.883 449.543 457.527 443.591C377.455 412.617 318.779 368.095 269.644 305.367C244.783 311.645 219.433 315.796 193.868 317.777C163.613 320.177 133.201 319.818 103.011 316.705C81.1725 314.512 59.4996 310.905 38.1287 305.906C35.6878 305.338 33.2493 304.75 30.8134 304.14C26.2398 303.073 21.7526 301.666 17.3894 299.929C0.768749 293.01 -1.88177 281.979 5.69823 253.495C13.2048 224.877 23.4615 197.053 36.3251 170.41C69.6475 101.734 134.072 17.6052 254.486 3.43228C414.425 -15.4153 549.263 70.3514 629.427 142.744C645.125 156.93 658.736 170.619 670 182.904Z" fill="#B2B2B2"/>
<path d="M435.041 319.301C486.992 319.301 529.107 277.191 529.107 225.247C529.107 173.302 486.992 131.193 435.041 131.193C383.089 131.193 340.975 173.302 340.975 225.247C340.975 277.191 383.089 319.301 435.041 319.301Z" fill="white"/>
<path d="M424.676 131.301C405.205 133.57 386.86 141.617 372.004 154.405C357.223 167.253 346.809 184.383 342.208 203.418C337.607 222.453 339.047 242.448 346.328 260.627C353.609 278.807 366.37 294.269 382.839 304.867C399.309 315.465 418.67 320.673 438.234 319.769C457.816 318.917 476.7 312.246 492.472 300.61C508.17 288.947 519.854 272.693 525.905 254.097C531.955 235.502 532.075 215.485 526.245 196.819C520.416 178.153 508.927 161.761 493.368 149.912C477.81 138.064 458.952 131.345 439.406 130.686C434.488 130.524 429.564 130.729 424.676 131.301C423.966 131.382 421.517 132.591 423.393 132.376C442.683 130.165 462.183 134.02 479.179 143.406C491.627 150.276 502.352 159.885 510.543 171.505C518.735 183.126 524.18 196.456 526.466 210.488C528.752 224.52 527.821 238.888 523.742 252.507C519.663 266.127 512.543 278.642 502.919 289.108C489.919 303.32 472.767 313.069 453.904 316.968C434.732 320.758 414.854 318.399 397.102 310.228C384.185 304.295 372.785 295.506 363.76 284.526C354.735 273.546 348.321 260.66 345.001 246.84C341.682 233.02 341.544 218.628 344.598 204.747C347.651 190.866 353.817 177.86 362.63 166.708C369.974 157.241 379.128 149.33 389.56 143.436C399.993 137.542 411.493 133.782 423.393 132.376C424.1 132.291 426.551 131.074 424.676 131.301Z" fill="black"/>
<path d="M503.433 203.345C498.883 189.545 490.229 177.462 478.628 168.711C467.027 159.96 453.031 154.957 438.51 154.372C434.812 154.248 431.111 154.398 427.436 154.823L427.096 154.865H427.076C397.743 158.431 372.522 179.683 365.355 208.573C361.88 222.968 362.983 238.089 368.511 251.827C374.039 265.566 383.715 277.238 396.192 285.217C421.205 301.01 454.61 299.325 478.239 281.644C490.092 272.859 498.896 260.584 503.415 246.541C507.934 232.499 507.942 217.393 503.437 203.346L503.433 203.345Z" fill="black"/>
<path d="M36.3134 170.401C92.8527 206.235 106.731 268.098 102.999 316.706C78.6641 314.255 54.5372 310.056 30.8048 304.143C2.47645 297.074 -3.60228 288.4 5.68354 253.486C13.1951 224.87 23.4527 197.046 36.3134 170.401V170.401Z" fill="url(#paint3_linear)"/>
<path d="M251.75 205.368C243.372 196.791 233.071 190.334 221.701 186.531C209.735 182.387 196.983 181.028 184.413 182.555C173.235 183.885 162.857 189.026 155.027 197.113L155.11 197.085C154.387 197.714 153.744 198.43 153.195 199.216C151.641 201.12 150.258 203.157 149.063 205.304C145.776 211.219 143.898 217.813 143.575 224.572C143.252 231.331 144.492 238.073 147.2 244.275C149.095 248.533 151.692 252.443 154.883 255.841C158.31 259.135 162.059 262.079 166.071 264.628C174.262 270.467 181.774 277.772 186.365 286.828C191.346 296.651 191.972 307.371 192.405 318.17C192.425 318.668 193.38 318.665 193.675 318.641C207.878 317.504 222.011 315.732 236.074 313.325C242.771 312.167 249.44 310.86 256.081 309.404C259.539 308.644 262.988 307.842 266.427 306.998C267.858 306.847 269.253 306.455 270.553 305.838C271.531 305.134 271.713 303.281 272.032 302.197C273.13 298.47 274.016 294.684 274.687 290.858C275.476 287.088 275.941 283.257 276.077 279.409C277.873 252.967 270.558 224.754 251.75 205.368Z" fill="black"/>
<path d="M206.986 148.906C207.552 149.145 208.148 149.357 208.745 149.573Z" fill="black"/>
<path d="M327.628 155.154C327.18 155.517 326.713 155.857 326.229 156.172Z" fill="black"/>
<path d="M331.896 149.879C332.118 149.445 332.318 148.995 332.498 148.538Z" fill="black"/>
<path d="M279.237 143.461C279.281 143.899 279.489 144.305 279.819 144.596C280.149 144.887 280.578 145.042 281.018 145.03C282.008 144.835 282.585 144.34 282.566 143.568C282.575 143.089 282.399 142.625 282.075 142.272C281.75 141.92 281.302 141.706 280.824 141.676C280.589 141.641 280.35 141.665 280.127 141.746C279.904 141.827 279.704 141.962 279.547 142.139C279.389 142.316 279.278 142.53 279.224 142.761C279.17 142.992 279.174 143.233 279.237 143.461V143.461Z" fill="black"/>
<path d="M299.472 149.132C299.535 148.065 298.74 147.506 297.711 147.327C296.713 147.486 295.841 147.916 295.865 149.031C295.858 149.268 295.899 149.504 295.984 149.725C296.068 149.947 296.196 150.149 296.359 150.322C296.522 150.494 296.718 150.632 296.934 150.729C297.151 150.825 297.384 150.878 297.621 150.885C297.858 150.891 298.094 150.851 298.316 150.766C298.537 150.681 298.74 150.554 298.912 150.391C299.084 150.228 299.222 150.032 299.319 149.816C299.416 149.599 299.469 149.366 299.475 149.129L299.472 149.132Z" fill="black"/>
<path d="M318.453 148.866C318.417 149.113 318.434 149.366 318.503 149.606C318.572 149.847 318.691 150.07 318.852 150.261C319.014 150.452 319.214 150.607 319.44 150.715C319.666 150.823 319.912 150.881 320.162 150.887C321.258 150.908 321.881 150.078 322.009 148.888C321.848 147.7 320.976 147.336 319.903 147.425C319.522 147.431 319.158 147.584 318.888 147.853C318.617 148.122 318.462 148.485 318.453 148.866V148.866Z" fill="black"/>
<path d="M262.959 149.177C263.097 149.679 263.99 149.971 264.359 150.23C265.502 150.091 265.991 149.573 265.972 148.754C265.977 148.572 265.945 148.391 265.878 148.222C265.81 148.053 265.709 147.9 265.579 147.772C265.45 147.644 265.295 147.544 265.125 147.479C264.956 147.413 264.774 147.384 264.592 147.392C263.514 147.41 262.632 147.995 262.959 149.177Z" fill="black"/>
<path d="M263.779 139.24C264.017 139.293 264.264 139.296 264.503 139.248C264.743 139.2 264.97 139.101 265.168 138.959C265.367 138.817 265.534 138.635 265.657 138.424C265.781 138.213 265.858 137.978 265.884 137.736C265.913 137.245 265.748 136.763 265.426 136.393C265.103 136.022 264.649 135.793 264.159 135.753C263.791 135.73 263.426 135.843 263.136 136.071C262.846 136.299 262.649 136.626 262.584 136.99C262.482 137.214 262.433 137.458 262.44 137.704C262.448 137.95 262.512 138.191 262.627 138.409C262.742 138.626 262.906 138.814 263.106 138.958C263.306 139.102 263.536 139.199 263.779 139.24V139.24Z" fill="black"/>
<path d="M198.275 137.728C198.285 137.235 198.107 136.756 197.778 136.388C197.449 136.02 196.993 135.79 196.502 135.744C196.13 135.723 195.764 135.84 195.473 136.073C195.183 136.306 194.989 136.639 194.93 137.006C194.83 137.234 194.783 137.481 194.793 137.729C194.804 137.977 194.872 138.22 194.991 138.438C195.11 138.656 195.278 138.844 195.481 138.987C195.684 139.13 195.918 139.224 196.163 139.262C196.404 139.316 196.654 139.317 196.895 139.267C197.137 139.217 197.365 139.116 197.565 138.971C197.764 138.825 197.931 138.64 198.053 138.426C198.176 138.211 198.252 137.974 198.275 137.728Z" fill="black"/>
<path d="M232.818 137.624C232.806 137.13 232.613 136.657 232.275 136.296C231.937 135.936 231.478 135.712 230.985 135.669C230.738 135.66 230.492 135.704 230.264 135.799C230.036 135.894 229.831 136.038 229.664 136.22C229.497 136.402 229.371 136.618 229.295 136.853C229.219 137.088 229.196 137.337 229.225 137.582C229.225 138.626 229.773 139.567 230.943 139.537C231.437 139.508 231.903 139.296 232.25 138.943C232.596 138.589 232.799 138.119 232.818 137.624V137.624Z" fill="black"/>
<path d="M256.595 143.857C256.557 144.038 256.561 144.224 256.607 144.403C256.653 144.581 256.74 144.747 256.86 144.886C256.981 145.026 257.132 145.135 257.303 145.206C257.473 145.278 257.657 145.309 257.841 145.297C259.28 145.334 259.936 144.314 260.291 143.062C260.334 142.885 260.334 142.7 260.291 142.524C260.249 142.347 260.165 142.183 260.046 142.045C259.927 141.907 259.778 141.799 259.609 141.73C259.441 141.661 259.259 141.634 259.077 141.649C258.464 141.645 257.87 141.868 257.412 142.276C256.953 142.684 256.662 143.247 256.595 143.857Z" fill="black"/>
<path d="M204.221 143.492C204.185 142.994 203.963 142.528 203.597 142.188C203.232 141.848 202.752 141.658 202.253 141.658C201.358 141.626 200.922 142.284 200.803 143.055C200.634 144.147 200.992 145.111 202.214 145.205C202.707 145.243 203.195 145.084 203.571 144.763C203.948 144.442 204.181 143.985 204.221 143.492V143.492Z" fill="black"/>
<path d="M206.986 148.906C206.985 148.701 207.029 148.498 207.115 148.311C207.202 148.125 207.328 147.96 207.486 147.828C208.196 147.416 208.805 147.777 209.192 148.485C209.084 148.864 208.933 149.229 208.74 149.573" fill="black"/>
<path d="M209.403 138.278C209.497 138.063 209.546 137.831 209.548 137.596C209.549 137.36 209.503 137.127 209.412 136.911C209.321 136.694 209.187 136.498 209.018 136.334C208.85 136.171 208.649 136.043 208.43 135.959C207.377 135.452 206.593 136.102 206.142 136.98C205.596 138.044 206.259 138.785 207.145 139.237C208.19 139.771 208.897 139.196 209.403 138.278Z" fill="black"/>
<path d="M212.002 143.338C211.966 143.568 211.988 143.804 212.065 144.023C212.143 144.243 212.273 144.44 212.445 144.597C212.617 144.754 212.825 144.867 213.051 144.924C213.277 144.981 213.513 144.981 213.739 144.925C214.205 144.848 214.622 144.592 214.901 144.212C215.18 143.832 215.3 143.357 215.233 142.89C215.054 142.148 214.663 141.566 213.837 141.61C213.365 141.599 212.908 141.774 212.565 142.097C212.221 142.421 212.019 142.867 212.002 143.338V143.338Z" fill="black"/>
<path d="M228.456 148.963C228.474 149.197 228.547 149.422 228.67 149.622C228.792 149.822 228.959 149.99 229.158 150.112C229.357 150.235 229.583 150.309 229.816 150.329C230.049 150.348 230.283 150.312 230.5 150.224C230.673 150.208 230.841 150.157 230.994 150.075C231.147 149.993 231.282 149.881 231.391 149.746C231.5 149.611 231.581 149.456 231.629 149.289C231.678 149.123 231.692 148.948 231.672 148.775C231.651 148.542 231.577 148.316 231.454 148.116C231.332 147.916 231.164 147.747 230.966 147.623C230.767 147.498 230.542 147.421 230.309 147.398C230.075 147.375 229.839 147.406 229.62 147.489C229.444 147.503 229.273 147.553 229.118 147.636C228.962 147.719 228.825 147.834 228.716 147.972C228.607 148.111 228.527 148.27 228.482 148.441C228.438 148.611 228.429 148.789 228.456 148.963V148.963Z" fill="black"/>
<path d="M224.079 144.853C224.294 144.976 224.538 145.037 224.785 145.032C225.032 145.026 225.272 144.952 225.481 144.819C225.689 144.686 225.857 144.499 225.966 144.277C226.076 144.056 226.122 143.809 226.101 143.562C226.133 142.968 225.544 142.341 225.307 141.867C225.114 141.798 224.909 141.77 224.705 141.787C224.501 141.804 224.302 141.864 224.124 141.964C223.945 142.063 223.789 142.201 223.668 142.366C223.547 142.531 223.462 142.72 223.42 142.92C223.256 143.265 223.233 143.659 223.357 144.021C223.48 144.382 223.739 144.68 224.079 144.853V144.853Z" fill="black"/>
<path d="M234.617 143.789C234.685 144.152 234.888 144.476 235.184 144.696C235.48 144.916 235.849 145.017 236.216 144.978C236.46 144.933 236.692 144.841 236.9 144.705C237.108 144.57 237.286 144.394 237.425 144.189C237.564 143.984 237.661 143.752 237.709 143.509C237.757 143.266 237.756 143.016 237.706 142.773C237.683 142.59 237.621 142.415 237.526 142.257C237.432 142.1 237.305 141.964 237.155 141.857C237.005 141.751 236.835 141.677 236.655 141.639C236.475 141.602 236.289 141.602 236.109 141.64C235.863 141.668 235.625 141.748 235.412 141.874C235.199 142.001 235.016 142.172 234.875 142.376C234.733 142.579 234.637 142.811 234.593 143.055C234.548 143.299 234.556 143.549 234.617 143.789Z" fill="black"/>
<path d="M217.591 149.478C217.653 149.854 217.844 150.198 218.13 150.45C218.417 150.702 218.782 150.848 219.163 150.862C219.411 150.881 219.661 150.848 219.895 150.765C220.13 150.682 220.344 150.55 220.525 150.379C220.705 150.208 220.847 150 220.942 149.771C221.038 149.541 221.083 149.293 221.077 149.045C221.111 147.807 220.153 147.437 219.061 147.39C218.811 147.392 218.566 147.453 218.344 147.569C218.123 147.685 217.933 147.852 217.789 148.056C217.645 148.26 217.552 148.496 217.518 148.743C217.483 148.99 217.509 149.242 217.591 149.478V149.478Z" fill="black"/>
<path d="M217.311 137.347C217.235 138.358 217.634 139.25 218.762 139.369C219.231 139.435 219.706 139.314 220.087 139.033C220.467 138.751 220.722 138.332 220.796 137.865C220.828 137.634 220.813 137.398 220.752 137.173C220.692 136.947 220.587 136.736 220.444 136.552C220.301 136.368 220.122 136.214 219.918 136.1C219.715 135.986 219.491 135.913 219.259 135.887C219.032 135.823 218.794 135.812 218.562 135.856C218.331 135.899 218.112 135.995 217.924 136.136C217.735 136.277 217.582 136.46 217.476 136.67C217.369 136.88 217.313 137.112 217.311 137.347Z" fill="black"/>
<path d="M240.23 147.942C240.546 149.83 241.199 150.308 241.915 150.251C242.13 150.268 242.345 150.236 242.546 150.159C242.747 150.082 242.928 149.961 243.076 149.805C243.224 149.649 243.336 149.462 243.402 149.258C243.469 149.053 243.488 148.836 243.46 148.623C243.432 148.41 243.357 148.205 243.24 148.025C243.123 147.845 242.967 147.693 242.783 147.58C242.6 147.468 242.394 147.398 242.18 147.375C241.966 147.353 241.749 147.378 241.547 147.45C240.775 147.625 240.249 148.097 240.23 147.942Z" fill="black"/>
<path d="M312.812 155.738C312.876 156.086 313.063 156.4 313.339 156.623C313.615 156.845 313.962 156.961 314.316 156.95C314.793 156.933 315.246 156.735 315.581 156.395C315.917 156.056 316.11 155.601 316.121 155.124C316.162 153.955 315.311 153.486 314.259 153.667C313.168 153.853 312.797 154.703 312.812 155.738Z" fill="black"/>
<path d="M327.629 155.154C327.657 155.041 327.674 154.926 327.678 154.81C327.686 154.627 327.655 154.444 327.589 154.273C327.522 154.102 327.421 153.947 327.292 153.818C327.162 153.688 327.007 153.586 326.837 153.519C326.666 153.453 326.483 153.422 326.3 153.429C325.21 153.44 324.345 154.031 324.664 155.214C324.802 155.72 325.696 156.019 325.962 156.209C326.067 156.209 326.135 156.18 326.23 156.172" fill="black"/>
<path d="M310.029 148.784C310.031 148.613 309.994 148.444 309.92 148.29C309.847 148.136 309.738 148.001 309.603 147.896C309.468 147.791 309.311 147.718 309.143 147.684C308.976 147.65 308.803 147.656 308.637 147.7C307.935 148.001 307.499 148.602 307.768 149.281C307.828 149.439 307.922 149.583 308.043 149.702C308.164 149.821 308.31 149.912 308.469 149.969C308.629 150.026 308.799 150.048 308.968 150.033C309.137 150.018 309.301 149.967 309.448 149.882C309.626 149.759 309.771 149.595 309.872 149.404C309.973 149.213 310.027 149 310.029 148.784Z" fill="black"/>
<path d="M305.43 155.043C305.456 154.87 305.442 154.693 305.389 154.527C305.336 154.36 305.246 154.207 305.125 154.081C305.004 153.955 304.856 153.857 304.692 153.797C304.528 153.737 304.352 153.715 304.178 153.733C304.005 153.713 303.83 153.732 303.665 153.789C303.5 153.845 303.35 153.938 303.226 154.06C303.102 154.182 303.006 154.33 302.946 154.493C302.886 154.657 302.864 154.832 302.88 155.005C302.934 155.607 303.288 156.631 303.643 156.693C304.718 156.876 305.233 156.035 305.43 155.043Z" fill="black"/>
<path d="M331.765 139.641C331.999 139.712 332.246 139.729 332.487 139.693C332.729 139.657 332.96 139.568 333.163 139.432C333.366 139.297 333.536 139.118 333.662 138.908C333.787 138.699 333.865 138.464 333.889 138.221C333.931 137.917 333.909 137.608 333.824 137.313C333.739 137.018 333.593 136.744 333.396 136.508C333.199 136.273 332.955 136.081 332.68 135.946C332.404 135.81 332.104 135.734 331.797 135.722C331.549 135.704 331.3 135.741 331.068 135.83C330.836 135.92 330.626 136.059 330.454 136.238C330.282 136.417 330.151 136.632 330.071 136.868C329.991 137.103 329.964 137.353 329.992 137.6C329.981 138.1 330.156 138.586 330.484 138.963C330.812 139.341 331.269 139.582 331.765 139.641V139.641Z" fill="black"/>
<path d="M331.896 149.879C331.747 149.928 331.588 149.94 331.433 149.916C331.278 149.892 331.131 149.831 331.004 149.74C330.828 149.596 330.69 149.411 330.602 149.201C330.514 148.991 330.479 148.763 330.5 148.536C330.541 148.366 330.622 148.209 330.737 148.078C330.852 147.946 330.997 147.845 331.16 147.783C331.323 147.72 331.499 147.699 331.673 147.72C331.846 147.741 332.011 147.804 332.155 147.903C332.341 148.07 332.463 148.297 332.501 148.544" fill="black"/>
<path d="M327.944 143.176C327.937 142.932 327.879 142.692 327.775 142.471C327.671 142.249 327.523 142.052 327.34 141.891C327.156 141.729 326.942 141.607 326.709 141.531C326.477 141.456 326.232 141.429 325.989 141.452C325.615 141.435 325.249 141.564 324.968 141.811C324.687 142.059 324.514 142.406 324.484 142.779C324.423 143.018 324.414 143.268 324.458 143.512C324.502 143.755 324.597 143.987 324.738 144.19C324.879 144.393 325.062 144.564 325.275 144.691C325.487 144.817 325.725 144.897 325.97 144.924C327.09 145.05 327.67 144.197 327.944 143.176Z" fill="black"/>
<path d="M251.854 137.369C251.731 138.421 252.19 139.294 253.344 139.324C253.51 139.331 253.675 139.303 253.829 139.24C253.983 139.178 254.122 139.083 254.236 138.963C254.35 138.842 254.437 138.698 254.491 138.541C254.544 138.384 254.564 138.217 254.547 138.051C254.512 137.555 254.284 137.093 253.914 136.761C253.543 136.429 253.058 136.254 252.561 136.274C252.307 136.28 251.901 136.963 251.854 137.369Z" fill="black"/>
<path d="M239.838 137.346C239.785 137.575 239.781 137.814 239.827 138.045C239.872 138.276 239.967 138.494 240.104 138.686C240.241 138.877 240.418 139.037 240.622 139.155C240.826 139.273 241.053 139.346 241.287 139.369C241.757 139.439 242.235 139.319 242.616 139.037C242.998 138.756 243.253 138.334 243.325 137.865C243.36 137.634 243.348 137.398 243.289 137.172C243.231 136.945 243.127 136.733 242.985 136.548C242.843 136.362 242.664 136.208 242.461 136.093C242.257 135.978 242.032 135.905 241.8 135.88C241.572 135.816 241.333 135.806 241.1 135.849C240.867 135.893 240.648 135.989 240.459 136.131C240.269 136.272 240.115 136.456 240.007 136.666C239.9 136.877 239.842 137.11 239.838 137.346V137.346Z" fill="black"/>
<path d="M252.145 148.815C252.137 148.991 252.173 149.166 252.251 149.324C252.329 149.482 252.446 149.618 252.591 149.718C252.735 149.819 252.903 149.882 253.078 149.9C253.254 149.919 253.431 149.892 253.593 149.824C253.921 149.705 254.07 149.097 254.299 148.714C254.109 147.903 253.547 147.479 252.794 147.708C252.602 147.823 252.442 147.985 252.328 148.178C252.214 148.371 252.151 148.59 252.145 148.815V148.815Z" fill="black"/>
<path d="M245.875 143.332C245.847 143.695 245.94 144.057 246.139 144.362C246.338 144.666 246.631 144.897 246.975 145.018C247.877 145.286 248.396 144.671 248.574 143.907C248.826 142.819 248.507 141.884 247.22 141.878C247.035 141.883 246.854 141.926 246.686 142.002C246.519 142.079 246.368 142.188 246.243 142.323C246.118 142.459 246.021 142.618 245.957 142.791C245.894 142.964 245.866 143.148 245.875 143.332V143.332Z" fill="black"/>
<path d="M285.394 148.726C285.38 148.911 285.407 149.097 285.474 149.271C285.541 149.444 285.646 149.6 285.781 149.728C285.916 149.855 286.078 149.951 286.255 150.008C286.432 150.064 286.62 150.081 286.804 150.055C287.134 150.029 287.446 149.898 287.696 149.682C287.946 149.465 288.12 149.175 288.192 148.852C288.26 147.622 287.591 147.306 286.82 147.336C286.635 147.332 286.451 147.365 286.279 147.433C286.106 147.501 285.949 147.603 285.816 147.732C285.684 147.862 285.578 148.016 285.506 148.187C285.433 148.357 285.395 148.54 285.394 148.726V148.726Z" fill="black"/>
<path d="M290.982 143.249C290.992 144.332 291.416 145.277 292.704 145.002C293.447 144.844 293.739 144.048 293.722 142.318C293.316 142.043 292.841 141.884 292.35 141.86C292.165 141.846 291.98 141.873 291.806 141.938C291.632 142.004 291.475 142.106 291.345 142.238C291.214 142.37 291.115 142.529 291.052 142.704C290.989 142.878 290.965 143.065 290.982 143.249Z" fill="black"/>
<path d="M292.278 155.956C292.668 155.741 293.289 155.607 293.405 155.291C293.473 155.13 293.502 154.954 293.487 154.78C293.472 154.605 293.414 154.437 293.319 154.29C293.224 154.143 293.095 154.022 292.942 153.936C292.789 153.851 292.617 153.804 292.442 153.801C292.218 153.805 291.998 153.866 291.803 153.977C291.608 154.088 291.444 154.246 291.326 154.437C291.046 155.201 291.494 155.735 292.278 155.956Z" fill="black"/>
<path d="M274.679 148.691C274.681 148.917 274.739 149.138 274.848 149.335C274.957 149.533 275.114 149.7 275.304 149.821C276.057 150.104 276.6 149.654 276.831 148.879C276.618 148.488 276.49 147.873 276.169 147.747C276.01 147.674 275.835 147.642 275.66 147.654C275.485 147.666 275.316 147.721 275.168 147.815C275.02 147.909 274.898 148.038 274.812 148.191C274.727 148.344 274.681 148.516 274.679 148.691V148.691Z" fill="black"/>
<path d="M268.464 143.576C268.449 143.823 268.492 144.07 268.59 144.298C268.688 144.525 268.839 144.726 269.029 144.884C269.22 145.042 269.445 145.154 269.687 145.208C269.928 145.263 270.179 145.261 270.419 145.2C271.472 144.803 272.199 144.092 271.712 142.958C271.567 142.634 271.351 142.347 271.081 142.118C270.811 141.888 270.493 141.722 270.15 141.631C268.983 141.542 268.414 142.479 268.464 143.576Z" fill="black"/>
<path d="M226.612 138.319C180.702 142.801 172.568 103.229 213.114 82.5735C253.66 61.9181 297.406 76.3692 316.758 99.0461C336.111 121.723 332.806 150.624 300.485 145.522C268.165 140.42 265.833 134.49 226.612 138.319Z" fill="white"/>
<path d="M226.746 137.271C216.335 138.248 204.483 137.454 195.996 130.626C193.003 128.223 190.755 125.019 189.513 121.387C188.272 117.755 188.09 113.845 188.986 110.113C191.225 100.14 199.242 92.353 207.525 86.9849C220.674 78.6918 235.821 74.1061 251.362 73.713C276.912 72.9309 305.29 83.5376 319.806 105.493C325.052 113.42 329.379 124.293 326.225 133.826C322.955 143.723 312.452 145.838 303.184 144.776C292.099 143.506 281.302 140.44 270.391 138.232C259.968 136.247 249.333 135.607 238.747 136.329C234.742 136.552 230.743 136.884 226.749 137.271C225.137 137.421 224.493 139.56 226.483 139.367C239.45 138.114 252.545 137.382 265.451 139.581C276.53 141.468 287.373 144.507 298.476 146.321C308.506 147.959 320.962 147.643 327.099 138.11C332.493 129.729 330.034 118.626 325.939 110.272C313.965 85.8478 285.283 72.9715 259.208 71.69C243.023 70.9095 226.914 74.3709 212.479 81.7312C202.377 86.8857 192.369 94.5158 187.735 105.195C184.466 112.732 184.618 121.476 189.711 128.177C195.888 136.299 206.746 139.242 216.496 139.656C219.828 139.787 223.165 139.69 226.483 139.367C228.094 139.215 228.731 137.084 226.746 137.271Z" fill="black"/>
<path d="M291.978 112.888C286.713 107.346 277.76 105.679 270.527 104.538C260.573 103.069 250.475 102.843 240.465 103.867C231.825 104.521 223.305 106.276 215.11 109.089C210.279 110.918 202.796 114.931 204.43 121.325C205.716 126.341 211.538 128.708 216.242 128.752C219.105 128.527 221.946 128.074 224.738 127.398C228.011 126.938 231.305 126.649 234.609 126.533C242.673 126.209 250.75 126.36 258.797 126.984C265.571 127.487 272.303 128.456 278.944 129.884C283.846 130.937 289.72 129.626 292.973 125.583C296.163 121.621 295.366 116.448 291.978 112.888Z" fill="black"/>
<path d="M259.681 119.026C267.394 119.026 273.647 112.774 273.647 105.062C273.647 97.3504 267.394 91.0986 259.681 91.0986C251.968 91.0986 245.716 97.3504 245.716 105.062C245.716 112.774 251.968 119.026 259.681 119.026Z" fill="white"/>
<path d="M394.319 188.06C396.499 185.789 399.25 184.147 402.284 183.307C406.262 182.391 410.439 182.999 413.991 185.011C420.384 188.895 418.976 195.01 417.354 199.631C411.576 216.09 413.795 235.277 423.633 253.958C425.767 258.008 428.277 262.11 428.914 266.118C430.527 276.266 416.081 279.581 404.35 271.401C394.042 264.214 387.598 250.109 384.311 241.443C376.793 221.614 379.884 201.707 394.319 188.06Z" fill="white"/>
<path d="M435.096 65.5595L435.039 65.6798C434.146 67.54 432.878 69.195 431.313 70.5404C429.748 71.8858 427.922 72.8924 425.949 73.4966C423.976 74.1009 421.899 74.2898 419.849 74.0514C417.799 73.8129 415.821 73.1523 414.04 72.1112C362.317 42.1666 318.938 27.884 260.003 35.3788C209.816 41.741 163.259 68.1675 128.246 104.682C93.2325 141.196 69.2785 187.373 54.5112 235.759C47.6201 258.333 44.1513 282.738 38.1192 305.901C35.6783 305.334 33.2399 304.745 30.8039 304.135C26.2304 303.069 21.7431 301.661 17.3799 299.924C18.83 289.767 21.8927 279.407 24.2529 269.674C30.2653 244.38 38.3939 219.636 48.5528 195.704C54.1723 182.486 60.5877 169.62 67.7637 157.179C94.9052 110.005 134.058 68.8368 182.777 44.5596C263.177 4.48511 345.229 8.87549 427.719 45.5057C429.538 46.3177 431.175 47.4857 432.535 48.9406C433.895 50.3955 434.95 52.1079 435.638 53.977C436.325 55.846 436.632 57.8337 436.539 59.823C436.446 61.8122 435.955 63.7627 435.096 65.5595V65.5595Z" fill="white"/>
<path d="M667.522 218.506C666.887 222.812 666.123 227.151 665.257 231.51C641.837 228.735 619.739 215.64 599.932 201.926C550.58 167.739 514.304 133.353 464.297 100.194C461.416 98.2603 459.215 95.4718 458.002 92.2212C456.789 88.9706 456.627 85.4215 457.537 82.0737C458.448 78.7259 460.386 75.7481 463.078 73.5594C465.771 71.3707 469.082 70.0815 472.545 69.8733C475.575 69.6861 478.597 70.3492 481.27 71.788C554.04 110.74 608.501 162.112 667.522 218.506Z" fill="white"/>
<path d="M254.281 4.22044C293.907 -0.3335 333.996 1.1881 373.163 8.73266C409.407 15.839 444.654 27.3172 478.132 42.9157C509.235 57.3583 538.961 74.5972 566.943 94.4196C593.206 112.927 618.051 133.369 641.27 155.575C648.761 162.737 656.07 170.082 663.197 177.611C664.751 179.091 666.217 180.66 667.587 182.31C669.064 184.303 668.589 187.105 668.551 189.492C668.493 193.261 668.328 197.026 668.056 200.788C666.837 216.774 664.145 232.614 660.016 248.106C650.986 281.74 637.308 313.95 619.375 343.804C602.102 372.983 581.248 400.417 556.395 423.563C545.303 434.047 533.178 443.379 520.203 451.417C517.123 453.294 513.985 455.074 510.791 456.757C509.571 457.399 507.604 458.944 506.224 459.055C504.987 458.833 503.784 458.448 502.647 457.91C501.21 457.48 499.775 457.045 498.342 456.605C487.675 453.327 477.103 449.757 466.628 445.896C431.374 433.132 397.803 416.133 366.65 395.273C337.449 375.303 310.918 351.685 287.701 324.994C281.946 318.415 276.375 311.682 270.989 304.794C270.688 304.405 269.838 304.545 269.447 304.644C211.787 319.223 151.376 321.921 92.4311 314.641C77.9631 312.853 63.5888 310.446 49.3083 307.422C38.628 305.166 27.2573 303.198 17.2344 298.665C11.5182 296.083 6.48941 292.223 4.41052 286.105C1.84424 278.56 3.35753 269.976 4.95205 262.397C9.21471 243.43 14.9261 224.817 22.036 206.723C29.7813 186.118 39.1319 166.153 50.0018 147.011C68.232 115.087 91.2187 85.6735 119.418 61.9482C152.923 33.7947 193.174 14.8376 236.221 6.9383C242.211 5.83581 248.234 4.9439 254.281 4.22044C255.683 4.05198 256.7 2.38698 254.683 2.62763C209.786 8.00168 166.87 24.1359 130.397 51.0001C99.3327 73.88 73.7812 103.579 53.6015 136.334C31.6392 171.989 15.7166 211.218 4.79711 251.585C1.27864 264.595 -4.99565 284.598 7.08059 295.203C12.6058 300.055 20.1181 302.314 27.0768 304.185C41.2816 308.005 55.8083 310.874 70.3109 313.267C129.206 322.981 190.05 322.711 248.616 310.902C255.728 309.469 262.798 307.86 269.826 306.073L268.283 305.922C290.564 334.626 316.351 360.428 345.041 382.729C374.537 405.165 406.77 423.754 440.963 438.046C460.522 446.277 480.517 453.429 500.859 459.47C502.491 459.96 504.534 461.027 506.283 460.69C507.764 460.2 509.176 459.525 510.487 458.68C513.684 457.059 516.825 455.336 519.909 453.511C526.204 449.771 532.29 445.691 538.142 441.289C564.82 421.339 587.265 395.818 606.219 368.555C626.606 339.35 642.971 307.537 654.876 273.97C660.556 258.01 664.915 241.611 667.909 224.937C669.32 216.965 670.328 208.927 670.929 200.854C671.214 196.949 671.39 193.039 671.456 189.122C671.482 187.485 671.488 185.847 671.475 184.208C671.454 181.833 670.073 180.938 668.485 179.233C644.161 153.224 617.69 129.31 589.352 107.744C562.475 87.1149 533.887 68.8156 503.899 53.0456C471.262 35.8269 436.759 22.4032 401.066 13.0373C363.072 3.12609 323.833 -1.17396 284.595 0.273755C274.598 0.674841 264.627 1.45796 254.683 2.62312C253.279 2.79157 252.265 4.45508 254.281 4.22044Z" fill="black"/>
<path d="M34.9561 170.942C55.149 183.702 71.7306 201.428 83.1151 222.425C93.0745 241.359 99.2082 262.069 101.166 283.372C102.274 294.522 102.402 305.749 101.548 316.922L103.904 315.997C83.1141 313.896 62.4721 310.526 42.0938 305.904C34.5868 304.423 27.1967 302.401 19.9811 299.855C15.5503 298.362 11.5223 295.87 8.20874 292.572C1.20337 284.937 2.78736 273.263 4.61655 263.975C7.24926 251.668 10.6107 239.528 14.6831 227.619C21.0377 207.966 28.7475 188.777 37.757 170.19C38.0955 169.492 35.281 169.757 34.8658 170.611C26.5541 187.754 19.351 205.413 13.3007 223.478C9.05459 235.748 5.43962 248.228 2.46996 260.868C0.291788 270.542 -2.19326 282.899 3.9291 291.701C9.85741 300.229 21.8945 302.898 31.3203 305.217C54.5934 310.937 78.2394 315.017 102.084 317.427C102.609 317.48 104.379 317.277 104.44 316.502C106.081 296.125 104.348 275.617 99.31 255.805C93.8458 234.171 83.5356 214.062 69.1586 196.996C60.0567 186.448 49.444 177.304 37.6653 169.862C36.8785 169.357 34.3077 170.535 34.9561 170.942Z" fill="black"/>
<path d="M44.7276 152.848C63.7385 164.082 79.786 180.143 92.3511 198.21C107.246 219.52 117.04 243.969 120.976 269.668C123.348 285.832 123.307 302.258 120.852 318.409C120.63 319.903 123.601 319.543 123.801 318.202C128.017 290.121 124.987 261.429 114.996 234.849C106.242 211.648 92.6159 190.593 75.0355 173.102C66.6168 164.655 57.1869 157.279 46.9599 151.143C45.8347 150.478 43.3076 152.008 44.7276 152.847V152.848Z" fill="black"/>
<path d="M629.422 142.738C645.12 156.935 658.735 170.625 669.999 182.897C671.792 284.763 590.085 420.11 506.096 459.975C489.071 455.001 472.88 449.536 457.523 443.581C544.267 368.698 605.199 257.714 629.422 142.738Z" fill="white"/>
<path d="M628.059 143.254C639.932 154.004 651.397 165.184 662.454 176.795C663.646 178.05 664.831 179.312 666.01 180.579C667.318 181.982 668.551 182.966 668.568 184.978C668.592 187.817 668.554 190.654 668.453 193.49C668.246 199.422 667.779 205.347 667.089 211.238C663.96 235.938 657.786 260.156 648.707 283.34C639.301 307.864 627.496 331.399 613.463 353.603C599.852 375.441 583.964 395.774 566.066 414.264C550.092 430.601 532.18 445.5 511.969 456.322C509.753 457.509 507.51 458.642 505.241 459.721L507.28 459.378C490.873 454.574 474.654 449.151 458.706 442.984L458.849 443.515C475.925 428.722 491.922 412.727 506.718 395.654C521.625 378.447 535.396 360.288 547.944 341.292C560.645 322.083 572.156 302.114 582.412 281.496C592.76 260.712 601.859 239.33 609.659 217.462C617.44 195.678 623.907 173.448 629.027 150.89C629.658 148.099 630.27 145.302 630.86 142.5C631.026 141.723 628.153 142.179 627.984 142.971C623.226 165.478 617.131 187.682 609.731 209.465C602.299 231.35 593.575 252.775 583.605 273.627C573.671 294.425 562.478 314.598 550.089 334.033C537.747 353.409 524.151 371.958 509.389 389.561C494.918 406.831 479.245 423.057 462.488 438.12C460.407 439.985 458.31 441.83 456.197 443.655C455.947 443.87 456.093 444.091 456.34 444.186C464.943 447.508 473.622 450.626 482.376 453.541C486.825 455.023 491.292 456.454 495.774 457.834C497.992 458.516 500.212 459.188 502.437 459.848C504.379 460.422 505.493 460.915 507.348 460.043C518.125 454.846 528.351 448.578 537.873 441.334C559.672 425.066 578.599 405.059 595.155 383.549C613.048 360.248 628.335 335.057 640.742 308.428C653.084 282.545 662.079 255.195 667.509 227.038C669.915 214.262 671.239 201.306 671.466 188.307C671.485 186.695 671.485 185.082 671.466 183.468C671.444 181.74 669.675 180.546 668.532 179.32C665.769 176.356 662.975 173.421 660.15 170.515C653.902 164.09 647.517 157.803 640.996 151.654C637.626 148.473 634.222 145.328 630.784 142.219C630.17 141.666 627.512 142.758 628.059 143.254Z" fill="black"/>
<path d="M595.395 340.704C604.795 340.704 612.416 333.084 612.416 323.685C612.416 314.286 604.795 306.667 595.395 306.667C585.994 306.667 578.374 314.286 578.374 323.685C578.374 333.084 585.994 340.704 595.395 340.704Z" fill="#B2B2B2"/>
<path d="M594.034 306.202C586.703 307.168 579.985 311.585 577.71 318.874C576.601 322.493 576.707 326.376 578.011 329.93C579.314 333.484 581.744 336.514 584.93 338.559C588.111 340.426 591.752 341.363 595.439 341.263C599.126 341.164 602.711 340.031 605.787 337.995C608.901 335.988 611.301 333.047 612.644 329.594C613.986 326.14 614.203 322.351 613.261 318.767C612.065 314.734 609.476 311.257 605.954 308.956C602.433 306.654 598.208 305.678 594.034 306.202C593.582 306.249 592.301 306.405 592.089 306.894C591.877 307.383 592.263 307.413 592.772 307.36C596.046 307.053 599.338 307.724 602.23 309.289C605.123 310.855 607.485 313.244 609.018 316.153C610.51 319.015 611.156 322.242 610.881 325.457C610.606 328.673 609.421 331.743 607.465 334.31C605.423 337.011 602.501 338.913 599.204 339.686C595.907 340.458 592.444 340.054 589.414 338.543C586.565 337.161 584.159 335.011 582.465 332.336C580.772 329.661 579.858 326.567 579.827 323.401C579.772 315.974 585.126 308.36 592.775 307.36C593.233 307.3 594.503 307.165 594.72 306.668C594.936 306.172 594.547 306.136 594.034 306.202Z" fill="black"/>
<path d="M534.014 422.578C543.414 422.578 551.035 414.958 551.035 405.559C551.035 396.16 543.414 388.541 534.014 388.541C524.614 388.541 516.993 396.16 516.993 405.559C516.993 414.958 524.614 422.578 534.014 422.578Z" fill="#B2B2B2"/>
<path d="M532.217 387.838C528.542 388.246 525.066 389.719 522.217 392.075C519.368 394.431 517.269 397.569 516.18 401.101C515.184 404.743 515.384 408.607 516.748 412.127C518.113 415.646 520.571 418.635 523.761 420.654C526.991 422.589 530.717 423.536 534.479 423.379C538.241 423.222 541.874 421.968 544.932 419.771C547.958 417.619 550.24 414.579 551.461 411.072C552.683 407.565 552.783 403.765 551.748 400.199C550.435 396.191 547.768 392.765 544.204 390.51C540.64 388.254 536.401 387.31 532.217 387.84C530.789 387.99 529.81 389.687 531.828 389.478C535.089 389.18 538.363 389.876 541.22 391.474C544.078 393.073 546.384 395.499 547.835 398.433C549.27 401.347 549.823 404.617 549.426 407.84C549.028 411.064 547.698 414.101 545.598 416.58C543.446 419.055 540.537 420.752 537.322 421.407C534.107 422.062 530.766 421.639 527.817 420.203C524.91 418.782 522.478 416.547 520.818 413.77C519.157 410.993 518.34 407.794 518.465 404.561C518.588 400.885 519.991 397.367 522.43 394.614C524.87 391.861 528.194 390.045 531.828 389.479C532.301 389.416 533.444 389.108 533.483 388.482C533.522 387.857 532.692 387.775 532.217 387.838Z" fill="black"/>
<path d="M634.406 250.679C643.806 250.679 651.426 243.06 651.426 233.661C651.426 224.262 643.806 216.642 634.406 216.642C625.005 216.642 617.385 224.262 617.385 233.661C617.385 243.06 625.005 250.679 634.406 250.679Z" fill="#B2B2B2"/>
<path d="M632.597 215.894C628.92 216.306 625.443 217.784 622.594 220.146C619.746 222.509 617.651 225.653 616.568 229.19C615.574 232.838 615.774 236.708 617.141 240.232C618.507 243.757 620.967 246.752 624.16 248.776C627.386 250.72 631.111 251.673 634.875 251.519C638.638 251.365 642.273 250.11 645.329 247.91C648.355 245.748 650.634 242.7 651.853 239.187C653.072 235.674 653.17 231.87 652.135 228.299C650.822 224.285 648.155 220.853 644.59 218.59C641.025 216.327 636.783 215.374 632.593 215.894C631.128 216.045 630.217 217.829 632.227 217.62C635.482 217.315 638.753 218.004 641.608 219.595C644.464 221.186 646.77 223.605 648.224 226.533C649.671 229.466 650.22 232.762 649.802 236.006C649.384 239.251 648.017 242.299 645.872 244.77C643.707 247.194 640.811 248.848 637.622 249.481C634.433 250.114 631.125 249.692 628.197 248.279C625.293 246.864 622.863 244.636 621.204 241.864C619.545 239.093 618.729 235.898 618.854 232.671C618.982 228.998 620.388 225.484 622.829 222.737C625.27 219.989 628.594 218.179 632.227 217.62C633.68 217.43 634.604 215.631 632.597 215.894Z" fill="black"/>
<path d="M145.012 227.877C144.603 216.645 148.616 205.7 156.189 197.393H156.204C186.924 195.532 177.299 218.546 145.012 227.877Z" fill="white"/>
<path d="M146.465 227.488C146.127 216.513 150.028 205.829 157.36 197.655L155.63 198.244C159.922 198.244 164.283 197.907 168.377 199.506C169.57 199.854 170.653 200.505 171.519 201.396C172.385 202.287 173.005 203.387 173.319 204.59C173.791 207.21 172.409 209.827 170.903 211.865C168.413 215.016 165.358 217.676 161.894 219.709C156.566 222.952 150.816 225.446 144.807 227.119C143.082 227.623 143.461 229.15 145.215 228.637C152.944 226.559 160.248 223.137 166.792 218.528C170.655 215.67 175.022 211.77 176.118 206.855C177.021 202.859 174.614 199.735 171.034 198.214C168.32 197.157 165.444 196.577 162.533 196.499C160.641 196.392 158.744 196.402 156.853 196.531C154.809 196.681 153.685 198.566 152.518 200.075C146.373 208.16 143.206 218.118 143.551 228.267C143.584 229.227 146.495 228.646 146.465 227.488Z" fill="black"/>
<path d="M154.973 253.86C148.777 246.594 145.26 237.423 145.011 227.878C175.191 220.96 185.108 233.596 154.973 253.86Z" fill="white"/>
<path d="M156.319 253.275C150.221 246.036 146.749 236.949 146.464 227.488L145.22 228.66C149.95 227.491 154.8 226.883 159.672 226.846C162.815 226.701 165.945 227.352 168.769 228.739C174.198 231.875 170.875 238.09 167.859 241.708C163.828 246.224 159.182 250.153 154.059 253.379C153.599 253.69 153.274 254.203 153.824 254.59C154.163 254.72 154.528 254.765 154.888 254.721C155.248 254.677 155.591 254.545 155.888 254.337C160.903 251.135 165.501 247.324 169.577 242.989C171.808 240.485 174.177 237.424 174.609 233.977C175.45 227.268 167.525 225.452 162.411 225.158C156.478 224.98 150.549 225.633 144.796 227.095C144.235 227.223 143.529 227.623 143.553 228.267C143.869 237.875 147.417 247.096 153.623 254.438C154.318 255.25 157.105 254.196 156.319 253.275Z" fill="black"/>
<path d="M175.284 270.384C171.66 267.1 167.772 264.118 163.661 261.468C160.419 259.356 157.494 256.794 154.974 253.859C184.217 238.101 200.76 254.042 175.284 270.384Z" fill="white"/>
<path d="M176.65 269.88C173.415 266.947 169.967 264.258 166.335 261.833C162.637 259.47 159.275 256.618 156.339 253.355L155.819 254.078C160.393 251.498 165.334 249.627 170.471 248.531C173.9 247.746 177.471 247.814 180.868 248.73C182.007 249.018 183.065 249.564 183.96 250.325C184.855 251.087 185.563 252.043 186.029 253.122C186.365 254.341 186.43 255.619 186.22 256.865C186.011 258.112 185.532 259.299 184.817 260.341C182.353 264.566 178.198 267.711 174.165 270.322C173.678 270.637 173.828 270.942 174.347 271.005C175.073 271.042 175.792 270.849 176.402 270.455C180.562 267.989 184.187 264.716 187.064 260.829C188.626 258.524 189.859 255.549 189.063 252.74C188.633 251.532 187.919 250.446 186.981 249.571C186.044 248.697 184.911 248.06 183.676 247.713C179.961 246.607 176.031 246.424 172.229 247.181C165.875 248.297 159.755 250.48 154.128 253.636C153.891 253.764 153.329 254.039 153.606 254.361C156.541 257.624 159.903 260.475 163.601 262.838C167.233 265.263 170.681 267.953 173.917 270.886C174.494 271.422 177.139 270.327 176.65 269.88Z" fill="black"/>
<path d="M190.66 293.306C187.657 284.438 182.351 276.528 175.285 270.384C205.604 257.621 218.811 276.011 190.66 293.306Z" fill="white"/>
<path d="M192.113 292.917C189.014 284.027 183.686 276.08 176.639 269.837L175.838 270.909C180.535 268.815 185.536 267.485 190.652 266.967C194.027 266.56 197.449 267.097 200.537 268.518C201.61 269.039 202.543 269.811 203.256 270.768C203.969 271.725 204.442 272.839 204.636 274.016C204.824 276.942 203.926 279.835 202.112 282.138C198.781 286.544 194.583 290.22 189.777 292.941C189.353 293.202 188.951 293.622 189.494 293.971C190.001 294.296 191.095 293.95 191.544 293.67C196.297 290.941 200.525 287.386 204.03 283.173C206.241 280.644 207.509 277.429 207.619 274.072C207.368 266.92 198.729 265.21 193.065 265.385C186.733 265.752 180.521 267.268 174.733 269.859C174.453 269.975 173.465 270.5 173.932 270.932C180.891 277.084 186.152 284.922 189.21 293.693C189.511 294.621 192.396 293.792 192.113 292.917Z" fill="black"/>
<path d="M193.857 317.783C193.549 310.282 193.487 301.991 190.659 293.311C226.975 281.407 224.576 310.031 193.857 317.783Z" fill="white"/>
<path d="M195.309 317.391C194.975 309.118 194.661 300.873 192.112 292.917L190.873 294.106C196.005 292.194 201.454 291.275 206.929 291.399C209.798 291.596 212.986 292.416 214.774 294.858C218.616 300.089 212.749 306.85 208.826 309.931C204.308 313.309 199.138 315.713 193.642 316.989C193.176 317.108 192.236 317.55 192.404 318.179C192.573 318.808 193.626 318.704 194.071 318.591C199.611 317.272 204.862 314.949 209.565 311.737C212.986 309.495 215.778 306.417 217.676 302.794C218.371 301.543 218.763 300.147 218.821 298.717C218.879 297.287 218.601 295.864 218.01 294.56C216.423 291.609 213.046 290.308 209.887 289.838C203.385 288.863 196.589 290.518 190.44 292.515C190.015 292.653 188.997 293.068 189.202 293.705C191.75 301.663 192.06 309.902 192.4 318.179C192.445 319.197 195.359 318.59 195.309 317.391Z" fill="black"/>
<path d="M436.556 147.112C438.307 147.112 439.727 145.692 439.727 143.941C439.727 142.19 438.307 140.771 436.556 140.771C434.804 140.771 433.385 142.19 433.385 143.941C433.385 145.692 434.804 147.112 436.556 147.112Z" fill="black"/>
<path d="M403.351 153.525C405.102 153.525 406.522 152.106 406.522 150.355C406.522 148.604 405.102 147.184 403.351 147.184C401.599 147.184 400.18 148.604 400.18 150.355C400.18 152.106 401.599 153.525 403.351 153.525Z" fill="black"/>
<path d="M375.625 172.887C377.376 172.887 378.796 171.468 378.796 169.716C378.796 167.965 377.376 166.546 375.625 166.546C373.874 166.546 372.454 167.965 372.454 169.716C372.454 171.468 373.874 172.887 375.625 172.887Z" fill="black"/>
<path d="M358.173 201.851C359.924 201.851 361.344 200.431 361.344 198.68C361.344 196.929 359.924 195.51 358.173 195.51C356.422 195.51 355.002 196.929 355.002 198.68C355.002 200.431 356.422 201.851 358.173 201.851Z" fill="black"/>
<path d="M354.012 235.408C355.763 235.408 357.183 233.989 357.183 232.238C357.183 230.487 355.763 229.067 354.012 229.067C352.261 229.067 350.841 230.487 350.841 232.238C350.841 233.989 352.261 235.408 354.012 235.408Z" fill="black"/>
<path d="M363.86 267.758C365.612 267.758 367.031 266.338 367.031 264.587C367.031 262.836 365.612 261.417 363.86 261.417C362.109 261.417 360.689 262.836 360.689 264.587C360.689 266.338 362.109 267.758 363.86 267.758Z" fill="black"/>
<path d="M386.019 293.305C387.77 293.305 389.19 291.885 389.19 290.134C389.19 288.383 387.77 286.963 386.019 286.963C384.267 286.963 382.848 288.383 382.848 290.134C382.848 291.885 384.267 293.305 386.019 293.305Z" fill="black"/>
<path d="M416.651 307.631C418.403 307.631 419.822 306.211 419.822 304.46C419.822 302.709 418.403 301.29 416.651 301.29C414.9 301.29 413.48 302.709 413.48 304.46C413.48 306.211 414.9 307.631 416.651 307.631Z" fill="black"/>
<path d="M450.464 308.261C452.215 308.261 453.635 306.842 453.635 305.09C453.635 303.339 452.215 301.92 450.464 301.92C448.713 301.92 447.293 303.339 447.293 305.09C447.293 306.842 448.713 308.261 450.464 308.261Z" fill="black"/>
<path d="M481.611 295.085C483.363 295.085 484.782 293.666 484.782 291.915C484.782 290.164 483.363 288.744 481.611 288.744C479.86 288.744 478.44 290.164 478.44 291.915C478.44 293.666 479.86 295.085 481.611 295.085Z" fill="black"/>
<path d="M504.705 270.383C506.456 270.383 507.876 268.963 507.876 267.212C507.876 265.461 506.456 264.042 504.705 264.042C502.954 264.042 501.534 265.461 501.534 267.212C501.534 268.963 502.954 270.383 504.705 270.383Z" fill="black"/>
<path d="M515.752 238.422C517.503 238.422 518.923 237.003 518.923 235.252C518.923 233.501 517.503 232.081 515.752 232.081C514.001 232.081 512.581 233.501 512.581 235.252C512.581 237.003 514.001 238.422 515.752 238.422Z" fill="black"/>
<path d="M512.845 204.734C514.596 204.734 516.016 203.315 516.016 201.564C516.016 199.813 514.596 198.393 512.845 198.393C511.094 198.393 509.674 199.813 509.674 201.564C509.674 203.315 511.094 204.734 512.845 204.734Z" fill="black"/>
<path d="M496.484 175.139C498.236 175.139 499.655 173.719 499.655 171.968C499.655 170.217 498.236 168.798 496.484 168.798C494.733 168.798 493.313 170.217 493.313 171.968C493.313 173.719 494.733 175.139 496.484 175.139Z" fill="black"/>
<path d="M469.499 154.757C471.25 154.757 472.67 153.337 472.67 151.586C472.67 149.835 471.25 148.416 469.499 148.416C467.748 148.416 466.328 149.835 466.328 151.586C466.328 153.337 467.748 154.757 469.499 154.757Z" fill="black"/>
<path d="M269.351 305.832C281.567 303.289 293.373 299.071 304.435 293.297C305.02 292.983 304.691 292.872 304.284 292.759C303.56 292.734 302.845 292.926 302.23 293.309C292.043 298.635 281.171 302.532 269.921 304.891C269.554 304.97 268.31 305.176 268.205 305.643C268.099 306.109 269.167 305.879 269.345 305.84L269.351 305.832Z" fill="black"/>
<path d="M225.899 189.276C235.307 193.182 243.796 199.01 250.822 206.386C215.921 214.949 205.68 200.499 225.899 189.276Z" fill="white"/>
<path d="M224.526 189.755C233.915 193.697 242.397 199.52 249.448 206.866L250.718 205.996C245.157 207.439 239.453 208.253 233.711 208.422C229.96 208.609 226.208 208.082 222.654 206.867C221.548 206.533 220.519 205.981 219.629 205.244C218.739 204.507 218.005 203.599 217.471 202.575C217.125 201.577 217.025 200.511 217.179 199.466C217.334 198.422 217.739 197.431 218.36 196.576C220.594 193.468 223.562 190.96 227 189.277C227.516 188.988 227.33 188.784 226.85 188.725C226.127 188.714 225.415 188.905 224.795 189.276C221.429 190.981 218.457 193.371 216.07 196.292C215.302 197.181 214.75 198.236 214.458 199.373C214.166 200.511 214.141 201.701 214.385 202.85C214.833 203.965 215.517 204.971 216.39 205.797C217.263 206.624 218.304 207.251 219.443 207.637C223.081 209.008 226.954 209.652 230.84 209.531C237.623 209.432 244.368 208.509 250.927 206.783C251.098 206.741 252.573 206.306 252.195 205.914C245.144 198.567 236.662 192.744 227.272 188.803C226.647 188.662 225.991 188.735 225.412 189.009C225.303 189.042 224.113 189.582 224.526 189.755Z" fill="black"/>
<path d="M250.822 206.386C256.684 212.581 261.531 219.663 265.183 227.371C242.858 231.505 213.368 222.759 250.822 206.386Z" fill="white"/>
<path d="M249.454 206.885C255.267 213.061 260.083 220.104 263.73 227.76L265.448 226.817C257.494 228.453 249.267 228.202 241.427 226.085C239.126 225.382 236.26 224.287 234.959 222.103C233.658 219.919 234.809 217.626 236.348 215.937C237.97 214.245 239.82 212.786 241.844 211.603C244.994 209.703 248.275 208.03 251.662 206.595C252.048 206.426 252.52 206.092 252.013 205.817C251.506 205.542 250.437 205.983 249.981 206.183C244.66 208.52 239 211.137 234.7 215.141C232.877 216.836 230.744 219.443 231.692 222.117C232.566 224.59 235.377 225.913 237.652 226.76C241.392 228.04 245.301 228.759 249.251 228.893C254.494 229.196 259.754 228.872 264.92 227.927C265.07 227.898 266.875 227.468 266.639 226.984C262.947 219.247 258.076 212.13 252.198 205.889C251.673 205.343 248.985 206.393 249.454 206.885Z" fill="black"/>
<path d="M265.183 227.371C268.658 234.671 271.209 242.376 272.778 250.308C237.752 250.308 234.754 238.471 265.183 227.371Z" fill="white"/>
<path d="M263.73 227.76C267.189 235.068 269.74 242.773 271.325 250.702L272.909 249.256C267.512 249.328 262.118 248.93 256.79 248.067C253.599 247.69 250.527 246.626 247.787 244.947C247.068 244.548 246.494 243.929 246.15 243.182C245.806 242.434 245.709 241.596 245.874 240.79C246.561 238.415 248.982 236.643 250.948 235.3C255.479 232.403 260.348 230.074 265.447 228.365C265.998 228.163 266.831 227.718 266.636 226.987C266.458 226.327 265.46 226.19 264.916 226.385C259.729 228.158 254.745 230.477 250.048 233.304C247.491 234.923 244.609 237.006 243.329 239.856C240.612 245.907 248.971 248.664 253.29 249.65C259.659 250.937 266.151 251.511 272.647 251.361C273.351 251.361 274.398 250.739 274.231 249.915C272.646 241.988 270.096 234.285 266.636 226.978C266.034 225.722 263.161 226.57 263.73 227.76Z" fill="black"/>
<path d="M274.621 279.639C274.036 288.385 272.363 297.025 269.641 305.358C249.237 304.298 234.939 286.587 274.621 279.639Z" fill="white"/>
<path d="M273.147 279.739C272.562 288.386 270.916 296.928 268.246 305.173L270.134 304.271C264.209 303.943 256.918 302.316 252.835 297.62C252.087 296.884 251.539 295.97 251.243 294.963C250.947 293.957 250.914 292.891 251.146 291.868C251.862 289.378 254.386 287.52 256.611 286.281C262.186 283.173 268.684 281.768 274.906 280.672C275.507 280.565 276.259 279.92 276.082 279.249C275.882 278.497 274.945 278.497 274.352 278.607C268.118 279.507 262.049 281.308 256.332 283.952C253.31 285.477 250.007 287.63 248.601 290.861C246.081 296.654 251.923 301.276 256.543 303.444C260.517 305.24 264.797 306.261 269.153 306.452C269.797 306.488 270.808 306.271 271.043 305.549C273.79 297.121 275.49 288.387 276.104 279.544C276.207 277.998 273.245 278.377 273.147 279.739Z" fill="black"/>
<path d="M274.622 279.58C244.657 275.937 239.645 259.15 272.778 250.311C274.703 259.94 275.324 269.785 274.622 279.58Z" fill="white"/>
<path d="M275.13 278.527C270.337 278.021 265.627 276.909 261.113 275.218C258.093 274.191 255.375 272.432 253.202 270.097C252.462 269.294 251.936 268.317 251.673 267.257C251.41 266.197 251.419 265.088 251.698 264.032C252.53 261.287 254.984 259.264 257.278 257.736C262.154 254.761 267.478 252.591 273.045 251.308L271.324 250.699C273.212 260.239 273.826 269.988 273.151 279.69C273.047 281.194 276.009 280.789 276.094 279.47C276.78 269.581 276.153 259.645 274.231 249.921C274.089 249.213 273.027 249.169 272.51 249.312C267.008 250.644 261.716 252.728 256.783 255.504C253.809 257.285 250.716 259.615 249.245 262.862C246.387 269.158 252.404 273.95 257.49 276.343C262.774 278.637 268.385 280.087 274.119 280.639C275.553 280.815 277.086 278.762 275.13 278.527Z" fill="black"/>
<defs>
<linearGradient id="paint0_linear" x1="612.173" y1="272.527" x2="991.595" y2="272.527" gradientUnits="userSpaceOnUse">
<stop offset="0.177083" stop-color="#8F6AFA"/>
<stop offset="0.651042" stop-color="#375CDC"/>
<stop offset="1" stop-color="#0099EE"/>
</linearGradient>
<linearGradient id="paint1_linear" x1="519.925" y1="35.0811" x2="861.481" y2="35.0811" gradientUnits="userSpaceOnUse">
<stop offset="0.177083" stop-color="#8F6AFA"/>
<stop offset="0.651042" stop-color="#375CDC"/>
<stop offset="1" stop-color="#0099EE"/>
</linearGradient>
<linearGradient id="paint2_linear" x1="351.325" y1="375.937" x2="585.546" y2="375.937" gradientUnits="userSpaceOnUse">
<stop offset="0.177083" stop-color="#8F6AFA"/>
<stop offset="0.651042" stop-color="#375CDC"/>
<stop offset="1" stop-color="#0099EE"/>
</linearGradient>
<linearGradient id="paint3_linear" x1="1.64746" y1="170.401" x2="108.661" y2="170.401" gradientUnits="userSpaceOnUse">
<stop offset="0.177083" stop-color="#8F6AFA"/>
<stop offset="0.651042" stop-color="#375CDC"/>
<stop offset="1" stop-color="#0099EE"/>
</linearGradient>
</defs>
</svg>
