<svg width="1330" height="1010" viewBox="0 0 1330 1010" fill="none" xmlns="http://www.w3.org/2000/svg">
<path d="M380.218 865.349C295.048 898.551 251.804 795.787 254.559 664.57C256.392 577.227 146.334 542.685 72.5146 453.466C-95.8676 249.96 53.9338 58.7126 267.115 11.5121C554.288 -52.0715 698.473 168.002 1062.45 177.941C1355.47 185.944 1338.19 567.843 1322.97 644.291C1294.92 785.164 1237.26 875.72 1120 968.976C1095.94 988.105 984.23 1039.27 880.178 987.483C807.704 951.421 686.885 745.793 380.218 865.349Z" fill="black"/>
<path d="M396.999 227C391.268 211.219 383.514 204.134 367 197.001C383.253 193.668 392.873 180.925 396.999 167C401.897 181.091 411.424 193.305 427 197.001C412.281 201.579 403.381 210.972 396.999 227Z" fill="white"/>
<path d="M471.999 155C467.988 143.953 462.56 138.994 451 134.001C462.377 131.667 469.111 122.748 471.999 113C475.428 122.864 482.097 131.414 493 134.001C482.697 137.205 476.466 143.781 471.999 155Z" fill="white"/>
<path d="M511.5 570C507.965 560.268 503.184 555.9 493 551.5C503.023 549.445 508.955 541.587 511.5 533C514.52 541.689 520.395 549.222 530 551.5C520.923 554.324 515.435 560.116 511.5 570Z" fill="white"/>
<path d="M602.5 538C599.156 528.794 594.633 524.662 585 520.5C594.481 518.556 600.092 511.123 602.5 503C605.357 511.22 610.914 518.345 620 520.5C611.414 523.171 606.222 528.651 602.5 538Z" fill="white"/>
<path d="M908.5 729C905.156 719.794 900.633 715.662 891 711.5C900.481 709.556 906.092 702.123 908.5 694C911.357 702.22 916.914 709.345 926 711.5C917.414 714.171 912.222 719.651 908.5 729Z" fill="white"/>
<path d="M1015.5 843C1012.16 833.794 1007.63 829.662 998 825.5C1007.48 823.556 1013.09 816.123 1015.5 808C1018.36 816.22 1023.91 823.345 1033 825.5C1024.41 828.171 1019.22 833.651 1015.5 843Z" fill="white"/>
<path d="M1153.5 786C1150.16 776.794 1145.63 772.662 1136 768.5C1145.48 766.556 1151.09 759.123 1153.5 751C1156.36 759.22 1161.91 766.345 1171 768.5C1162.41 771.171 1157.22 776.651 1153.5 786Z" fill="white"/>
<path d="M1074 910C1068.84 895.797 1061.86 889.421 1047 883.001C1061.63 880.001 1070.29 868.533 1074 856C1078.41 868.682 1086.98 879.675 1101 883.001C1087.75 887.121 1079.74 895.575 1074 910Z" fill="white"/>
<path d="M1231 60.1369C1229.74 60.3368 1228.45 60.3908 1227.17 60.2981L1217.08 60.1584C1208.73 60.0709 1197.59 59.9527 1186.42 60.2551C1175.25 60.5574 1164.05 61.0992 1155.58 61.8604C1147.09 62.5342 1141.33 63.2202 1140.97 63.2156C1140.62 63.2939 1134.84 63.7651 1126.4 64.7949C1117.95 65.7342 1106.88 67.4501 1095.88 69.3608C1084.88 71.2716 1073.99 73.6259 1065.84 75.3648L1055.99 77.5135C1054.76 77.8582 1053.48 78.0611 1052.2 78.1182C1053.35 77.5547 1054.57 77.1257 1055.82 76.8397C1058.15 76.143 1061.48 75.1392 1065.51 74.0664C1073.59 71.9178 1084.42 69.212 1095.41 66.9697C1106.4 64.7274 1117.5 62.7675 1125.98 61.6471C1134.45 60.427 1140.27 59.8591 1140.62 59.7793C1140.98 59.7793 1146.79 59.19 1155.35 58.6865C1163.88 58.0957 1175.17 57.8179 1186.39 57.8179C1197.61 57.8179 1208.78 58.3197 1217.13 58.8201C1221.3 59.0687 1224.78 59.3895 1227.2 59.6074C1228.49 59.6389 1229.76 59.8166 1231 60.1369V60.1369Z" fill="black"/>
<path d="M1102.08 46.4022C1102.11 46.901 1092.55 47.6546 1082.98 48.7136C1078.2 49.2308 1073.41 49.8524 1069.82 50.4402C1066.22 50.9942 1063.78 51.4946 1063.62 51.4977C1063.48 51.5452 1061.02 51.8691 1057.43 52.5229C1053.84 53.146 1049.12 54.119 1044.44 55.1934C1035.06 57.319 1025.78 59.7301 1025.65 59.2513C1025.52 58.8169 1034.53 55.5801 1043.81 52.8329C1048.45 51.4516 1053.17 50.2115 1056.79 49.4058C1060.4 48.5678 1062.9 48.1411 1063.05 48.092C1063.2 48.092 1065.71 47.6761 1069.4 47.2863C1073.08 46.8627 1077.95 46.4882 1082.79 46.2795C1092.48 45.8466 1102.06 45.9495 1102.08 46.4022Z" fill="black"/>
<path d="M1129.85 103.678C1129.86 103.925 1126.48 104.292 1121.39 104.828C1116.3 105.363 1109.51 106.1 1102.72 106.964C1095.93 107.864 1089.14 108.852 1083.99 109.727L1075.14 111.251L1066.27 112.703C1061.14 113.557 1054.39 114.851 1047.69 116.21C1040.99 117.611 1034.34 119.126 1029.37 120.284C1024.39 121.443 1021.07 122.195 1021 121.956C1020.93 121.716 1024.13 120.548 1029.01 118.984C1033.89 117.42 1040.48 115.54 1047.14 113.828C1053.81 112.149 1060.54 110.605 1065.68 109.572C1070.82 108.516 1074.35 107.894 1074.56 107.842C1074.78 107.821 1078.32 107.257 1083.52 106.574C1088.73 105.891 1095.6 105.129 1102.46 104.536C1109.32 103.979 1116.17 103.603 1121.3 103.486C1126.43 103.37 1129.84 103.45 1129.85 103.678Z" fill="black"/>
</svg>
