<svg width="291" height="306" viewBox="0 0 291 306" fill="none" xmlns="http://www.w3.org/2000/svg">
<path d="M197.121 234.256C200.864 233.97 203.736 230.818 203.712 227.094C203.72 222.534 204.666 219.927 206.126 215.968C208.595 209.249 211.675 200.947 210.394 186.101C209.114 171.254 204.729 163.579 201.155 157.404C198.613 152.952 197.048 150.247 196.45 143.154C195.852 136.061 196.923 133.149 198.656 128.317C201.125 121.598 204.204 113.297 202.924 98.4503C201.643 83.6036 197.258 75.9292 193.685 69.7536C191.142 65.302 189.578 62.5968 188.979 55.504C188.381 48.4112 189.453 45.4988 191.185 40.6672C193.329 34.8424 195.997 27.5345 195.687 15.6393C195.604 11.6233 192.286 8.50608 188.269 8.58968C188.138 8.58048 187.954 8.59367 187.846 8.63847L167.32 10.4408C163.599 10.7812 160.759 13.8572 160.729 17.6032C160.72 22.1632 159.775 24.77 158.315 28.7296C155.846 35.4488 152.788 43.804 154.047 58.5967C155.305 73.3895 159.712 81.1179 163.286 87.2935C165.828 91.7451 167.393 94.4503 167.991 101.543C168.589 108.636 167.517 111.548 165.731 116.402C163.262 123.121 160.183 131.423 161.463 146.269C162.744 161.116 167.129 168.791 170.702 174.966C173.244 179.418 174.809 182.123 175.407 189.216C176.006 196.309 174.934 199.221 173.202 204.052C171.058 209.877 168.39 217.185 168.7 229.08C168.81 232.705 171.562 235.678 175.151 236.088C175.619 236.147 176.118 236.13 176.564 236.135L197.121 234.256Z" fill="url(#paint0_linear)"/>
<path d="M205.707 251.453C204.423 247.746 200.523 245.059 196.803 245.4C191.475 245.836 186.094 246.296 180.713 246.755L177.969 247.007C176.124 247.139 174.431 248.094 173.33 249.563C172.103 251.337 171.685 253.536 172.221 255.592C173.622 261.719 173.776 268.046 172.604 274.228C171.819 277.527 173.837 280.867 177.191 281.628C177.475 281.701 177.812 281.751 178.127 281.747C178.595 281.806 179.04 281.811 179.539 281.794C186.387 281.36 193.549 280.921 200.69 280.429C204.824 280.17 208.281 276.902 208.581 273.044C209.099 265.741 208.128 258.36 205.707 251.453Z" fill="url(#paint1_linear)"/>
<path d="M65.3427 256.188C60.8472 258.86 54.9896 257.411 52.3105 252.928C52.1288 252.656 51.9926 252.339 51.8564 252.067C33.239 211.538 59.0763 185.862 69.2478 175.719C70.61 174.36 71.8815 173.092 72.608 172.277C75.0146 169.515 77.4667 166.888 79.8279 164.307C85.9126 157.786 91.6341 151.583 94.7673 145.107C99.4443 135.235 98.1275 122.284 91.5887 113.544C85.0499 104.804 72.8804 99.9591 62.0733 101.68H61.9824C51.2207 103.446 41.2762 111.823 37.7798 122.148C36.0089 127.31 36.0997 132.88 37.689 137.228C39.0058 140.76 38.3701 144.699 35.7818 147.416L23.0675 160.685C19.4348 164.488 13.4409 164.624 9.62663 161.047C9.08173 160.503 8.58224 159.915 8.17356 159.281C-0.454023 145.605 -2.45199 127.582 3.31487 110.556C11.1705 87.2344 32.0129 69.8002 56.3064 65.8152C80.6453 61.9208 105.892 72.1096 120.695 91.7628C135.499 111.416 138.223 138.45 127.688 160.639C122.194 172.187 113.884 181.153 106.573 189.032C104.303 191.478 102.169 193.787 100.171 196.051C98.5816 197.863 96.856 199.583 94.9943 201.44C85.6856 210.723 77.4667 218.874 84.2779 235.267C86.1397 239.659 84.505 244.731 80.4182 247.222L65.3427 256.188Z" fill="url(#paint2_linear)"/>
<path d="M90.09 304.913C85.6399 307.177 80.1909 305.683 77.6027 301.426C76.3766 299.479 75.1506 297.441 74.0608 295.721C72.4715 293.14 71.0185 290.83 69.8379 288.838C67.1134 284.354 68.521 278.513 72.971 275.796C73.1527 275.66 73.3797 275.569 73.5613 275.479L80.8267 271.72L89.0456 267.464C93.4956 265.154 98.9446 266.694 101.533 270.95C102.759 272.898 103.985 274.935 105.075 276.656C106.709 279.283 108.117 281.547 109.343 283.539C112.068 288.022 110.66 293.864 106.21 296.581C106.028 296.717 105.801 296.807 105.62 296.898L90.09 304.913Z" fill="url(#paint3_linear)"/>
<defs>
<linearGradient id="paint0_linear" x1="90.5776" y1="41.8999" x2="194.991" y2="-1.39155" gradientUnits="userSpaceOnUse">
<stop offset="0.177083" stop-color="#8F6AFA"/>
<stop offset="0.651042" stop-color="#375CDC"/>
<stop offset="1" stop-color="#0099EE"/>
</linearGradient>
<linearGradient id="paint1_linear" x1="162.554" y1="253.053" x2="201.827" y2="236.77" gradientUnits="userSpaceOnUse">
<stop offset="0.177083" stop-color="#8F6AFA"/>
<stop offset="0.651042" stop-color="#375CDC"/>
<stop offset="1" stop-color="#0099EE"/>
</linearGradient>
<linearGradient id="paint2_linear" x1="0.0419922" y1="64.9949" x2="140.742" y2="64.9949" gradientUnits="userSpaceOnUse">
<stop offset="0.177083" stop-color="#8F6AFA"/>
<stop offset="0.651042" stop-color="#375CDC"/>
<stop offset="1" stop-color="#0099EE"/>
</linearGradient>
<linearGradient id="paint3_linear" x1="68.4487" y1="266.392" x2="112.846" y2="266.392" gradientUnits="userSpaceOnUse">
<stop offset="0.177083" stop-color="#8F6AFA"/>
<stop offset="0.651042" stop-color="#375CDC"/>
<stop offset="1" stop-color="#0099EE"/>
</linearGradient>
</defs>
</svg>
