<svg width="1000" height="1000" viewBox="0 0 1000 1000" fill="none" xmlns="http://www.w3.org/2000/svg">
<path d="M842.795 38.4325C842.165 38.4785 841.533 38.4745 840.904 38.4205L835.577 38.1711C834.43 38.118 833.163 38.0299 831.775 37.9818L827.292 37.9017L822.197 37.8015C820.402 37.7805 818.514 37.8516 816.545 37.8736C814.575 37.9147 812.522 37.9237 810.4 37.9928L803.829 38.3444L800.401 38.5267L796.898 38.8372L789.665 39.4882C779.865 40.6461 769.444 42.2296 759.137 44.4782C749.027 46.7122 739.037 49.4621 729.208 52.7174L727.441 53.2853L725.71 53.9113L722.296 55.1453C720.051 55.9806 717.816 56.7048 715.711 57.6012C711.475 59.328 707.426 60.8815 703.788 62.5902C689.101 69.1187 679.671 74.7667 679.041 75.0101C678.509 75.4268 668.802 80.566 655.625 89.7527C652.281 91.9783 648.861 94.6436 645.191 97.3649C643.335 98.7011 641.563 100.243 639.688 101.728L636.858 104.008L635.428 105.164L634.027 106.383L628.323 111.348C626.403 113.03 624.563 114.844 622.653 116.609L619.798 119.286L617.025 122.078C615.186 123.958 613.289 125.793 611.489 127.72C604.227 135.374 597.479 143.469 591.422 151.251L587.119 157.102L585.038 159.939L583.114 162.781L579.411 168.218C578.255 170 577.182 171.75 576.127 173.414C575.088 175.087 574.049 176.664 573.138 178.21L570.581 182.617L568.327 186.491C567.651 187.699 567.07 188.828 566.525 189.837L563.972 194.525C563.691 195.091 563.366 195.634 563 196.149C563.209 195.554 563.464 194.976 563.764 194.421L566.114 189.629C566.632 188.602 567.183 187.452 567.827 186.223L569.994 182.29L572.466 177.817C573.35 176.248 574.367 174.649 575.376 172.953C576.405 171.266 577.453 169.492 578.587 167.688L582.223 162.179L584.125 159.302L586.174 156.427L590.422 150.497C596.411 142.608 603.106 134.399 610.336 126.633C612.128 124.679 614.018 122.816 615.849 120.908L618.613 118.074L621.461 115.355C623.362 113.563 625.203 111.722 627.121 110.013L632.816 104.969L634.217 103.731L635.647 102.554L638.469 100.237C640.348 98.7261 642.121 97.1606 643.979 95.8014C647.654 93.028 651.079 90.3196 654.432 88.054C667.641 78.705 677.401 73.4656 677.937 73.047C678.572 72.8026 688.113 67.1625 702.955 60.6902C706.63 58.9955 710.72 57.459 714.998 55.7533C717.125 54.8678 719.381 54.1507 721.648 53.3314L725.094 52.1164L726.841 51.5005L728.625 50.9436C738.539 47.7485 748.613 45.0706 758.806 42.9207C769.195 40.7602 779.685 39.2789 789.537 38.2402L796.809 37.6773L800.332 37.4129L803.776 37.2777L810.373 37.0213C812.503 36.9852 814.564 37.0092 816.539 37.0012C818.515 37.0132 820.409 36.9762 822.208 37.0313L827.311 37.2316L831.799 37.4169C833.183 37.501 834.451 37.6252 835.601 37.7174L840.918 38.1891C841.549 38.2211 842.177 38.3024 842.795 38.4325V38.4325Z" fill="black"/>
<path d="M950 91.8944C949.8 91.8944 949.601 91.8692 949.408 91.8192L947.706 91.4917L941.276 90.1446C939.891 89.8551 938.364 89.5025 936.691 89.174L931.257 88.2004L925.073 87.0807C922.893 86.703 920.584 86.4156 918.183 86.054C915.781 85.7155 913.279 85.3238 910.678 84.9863L902.615 84.1079L898.412 83.6472L894.087 83.3216L885.159 82.6636C873.013 82.0867 860.023 81.8933 847.032 82.4963C843.784 82.6295 840.542 82.911 837.305 83.1093L832.465 83.4448L827.662 83.9386C824.474 84.2912 821.298 84.5396 818.18 84.9683L808.945 86.2503L806.679 86.5658L804.443 86.9575L800.035 87.7297C797.133 88.2656 794.264 88.6732 791.515 89.3072C786.002 90.4931 780.753 91.5108 775.968 92.7968C756.727 97.5434 744.038 102.294 743.221 102.453C742.48 102.837 729.579 106.947 711.539 115.12C706.986 117.069 702.232 119.519 697.172 121.992L695.263 122.931L693.362 123.947L689.503 126.022L685.565 128.146L683.563 129.222L681.589 130.376L673.543 135.078C670.83 136.672 668.18 138.437 665.459 140.132L661.382 142.711L657.373 145.442C654.709 147.287 651.986 149.068 649.354 150.975C638.771 158.532 628.689 166.719 619.502 174.679C617.258 176.73 615.056 178.742 612.898 180.716L609.702 183.645L606.68 186.606L600.888 192.28C599.058 194.151 597.335 196.003 595.656 197.755C593.993 199.524 592.353 201.176 590.875 202.821L586.707 207.519L583.037 211.644C581.924 212.937 580.943 214.157 580.035 215.24L575.809 220.27L574.675 221.579C574.553 221.737 574.412 221.88 574.256 222.005C574.343 221.824 574.454 221.656 574.584 221.504L575.628 220.124L579.679 214.946C580.562 213.839 581.517 212.593 582.604 211.275L586.199 207.073L590.297 202.296C591.754 200.626 593.371 198.945 595.013 197.15C596.671 195.37 598.375 193.49 600.187 191.592L605.93 185.839C606.917 184.851 607.917 183.85 608.932 182.834L612.106 179.86L618.675 173.737C627.812 165.66 637.864 157.354 648.434 149.681C651.061 147.745 653.782 145.936 656.439 144.062L660.442 141.289L664.52 138.668C667.241 136.947 669.893 135.154 672.606 133.532C675.32 131.91 678.01 130.327 680.661 128.753L682.637 127.581C683.305 127.215 683.972 126.85 684.639 126.487L688.588 124.33L692.454 122.22C693.093 121.875 693.727 121.531 694.356 121.187L696.269 120.231C701.345 117.713 706.108 115.223 710.679 113.235C728.776 104.911 741.742 100.714 742.486 100.328C743.308 100.168 756.103 95.4461 775.48 90.7836C780.3 89.5216 785.587 88.525 791.135 87.3671C793.902 86.7471 796.787 86.3545 799.71 85.8347L804.146 85.0875L806.395 84.7079L808.675 84.4074L817.964 83.1824C821.1 82.7708 824.294 82.5454 827.5 82.2139L832.327 81.7521L837.192 81.4516C840.444 81.2764 843.703 81.0199 846.966 80.9118C860.022 80.411 873.062 80.7115 885.242 81.4126L894.193 82.1648L898.527 82.5384L902.741 83.0472L910.814 84.0258C913.416 84.3954 915.917 84.821 918.319 85.1946C920.721 85.5953 923.03 85.9118 925.209 86.3244L931.384 87.5454L936.81 88.6261C938.478 88.9897 939.999 89.3793 941.379 89.7039L947.764 91.2704L949.44 91.7101C949.634 91.7474 949.822 91.8094 950 91.8944V91.8944Z" fill="black"/>
<path d="M903.196 157.581C902.594 157.562 901.995 157.493 901.405 157.375L896.382 156.585L892.802 156.006L888.566 155.432L883.75 154.771C882.049 154.548 880.259 154.385 878.392 154.17L872.563 153.551L866.307 153.059L863.043 152.801L859.691 152.632L852.772 152.288C843.365 152.029 833.316 152.022 823.263 152.52C813.215 153.077 803.164 153.95 793.769 155.235C784.373 156.52 775.616 158.026 768.123 159.642C753.112 162.783 743.097 165.843 742.461 165.952C741.86 166.196 731.735 168.835 717.316 174.024C710.095 176.578 701.852 179.889 693.18 183.707C684.508 187.525 675.497 192.056 666.651 196.843C657.83 201.681 649.278 206.953 641.405 212.098L635.693 216.012L632.928 217.915L630.285 219.844L625.214 223.538L620.575 227.118C619.096 228.275 617.653 229.352 616.325 230.431L612.569 233.515L609.267 236.219L606.521 238.587L602.658 241.892C602.217 242.302 601.742 242.675 601.239 243.006C601.624 242.544 602.047 242.115 602.503 241.723L606.221 238.25C607.028 237.509 607.912 236.675 608.9 235.797L612.143 233.003L615.839 229.832C617.148 228.723 618.573 227.617 620.035 226.427L624.627 222.758L629.646 218.972L632.271 216.999L635.018 215.054L640.699 211.047C648.532 205.782 657.062 200.394 665.874 195.444C674.712 190.545 683.727 185.916 692.412 181.998C701.097 178.079 709.359 174.686 716.603 172.067C731.066 166.741 741.244 164.023 741.844 163.777C742.484 163.67 752.585 160.651 767.702 157.604C775.251 156.04 784.073 154.6 793.52 153.382C802.968 152.164 813.086 151.387 823.184 150.93C833.291 150.529 843.381 150.649 852.816 151.03L859.755 151.465L863.115 151.682L866.386 151.988L872.653 152.578L878.487 153.299C880.355 153.544 882.148 153.741 883.845 154L888.657 154.766L892.884 155.447C894.185 155.678 895.375 155.927 896.452 156.134L901.44 157.147C902.036 157.242 902.624 157.387 903.196 157.581V157.581Z" fill="black"/>
<path d="M607.64 221.736C606.17 221.01 604.801 220.095 603.567 219.015C600.742 216.753 598.124 214.242 595.745 211.514C593.362 208.73 591.21 205.756 589.312 202.621C588.481 201.349 587.942 200.189 587.49 199.395L586.769 198.049L586.168 196.647C585.831 195.799 585.268 194.653 584.789 193.21C583.527 189.771 582.549 186.233 581.863 182.634C581.219 179.072 580.894 175.46 580.89 171.841C580.816 170.204 580.956 168.564 581.307 166.962C581.488 166.968 581.537 168.916 581.766 171.807C582.07 175.341 582.623 178.848 583.421 182.304C584.266 185.765 585.37 189.157 586.724 192.452C587.233 193.83 587.824 194.921 588.178 195.73C588.55 196.532 588.778 197.014 588.799 197.07L589.456 198.391C589.869 199.172 590.35 200.317 591.109 201.577C592.838 204.693 594.799 207.675 596.975 210.498C599.176 213.281 601.571 215.904 604.142 218.349C606.257 220.336 607.748 221.59 607.64 221.736Z" fill="black"/>
<path d="M645.628 100.559C645.796 100.644 644.48 103.346 642.992 107.579C642.218 109.683 641.506 112.207 640.806 114.918C640.134 117.768 639.614 120.652 639.249 123.558C638.591 129.031 638.553 134.56 639.134 140.041C639.621 144.561 640.37 147.573 640.377 147.764C640.448 147.942 640.978 151 642.348 155.329C644.021 160.576 646.281 165.618 649.083 170.359C650.587 172.869 652.224 175.298 653.987 177.634C655.718 179.837 657.382 181.851 658.937 183.466C662 186.739 664.29 188.68 664.17 188.825C663.546 188.519 662.968 188.127 662.452 187.662C661.918 187.272 661.301 186.76 660.608 186.159C659.916 185.558 659.123 184.881 658.315 184.086C656.439 182.3 654.666 180.409 653.003 178.423C651.109 176.118 649.349 173.705 647.732 171.197C644.698 166.431 642.232 161.326 640.384 155.986C639.512 153.442 638.777 150.854 638.183 148.231C637.672 145.589 637.302 142.921 637.077 140.24C636.617 134.603 636.818 128.932 637.677 123.343C638.148 120.393 638.788 117.474 639.595 114.599C640.318 112.108 641.182 109.661 642.181 107.268C642.601 106.213 643.043 105.272 643.446 104.444C643.85 103.617 644.197 102.894 644.528 102.322C644.813 101.687 645.183 101.094 645.628 100.559V100.559Z" fill="black"/>
<path d="M728.716 51.6899C728.177 52.3367 727.574 52.9264 726.915 53.4498C725.346 54.9812 723.907 56.6402 722.612 58.4097C720.815 60.9361 719.296 63.6487 718.08 66.5007C716.694 69.7863 715.599 73.187 714.806 76.6639C713.992 80.1565 713.418 83.7008 713.088 87.2719C713.001 88.1293 712.888 88.9747 712.827 89.798C712.766 90.6213 712.727 91.4396 712.676 92.2309C712.625 93.0221 712.576 93.7924 712.532 94.5346C712.518 95.2824 712.506 96.0049 712.496 96.702C712.376 102.271 712.696 106.065 712.71 106.296C712.717 106.414 712.773 107.419 712.867 109.09C712.9 109.927 713.037 110.922 713.139 112.06C713.266 113.194 713.339 114.476 713.571 115.85C714.45 122.539 715.924 129.136 717.974 135.563C720.016 141.948 722.588 148.151 725.663 154.107L727.415 157.412L728.848 159.916C729.314 160.62 729.7 161.375 729.998 162.165C729.412 161.558 728.898 160.886 728.465 160.162C728.012 159.5 727.442 158.704 726.84 157.758L724.895 154.535C721.516 148.657 718.693 142.476 716.464 136.072C714.204 129.599 712.548 122.929 711.517 116.15C711.258 114.755 711.153 113.453 711.002 112.299C710.875 111.142 710.718 110.129 710.668 109.276C710.544 107.573 710.468 106.549 710.462 106.43C710.285 103.171 710.271 99.9058 710.422 96.646C710.448 95.9368 710.476 95.2023 710.504 94.4424C710.571 93.6832 710.638 92.9006 710.705 92.0947C710.771 91.2887 710.841 90.4647 710.914 89.6227C710.995 88.7814 711.13 87.927 711.238 87.0576C711.66 83.424 712.337 79.8247 713.264 76.2863C714.172 72.7494 715.4 69.3027 716.933 65.9888C718.279 63.107 719.95 60.3887 721.913 57.8869C723.314 56.1404 724.89 54.5421 726.617 53.1172C727.254 52.5558 727.96 52.0763 728.716 51.6899V51.6899Z" fill="black"/>
<path d="M829.561 44.1826C829.233 44.9012 828.821 45.578 828.333 46.1988L826.807 48.4184L825.858 49.7706C825.531 50.2503 825.237 50.7902 824.901 51.3331C824.239 52.4238 823.523 53.6067 822.765 54.8587L822.187 55.8072C822.014 56.1411 821.839 56.4786 821.662 56.8199L820.58 58.9052C819.022 61.6947 817.759 64.8678 816.389 67.9888C815.78 69.5823 815.239 71.2029 814.667 72.7844C814.397 73.5857 814.078 74.3529 813.857 75.1482L813.197 77.502C812.781 79.0535 812.296 80.5338 811.982 81.9762C811.667 83.4185 811.388 84.7927 811.121 86.0627L810.735 87.8866C810.626 88.4696 810.565 89.0325 810.484 89.5583C810.333 90.613 810.2 91.5385 810.09 92.3107C809.868 93.8552 809.734 94.7847 809.718 94.8918C809.702 94.999 809.618 95.9345 809.474 97.487C809.4 98.2632 809.311 99.1897 809.209 100.252C809.165 100.782 809.089 101.343 809.063 101.936C809.037 102.529 809.027 103.151 809.009 103.798C808.97 105.094 808.928 106.493 808.884 107.97C808.856 109.446 808.974 110.997 809.014 112.601C809.042 113.403 809.072 114.216 809.102 115.043C809.133 115.867 809.26 116.693 809.335 117.53C809.518 119.2 809.662 120.902 809.88 122.592C810.476 125.947 810.96 129.325 811.817 132.402C812.006 133.177 812.191 133.938 812.372 134.686C812.464 135.058 812.555 135.425 812.644 135.787C812.759 136.145 812.871 136.497 812.983 136.845C813.425 138.239 813.843 139.557 814.228 140.773C814.428 141.374 814.585 141.975 814.792 142.516C814.998 143.057 815.206 143.57 815.392 144.053L816.353 146.563C816.681 147.28 816.923 148.034 817.071 148.809C816.611 148.171 816.23 147.478 815.938 146.747L814.773 144.307C814.551 143.833 814.316 143.328 814.067 142.797C813.818 142.265 813.635 141.675 813.403 141.075C812.955 139.866 812.47 138.556 811.958 137.169L811.569 136.113L811.248 135.011C811.035 134.264 810.818 133.501 810.597 132.722C809.67 129.468 808.907 126.169 808.311 122.838C808.039 121.128 807.843 119.404 807.611 117.709C807.511 116.861 807.361 116.022 807.31 115.184C807.259 114.347 807.21 113.519 807.156 112.703C807.074 111.072 806.919 109.491 806.911 107.987C806.922 106.484 806.932 105.054 806.941 103.732C806.947 103.07 806.953 102.435 806.957 101.829C806.971 101.223 807.036 100.65 807.07 100.108L807.284 97.2787C807.407 95.6911 807.485 94.7346 807.49 94.6234C807.495 94.5122 807.66 93.5657 807.914 91.9922C808.043 91.2059 808.197 90.2634 808.372 89.1877C808.465 88.6518 808.54 88.0799 808.664 87.485C808.788 86.89 808.947 86.276 809.097 85.631C809.397 84.3429 809.725 82.9527 810.068 81.4854C810.427 80.023 810.953 78.5236 811.416 76.9561C811.657 76.1749 811.901 75.3826 812.149 74.5793C812.396 73.778 812.741 72.9968 813.037 72.1945C813.662 70.6009 814.259 68.9713 814.925 67.3718C816.29 64.2727 817.81 61.2444 819.48 58.2982L820.65 56.2309L821.221 55.2293L821.847 54.2938C822.672 53.0668 823.453 51.907 824.172 50.8363C824.539 50.3074 824.865 49.7826 825.224 49.3178L826.265 48.0158C826.925 47.2055 827.499 46.4993 827.973 45.9124C828.43 45.2731 828.963 44.6922 829.561 44.1826V44.1826Z" fill="black"/>
<path d="M212.635 416.955C222.601 414.721 232.307 410.509 240.004 403.682C246.613 397.947 251.222 390.255 253.162 381.721C254.909 372.741 253.787 363.439 249.954 355.133C245.255 344.491 237.306 335.549 228.361 328.26C215.849 318.064 201.182 310.709 186.123 305.101C183.954 304.293 181.771 303.527 179.579 302.785L178.852 303.888C194.74 302.287 210.846 299.335 225.546 292.883C235.817 288.375 245.558 281.927 252.176 272.71C257.826 264.653 260.823 255.034 260.751 245.193C260.801 233.84 257.638 222.681 253.2 212.315C247.677 199.415 240.102 187.429 231.732 176.207C230.554 174.627 229.358 173.062 228.144 171.511L226.324 172.288C235.118 182.489 245.091 191.61 256.035 199.458C265.767 206.359 276.444 212.173 287.917 215.569C297.651 218.449 308.1 219.467 318.053 217.087C327.917 214.621 336.685 208.95 342.983 200.964C351.541 190.371 356.106 176.951 358.822 163.772C359.252 161.682 359.638 159.582 359.979 157.474L358.021 157.856C358.82 170.318 361.389 182.978 367.565 193.959C371.976 202.105 378.679 208.778 386.844 213.15C394.417 216.949 402.902 218.551 411.338 217.776C420.09 216.969 428.534 214.132 435.999 209.492C444.036 204.539 450.874 197.863 456.019 189.946C456.686 188.921 457.325 187.879 457.934 186.819C458.401 186.006 456.435 186.184 456.106 186.761C451.512 194.805 445.193 201.732 437.604 207.042C430.627 211.954 422.592 215.153 414.149 216.38C406.086 217.534 397.862 216.414 390.4 213.147C382.334 209.385 375.553 203.329 370.906 195.736C364.649 185.827 361.666 174.113 360.428 162.558C360.243 160.819 360.1 159.076 359.989 157.33C359.945 156.65 358.119 157.143 358.026 157.712C355.767 171.474 351.874 185.502 343.943 197.151C338.302 205.436 330.428 212.192 320.776 215.244C311.384 218.215 301.303 217.656 291.856 215.236C280.803 212.404 270.447 207.121 260.989 200.822C250.17 193.514 240.269 184.93 231.5 175.256C230.368 174.023 229.253 172.774 228.155 171.511C227.711 171.003 225.836 171.648 226.335 172.288C235.084 183.494 243.084 195.415 249.189 208.295C254.046 218.542 257.807 229.573 258.632 240.95C259.334 250.636 257.633 260.497 252.729 268.96C247.354 278.24 238.742 285.093 229.289 289.908C215.855 296.75 200.783 300.065 185.926 301.995C183.657 302.288 181.383 302.548 179.106 302.774C178.605 302.825 177.386 303.542 178.378 303.877C193.982 309.159 209.29 316.123 222.581 325.964C232.054 332.98 240.725 341.63 246.28 352.131C250.51 360.128 252.836 369.247 251.796 378.311C250.779 386.727 247.049 394.583 241.173 400.69C234.471 407.726 225.611 412.34 216.324 414.95C215.013 415.319 213.692 415.647 212.364 415.946C211.169 416.214 211.45 417.227 212.636 416.961L212.635 416.955Z" fill="black"/>
<path d="M595.958 626.164C598.375 635.133 601.306 645.278 627.934 664.537C651.79 681.786 659.548 703.461 632.498 713.263C570.662 735.672 588.868 759.613 643.853 775.37C689.3 788.394 659.548 812.529 617.128 818.822C491.527 837.456 535.812 979.722 730.697 950.53C895.44 925.853 866.211 833.203 805.27 840.333C719.906 850.32 724.268 827.862 764.829 814.599C801.015 802.767 786.057 761.057 713.892 756.842C643.244 752.716 655.29 734.783 670.638 723.651C704.597 699.019 682.596 679.225 631.699 655.86C612.08 646.854 594.605 621.136 595.958 626.164Z" fill="black"/>
<path d="M680.349 955.005C658.521 955.005 638.422 952.518 620.247 947.55C593.11 940.128 571.883 927.496 558.853 911.028C546.271 895.12 542.721 876.682 549.114 860.443C557.627 838.818 582.39 823.466 617.054 818.323C643.874 814.344 665.418 803.063 666.1 792.635C666.535 785.978 658.794 780.175 643.713 775.854C611.528 766.63 593.581 755.033 593.178 743.198C592.818 732.565 605.989 722.332 632.328 712.785C642.244 709.192 647.986 703.693 648.934 696.885C650.243 687.479 642.287 675.534 627.64 664.945C600.619 645.408 597.884 635.254 595.472 626.295C595.404 626.042 595.222 625.365 595.717 625.091C596.388 624.721 597.013 625.332 601.065 629.755C607.409 636.682 619.217 649.576 631.907 655.401C669.477 672.648 686.064 685.67 687.368 698.946C688.183 707.231 682.806 715.446 670.93 724.061C664.845 728.476 657.949 734.968 659.65 740.839C662.068 749.161 680.324 754.375 713.916 756.337C734.69 757.551 752.4 762.011 765.13 769.235C776.3 775.573 783.045 783.679 784.122 792.06C785.417 802.132 778.26 810.737 764.979 815.08C747.27 820.871 736.198 828.549 737.426 834.187C739.553 843.946 773.832 843.501 805.204 839.831C830.096 836.919 850.939 850.442 853.696 871.284C857.365 899.026 827.37 936.558 730.763 951.029C714.078 953.6 697.228 954.928 680.349 955.005V955.005ZM596.565 626.478C598.911 635.167 601.948 645.123 628.229 664.127C643.405 675.099 651.315 687.097 649.934 697.028C648.927 704.231 642.962 710.009 632.672 713.738C607.155 722.985 593.847 733.156 594.188 743.169C594.574 754.529 612.262 765.793 643.993 774.886C663.692 780.531 667.436 787.693 667.107 792.707C666.383 803.768 644.929 815.211 617.204 819.325C582.905 824.413 558.43 839.536 550.053 860.816C543.795 876.71 547.291 894.783 559.643 910.401C572.534 926.703 593.583 939.211 620.511 946.571C651.804 955.124 688.851 956.289 730.625 950.032C773.797 943.564 807.814 931.59 828.999 915.403C846.291 902.191 854.712 886.571 852.708 871.419C850.024 851.139 829.66 837.991 805.331 840.835C763.515 845.728 738.407 843.384 736.451 834.403C735.084 828.132 746.163 820.172 764.675 814.118C777.459 809.938 784.359 801.74 783.13 792.19C780.391 770.871 745.305 759.183 713.865 757.347C679.803 755.357 661.24 749.898 658.692 741.123C657.191 735.955 661.109 729.939 670.345 723.242C681.906 714.856 687.148 706.941 686.371 699.045C685.123 686.347 668.198 673.171 631.493 656.32C618.613 650.409 606.716 637.419 600.324 630.44C598.825 628.804 597.389 627.236 596.565 626.478Z" fill="black"/>
<path d="M834.48 878.749C834.48 878.726 834.203 875.948 834.149 875.203C832.818 861.315 820.732 860.286 819.403 859.426C814.636 857.525 809.661 856.199 804.582 855.475C796.89 854.149 788.899 853.756 788.788 852.509C788.617 850.79 807.03 846.589 822.325 850.809C822.426 850.873 837.893 856.25 838.208 869.793C838.402 873.018 837.733 876.235 836.271 879.113C835.799 879.939 834.739 880.736 834.48 878.749Z" fill="white"/>
<path d="M751.581 935.442C787.522 927.417 828.127 906.939 798.626 912.868C769.125 918.796 721.931 930.311 706.845 934.985C691.759 939.658 699.389 947.095 751.581 935.442Z" fill="white"/>
<path d="M614.887 753.292C614.679 753.692 613.416 753.579 611.647 752.966C600.603 749.123 596.983 737.601 611.949 730.298C616.457 728.09 621.105 726.96 621.496 727.781C621.917 728.646 617.988 731.361 614.582 734.336C609.518 738.72 609.524 740.384 609.239 740.607C609.027 741.112 607.01 742.861 609.154 746.197C611.089 749.396 615.369 752.375 614.887 753.292Z" fill="white"/>
<path d="M643.451 830.161C643.57 832.31 617.629 833.607 592.437 844.805C575.408 852.086 557.339 864.571 561 882.142C561.413 883.749 561.923 885.313 560.613 884.336C553.588 878.741 553.894 854.873 583.829 838.724C606.259 827.564 643.342 828.181 643.451 830.161Z" fill="white"/>
<path d="M754.633 773.306C748.13 771.971 710.578 765.228 710.649 763.887C710.789 761.187 753.825 767.629 758.114 772.281C758.601 772.829 757.055 773.651 754.633 773.306Z" fill="white"/>
<path d="M633.036 841.733C634.292 844.355 599.272 854.422 598.984 851.684C598.821 850.167 604.839 846.996 613.391 844.388C621.944 841.78 632.331 840.257 633.036 841.733Z" fill="white"/>
<path d="M739.127 621.495C740.064 621.511 740.985 621.745 741.815 622.18C742.646 622.615 743.363 623.238 743.909 623.999C744.455 624.76 744.815 625.639 744.961 626.564C745.106 627.489 745.033 628.435 744.746 629.327C741.187 640.613 733.104 649.971 722.847 657.363C722.23 657.808 721.606 658.246 720.973 658.676C689.515 680.11 647.525 677.222 618.284 652.857C585.207 625.299 548.659 582.076 514.562 534.965C454.671 452.209 402.34 357.457 389.699 314.533C389.181 312.784 389.236 310.915 389.856 309.2C390.476 307.484 391.63 306.012 393.147 304.998C417.368 288.878 461.544 278.801 498.026 279.591C499.902 279.63 501.713 280.286 503.179 281.456C504.645 282.626 505.684 284.246 506.136 286.065C520.326 343.797 596.4 469.98 639.015 538.321C679.164 602.727 713.921 621.163 739.127 621.495Z" fill="white"/>
<path d="M738.752 622.043C739.929 622.104 741.056 622.535 741.971 623.276C742.887 624.016 743.545 625.027 743.85 626.163C744.512 628.57 743.299 631.074 742.379 633.256C740.398 637.853 737.732 642.124 734.471 645.924C727.666 653.734 719.305 660.041 709.922 664.442C692.225 672.853 672.129 674.775 653.155 669.872C643.704 667.443 634.732 663.44 626.614 658.032C618.53 652.653 611.31 645.857 604.254 639.223C588.645 624.349 573.908 608.586 560.119 592.013C529.794 556.062 502.404 517.618 476.88 478.148C454.312 443.249 433.022 407.378 414.392 370.216C407.558 356.583 401.031 342.743 395.56 328.5C394.488 325.705 393.461 322.898 392.503 320.064C391.521 317.163 389.926 313.722 390.422 310.628C391.192 305.826 396.146 303.632 399.982 301.505C403.93 299.337 407.995 297.39 412.159 295.672C431.017 287.8 451.415 283.359 471.7 281.266C476.945 280.725 482.206 280.358 487.476 280.196C489.88 280.122 492.286 280.091 494.692 280.103C497.416 280.118 500.036 280.061 502.289 281.839C505.096 284.059 505.477 287.69 506.387 290.918C507.167 293.678 508.025 296.417 508.935 299.137C513.503 312.372 518.792 325.348 524.778 338.007C531.89 353.432 539.571 368.594 547.506 383.61C564.656 416.062 583.022 447.869 601.853 479.373C610.441 493.741 619.137 508.047 627.94 522.29C638.014 538.613 648.056 554.955 659.942 570.051C670.337 583.249 681.969 595.778 695.625 605.673C704.786 612.313 714.979 617.806 726.053 620.434C730.217 621.429 734.478 621.968 738.759 622.043C739.49 622.054 740.809 620.967 739.51 620.945C729.29 620.786 719.386 617.645 710.369 612.967C697.197 606.132 685.781 596.218 675.646 585.488C661.105 570.111 649.063 552.656 637.916 534.737C629.346 520.965 620.86 507.142 612.459 493.266C602.938 477.525 593.557 461.699 584.318 445.79C574.694 429.182 565.295 412.446 556.121 395.581C547.625 379.886 539.382 364.049 531.649 347.961C525.079 334.294 518.814 320.438 513.551 306.21C511.451 300.547 509.519 294.816 507.932 288.988C506.989 285.528 506.296 282.236 502.921 280.285C501.167 279.368 499.202 278.931 497.224 279.017C494.629 278.978 492.035 278.992 489.442 279.058C468.588 279.573 447.9 282.904 427.941 288.961C418.902 291.638 410.121 295.12 401.705 299.366C398.191 301.176 393.931 303.087 391.089 305.882C388.084 308.839 388.059 312.632 389.221 316.406C393.24 329.449 398.774 342.04 404.54 354.39C412.363 371.146 420.951 387.545 429.906 403.722C440.404 422.686 451.409 441.359 462.92 459.741C475.32 479.627 488.226 499.187 501.639 518.419C515.6 538.41 530.126 558.022 545.39 577.038C559.675 595.029 574.873 612.276 590.927 628.713C598.015 635.892 605.327 642.859 612.952 649.469C620.4 655.925 628.231 661.628 637.241 665.735C654.567 673.619 673.991 675.657 692.578 671.54C711.215 667.357 730.216 656.465 740.612 640.076C741.779 638.237 742.82 636.322 743.728 634.343C744.651 632.33 745.854 629.958 745.988 627.711C746.216 623.891 743.142 621.153 739.503 620.952C738.763 620.906 737.452 621.971 738.752 622.043Z" fill="black"/>
<path d="M722.848 657.365C722.231 657.81 721.606 658.248 720.974 658.678C689.515 680.112 647.526 677.223 618.284 652.859C585.208 625.301 548.66 582.078 514.562 534.967C604.865 645.965 658.215 656.093 674.799 649.8C675.225 649.642 675.678 649.569 676.132 649.586C676.586 649.603 677.033 649.71 677.445 649.901C677.858 650.092 678.228 650.362 678.536 650.696C678.843 651.031 679.081 651.423 679.235 651.85C683.17 662.303 694.978 668.871 722.848 657.365Z" fill="#AFAFAF"/>
<path d="M722.202 656.902C708.898 666.436 693.056 671.804 676.689 672.325C660.62 672.779 644.746 668.719 630.873 660.606C623.918 656.537 617.794 651.389 611.781 646.059C605.574 640.552 599.571 634.818 593.724 628.932C580.784 615.906 568.575 602.164 556.831 588.06C544.053 572.712 531.828 556.912 520.013 540.808C518.48 538.722 516.956 536.631 515.44 534.534L513.676 535.397C523.692 547.702 534.032 559.749 544.816 571.39C553.703 580.985 562.893 590.309 572.477 599.214C580.408 606.583 588.614 613.668 597.184 620.289C604.062 625.645 611.23 630.619 618.655 635.189C624.522 638.808 630.624 642.031 636.921 644.838C641.756 647.003 646.763 648.762 651.891 650.096C655.797 651.129 659.801 651.748 663.837 651.942C666.858 652.101 669.887 651.834 672.833 651.149C673.396 651.009 673.953 650.85 674.5 650.657C674.882 650.46 675.305 650.354 675.735 650.348C676.165 650.341 676.591 650.434 676.978 650.62C678.062 651.21 678.348 652.426 678.824 653.463C680.123 656.385 682.201 658.893 684.831 660.715C692.871 666.156 703.927 664.278 712.618 661.746C716.233 660.671 719.789 659.405 723.27 657.953C724.489 657.454 723.415 656.355 722.402 656.769C715.976 659.408 709.233 661.692 702.294 662.459C697.959 662.936 693.415 662.826 689.322 661.175C686.262 659.946 683.664 657.793 681.89 655.017C681.464 654.354 681.084 653.663 680.751 652.948C680.448 652.04 680.026 651.175 679.497 650.377C679.075 649.882 678.548 649.488 677.953 649.224C677.358 648.961 676.712 648.834 676.062 648.854C675.469 648.883 674.886 649.007 674.332 649.22C674.522 649.155 674.268 649.245 674.11 649.298C671.664 650.11 669.102 650.519 666.525 650.509C662.876 650.538 659.235 650.159 655.67 649.378C650.873 648.339 646.176 646.881 641.635 645.022C635.685 642.607 629.913 639.777 624.362 636.554C617.258 632.437 610.395 627.919 603.806 623.022C595.623 616.997 587.781 610.513 580.198 603.755C570.876 595.44 561.947 586.692 553.311 577.672C542.893 566.79 532.9 555.509 523.225 543.961C520.608 540.837 518.014 537.695 515.443 534.534C514.883 533.846 513.07 534.557 513.679 535.397C525.737 552.051 538.213 568.41 551.257 584.308C563.295 598.984 575.813 613.286 589.08 626.868C595.001 632.931 601.074 638.848 607.351 644.546C613.348 649.994 619.445 655.45 626.285 659.84C639.914 668.578 655.686 673.408 671.878 673.801C688.171 674.177 704.229 669.867 718.138 661.384C719.966 660.263 721.75 659.076 723.492 657.824C724.555 657.065 722.998 656.331 722.202 656.902Z" fill="black"/>
<path d="M494.227 484.835C490.815 462.979 489.102 440.892 489.102 418.772C474.644 407.023 460.912 394.412 447.98 381.007C447.803 380.819 447.664 380.599 447.573 380.358C447.481 380.117 447.438 379.86 447.446 379.602C447.454 379.344 447.513 379.091 447.62 378.856C447.726 378.621 447.878 378.41 448.067 378.234L458.049 368.876C458.424 368.524 458.924 368.334 459.439 368.349C459.954 368.364 460.441 368.582 460.795 368.956C469.697 378.312 479.473 387.436 489.606 396.195C490.206 382.662 491.349 368.503 493.029 353.367C493.087 352.85 493.348 352.378 493.755 352.052C494.161 351.727 494.68 351.577 495.198 351.633L508.801 353.172C509.316 353.232 509.786 353.494 510.108 353.899C510.43 354.304 510.579 354.821 510.521 355.335C508.322 375.19 507.068 393.288 506.777 410.467C523.16 423.59 539.723 435.609 554.44 445.982C554.649 446.129 554.827 446.317 554.964 446.533C555.101 446.749 555.193 446.991 555.237 447.243C555.28 447.495 555.273 447.753 555.217 448.003C555.16 448.252 555.055 448.488 554.906 448.697L547.025 459.879C546.878 460.089 546.691 460.268 546.475 460.405C546.259 460.543 546.017 460.637 545.764 460.681C545.512 460.725 545.253 460.72 545.002 460.664C544.752 460.608 544.515 460.503 544.305 460.356C532.681 452.162 519.917 442.955 506.963 432.973C507.527 449.426 509.08 465.831 511.614 482.098C511.694 482.608 511.569 483.128 511.265 483.546C510.962 483.963 510.505 484.244 509.995 484.325L496.474 486.472C496.218 486.512 495.958 486.501 495.707 486.441C495.456 486.38 495.219 486.271 495.01 486.119C494.802 485.967 494.625 485.775 494.49 485.555C494.356 485.334 494.266 485.09 494.227 484.835Z" fill="black"/>
<path d="M620.289 530.67C620.416 530.67 620.579 532.982 620.338 536.461C619.99 540.734 619.156 544.955 617.851 549.04C616.533 553.18 614.756 557.16 612.553 560.907C611.508 562.692 610.364 564.419 609.127 566.078C607.852 567.709 606.484 569.266 605.029 570.739C601.989 573.861 598.554 576.573 594.812 578.807C591.121 581.051 587.059 582.62 582.817 583.44C581.953 583.589 581.152 583.681 580.445 583.749C579.733 583.783 579.117 583.831 578.607 583.819C578.068 583.857 577.526 583.799 577.008 583.646C577.008 583.447 579.321 583.452 582.628 582.585C586.662 581.501 590.493 579.77 593.971 577.458C597.485 575.151 600.697 572.415 603.532 569.313C604.882 567.849 606.153 566.314 607.339 564.714C608.57 563.146 609.719 561.516 610.783 559.83C613.033 556.269 614.898 552.48 616.348 548.525C617.785 544.583 618.831 540.509 619.47 536.362C619.971 532.965 620.106 530.666 620.289 530.67Z" fill="black"/>
<path d="M656.533 578.314C656.675 578.32 656.733 580.185 656.612 582.993C656.417 586.438 655.971 589.865 655.278 593.246C654.574 596.676 653.589 600.041 652.331 603.309C651.847 604.676 651.319 605.779 650.96 606.576L650.355 607.908C650.338 607.968 650.081 608.427 649.643 609.184L648.865 610.532L648.392 611.352L647.812 612.222C645.902 615.166 643.716 617.922 641.281 620.452C638.858 622.926 636.2 625.158 633.344 627.119C632.092 628.062 630.72 628.836 629.265 629.421C629.17 629.272 630.664 628.16 632.818 626.419C635.43 624.264 637.869 621.909 640.115 619.377C642.334 616.808 644.322 614.049 646.055 611.131L646.58 610.275C646.729 609.99 646.871 609.721 647.005 609.467C647.274 608.96 647.505 608.514 647.704 608.141C648.104 607.4 648.335 606.952 648.351 606.894L648.973 605.631C649.346 604.875 649.895 603.834 650.414 602.528C651.762 599.401 652.872 596.177 653.733 592.883C654.581 589.594 655.253 586.261 655.745 582.9C656.13 580.153 656.365 578.306 656.533 578.314Z" fill="black"/>
<path d="M632.107 551.548C632.253 551.559 632.199 553.502 631.942 556.431C631.7 557.876 631.513 559.591 631.1 561.388C630.692 563.278 630.181 565.144 629.57 566.978C628.974 568.831 628.281 570.65 627.496 572.43C627.153 573.302 626.696 574.087 626.326 574.865C625.926 575.63 625.594 576.378 625.212 577.031L623.322 580.214L622.456 581.47C621.443 582.888 620.357 584.251 619.201 585.555C618.257 586.74 616.962 587.935 615.668 589.282C614.269 590.523 612.824 591.894 611.216 593.058C608.366 595.291 605.254 597.168 601.948 598.648C600.877 599.154 599.77 599.578 598.635 599.918C597.818 600.177 597.345 600.291 597.318 600.218C597.291 600.145 597.712 599.889 598.465 599.499C599.218 599.109 600.315 598.615 601.556 597.868C604.644 596.158 607.546 594.134 610.217 591.827C611.716 590.62 613.05 589.221 614.352 587.967C615.551 586.605 616.751 585.409 617.616 584.228C619.482 581.975 620.521 580.267 620.615 580.184C620.651 580.134 620.965 579.709 621.486 579.001C621.962 578.261 622.627 577.227 623.418 575.998C623.812 575.382 624.163 574.674 624.575 573.95C624.962 573.212 625.441 572.47 625.807 571.643C626.568 569.999 627.433 568.27 628.071 566.451C628.822 564.672 629.34 562.817 629.881 561.092C630.4 559.362 630.706 557.698 631.08 556.3C631.595 553.447 631.945 551.535 632.107 551.548Z" fill="black"/>
<path d="M131.492 415.602C131.437 415.759 129.277 415.154 126.033 414.275C122.788 413.396 118.436 412.31 114.038 411.37C109.634 410.471 105.194 409.673 101.804 409.218C98.4183 408.736 96.0964 408.498 95.9565 408.463C95.8115 408.463 93.5046 408.121 90.1062 407.757C86.7077 407.366 82.2098 407.041 77.7269 406.83C73.238 406.66 68.7581 406.641 65.3976 406.694C62.0372 406.747 59.8002 406.803 59.7842 406.636C59.7712 406.493 61.9892 406.144 65.3517 405.82C68.7141 405.497 73.222 405.274 77.7569 405.243C82.2898 405.251 86.8457 405.415 90.2931 405.695C93.7435 405.951 96.0904 406.234 96.2353 406.234C96.3773 406.269 98.7222 406.574 102.133 407.175C105.545 407.752 110.005 408.715 114.403 409.823C118.792 410.972 123.11 412.299 126.29 413.44C129.471 414.581 131.539 415.471 131.492 415.602Z" fill="black"/>
<path d="M135.749 399.127C135.63 399.258 133.402 397.392 129.986 394.69C126.57 391.987 121.884 388.548 117.026 385.331C112.128 382.175 107.098 379.193 103.157 377.157C101.221 376.076 99.5171 375.311 98.3316 374.701L96.3325 373.71L94.3225 372.75C93.113 372.192 91.4608 371.324 89.4188 370.465C85.3896 368.617 79.9441 366.495 74.4427 364.582C68.9193 362.738 63.3249 361.168 59.0908 360.142C54.8568 359.116 52.0181 358.512 52.0481 358.337C52.7178 358.289 53.3909 358.337 54.0472 358.479C55.3076 358.662 57.1247 358.855 59.2707 359.287C64.5512 360.273 69.776 361.535 74.9235 363.07C80.5399 364.806 86.1103 366.798 90.2364 368.561C92.3264 369.378 94.0196 370.216 95.258 370.757L97.3141 371.689L99.3182 372.735C100.506 373.38 102.211 374.195 104.144 375.339C108.079 377.502 113.084 380.661 117.915 384.017C122.3 387.127 126.519 390.466 130.552 394.02C132.215 395.444 133.487 396.757 134.407 397.637C135.308 398.533 135.801 399.07 135.749 399.127Z" fill="black"/>
<path d="M565.222 759.517C563.955 761.14 562.684 762.788 561.423 764.444C546.341 784.219 531.706 806.315 521.287 827.379C519.828 830.329 517.708 832.902 515.092 834.901C512.476 836.899 509.434 838.268 506.203 838.902C502.971 839.536 499.636 839.418 496.458 838.556C493.28 837.694 490.343 836.112 487.876 833.933C386.516 744.264 214.78 624.3 50.0786 607.881C45.9709 607.466 42.0239 606.068 38.5715 603.806C35.1191 601.545 32.263 598.486 30.2448 594.888C28.2267 591.291 27.1059 587.261 26.9773 583.139C26.8487 579.018 27.7162 574.926 29.5062 571.21C55.4331 517.463 79.8768 480.601 132.358 432.753C135.307 430.061 138.842 428.091 142.685 427C146.527 425.908 150.571 425.724 154.497 426.464C253.086 445.15 379.049 480.273 537.22 627.608C542.391 632.425 547.597 637.365 552.838 642.429C563.065 652.312 571.135 664.2 576.544 677.345C582.079 690.823 583.946 705.523 581.958 719.954C579.969 734.385 574.195 748.034 565.222 759.517V759.517Z" fill="white"/>
<path d="M564.413 759.232C555.543 770.624 547.088 782.338 539.238 794.456C535.201 800.689 531.326 807.029 527.673 813.494C526.062 816.346 524.496 819.223 522.975 822.126C521.468 825.012 520.216 828.116 518.218 830.711C514.901 834.937 510.047 837.684 504.713 838.355C499.379 839.027 493.995 837.568 489.732 834.297C485.771 831.235 482.135 827.666 478.342 824.392C474.215 820.826 470.064 817.289 465.89 813.78C429.525 783.159 391.391 754.698 351.685 728.545C308.356 700.064 263.005 674.417 215.511 653.512C168.881 632.988 119.867 616.897 69.3387 609.508C63.3295 608.629 57.3043 607.9 51.2661 607.263C45.7685 606.828 40.5545 604.647 36.387 601.04C32.5116 597.552 29.8037 592.958 28.6305 587.881C27.4572 582.804 27.8753 577.489 29.828 572.658C34.266 561.976 40.1352 551.629 45.6987 541.5C51.1221 531.624 56.8935 521.933 63.1176 512.539C76.2105 492.968 91.0816 474.644 107.542 457.8C112.213 452.977 116.978 448.248 121.835 443.611C124.528 441.034 127.245 438.481 129.986 435.953C132.622 433.52 135.176 431.08 138.397 429.423C147.671 424.654 157.681 427.79 167.264 429.717C199.306 435.992 230.898 444.379 261.83 454.823C299.799 467.923 336.465 484.523 371.354 504.408C415.51 529.486 456.853 559.309 495.669 591.982C507.088 601.595 518.3 611.448 529.303 621.541C540.252 631.569 552.023 641.442 561.249 653.131C577.311 673.479 585.312 699.409 580.117 725.11C577.569 737.535 572.195 749.208 564.412 759.229C563.664 760.197 565.488 760.497 566.028 759.799C573.642 749.978 578.981 738.594 581.662 726.465C584.344 714.337 584.3 701.766 581.535 689.656C578.35 676.754 572.524 664.65 564.425 654.107C555.66 642.479 544.241 632.816 533.573 622.981C492.666 585.27 448.948 550.413 401.854 520.686C365.359 497.499 326.709 477.882 286.441 462.108C253.967 449.645 220.591 439.666 186.601 432.259C179.043 430.581 171.465 428.998 163.868 427.509C159.782 426.703 155.572 425.573 151.413 425.35C145.949 425.059 140.524 426.416 135.842 429.244C130.162 432.695 125.355 438.138 120.57 442.709C115.598 447.459 110.717 452.301 105.926 457.234C97.2297 466.211 88.8906 475.531 81.0513 485.263C66.7851 503.126 54.1432 522.226 43.2758 542.334C40.4158 547.571 37.6427 552.855 34.9566 558.185C32.2879 563.459 29.0494 568.836 27.2332 574.474C26.1562 577.838 25.7704 581.385 26.099 584.901C26.4275 588.418 27.4636 591.832 29.1451 594.94C30.8267 598.047 33.1191 600.783 35.8849 602.984C38.6507 605.185 41.8329 606.805 45.2409 607.748C50.8223 609.265 56.9145 609.325 62.6408 610.08C75.3759 611.756 88.029 614.014 100.577 616.769C126.48 622.55 151.942 630.151 176.774 639.514C227.291 658.352 275.462 683.203 321.372 711.357C364.295 737.794 405.477 766.954 444.664 798.656C453.44 805.729 462.119 812.921 470.701 820.233C474.777 823.707 478.829 827.208 482.858 830.736C486.656 834.063 490.207 837.481 495.146 839.013C499.45 840.316 504.041 840.331 508.353 839.055C512.665 837.778 516.507 835.267 519.404 831.832C523.311 827.092 525.575 820.795 528.549 815.453C532.147 808.983 535.981 802.643 539.974 796.407C548.055 783.791 556.826 771.629 566.029 759.809C566.78 758.837 564.956 758.536 564.413 759.232Z" fill="black"/>
<path d="M565.222 759.517C563.955 761.139 562.684 762.788 561.424 764.444C565.122 744.388 558.025 734.084 544.21 728.081C543.368 727.724 542.637 727.148 542.093 726.414C541.548 725.68 541.21 724.814 541.114 723.905C541.017 722.997 541.166 722.079 541.543 721.247C541.921 720.415 542.515 719.699 543.263 719.174C567.608 701.871 562.389 661.715 537.218 627.604C542.389 632.422 547.596 637.362 552.837 642.426C563.064 652.309 571.135 664.198 576.545 677.345C582.079 690.823 583.946 705.522 581.958 719.953C579.969 734.384 574.196 748.034 565.222 759.517V759.517Z" fill="#AFAFAF"/>
<path d="M564.34 759.565C563.065 761.2 561.799 762.842 560.542 764.492L562.378 764.287C564.063 754.993 564.027 744.745 557.919 736.98C555.237 733.71 551.891 731.046 548.102 729.162C546.079 728.105 543.536 727.483 542.512 725.235C542.026 724.164 541.935 722.955 542.256 721.824C542.577 720.693 543.289 719.711 544.265 719.054C551.706 713.513 556.874 705.458 558.807 696.392C561.088 686.15 559.946 675.364 557.201 665.332C553.433 651.555 546.559 638.733 538.122 627.261L536.31 627.944C540.534 631.881 544.729 635.848 548.895 639.845C552.643 643.344 556.191 647.049 559.524 650.944C565.927 658.639 571.172 667.226 575.093 676.433C580.907 689.983 582.977 704.844 581.086 719.465C579.194 734.086 573.412 747.933 564.34 759.563C563.922 760.1 565.791 759.867 566.102 759.463C577.687 744.573 583.887 726.207 583.694 707.351C583.442 687.738 575.811 669.009 563.962 653.541C556.49 643.788 547.082 635.603 538.123 627.255C537.77 626.926 535.963 627.465 536.311 627.938C544.091 638.305 550.129 649.868 554.186 662.175C557.413 672.328 559.132 683.31 557.429 693.916C555.946 703.152 551.632 711.857 544.254 717.787C542.516 719.185 540.591 720.283 540.194 722.679C540.026 723.688 540.153 724.725 540.56 725.664C540.966 726.604 541.635 727.406 542.486 727.976C543.46 728.522 544.467 729.01 545.5 729.436C546.499 729.931 547.479 730.468 548.438 731.045C550.214 732.107 551.878 733.344 553.406 734.739C561.771 742.465 562.383 754.027 560.468 764.589C560.357 765.202 562.106 764.644 562.304 764.389C563.562 762.741 564.828 761.099 566.102 759.462C566.52 758.933 564.65 759.166 564.34 759.565Z" fill="black"/>
<path d="M334.891 539.871C309.544 539.564 284.211 541.216 259.119 544.812C243.442 530.363 226.904 516.875 209.595 504.421C209.354 504.251 209.081 504.13 208.792 504.066C208.504 504.001 208.206 503.994 207.915 504.045C207.624 504.096 207.345 504.204 207.096 504.363C206.847 504.522 206.632 504.728 206.463 504.97L197.467 517.788C197.128 518.27 196.994 518.866 197.095 519.446C197.195 520.026 197.522 520.543 198.004 520.883C210.065 529.434 222.003 539.014 233.587 549.056C218.333 551.938 202.457 555.53 185.557 559.893C184.98 560.043 184.486 560.415 184.184 560.927C183.881 561.44 183.795 562.052 183.943 562.629L187.9 577.772C188.052 578.345 188.424 578.835 188.936 579.135C189.448 579.434 190.059 579.518 190.633 579.369C212.797 573.648 233.124 569.291 252.565 566.17C270.114 582.575 286.44 599.364 300.6 614.332C300.801 614.545 301.043 614.716 301.31 614.835C301.578 614.955 301.867 615.021 302.16 615.029C302.453 615.037 302.745 614.987 303.019 614.882C303.292 614.777 303.543 614.619 303.756 614.418L315.165 603.676C315.38 603.475 315.553 603.235 315.674 602.967C315.795 602.7 315.862 602.412 315.871 602.119C315.881 601.825 315.832 601.533 315.728 601.259C315.624 600.985 315.467 600.733 315.265 600.52C304.082 588.699 291.562 575.757 278.132 562.715C296.888 560.679 315.75 559.769 334.615 559.992C335.207 559.999 335.777 559.773 336.201 559.361C336.625 558.949 336.869 558.386 336.878 557.796L337.114 542.146C337.118 541.851 337.064 541.558 336.954 541.283C336.844 541.009 336.682 540.759 336.475 540.548C336.269 540.336 336.022 540.168 335.751 540.052C335.479 539.936 335.187 539.874 334.891 539.871V539.871Z" fill="black"/>
<path d="M453.885 557.832C443.29 573.799 440.158 588.848 446.862 610.236C452.819 629.258 432.586 644.21 413.341 637.073C405.973 634.331 398.74 628.346 393.18 618.104C391.907 615.774 390.775 613.369 389.791 610.904C383.194 594.488 384.972 579.475 390.303 566.763C393.925 558.422 398.863 550.716 404.929 543.937C408.69 539.656 412.777 535.673 417.154 532.023H417.164C417.172 532.02 417.182 532.02 417.19 532.023C432.222 541.979 444.164 551.048 453.885 557.832Z" fill="black"/>
<path d="M452.972 557.752C448.352 564.74 444.639 572.392 443.145 580.689C441.564 589.459 442.552 598.437 444.871 606.982C446.007 611.175 447.335 615.054 446.805 619.461C446.373 622.998 444.995 626.353 442.815 629.174C440.495 632.05 437.549 634.361 434.202 635.932C430.855 637.502 427.194 638.291 423.496 638.238C403.967 638.153 391.676 618.345 387.854 601.361C385.747 591.799 386.19 581.852 389.14 572.515C392.26 563.036 397.181 554.248 403.633 546.63C406.802 542.783 410.235 539.162 413.908 535.792C414.732 535.035 415.565 534.29 416.407 533.557C416.674 533.327 416.979 533.108 417.225 532.859C417.829 532.239 416.78 532.972 416.847 532.807C416.825 532.862 418.539 533.937 418.686 534.035C420.984 535.576 423.271 537.134 425.545 538.71C433.241 544.038 440.799 549.57 448.415 555.015C449.982 556.134 451.553 557.245 453.129 558.349C453.756 558.787 455.491 557.902 454.636 557.305C446.982 551.962 439.485 546.398 431.855 541.021C429.626 539.45 427.387 537.892 425.139 536.347C423.962 535.54 422.783 534.738 421.602 533.939C421.065 533.577 420.528 533.215 419.99 532.855C419.359 532.326 418.672 531.868 417.941 531.489C417.653 531.384 417.341 531.363 417.042 531.43C416.743 531.496 416.469 531.647 416.252 531.863C415.353 532.567 414.507 533.348 413.653 534.106C411.748 535.803 409.903 537.563 408.118 539.387C394.064 553.751 383.314 572.731 384.682 593.378C385.496 604.431 389.328 615.049 395.763 624.078C400.673 630.936 407.58 636.558 415.882 638.634C419.708 639.607 423.693 639.787 427.592 639.162C431.49 638.537 435.218 637.12 438.547 634.999C444.706 630.971 448.921 624.227 448.891 616.767C448.872 612.166 447.074 607.913 446.045 603.489C444.892 598.72 444.308 593.832 444.305 588.926C444.48 580.133 446.84 571.522 451.175 563.868C452.293 561.829 453.513 559.849 454.795 557.909C455.349 557.072 453.391 557.119 452.972 557.752Z" fill="black"/>
<path d="M390.303 566.755C412.336 605.247 413.341 630.003 389.791 610.896C383.195 594.48 384.973 579.468 390.303 566.755Z" fill="white"/>
<path d="M389.414 567.163C394.504 575.824 398.851 584.901 402.408 594.295C404.407 599.785 406.622 606.098 406.112 612.044C405.988 613.487 405.675 615.227 404.519 616.231C403.506 617.11 401.93 616.89 400.554 616.471C398.017 615.583 395.641 614.291 393.518 612.645C392.77 612.112 392.037 611.559 391.319 610.985C390.278 610.165 389.99 608.657 389.573 607.433C388.674 604.8 387.964 602.106 387.448 599.372C385.507 588.39 386.819 577.081 391.222 566.834C391.622 565.863 389.692 565.955 389.393 566.675C385.31 576.167 383.805 586.566 385.03 596.824C385.404 599.667 385.992 602.478 386.788 605.232C387.208 606.688 387.682 608.126 388.211 609.546C388.361 610.161 388.596 610.752 388.91 611.302C389.299 611.692 389.73 612.037 390.195 612.332C392.673 614.379 395.434 616.061 398.391 617.324C401.92 618.702 406.187 618.395 407.571 614.329C408.174 612.179 408.307 609.924 407.959 607.718C407.537 604.341 406.782 601.014 405.705 597.785C402.239 586.775 396.903 576.339 391.194 566.337C390.803 565.668 388.945 566.341 389.414 567.163Z" fill="black"/>
<path d="M390.303 566.755C393.926 558.415 398.864 550.708 404.929 543.929C429.391 586.833 413.736 597.997 390.303 566.755Z" fill="white"/>
<path d="M391.23 566.89C394.834 558.621 399.733 550.978 405.744 544.248L404.044 544.368C407.947 550.99 411.215 557.966 413.804 565.203C415.243 569.438 416.602 574.119 416.219 578.645C416.171 579.939 415.803 581.201 415.149 582.319C414.918 582.712 414.602 583.048 414.224 583.303C413.846 583.557 413.416 583.724 412.965 583.791C410.29 584.263 406.975 582.163 404.769 580.566C399.445 576.707 395.102 571.535 391.175 566.317C390.613 565.568 388.785 566.357 389.414 567.192C393.113 572.378 397.489 577.048 402.425 581.078C405.167 583.195 408.635 585.464 412.257 585.342C420.785 585.053 418.079 572.585 416.664 567.656C414.227 559.171 410.151 551.143 405.8 543.492C405.459 542.893 404.449 543.213 404.101 543.611C398.002 550.451 393.031 558.217 389.373 566.617C388.931 567.669 390.873 567.74 391.23 566.89Z" fill="black"/>
<path d="M404.929 543.929C408.689 539.648 412.777 535.665 417.154 532.015H417.19C434.742 550.028 432.434 581.366 404.929 543.929Z" fill="white"/>
<path d="M405.804 543.855C409.566 539.575 413.653 535.592 418.029 531.941L416.738 532.404H416.774L416.281 532.341C419.476 535.641 422.12 539.431 424.113 543.567C425.812 546.903 426.908 550.512 427.353 554.228C427.559 556.37 427.553 559.31 425.83 560.809C425.689 560.932 425.844 560.809 425.67 560.928C425.629 560.954 425.586 560.979 425.545 561.005C425.454 561.063 425.681 560.921 425.511 561.022C425.276 561.164 425.62 560.98 425.389 561.074C425.189 561.153 425.589 561.02 425.424 561.062C425.224 561.113 425.484 561.052 425.457 561.062C425.396 561.074 425.335 561.087 425.274 561.094C425.4 561.079 425.429 561.08 425.297 561.088C425.233 561.088 425.168 561.097 425.103 561.1C425.103 561.1 425.213 561.1 425.054 561.1C424.801 561.098 424.549 561.07 424.301 561.016C422.817 560.65 421.421 559.99 420.197 559.074C418.228 557.677 416.402 556.091 414.743 554.339C412.273 551.774 409.958 549.066 407.81 546.228C407.161 545.386 406.522 544.536 405.894 543.678C405.547 543.207 403.809 543.985 403.964 544.196C406.573 547.818 409.414 551.269 412.468 554.527C414.407 556.653 416.597 558.536 418.99 560.136C420.422 561.156 422.107 561.764 423.862 561.896C424.629 561.933 425.396 561.806 426.11 561.522C426.825 561.238 427.47 560.805 428.002 560.251C428.82 559.159 429.281 557.841 429.32 556.478C429.437 554.63 429.278 552.775 428.847 550.974C427.712 546.119 425.657 541.525 422.792 537.442C422 536.284 421.155 535.165 420.256 534.085C419.794 533.53 419.318 532.988 418.828 532.457C418.619 532.172 418.374 531.914 418.1 531.69C417.709 531.461 416.947 531.715 416.601 531.889C416.185 532.144 415.8 532.445 415.453 532.788C415.045 533.134 414.641 533.483 414.24 533.835C413.412 534.562 412.593 535.301 411.785 536.051C410.007 537.706 408.284 539.419 406.616 541.188C405.746 542.11 404.893 543.048 404.058 544.002C403.78 544.319 404.307 544.336 404.516 544.324C404.986 544.316 405.439 544.151 405.804 543.855Z" fill="black"/>
<path d="M594.216 340.803C593.424 341.565 592.612 342.396 591.79 343.278C591.509 343.579 591.228 343.879 590.957 344.19C590.687 344.501 590.396 344.811 590.125 345.132C588.902 346.535 587.662 348.061 586.405 349.711C586.084 350.132 585.764 350.563 585.443 351.004C584.41 352.397 583.377 353.88 582.345 355.433C581.773 356.275 581.212 357.147 580.65 358.039C580.46 358.329 580.279 358.63 580.099 358.92C579.798 359.401 579.497 359.882 579.206 360.373C578.484 361.566 577.773 362.798 577.071 364.061C576.82 364.492 576.579 364.923 576.349 365.354C576.038 365.915 575.727 366.486 575.426 367.057C575.025 367.809 574.624 368.57 574.233 369.342C573.932 369.933 573.622 370.544 573.321 371.156C572.118 373.591 570.934 376.136 569.791 378.781C569.611 379.192 569.431 379.603 569.26 380.024C568.658 381.437 568.07 382.876 567.495 384.343C554.601 417.221 547.874 463.596 565.049 515.413C544.64 520.081 523.761 522.391 502.825 522.297C502.253 522.297 501.682 522.287 501.11 522.267C500.509 522.267 499.907 522.247 499.305 522.237C499.135 522.227 498.964 522.217 498.784 522.217C497.892 522.187 496.999 522.157 496.117 522.117C492.568 521.966 489.078 521.733 485.649 521.415C485.058 521.365 484.466 521.305 483.875 521.245C483.393 521.205 482.922 521.155 482.441 521.095L480.285 520.854C479.313 520.744 478.34 520.614 477.377 520.483C476.375 520.353 475.382 520.213 474.38 520.062C473.407 519.912 472.444 519.762 471.482 519.601C470.299 519.411 469.126 519.201 467.953 518.98C467.381 518.88 466.8 518.77 466.228 518.66C465.556 518.529 464.874 518.389 464.203 518.249C463.581 518.128 462.969 517.998 462.358 517.858C461.004 517.567 459.661 517.257 458.327 516.936C457.234 516.675 456.141 516.395 455.059 516.124C454.417 515.954 453.775 515.784 453.133 515.603C452.402 515.403 451.66 515.202 450.928 514.982C448.832 514.381 446.763 513.746 444.721 513.078C444.636 513.056 444.553 513.029 444.471 512.998L444.461 512.988C413.128 484.229 360.409 435.288 340.085 416.439C340.085 416.429 340.075 416.429 340.065 416.419C340.055 416.409 340.055 416.399 340.055 416.379C339.854 415.958 339.654 415.537 339.463 415.126C339.193 414.565 338.942 413.994 338.681 413.423C338.581 413.222 338.491 413.012 338.401 412.801C337.949 411.789 337.498 410.767 337.057 409.755C336.064 407.47 335.119 405.179 334.22 402.881C333.321 400.583 332.455 398.285 331.623 395.987C331.583 395.897 331.553 395.796 331.522 395.706C331.101 394.534 330.7 393.361 330.299 392.189C329.998 391.307 329.708 390.435 329.417 389.554C328.565 386.918 327.742 384.283 326.98 381.657C326.65 380.485 326.319 379.322 325.998 378.16C325.757 377.288 325.527 376.416 325.296 375.545C324.614 372.929 323.993 370.334 323.401 367.749C323.14 366.606 322.89 365.454 322.649 364.322C322.408 363.189 322.178 362.037 321.957 360.904C321.897 360.604 321.847 360.303 321.787 360.003L321.275 357.267C321.245 357.087 321.215 356.916 321.185 356.736C320.945 355.403 320.714 354.08 320.503 352.758C320.403 352.086 320.293 351.415 320.193 350.744C320.092 350.072 319.992 349.411 319.902 348.749C319.812 348.088 319.721 347.417 319.631 346.755C319.541 346.094 319.451 345.433 319.38 344.781C319.22 343.469 319.07 342.166 318.929 340.873C318.859 340.222 318.789 339.581 318.739 338.939C318.689 338.418 318.638 337.907 318.598 337.396C318.558 336.885 318.508 336.364 318.468 335.853C318.288 333.708 318.147 331.584 318.047 329.5C318.017 328.868 317.987 328.237 317.967 327.616C317.947 326.995 317.927 326.403 317.907 325.802C317.866 324.61 317.846 323.427 317.836 322.255C317.816 320.902 317.816 319.569 317.836 318.257C317.856 316.453 317.907 314.689 317.997 312.966C318.087 311.242 318.177 309.539 318.318 307.885C318.408 306.783 318.518 305.701 318.628 304.629C318.638 304.508 318.648 304.388 318.669 304.268C318.719 303.807 318.769 303.366 318.829 302.915C318.919 302.083 319.029 301.262 319.15 300.45C319.25 299.809 319.34 299.167 319.441 298.536C319.551 297.885 319.661 297.243 319.771 296.612C319.892 295.981 320.012 295.349 320.132 294.728C320.253 294.107 320.383 293.506 320.523 292.904C320.604 292.524 320.694 292.133 320.794 291.752C320.975 290.96 321.175 290.189 321.386 289.427C366.104 285.409 394.719 264.827 413.88 242.43C414.732 241.438 415.564 240.446 416.366 239.444C416.767 238.963 417.159 238.472 417.54 237.991C417.981 237.44 418.412 236.889 418.843 236.338C419.314 235.727 419.785 235.115 420.247 234.504C420.497 234.183 420.738 233.853 420.969 233.532C421.34 233.031 421.711 232.54 422.061 232.049C422.793 231.057 423.495 230.065 424.177 229.083C424.528 228.592 424.869 228.091 425.2 227.6C425.882 226.608 426.533 225.626 427.175 224.654C427.506 224.163 427.827 223.672 428.127 223.191C428.448 222.7 428.759 222.219 429.06 221.738C431.496 217.88 433.702 214.122 435.728 210.515C438.294 205.945 440.56 201.636 442.586 197.738L442.606 197.758L442.676 197.828C442.736 197.889 442.836 197.979 442.957 198.089C443.077 198.199 443.197 198.319 443.348 198.46C443.368 198.48 443.398 198.5 443.418 198.52C443.568 198.66 443.739 198.821 443.919 198.991C445.002 199.993 446.696 201.586 448.932 203.671C449.113 203.841 449.303 204.011 449.484 204.192L449.494 204.202C449.684 204.372 449.885 204.552 450.075 204.743C451.309 205.885 452.672 207.168 454.166 208.571C454.587 208.961 455.028 209.372 455.48 209.793C456.212 210.485 456.974 211.196 457.766 211.938C458.448 212.569 459.139 213.22 459.851 213.882C460.583 214.563 461.325 215.274 462.097 215.986C462.408 216.276 462.719 216.567 463.03 216.868C463.11 216.938 463.19 217.008 463.26 217.078L464.143 217.9C464.594 218.331 465.055 218.752 465.516 219.182V219.192C465.566 219.233 465.606 219.283 465.657 219.323C467.311 220.876 469.045 222.489 470.83 224.163C471.682 224.964 472.545 225.776 473.427 226.598C474.39 227.49 475.362 228.411 476.355 229.333C476.565 229.524 476.766 229.724 476.976 229.915C477.187 230.105 477.388 230.305 477.598 230.506C480.436 233.161 483.37 235.914 486.401 238.763C486.772 239.104 487.133 239.444 487.504 239.785C491.364 243.402 495.365 247.16 499.446 250.988C501.411 252.832 503.406 254.706 505.411 256.59L507.838 258.864C508.64 259.626 509.452 260.387 510.264 261.149C512.691 263.424 515.13 265.715 517.584 268.023C519.037 269.396 520.501 270.769 521.955 272.132C523.068 273.174 524.171 274.216 525.284 275.258L528.573 278.364C528.583 278.374 528.583 278.374 528.593 278.374C529.555 279.286 530.508 280.188 531.46 281.08C534.348 283.796 537.215 286.481 540.033 289.147L541.647 290.67C542.72 291.692 543.773 292.684 544.826 293.676C545.878 294.668 546.931 295.67 547.974 296.642C548.616 297.263 549.257 297.865 549.899 298.466C550.29 298.837 550.681 299.197 551.072 299.568C552.095 300.53 553.107 301.492 554.12 302.444C554.812 303.095 555.504 303.747 556.186 304.398C556.988 305.16 557.78 305.911 558.572 306.653L559.835 307.855L561.459 309.388C562.412 310.3 563.354 311.192 564.277 312.064C564.367 312.144 564.447 312.224 564.528 312.304C565.039 312.785 565.55 313.266 566.052 313.747C566.553 314.228 567.044 314.699 567.535 315.16H567.546C568.538 316.112 569.501 317.024 570.453 317.926L570.975 318.417C571.747 319.148 572.499 319.87 573.251 320.591C573.742 321.052 574.233 321.523 574.724 321.984C576.92 324.079 578.989 326.056 580.931 327.917L581.532 328.488C581.883 328.828 582.234 329.159 582.575 329.49L584.31 331.163C584.671 331.504 585.022 331.845 585.363 332.175C585.412 332.216 585.458 332.26 585.503 332.306C585.734 332.536 585.964 332.756 586.195 332.977C586.646 333.418 587.097 333.849 587.528 334.26C587.739 334.47 587.949 334.67 588.16 334.871C590.658 337.286 592.703 339.29 594.216 340.803Z" fill="#B2B2B2"/>
<path d="M594.216 340.805C585.726 348.956 575.437 364.087 567.501 384.339L413.884 242.431C427.34 226.725 436.134 210.131 442.585 197.739C442.585 197.738 572.728 319.331 594.216 340.805Z" fill="black"/>
<path d="M465.514 219.18C442.145 253.832 418.661 278.712 394.426 294.617C370.838 310.104 346.5 317.721 317.837 318.254C317.91 313.458 318.172 308.902 318.632 304.626C364.439 303.384 407.642 281.627 455.477 209.795C458.425 212.555 461.802 215.711 465.514 219.18Z" fill="white"/>
<path d="M499.444 250.99C473.649 287.689 447.583 314.514 420.636 332.194C391.13 351.557 359.606 360.911 323 360.911C322.655 360.911 322.309 360.91 321.954 360.899C319.901 350.539 318.594 340.046 318.044 329.499C350.76 330.401 377.652 322.894 403.415 305.986C427.98 289.862 452.098 264.564 476.355 229.337C483.457 235.994 491.288 243.33 499.444 250.99Z" fill="white"/>
<path d="M593.4 340.494C584.327 349.313 577.518 360.509 572.005 371.815C567.26 381.604 563.428 391.809 560.56 402.302C554.47 424.545 552.448 447.705 554.593 470.667C556.045 485.978 559.228 501.076 564.081 515.671L564.863 514.717C544.622 519.301 523.929 521.596 503.175 521.558C492.766 521.472 482.378 520.589 472.104 518.916C466.926 518.07 461.793 517.005 456.703 515.719C454.38 515.137 452.074 514.489 449.778 513.805C448.554 513.441 447.333 513.064 446.117 512.673C445.43 512.532 444.81 512.164 444.357 511.629C432.76 500.98 421.184 490.307 409.63 479.611C397.217 468.133 384.811 456.647 372.414 445.151C362.723 436.172 353.036 427.19 343.353 418.205L340.828 415.864C340.361 415.431 338.763 415.942 339.117 416.697C339.398 417.299 339.679 417.896 339.959 418.491L341.812 417.798C334.195 401.928 328.389 385.253 324.503 368.085C320.595 351.542 318.689 334.589 318.826 317.591C318.831 308.071 320.02 298.588 322.368 289.361L321.306 290.163C342.478 288.224 363.245 282.226 381.497 271.184C397.229 261.473 410.914 248.787 421.783 233.837C430.148 222.533 437.039 210.318 443.515 197.862L441.7 198.17C445.478 201.947 449.52 205.496 453.423 209.143C456.068 211.614 458.711 214.086 461.354 216.558C462.356 217.496 463.75 218.719 464.546 219.449C465.588 220.403 466.618 221.492 467.667 222.472C468.977 223.696 470.285 224.922 471.591 226.149C472.23 226.75 472.87 227.348 473.511 227.941C473.79 228.201 474.067 228.462 474.345 228.723L475.187 229.511L475.371 229.41C475.436 229.469 475.428 229.742 475.54 229.849C475.841 230.132 476.137 230.412 476.437 230.691L478.141 232.283C479.6 233.65 481.058 235.017 482.515 236.385C488.212 241.729 493.911 247.074 499.614 252.418C520.966 272.459 542.274 292.534 563.536 312.642C564.673 313.718 565.843 314.785 566.985 315.839C567.085 315.939 567.377 315.839 567.46 315.903C567.155 316.054 567.147 316.2 567.435 316.341L568.062 316.942C568.698 317.543 569.335 318.147 569.973 318.753C572.863 321.486 575.743 324.231 578.612 326.988C583.547 331.709 588.498 336.419 593.333 341.245C593.978 341.887 595.806 341.077 595.102 340.375C590.854 336.135 586.525 331.973 582.183 327.83C579.82 325.578 577.47 323.314 575.1 321.069C573.884 319.916 572.675 318.755 571.457 317.603C570.354 316.557 569.001 315.539 567.987 314.464L567.875 314.436C567.491 314.444 567.54 314.412 568.023 314.341C567.85 314.138 567.656 313.953 567.445 313.79C566.91 313.286 566.375 312.782 565.841 312.277C564.623 311.128 563.409 309.976 562.198 308.82C559.611 306.365 557.02 303.914 554.424 301.467C548.976 296.33 543.531 291.19 538.088 286.047C527.452 276.034 516.805 266.025 506.15 256.021C500.401 250.63 494.656 245.238 488.912 239.844L480.701 232.151C479.661 231.177 478.128 229.954 477.328 229.178C476.318 228.199 475.242 227.034 474.166 226.029C472.561 224.534 470.968 223.03 469.367 221.534L467.229 219.536C466.951 219.277 466.678 219.009 466.395 218.754C466.489 219.19 466.518 219.249 466.481 218.93L466.397 218.754C463.489 216.063 460.613 213.343 457.722 210.638C452.985 206.201 448.058 201.899 443.467 197.31C443.334 197.193 443.178 197.108 443.008 197.059C442.838 197.011 442.66 197.001 442.485 197.03C442.311 197.06 442.146 197.128 442.002 197.23C441.858 197.331 441.738 197.464 441.652 197.618C431.453 217.237 419.955 236.257 404.013 251.803C390.899 264.651 375.182 274.543 357.922 280.811C346.153 284.972 333.902 287.619 321.464 288.688C321.225 288.692 320.994 288.772 320.803 288.916C320.613 289.06 320.472 289.261 320.403 289.489C315.885 306.106 316.125 324.137 317.961 341.129C319.831 358.414 323.583 375.445 329.152 391.916C332.226 401.05 335.864 409.984 340.044 418.667C340.4 419.404 342.261 418.749 341.897 417.973C341.618 417.372 341.337 416.774 341.055 416.179L339.345 417.013C348.625 425.621 357.906 434.228 367.186 442.835C379.581 454.326 391.982 465.811 404.39 477.292C416.33 488.336 428.284 499.364 440.252 510.376C441.313 511.544 442.477 512.613 443.73 513.572C444.676 514.014 445.669 514.344 446.691 514.557C448.006 514.964 449.327 515.358 450.651 515.737C455.427 517.114 460.271 518.26 465.143 519.245C475.425 521.272 485.852 522.486 496.325 522.875C516.607 523.541 536.899 521.855 556.793 517.851C559.615 517.306 562.429 516.723 565.236 516.104C565.614 516.021 566.167 515.603 566.018 515.15C557.8 490.578 554.473 464.636 556.223 438.787C557.705 417.538 562.861 396.706 571.463 377.218C577.279 364.167 584.713 351.138 595.035 341.108C595.904 340.264 594.046 339.866 593.4 340.494Z" fill="black"/>
<path d="M340.086 416.442C340.367 417.043 340.648 417.634 340.929 418.236C340.638 417.634 340.347 417.033 340.066 416.422C340.076 416.429 340.086 416.429 340.086 416.442Z" fill="white"/>
<path d="M397.852 132.227L396.149 134.068C385.164 145.944 385.893 164.471 397.776 175.449L916.298 654.489C928.181 665.467 946.719 664.739 957.703 652.863L959.406 651.022C970.391 639.146 969.662 620.619 957.78 609.641L439.257 130.601C427.374 119.623 408.836 120.351 397.852 132.227Z" fill="url(#paint0_linear)"/>
<path d="M958.62 650.81C954.38 655.395 949.76 659.09 943.599 660.731C936.895 662.483 929.78 661.712 923.609 658.562C921.018 657.189 918.628 655.47 916.502 653.452C914.111 651.252 911.725 649.047 909.344 646.838L874.437 614.59L818.063 562.509L747.046 496.897L668.061 423.927L588.2 350.151L514.755 282.3L453.871 226.049L412.876 188.177L402.042 178.168C399.225 175.801 396.68 173.131 394.452 170.205C386.654 158.956 388.145 143.869 397.273 133.907C401.55 129.241 406.441 125.649 412.699 124.168C419.72 122.542 427.097 123.653 433.327 127.275C436.4 129.256 439.244 131.571 441.808 134.177L470.464 160.654L522.111 208.367L590.376 271.434L668.111 343.253L747.987 417.045L823.917 487.189L888.565 546.91L934.809 589.632C941.949 596.228 949.088 602.824 956.228 609.419C968.076 620.411 969.647 638.552 958.62 650.804C957.838 651.674 959.709 651.757 960.197 651.214C965.558 645.301 968.35 637.503 967.959 629.533C967.568 621.563 964.027 614.075 958.114 608.714C955.781 606.549 953.444 604.389 951.102 602.235L915.917 569.737L858.714 516.885L786.571 450.241L706.649 376.405L626.091 301.984L552.048 233.579L491.664 177.795L452.09 141.234C443.461 133.263 435.219 123.66 422.768 122.372C411.416 121.196 401.397 126.533 394.281 135.098C390.497 139.687 388.165 145.299 387.584 151.217C387.002 157.136 388.198 163.093 391.018 168.33C393.343 172.58 396.646 175.631 400.105 178.826L428.771 205.306L481.258 253.796L550.417 317.689L629.102 390.381L710.163 465.268L786.452 535.747L850.822 595.215L896.125 637.068C902.487 642.945 908.799 648.88 915.212 654.704C919.863 659.018 925.737 661.786 932.027 662.626C943.173 664.052 952.793 659.228 960.196 651.223C960.99 650.363 959.114 650.276 958.62 650.81Z" fill="black"/>
<path d="M470.299 536.706C470.198 536.821 468.906 535.839 466.732 534.03C464.558 532.221 461.501 529.584 457.842 526.4C450.536 520.014 440.861 511.401 431.171 502.728L404.421 478.67L391.748 467.202C391.447 466.917 386.528 462.28 379.325 455.485L353.257 430.743L339.495 417.577L327.598 406.069C324.13 402.681 321.263 399.839 319.29 397.816C317.317 395.793 316.237 394.588 316.343 394.473C316.449 394.359 317.735 395.341 319.908 397.149C322.08 398.957 325.138 401.59 328.788 404.78L341.248 415.759L355.468 428.442L382.189 452.471L394.847 463.924L407.27 475.643L433.346 500.394C442.755 509.362 452.095 518.33 459.035 525.109C462.512 528.491 465.378 531.34 467.357 533.363C469.336 535.387 470.405 536.589 470.299 536.706Z" fill="black"/>
<path d="M327.767 426.346C327.365 426.825 305.999 409.787 305.659 409.505C305.319 409.224 284.609 391.42 285.006 390.941C285.403 390.462 306.763 407.487 307.099 407.769C307.435 408.05 328.165 425.866 327.767 426.346Z" fill="black"/>
<path d="M476.121 558.583C475.695 559.036 453.863 539.211 453.518 538.884C453.173 538.557 432.046 518.01 432.472 517.557C432.898 517.104 454.716 536.916 455.063 537.242C455.41 537.567 476.549 558.134 476.121 558.583Z" fill="black"/>
<path d="M468.641 219.582C468.216 220.037 442.141 196.472 441.725 196.085C441.31 195.699 415.945 171.413 416.365 170.958C416.784 170.503 442.846 194.049 443.263 194.435C443.679 194.821 469.066 219.125 468.641 219.582Z" fill="black"/>
<path d="M508.045 238.535C507.637 239.005 480.85 216.428 480.423 216.058C479.996 215.687 453.889 192.364 454.297 191.895C454.705 191.426 481.474 213.984 481.902 214.355C482.329 214.726 508.454 238.065 508.045 238.535Z" fill="black"/>
<path d="M581.538 280.612C581.108 281.062 550.386 252.465 549.896 251.997C549.406 251.529 519.403 222.223 519.832 221.773C520.261 221.323 550.963 249.898 551.453 250.366C551.943 250.834 581.968 280.161 581.538 280.612Z" fill="black"/>
<path d="M631.002 361.315C630.584 361.776 584.534 320.869 583.795 320.202C583.056 319.536 537.717 277.907 538.134 277.446C538.551 276.985 584.569 317.863 585.308 318.531C586.047 319.199 631.419 360.853 631.002 361.315Z" fill="black"/>
<path d="M660.39 366.238C659.966 366.694 641.54 350.242 641.245 349.971C640.949 349.699 623.224 332.521 623.648 332.066C624.072 331.611 642.49 348.049 642.782 348.32C643.073 348.592 660.818 365.786 660.39 366.238Z" fill="black"/>
<path d="M809.865 497.086C809.439 497.54 750.101 442.53 749.147 441.636C748.194 440.743 689.59 385.036 690.015 384.583C690.44 384.13 749.74 439.095 750.692 439.997C751.645 440.899 810.292 496.632 809.865 497.086Z" fill="black"/>
<path d="M823.178 538.561C822.756 539.019 788.829 508.528 788.285 508.029C787.742 507.53 754.522 476.319 754.943 475.863C755.365 475.407 789.27 505.874 789.812 506.372C790.355 506.87 823.599 538.102 823.178 538.561Z" fill="black"/>
<path d="M902.831 577.474C902.436 577.954 874.282 555.447 873.833 555.077C873.384 554.708 845.892 531.438 846.287 530.958C846.682 530.478 874.818 552.967 875.264 553.337C875.71 553.707 903.232 576.995 902.831 577.474Z" fill="black"/>
<path d="M910.283 604.308C909.912 604.809 894.801 594.218 894.562 594.04C894.324 593.861 879.824 582.47 880.197 581.971C880.57 581.472 895.668 592.053 895.907 592.23C896.146 592.407 910.651 603.808 910.283 604.308Z" fill="black"/>
<path d="M568.403 383.975L564.279 380.167L553.115 369.846L536.543 354.535L516.411 335.938L494.352 315.568L472.002 294.925L451.248 275.752L433.638 259.484L421.029 247.831C419.037 245.991 417.088 244.089 415.047 242.305C414.958 242.227 414.872 242.145 414.786 242.064C414.32 241.633 412.508 242.365 412.981 242.798L417.105 246.606L428.269 256.918L444.842 272.228L464.975 290.831L487.033 311.202L509.384 331.849L530.139 351.023L547.748 367.29L560.358 378.938C562.35 380.778 564.299 382.68 566.34 384.465C566.43 384.543 566.514 384.625 566.601 384.705C567.067 385.136 568.878 384.405 568.406 383.972L568.403 383.975Z" fill="black"/>
<path d="M391.798 239.965C391.912 240.042 391.106 241.498 389.677 243.555C387.891 246.058 385.92 248.425 383.782 250.635C381.602 252.858 379.276 254.931 376.817 256.841C374.782 258.418 373.308 259.381 373.227 259.459C373.126 259.496 371.644 260.454 369.374 261.664C366.629 263.129 363.789 264.407 360.872 265.49C357.983 266.54 355.02 267.374 352.007 267.984C349.546 268.451 347.889 268.594 347.865 268.458C347.833 268.288 349.431 267.857 351.792 267.133C354.674 266.242 357.507 265.199 360.279 264.01C363.05 262.786 365.746 261.398 368.353 259.854C370.501 258.579 371.898 257.6 371.998 257.563C372.074 257.487 373.537 256.609 375.58 255.168C378.054 253.416 380.422 251.519 382.672 249.487C384.89 247.44 386.998 245.277 388.988 243.009C390.608 241.15 391.655 239.867 391.798 239.965Z" fill="black"/>
<path d="M456.538 128.06C456.406 128.16 455.691 127.439 454.633 126.376C453.575 125.313 452.12 123.939 450.599 122.648C449.189 121.473 447.72 120.371 446.198 119.346C444.943 118.504 444.051 117.986 444.005 117.943C443.945 117.921 443.103 117.323 441.82 116.53C440.258 115.568 438.648 114.687 436.997 113.89C435.192 113.039 433.345 112.287 431.937 111.759C430.53 111.231 429.581 110.879 429.616 110.718C430.474 110.597 431.347 110.665 432.175 110.918C434.022 111.282 435.839 111.784 437.611 112.421C439.403 113.077 441.152 113.846 442.845 114.726C444.249 115.454 445.164 116.028 445.227 116.052C445.276 116.098 446.177 116.698 447.421 117.673C448.923 118.852 450.347 120.125 451.685 121.487C452.999 122.837 454.209 124.285 455.305 125.817C456.175 127.071 456.653 127.973 456.538 128.06Z" fill="black"/>
<path d="M466.342 123.979C466.081 124.157 463.716 121.221 460.99 118.634C459.624 117.344 458.22 116.096 457.104 115.209C455.988 114.322 455.214 113.74 455.174 113.695C455.121 113.666 454.392 113.026 453.276 112.143C452.16 111.26 450.644 110.151 449.088 109.099C445.971 107.004 442.592 105.337 442.709 105.043C442.826 104.749 446.465 105.92 449.898 107.726C451.48 108.555 453.016 109.469 454.5 110.463C455.728 111.287 456.531 111.905 456.585 111.935C456.627 111.981 457.405 112.631 458.478 113.65C459.772 114.882 461 116.183 462.155 117.546C464.667 120.504 466.598 123.813 466.342 123.979Z" fill="black"/>
<path d="M942.576 672.976C941.78 673.317 940.919 673.48 940.053 673.453C938.173 673.583 936.285 673.571 934.407 673.417C932.505 673.252 930.615 672.965 928.75 672.557C927.206 672.219 926.169 671.905 926.103 671.898C926.044 671.865 925.017 671.522 923.563 670.905C921.805 670.159 920.097 669.301 918.45 668.336C916.83 667.376 915.285 666.295 913.828 665.103C912.656 664.115 911.957 663.37 912.048 663.256C912.148 663.126 913.028 663.633 914.329 664.383C915.63 665.132 917.39 666.078 919.195 666.926C920.861 667.692 922.565 668.373 924.301 668.965C925.732 669.451 926.727 669.718 926.783 669.75C926.847 669.757 927.814 670.113 929.263 670.545C931.023 671.067 932.808 671.498 934.612 671.837C936.576 672.188 938.559 672.438 940.057 672.575C941.555 672.713 942.569 672.811 942.576 672.976Z" fill="black"/>
<path d="M945.665 683.131C945.698 683.432 941.916 684.051 938.035 683.996C936.247 683.973 934.462 683.854 932.687 683.64C931.218 683.462 930.223 683.274 930.16 683.272C930.101 683.249 929.115 683.025 927.697 682.602C925.985 682.091 924.302 681.489 922.655 680.798C919.076 679.295 915.858 677.228 916.009 676.963C916.16 676.699 919.599 678.23 923.2 679.3C925.005 679.83 926.819 680.302 928.213 680.592C929.608 680.881 930.562 681.045 930.62 681.067C930.68 681.067 931.622 681.309 933.017 681.591C934.412 681.872 936.269 682.175 938.13 682.408C941.865 682.861 945.635 682.815 945.665 683.131Z" fill="black"/>
<path d="M781.999 425.542C781.612 426.03 769.165 416.824 768.973 416.667C768.78 416.511 756.97 406.52 757.356 406.033C757.742 405.546 770.178 414.745 770.374 414.9C770.571 415.054 782.386 425.054 781.999 425.542Z" fill="black"/>
<path d="M797.576 427.771C797.175 428.244 785.786 419.214 785.607 419.061C785.429 418.909 774.705 409.117 775.108 408.64C775.511 408.163 786.891 417.189 787.07 417.342C787.25 417.494 797.98 427.296 797.576 427.771Z" fill="black"/>
<path d="M751.532 521.477C751.098 521.924 739.642 511.516 739.463 511.342C739.283 511.169 728.534 500.043 728.971 499.597C729.408 499.151 740.854 509.549 741.034 509.724C741.213 509.898 751.969 521.03 751.532 521.477Z" fill="black"/>
<path d="M755.772 536.623C755.355 537.085 744.242 527.726 744.063 527.569C743.885 527.411 733.456 517.309 733.874 516.849C734.291 516.388 745.404 525.739 745.575 525.896C745.747 526.053 756.19 536.161 755.772 536.623Z" fill="black"/>
<path d="M434.7 529.837C434.298 530.312 421.4 520.095 421.197 519.924C420.993 519.753 408.756 508.772 409.158 508.3C409.56 507.828 422.449 518.033 422.652 518.204C422.854 518.376 435.101 529.361 434.7 529.837Z" fill="black"/>
<defs>
<linearGradient id="paint0_linear" x1="376.26" y1="155.572" x2="419.788" y2="108.456" gradientUnits="userSpaceOnUse">
<stop offset="0.177083" stop-color="#8F6AFA"/>
<stop offset="0.651042" stop-color="#375CDC"/>
<stop offset="1" stop-color="#0099EE"/>
</linearGradient>
</defs>
</svg>
