<svg width="1000" height="1000" viewBox="0 0 1000 1000" fill="none" xmlns="http://www.w3.org/2000/svg">
<path d="M945.252 828.031C923.881 823.335 881.136 785.023 866.54 764.562C851.944 744.101 859.247 702.015 879.572 678.576C880.447 677.659 881.121 676.569 881.551 675.376C881.981 674.184 882.158 672.915 882.07 671.65V671.65C884.568 658.107 872.692 647.66 870.181 635.148C867.67 622.637 891.031 591.359 898.329 587.189C905.626 583.018 896.244 569.986 897.287 563.73C898.329 557.474 903.02 541.314 897.287 530.888C891.553 520.461 882.179 499.61 846.732 490.443C919.71 536.534 870.45 599.179 857.94 612.212C845.43 625.245 844.063 633.78 857.94 647.271C830.892 629.53 790.656 609.281 789.393 587.188C787.308 550.696 811.286 535.057 815.978 530.887C795.648 538.185 770.627 562.686 770.627 587.188C770.627 611.689 803.206 612.992 803.467 628.892C803.728 644.791 844.131 649.223 852.466 664.341C860.801 679.459 851.945 696.14 839.435 709.173C826.924 722.205 817.542 739.088 838.392 752.802C859.242 766.517 852.466 780.591 847.254 785.283C842.041 789.975 875.993 805.132 854.847 821.534C829.983 825.543 789.098 827.113 776.362 825.293C762.674 823.338 750.558 835.85 728.274 833.504C705.99 831.158 659.076 827.248 637.965 831.158C616.854 835.067 522.769 844.447 507.649 844.447H482.628C482.628 844.447 399.484 834.673 355.306 844.447H330.286C330.286 844.447 256.395 849.921 207.918 836.236C159.441 822.552 176.903 808.613 127.642 812.132C78.3819 815.651 64.0478 817.083 53.1007 826.858C42.1536 836.633 54.0139 837.549 71.606 853.577C89.1981 869.605 99.1032 873.38 116.696 865.956C134.289 858.531 173.123 853.053 195.408 865.956C202.952 870.324 212.383 872.662 222.418 873.722C205.312 879.64 179.77 886.483 172.993 896.355C166.217 906.227 169.866 917.695 148.494 926.557C127.121 935.419 104.708 932.813 94.804 951.58C110.181 937.114 132.335 935.42 148.494 935.941C164.652 936.463 182.163 926.296 183.202 914.828C184.241 903.359 186.026 893.194 211.046 892.672C236.066 892.151 251.838 873.888 267.41 872.345C267.81 872.305 268.178 872.258 268.516 872.205C272.161 871.743 275.584 871.259 278.681 870.807C300.961 867.523 363.517 876.907 378.374 879.253C393.231 881.598 423.333 865.178 446.008 865.964C468.682 866.749 520.235 866.532 545.31 870.26C570.386 873.988 576.582 858.922 603.171 858.14C629.76 857.358 675.497 862.437 695.436 858.923C715.375 855.408 767.535 849.267 799.82 858.923C834.928 869.423 853.771 869.479 879.183 865.96C904.595 862.441 941.741 860.028 949.948 863.58C958.155 867.132 976.92 828.418 945.252 828.031Z" fill="url(#paint0_linear)"/>
<path d="M945.856 827.553C934.541 824.914 924.244 817.327 915.116 810.481C903.893 802.025 893.32 792.738 883.488 782.699C875.495 774.571 866.385 765.638 862.658 754.606C858.281 741.651 859.361 727.088 862.678 714.026C864.741 705.755 867.921 697.803 872.131 690.391C874.134 686.878 876.411 683.53 878.943 680.377C881.261 677.506 883.099 675.243 883.039 671.391L881.47 672.126C881.847 672.185 882.956 672.026 883.034 671.509C884.449 662.217 879.818 654.473 875.709 646.53C872.092 639.536 869.82 633.459 872.356 625.787C874.774 618.47 878.928 611.682 883.256 605.36C887.08 599.773 891.255 594.069 896.283 589.49C897.611 588.281 899.402 587.434 900.579 586.112C902.693 583.748 902.188 580.312 901.523 577.494C900.723 574.127 899.306 570.931 898.575 567.548C897.761 563.773 898.955 560.194 899.65 556.485C901.243 547.983 902.299 538.626 898.252 530.633C896.25 526.639 894.002 522.773 891.521 519.057C881.16 503.684 865.144 494.709 847.5 490.013C847.183 489.928 845.263 490.449 845.823 490.806C859.652 499.652 872.561 510.998 879.533 526.177C884.545 537.306 886.049 549.698 883.845 561.703C880.672 579.837 870.856 597.002 858.592 610.562C854.162 615.458 848.796 620.488 847.385 627.229C846.717 630.699 847.266 634.292 848.938 637.404C850.988 641.429 854.616 643.998 857.038 647.63L858.836 646.911C848.009 639.84 836.833 633.322 826.028 626.214C816.137 619.709 805.979 612.739 798.247 603.658C790.236 594.25 789.148 584.154 790.997 572.127C792.514 562.043 796.592 552.518 802.841 544.461C806.894 539.265 811.821 535.291 816.728 530.997C817.507 530.316 815.929 530.433 815.603 530.554C801.452 535.822 788.884 546.213 780.158 558.46C772.428 569.308 765.33 585.859 772.487 598.7C777.709 608.069 788.073 611.989 796.066 618.417C797.896 619.74 799.421 621.441 800.537 623.405C801.654 625.368 802.336 627.549 802.537 629.798C803.11 634.174 806.187 637.269 809.656 639.727C819.6 646.771 831.848 649.754 842.226 656.067C847.727 659.415 851.843 663.491 853.716 669.836C856.521 679.364 853.178 689.146 848.068 697.244C840.607 709.066 824.955 719.018 825.155 734.524C825.378 751.97 848.588 754.314 851.412 770.611C851.806 773.023 851.658 775.493 850.977 777.84C850.297 780.188 849.101 782.354 847.477 784.181C845.566 786.354 845.365 787.257 847.243 789.721C852.46 796.565 863.834 803.609 860.264 813.742C859.2 816.762 856.481 820.416 853.359 821.322C849.662 822.394 845.266 822.442 841.442 822.861C832.779 823.809 824.082 824.465 815.38 824.919C801.95 825.554 788.494 825.459 775.074 824.635C769.811 824.342 764.705 825.933 759.788 827.614C751.552 830.426 743.459 833.239 734.64 833.309C727.373 833.365 719.978 832.11 712.737 831.49C705.246 830.845 697.746 830.304 690.238 829.867C675.323 829.015 660.182 828.324 645.279 829.733C636.631 830.552 628.028 832.302 619.402 833.388C594.204 836.564 568.916 839.117 543.624 841.407C523.563 843.222 503.305 844.989 483.139 843.964C478.713 843.74 472.471 842.853 467.517 842.421C455.312 841.355 443.085 840.575 430.836 840.081C415.797 839.494 400.712 839.355 385.681 840.224C378.904 840.616 372.131 841.209 365.412 842.189C361.161 842.808 357.046 843.964 352.755 843.964C306.764 843.964 260.278 848.27 215.019 837.45C200.215 833.911 186.232 828.549 173.465 820.241C165.587 815.114 158.161 811.973 148.648 811.315C131.558 810.132 113.933 812.496 96.9141 814.074C86.4015 815.05 75.4704 815.935 65.4025 819.341C59.6217 821.29 50.8886 825.408 48.3989 831.442C46.7433 835.452 50.5969 838.257 53.4393 840.421C60.6588 845.917 67.6455 851.424 74.5412 857.336C85.5933 866.813 97.1638 872.88 111.742 868.262C118.385 866.158 124.609 863.398 131.45 861.847C139.664 859.99 148.041 858.946 156.459 858.729C164.976 858.385 173.499 859.24 181.778 861.269C189.816 863.367 196.534 868.094 204.368 870.655C208.526 871.985 212.787 872.969 217.108 873.598C218.159 873.649 219.204 873.791 220.232 874.02C220.931 874.285 220.964 873.776 219.773 874.167C217.222 875.005 214.678 875.858 212.126 876.695C204.243 879.284 196.315 881.853 188.71 885.188C183.415 887.514 177.689 890.192 173.658 894.471C170.174 898.168 168.789 903.12 167.043 907.76C160.619 924.837 142.389 928.771 126.328 932.595C113.452 935.661 100.671 939.39 93.8438 951.718C93.5441 952.266 95.3585 951.878 95.5653 951.69C103.992 943.992 114.458 939.644 125.632 937.729C134.524 936.204 143.256 936.982 152.161 936.342C165.639 935.376 182.734 927.888 184.339 912.871C184.901 907.616 185.982 902.139 190.181 898.514C197.359 892.319 207.811 893.841 216.511 892.719C224.451 891.698 231.971 888.863 239.106 885.319C246.712 881.539 253.957 876.469 262.109 873.906C269.126 871.701 277.424 871.049 284.788 870.714C291.785 870.479 298.789 870.626 305.769 871.153C321.804 872.172 337.786 874.072 353.704 876.215C359.713 877.025 365.715 877.882 371.712 878.786C376.439 879.5 380.877 880.244 385.679 879.648C403.342 877.449 419.624 868.89 437.374 866.827C444.725 865.973 452.26 866.642 459.647 866.782C468.42 866.948 477.195 867.082 485.968 867.282C503.367 867.67 520.861 868.031 538.178 869.906C545.708 870.721 552.964 872.004 560.523 870.614C567.262 869.377 573.391 866.409 579.681 863.828C596.79 856.81 615.127 858.432 633.202 859.223C651.086 860.004 669.182 861.521 687.076 860.311C700.92 859.373 714.616 856.39 728.487 855.303C747.294 853.828 766.516 853.39 785.21 856.302C794.872 857.809 804.084 860.993 813.555 863.325C823.064 865.755 832.761 867.375 842.543 868.168C858.749 869.341 874.486 866.779 890.533 864.996C907.931 863.062 926.694 860.634 944.184 862.879C947.101 863.253 950 864.94 952.901 863.84C955.998 862.666 958.244 859.568 959.851 856.833C963.947 849.851 966.537 838.911 960.175 832.405C956.418 828.564 950.783 827.678 945.654 827.539C944.997 827.521 943.58 828.482 944.872 828.517C951.144 828.688 958.01 830.447 960.779 836.693C962.725 841.09 962.178 846.233 960.779 850.696C959.501 854.765 957.326 859.376 953.9 862.086C951.047 864.348 945.615 861.864 942.145 861.613C925.593 860.414 908.62 862.124 892.17 863.911C874.756 865.798 857.728 868.636 840.153 866.908C830.088 865.826 820.126 863.932 810.366 861.245C801.54 858.9 793.003 856.234 783.928 854.984C766.072 852.523 747.823 852.898 729.894 854.275C716.127 855.332 702.561 858.194 688.84 859.262C671.755 860.592 654.419 859.162 637.341 858.392C620.877 857.649 602.917 855.487 586.892 860.302C580.307 862.281 574.216 865.481 567.749 867.768C558.857 870.911 550.526 870.257 541.352 869.172C524.974 867.237 508.389 866.837 491.916 866.425C476.367 866.035 460.786 865.553 445.233 865.439C427.817 865.312 411.307 872.746 394.697 876.964C388.44 878.725 381.882 879.153 375.449 878.22C369.924 877.37 364.392 876.564 358.855 875.802C330.764 871.918 301.531 867.252 273.232 871.132C266.302 872.082 260.362 873.217 254.04 876.327C246.447 880.063 239.296 884.642 231.427 887.825C226.748 889.766 221.839 891.097 216.821 891.784C211.725 892.435 206.581 892.17 201.5 893.05C196.458 893.924 191.122 895.594 187.494 899.403C184.297 902.757 183.165 907.245 182.593 911.717C182.149 915.194 181.923 918.236 179.979 921.315C177.434 925.344 173.421 928.378 169.271 930.595C159.517 935.806 149.775 935.057 139.182 935.466C131.184 935.677 123.251 936.953 115.591 939.263C107.605 941.708 100.253 945.876 94.0536 951.473L95.7751 951.445C102.017 940.176 113.52 936.564 125.313 933.727C136.104 931.13 147.493 928.823 156.975 922.744C163.705 918.429 167.166 912.529 169.805 905.192C171.13 901.512 172.494 897.708 175.167 894.763C178.778 890.785 184.059 888.268 188.884 886.113C194.738 883.5 200.809 881.383 206.883 879.344C212.078 877.6 218.1 876.41 223.012 873.948C223.374 873.769 223.601 873.308 223.033 873.249C214.18 872.25 205.334 870.402 197.403 866.199C191.619 863.018 185.391 860.721 178.927 859.386C165.631 856.765 151.652 857.35 138.348 859.613C132.598 860.555 126.929 861.936 121.39 863.745C114.585 866.014 108.185 869.418 100.793 869.106C92.8897 868.774 85.9939 864.372 79.9693 859.614C73.0756 854.167 66.7863 848.109 59.6607 842.928C56.7503 840.813 49.9984 837.396 49.8695 833.157C49.7476 829.261 54.9439 825.802 57.8983 823.882C64.5852 819.536 72.7329 818.016 80.4919 816.867C95.3914 814.663 110.511 813.819 125.522 812.75C137.658 811.887 151.389 810.529 162.813 815.756C170.62 819.328 177.322 824.972 185.112 828.671C198.423 834.991 212.978 838.705 227.459 841.169C254.283 845.733 281.801 846.507 308.958 845.859C321.752 845.553 334.416 844.947 347.223 844.947C349.887 844.947 352.654 845.166 355.306 844.9C361.455 844.281 367.558 842.701 373.745 842.078C387.381 840.82 401.078 840.342 414.768 840.647C435.881 840.937 457.008 842.293 478.011 844.489C491.29 845.878 505.013 845.314 518.325 844.396C539.605 842.928 560.844 840.772 582.054 838.541C600.661 836.583 619.37 834.774 637.823 831.628C650.511 829.464 663.633 829.796 676.449 830.24C690.717 830.733 704.967 831.786 719.178 833.131C725.496 833.731 731.779 834.63 738.137 834.075C744.211 833.401 750.18 831.992 755.913 829.878C762.407 827.649 768.767 825.064 775.765 825.771C780.12 826.21 784.448 826.458 788.828 826.515C802.598 826.693 816.403 825.991 830.123 824.853C837.225 824.264 844.321 823.537 851.376 822.513C856.02 821.839 859.03 819.601 861.346 815.319C865.773 807.143 859.02 799.467 853.596 793.868C852.076 792.299 847.593 788.972 847.696 786.46C847.748 785.2 849.24 784.233 849.987 783.263C851.081 781.842 851.953 780.263 852.572 778.58C857.276 765.74 845.478 757.355 836.698 750.591C830.859 746.095 826.448 739.753 827.167 732.102C827.784 725.531 831.519 719.584 835.559 714.557C844.968 702.846 857.496 691.793 856.658 675.294C856.026 662.867 847.435 656.645 837.196 651.67C827.782 647.096 816.152 643.948 808.446 636.566C804.938 633.207 805.21 630.282 804.082 626.004C803.137 622.423 800.405 619.688 797.587 617.461C790.015 611.483 780.403 607.68 775.065 599.229C767.39 587.08 773.547 570.905 780.8 560.094C789.299 547.422 801.975 536.56 816.352 531.218L815.228 530.774C811.171 534.32 807.005 537.579 803.427 541.651C797.017 548.924 792.461 557.64 790.149 567.056C787.629 577.397 786.608 589.503 792.419 598.891C798.553 608.801 808.582 616.177 817.996 622.718C830.68 631.538 844.121 639.187 857.049 647.629C857.448 647.889 859.284 647.559 858.847 646.91C856.449 643.313 852.904 640.915 850.874 636.885C849.059 633.543 848.589 629.634 849.559 625.957C851.33 619.603 856.407 614.966 860.662 610.219C865.904 604.328 870.529 597.917 874.466 591.085C885.401 572.226 891.038 549.419 882.683 528.458C876.071 511.872 862.383 499.511 847.639 490.08L845.962 490.873C862.247 495.209 877.395 503.177 887.665 516.858C890.623 520.94 893.264 525.242 895.566 529.727C899.851 537.736 899.554 546.313 898.045 555.076C897.51 558.182 896.417 561.43 896.267 564.589C896.115 567.77 897.475 570.969 898.42 573.949C899.387 576.994 900.986 580.991 899.894 584.195C899.083 586.577 896.098 588.008 894.299 589.705C884.633 599.059 876.957 610.27 871.732 622.665C868.735 629.815 868.421 635.274 871.571 642.475C875.755 652.04 882.808 660.734 881.125 671.786L882.689 671.171C882.25 671.102 881.11 671.306 881.12 671.906C881.197 676.694 877.608 679.663 874.995 683.251C873.055 685.927 871.282 688.721 869.687 691.617C866.055 698.212 863.222 705.217 861.248 712.483C857.681 725.496 856.334 740.013 860.122 753.139C863.319 764.23 871.549 772.849 879.35 780.996C889.296 791.394 900.024 801.014 911.44 809.772C921.241 817.28 932.405 825.65 944.662 828.509C945.189 828.633 946.9 827.797 945.856 827.553Z" fill="black"/>
<path d="M853.627 822.187C863.291 821.357 873.072 820.836 882.712 822.221C885.401 822.593 888.06 823.152 890.67 823.896C893.357 824.678 895.89 825.82 898.509 826.794C902.322 828.315 906.327 829.303 910.409 829.732C911.986 829.949 913.59 829.873 915.139 829.508C916.312 829.139 915.958 827.746 914.767 828.121C914.543 828.211 914.303 828.256 914.061 828.253C913.196 828.34 912.326 828.357 911.458 828.302C907.317 827.923 903.254 826.934 899.401 825.369C896.856 824.414 894.388 823.315 891.772 822.552C889.338 821.851 886.862 821.304 884.359 820.915C879.227 820.15 874.04 819.81 868.852 819.897C863.817 819.937 858.795 820.283 853.781 820.713C852.676 820.808 852.314 822.301 853.627 822.189V822.187Z" fill="black"/>
<path d="M220.843 874.304C224.375 874.304 227.91 874.163 231.433 873.93C234.41 873.792 237.375 873.458 240.308 872.931C240.616 872.869 241.241 872.554 241.133 872.15C241.017 871.72 240.321 871.826 240.027 871.885C237.266 872.367 234.476 872.668 231.676 872.784C228.313 873.006 224.943 873.136 221.573 873.14C221.173 873.14 220.496 873.265 220.303 873.682C220.12 874.073 220.458 874.304 220.841 874.304H220.843Z" fill="black"/>
<path d="M584.858 838.332C597.069 837.433 609.331 837.463 621.538 838.421C630.394 839.149 639.18 840.471 648.014 841.426C658.647 842.576 669.265 842.472 679.949 842.444C694.736 842.403 709.523 842.211 724.283 841.444C748.062 840.208 771.709 837.028 795.447 835.187C806.599 834.32 817.784 833.588 828.973 833.505C842.329 833.405 855.556 834.952 868.737 836.975C896.165 841.186 924.486 846.986 952.036 840.333C955.242 839.552 958.404 838.601 961.509 837.484C962.775 837.031 961.628 836.329 960.736 836.647C933.281 846.455 903.645 841.244 875.692 836.801C862.015 834.628 848.26 832.587 834.386 832.386C823.915 832.234 813.43 832.822 802.988 833.54C780.119 835.114 757.374 838.088 734.515 839.721C719.563 840.788 704.572 841.148 689.587 841.266C677.66 841.366 665.629 841.784 653.732 840.779C645.198 840.058 636.727 838.74 628.212 837.847C617.247 836.69 606.216 836.301 595.197 836.683C591.832 836.802 588.47 836.988 585.106 837.223C584.138 837.29 583.517 838.422 584.854 838.334L584.858 838.332Z" fill="black"/>
<path d="M847.311 833.654C830.693 839.049 813.448 842.374 796.164 844.767C777.625 847.333 758.941 848.799 740.253 849.708C722.254 850.584 704.233 850.923 686.214 851.06C669.852 851.183 653.509 851.286 637.172 852.345C621.126 853.384 604.627 854.818 589.155 859.449C587.623 859.908 586.105 860.411 584.603 860.957C584.31 861.064 583.853 861.391 584.088 861.734C584.323 862.078 585.087 861.858 585.366 861.754C592.226 859.4 599.291 857.693 606.469 856.659C614.924 855.288 623.454 854.406 631.995 853.761C648.435 852.515 664.901 852.284 681.379 852.184C699.163 852.077 716.947 851.799 734.711 851.026C753.301 850.217 771.887 848.905 790.353 846.573C807.681 844.384 824.996 841.345 841.773 836.416C843.714 835.847 845.645 835.247 847.567 834.618C848.692 834.252 848.467 833.272 847.308 833.648L847.311 833.654Z" fill="black"/>
<path d="M793.607 858.064C803.793 859.787 814.184 859.929 824.414 858.482C830.77 857.523 837.202 855.613 843.677 855.896C848.384 856.095 852.932 857.663 857.582 858.339C864.178 859.246 870.841 859.574 877.495 859.319C891.337 858.892 905.025 856.587 918.741 854.859C925.673 853.986 932.718 853.043 939.722 853.097C946.074 853.147 952.519 854.361 957.438 858.642C958.062 859.186 959.758 858.269 958.93 857.548C950.159 849.914 937.177 851.482 926.504 852.602C912.568 854.065 898.748 856.553 884.763 857.57C877.804 858.137 870.811 858.152 863.85 857.614C860.418 857.325 857.006 856.843 853.628 856.169C851.411 855.723 849.232 855.077 846.991 854.766C840.633 853.882 834.338 855.413 828.108 856.526C816.923 858.489 805.487 858.547 794.283 856.696C793.354 856.548 792.313 857.859 793.605 858.064H793.607Z" fill="black"/>
<path d="M904.47 827.145C898.974 825.102 894.839 820.926 890.745 816.901C885.893 812.312 880.785 808.002 875.446 803.992C872.604 801.768 869.762 799.543 866.92 797.317C864.581 795.484 862.025 793.442 861.117 790.481C859.471 785.086 863.855 779.897 864.991 774.832C866.234 769.291 863.293 764.251 859.212 760.704C854.63 756.722 848.807 754.675 843.852 751.25C838.657 747.659 834.637 742.42 833.876 736.028C833.515 731.742 834.054 727.428 835.458 723.363C837.624 716.926 840.541 710.767 844.15 705.013C844.657 704.162 842.706 704.251 842.329 704.885C839.109 710.108 836.401 715.632 834.245 721.377C832.725 725.317 831.893 729.488 831.785 733.709C831.793 736.648 832.412 739.553 833.603 742.239C834.794 744.925 836.531 747.333 838.704 749.311C842.978 753.386 848.423 755.606 853.406 758.631C858.244 761.569 863.411 766.324 863.362 772.461C863.317 778.128 858.837 782.727 858.825 788.381C858.812 794.631 865.344 798.286 869.67 801.676C875.93 806.58 882.377 811.268 888.076 816.833C892.672 821.322 897.168 826.025 903.32 828.317C904.03 828.581 905.576 827.558 904.468 827.145H904.47Z" fill="black"/>
<path d="M856.141 758.419C849.785 751.924 844.891 743.931 844.277 734.687C843.756 726.864 846.324 719.2 849.912 712.348C851.722 708.942 853.732 705.646 855.932 702.479C858.806 698.293 862.24 694.548 865.445 690.621C871.234 683.527 876.747 674.613 874.682 665.051C873.838 661.408 871.883 658.118 869.087 655.636C865.596 652.355 861.694 649.541 858.197 646.261C857.697 645.796 855.885 646.528 856.405 647.017C859.602 650.014 863.099 652.654 866.374 655.557C868.982 657.657 870.989 660.409 872.193 663.534C875.467 673.126 870.066 682.595 864.212 689.885C861.131 693.72 857.779 697.339 854.906 701.339C852.529 704.645 850.37 708.102 848.443 711.69C844.922 718.254 842.281 725.472 842.277 733.004C842.271 743.176 847.39 752.067 854.349 759.175C854.821 759.657 856.647 758.94 856.142 758.419H856.141Z" fill="black"/>
<path d="M357.195 876.935C371.971 876.909 386.177 872.631 400.157 868.286C416.932 863.072 433.748 858.271 451.292 856.496C462.617 855.381 474.02 855.297 485.361 856.245C491.907 856.777 498.368 857.782 504.874 858.631C510.911 859.406 516.988 859.837 523.074 859.922C546.316 860.296 569.424 856.325 591.912 850.746C600.68 848.571 609.37 846.107 618.074 843.69C623.175 842.274 628.518 840.418 633.835 840.041C634.428 839.972 635.027 839.993 635.614 840.101C636.548 840.283 637.573 838.973 636.29 838.725C634.627 838.527 632.943 838.628 631.316 839.024C628.684 839.489 626.089 840.15 623.506 840.83C615.627 842.902 607.813 845.214 599.938 847.303C577.992 853.127 555.567 857.695 532.814 858.458C526.518 858.682 520.214 858.566 513.931 858.111C507.483 857.632 501.132 856.528 494.719 855.751C483.03 854.296 471.235 853.874 459.472 854.488C441.177 855.509 423.478 859.699 406.02 865.065C391.904 869.404 377.72 874.365 362.873 875.363C361.04 875.486 359.204 875.549 357.364 875.55C356.274 875.55 355.874 876.936 357.185 876.934L357.195 876.935Z" fill="black"/>
<path d="M409.412 840.685C417.668 841.241 425.855 842.571 433.862 844.659C438.399 845.937 442.808 847.627 447.433 848.587C455.413 850.242 463.695 850.358 471.811 850.331C478.934 850.307 486.071 849.764 493.192 849.982C500.722 850.302 508.218 851.186 515.617 852.628C523.004 853.98 530.324 855.683 537.725 856.959C543.186 857.901 548.955 858.802 554.481 857.878C554.805 857.824 555.549 857.635 555.572 857.2C555.595 856.766 555.054 856.695 554.728 856.749C549.739 857.584 544.538 856.814 539.601 855.986C533.093 854.896 526.653 853.431 520.176 852.176C513.153 850.742 506.054 849.716 498.913 849.102C491.404 848.533 483.91 849.038 476.395 849.147C467.645 849.275 458.693 849.342 450.049 847.774C445.367 846.925 440.928 845.31 436.381 843.956C427.855 841.419 418.99 840.303 410.15 839.536C409.372 839.469 408.114 840.572 409.414 840.685H409.412Z" fill="black"/>
<path d="M60.731 844.005C73.2457 834.281 87.9734 827.452 103.717 825.17C119.503 822.883 135.066 825.564 150.107 830.428C164.656 835.132 178.663 841.397 193.347 845.695C201.105 847.986 209.065 849.53 217.117 850.306C225.709 851.119 234.35 851.229 242.962 851.762C251.805 852.31 260.602 852.837 269.465 852.561C277.595 852.308 285.728 852.17 293.863 852.148C307.005 852.122 320.141 852.436 333.272 853.09C351.316 853.978 369.378 855.915 387.457 855.837C403.122 855.773 418.676 853.216 433.537 848.263C435.747 847.53 437.941 846.759 440.121 845.948C441.411 845.47 440.187 845.316 439.473 845.581C424.111 851.434 407.869 854.644 391.435 855.073C373.564 855.413 355.682 853.475 337.853 852.527C324.885 851.841 311.905 851.471 298.915 851.417C282.16 851.368 265.445 852.366 248.709 851.317C239.582 850.745 230.426 850.552 221.307 849.83C213.025 849.193 204.825 847.754 196.821 845.533C181.735 841.32 167.418 834.858 152.549 830.002C138.219 825.321 123.454 822.498 108.343 824.007C94.0469 825.503 80.2792 830.235 68.0854 837.847C64.9453 839.802 61.9105 841.922 58.9936 844.197C58.6359 844.475 60.3723 844.297 60.731 844.015V844.005Z" fill="black"/>
<path d="M99.1397 870.022C110.509 866.842 116.924 856.122 126.137 849.599C135.451 843.004 147.018 839.607 158.327 838.858C164.626 838.398 170.958 838.928 177.092 840.429C178.077 840.677 179.006 839.28 177.744 838.962C166.687 836.174 154.754 836.824 143.82 839.862C138.341 841.347 133.088 843.565 128.202 846.456C123.253 849.433 119.16 853.304 115.056 857.327C110.326 861.965 105.315 866.786 98.7661 868.618C97.5741 868.95 97.9408 870.349 99.1397 870.017V870.022Z" fill="black"/>
<path d="M229.916 851.208C251.274 858.52 273.924 861.544 296.426 862.136C316.043 862.652 335.7 862.357 355.22 864.734C365.739 866.014 376.339 867.975 386.192 871.977C386.723 872.193 388.49 871.395 387.742 871.094C379.104 867.774 370.097 865.511 360.917 864.353C350.91 862.988 340.839 862.148 330.744 861.835C310.514 861.046 290.262 861.674 270.136 859.082C256.986 857.47 244.032 854.536 231.471 850.324C231.242 850.26 231.003 850.245 230.769 850.28C230.534 850.314 230.309 850.397 230.109 850.524C229.909 850.655 229.47 851.055 229.921 851.21L229.916 851.208Z" fill="black"/>
<path d="M320.436 413.608C340.1 412.738 359.679 402.426 372.123 384.069C363.131 346.775 345.128 362.817 345.974 368.127C349.69 391.451 320.436 413.608 320.436 413.608Z" fill="url(#paint1_linear)"/>
<path d="M320.035 413.997C335.779 413.18 350.754 406.905 362.406 396.243C365.452 393.452 368.243 390.392 370.745 387.1C371.379 386.267 371.995 385.42 372.593 384.56C372.946 384.053 373.084 383.987 372.948 383.387C372.806 382.756 372.633 382.129 372.466 381.506C371.917 379.447 371.297 377.406 370.574 375.401C368.787 370.447 366.296 364.937 361.897 361.757C356.952 358.183 349.992 359.733 346.423 364.539C345.803 365.32 345.355 366.223 345.11 367.191C345.028 367.57 345.004 367.959 345.04 368.345C345.237 369.943 345.345 371.549 345.364 373.158C345.215 379.807 342.666 386.185 339.288 391.82C334.195 400.082 327.675 407.364 320.033 413.325C319.799 413.511 319.916 413.421 319.719 413.57C318.969 414.139 320.809 413.905 321.151 413.646C327.061 409.077 332.338 403.738 336.842 397.769C340.659 392.977 343.629 387.565 345.625 381.766C346.575 378.87 347.112 375.854 347.219 372.807C347.257 371.259 347.167 369.71 346.951 368.177C346.874 367.758 346.87 367.328 346.939 366.907C347.498 364.904 348.765 363.174 350.503 362.041C351.471 361.307 352.603 360.823 353.8 360.632C354.997 360.441 356.223 360.548 357.369 360.944C361.37 362.27 364.113 366.138 366.004 369.699C367.613 372.815 368.913 376.083 369.885 379.455C370.182 380.437 370.459 381.424 370.717 382.417C370.894 382.892 371.019 383.385 371.091 383.888C370.997 384.571 370.681 385.203 370.192 385.687C368.972 387.396 367.673 389.045 366.295 390.635C356.075 402.578 341.907 410.419 326.392 412.719C324.55 412.974 322.696 413.131 320.838 413.219C320.319 413.243 318.811 414.055 320.035 413.997Z" fill="black"/>
<path d="M324.731 333.755C312.367 338.41 278.188 363.391 292.266 398.715C300.611 385.395 358.612 384.543 351.32 352.816C344.534 337.173 324.731 333.755 324.731 333.755Z" fill="url(#paint2_linear)"/>
<path d="M324.375 333.415C316.605 336.366 309.526 341.899 303.73 347.762C295.865 355.72 289.727 365.806 288.312 377.086C287.465 384.518 288.503 392.044 291.33 398.965C291.556 399.537 292.887 399.078 293.12 398.711C294.498 396.55 296.772 395.124 298.983 393.947C302.125 392.356 305.377 390.995 308.713 389.872C316.631 387.026 324.725 384.617 332.411 381.143C339.155 378.094 346.38 374.075 350.273 367.491C352.073 364.438 352.977 360.937 352.88 357.391C352.916 355.117 352.416 352.868 351.421 350.825C350.118 348.362 348.456 346.108 346.491 344.137C340.769 338.602 333.564 334.859 325.758 333.368C325.609 333.339 325.46 333.306 325.309 333.28C324.768 333.183 323.132 334.054 324.153 334.229C330.752 335.46 336.945 338.31 342.182 342.524C346.17 345.755 350.158 350.286 350.835 355.543C351.347 359.16 350.8 362.849 349.263 366.161C346.04 372.904 339.018 377.063 332.513 380.09C324.979 383.592 317.013 386.01 309.194 388.767C305.793 389.914 302.459 391.254 299.21 392.782C296.661 393.894 294.343 395.476 292.376 397.447C292.015 397.842 291.689 398.268 291.401 398.719L293.191 398.464C290.679 392.326 289.571 385.7 289.946 379.074C290.38 373.398 291.918 367.862 294.474 362.78C299.045 353.56 306.431 345.792 314.762 339.88C317.949 337.523 321.419 335.579 325.09 334.093C325.345 333.997 325.821 333.723 325.601 333.401C325.382 333.079 324.619 333.322 324.375 333.415Z" fill="black"/>
<path d="M315.129 314.692C308.846 320.243 294.521 336.896 304.071 347.494C313.621 358.092 332.218 350.017 336.491 347.494C337.712 346.773 342.013 343.915 339.874 339.879C332.595 326.148 315.129 314.692 315.129 314.692Z" fill="#B2B2B2"/>
<path d="M314.508 314.249C311.61 316.839 308.988 319.724 306.684 322.858C303.936 326.372 301.866 330.372 300.583 334.65C299.506 338.664 299.716 342.968 302.101 346.484C303.412 348.299 305.074 349.83 306.988 350.985C308.902 352.14 311.028 352.895 313.24 353.207C320.754 354.464 329.033 352.143 335.72 348.71C338.429 347.321 341.716 344.953 341.377 341.495C341.153 339.227 339.306 336.918 338.045 335.112C336.514 332.933 334.84 330.859 333.036 328.902C327.931 323.291 322.155 318.334 315.841 314.144C315.134 313.68 313.516 314.653 314.411 315.241C319.06 318.352 323.423 321.874 327.447 325.765C331.006 329.078 334.186 332.778 336.929 336.796C338.129 338.601 340.058 340.982 339.357 343.285C338.749 344.816 337.623 346.083 336.177 346.863C333.925 348.184 331.53 349.242 329.039 350.017C325.3 351.347 321.37 352.056 317.403 352.115C313.198 352.237 309.096 350.789 305.891 348.052C304.377 346.684 303.225 344.96 302.54 343.034C301.854 341.108 301.656 339.042 301.962 337.02C302.579 332.329 305.015 327.956 307.719 324.163C310.051 320.86 312.745 317.83 315.751 315.131C316.694 314.297 315.225 313.613 314.508 314.249Z" fill="black"/>
<path d="M452.342 798.981C452.342 827.731 436.811 852.766 417.803 869.297C416.608 872.459 415.121 875.503 413.359 878.389C394.909 908.732 369.206 892.032 376.618 878.389C384.03 864.746 366.476 847.219 353.615 843.704H328.669C315.608 810.971 354.591 806.101 371.159 819.157C385.415 803.671 403.327 809.856 413.359 825.112C434.231 805.534 434.709 779.831 429.927 761.01C427.327 750.763 423.162 742.557 419.885 738.494C419.885 738.494 425.085 740.884 432.497 743.603C437.869 750.771 442.336 758.574 445.797 766.836C450.074 777.016 452.299 787.94 452.342 798.981V798.981Z" fill="#B1B1B1"/>
<path d="M451.379 799.092C451.331 817.769 444.653 835.734 433.787 850.798C431.164 854.433 428.314 857.899 425.253 861.175C423.733 862.802 422.164 864.384 420.547 865.919C419.836 866.592 419.117 867.256 418.391 867.91C417.568 868.505 416.921 869.31 416.517 870.242C413.198 878.591 407.639 887.18 399.78 891.91C395.145 894.698 389.412 895.869 384.26 893.802C380.382 892.251 377.087 888.951 376.401 884.723C376.084 882.656 376.427 880.541 377.382 878.679C378.945 875.775 379.585 872.463 379.216 869.185C378.319 861.847 373.164 855.373 367.702 850.731C364.914 848.324 361.811 846.308 358.479 844.738C356.896 843.847 355.144 843.298 353.335 843.127H329.037L329.635 843.444C327.685 838.508 326.347 833.044 327.343 827.734C328.062 823.828 330.182 820.318 333.305 817.862C339.874 812.69 349.411 812.172 357.301 813.817C362.003 814.713 366.439 816.671 370.269 819.54C370.531 819.694 370.836 819.758 371.138 819.722C371.439 819.686 371.721 819.552 371.939 819.341C376.422 814.531 382.254 810.798 389.015 810.747C395.02 810.7 400.711 813.382 405.222 817.212C408.015 819.621 410.455 822.411 412.47 825.5C412.789 825.979 413.837 825.582 414.14 825.296C423.762 816.32 430.188 804.45 432.442 791.489C434.253 779.932 433.359 768.112 429.831 756.958C427.827 750.391 425.103 743.532 420.778 738.112L419.126 738.979C421.411 740.028 423.742 740.985 426.077 741.918C427.14 742.344 428.208 742.761 429.283 743.169C429.962 743.376 430.628 743.626 431.275 743.918C431.949 744.41 432.505 745.046 432.903 745.778C434.511 748.036 436.041 750.347 437.493 752.711C443.045 761.633 447.081 771.412 449.437 781.652C450.708 787.38 451.359 793.228 451.377 799.095C451.377 799.935 453.308 799.545 453.306 798.872C453.248 788.12 451.152 777.476 447.129 767.504C445.214 762.745 442.944 758.138 440.337 753.72C438.953 751.36 437.485 749.052 435.933 746.797C435.236 745.602 434.432 744.472 433.532 743.421C432.669 742.571 430.893 742.246 429.746 741.804C426.683 740.618 423.627 739.387 420.641 738.02C420.227 737.83 418.435 738.193 418.989 738.887C422.716 743.558 425.165 749.321 427.076 754.931C428.99 760.527 430.293 766.313 430.961 772.189C432.27 783.797 430.905 795.817 425.99 806.49C422.742 813.437 418.191 819.695 412.583 824.926L414.252 824.727C410.456 819.01 405.243 813.972 398.796 811.383C395.904 810.204 392.808 809.609 389.685 809.632C386.562 809.654 383.475 810.295 380.6 811.515C376.712 813.263 373.231 815.804 370.382 818.974L372.051 818.775C364.864 813.161 354.982 811.119 346.028 812.096C337.574 813.018 328.685 817.212 325.94 825.858C324.048 831.821 325.474 838.306 327.708 843.966C327.765 844.072 327.852 844.158 327.958 844.215C328.065 844.271 328.186 844.295 328.306 844.282H350.932C351.942 844.201 352.959 844.282 353.943 844.522C357.412 845.701 360.667 847.434 363.583 849.652C369.717 854.16 375.57 860.731 377.088 868.403C377.776 871.877 377.246 875.483 375.586 878.612C374.617 880.471 374.207 882.571 374.404 884.658C374.845 888.949 377.99 892.504 381.766 894.341C386.548 896.664 392.127 896.394 396.999 894.516C404.525 891.615 410.166 885.155 414.263 878.429C415.66 876.134 416.888 873.74 417.936 871.265C418.28 870.22 418.878 869.277 419.677 868.519C420.54 867.745 421.394 866.958 422.237 866.157C425.397 863.147 428.377 859.955 431.163 856.597C443.001 842.328 451.25 824.83 452.969 806.253C453.197 803.8 453.304 801.339 453.31 798.876C453.311 798.031 451.38 798.418 451.379 799.092Z" fill="black"/>
<path d="M584.296 821.118C584.296 839.929 577.183 856.42 571.066 865.194C569.738 869.833 567.787 874.272 565.268 878.388C546.817 908.731 521.114 892.031 528.526 878.388C535.938 864.745 518.394 847.219 505.523 843.703H480.577C467.516 810.97 506.499 806.101 523.067 819.156C533.468 807.864 545.811 808.102 555.624 814.974C560.525 798.582 555.704 784.302 548.172 773.457C541.039 763.18 531.475 756 525.468 753.063C525.468 753.063 531.186 753.023 539.056 752.366C547.561 757.129 555.394 763.003 562.349 769.833C578.807 786.288 584.296 804.597 584.296 821.118Z" fill="#B1B1B1"/>
<path d="M583.333 821.376C583.277 830.446 581.713 839.442 578.704 847.999C577.461 851.583 575.966 855.075 574.231 858.448C573.49 859.881 572.7 861.287 571.861 862.665C571.49 863.271 571.109 863.868 570.716 864.458C570.223 865.246 569.85 866.103 569.61 867C566.973 875.223 562.273 883.34 555.732 889.078C551.647 892.663 546.447 895.363 540.88 894.961C533.233 894.41 525.563 887.211 529.024 879.173C529.634 877.967 530.173 876.726 530.638 875.456C531.045 874.077 531.251 872.647 531.251 871.21C531.187 868.048 530.379 864.947 528.895 862.155C525.675 856.133 520.935 851.059 515.147 847.435C512.612 845.746 509.854 844.417 506.953 843.488C506.112 843.281 505.245 843.206 504.381 843.266H480.979L481.538 843.443C479.588 838.504 478.241 833.007 479.237 827.691C479.953 823.768 482.063 820.236 485.18 817.746C491.775 812.516 501.29 812.014 509.229 813.718C513.92 814.645 518.342 816.619 522.162 819.494C522.582 819.821 523.621 819.453 523.944 819.107C528.097 814.652 533.425 811.048 539.66 810.642C545.062 810.46 550.368 812.104 554.72 815.309C555.108 815.577 556.429 815.309 556.575 814.811C559.585 804.712 559.067 793.89 555.106 784.125C551.186 774.892 545.132 766.72 537.442 760.279C534.081 757.304 530.362 754.762 526.369 752.711L525.062 753.487C526.557 753.476 528.041 753.423 529.529 753.361C531.107 753.294 532.683 753.212 534.26 753.113C535.241 753.05 536.222 752.981 537.201 752.907C538.204 752.843 539.194 753.149 539.985 753.768C546.338 757.497 552.31 761.839 557.816 766.731C568.276 776.127 576.532 787.921 580.519 801.485C582.395 807.95 583.344 814.647 583.337 821.378C583.337 821.777 585.263 821.478 585.262 820.862C585.27 807.994 581.741 795.371 575.061 784.371C567.335 771.724 555.933 761.751 543.386 754.055C542.39 753.444 541.394 752.842 540.374 752.262C539.555 751.914 538.643 751.844 537.779 752.063C535.757 752.216 533.731 752.341 531.702 752.439C529.761 752.531 527.817 752.611 525.871 752.626C525.678 752.626 524.121 753.185 524.565 753.404C532.386 757.267 539.252 763.537 544.66 770.301C550.781 777.956 555.221 787.094 556.353 796.898C557.021 803.024 556.449 809.221 554.671 815.121L556.527 814.624C551.599 811.037 545.543 809.346 539.469 809.86C532.675 810.583 526.776 814.271 522.188 819.193L523.969 818.806C516.796 813.205 506.89 811.245 497.975 812.24C489.592 813.177 480.594 817.273 477.859 825.889C475.966 831.847 477.382 838.301 479.615 843.954C479.693 844.153 480.006 844.13 480.173 844.13H501.603C502.723 844.058 503.847 844.058 504.968 844.13C505.016 844.137 505.068 844.122 505.116 844.13C504.892 844.094 505.615 844.354 505.779 844.407C506.177 844.54 506.574 844.679 506.967 844.826C508.513 845.419 510.009 846.132 511.444 846.958C517.727 850.456 522.94 855.595 526.526 861.826C528.143 864.63 529.095 867.768 529.309 870.998C529.382 872.606 529.186 874.216 528.729 875.761C528.248 877.057 527.697 878.327 527.079 879.564C526.385 881.256 526.141 883.098 526.369 884.913C526.596 886.727 527.289 888.452 528.38 889.92C529.605 891.525 531.141 892.865 532.898 893.861C534.654 894.857 536.594 895.487 538.6 895.714C552.431 897.592 563.276 884.817 568.687 873.718C569.731 871.576 570.63 869.366 571.377 867.104C571.601 866.168 571.955 865.268 572.428 864.429C572.86 863.786 573.279 863.136 573.685 862.477C575.514 859.478 577.122 856.35 578.496 853.116C581.96 845.062 584.133 836.511 584.934 827.78C585.143 825.477 585.243 823.168 585.251 820.854C585.258 820.467 583.335 820.763 583.333 821.376Z" fill="black"/>
<path d="M370.397 819.639C373.777 821.827 376.89 824.4 379.675 827.307C382.467 830.093 385.056 833.077 387.42 836.234C387.832 836.786 389.69 836.118 389.202 835.464C386.782 832.23 384.126 829.179 381.256 826.336C378.446 823.435 375.312 820.865 371.917 818.676C371.352 818.328 369.586 819.14 370.393 819.639H370.397Z" fill="black"/>
<path d="M522.321 819.699C528.498 823.449 533 829.114 536.313 835.453C536.691 836.177 538.534 835.492 538.079 834.621C534.711 828.178 530.084 822.426 523.813 818.617C523.12 818.196 521.416 819.15 522.318 819.699H522.321Z" fill="black"/>
<path d="M412.593 824.967C409.535 827.866 406.126 830.372 402.446 832.427C400.591 833.516 398.551 834.637 396.773 835.473C396.523 835.59 395.99 835.88 396.253 836.22C396.492 836.53 397.249 836.353 397.522 836.22C399.614 835.239 401.642 834.129 403.631 832.957C407.437 830.834 410.963 828.245 414.128 825.25C414.912 824.472 413.032 824.53 412.593 824.962V824.967Z" fill="black"/>
<path d="M554.66 815.088C551.494 823.85 546.709 831.94 540.554 838.936C540.244 839.302 540.82 839.505 541.083 839.533C541.322 839.547 541.56 839.506 541.78 839.414C541.999 839.322 542.195 839.18 542.352 839C545.279 835.619 547.922 832.004 550.256 828.19C552.749 823.939 554.867 819.479 556.588 814.861C556.838 814.209 554.912 814.434 554.66 815.091V815.088Z" fill="black"/>
<path d="M325.082 557.951C310.33 567.813 293.011 573.14 275.264 573.273C222.247 573.273 218.998 513.922 243.817 469.88C255.383 449.358 248.468 436.632 248.468 436.632C250.807 429.095 248.009 421.788 245.149 417.114C249.048 406.69 245.118 395.065 243.555 392.207C199.896 435.589 104.906 432.602 104.906 546.386C104.906 687.838 251.874 723.299 299.044 723.299C315.051 723.333 331.04 722.205 346.884 719.924L325.082 557.951Z" fill="#B1B1B1"/>
<path d="M324.348 557.934C313.878 564.861 302.093 569.558 289.728 571.736C279.927 573.385 269.488 573.585 259.884 570.722C253.094 568.75 246.957 564.992 242.113 559.841C237.486 554.677 234.128 548.506 232.306 541.817C227.918 526.598 229.697 509.941 234.1 494.942C236.567 486.557 239.937 478.465 244.153 470.808C248.735 462.476 252.329 453.297 251.312 443.612C251.115 441.457 250.624 439.34 249.852 437.318C249.681 437.02 249.54 436.705 249.432 436.378C249.516 435.676 249.688 434.987 249.944 434.328C250.061 433.701 250.153 433.072 250.213 432.436C250.353 430.879 250.319 429.312 250.113 427.763C249.729 424.989 248.911 422.293 247.689 419.774C247.022 418.367 246.126 417.399 246.481 415.816C246.786 414.461 247.207 413.156 247.422 411.776C248.161 406.528 247.723 401.182 246.139 396.125C245.735 394.683 245.192 393.283 244.516 391.947C244.284 391.511 242.922 392.047 242.684 392.285C231.391 403.469 217.258 411.232 203.187 418.348C188.079 425.989 172.609 433.019 158.297 442.123C143.653 451.437 130.445 463.05 121.138 477.83C109.464 496.369 104.799 518.25 104.052 539.926C103.255 563.073 106.443 586.481 114.771 608.159C121.843 626.414 132.34 643.15 145.695 657.467C158.273 670.827 172.752 682.259 188.667 691.396C203.349 699.882 218.886 706.795 235.019 712.022C248.6 716.516 262.545 719.825 276.698 721.911C293.655 724.359 310.688 723.903 327.742 722.453C334.083 721.913 340.402 721.183 346.701 720.262C346.887 720.235 347.896 720.015 347.846 719.665L345.668 703.485L340.463 664.813L334.17 618.062L328.73 577.645L326.931 564.281L326.375 560.148C326.374 559.414 326.275 558.683 326.082 557.974C326.057 557.882 326.044 557.788 326.044 557.692C325.997 557.341 324.051 557.729 324.119 558.208L326.297 574.388L331.502 613.059L337.796 659.81L343.236 700.228L345.034 713.592L345.591 717.725C345.595 718.459 345.693 719.189 345.883 719.898C345.908 719.99 345.921 720.085 345.922 720.181L347.067 719.583C332.227 721.717 317.257 722.828 302.265 722.907C296.733 722.952 291.204 722.686 285.703 722.11C272.403 720.639 259.254 718.023 246.403 714.292C230.586 709.823 215.25 703.798 200.621 696.306C184.561 688.158 169.686 677.863 156.405 665.704C142.237 652.671 130.589 637.143 122.042 619.896C112.461 600.335 107.391 578.855 106.174 557.159C104.879 534.085 107.142 510.032 116.9 488.828C124.425 472.474 136.377 458.931 150.798 448.288C164.452 438.209 179.766 430.72 194.931 423.236C209.132 416.228 223.574 409.203 236.114 399.415C239.025 397.15 241.8 394.716 244.426 392.126L242.595 392.464C244.393 396.187 245.451 400.224 245.711 404.351C246.018 407.448 245.865 410.573 245.256 413.624C245.033 414.682 244.033 416.603 244.302 417.563C244.642 418.778 245.675 420.034 246.188 421.216C247.387 423.903 248.112 426.778 248.332 429.712C248.436 431.284 248.354 432.863 248.087 434.416C247.807 435.235 247.62 436.083 247.532 436.944C247.668 437.376 247.846 437.794 248.063 438.192C248.401 439.117 248.676 440.063 248.886 441.025C250.861 449.909 248.35 459.264 244.371 467.23C242.205 471.567 239.76 475.727 237.78 480.163C235.947 484.265 234.345 488.466 232.981 492.746C228.128 507.994 225.914 524.996 229.937 540.694C231.571 547.47 234.717 553.789 239.139 559.179C243.784 564.593 249.813 568.646 256.582 570.903C265.438 573.931 275.086 574.147 284.309 573.122C296.036 571.777 307.405 568.237 317.822 562.688C320.56 561.239 323.223 559.658 325.819 557.968C326.597 557.459 324.689 557.712 324.348 557.934Z" fill="black"/>
<path d="M637.026 699.528C634.436 715.66 631.568 739.66 633.518 757.2C635.467 774.739 638.586 766.551 643.653 752.519C648.721 738.487 660.031 712.776 660.031 712.776C661.935 712.636 663.826 712.343 665.683 711.9C691.997 735.767 698.016 760.198 701.158 796.168C702.179 807.858 705.251 804.87 705.251 804.87C703.956 813.833 708.199 814.701 711.618 811.884C710.757 818.427 718.571 816.755 728.641 804.74C740.355 790.76 758.46 761.876 758.46 728.949C758.46 696.022 720.451 625.49 673.41 597.433C661.196 636.141 637.026 699.528 637.026 699.528Z" fill="#B1B1B1"/>
<path d="M636.068 699.669C634.216 710.853 632.939 722.125 632.243 733.44C631.928 739.058 631.796 744.693 632.028 750.315C632.144 753.163 632.362 756.007 632.717 758.835C632.916 761.085 633.347 763.308 634.005 765.469C634.304 766.34 634.735 767.42 635.742 767.624C636.257 767.68 636.778 767.605 637.257 767.407C637.737 767.209 638.158 766.894 638.484 766.491C639.349 765.402 640.046 764.19 640.554 762.895C641.494 760.828 642.294 758.697 643.083 756.568C646.333 747.805 649.714 739.124 653.326 730.505C655.831 724.53 658.383 718.574 660.983 712.637L659.635 713.26C661.71 713.121 663.769 712.803 665.788 712.309L664.779 712.258C676.535 722.949 685.943 735.71 691.486 750.665C694.09 757.889 696.031 765.335 697.287 772.911C697.998 776.982 698.569 781.077 699.053 785.181C699.581 789.653 699.841 794.164 700.428 798.624C700.582 800.41 701.005 802.162 701.681 803.822C701.944 804.547 702.458 805.154 703.132 805.532C703.617 805.7 704.139 805.737 704.643 805.639C705.147 805.541 705.617 805.312 706.005 804.975L704.289 805.008C703.948 807.503 703.415 811.932 706.158 813.399C708.18 814.479 710.761 813.282 712.372 811.989L710.657 812.022C710.382 814.322 711.227 816.21 713.785 816.146C717.164 816.063 720.385 813.631 722.841 811.554C729.611 805.834 734.981 798.155 739.701 790.714C751.109 772.727 758.997 751.894 759.404 730.426C759.676 716.098 754.622 701.845 749.009 688.872C741.521 671.755 732.014 655.593 720.688 640.732C709.153 625.496 695.683 611.295 679.789 600.559C677.995 599.348 676.169 598.186 674.309 597.074C673.854 596.801 672.638 596.985 672.453 597.572C666.989 614.872 660.939 631.989 654.792 649.056C649.696 663.207 644.497 677.32 639.195 691.395C638.158 694.154 637.116 696.91 636.068 699.666C635.869 700.185 637.762 699.964 637.982 699.386C641.005 691.459 643.983 683.516 646.917 675.556C653.079 658.926 659.135 642.248 664.949 625.49C668.198 616.129 671.379 606.74 674.364 597.291L672.508 597.789C688.191 607.175 701.58 620.132 713.149 634.178C724.976 648.55 735.069 664.264 743.219 680.996C749.625 694.153 755.385 708.39 757.107 723.033C758.182 732.173 757.051 741.612 755.035 750.545C752.676 760.716 749.036 770.547 744.202 779.803C740.238 787.517 735.56 794.844 730.229 801.686C727.406 805.495 724.144 808.959 720.511 812.007C719.097 813.229 717.492 814.209 715.76 814.908C715.362 815.115 714.915 815.208 714.467 815.175C714.02 815.142 713.591 814.986 713.228 814.723C712.899 814.309 712.668 813.825 712.554 813.309C712.44 812.792 712.444 812.257 712.568 811.743C712.653 811.033 711.093 811.583 710.854 811.775C709.713 812.691 708.348 813.339 707.177 812.095C705.476 810.288 705.901 806.917 706.201 804.726C706.295 804.038 704.717 804.54 704.485 804.76C704.286 804.946 704.495 804.797 704.622 804.751C704.926 804.639 704.83 804.833 704.609 804.637C704.379 804.452 704.172 804.241 703.991 804.008C703.358 802.951 702.94 801.779 702.76 800.559C702.344 798.296 702.062 796.01 701.916 793.714C701.208 785.178 700.046 776.686 698.436 768.273C695.415 753.221 689.844 738.92 680.527 726.618C677.737 722.952 674.709 719.474 671.461 716.207C670.565 715.303 669.655 714.413 668.732 713.537C668.1 712.94 667.133 711.634 666.283 711.425C665.752 711.406 665.224 711.495 664.729 711.686C664.009 711.841 663.281 711.956 662.552 712.057C661.843 712.156 661.131 712.241 660.418 712.291C659.986 712.32 659.272 712.454 659.07 712.913C653.601 725.355 648.205 737.872 643.452 750.605C641.915 754.721 640.546 758.916 638.749 762.93C638.199 764.195 637.516 765.399 636.712 766.52C636.684 766.559 636.393 766.81 636.394 766.811C636.414 766.879 637.061 766.412 636.992 766.685C637.001 766.648 636.892 766.668 636.884 766.623C636.877 766.553 636.553 766.279 636.505 766.213C636.34 765.962 636.204 765.693 636.1 765.41C635.449 763.593 635.024 761.702 634.835 759.78C634.452 757.11 634.201 754.421 634.045 751.728C633.759 746.24 633.759 740.741 634.045 735.253C634.686 723.233 635.999 711.258 637.978 699.385C638.085 698.754 636.161 699.09 636.068 699.669Z" fill="black"/>
<path d="M432.497 743.603C437.869 750.771 442.336 758.574 445.797 766.836C440.228 765.063 434.938 763.121 429.927 761.01C427.327 750.763 423.162 742.557 419.885 738.494C419.885 738.494 425.085 740.884 432.497 743.603Z" fill="black"/>
<path d="M562.348 769.833C557.626 771.257 552.9 772.465 548.171 773.457C541.038 763.18 531.474 756 525.467 753.063C525.467 753.063 531.185 753.023 539.056 752.366C547.56 757.129 555.393 763.003 562.348 769.833V769.833Z" fill="black"/>
<path d="M677.963 590.025C677.963 719.016 585.183 767.722 513.842 767.722C442.501 767.722 394.163 736.941 375.443 713.947C375.443 713.947 346.214 723.298 299.042 723.298C284.606 723.298 260.846 719.982 234.814 711.328C269.603 711.427 285.393 706.538 301.562 698.75C262.38 697.575 229.653 677.32 246.799 675.368C263.944 673.416 291.241 667.77 310.349 659.395C255.187 651.01 220.298 597.634 232.771 601.916C245.244 606.198 268.825 613.408 310.538 609.514C278.18 600.551 259.471 583.602 267.66 581.063C273.996 579.101 292.347 574.112 309.661 566.195C314.672 564.083 319.492 561.545 324.067 558.607C324.132 558.574 324.196 558.537 324.256 558.497C347.708 543.46 365.949 517.957 372.963 486.598C375.062 477.186 376.115 467.571 376.101 457.928C376.101 457.41 376.101 456.902 376.091 456.385C375.035 391.008 307.49 331.378 307.49 293.227C307.49 254.778 336.072 230.36 389.61 230.36C486.425 230.36 539.565 364.28 539.565 418.443C539.565 421.132 539.588 423.754 539.634 426.31C539.834 437.683 540.481 447.83 541.537 456.952C545.751 493.579 556.461 513.575 570.946 528.652C578.03 507.809 582.453 470.117 580.371 435.333C578.637 406.314 608.614 419.768 621.436 433.251C646.382 459.492 677.963 514.824 677.963 590.025Z" fill="white"/>
<path d="M676.99 590.109C676.939 621.823 671.285 653.857 656.651 682.234C644.876 705.097 627.536 724.632 606.227 739.04C586.923 751.944 565.119 760.646 542.231 764.579C512.206 769.812 480.358 766.857 451.231 758.342C425.563 750.838 399.705 738.207 380.948 718.729C379.339 717.058 377.798 715.325 376.326 713.53C376.187 713.404 376.015 713.319 375.83 713.283C375.646 713.246 375.454 713.261 375.277 713.325C365.506 716.439 355.138 718.121 345.015 719.537C323.178 722.591 300.589 724.074 278.682 721.001C263.967 718.871 249.474 715.425 235.376 710.704L234.716 711.988C248.3 712.008 262.008 711.431 275.335 708.61C284.558 706.574 293.502 703.44 301.977 699.273C302.575 698.986 302.774 698.112 301.904 698.078C290.546 697.709 279.287 695.838 268.42 692.515C260.972 690.225 253.129 687.372 246.837 682.646C245.59 681.71 243.191 679.998 243.116 678.208C243.03 676.205 245.946 676.123 247.35 675.95C257.085 674.737 266.75 673.018 276.306 670.799C288.098 668.223 299.632 664.58 310.764 659.914C311.452 659.615 311.486 658.847 310.691 658.724C283.302 654.45 257.325 638.735 239.687 617.462C237.083 614.444 234.795 611.166 232.858 607.681C232.366 606.751 230.403 603.377 231.352 602.304C231.462 602.18 231.101 602.403 231.427 602.336C231.911 602.236 232.749 602.71 233.172 602.853C235.058 603.49 236.951 604.105 238.857 604.68C243.828 606.174 248.875 607.404 253.977 608.364C272.561 611.879 291.661 611.881 310.442 610.164C310.993 610.113 312.148 609.174 311.1 608.88C301.569 606.304 292.36 602.658 283.65 598.011C278.346 595.113 272.634 591.728 268.712 587.022C267.891 586.037 266.478 584.382 266.72 582.962C267.003 581.323 269.434 581.191 270.738 580.803C278.685 578.437 286.598 575.974 294.385 573.12C304.363 569.463 314.415 565.4 323.468 559.782C330.443 555.444 336.89 550.31 342.679 544.484C355.263 531.698 364.744 516.197 370.395 499.173C376.472 481.111 378.743 461.313 375.888 442.417C373.381 425.827 367.192 410.006 359.717 395.066C352.345 380.328 343.635 366.322 334.958 352.327C327.339 340.037 319.394 327.697 313.712 314.356C311.415 309.241 309.784 303.853 308.86 298.323C308.098 292.106 308.395 285.804 309.737 279.686C312.173 267.08 319.041 255.762 329.099 247.777C341.021 238.378 356.124 233.926 370.999 232.1C386.25 230.228 401.799 230.606 416.655 234.75C442.669 242.005 464.595 259.247 481.834 279.588C499.386 300.302 512.826 324.464 522.765 349.658C530.746 369.886 537.261 391.64 538.448 413.474C538.905 421.864 538.647 430.284 539.072 438.681C539.522 448.712 540.56 458.708 542.18 468.617C544.876 484.551 549.587 500.36 558.28 514.109C561.701 519.473 565.647 524.482 570.061 529.064C570.197 529.169 570.354 529.244 570.521 529.284C570.689 529.325 570.862 529.33 571.032 529.3C571.201 529.269 571.362 529.204 571.505 529.108C571.647 529.012 571.768 528.887 571.86 528.742C579.496 506.024 581.518 481.004 581.83 457.188C581.922 450.193 581.778 443.202 581.398 436.215C581.165 431.905 581.07 427.128 583.345 423.275C587.12 416.883 595.453 418.53 601.244 420.741C615.989 426.368 626.269 439.043 635.117 451.553C646.65 468.055 655.874 486.056 662.53 505.056C672.144 532.381 677.034 561.143 676.99 590.109C676.99 591.07 678.935 590.75 678.933 589.941C678.846 542.073 666.001 493.522 638.942 453.696C630.012 440.551 619.646 427.182 604.785 420.51C599.161 417.984 591.804 415.81 585.937 418.846C578.146 422.876 579.336 432.997 579.646 440.265C580.325 456.569 579.75 472.901 577.926 489.116C576.441 502.401 574.302 515.858 570.031 528.562L571.829 528.239C546.864 502.115 541.68 465.156 540.702 430.433C540.371 418.704 540.35 407.395 538.283 395.811C536.191 384.425 533.253 373.211 529.494 362.262C520.872 336.744 508.672 312.145 492.745 290.382C476.865 268.686 456.603 249.276 431.676 238.454C419.286 233.048 405.968 230.084 392.454 229.727C376.34 229.34 359.62 231.277 344.604 237.384C332.705 242.222 321.989 250.068 315.123 261.054C308.612 271.701 305.651 284.139 306.665 296.576C307.736 308.687 313.826 320.163 319.659 330.594C327.486 344.591 336.362 357.979 344.577 371.744C353.515 386.724 361.902 402.175 367.737 418.659C374.024 435.927 376.277 454.404 374.321 472.675C370.077 511.028 347.7 548.146 311.857 564.519C301.893 569.044 291.667 572.967 281.233 576.267C277.638 577.413 274.023 578.495 270.407 579.572C268.874 580.029 266.716 580.304 265.551 581.532C263.367 583.834 266.249 587.178 267.849 588.863C272.292 593.539 278.111 596.984 283.774 599.951C292.129 604.25 300.911 607.664 309.976 610.138L310.635 608.854C292.304 610.531 273.692 610.541 255.533 607.217C249.942 606.191 244.416 604.834 238.985 603.153C237.043 602.556 235.126 601.775 233.164 601.245C232.308 600.931 231.367 600.937 230.514 601.261C226.205 603.352 233.592 612.665 234.974 614.544C242.087 624.203 251.227 632.51 260.953 639.472C275.527 649.903 292.249 657.293 310.007 660.063L309.934 658.868C298.693 663.567 287.04 667.216 275.126 669.768C269.414 671.071 263.664 672.202 257.875 673.16C253.679 673.849 249.262 674.025 245.128 674.996C240.955 675.977 240.194 678.903 243.186 681.892C248.195 686.893 255.755 689.754 262.274 692.094C274.799 696.532 287.937 699.002 301.22 699.414L301.147 698.219C292.831 702.307 284.054 705.381 275.004 707.375C261.86 710.158 248.305 710.679 234.91 710.661C234.289 710.661 233.267 711.62 234.25 711.945C256.757 719.375 280.337 724.268 304.113 723.922C324.738 723.776 345.294 721.514 365.457 717.173C368.86 716.412 372.285 715.622 375.609 714.562L374.56 714.357C390.666 734.03 414.709 747.219 438.276 755.725C455.337 761.81 473.099 765.716 491.139 767.348C505.382 768.822 519.742 768.743 533.967 767.113C556.889 764.287 578.999 756.836 598.954 745.212C620.985 732.319 639.494 714.192 652.842 692.44C669.18 665.717 676.925 634.654 678.579 603.573C678.82 599.032 678.927 594.486 678.934 589.939C678.935 588.981 676.992 589.299 676.99 590.109Z" fill="black"/>
<path d="M445.421 480.988C444.785 486.583 444.362 492.196 444.15 497.829C443.788 506.408 443.969 515.002 444.691 523.559C445.404 533.061 447.215 542.448 450.089 551.533C452.921 560.105 457.091 568.456 463.386 575.023C469.805 581.684 478.22 586.075 487.357 587.532C488.661 587.747 489.974 587.906 491.29 588.021C492.259 588.107 493.244 586.697 491.946 586.582C482.599 585.903 473.75 582.109 466.815 575.809C460.27 569.734 455.841 561.678 452.824 553.359C449.749 544.506 447.76 535.313 446.898 525.981C446.029 517.38 445.736 508.73 446.022 500.089C446.193 494.114 446.595 488.15 447.226 482.197C447.274 481.75 447.323 481.303 447.374 480.855C447.488 479.847 445.523 480.089 445.421 480.989V480.988Z" fill="black"/>
<path d="M569.986 528.766C564.002 549.222 552.252 568.201 533.603 579.285C528.149 582.499 522.313 585.016 516.232 586.776C515.085 587.112 515.35 588.17 516.515 587.83C527.397 584.709 537.457 579.228 545.978 571.778C553.965 564.574 560.471 555.884 565.134 546.193C567.897 540.517 570.167 534.613 571.916 528.548C572.132 527.808 570.19 528.066 569.986 528.765V528.766Z" fill="black"/>
<path d="M541.537 456.952C500.91 439.167 430.705 431.767 372.963 486.598C375.063 477.186 376.115 467.571 376.101 457.928C376.101 457.41 376.101 456.902 376.091 456.384C400.599 424.836 478.913 386.188 539.634 426.31C539.834 437.683 540.482 447.83 541.537 456.952Z" fill="black"/>
<path d="M542.096 456.316C533.326 452.508 524.221 449.522 514.899 447.396C504.372 444.961 493.63 443.575 482.83 443.258C471.086 442.911 459.34 443.897 447.819 446.197C435.268 448.725 423.1 452.872 411.618 458.534C398.783 464.917 386.873 473.01 376.213 482.591C374.842 483.815 373.49 485.061 372.156 486.326L373.931 486.52C375.866 477.814 376.912 468.934 377.052 460.016C377.069 458.981 376.995 457.918 377.067 456.885C377.047 456.609 377.134 456.335 377.309 456.12C377.477 455.868 377.694 455.638 377.885 455.404C378.585 454.548 379.304 453.708 380.044 452.885C381.68 451.059 383.401 449.31 385.183 447.627C393.665 439.785 403.144 433.096 413.377 427.733C425.085 421.426 437.557 416.653 450.486 413.534C464.122 410.171 478.226 409.109 492.212 410.393C506.895 411.813 521.102 416.366 533.874 423.744C535.574 424.734 537.245 425.771 538.886 426.857L538.657 426.388C538.844 436.683 539.394 446.978 540.571 457.21C540.671 458.066 542.599 457.6 542.496 456.694C541.371 446.908 540.818 437.064 540.623 427.217C540.688 426.772 540.65 426.318 540.513 425.89C540.299 425.545 539.677 425.305 539.344 425.093C538.318 424.429 537.28 423.787 536.231 423.165C534.398 422.072 532.532 421.038 530.632 420.063C526.875 418.129 523.002 416.428 519.035 414.969C503.612 409.472 487.177 407.399 470.872 408.894C441.27 411.756 413.128 423.116 389.839 441.605C385.352 445.2 381.193 449.187 377.411 453.518C377.005 453.991 376.604 454.47 376.209 454.955C375.752 455.385 375.38 455.898 375.113 456.466C375.058 456.979 375.061 457.497 375.122 458.009C375.122 458.651 375.118 459.294 375.109 459.936C375.089 461.289 375.049 462.643 374.989 463.996C374.764 469.128 374.237 474.242 373.41 479.311C373.007 481.781 372.532 484.237 371.984 486.68C371.77 487.643 373.439 487.178 373.76 486.875C384.162 476.936 395.862 468.449 408.541 461.646C419.758 455.69 431.706 451.225 444.081 448.365C455.489 445.756 467.163 444.483 478.866 444.572C489.573 444.65 500.245 445.798 510.724 447.998C520.043 449.931 529.166 452.716 537.976 456.318C538.982 456.73 539.983 457.154 540.978 457.59C541.765 457.931 543.209 456.802 542.096 456.316Z" fill="black"/>
<path d="M665.787 712.305C678.096 708.29 688.251 697.11 686.847 683.554C686.794 683.031 684.855 683.428 684.923 684.069C686.218 696.616 677.172 707.712 665.571 711.496C664.465 711.857 664.647 712.677 665.787 712.305Z" fill="black"/>
<path d="M681.384 677.671C683.224 682.536 686.423 686.77 690.6 689.87C696.453 694.246 703.802 696.09 711.023 696.263C716.955 696.323 722.869 695.597 728.61 694.105C729.798 693.813 729.465 692.58 728.28 692.872C714.153 696.338 696.677 696.384 686.969 683.736C685.429 681.737 684.195 679.52 683.309 677.157C683.002 676.334 681.089 676.878 681.384 677.671H681.384Z" fill="black"/>
<path d="M712.427 812.197C721.493 801.062 725.646 786.597 727.333 772.563C729.057 758.689 728.403 744.623 725.398 730.969C724.143 725.449 722.457 719.815 719.509 714.945C719.035 714.159 717.211 714.917 717.753 715.813C720.156 720.073 721.918 724.663 722.982 729.436C724.52 735.671 725.505 742.028 725.926 748.436C726.934 762.658 725.858 777.387 721.496 791.018C719.243 798.477 715.616 805.449 710.801 811.576C710.025 812.53 711.84 812.922 712.427 812.201V812.197Z" fill="black"/>
<path d="M697.197 723.637C701.588 729.754 704.865 736.598 706.879 743.853C709.968 755.115 710.906 766.857 709.644 778.467C708.722 787.472 706.93 796.367 704.292 805.028C704.157 805.485 706.041 805.238 706.197 804.712C710.381 790.633 712.834 775.864 711.859 761.146C711.313 751.297 708.914 741.639 704.785 732.679C703.174 729.262 701.239 726.007 699.007 722.959C698.716 722.561 696.868 723.187 697.2 723.637H697.197Z" fill="black"/>
<path d="M639.365 658.722C639.485 658.789 638.72 660.448 637.354 662.828C635.654 665.732 633.804 668.545 631.811 671.256C629.606 674.205 627.286 677.093 625.417 679.189C623.574 681.31 622.229 682.682 622.163 682.779C622.096 682.876 620.71 684.206 618.656 686.118C616.581 688.01 613.79 690.44 610.869 692.682C608.212 694.744 605.441 696.655 602.569 698.407C601.311 699.279 599.944 699.98 598.502 700.493C598.412 700.343 599.906 699.309 602.082 697.683C604.283 696.089 607.103 693.809 609.868 691.454C612.633 689.099 615.264 686.568 617.229 684.625C619.175 682.661 620.485 681.304 620.559 681.214C620.632 681.123 621.991 679.812 623.89 677.8C625.815 675.808 628.224 673.071 630.565 670.284C632.856 667.462 635.061 664.581 636.625 662.357C638.189 660.132 639.216 658.636 639.365 658.722Z" fill="black"/>
<path d="M618.806 702.575C618.507 702.627 617.311 697.027 616.541 691.304C616.134 688.447 615.83 685.565 615.612 683.375C615.419 681.184 615.296 679.691 615.298 679.591C615.3 679.492 615.234 677.998 615.222 675.798C615.188 673.599 615.23 670.698 615.347 667.813C615.463 664.928 615.725 662.057 616.033 659.919C616.104 658.711 616.381 657.525 616.853 656.41C617.025 656.437 616.932 657.857 616.902 659.995C616.872 662.133 616.849 664.974 616.932 667.832C617.015 670.69 617.14 673.556 617.287 675.73C617.433 677.904 617.531 679.386 617.537 679.479C617.543 679.571 617.593 681.056 617.673 683.235C617.773 685.414 617.914 688.286 618.117 691.144C618.476 696.862 619.116 702.522 618.806 702.575Z" fill="black"/>
<path d="M244.198 417.265C243.204 419.963 241.771 422.479 239.956 424.709C237.478 427.954 234.782 431.026 231.887 433.904C224.656 441.169 216.781 447.763 208.359 453.607C203.575 456.985 198.584 460.06 193.416 462.816C192.285 463.413 194.039 463.449 194.553 463.177C203.969 458.107 212.847 452.099 221.053 445.244C228.233 439.343 235.244 432.94 240.978 425.592C243.009 422.989 245.091 420.138 246.106 416.96C246.258 416.483 244.373 416.723 244.199 417.265H244.198Z" fill="black"/>
<path d="M247.501 436.74C246.181 441.885 243.45 446.716 240.809 451.279C236.899 457.946 232.63 464.395 228.019 470.598C225.049 474.642 221.971 478.602 218.783 482.479C218.047 483.375 219.893 483.418 220.346 482.868C225.796 476.235 230.972 469.373 235.77 462.254C239.788 456.46 243.378 450.381 246.511 444.065C247.729 441.653 248.707 439.128 249.433 436.525C249.632 435.759 247.683 436.028 247.501 436.74Z" fill="black"/>
<path d="M593.155 418.648C602.965 425.708 611.403 434.498 618.054 444.587C624.647 454.718 629.829 465.699 633.455 477.228C637.165 488.919 639.855 500.908 641.498 513.062C643.154 525.118 644.195 537.249 644.617 549.41C645.064 560.751 645.108 572.101 645.051 583.45C645.044 584.771 645.036 586.092 645.028 587.414C645.028 588.264 646.954 587.883 646.959 587.196C647.029 575.979 647.045 564.76 646.704 553.546C646.332 541.342 645.551 529.14 644.022 517.022C642.549 504.66 640.053 492.442 636.56 480.493C633.197 468.916 628.36 457.819 622.168 447.474C615.899 437.084 607.812 427.905 598.294 420.376C597.108 419.447 595.902 418.547 594.675 417.678C594.124 417.285 592.362 418.086 593.155 418.651V418.648Z" fill="black"/>
<path d="M583.546 421.025C588.606 424.277 592.253 429.307 595.076 434.528C598.677 441.496 601.411 448.878 603.215 456.511C608.425 476.933 609.841 498.336 609.851 519.34C609.858 533.359 609.108 547.372 607.736 561.322C607.709 561.592 609.603 561.397 609.661 560.807C612.025 536.761 612.658 512.416 610.437 488.335C609.588 478.427 608.054 468.589 605.848 458.892C604.117 450.924 601.464 443.185 597.944 435.83C594.976 429.892 591.037 424.013 585.357 420.363C584.895 420.065 583.265 420.844 583.546 421.025V421.025Z" fill="black"/>
<path d="M147.395 504.951C170.265 495.339 185.428 481.808 193.28 474.887C206.784 462.986 216.18 451.965 214.967 472.478C212.368 516.381 152.853 542.1 167.666 564.961L147.395 504.951Z" fill="#B1B1B1"/>
<path d="M147.739 505.212C163.772 498.44 178.163 488.789 191.249 477.392C193.906 475.077 196.536 472.734 199.14 470.362C201.711 467.92 204.414 465.622 207.237 463.476C208.46 462.592 210.643 460.709 212.218 461.834C214.172 463.228 214.084 466.923 214.111 469.004C214.279 483.633 207.751 496.993 199.221 508.515C191.442 519.025 182.002 528.1 173.781 538.237C168.546 544.692 161.842 553.658 165.269 562.436C165.656 563.409 166.138 564.341 166.708 565.219C167.036 565.729 168.827 565.006 168.633 564.703C167.509 562.973 166.768 561.021 166.461 558.981C166.154 556.941 166.288 554.858 166.853 552.874C168.134 548.149 171.016 543.944 173.968 540.113C181.955 529.751 191.536 520.73 199.515 510.349C208.063 499.227 215.074 486.487 215.933 472.22C216.117 469.155 216.543 465.004 214.917 462.203C213.921 460.481 212.079 460.389 210.316 460.902C207.767 461.645 205.553 463.423 203.534 465.078C200.535 467.535 197.704 470.191 194.824 472.783C182.532 483.844 169.503 493.886 154.605 501.237C152.122 502.462 149.604 503.613 147.051 504.69C145.801 505.218 146.972 505.536 147.739 505.212Z" fill="black"/>
<path d="M375.566 714.408C387.227 711.676 398.665 708.067 409.782 703.612C419.596 699.807 429.12 695.294 438.28 690.111C442.149 687.944 445.852 685.496 449.361 682.786C449.722 682.5 449.506 682.265 449.186 682.134C448.947 682.092 448.701 682.103 448.466 682.166C448.231 682.229 448.012 682.342 447.825 682.498C441.12 687.802 433.361 691.859 425.692 695.569C415.481 700.494 404.949 704.723 394.168 708.227C387.963 710.248 381.679 712.024 375.319 713.485C374.154 713.753 374.405 714.675 375.566 714.408Z" fill="black"/>
<path d="M105.331 614.891C105.207 614.949 104.101 612.885 102.659 609.674C100.923 605.72 99.3892 601.681 98.0647 597.571C96.656 593.058 95.4296 588.462 94.6993 584.923C93.9382 581.397 93.5557 578.96 93.5108 578.815C93.5108 578.662 93.1352 576.226 92.7945 572.641C92.4179 569.056 92.1968 564.306 92.1719 559.583C92.1889 555.268 92.426 550.956 92.8822 546.666C93.2807 543.17 93.7111 540.871 93.8476 540.89C94.0179 540.909 93.8844 543.239 93.7479 546.731C93.6114 550.224 93.5806 554.885 93.7529 559.554C93.9781 564.221 94.3596 568.893 94.8428 572.415C95.2911 575.94 95.7225 578.327 95.7215 578.477C95.7673 578.621 96.0811 581.028 96.7177 584.526C97.3254 588.032 98.3765 592.602 99.577 597.121C100.829 601.626 102.275 606.061 103.462 609.352C104.65 612.644 105.489 614.821 105.331 614.891Z" fill="black"/>
<path d="M102.542 632.484C102.422 632.558 101.288 631.001 99.7598 628.537C97.9111 625.5 96.2209 622.369 94.6959 619.157C93.0551 615.628 91.5537 612.008 90.5704 609.199C89.5632 606.407 88.9844 604.46 88.9306 604.349C88.9147 604.225 88.3518 602.274 87.6943 599.378C87.0089 596.49 86.3224 592.633 85.8014 588.779C85.353 585.255 85.087 581.71 85.0044 578.158C84.9636 575.261 85.0791 573.339 85.2196 573.336C85.388 573.336 85.5683 575.245 85.8751 578.102C86.182 580.959 86.693 584.757 87.3645 588.537C88.0788 592.31 88.9127 596.069 89.6957 598.882C90.4519 601.702 91.0636 603.597 91.0795 603.721C91.1313 603.832 91.6404 605.759 92.5241 608.544C93.3838 611.338 94.7078 614.956 96.1424 618.521C97.6169 622.068 99.2308 625.544 100.52 628.119C101.809 630.693 102.686 632.397 102.542 632.484Z" fill="black"/>
<path d="M278.968 561.614C279.003 561.747 277.78 562.245 275.825 562.598C274.708 562.795 273.578 562.911 272.444 562.946C271.133 562.972 269.822 562.906 268.521 562.747C264.855 562.275 261.33 561.03 258.182 559.094C257.203 558.414 256.271 557.67 255.392 556.865C253.558 555.178 251.973 553.238 250.685 551.104C250.016 549.979 249.427 548.807 248.925 547.598C248.499 546.548 248.151 545.468 247.884 544.367C247.42 542.437 247.386 541.118 247.519 541.097C247.688 541.067 248.017 542.321 248.715 544.104C249.55 546.279 250.658 548.34 252.011 550.238C253.359 552.129 254.952 553.833 256.747 555.307C258.463 556.661 260.297 557.858 262.227 558.886C264.3 559.937 266.503 560.71 268.779 561.183C271.063 561.659 273.398 561.843 275.728 561.733C277.648 561.653 278.93 561.448 278.968 561.614Z" fill="black"/>
<path d="M753.631 670.871C753.481 670.939 752.527 669.142 751.079 666.461C749.631 663.781 747.634 660.242 745.514 656.765C743.361 653.306 741.117 649.894 739.305 647.378C737.512 644.851 736.223 643.176 736.159 643.061C736.069 642.967 734.864 641.233 732.991 638.766C731.139 636.284 728.56 633.118 725.911 630.027C723.234 626.961 720.463 623.993 718.34 621.808C716.216 619.623 714.794 618.173 714.904 618.049C715.004 617.941 716.622 619.173 718.94 621.175C721.258 623.177 724.22 626 727.079 628.96C729.906 631.948 732.644 635.045 734.611 637.49C736.597 639.918 737.873 641.641 737.964 641.737C738.029 641.852 739.288 643.59 741.009 646.218C742.749 648.831 744.884 652.376 746.882 655.977C748.847 659.592 750.648 663.272 751.863 666.087C753.079 668.902 753.763 670.815 753.631 670.871Z" fill="black"/>
<path d="M765.943 676.149C765.784 676.186 765.363 674.979 764.747 673.177C764.132 671.376 763.259 668.995 762.303 666.638C761.319 664.294 760.27 661.976 759.39 660.258C758.509 658.54 757.88 657.385 757.853 657.309C757.806 657.242 757.244 656.053 756.341 654.349C755.439 652.645 754.172 650.44 752.833 648.282C751.473 646.139 750.033 644.052 748.925 642.502C747.817 640.951 747.079 639.912 747.201 639.803C747.322 639.693 748.272 640.553 749.6 641.949C751.211 643.677 752.726 645.492 754.139 647.385C755.674 649.468 757.128 651.63 758.137 653.33C759.163 655.023 759.797 656.218 759.846 656.281C759.874 656.361 760.479 657.575 761.262 659.387C762.059 661.196 762.982 663.635 763.791 666.094C764.515 668.345 765.115 670.633 765.589 672.949C765.952 674.837 766.085 676.113 765.943 676.149Z" fill="black"/>
<path d="M99.0242 366.135C112.775 360.831 158.706 357.898 185.763 363.558C197.663 366.045 197.015 370.817 198.985 378.603C202.432 392.195 218.138 443.193 254.784 489.717C262.982 500.126 254.255 504.303 246.321 510.933C238.388 517.564 218.406 531.722 206.786 539.486C195.331 527.999 115.69 436.775 106.3 408.346C96.9096 379.917 99.0242 366.135 99.0242 366.135Z" fill="white"/>
<path d="M99.387 366.446C102.522 365.336 105.753 364.519 109.039 364.006C113.544 363.193 118.092 362.629 122.647 362.186C133.692 361.128 144.792 360.748 155.884 361.049C161.46 361.193 167.041 361.52 172.593 362.109C177.802 362.507 182.963 363.39 188.01 364.745C191.891 365.921 194.966 367.958 196.3 371.918C197.304 374.899 197.77 378.064 198.596 381.1C203.075 397.049 208.877 412.594 215.941 427.572C221.231 439.044 227.171 450.203 233.732 460.995C237.331 466.904 241.125 472.686 245.116 478.343C247.198 481.288 249.335 484.194 251.527 487.061C253.525 489.669 255.956 492.224 256.819 495.486C258.184 500.645 253.81 504.273 250.213 507.131C246.564 510.028 242.972 512.983 239.265 515.799C230.394 522.537 221.281 528.969 212.097 535.271C210.078 536.656 208.051 538.03 206.015 539.393L207.699 539.128C201.23 532.633 195.268 525.578 189.249 518.67C178.822 506.695 168.593 494.549 158.564 482.233C147.9 469.124 137.424 455.831 127.567 442.092C123.417 436.305 119.367 430.435 115.62 424.378C112.763 419.957 110.273 415.308 108.173 410.48C106.521 406.19 105.147 401.797 104.06 397.329C102.672 392.204 101.576 387.005 100.778 381.755C99.8863 376.745 99.6017 371.645 99.9303 366.567C99.9496 366.372 99.9678 366.177 99.9972 365.983C100.09 365.364 98.1381 365.716 98.0529 366.28C97.6796 369.675 97.7055 373.102 98.1299 376.49C99.2205 386.94 101.476 397.234 104.855 407.18C106.502 412 108.665 416.627 111.305 420.98C114.68 426.782 118.413 432.374 122.253 437.878C131.758 451.517 141.989 464.647 152.407 477.591C162.703 490.385 173.227 502.991 183.98 515.408C190.746 523.236 197.513 531.114 204.665 538.598C205.065 539.017 205.468 539.435 205.881 539.845C206.262 540.228 207.218 539.811 207.565 539.58C216.998 533.27 226.287 526.743 235.431 519.999C239.204 517.223 242.975 514.426 246.592 511.448C248.656 509.747 250.788 508.131 252.855 506.433C254.784 504.99 256.461 503.234 257.816 501.239C261.017 496.003 257.115 491.204 253.949 487.097C249.426 481.231 245.135 475.193 241.075 468.983C233.799 457.838 227.215 446.254 221.363 434.295C213.156 417.82 206.418 400.649 201.229 382.983C200.467 380.332 199.788 377.662 199.189 374.973C198.433 371.579 197.498 368.241 194.511 366.142C190.545 363.355 185.168 362.745 180.498 362.033C175.118 361.214 169.689 360.719 164.259 360.406C152.72 359.771 141.153 359.873 129.627 360.711C120.669 361.358 111.537 362.222 102.828 364.511C101.417 364.874 100.026 365.312 98.6621 365.824C97.3737 366.316 98.5699 366.758 99.387 366.446Z" fill="black"/>
<path d="M87.1244 381.781C88.7109 373.295 92.9421 367.991 99.0244 366.135C105.107 364.279 102.991 390.799 130.754 432.434C158.516 474.07 190.387 506.425 212.336 523.663C217.381 527.841 213.254 532.952 208.484 537.909C204.95 541.583 200.564 537.871 198.419 536.497C174.255 521.009 144.168 485.088 126.786 461.329C101.447 426.688 85.5369 390.268 87.1244 381.781Z" fill="url(#paint3_linear)"/>
<path d="M88.0955 381.631C88.6942 377.845 90.2013 374.262 92.4869 371.19C93.4667 369.947 94.6397 368.871 95.9609 368.004C96.6351 367.57 97.3477 367.199 98.0897 366.896C98.4415 366.753 98.7993 366.641 99.1582 366.512C99.3771 366.433 98.9716 366.539 99.1936 366.504C99.0284 366.529 99.2616 366.488 99.4978 366.62C99.7854 366.795 100.038 367.022 100.243 367.29C100.818 368.083 101.268 368.959 101.578 369.889C102.873 373.206 103.758 376.691 104.801 380.093C106.432 385.424 108.227 390.701 110.282 395.884C116.725 412.137 125.664 427.042 135.671 441.318C146.208 456.352 157.646 470.73 169.921 484.373C179.923 495.582 190.593 506.174 201.871 516.091C204.191 518.114 206.547 520.096 208.938 522.038C210.271 522.955 211.499 524.018 212.598 525.207C213.157 525.952 213.507 526.834 213.611 527.761C213.715 528.687 213.569 529.625 213.188 530.475C212.256 532.541 210.963 534.424 209.37 536.033C208.603 537.066 207.679 537.972 206.631 538.717C206.116 538.928 205.561 539.023 205.006 538.996C204.45 538.968 203.907 538.819 203.415 538.557C201.979 537.894 200.615 537.085 199.344 536.143C197.959 535.236 196.584 534.319 195.235 533.356C182.523 524.286 171.362 513.006 160.847 501.511C150.176 489.845 140.121 477.594 130.643 464.937C119.77 450.503 110.089 435.204 101.694 419.193C98.3237 412.803 95.2786 406.246 92.571 399.546C90.6428 395.077 89.1968 390.413 88.2577 385.635C87.9801 384.319 87.9252 382.965 88.0955 381.631C88.1968 381.037 86.2515 381.373 86.1522 381.936C85.5439 385.392 86.8881 389.306 87.9059 392.546C89.9207 398.702 92.3505 404.714 95.1783 410.54C103.092 427.134 112.458 442.991 123.165 457.925C132.667 471.244 142.859 484.054 153.699 496.303C164.607 508.683 176.154 520.783 189.199 530.931C191.951 533.072 194.794 535.06 197.703 536.981C200.415 538.772 203.271 540.719 206.659 539.603C208.642 538.951 209.978 537.312 211.322 535.796C212.817 534.24 214.057 532.456 214.995 530.51C215.38 529.736 215.589 528.885 215.606 528.02C215.623 527.155 215.447 526.297 215.091 525.508C214.175 524.079 212.966 522.862 211.543 521.94C200.326 512.808 189.732 502.933 179.832 492.382C167.169 479.054 155.336 464.957 144.399 450.172C133.036 434.821 122.422 418.878 114.731 401.33C112.145 395.403 109.863 389.347 107.895 383.185C106.606 379.177 105.508 375.105 104.168 371.114C103.608 369.45 102.918 366.661 101.16 365.814C100.607 365.64 100.026 365.577 99.4487 365.631C98.8718 365.685 98.3112 365.853 97.7998 366.126C94.8084 367.237 92.2027 369.194 90.2983 371.761C88.1735 374.797 86.7565 378.273 86.1522 381.933C86.0396 382.517 87.987 382.193 88.0955 381.631Z" fill="black"/>
<path d="M376.92 299.418C377.674 299.621 378.024 299.042 378.175 298.366C378.023 297.705 377.723 297.082 376.944 297.292C376.746 297.395 376.576 297.545 376.45 297.728C376.323 297.912 376.245 298.124 376.221 298.344C376.239 298.567 376.312 298.781 376.434 298.968C376.556 299.156 376.723 299.31 376.92 299.418Z" fill="black"/>
<path d="M371.572 295.105C371.427 295.593 371.833 295.996 372.581 296.269C372.896 296.22 373.191 296.084 373.433 295.877C373.675 295.67 373.854 295.401 373.95 295.099C373.287 294.794 372.62 294.518 371.949 294.271C371.783 294.529 371.656 294.81 371.572 295.105V295.105Z" fill="black"/>
<path d="M409.829 347.49C409.717 347.71 409.652 347.949 409.636 348.195C409.619 348.35 409.643 348.507 409.707 348.65C409.771 348.793 409.872 348.917 410 349.008C409.965 348.51 409.894 348 409.829 347.49Z" fill="black"/>
<path d="M407.299 360.343C407.619 360.362 407.934 360.26 408.182 360.058C408.429 359.856 408.59 359.568 408.632 359.253C408.667 359.097 408.667 358.935 408.63 358.78C408.594 358.624 408.523 358.479 408.422 358.355C408.321 358.23 408.193 358.13 408.048 358.061C407.903 357.993 407.744 357.958 407.583 357.958C406.896 357.918 406.271 358.194 406.232 358.975C406.203 359.295 406.297 359.613 406.495 359.866C406.693 360.12 406.98 360.29 407.299 360.343V360.343Z" fill="black"/>
<path d="M379.739 310.222C379.814 310.455 379.971 310.654 380.182 310.781C380.392 310.908 380.642 310.956 380.886 310.915C381.013 310.924 381.14 310.904 381.259 310.859C381.377 310.813 381.484 310.742 381.572 310.651C381.66 310.56 381.727 310.45 381.768 310.331C381.809 310.211 381.822 310.084 381.808 309.959C381.815 309.835 381.796 309.71 381.752 309.594C381.708 309.477 381.641 309.371 381.553 309.282C381.466 309.192 381.361 309.122 381.245 309.075C381.129 309.027 381.005 309.004 380.88 309.007C380.139 309.013 379.557 309.394 379.739 310.222Z" fill="black"/>
<path d="M380.379 301.195C379.586 301.241 379.321 301.861 379.371 302.54C379.373 302.699 379.41 302.856 379.481 303C379.552 303.143 379.655 303.268 379.781 303.367C379.908 303.466 380.055 303.535 380.212 303.57C380.369 303.604 380.532 303.604 380.688 303.568C381.007 303.522 381.296 303.359 381.497 303.11C381.698 302.862 381.797 302.546 381.772 302.228C381.715 301.913 381.539 301.632 381.281 301.44C381.022 301.248 380.7 301.161 380.379 301.195V301.195Z" fill="black"/>
<path d="M394.751 317.758C394.751 317.916 394.787 318.073 394.856 318.216C394.926 318.36 395.027 318.485 395.152 318.584C395.278 318.683 395.424 318.753 395.58 318.788C395.736 318.823 395.899 318.822 396.055 318.787C396.23 318.765 396.4 318.71 396.554 318.623C396.093 317.964 395.628 317.311 395.161 316.665C395.006 316.798 394.887 316.968 394.816 317.159C394.744 317.35 394.722 317.556 394.751 317.758V317.758Z" fill="black"/>
<path d="M399.935 327.647C399.617 327.652 399.313 327.781 399.088 328.004C398.864 328.228 398.736 328.53 398.732 328.846C398.729 329.162 398.85 329.466 399.07 329.695C399.289 329.924 399.59 330.058 399.908 330.07C400.231 330.054 400.538 329.924 400.774 329.704C401.009 329.484 401.158 329.188 401.195 328.87C401.167 328.55 401.025 328.251 400.794 328.027C400.562 327.802 400.258 327.668 399.935 327.647V327.647Z" fill="black"/>
<path d="M394.998 332.725C395.064 332.954 395.181 333.164 395.341 333.341C395.5 333.518 395.699 333.657 395.921 333.747C396.082 333.792 396.252 333.799 396.417 333.768C396.582 333.737 396.738 333.668 396.871 333.566C397.004 333.465 397.112 333.334 397.186 333.185C397.259 333.035 397.297 332.87 397.295 332.704C397.384 331.935 396.857 331.532 396.136 331.416C395.352 331.527 394.845 331.974 394.998 332.725Z" fill="black"/>
<path d="M395.646 326.113C395.788 326.187 395.944 326.228 396.105 326.233C396.265 326.237 396.424 326.206 396.57 326.141C396.716 326.077 396.846 325.98 396.949 325.858C397.052 325.736 397.126 325.593 397.165 325.439C397.38 324.91 396.988 324.54 396.529 324.348C396.386 324.283 396.23 324.248 396.072 324.246C395.914 324.244 395.757 324.274 395.611 324.336C395.466 324.397 395.335 324.488 395.227 324.603C395.119 324.717 395.036 324.853 394.984 325.001C394.939 325.234 394.982 325.476 395.103 325.681C395.225 325.886 395.418 326.039 395.646 326.113V326.113Z" fill="black"/>
<path d="M383.575 306.079C383.701 306.848 384.131 307.282 384.856 307.235C385.046 307.223 385.314 306.792 385.361 306.524C385.483 305.83 385.243 305.235 384.438 305.229C384.324 305.223 384.209 305.241 384.102 305.281C383.995 305.322 383.898 305.384 383.817 305.464C383.735 305.544 383.672 305.64 383.63 305.746C383.589 305.852 383.57 305.966 383.575 306.079V306.079Z" fill="black"/>
<path d="M384.479 373.292C384.324 373.281 384.169 373.314 384.031 373.386C383.894 373.458 383.779 373.566 383.699 373.699C384.378 373.992 385.076 374.239 385.79 374.437C385.75 374.12 385.594 373.829 385.353 373.618C385.112 373.408 384.801 373.291 384.479 373.292V373.292Z" fill="black"/>
<path d="M384.517 314.847C384.68 314.857 384.843 314.833 384.997 314.779C385.151 314.725 385.292 314.641 385.412 314.531C385.533 314.422 385.63 314.29 385.698 314.142C385.766 313.995 385.804 313.836 385.809 313.674C385.814 313.512 385.786 313.351 385.727 313.2C385.668 313.049 385.579 312.911 385.465 312.794C385.352 312.678 385.216 312.585 385.066 312.522C384.915 312.459 384.754 312.426 384.59 312.425C384.272 312.424 383.966 312.547 383.737 312.766C383.509 312.986 383.375 313.285 383.366 313.601C383.356 313.916 383.471 314.223 383.686 314.456C383.901 314.688 384.199 314.829 384.517 314.847V314.847Z" fill="black"/>
<path d="M387.814 371.654C388.532 372.016 389.008 371.627 389.352 371.007C389.416 370.862 389.449 370.705 389.451 370.546C389.452 370.387 389.42 370.229 389.358 370.083C389.296 369.936 389.205 369.804 389.09 369.693C388.975 369.583 388.838 369.496 388.688 369.44C387.971 369.097 387.437 369.536 387.129 370.13C386.758 370.849 387.206 371.349 387.814 371.654Z" fill="black"/>
<path d="M392.375 373.259C392.054 373.252 391.742 373.37 391.508 373.588C391.274 373.807 391.136 374.108 391.124 374.427C391.115 374.625 391.157 374.822 391.246 375C391.908 374.953 392.567 374.867 393.219 374.743C393.292 374.545 393.327 374.335 393.321 374.124C393.204 373.623 392.938 373.229 392.375 373.259Z" fill="black"/>
<path d="M403.148 361.952C403.027 361.961 402.909 361.995 402.801 362.051C402.694 362.107 402.599 362.185 402.524 362.279C402.448 362.374 402.393 362.482 402.362 362.599C402.33 362.715 402.324 362.837 402.342 362.956C402.354 363.115 402.404 363.27 402.488 363.406C402.571 363.543 402.687 363.657 402.825 363.741C402.962 363.824 403.118 363.874 403.278 363.885C403.439 363.897 403.6 363.871 403.749 363.808C404.244 363.685 404.607 363.392 404.582 363.074C404.429 361.976 403.847 361.821 403.148 361.952Z" fill="black"/>
<path d="M403.442 331.65C403.282 331.669 403.128 331.72 402.989 331.799C402.849 331.877 402.727 331.983 402.629 332.11C402.531 332.236 402.46 332.381 402.42 332.535C402.379 332.689 402.37 332.85 402.393 333.008C402.416 333.165 402.471 333.317 402.554 333.453C402.637 333.59 402.747 333.708 402.877 333.802C403.006 333.896 403.154 333.963 403.31 333.999C403.467 334.036 403.629 334.041 403.787 334.014C404.556 333.946 404.795 333.36 404.783 332.658C404.774 332.499 404.73 332.345 404.655 332.205C404.579 332.065 404.474 331.943 404.347 331.847C404.219 331.751 404.072 331.684 403.916 331.65C403.76 331.616 403.598 331.616 403.442 331.65V331.65Z" fill="black"/>
<path d="M403.32 339.097C403.155 339.105 402.994 339.147 402.847 339.221C402.701 339.295 402.571 339.399 402.468 339.526C402.364 339.654 402.289 339.801 402.247 339.959C402.205 340.117 402.198 340.282 402.225 340.443C402.273 341.242 402.923 341.44 403.62 341.49C403.783 341.508 403.948 341.485 404.1 341.424C404.253 341.363 404.387 341.266 404.493 341.141C404.598 341.016 404.671 340.868 404.705 340.708C404.739 340.549 404.733 340.384 404.687 340.227C404.65 339.9 404.487 339.6 404.232 339.39C403.978 339.179 403.651 339.074 403.32 339.097V339.097Z" fill="black"/>
<path d="M401.149 359.468C401.182 359.15 401.089 358.832 400.89 358.581C400.691 358.33 400.401 358.165 400.082 358.122C399.925 358.081 399.761 358.075 399.603 358.106C399.444 358.137 399.295 358.204 399.166 358.301C399.037 358.399 398.933 358.524 398.86 358.668C398.788 358.811 398.75 358.969 398.749 359.13C398.713 359.285 398.711 359.446 398.744 359.603C398.777 359.759 398.843 359.906 398.938 360.034C399.033 360.163 399.155 360.269 399.296 360.347C399.437 360.424 399.592 360.471 399.753 360.483C400.073 360.53 400.4 360.45 400.661 360.26C400.922 360.07 401.098 359.786 401.149 359.468V359.468Z" fill="black"/>
<path d="M403.471 354.295C403.31 354.277 403.148 354.299 402.998 354.357C402.848 354.416 402.714 354.511 402.609 354.633C402.504 354.754 402.431 354.9 402.396 355.056C402.361 355.213 402.366 355.375 402.409 355.53C402.426 355.69 402.478 355.844 402.559 355.983C402.641 356.122 402.751 356.242 402.883 356.336C403.015 356.43 403.165 356.496 403.324 356.529C403.483 356.561 403.647 356.56 403.805 356.526C404.048 356.508 404.275 356.397 404.438 356.217C404.602 356.037 404.689 355.802 404.682 355.56C404.672 355.238 404.544 354.931 404.32 354.698C404.097 354.465 403.794 354.321 403.471 354.295V354.295Z" fill="black"/>
<path d="M404.634 347.982C404.679 347.803 404.664 347.614 404.592 347.444C404.52 347.273 404.395 347.131 404.235 347.036C403.348 346.718 403.084 347.157 402.923 347.596C402.762 348.034 402.747 348.64 403.266 348.828C403.412 348.886 403.569 348.909 403.726 348.895C403.882 348.882 404.033 348.832 404.166 348.749C404.3 348.667 404.412 348.554 404.493 348.421C404.574 348.288 404.623 348.137 404.634 347.982V347.982Z" fill="black"/>
<path d="M399.472 366.143C399.364 366.181 399.267 366.243 399.186 366.324C399.106 366.405 399.045 366.503 399.008 366.61C398.971 366.718 398.959 366.832 398.972 366.945C398.986 367.058 399.025 367.166 399.087 367.262C399.172 367.381 399.285 367.478 399.416 367.546C399.546 367.614 399.691 367.651 399.838 367.653C400.319 367.59 400.667 367.281 400.607 366.95C400.365 366.203 399.917 365.976 399.472 366.143Z" fill="black"/>
<path d="M407.1 337.388C406.91 336.906 406.711 336.424 406.504 335.941C406.421 336.087 406.368 336.247 406.349 336.414C406.332 336.527 406.339 336.642 406.368 336.753C406.396 336.863 406.447 336.967 406.517 337.058C406.588 337.149 406.675 337.225 406.775 337.281C406.875 337.338 406.986 337.374 407.1 337.388V337.388Z" fill="black"/>
<path d="M408.471 352.036C408.574 351.173 408.22 350.867 407.721 350.766C407.015 350.625 406.448 350.85 406.346 351.64C406.33 351.758 406.338 351.878 406.37 351.992C406.401 352.107 406.456 352.214 406.531 352.306C406.606 352.399 406.699 352.476 406.805 352.531C406.91 352.587 407.027 352.621 407.146 352.631C407.872 352.781 408.372 352.514 408.471 352.036Z" fill="black"/>
<path d="M408.033 342.946C407.121 342.764 406.915 343.485 406.942 344.094C406.979 344.311 407.07 344.516 407.206 344.69C407.343 344.864 407.521 345.002 407.724 345.091C408.536 345.271 408.767 344.609 408.88 343.98C408.878 343.738 408.794 343.504 408.64 343.316C408.486 343.128 408.272 342.998 408.033 342.946V342.946Z" fill="black"/>
<path d="M392.446 367.718C392.573 367.72 392.7 367.694 392.816 367.643C392.932 367.591 393.036 367.516 393.12 367.421C393.204 367.326 393.267 367.214 393.303 367.093C393.34 366.972 393.35 366.845 393.332 366.72C393.322 366.419 393.202 366.132 392.995 365.913C392.787 365.693 392.506 365.556 392.204 365.527C391.411 365.61 391.065 366.036 391.109 366.544C391.11 366.711 391.147 366.876 391.217 367.028C391.286 367.18 391.388 367.316 391.514 367.427C391.64 367.538 391.788 367.621 391.949 367.671C392.109 367.721 392.279 367.737 392.446 367.718V367.718Z" fill="black"/>
<path d="M392.043 322.434C392.731 322.683 393.273 322.111 393.421 321.412C393.492 321.118 393.449 320.808 393.301 320.544C393.152 320.28 392.908 320.081 392.618 319.988C391.826 319.81 391.575 320.212 391.482 320.726C391.361 321.386 391.377 322.193 392.043 322.434Z" fill="black"/>
<path d="M387.91 309.04C387.668 309.035 387.433 309.125 387.257 309.291C387.082 309.457 386.98 309.686 386.974 309.926C386.919 310.758 387.523 310.943 388.217 310.964C388.458 310.971 388.692 310.882 388.867 310.717C389.043 310.552 389.145 310.325 389.152 310.086C389.216 309.234 388.578 309.042 387.91 309.04Z" fill="black"/>
<path d="M388.279 316.381C387.589 316.515 387.035 316.902 387.016 317.595C387.011 317.918 387.135 318.231 387.362 318.463C387.589 318.695 387.899 318.829 388.225 318.834C388.387 318.847 388.549 318.825 388.7 318.77C388.852 318.715 388.99 318.628 389.106 318.516C389.221 318.403 389.31 318.268 389.368 318.118C389.425 317.968 389.45 317.808 389.439 317.648C389.452 317.328 389.338 317.016 389.121 316.779C388.903 316.542 388.601 316.399 388.279 316.381V316.381Z" fill="black"/>
<path d="M396.069 369.388C395.914 369.343 395.751 369.335 395.592 369.364C395.434 369.393 395.284 369.458 395.155 369.554C395.025 369.65 394.92 369.774 394.848 369.917C394.775 370.06 394.737 370.218 394.737 370.378C394.684 371.06 394.957 371.664 395.726 371.743C396.045 371.788 396.369 371.706 396.629 371.516C396.888 371.326 397.061 371.043 397.112 370.727C397.134 370.571 397.125 370.412 397.084 370.259C397.043 370.107 396.972 369.964 396.875 369.839C396.778 369.715 396.657 369.61 396.518 369.533C396.38 369.455 396.227 369.406 396.069 369.388V369.388Z" fill="black"/>
<path d="M401.046 336.195C401.07 335.626 400.565 335.438 400.217 335.398C399.513 335.413 399.104 335.681 398.952 336.183C398.91 336.3 398.897 336.425 398.913 336.548C398.929 336.671 398.975 336.789 399.046 336.891C399.117 336.993 399.212 337.077 399.322 337.136C399.432 337.195 399.555 337.227 399.68 337.229C399.841 337.277 400.01 337.287 400.175 337.257C400.34 337.227 400.496 337.159 400.629 337.058C400.763 336.957 400.87 336.826 400.942 336.676C401.015 336.526 401.05 336.361 401.046 336.195Z" fill="black"/>
<path d="M399.745 345.263C400.066 345.311 400.392 345.232 400.655 345.043C400.917 344.853 401.093 344.569 401.145 344.252C401.165 344.095 401.155 343.935 401.113 343.782C401.071 343.629 400.999 343.486 400.901 343.361C400.803 343.235 400.682 343.131 400.543 343.052C400.404 342.974 400.25 342.924 400.092 342.905C399.936 342.864 399.773 342.858 399.614 342.889C399.456 342.919 399.307 342.985 399.178 343.081C399.049 343.177 398.944 343.301 398.87 343.444C398.796 343.586 398.756 343.743 398.753 343.903C398.716 344.058 398.713 344.219 398.744 344.376C398.776 344.532 398.841 344.679 398.935 344.809C399.029 344.938 399.15 345.045 399.29 345.123C399.43 345.202 399.585 345.249 399.745 345.263V345.263Z" fill="black"/>
<path d="M396.114 361.929C395.955 361.91 395.793 361.926 395.64 361.976C395.487 362.025 395.347 362.107 395.229 362.215C395.111 362.324 395.018 362.456 394.956 362.603C394.895 362.75 394.866 362.909 394.872 363.069C394.867 363.391 394.991 363.702 395.217 363.934C395.443 364.165 395.752 364.299 396.076 364.306C396.783 364.321 397.175 363.78 397.349 363.117C397.343 362.798 397.21 362.494 396.978 362.271C396.747 362.048 396.437 361.925 396.114 361.929V361.929Z" fill="black"/>
<path d="M399.084 351.588C399.089 351.743 399.133 351.895 399.212 352.029C399.291 352.164 399.402 352.277 399.535 352.358C400.085 352.562 400.43 352.228 400.574 351.688C400.425 351.421 400.332 350.987 400.115 350.916C400.003 350.87 399.881 350.853 399.76 350.865C399.64 350.877 399.524 350.918 399.422 350.984C399.321 351.05 399.237 351.139 399.178 351.244C399.119 351.35 399.087 351.467 399.084 351.588Z" fill="black"/>
<path d="M391.131 313.589C391.125 314.31 391.658 314.749 392.464 314.809C392.651 314.789 392.829 314.72 392.98 314.609C393.131 314.498 393.25 314.348 393.323 314.177C392.892 313.603 392.461 313.036 392.029 312.477C391.772 312.529 391.542 312.67 391.378 312.873C391.214 313.076 391.127 313.329 391.131 313.589Z" fill="black"/>
<path d="M338.761 318.709C348.385 334.991 356.025 350.53 364.858 364.03C376.942 382.506 403.302 369.657 399.279 344.152C396.947 329.368 383.307 311.54 373.547 300.408C355.455 279.78 324.034 293.791 338.761 318.709Z" fill="white"/>
<path d="M337.771 318.977C343.512 328.708 348.818 338.683 354.379 348.516C356.971 353.105 359.628 357.66 362.455 362.11C364.351 365.096 366.314 367.95 369.248 370.03C371.504 371.591 374.096 372.611 376.818 373.009C379.539 373.408 382.317 373.175 384.933 372.328C387.715 371.437 390.291 370.005 392.508 368.115C394.726 366.226 396.542 363.917 397.85 361.323C405.876 345.767 395.587 328.039 386.615 315.359C383.975 311.63 381.172 308.015 378.253 304.497C375.829 301.321 373.061 298.418 369.999 295.84C364.844 291.746 358.344 289.689 351.751 290.065C346.314 290.465 340.714 292.674 337.263 297.007C333.462 301.78 333.26 308.043 335.23 313.618C335.906 315.479 336.757 317.273 337.771 318.977C338.083 319.512 339.957 318.803 339.751 318.45C336.629 313.1 334.603 306.522 336.996 300.508C337.983 298.173 339.533 296.114 341.511 294.512C343.488 292.911 345.831 291.815 348.335 291.321C354.289 290.045 360.628 291.667 365.711 294.84C368.737 296.824 371.44 299.252 373.729 302.043C376.443 305.186 379.058 308.41 381.575 311.714C386.948 318.8 391.966 326.355 395.376 334.591C398.239 341.505 399.741 349.131 397.837 356.498C396.383 362.128 392.916 367.409 387.728 370.295C385.476 371.568 382.934 372.251 380.342 372.279C377.75 372.308 375.193 371.68 372.914 370.457C370.354 369.035 368.15 367.06 366.465 364.679C363.679 360.832 361.321 356.608 358.941 352.508C353.74 343.541 348.886 334.384 343.763 325.374C342.445 323.054 341.107 320.744 339.751 318.445C339.434 317.911 337.565 318.622 337.771 318.977Z" fill="black"/>
<path d="M377.352 361.448C383.73 347.823 384.357 315.946 368.935 305.815C350.77 293.882 354.731 311.543 358.96 316.876C348.677 311.343 343.218 317.669 349.446 327.45C356.018 337.768 368.73 336.957 377.352 361.448Z" fill="black"/>
<path d="M361.474 343.231C366.675 343.231 370.891 339.049 370.891 333.891C370.891 328.733 366.675 324.551 361.474 324.551C356.273 324.551 352.057 328.733 352.057 333.891C352.057 339.049 356.273 343.231 361.474 343.231Z" fill="white"/>
<path d="M474.372 231.599C474.193 220.447 469.377 210.228 456.354 210.228C442.975 210.228 435.305 220.799 437.267 237.127C439.175 253.003 448.505 269.604 468.662 286.997C479.81 275.548 498.664 270.039 509.806 250.463C514.869 241.563 514.829 225.415 502.983 219.603C492.031 214.235 480.08 220.802 474.372 231.599Z" fill="url(#paint4_linear)"/>
<path d="M405.336 195.739C401.075 191.47 395.362 189.29 390.299 194.135C385.096 199.113 386.088 206.078 392.988 211.696C399.699 217.159 409.567 220.142 423.943 219.405C423.973 210.805 429.233 201.648 426.205 189.893C424.828 184.549 418.742 178.285 411.951 180.433C405.676 182.418 403.497 189.415 405.336 195.739Z" fill="url(#paint5_linear)"/>
<path d="M415.573 253.696C416.699 250.256 416.303 246.617 412.306 245.252C408.201 243.851 404.729 246.292 403.603 251.507C402.507 256.58 403.615 262.651 407.959 270.099C412.592 267.753 418.961 268.038 424.45 263.197C426.948 260.996 428.642 256.036 425.621 253.013C422.831 250.218 418.468 250.982 415.573 253.696Z" fill="url(#paint6_linear)"/>
<path d="M214.883 472.922C216.087 452.393 206.771 463.422 193.387 475.332C185.603 482.258 170.575 495.799 147.904 505.418L165.686 558.563C164.474 537.307 212.562 512.498 214.883 472.922Z" fill="#B2B2B2"/>
<path d="M165.686 558.562C165.837 561.031 166.635 563.415 167.997 565.472L165.686 558.562Z" fill="#B2B2B2"/>
<path d="M148.265 505.752C164.21 498.956 178.516 489.228 191.517 477.772C196.751 473.158 201.677 467.991 207.33 463.898C208.492 463.057 210.665 461.24 212.163 462.29C214.144 463.676 214.016 467.525 214.031 469.609C214.144 484.286 207.591 497.636 199.093 509.172C191.37 519.657 182.017 528.721 173.899 538.87C168.719 545.347 162.175 554.346 165.678 563.102C166.07 564.055 166.548 564.969 167.107 565.833C167.403 566.303 169.264 565.705 168.885 565.113C163.498 556.622 169.082 547.382 174.384 540.467C182.31 530.139 191.774 521.123 199.656 510.747C208.241 499.445 215.199 486.472 215.872 471.971C216.007 469.049 216.34 465.219 214.786 462.576C213.798 460.887 211.97 460.755 210.243 461.263C207.723 462.004 205.521 463.813 203.528 465.464C200.514 467.96 197.669 470.667 194.767 473.3C182.619 484.319 169.746 494.306 155.034 501.635C152.575 502.861 150.078 504.011 147.544 505.084C146.312 505.608 147.445 506.1 148.265 505.752Z" fill="black"/>
<g clip-path="url(#clip0)">
<path d="M205.885 426.153L203.63 417.74L143.141 433.948L145.395 442.361L205.885 426.153Z" fill="#3E3E3E"/>
<path d="M205.885 426.153L203.63 417.74L143.141 433.948L145.395 442.361L205.885 426.153Z" fill="url(#paint7_linear)"/>
<path d="M186.739 415.775C190.573 414.748 193.489 413.279 195.489 411.369C197.488 409.459 199.053 407.207 200.185 404.613L194.455 400.1C192.885 402.079 191.44 403.588 190.121 404.629C188.802 405.67 187.077 406.476 184.947 407.046C182.306 407.754 179.721 407.989 177.191 407.75C174.662 407.511 172.044 407.113 169.338 406.556C165.966 405.901 162.952 405.472 160.295 405.268C157.637 405.063 154.733 405.383 151.58 406.228C147.746 407.255 144.829 408.724 142.83 410.634C140.831 412.545 139.265 414.797 138.134 417.391L143.863 421.903C145.434 419.925 146.878 418.415 148.197 417.374C149.517 416.334 151.241 415.528 153.371 414.957C156.012 414.25 158.598 414.015 161.127 414.254C163.657 414.492 166.275 414.89 168.981 415.448C172.352 416.102 175.367 416.532 178.024 416.736C180.681 416.94 183.586 416.62 186.739 415.775Z" fill="#3E3E3E"/>
<path d="M186.739 415.775C190.573 414.748 193.489 413.279 195.489 411.369C197.488 409.459 199.053 407.207 200.185 404.613L194.455 400.1C192.885 402.079 191.44 403.588 190.121 404.629C188.802 405.67 187.077 406.476 184.947 407.046C182.306 407.754 179.721 407.989 177.191 407.75C174.662 407.511 172.044 407.113 169.338 406.556C165.966 405.901 162.952 405.472 160.295 405.268C157.637 405.063 154.733 405.383 151.58 406.228C147.746 407.255 144.829 408.724 142.83 410.634C140.831 412.545 139.265 414.797 138.134 417.391L143.863 421.903C145.434 419.925 146.878 418.415 148.197 417.374C149.517 416.334 151.241 415.528 153.371 414.957C156.012 414.25 158.598 414.015 161.127 414.254C163.657 414.492 166.275 414.89 168.981 415.448C172.352 416.102 175.367 416.532 178.024 416.736C180.681 416.94 183.586 416.62 186.739 415.775Z" fill="url(#paint8_linear)"/>
</g>
<defs>
<linearGradient id="paint0_linear" x1="48.8848" y1="490.443" x2="1008.69" y2="490.443" gradientUnits="userSpaceOnUse">
<stop offset="0.385417" stop-color="#8F6AFA"/>
<stop offset="0.75" stop-color="#375CDC"/>
<stop offset="1" stop-color="#0099EE"/>
</linearGradient>
<linearGradient id="paint1_linear" x1="320.436" y1="360.122" x2="374.708" y2="360.122" gradientUnits="userSpaceOnUse">
<stop offset="0.385417" stop-color="#8F6AFA"/>
<stop offset="0.75" stop-color="#375CDC"/>
<stop offset="1" stop-color="#0099EE"/>
</linearGradient>
<linearGradient id="paint2_linear" x1="288.924" y1="333.755" x2="355.104" y2="333.755" gradientUnits="userSpaceOnUse">
<stop offset="0.385417" stop-color="#8F6AFA"/>
<stop offset="0.75" stop-color="#375CDC"/>
<stop offset="1" stop-color="#0099EE"/>
</linearGradient>
<linearGradient id="paint3_linear" x1="87.0156" y1="366.043" x2="221.023" y2="366.043" gradientUnits="userSpaceOnUse">
<stop offset="0.385417" stop-color="#8F6AFA"/>
<stop offset="0.75" stop-color="#375CDC"/>
<stop offset="1" stop-color="#0099EE"/>
</linearGradient>
<linearGradient id="paint4_linear" x1="436.963" y1="210.228" x2="516.806" y2="210.228" gradientUnits="userSpaceOnUse">
<stop offset="0.385417" stop-color="#8F6AFA"/>
<stop offset="0.75" stop-color="#375CDC"/>
<stop offset="1" stop-color="#0099EE"/>
</linearGradient>
<linearGradient id="paint5_linear" x1="387" y1="180" x2="429.151" y2="180" gradientUnits="userSpaceOnUse">
<stop offset="0.385417" stop-color="#8F6AFA"/>
<stop offset="0.75" stop-color="#375CDC"/>
<stop offset="1" stop-color="#0099EE"/>
</linearGradient>
<linearGradient id="paint6_linear" x1="403.209" y1="244.862" x2="428.438" y2="244.862" gradientUnits="userSpaceOnUse">
<stop offset="0.385417" stop-color="#8F6AFA"/>
<stop offset="0.75" stop-color="#375CDC"/>
<stop offset="1" stop-color="#0099EE"/>
</linearGradient>
<linearGradient id="paint7_linear" x1="143.141" y1="433.948" x2="206.655" y2="416.929" gradientUnits="userSpaceOnUse">
<stop stop-color="#8F6AFA"/>
<stop offset="0.567708" stop-color="#375CDC"/>
<stop offset="1" stop-color="#0099EE"/>
</linearGradient>
<linearGradient id="paint8_linear" x1="136.244" y1="410.337" x2="200.387" y2="393.15" gradientUnits="userSpaceOnUse">
<stop stop-color="#8F6AFA"/>
<stop offset="0.567708" stop-color="#375CDC"/>
<stop offset="1" stop-color="#0099EE"/>
</linearGradient>
<clipPath id="clip0">
<rect width="64.4834" height="34.8418" fill="white" transform="translate(134.98 409.725) rotate(-15)"/>
</clipPath>
</defs>
</svg>
