<svg width="1000" height="1000" viewBox="0 0 1000 1000" fill="none" xmlns="http://www.w3.org/2000/svg">
<g clip-path="url(#clip0)">
<path d="M283.179 44.6311C281.666 44.6313 280.212 45.2236 279.127 46.2821C278.041 47.3407 277.41 48.7821 277.368 50.3L273.196 199.481C272.979 206.66 269.983 213.472 264.844 218.472C259.705 223.473 252.827 226.27 245.667 226.27C238.518 226.27 231.65 223.481 226.513 218.494C221.376 213.507 218.374 206.711 218.14 199.544L213.665 50.6296C213.616 49.0222 212.945 47.497 211.795 46.3772C210.644 45.2574 209.104 44.6311 207.501 44.6311V44.6311C205.898 44.6311 204.358 45.2574 203.208 46.3772C202.057 47.497 201.387 49.0222 201.338 50.6296L196.864 199.544C196.63 206.711 193.627 213.507 188.491 218.494C183.354 223.481 176.485 226.27 169.337 226.27V226.27C162.177 226.27 155.299 223.473 150.16 218.472C145.021 213.471 142.026 206.66 141.808 199.481L137.635 50.3C137.593 48.782 136.962 47.3405 135.876 46.2819C134.791 45.2233 133.337 44.631 131.823 44.6311V44.6311C131.06 44.6311 130.304 44.782 129.599 45.0751C128.893 45.3681 128.252 45.7977 127.713 46.3393C126.622 47.433 126.01 48.9165 126.01 50.4633V220.619C126.009 229.734 128.133 238.722 132.211 246.867C136.29 255.012 142.21 262.087 149.499 267.528L183.803 292.965C188.682 296.582 192.647 301.298 195.379 306.732C198.111 312.167 199.534 318.168 199.535 324.254V928.362H215.468V324.251C215.468 318.165 216.892 312.163 219.624 306.729C222.356 301.295 226.321 296.579 231.2 292.962L265.505 267.528C272.793 262.086 278.713 255.011 282.791 246.866C286.869 238.722 288.992 229.733 288.991 220.619V50.4633C288.991 48.9169 288.378 47.4339 287.289 46.3403C286.199 45.2467 284.721 44.6319 283.179 44.6311V44.6311Z" fill="#B2B2B2"/>
<path d="M283.299 44.026C278.097 44.542 276.465 48.213 276.338 52.7818L275.967 66.0301L274.576 115.763C273.799 143.565 273.428 171.411 272.243 199.199C271.744 210.921 264.33 221.691 252.7 224.766C238.253 228.585 223.219 219.223 219.828 204.708C217.785 195.957 218.708 185.89 218.44 176.996L215.29 72.3232L214.791 55.7725C214.713 53.1765 215.09 49.6407 213.726 47.3303C210.026 41.0623 200.987 44.4258 200.363 50.9422C200.083 53.8618 200.185 56.8716 200.097 59.8012L197.07 160.514L195.972 197.127C195.779 203.539 194.528 209.651 190.614 214.961C181.036 227.95 161.902 229.032 150.647 217.666C141.638 208.567 142.692 196.297 142.365 184.592L140.986 135.329C140.199 107.18 140.262 78.8597 138.621 50.7469C138.257 44.5069 130.785 41.5493 126.571 46.5608C124.607 48.8953 125.041 52.0524 125.041 54.8968V196.969C125.041 204.637 125.009 212.306 125.041 219.974C124.964 232.792 128.966 245.3 136.465 255.678C141.371 262.377 147.672 267.236 154.237 272.104L175.577 287.928C182.228 292.859 188.877 297.455 193.205 304.789C197.627 312.28 198.565 320.363 198.565 328.767V928.464C198.57 928.539 198.589 928.612 198.623 928.678C198.657 928.745 198.703 928.804 198.761 928.852C198.818 928.9 198.885 928.935 198.956 928.956C199.028 928.977 199.103 928.983 199.177 928.973H215.11C215.46 928.973 216.439 928.797 216.439 928.26V365.515C216.439 351.976 216.37 338.434 216.439 324.894C216.361 317.489 218.341 310.209 222.156 303.869C227.079 295.891 235.063 290.899 242.423 285.442C258.77 273.319 277.547 262.464 285.598 242.723C290.678 230.27 289.964 217.065 289.964 203.927V53.0172C289.964 48.7831 288.923 44.016 283.539 44.016C282.733 44.016 281.521 45.2383 282.822 45.2383C286.631 45.2383 287.959 48.6919 288.025 51.7648C288.059 53.3679 288.025 54.9709 288.025 56.567V215.561C288.025 229.926 285.469 243.403 276.739 255.219C270.967 263.034 263.25 268.385 255.574 274.077L233.262 290.628C224.843 296.871 218.238 304.509 215.647 314.963C214.321 320.306 214.5 325.676 214.5 331.112V928.464L215.829 927.751H205.752C204.044 927.751 202.295 927.64 200.59 927.751C199.541 927.819 200.364 927.811 200.505 928.198C200.391 927.393 200.391 926.576 200.505 925.771V353.175C200.505 343.515 200.635 333.846 200.505 324.188C200.479 318.281 199.144 312.453 196.597 307.127C194.05 301.801 190.354 297.109 185.778 293.392C181.194 289.706 176.322 286.343 171.596 282.841C155.716 271.067 138.206 260.632 130.793 241.181C126.399 229.659 126.976 217.536 126.976 205.457V60.8953C126.976 57.619 126.868 54.3207 126.976 51.0454C126.982 50.835 126.949 50.6106 126.976 50.4022C126.93 49.4849 127.222 48.5825 127.796 47.8673C130.031 43.9188 135.492 45.2564 136.525 49.4103C136.687 50.3361 136.751 51.2764 136.717 52.2157L137.69 87.0123L140.547 189.178C140.639 192.484 140.705 195.791 140.825 199.097C140.908 203.396 141.959 207.621 143.899 211.456C145.84 215.29 148.619 218.635 152.03 221.239C170.307 234.985 196.738 221.786 197.839 199.276C199.187 171.761 199.495 144.155 200.323 116.618L201.821 66.8226L202.237 52.917C202.261 52.1465 202.213 51.334 202.308 50.5685C202.835 46.3314 208.033 43.4489 211.26 47.147C212.17 48.251 212.679 49.6316 212.705 51.0635C213.616 60.6168 213.289 70.4586 213.576 80.045L215.237 135.31L216.715 184.492C217.031 195.012 216.021 206.467 222.592 215.411C236.815 234.77 268.72 227.781 273.593 204.224C275.366 195.657 274.54 186.044 274.782 177.372L277.723 72.1979L278.177 55.9468C278.277 52.2598 277.386 45.7974 283.071 45.2333C284.066 45.1371 284.623 43.8937 283.299 44.026Z" fill="black"/>
<path d="M207.502 942.34C215.197 942.34 221.435 936.082 221.435 928.362C221.435 920.642 215.197 914.384 207.502 914.384C199.807 914.384 193.568 920.642 193.568 928.362C193.568 936.082 199.807 942.34 207.502 942.34Z" fill="#B2B2B2"/>
<path d="M222.4 928.102C222.359 925.082 221.376 922.15 219.588 919.718C217.801 917.287 215.298 915.479 212.434 914.548C209.554 913.657 206.48 913.62 203.58 914.441C200.68 915.262 198.079 916.906 196.088 919.175C194.114 921.49 192.92 924.372 192.678 927.409C192.437 930.446 193.16 933.482 194.744 936.082C196.507 938.76 199.074 940.806 202.073 941.924C205.071 943.042 208.347 943.175 211.426 942.303C214.505 941.43 217.227 939.598 219.2 937.072C221.173 934.545 222.293 931.454 222.4 928.247C222.41 927.445 220.478 927.846 220.47 928.487C220.484 931.18 219.692 933.815 218.196 936.051C216.701 938.288 214.57 940.022 212.081 941.03C209.495 941.925 206.693 941.985 204.072 941.2C201.45 940.416 199.139 938.827 197.464 936.657C195.786 934.5 194.785 931.892 194.59 929.163C194.394 926.435 195.012 923.709 196.365 921.334C197.722 918.954 199.815 917.081 202.326 915.999C204.837 914.916 207.632 914.682 210.287 915.332C213.204 916.119 215.78 917.848 217.62 920.25C219.459 922.653 220.459 925.597 220.465 928.626C220.478 929.226 222.409 928.856 222.4 928.102Z" fill="black"/>
<path d="M155.648 257.537C153.934 255.423 152.494 253.1 151.361 250.624C143.033 232.062 179.326 237.233 187.888 237.249L248.439 237.365C253.405 237.374 261.157 236.853 264.03 241.827C265.907 245.078 264.601 249.341 262.265 252.281C249.522 268.311 223.639 282.001 203.06 280.448C187.857 279.296 166.331 270.895 155.648 257.537Z" fill="white"/>
<path d="M94.8595 703.582C86.206 683.65 67.6979 675.353 53.3125 673.901C73.0329 649.236 101.354 639.56 131.136 639.56C107.831 651.586 94.1131 673.901 94.8595 703.582Z" fill="black"/>
<path d="M95.8222 703.322C92.8519 696.646 88.4682 690.695 82.9741 685.881C77.4801 681.067 71.0069 677.505 64.0022 675.441C60.7097 674.438 57.3289 673.751 53.9061 673.392L54.2054 673.907C61.4251 664.868 70.3695 657.357 80.5178 651.811C90.2562 646.622 100.811 643.141 111.723 641.518C118.021 640.555 124.383 640.076 130.753 640.086L130.541 639.294C121.676 643.805 113.897 650.19 107.742 658.007C101.628 666.014 97.4249 675.316 95.455 685.2C94.2358 691.335 93.7117 697.588 93.8926 703.841C93.9055 704.41 95.8372 704.046 95.8202 703.324C95.4474 692.764 97.2754 682.241 101.188 672.427C104.903 663.465 110.64 655.486 117.95 649.114C122.158 645.482 126.782 642.365 131.727 639.828C132.295 639.528 132.118 639.035 131.514 639.036C108.488 639.068 85.283 645.02 66.9515 659.429C61.5728 663.681 56.6965 668.534 52.4174 673.893C52.2179 674.139 52.4593 674.381 52.7168 674.408C65.9959 675.707 78.2471 682.133 86.8714 692.321C89.7313 695.819 92.0947 699.696 93.8946 703.841C94.1769 704.483 96.0686 703.885 95.8222 703.322Z" fill="black"/>
<path d="M386.659 924.362C377.218 929.13 367.28 932.844 357.026 935.436C321.168 945.012 277.486 946.131 263.468 936.694C260.325 934.577 258.988 932.071 258.988 929.335C258.988 926.259 260.684 922.914 263.398 919.529C289.679 885.947 328.431 848.38 286.725 765.149H300.222C326.961 806.69 336.29 845.235 324.457 886.366C334.355 884.347 344.561 884.371 354.449 886.436C367.56 889.122 366.163 893.975 349.85 901.145C375.934 891.509 421.148 906.188 386.659 924.362Z" fill="url(#paint0_linear)"/>
<path d="M386.088 924.184C374.048 930.497 360.817 934.442 347.584 937.349C334.981 940.122 322.171 941.852 309.284 942.52C298.597 943.068 287.616 943.039 277.079 940.944C273.318 940.301 269.668 939.126 266.237 937.455C264.064 936.458 262.223 934.858 260.932 932.845C260.314 931.62 259.988 930.269 259.98 928.898C259.972 927.526 260.283 926.171 260.887 924.94C262.64 920.756 266.067 917.199 268.887 913.682C271.175 910.829 273.471 907.982 275.733 905.108C280.408 899.173 284.936 893.112 288.998 886.734C297.952 872.679 304.18 857.077 305.668 840.381C307.678 817.813 301.495 795.388 292.425 774.916C290.929 771.535 289.34 768.196 287.688 764.889L286.32 765.588H299.822L299.262 765.408C308.781 780.226 317.027 795.999 322.338 812.84C330.199 836.71 330.607 862.411 323.506 886.519C323.401 886.884 324.144 886.806 324.296 886.777C334.235 884.798 344.473 884.87 354.382 886.989C356.754 887.512 359.936 888.126 361.658 890.022C362.985 891.483 362.022 893.136 360.83 894.316C357.784 897.335 353.358 899.163 349.505 900.865C348.251 901.42 349.422 901.7 350.204 901.416C360.367 897.703 372.228 897.654 382.676 900.183C386.817 901.182 391.122 902.637 394.507 905.311C396.894 907.195 398.768 909.954 397.984 913.116C397.367 915.141 396.2 916.955 394.613 918.355C392.061 920.688 389.192 922.649 386.092 924.18C384.961 924.779 386.719 924.806 387.231 924.535C391.7 922.163 397.128 919.072 399.371 914.26C400.823 911.147 399.862 908.005 397.498 905.662C394.394 902.587 389.93 900.92 385.802 899.78C380.32 898.316 374.666 897.6 368.992 897.651C362.36 897.582 355.767 898.67 349.507 900.865L350.206 901.416C354.088 899.7 358.167 897.896 361.492 895.202C362.83 894.119 364.884 892.261 364.11 890.299C363.252 888.128 360.049 887.259 358.066 886.705C353.061 885.372 347.918 884.627 342.742 884.484C336.668 884.282 330.591 884.774 324.629 885.951L325.42 886.208C330.812 867.653 331.848 848.101 328.449 829.079C324.711 808.591 316.06 789.325 305.362 771.576C304.564 770.245 303.751 768.923 302.924 767.611C302.439 766.839 301.681 764.89 300.739 764.715C299.634 764.617 298.524 764.617 297.419 764.715H287.128C286.937 764.715 285.556 765.004 285.761 765.414C296.563 787.026 304.863 810.906 304.076 835.377C303.517 852.747 297.89 869.229 288.959 884.035C284.847 890.715 280.342 897.144 275.469 903.29C273.16 906.257 270.806 909.189 268.453 912.121C265.898 915.304 263.133 918.43 260.87 921.826C259.18 924.081 258.191 926.785 258.027 929.599C258.067 930.876 258.39 932.127 258.973 933.263C259.556 934.399 260.384 935.392 261.397 936.168C264.19 938.496 267.823 939.803 271.279 940.761C281.014 943.457 291.425 943.808 301.464 943.644C314.275 943.391 327.044 942.077 339.639 939.716C352.982 937.258 366.289 933.809 378.807 928.512C381.666 927.303 384.48 925.989 387.231 924.547C388.36 923.944 386.6 923.915 386.088 924.184Z" fill="black"/>
<path d="M323.483 886.451C321.694 893.452 319.359 900.302 316.499 906.938C315.009 910.575 313.463 914.195 311.798 917.755C311.349 918.714 313.289 918.654 313.628 917.931C315.34 914.273 316.927 910.552 318.452 906.812C321.309 900.16 323.644 893.295 325.437 886.28C325.644 885.398 323.68 885.646 323.49 886.451H323.483Z" fill="black"/>
<path d="M514.425 914.471C530.732 907.305 532.13 902.454 519.02 899.769C506.755 897.256 495.611 897.863 483.453 900.967C486.579 853.453 463.718 808.277 426.404 779.077C456.978 764.585 482.049 731.246 482.049 669.017C482.049 630.646 470.52 600.294 451.197 574.984C440.583 561.08 423.201 547.823 406.938 540.252C512.97 529.908 598.236 637.496 495.45 700.583L483.511 730.882L484.432 756.555C507.181 750.391 590.276 695.126 577.758 628.455C559.409 530.724 438.907 525.452 391.914 531.556C387.516 521.525 380.715 508.097 376.288 501.535C374.437 498.792 371.573 496.897 368.325 496.267C365.078 495.637 361.714 496.323 358.972 498.176C356.231 500.029 354.337 502.896 353.708 506.146C353.078 509.396 353.765 512.763 355.616 515.506C358.83 520.27 364.296 530.999 368.129 539.472C261.759 610.559 164.09 598.288 164.09 560.173C164.09 550.214 169.134 543.313 180.076 538.992C201.283 530.617 166.531 491.178 159.372 495.055C144.488 503.107 116.547 527.225 121.957 563.495C131.397 626.804 255.587 639.733 366.55 552.205C366.706 555.172 367.123 558.12 367.795 561.014C373.582 586.889 356.808 619.293 338.645 633.311C304.531 633.311 253.352 660.389 250.833 706.339C247.99 758.184 292.844 787.585 325.379 766.088C341.809 784.447 380.699 794.716 415.62 783.363C469.47 848.315 453.416 900.36 427.967 932.867C422.852 939.242 421.353 945.527 428.036 950.027C446.345 962.357 515.217 956.667 551.226 937.699C585.72 919.523 540.507 904.834 514.425 914.471Z" fill="url(#paint1_linear)"/>
<path d="M514.973 914.575C519.233 912.684 525.32 910.461 528.103 906.42C530.09 903.535 527.195 901.688 524.687 900.744C518.626 898.46 511.593 897.884 505.166 897.834C497.812 897.861 490.492 898.82 483.38 900.69L484.415 900.704C486.725 864.098 473.503 828.069 449.82 800.315C443.048 792.4 435.509 785.177 427.313 778.751L426.953 779.177C439.081 773.409 449.74 764.955 458.122 754.455C468.532 741.387 475.093 725.664 478.785 709.453C483.491 688.335 484.394 666.545 481.453 645.109C478.746 624.881 471.873 605.435 461.271 588.001C455.435 578.205 448.244 569.285 439.912 561.506C430.364 552.746 419.555 545.471 407.847 539.926L406.513 540.613C433.712 537.925 461.112 543.088 485.473 555.491C505.715 565.957 524.1 581.997 533.98 602.861C543.131 622.18 543.103 644.175 532.834 663.064C526.657 674.426 517.561 683.951 507.399 691.832C504.196 694.318 500.873 696.647 497.462 698.839C496.16 699.676 494.844 700.097 494.213 701.482C492.727 704.747 491.565 708.204 490.25 711.541L484.948 725.002C484.202 726.899 482.853 729.14 482.548 731.168C482.498 732.149 482.533 733.133 482.653 734.108L482.887 740.615L483.378 754.285L483.469 756.813C483.478 757.079 484.439 756.845 484.504 756.827C493.232 754.431 501.429 749.51 508.998 744.686C520.804 737.156 531.785 728.404 541.762 718.575C563.357 697.288 581.836 668.776 579.851 637.239C578.025 608.198 562.158 580.727 539.428 563.035C518.341 546.623 492.209 537.71 466.133 533.19C443.803 529.297 421.055 528.391 398.486 530.494C396.431 530.694 394.379 530.924 392.332 531.184L392.872 531.291C389.409 523.423 385.623 515.668 381.419 508.17C378.126 502.299 374.718 496.007 367.167 495.669C360.804 495.384 354.439 499.371 352.881 505.729C352.476 507.433 352.424 509.201 352.728 510.926C353.031 512.65 353.684 514.295 354.646 515.757C356.562 518.789 358.329 521.887 359.999 525.063C362.088 529.031 364.076 533.051 365.965 537.122C366.364 537.985 367.191 539.013 366.632 539.96C366.147 540.783 363.991 541.702 363.226 542.198C360.853 543.739 358.464 545.253 356.057 546.739C347.177 552.223 338.066 557.308 328.725 561.995C312.343 570.259 295.228 576.979 277.601 582.066C252.017 589.335 223.566 593.788 197.224 587.923C183.455 584.856 165.473 576.968 165.052 560.446C164.883 557.051 165.564 553.667 167.031 550.601C168.499 547.536 170.708 544.885 173.457 542.889C177.6 539.888 183.915 539.055 186.565 534.257C190.816 526.558 184.237 516.099 179.827 510.018C177.014 506.087 173.76 502.491 170.129 499.301C167.834 497.317 164.897 494.8 161.748 494.441C158.501 494.069 155.138 497.008 152.655 498.71C148.096 501.839 143.858 505.412 140.002 509.376C130.515 519.131 123.404 531.315 121.118 544.843C119.163 556.408 120.519 568.809 126.054 579.25C135.333 596.753 154.19 606.454 172.737 611.005C198.312 617.273 225.629 615.272 251.096 609.518C284.427 601.989 316.035 587.482 344.492 568.683C352.362 563.485 360 557.959 367.408 552.107L365.575 552.452C365.903 558.593 367.787 564.477 367.962 570.644C368.082 576.714 367.356 582.772 365.803 588.642C362.837 599.998 357.681 610.665 350.625 620.041C346.951 625.041 342.629 629.529 337.772 633.389L339.269 632.929C324.043 632.981 308.82 637.571 295.358 644.507C280.322 652.255 266.638 663.643 258.199 678.488C241.477 707.903 249.664 752.676 281.361 768.643C288.386 772.19 296.22 773.821 304.075 773.373C311.93 772.925 319.528 770.413 326.105 766.09L324.463 766.402C332.071 774.797 342.538 780.2 353.191 783.66C373.613 790.137 395.541 790.098 415.939 783.549L414.649 783.614C431.212 803.675 445.122 827.045 449.307 853.081C452.321 872.02 449.699 891.427 441.768 908.885C437.826 917.494 432.872 925.601 427.011 933.035C426.804 933.301 427.774 933.189 427.775 933.189L427.012 933.035C424.381 936.39 421.474 940.969 422.999 945.418C424.086 948.587 427.099 950.586 430.002 951.943C435.211 954.379 441.077 955.402 446.745 956.064C462.772 957.938 479.234 956.763 495.149 954.438C512.15 951.956 529.252 947.947 545.036 941.024C551.395 938.235 559.377 934.862 563.268 928.76C565.98 924.509 564.148 920.329 560.344 917.563C554.43 913.264 546.365 911.824 539.248 911.256C530.746 910.465 522.172 911.493 514.096 914.27C512.805 914.738 514.027 914.918 514.75 914.657C522.045 912.185 529.776 911.266 537.446 911.961C543.961 912.433 550.881 913.721 556.621 916.985C560.254 919.05 563.92 922.615 562.344 927.157C560.144 933.496 551.979 937.089 546.417 939.689C531.59 946.621 515.359 950.604 499.258 953.2C483.817 955.688 467.929 956.974 452.3 955.728C445.925 955.219 439.316 954.343 433.343 951.949C430.463 950.796 427.342 949.17 425.673 946.45C422.797 941.757 425.966 936.439 428.918 932.67C429.126 932.405 428.156 932.516 428.155 932.516L428.918 932.671C439.635 918.935 447.64 903.028 450.868 885.824C454.795 864.923 451.208 843.566 442.712 824.226C436.146 809.28 426.948 795.64 416.582 783.085C416.333 782.785 415.57 783.061 415.292 783.151C390.901 790.968 361.846 789.142 339.464 776.172C334.562 773.398 330.119 769.881 326.293 765.747C326.017 765.447 324.908 765.891 324.65 766.059C316.567 771.454 306.795 773.71 297.168 772.404C288.056 771.006 279.543 767.002 272.653 760.873C255.958 746.328 249.351 722.503 252.286 700.978C255.303 678.853 270.35 660.736 288.784 649.108C297.799 643.412 307.634 639.134 317.946 636.427C322.623 635.193 327.396 634.358 332.214 633.93C334.231 633.757 336.495 634.03 338.468 633.631C340.357 633.249 342.127 631.107 343.479 629.851C352.405 621.317 359.395 610.965 363.978 599.494C368.708 587.999 371.384 575.036 369.151 562.647C368.383 559.113 367.839 555.535 367.522 551.932C367.498 551.496 365.849 552.152 365.689 552.277C339.989 572.498 311.37 589.217 280.559 600.308C255.796 609.221 229.382 614.694 202.979 613.963C183.435 613.421 162.887 609.482 146.377 598.461C139.559 594.031 133.784 588.17 129.454 581.285C124.934 573.678 122.462 565.028 122.279 556.179C121.448 532.06 136.229 510.196 156.009 497.487C156.859 496.941 157.721 496.414 158.594 495.905C158.949 495.7 159.302 495.487 159.667 495.297C160.297 494.97 159.594 495.14 160.081 495.155C161.266 495.298 162.403 495.713 163.403 496.367C166.53 498.248 169.368 500.574 171.827 503.271C177.698 509.356 183.441 517.088 185.38 525.476C186.132 528.736 186.218 532.376 184.283 535.262C183.181 536.819 181.655 538.027 179.888 538.743C177.019 539.887 174.282 541.339 171.726 543.074C168.136 545.738 165.47 549.461 164.102 553.719C162.734 557.978 162.733 562.558 164.099 566.817C168.239 579.882 183.272 585.873 195.434 588.611C216.724 593.404 239.481 591.276 260.634 586.848C290.611 580.574 319.32 568.719 345.913 553.646C353.735 549.212 361.385 544.492 368.861 539.486C368.9 539.46 369.137 539.319 369.092 539.219C366.321 533.117 363.371 527.083 360.134 521.216C357.44 516.335 353.521 511.897 354.677 505.938C356.111 498.549 363.95 494.213 370.803 497.777C375.77 500.361 378.425 506.675 380.971 511.386C384.573 518.056 387.896 524.886 390.948 531.823C391.021 531.987 391.36 531.947 391.489 531.93C412.689 529.353 434.135 529.547 455.285 532.505C481.115 535.959 507.08 543.366 529.108 557.652C540.401 564.865 550.282 574.082 558.263 584.85C566.744 596.632 572.731 610.023 575.856 624.203C579.367 639.406 578.4 655.3 573.074 669.965C567.915 684.299 559.387 697.26 549.454 708.722C539.785 719.775 528.883 729.684 516.962 738.255C508.254 744.572 498.944 750.578 488.958 754.681C487.459 755.312 485.922 755.851 484.358 756.295L485.394 756.309L484.569 733.306C484.384 731.655 484.652 729.984 485.342 728.473L490.097 716.405L495.113 703.669C495.403 702.619 495.804 701.603 496.311 700.638C496.988 699.984 497.772 699.451 498.63 699.063C500.304 697.994 501.955 696.89 503.585 695.753C514.453 688.172 524.425 678.991 531.689 667.825C537.515 659.019 541.141 648.94 542.259 638.438C543.377 627.935 541.956 617.318 538.116 607.481C529.906 586.302 512.659 569.5 493.343 558.19C470.389 544.969 444.209 538.408 417.738 539.242C414.273 539.339 410.814 539.555 407.362 539.89C407.192 539.906 405.693 540.419 406.029 540.577C425.896 549.838 442.923 564.253 455.342 582.326C466.477 598.68 474.191 617.12 478.018 636.535C482.073 657.929 482.258 679.878 478.563 701.337C475.73 718.13 470.156 734.673 460.586 748.861C451.9 761.818 439.909 772.214 425.855 778.969C425.75 779.018 425.287 779.231 425.494 779.394C454.04 801.837 474.743 834.179 480.876 870.194C482.611 880.439 483.153 890.851 482.49 901.221C482.473 901.479 483.488 901.245 483.525 901.234C490.45 899.421 497.585 898.533 504.742 898.596C510.694 898.707 517.24 899.283 522.868 901.387C525.063 902.209 528.005 903.808 526.383 906.51C525.306 907.984 523.912 909.197 522.305 910.06C519.603 911.699 516.786 913.138 513.876 914.366C512.722 914.877 514.535 914.77 514.973 914.575Z" fill="black"/>
<path d="M338.564 634.041C346.586 634.169 354.56 635.32 362.292 637.465C368.336 638.949 374.201 641.083 379.786 643.83C380.61 644.255 381.981 643.055 380.884 642.488C375.054 639.625 368.923 637.421 362.604 635.918C354.811 633.816 346.787 632.692 338.716 632.572C337.595 632.572 337.255 634.037 338.56 634.041H338.564Z" fill="black"/>
<path d="M467.021 711.682C463.479 696.417 477.018 683.201 484.493 687.498C510.968 702.723 503.971 775.304 444.074 768.151C448.408 764.634 455.57 756.559 455.57 756.559C449.941 742.984 449.55 723.252 467.021 711.682Z" fill="url(#paint2_linear)"/>
<path d="M467.589 711.856C469.56 710.863 471.725 710.318 473.93 710.258C474.404 710.269 474.864 710.097 475.215 709.778C475.487 709.434 474.975 709.386 474.739 709.388C471.856 709.485 469.029 710.208 466.453 711.506C466.23 711.611 465.845 711.928 466.236 712.082C466.7 712.171 467.18 712.09 467.589 711.855V711.856Z" fill="black"/>
<path d="M319.583 668.743C319.549 664.495 318.095 660.38 315.453 657.055C312.41 653.165 308.692 649.855 304.478 647.282C295.41 641.697 285.308 638.005 274.779 636.426C272.2 636.03 269.598 635.799 266.99 635.735C266.351 635.723 265.715 635.72 265.088 635.735C264.46 635.75 263.87 635.77 263.163 635.817C261.804 635.895 260.449 636.002 259.097 636.138C253.708 636.657 248.375 637.653 243.16 639.114C232.774 641.99 223.088 646.968 214.701 653.74C206.287 660.669 199.208 669.078 193.812 678.552C188.291 688.227 183.983 698.547 180.986 709.277C177.907 720.162 175.694 731.273 174.368 742.508C173.087 754.425 170.349 766.139 166.216 777.389C164.071 783.092 161.375 788.571 158.165 793.749C154.909 799.018 150.958 803.824 146.42 808.038C141.807 812.308 136.497 815.756 130.721 818.231C124.919 820.691 118.713 822.06 112.414 822.268C106.181 822.46 99.9588 821.604 94.0081 819.735C88.1319 817.89 82.5533 815.204 77.4456 811.76C67.3285 804.887 59.1191 795.557 53.5856 784.644C48.1098 773.841 45.1771 761.926 45.012 749.813C44.9007 737.848 47.0091 725.966 51.2299 714.771C55.3988 703.714 61.0008 693.253 67.8922 683.656C74.723 674.135 82.3945 665.248 90.8143 657.102C91.1898 656.728 91.6982 656.52 92.2275 656.521C92.7568 656.523 93.2638 656.735 93.6369 657.111C94.01 657.487 94.2187 657.995 94.217 658.525C94.2153 659.055 94.0034 659.562 93.628 659.936C85.5506 668.054 78.2183 676.882 71.7195 686.314C65.2607 695.675 60.0585 705.845 56.2466 716.563C52.4689 727.172 50.6908 738.39 51.0024 749.648C51.3607 760.79 54.2617 771.702 59.4832 781.549C64.66 791.307 72.2245 799.592 81.4695 805.629C90.6198 811.521 101.432 814.873 112.069 814.27C117.364 813.996 122.563 812.746 127.405 810.582C132.248 808.391 136.681 805.385 140.511 801.695C148.268 794.296 153.737 784.512 157.472 774.134C161.123 763.543 163.462 752.543 164.437 741.381C165.603 729.575 167.702 717.88 170.714 706.406C173.74 694.743 178.192 683.499 183.97 672.928C189.875 662.117 197.7 652.475 207.062 644.475C216.599 636.47 227.673 630.504 239.602 626.945C245.506 625.166 251.556 623.914 257.681 623.202C259.205 623.019 260.731 622.869 262.258 622.753C262.995 622.69 263.855 622.634 264.666 622.603C265.477 622.572 266.295 622.554 267.103 622.553C270.282 622.564 273.457 622.778 276.608 623.195C282.792 624.013 288.881 625.438 294.787 627.449C300.763 629.449 306.503 632.097 311.904 635.348C317.648 638.732 322.733 643.13 326.91 648.329C329.138 651.172 330.932 654.33 332.233 657.7C333.582 661.226 334.291 664.965 334.328 668.74V668.797C334.325 670.743 333.555 672.609 332.185 673.989C330.814 675.369 328.954 676.152 327.01 676.166C325.066 676.181 323.195 675.426 321.804 674.067C320.413 672.708 319.614 670.853 319.582 668.908C319.582 668.871 319.583 668.786 319.583 668.743Z" fill="black"/>
<path d="M454.607 756.817C455.184 758.311 455.217 759.959 454.701 761.475C454.487 762.029 454.197 762.551 453.84 763.026C453.659 763.26 453.465 763.483 453.258 763.693C453.158 763.793 453.059 763.893 452.959 763.985C452.909 764.031 452.859 764.077 452.808 764.121C452.921 764.021 452.772 764.149 452.738 764.177C452.451 764.413 452.207 764.832 452.614 765.095C452.834 765.201 453.078 765.244 453.321 765.22C453.564 765.196 453.796 765.105 453.991 764.959C455.108 764.088 455.982 762.944 456.53 761.637C457.166 759.916 457.168 758.024 456.536 756.301C456.387 755.863 455.781 755.857 455.41 755.956C455.092 756.04 454.46 756.38 454.612 756.817H454.607Z" fill="black"/>
<path d="M489.186 750.018C484.31 757.156 477.336 762.6 469.232 765.596C464.461 767.269 459.454 768.169 454.4 768.263C451.486 768.342 448.635 768.028 445.735 767.9C444.876 767.863 445.266 767.801 445.77 767.364C446.144 767.04 446.511 766.708 446.876 766.373C447.712 765.603 448.528 764.81 449.334 764.007C451.806 761.544 454.199 758.992 456.517 756.383L456.533 756.305C451.837 744.88 451.445 731.105 458.608 720.59C461.059 717.064 464.163 714.041 467.751 711.685C467.809 711.646 468.009 711.539 467.984 711.427C467.223 708.041 467.25 704.524 468.062 701.15C468.874 697.775 470.45 694.632 472.668 691.964C474.385 689.922 476.766 687.781 479.446 687.18C482.187 686.566 484.541 688.24 486.589 689.857C490.186 692.719 492.921 696.52 494.492 700.841L494.726 700.583C492.531 702.041 490.163 703.22 487.676 704.091C486.897 704.368 486.11 704.624 485.313 704.847C485.066 704.916 484.814 704.98 484.568 705.046C484.393 705.091 484.233 705.126 484.487 705.069C484.303 705.11 483.34 705.299 483.35 705.569C483.36 705.862 483.912 705.749 484.107 705.705C488.412 704.751 492.506 703.016 496.187 700.586C496.228 700.558 496.458 700.431 496.42 700.328C494.886 696.137 492.27 692.427 488.837 689.577C486.443 687.596 483.979 686.019 480.78 686.398C474.363 687.161 469.398 692.756 467.111 698.466C465.405 702.751 465.036 707.453 466.051 711.953L466.284 711.695C462.233 714.307 458.802 717.776 456.234 721.857C453.666 725.939 452.022 730.534 451.418 735.319C450.907 739.746 451.124 744.228 452.058 748.585C452.494 750.673 453.073 752.728 453.793 754.736C453.961 755.209 454.669 756.389 454.572 756.803C454.501 757.111 453.856 757.602 453.658 757.819C450.432 761.55 446.937 765.039 443.202 768.258C443.066 768.369 443.085 768.497 443.271 768.518C457.733 770.202 473.036 767.468 484.169 757.525C486.77 755.186 489.087 752.549 491.074 749.67C491.258 749.406 490.376 749.524 490.317 749.534C489.892 749.565 489.49 749.741 489.179 750.033L489.186 750.018Z" fill="black"/>
<path d="M386.658 924.362C377.216 929.13 367.279 932.844 357.025 935.436C346.04 916.323 333.478 904.89 320.598 898.828C322.125 894.753 323.414 890.592 324.459 886.366C334.357 884.347 344.563 884.371 354.451 886.436C367.561 889.122 366.165 893.975 349.851 901.145C375.932 891.509 421.147 906.188 386.658 924.362Z" fill="black"/>
<path d="M386.267 923.923C376.909 928.66 367.055 932.344 356.886 934.908L357.918 935.045C350.817 922.739 341.779 911.243 329.916 903.22C327.192 901.377 324.331 899.745 321.359 898.338L321.566 898.717C323.093 894.641 324.382 890.48 325.427 886.254L324.601 886.889C334.508 884.933 344.71 885.018 354.584 887.14C356.89 887.648 360.072 888.238 361.722 890.123C363.019 891.595 361.873 893.21 360.685 894.317C357.57 897.221 353.302 899.01 349.461 900.708C348.213 901.259 349.355 901.906 350.245 901.584C360.338 897.896 372.084 897.816 382.479 900.245C386.647 901.219 391.01 902.649 394.442 905.301C396.828 907.147 398.732 909.853 397.989 912.996C397.401 914.982 396.264 916.761 394.709 918.128C392.181 920.448 389.34 922.399 386.267 923.925C385.097 924.546 386.167 925.27 387.05 924.801C391.572 922.405 397.113 919.275 399.356 914.38C400.02 912.927 400.203 911.3 399.877 909.735C399.552 908.171 398.735 906.752 397.546 905.686C394.475 902.597 390.087 900.91 385.979 899.74C380.482 898.225 374.803 897.474 369.102 897.51C362.418 897.416 355.77 898.498 349.461 900.706L350.245 901.582C354.17 899.848 358.28 897.999 361.619 895.245C362.995 894.111 364.889 892.217 364.079 890.242C363.181 888.054 360.035 887.175 358.01 886.597C353.019 885.251 347.888 884.495 342.721 884.346C336.55 884.133 330.376 884.636 324.32 885.844C324.14 885.871 323.97 885.944 323.826 886.055C323.681 886.166 323.567 886.312 323.494 886.479C322.45 890.704 321.16 894.866 319.633 898.941C319.579 899.088 319.718 899.264 319.839 899.321C331.543 904.865 341.09 913.958 348.689 924.333C351.378 928.027 353.864 931.865 356.135 935.829C356.3 936.114 356.927 936.029 357.168 935.966C367.51 933.361 377.532 929.618 387.05 924.805C388.223 924.184 387.151 923.46 386.267 923.923Z" fill="black"/>
<path d="M162.133 520.982C136.142 508.218 142.709 481.004 172.773 473.843C202.837 466.682 234.781 478.327 239.123 486.062C243.465 493.797 238.952 497.208 238.952 497.208C247.266 501.275 245.86 514.791 232.114 522.516C234.569 535.562 212.363 544.734 200.79 536.032C196.256 545.675 159.938 555.61 162.133 520.982Z" fill="url(#paint3_linear)"/>
<path d="M162.893 520.502C154.367 516.262 146.271 508.533 146.944 498.249C147.527 489.352 154.273 482.416 161.795 478.439C167.279 475.699 173.185 473.904 179.265 473.13C185.785 472.174 192.39 471.937 198.962 472.423C209.595 473.175 220.621 475.464 230.205 480.277C233.062 481.711 236.441 483.508 238.159 486.337C239.878 489.166 241.383 494.549 238.168 497.03C238.111 497.065 238.063 497.114 238.031 497.173C237.998 497.232 237.982 497.299 237.984 497.366C237.985 497.433 238.005 497.499 238.04 497.557C238.075 497.614 238.125 497.661 238.184 497.693C242.293 499.764 243.755 504.264 242.835 508.605C241.55 514.661 236.686 519.252 231.504 522.205C231.395 522.254 231.302 522.334 231.238 522.436C231.174 522.538 231.142 522.657 231.145 522.777C233.108 533.885 218.873 539.713 209.935 538.754C206.907 538.45 204.015 537.345 201.554 535.552C201.266 535.437 200.948 535.418 200.648 535.499C200.348 535.579 200.082 535.754 199.889 535.998C198.111 539.65 193.647 541.777 190.011 543.026C185.117 544.707 179.563 545.256 174.576 543.644C171.666 542.705 169.097 540.927 167.193 538.532C166.758 537.989 164.898 538.674 165.407 539.304C172.813 548.563 187.741 546.8 196.756 541.019C198.817 539.844 200.523 538.135 201.695 536.071L200.031 536.517C204.942 540.141 211.425 540.65 217.242 539.4C222.66 538.236 228.325 535.329 231.378 530.536C232.97 528.093 233.576 525.136 233.074 522.263L232.716 522.835C238.203 519.709 243.408 514.792 244.767 508.383C245.756 503.719 244.101 498.943 239.711 496.731L239.727 497.394C242.214 495.475 242.315 491.687 241.472 488.965C240.332 485.279 238.003 483.005 234.811 481.025C230.838 478.674 226.593 476.819 222.17 475.502C209.81 471.652 196.814 470.279 183.924 471.461C177.32 471.987 170.829 473.48 164.659 475.892C156.148 479.401 147.754 485.897 145.502 495.269C144.451 499.707 145.005 504.374 147.065 508.441C150.058 514.382 155.524 518.564 161.368 521.47C161.96 521.769 163.719 520.916 162.893 520.505V520.502Z" fill="black"/>
<path d="M238.136 496.908C235.986 498.816 233.516 500.328 230.839 501.373C227.463 502.809 223.958 503.921 220.372 504.695C213.354 506.269 205.634 507.079 198.552 505.432C195.752 504.923 193.163 503.602 191.107 501.632C190.234 500.751 189.59 499.67 189.231 498.482C188.872 497.295 188.809 496.037 189.048 494.82C189.703 492.371 191.959 490.687 194.069 489.528C196.927 488.036 199.962 486.911 203.102 486.179C207.744 484.981 212.482 484.196 217.262 483.833C218.36 483.751 218.733 482.275 217.42 482.373C212.925 482.724 208.464 483.427 204.078 484.477C200.647 485.22 197.312 486.353 194.138 487.853C191.595 489.116 188.95 490.849 187.635 493.464C187.091 494.673 186.861 496 186.966 497.322C187.071 498.644 187.506 499.918 188.233 501.026C189.845 503.411 192.218 505.178 194.964 506.036C202.129 508.645 210.452 507.984 217.812 506.661C222.191 505.893 226.479 504.674 230.607 503.022C233.98 501.787 237.086 499.918 239.758 497.516C239.824 497.442 239.871 497.352 239.895 497.255C239.918 497.158 239.917 497.057 239.891 496.96C239.865 496.864 239.816 496.776 239.747 496.703C239.679 496.631 239.593 496.576 239.498 496.546C239.26 496.468 239.005 496.462 238.763 496.527C238.521 496.591 238.303 496.725 238.135 496.911L238.136 496.908Z" fill="black"/>
<path d="M231.7 522.016C222.5 525.762 211.446 528.407 201.624 525.537C197.063 524.205 191.059 520.307 193.83 514.779C195.673 511.105 199.833 508.93 203.428 507.366C204.645 506.836 203.556 505.949 202.61 506.361C197.587 508.547 188.442 513.909 191.888 520.774C193.257 523.5 196.111 525.161 198.865 526.201C203.108 527.655 207.602 528.233 212.075 527.899C219.115 527.437 226.028 525.787 232.518 523.018C233.75 522.518 232.65 521.627 231.7 522.013V522.016Z" fill="black"/>
<path d="M201.529 535.462C199.58 534.322 197.493 532.456 197.418 530.016C197.36 529.18 197.623 528.354 198.154 527.707C198.685 527.06 199.443 526.641 200.273 526.535C200.68 526.448 201.165 526.035 201.05 525.579C200.927 525.087 200.29 525.058 199.9 525.14C198.973 525.296 198.102 525.689 197.371 526.28C196.639 526.871 196.072 527.641 195.724 528.515C195.462 529.415 195.421 530.365 195.606 531.284C195.79 532.203 196.194 533.064 196.783 533.793C197.673 534.943 198.785 535.901 200.053 536.611C200.267 536.734 200.514 536.791 200.761 536.773C201.008 536.755 201.244 536.664 201.438 536.511C201.738 536.274 201.958 535.713 201.529 535.465V535.462Z" fill="black"/>
<path d="M159.371 479.156C163.05 474.339 167.726 470.375 173.079 467.537C178.432 464.698 184.335 463.051 190.383 462.71C202.341 462.22 213.74 467.775 223.313 467.51C238.33 467.095 239.465 480.085 229.988 485.114C220.265 490.274 212.084 482.988 201.832 487.594C195.302 496.796 187.889 505.797 173.204 506.867L159.371 479.156Z" fill="url(#paint4_linear)"/>
<path d="M160.319 478.979C167.722 469.408 179.311 462.97 191.542 463.053C198.039 463.098 204.348 464.812 210.64 466.249C213.516 466.956 216.438 467.465 219.384 467.772C221.997 467.997 224.625 467.709 227.211 468.24C230.62 468.939 233.961 470.967 234.872 474.531C235.196 476.114 235.092 477.755 234.571 479.285C234.051 480.815 233.132 482.178 231.91 483.234C227.611 487.228 221.945 486.869 216.544 486.157C214.005 485.75 211.433 485.583 208.862 485.658C207.536 485.732 206.22 485.927 204.93 486.242C203.581 486.458 202.283 486.915 201.096 487.591C200.201 488.51 199.427 489.539 198.792 490.653C198.015 491.691 197.22 492.715 196.397 493.714C194.647 495.866 192.704 497.854 190.593 499.652C185.806 503.675 179.867 506.074 173.631 506.505C173.147 506.543 171.529 507.329 172.783 507.231C178.562 506.858 184.152 505.033 189.04 501.925C193.233 499.028 196.909 495.447 199.915 491.33C200.704 490.304 201.469 489.261 202.224 488.209C203.175 486.883 205.349 486.648 206.891 486.475C209.95 486.291 213.019 486.474 216.034 487.02C221.503 487.719 227.08 487.592 231.855 484.459C234.778 482.54 237.101 479.4 237.043 475.771C236.985 472.142 234.361 469.408 231.112 468.182C228.812 467.389 226.384 467.035 223.954 467.139C220.821 467.12 217.701 466.758 214.648 466.058C207.987 464.667 201.427 462.71 194.593 462.363C180.682 461.653 166.911 468.378 158.433 479.339C158.233 479.6 159.142 479.498 159.195 479.49C159.62 479.454 160.02 479.276 160.33 478.984L160.319 478.979Z" fill="black"/>
<path d="M453.048 362.956C462.568 382.964 493.656 393.923 516.782 360.19C539.909 326.456 527.287 285.197 518.666 272.791C512.21 263.504 501.356 253.81 502.824 268.903C504.635 287.533 490.645 317.534 464.166 324.648C449.034 328.714 445.559 347.217 453.048 362.956Z" fill="black"/>
<path d="M452.084 363.214C454.018 367.29 456.756 370.932 460.134 373.921C463.512 376.909 467.459 379.182 471.739 380.602C476.018 382.023 480.54 382.561 485.033 382.185C489.526 381.808 493.896 380.526 497.88 378.413C509.73 372.512 518.472 360.989 523.898 349.174C529.249 337.184 531.612 324.073 530.783 310.967C530.283 300.459 527.938 290.121 523.855 280.427C522.4 276.978 520.539 273.716 518.312 270.708C515.645 267.158 512.312 262.909 508.117 261.094C507.43 260.767 506.676 260.606 505.916 260.624C505.156 260.641 504.41 260.836 503.739 261.194C502.206 262.079 501.864 263.915 501.759 265.55C501.6 268.035 502.046 270.521 502.013 273.011C501.971 275.374 501.741 277.729 501.324 280.055C499.398 290.628 494.717 300.505 487.755 308.688C484.071 313.088 479.676 316.838 474.753 319.782C472.207 321.278 469.519 322.516 466.728 323.477C464.047 324.398 461.34 324.985 458.846 326.406C449.051 332.005 446.873 344.237 449.095 354.514C449.756 357.515 450.756 360.432 452.075 363.208C452.324 363.738 454.194 363.098 454.003 362.691C449.493 353.105 447.962 340.062 454.931 331.186C456.474 329.203 458.421 327.571 460.643 326.399C463.123 325.101 465.916 324.601 468.525 323.63C473.627 321.713 478.373 318.958 482.568 315.476C490.597 308.698 496.732 299.951 500.376 290.091C502.061 285.698 503.178 281.108 503.7 276.432C503.928 274.356 503.994 272.266 503.9 270.179C503.781 267.815 503.291 265.301 504.044 262.989C504.198 262.52 504.648 261.6 504.961 261.492C505.545 261.522 506.115 261.676 506.635 261.943C508.472 262.894 510.131 264.154 511.541 265.668C514.678 268.713 517.363 272.191 519.515 275.997C523.85 283.808 526.359 292.741 527.777 301.517C529.804 313.468 529.301 325.712 526.302 337.456C522.845 350.491 515.797 363.159 505.571 372.082C497.947 378.734 488.183 382.691 478.005 380.994C469.619 379.482 462.139 374.793 457.12 367.901C455.924 366.268 454.884 364.527 454.012 362.701C453.756 362.166 451.89 362.809 452.084 363.214Z" fill="black"/>
<path fill-rule="evenodd" clip-rule="evenodd" d="M411.796 517.586C411.767 517.592 411.738 517.597 411.707 517.601C403.164 518.725 394.546 519.172 385.933 518.941C370.311 518.54 354.844 515.732 340.077 510.617C327.597 506.3 315.819 500.17 305.122 492.423C294.963 485.068 286.071 476.102 278.798 465.879C271.626 455.746 266.382 444.376 263.328 432.339C260.402 420.632 259.646 408.486 261.099 396.506C262.563 384.844 265.98 373.512 271.207 362.987C276.594 352.17 283.57 342.223 291.904 333.477C300.576 324.369 310.436 316.473 321.216 310.001C332.707 303.094 345.05 297.72 357.933 294.016C372.68 289.753 387.955 287.598 403.304 287.616C416.845 287.617 430.327 289.391 443.407 292.895C455.752 296.198 467.588 301.178 478.583 307.696C489.103 313.919 498.626 321.696 506.828 330.763C514.786 339.582 521.188 349.69 525.761 360.656C530.317 371.712 532.825 383.505 533.164 395.459C533.466 407.222 531.702 418.946 527.949 430.098C524.148 441.313 518.614 451.862 511.547 461.362C504.143 471.324 495.37 480.19 485.488 487.697C475.123 495.589 463.764 502.08 451.704 507.003C438.907 512.22 425.495 515.777 411.796 517.586Z" fill="url(#paint5_linear)"/>
<path d="M415.161 488.555C417.987 484.286 421.558 480.561 425.702 477.558C429.826 474.411 434.357 471.84 439.172 469.914C440.4 469.435 441.284 469.13 442.294 468.834C442.845 468.672 443.399 468.523 443.957 468.387C444.377 468.274 444.802 468.184 445.231 468.115C446.932 467.739 448.686 467.663 450.413 467.891C451.878 468.044 453.251 468.679 454.316 469.697C455.382 470.715 456.079 472.058 456.3 473.515C456.582 476.014 456.297 478.544 455.466 480.917C454.204 484.814 452.52 488.561 450.444 492.092C450.062 492.774 451.8 492.649 452.028 492.615C452.459 492.59 452.88 492.476 453.265 492.28C453.65 492.084 453.99 491.811 454.265 491.477C457.698 485.353 466.012 468.999 454.098 466.367C449.4 465.329 444.351 466.535 439.889 468.035C434.425 469.925 429.257 472.585 424.543 475.935C419.309 479.426 414.821 483.925 411.342 489.17C410.925 489.833 412.722 489.723 412.925 489.693C413.356 489.664 413.776 489.549 414.16 489.353C414.545 489.158 414.886 488.886 415.162 488.555H415.161Z" fill="black"/>
<path d="M341.329 360.933C324.35 375.159 291.522 372.169 284.531 331.863C277.539 291.557 306.174 259.302 319.172 251.613C328.907 245.855 342.806 241.567 335.193 254.679C325.796 270.864 326.038 303.972 347.154 321.472C359.223 331.473 354.686 349.744 341.329 360.933Z" fill="black"/>
<path d="M340.549 360.748C334.697 365.586 327.32 368.191 319.73 368.099C315.613 368.013 311.553 367.114 307.783 365.454C304.014 363.794 300.609 361.405 297.764 358.425C289.753 350.129 286.117 338.41 284.863 327.176C283.53 314.167 285.516 301.033 290.635 289.001C294.823 278.974 300.757 269.77 308.161 261.819C313.887 255.681 320.39 250.68 328.366 247.831C330.452 247.085 336.616 244.975 336.407 249.157C336.286 251.617 334.697 253.796 333.596 255.901C332.591 257.842 331.743 259.86 331.06 261.937C327.872 272.006 327.379 282.736 329.63 293.056C330.781 298.646 332.788 304.026 335.578 309.005C336.993 311.512 338.633 313.885 340.477 316.095C342.466 318.352 344.614 320.464 346.905 322.414C348.971 324.278 350.605 326.572 351.691 329.136C352.777 331.699 353.289 334.47 353.19 337.252C352.856 343.221 350.746 348.953 347.133 353.714C345.232 356.317 343.02 358.678 340.548 360.746C340.2 361.039 340.399 361.352 340.748 361.484C340.988 361.534 341.236 361.527 341.473 361.464C341.709 361.4 341.928 361.282 342.111 361.118C350.966 353.629 358.457 340.568 353.739 328.809C352.693 326.22 351.097 323.89 349.062 321.978C346.707 319.933 344.472 317.752 342.371 315.447C338.459 310.743 335.449 305.357 333.491 299.559C329.789 288.733 329.201 277.084 331.795 265.939C332.357 263.533 333.109 261.175 334.044 258.888C335.036 256.492 336.492 254.334 337.502 251.951C338.128 250.474 338.899 248.364 337.901 246.868C337.055 245.597 335.3 245.436 333.91 245.493C329.099 245.692 324.256 248.128 320.122 250.404C316.904 252.217 313.909 254.4 311.196 256.907C303.506 263.987 297.105 272.351 292.278 281.625C286.079 293.089 282.72 305.874 282.483 318.907C282.395 331.371 285.143 344.807 292.541 355.078C295.075 358.694 298.299 361.773 302.028 364.136C305.756 366.5 309.916 368.101 314.266 368.848C322.255 370.062 330.418 368.505 337.401 364.435C339.06 363.465 340.635 362.358 342.11 361.124C342.461 360.832 342.255 360.517 341.91 360.386C341.671 360.336 341.423 360.342 341.187 360.405C340.95 360.468 340.732 360.585 340.549 360.748V360.748Z" fill="black"/>
<path d="M449.722 415.81C447.527 432.674 431.237 464.196 411.409 449.662C401.886 442.689 400.213 429.257 399.326 417.839C399.319 417.727 399.312 417.615 399.307 417.495C398.128 402.1 396.18 386.916 393.967 371.68C393.962 371.66 393.962 371.639 393.967 371.619C397.315 372.107 400.59 372.654 403.79 373.259C410.905 374.606 417.644 376.231 423.944 377.985C433.057 380.525 441.253 383.348 448.359 386.043C450.528 395.812 450.99 405.883 449.722 415.81V415.81Z" fill="white"/>
<path d="M448.745 415.889C447.635 423.288 445.139 430.411 441.388 436.883C437.972 442.942 433.063 449.61 426.202 451.953C418.51 454.581 410.716 449.526 406.647 443.155C401.327 434.822 400.86 424.345 400.072 414.783C399.484 407.608 398.732 400.446 397.868 393.298C397.436 389.729 396.979 386.164 396.497 382.601C396.256 380.819 396.011 379.038 395.76 377.257C395.497 375.384 395.024 373.429 394.935 371.543L393.622 372.306C412.146 375.132 430.311 379.953 447.8 386.686L447.401 386.308C449.551 396.018 450.009 406.027 448.753 415.894C448.632 416.852 450.596 416.585 450.704 415.737C451.431 409.979 451.586 404.163 451.168 398.374C450.962 395.471 450.608 392.58 450.109 389.713C449.988 389.018 449.858 388.323 449.719 387.63C449.672 386.972 449.527 386.325 449.287 385.71C448.836 385.011 447.06 384.711 446.304 384.432C435.697 380.488 424.853 377.214 413.836 374.629C407.379 373.13 400.87 371.9 394.308 370.941C393.922 370.885 392.969 371.156 392.995 371.705C393.063 373.157 393.394 374.64 393.601 376.078C393.843 377.778 394.08 379.479 394.314 381.18C394.779 384.58 395.225 387.982 395.651 391.388C396.499 398.204 397.247 405.032 397.86 411.874C398.778 422.167 398.883 433.224 404.006 442.511C407.914 449.601 415.817 455.333 424.217 453.834C431.644 452.507 437.249 446.427 441.216 440.404C446.158 432.984 449.398 424.561 450.704 415.739C450.824 414.775 448.859 415.041 448.745 415.889Z" fill="black"/>
<path d="M528.118 433.888C523.084 443.374 512.553 452.262 501.939 444.526C498.091 441.73 495.522 437.469 493.797 433.03C489.863 422.91 489.963 411.89 489.46 401.212C489.239 396.559 488.65 391.945 488.01 387.344C490.143 386.3 492.864 384.964 495.97 383.422C500.409 381.244 505.648 378.688 511.114 376.11C516.671 373.481 522.47 370.841 527.936 368.543C538.517 388.534 538.752 413.853 528.118 433.888Z" fill="white"/>
<path d="M527.161 434.033C524.66 438.685 521.022 443.213 516.224 445.623C510.841 448.328 505.065 446.56 500.88 442.52C496.72 438.503 494.442 432.857 493.034 427.349C491.646 421.291 490.882 415.107 490.756 408.893C490.596 405.366 490.526 401.832 490.257 398.308C489.974 394.55 489.488 390.813 488.97 387.082L488.584 387.55C501.723 381.118 514.802 374.532 528.294 368.851L526.973 368.8C535.186 384.618 537.195 402.937 532.604 420.161C531.309 424.972 529.483 429.624 527.161 434.031C526.943 434.443 528.788 434.288 529.075 433.741C537.238 417.881 539.148 399.53 534.428 382.327C533.102 377.459 531.25 372.751 528.904 368.286C528.694 367.886 527.877 368.109 527.582 368.234C513.945 373.977 500.72 380.632 487.436 387.135C487.271 387.216 487.019 387.385 487.049 387.602C488.047 394.792 488.498 401.935 488.821 409.182C489.121 415.978 489.627 422.836 491.525 429.399C493.174 435.101 495.892 440.958 500.723 444.643C502.882 446.34 505.461 447.419 508.185 447.764C510.909 448.108 513.675 447.706 516.188 446.6C521.904 444.151 526.191 439.12 529.081 433.743C529.295 433.336 527.454 433.488 527.161 434.033Z" fill="black"/>
<path d="M373.027 371.007C388.924 371.841 404.688 374.351 420.059 378.496C427.434 380.462 434.704 382.79 441.891 385.358C444.679 386.357 447.634 387.927 450.65 387.918C451.796 387.934 452.932 387.704 453.981 387.244C455.031 386.784 455.97 386.104 456.736 385.251C460.503 380.821 457.679 374.841 453.28 372.183C452.842 371.964 452.352 371.871 451.864 371.916C451.377 371.962 450.912 372.143 450.522 372.439C449.923 372.886 449.461 373.846 450.292 374.347C453.385 376.214 456.278 380.678 453.603 384.119C453.277 384.525 452.859 384.848 452.385 385.063C451.57 385.278 450.708 385.235 449.917 384.941C446.889 383.984 443.931 382.755 440.928 381.716C427.404 376.987 413.505 373.408 399.38 371.016C391.109 369.638 382.765 368.738 374.39 368.32C373.905 368.258 373.412 368.334 372.967 368.539C372.522 368.744 372.144 369.069 371.874 369.478C371.494 370.307 372.212 370.976 373.028 371.016L373.027 371.007Z" fill="black"/>
<path d="M427.161 426.948C426.357 429.92 425.139 433.073 422.326 434.68C417.437 437.476 414.177 432.483 413.32 428.189C413.295 428.056 413.27 427.933 413.245 427.799C411.853 420.725 410.993 413.493 409.766 406.379C407.861 395.323 405.935 384.274 403.785 373.26C410.9 374.607 417.64 376.232 423.94 377.986C427.75 394.096 431.485 410.98 427.161 426.948Z" fill="black"/>
<path d="M426.198 427.073C425.336 430.202 422.628 436.89 418.229 434.478C414.601 432.49 414.132 427.347 413.512 423.756C412.593 418.445 411.885 413.101 411.009 407.778C410.111 402.342 409.142 396.915 408.179 391.49C407.081 385.317 405.938 379.153 404.748 372.997L403.192 373.769C409.977 375.061 416.695 376.637 423.346 378.495L422.975 378.241C426.729 394.131 430.497 410.887 426.195 427.071C426.016 427.743 427.95 427.464 428.121 426.821C432.444 410.559 428.675 393.697 424.903 377.726C424.864 377.565 424.664 377.508 424.532 377.472C417.88 375.625 411.162 374.049 404.377 372.744C403.978 372.669 402.698 372.886 402.821 373.516C405.215 385.782 407.482 398.096 409.426 410.441C410.362 416.381 411.144 422.351 412.319 428.251C412.978 431.565 414.967 435.74 418.805 436.007C424.103 436.378 426.92 431.171 428.12 426.82C428.307 426.156 426.375 426.431 426.198 427.073Z" fill="black"/>
<path d="M512.893 426.629C512.161 429.67 511.067 432.888 508.685 434.587C504.537 437.534 501.914 432.536 501.295 428.189C501.281 428.056 501.256 427.923 501.242 427.79C500.23 420.641 499.671 413.31 498.797 406.112C497.876 398.541 496.955 390.97 495.971 383.422C500.41 381.244 505.649 378.688 511.115 376.11C511.138 376.253 511.163 376.386 511.186 376.53C514.044 392.939 516.893 410.181 512.893 426.629Z" fill="black"/>
<path d="M511.942 426.782C511.57 428.506 510.988 430.178 510.208 431.76C509.487 433.123 507.867 435.547 506.046 434.876C503.06 433.777 502.439 429.245 502.077 426.577C500.842 417.474 500.069 408.304 498.953 399.188C498.298 393.845 497.627 388.503 496.938 383.164L496.545 383.605C501.578 381.135 506.623 378.684 511.689 376.292L510.156 376.368C512.954 393.003 515.942 410.072 511.942 426.782C511.817 427.306 513.722 427.018 513.852 426.477C517.866 409.701 514.894 392.558 512.083 375.849C512.002 375.371 510.751 375.829 510.549 375.925C505.479 378.321 500.438 380.768 495.405 383.237C495.25 383.313 494.984 383.468 495.012 383.679C496.403 394.363 497.758 405.058 498.859 415.777C499.131 418.432 499.407 421.087 499.723 423.738C499.894 425.987 500.237 428.219 500.748 430.416C501.546 433.256 503.359 436.442 506.764 435.822C511.181 435.017 512.914 430.3 513.848 426.475C513.976 425.956 512.071 426.241 511.942 426.782Z" fill="black"/>
<path d="M318.603 401.268C318.603 401.268 271.085 401.497 269.227 401.277L317.07 443.063L318.603 401.268Z" fill="url(#paint6_linear)"/>
<path d="M318.994 400.778C313.653 400.804 308.311 400.826 302.969 400.842C294.176 400.871 285.383 400.902 276.589 400.874C275.021 400.874 273.453 400.864 271.884 400.845C271.394 400.845 270.904 400.834 270.414 400.821C270.252 400.821 270.089 400.813 269.927 400.806C269.66 400.795 270.048 400.823 269.827 400.799C269.593 400.774 267.779 401.161 268.324 401.636L284.483 415.749L310.245 438.25L316.168 443.422C316.631 443.822 318.414 443.093 317.964 442.703L301.818 428.591L276.056 406.09L270.133 400.916L268.63 401.753C270.523 401.881 272.422 401.913 274.318 401.848C278.277 401.866 282.234 401.869 286.191 401.859C294.892 401.849 303.594 401.824 312.296 401.783C314.269 401.775 316.243 401.766 318.217 401.757C318.867 401.757 320.287 400.772 318.997 400.778H318.994Z" fill="black"/>
<path d="M320.344 426.424C319.945 426.898 310.228 419.399 310.076 419.271C309.924 419.143 300.859 410.883 301.257 410.404C301.655 409.924 311.367 417.423 311.519 417.549C311.67 417.676 320.742 425.948 320.344 426.424Z" fill="black"/>
<path d="M318.031 406.092C318.131 406.227 317.578 406.782 316.778 407.598C315.806 408.59 314.885 409.63 314.018 410.714C313.17 411.809 312.392 412.957 311.69 414.15C311.116 415.133 310.778 415.832 310.745 415.867C310.733 415.915 310.315 416.566 309.783 417.575C309.137 418.798 308.57 420.062 308.087 421.359C307.621 422.666 307.221 423.996 306.889 425.343C306.616 426.453 306.432 427.21 306.268 427.201C306.123 427.194 306.011 426.413 306.022 425.231C306.064 423.777 306.246 422.33 306.566 420.912C306.9 419.473 307.349 418.063 307.911 416.697C308.377 415.565 308.773 414.823 308.786 414.774C308.822 414.735 309.245 414.009 309.962 413.016C310.829 411.819 311.791 410.694 312.84 409.653C313.88 408.634 315.016 407.718 316.232 406.919C317.227 406.288 317.949 405.972 318.031 406.092Z" fill="black"/>
<path d="M542.184 362.039C531.193 365.329 520.669 370.285 510.316 375.174C505.247 377.567 500.199 380.004 495.172 382.486C492.727 383.693 490.304 384.942 487.841 386.111C486.701 386.653 485.574 387.194 484.477 386.281C483.946 385.734 483.558 385.065 483.347 384.332C483.136 383.599 483.109 382.826 483.269 382.08C483.647 379.892 484.812 377.918 486.545 376.531C487.212 375.953 486.862 375.193 486.123 374.957C485.644 374.85 485.145 374.861 484.671 374.988C484.196 375.115 483.759 375.355 483.397 375.688C480.604 378.111 478.131 382.479 479.806 386.227C481.645 390.355 486.476 389.406 489.772 387.825C501.047 382.425 512.17 376.728 523.618 371.685C529.848 368.817 536.249 366.338 542.785 364.262C543.425 364.071 544.649 363.504 544.415 362.632C544.189 361.786 542.804 361.851 542.189 362.033L542.184 362.039Z" fill="black"/>
<path d="M399.568 319.763C376.995 306.846 384.243 275.253 412.838 268.823C432.094 264.493 449.237 261.05 445.902 240.093C452.768 245.368 455.721 250.699 456.224 259.573C459.296 251.68 458.209 244.919 448.356 229.4C525.076 280.315 453.542 350.652 399.568 319.763Z" fill="white"/>
<path d="M400.472 319.421C393.973 315.661 388.998 309.643 387.614 302.145C387.041 298.682 387.164 295.139 387.976 291.724C388.789 288.309 390.275 285.091 392.347 282.259C397.345 275.259 404.989 270.975 413.27 269.102C421.441 267.258 430.195 265.702 437.515 261.413C440.911 259.57 443.686 256.761 445.488 253.342C447.533 249.157 447.56 244.345 446.864 239.831L444.996 240.43C448.092 242.668 450.67 245.547 452.555 248.872C454.222 252.29 455.143 256.023 455.258 259.825C455.29 260.34 457.036 259.775 457.177 259.412C458.742 255.538 459.075 251.276 458.129 247.206C456.585 240.691 452.855 234.724 449.318 229.132L447.45 229.731C459.194 237.554 470.309 247.526 476.457 260.475C481.012 269.742 482.087 280.339 479.485 290.332C476.783 299.66 471.292 307.937 463.752 314.051C455.619 320.821 445.722 325.122 435.227 326.448C424.732 327.773 414.078 326.068 404.519 321.534C403.141 320.885 401.793 320.174 400.469 319.421C399.96 319.131 398.328 319.92 398.66 320.107C408.581 325.786 419.958 328.403 431.36 327.628C441.964 326.87 452.183 323.337 460.993 317.382C469.38 311.831 475.936 303.92 479.836 294.645C483.649 285.026 483.816 274.344 480.306 264.61C475.656 251.529 465.618 241.027 454.683 232.873C452.909 231.55 451.099 230.279 449.254 229.057C448.946 228.851 447.12 229.238 447.386 229.656C450.878 235.179 454.547 241.059 456.136 247.477C457.141 251.55 456.835 255.836 455.263 259.725L457.182 259.312C457.068 255.406 456.095 251.573 454.332 248.086C452.425 244.815 449.86 241.975 446.8 239.747C446.465 239.487 444.845 239.784 444.933 240.346C445.582 244.559 445.606 248.985 443.89 252.964C442.399 256.218 439.949 258.938 436.868 260.759C429.498 265.372 420.374 266.614 412.074 268.617C404.092 270.544 396.49 274.743 391.375 281.277C386.961 286.754 384.823 293.721 385.404 300.733C386.252 309.078 391.522 315.974 398.655 320.101C399.17 320.399 400.808 319.614 400.472 319.421Z" fill="black"/>
<path d="M414.561 432.352C419.003 432.352 422.603 428.749 422.603 424.304C422.603 419.859 419.003 416.255 414.561 416.255C410.12 416.255 406.52 419.859 406.52 424.304C406.52 428.749 410.12 432.352 414.561 432.352Z" fill="white"/>
<path d="M410.607 414.231C412.865 414.231 414.695 412.399 414.695 410.14C414.695 407.88 412.865 406.049 410.607 406.049C408.35 406.049 406.52 407.88 406.52 410.14C406.52 412.399 408.35 414.231 410.607 414.231Z" fill="white"/>
<path d="M503.622 431.906C508.063 431.906 511.664 428.302 511.664 423.857C511.664 419.412 508.063 415.809 503.622 415.809C499.181 415.809 495.58 419.412 495.58 423.857C495.58 428.302 499.181 431.906 503.622 431.906Z" fill="white"/>
<path d="M499.668 413.785C501.925 413.785 503.756 411.953 503.756 409.694C503.756 407.434 501.925 405.603 499.668 405.603C497.41 405.603 495.58 407.434 495.58 409.694C495.58 411.953 497.41 413.785 499.668 413.785Z" fill="white"/>
<path d="M302.769 275.149C303.615 273.897 304.874 272.517 306.345 272.852C306.893 273.041 307.365 273.402 307.69 273.881C308.016 274.361 308.177 274.933 308.15 275.513C308.069 276.67 307.75 277.797 307.213 278.825C305.041 283.887 303.435 289.173 302.423 294.587C300.4 305.432 300.672 316.581 303.222 327.313C304.488 332.655 306.333 337.842 308.724 342.783C309.777 344.949 312.012 347.991 310.819 350.493C310.272 351.473 309.479 352.293 308.517 352.871C307.556 353.449 306.46 353.765 305.339 353.789C300.768 353.565 297.967 347.527 296.396 343.987C294.123 338.752 292.527 333.249 291.648 327.61C289.83 316.378 290.589 304.879 293.867 293.984C295.494 288.578 297.764 283.387 300.631 278.523C301.312 277.377 302.024 276.252 302.769 275.149Z" fill="white"/>
<path d="M526.486 326.261C526.444 327.386 525.962 328.45 525.144 329.223C523.747 330.233 521.636 329.167 520.924 327.593C520.213 326.019 520.463 324.198 520.674 322.487C522.268 309.384 520.651 296.088 515.96 283.751C515.553 282.683 515.162 281.368 515.897 280.497C516.855 279.366 518.578 280.06 519.349 281.024C520.128 281.955 520.789 282.979 521.317 284.072C522.025 285.654 522.614 287.298 523.181 288.936C523.748 290.575 524.255 292.241 524.708 293.917C525.161 295.594 525.561 297.302 525.905 299.01C526.249 300.717 526.527 302.429 526.753 304.152C526.978 305.874 527.152 307.62 527.26 309.362C527.368 311.105 527.422 312.832 527.416 314.57C527.41 316.307 527.347 318.065 527.224 319.8C527.101 321.536 526.918 323.277 526.674 325.006C526.609 325.43 526.55 325.847 526.486 326.261Z" fill="white"/>
<path d="M386.246 519.474C376.468 521.938 364.66 522.56 358.209 519.763C355.566 515.153 354.795 514.101 354.795 514.101C354.795 514.101 366.322 518.279 385.611 518.195C386.893 520.783 386.246 519.474 386.246 519.474Z" fill="black"/>
<path d="M369.664 522.6C365.153 522.6 360.951 522.04 357.818 520.681C357.62 520.595 357.456 520.448 357.349 520.262C354.798 515.811 354.001 514.701 353.994 514.69C353.869 514.518 353.801 514.309 353.803 514.095C353.804 513.882 353.874 513.674 354.002 513.503C354.13 513.332 354.31 513.207 354.514 513.145C354.719 513.084 354.938 513.09 355.139 513.163C355.251 513.204 366.541 517.203 385.089 517.203H385.616C385.801 517.203 385.983 517.255 386.141 517.353C386.299 517.451 386.426 517.591 386.509 517.757L387.129 519.004L387.141 519.03C387.152 519.052 387.165 519.076 387.177 519.103L387.302 519.354L387.288 519.361C387.351 519.476 387.39 519.604 387.402 519.735C387.414 519.866 387.4 519.998 387.359 520.123C387.319 520.248 387.253 520.364 387.166 520.463C387.08 520.562 386.974 520.642 386.855 520.699C386.389 520.93 386.12 520.952 385.817 520.608C380.526 521.884 375.106 522.553 369.664 522.6V522.6ZM358.911 518.974C364.842 521.388 374.75 520.879 383.022 519.184C374.27 519.152 365.556 518.03 357.08 515.845C357.545 516.625 358.147 517.646 358.91 518.974H358.911Z" fill="black"/>
<path d="M377.901 549.648C377.972 549.616 378.269 550.125 378.737 551.046L379.56 552.721C379.925 553.442 380.249 554.184 380.53 554.942C382.157 558.996 383.416 563.188 384.294 567.467C385.137 571.806 385.617 576.207 385.729 580.625C385.841 582.453 385.707 583.989 385.706 585.091C385.676 586.189 385.658 586.854 385.656 586.931C385.654 587.008 385.573 587.666 385.45 588.76C385.299 589.849 385.217 591.388 384.851 593.181C384.691 594.08 384.518 595.051 384.337 596.077C384.155 597.104 383.848 598.153 383.592 599.252C383.337 600.35 383.058 601.48 382.681 602.601C382.324 603.726 381.983 604.876 381.603 606.006C380.142 610.119 378.314 614.093 376.141 617.878C375.758 618.589 375.335 619.278 374.874 619.941L373.827 621.484C373.236 622.331 372.871 622.794 372.807 622.752C372.93 622.218 373.145 621.709 373.441 621.247C373.679 620.793 373.966 620.241 374.296 619.606C374.627 618.972 375.02 618.273 375.371 617.467C377.24 613.605 378.819 609.609 380.094 605.512C380.423 604.388 380.707 603.25 381.012 602.137C381.338 601.03 381.565 599.915 381.778 598.833C381.992 597.752 382.24 596.715 382.396 595.714C382.552 594.712 382.678 593.759 382.806 592.879C383.105 591.124 383.141 589.621 383.259 588.559C383.352 587.493 383.409 586.851 383.415 586.777C383.421 586.703 383.453 586.059 383.508 584.99C383.538 583.921 383.715 582.427 383.66 580.646C383.66 579.755 383.652 578.794 383.648 577.78C383.644 576.767 383.527 575.703 383.47 574.602C383.412 573.5 383.34 572.364 383.17 571.222C383.022 570.076 382.898 568.909 382.73 567.75C382.035 563.512 381.025 559.333 379.709 555.245C379.473 554.397 379.193 553.643 378.941 552.975L378.321 551.23C378.093 550.731 377.951 550.196 377.901 549.648V549.648Z" fill="black"/>
<path d="M482.489 901.221C482.459 907.323 481.092 913.428 479.558 919.307C478.715 922.541 477.79 925.768 476.703 928.929C476.527 929.441 478.422 929.206 478.618 928.639C479.74 925.375 480.691 922.043 481.554 918.703C483.067 912.844 484.386 906.781 484.415 900.704C484.415 900.253 482.492 900.567 482.489 901.221V901.221Z" fill="black"/>
<path d="M550.717 937.907C541.276 942.676 531.338 946.389 521.084 948.982C512.131 933.078 498.523 920.302 482.094 912.374C483.046 908.715 483.191 905.425 483.454 900.962C495.034 897.329 508.134 897.855 518.51 899.982C531.621 902.668 530.224 907.521 513.911 914.691C539.992 905.054 585.209 919.733 550.717 937.907Z" fill="black"/>
<path d="M550.325 937.467C540.966 942.203 531.112 945.887 520.943 948.451L521.976 948.589C514.625 935.713 504.271 924.807 491.797 916.801C488.92 914.98 485.934 913.337 482.855 911.882L483.061 912.262C483.876 908.51 484.332 904.689 484.421 900.85L483.595 901.486C493.513 898.424 504.222 898.269 514.42 899.896C517.022 900.311 529.975 902.044 525.349 907.25C524.113 908.523 522.69 909.601 521.13 910.446C518.672 911.867 516.13 913.138 513.518 914.251C512.271 914.802 513.413 915.457 514.303 915.132C524.397 911.444 536.144 911.362 546.537 913.792C550.707 914.766 555.069 916.195 558.5 918.848C560.888 920.693 562.79 923.398 562.047 926.542C561.459 928.527 560.322 930.306 558.768 931.672C556.239 933.99 553.397 935.94 550.325 937.464C549.154 938.085 550.225 938.814 551.11 938.345C555.631 935.948 561.173 932.819 563.414 927.923C564.079 926.47 564.262 924.842 563.936 923.277C563.61 921.713 562.793 920.294 561.604 919.227C558.532 916.138 554.145 914.451 550.037 913.281C544.541 911.765 538.862 911.015 533.16 911.051C526.476 910.957 519.828 912.038 513.518 914.246L514.303 915.127C518.4 913.316 522.877 911.383 526.222 908.318C527.726 906.941 529.198 904.823 527.613 902.945C525.58 900.534 521.401 899.876 518.52 899.307C513.158 898.24 507.705 897.709 502.238 897.719C495.831 897.683 489.453 898.597 483.312 900.43C483.057 900.509 482.507 900.721 482.486 901.067C482.397 904.906 481.942 908.727 481.127 912.479C481.115 912.556 481.129 912.635 481.166 912.704C481.204 912.772 481.262 912.827 481.334 912.859C493.455 918.673 504.075 927.205 512.369 937.791C515.251 941.457 517.866 945.325 520.193 949.367C520.358 949.654 520.983 949.567 521.225 949.506C531.568 946.9 541.59 943.157 551.11 938.344C552.284 937.733 551.21 937.003 550.325 937.467Z" fill="black"/>
<path d="M247.042 350.652C247.214 350.694 246.925 352.25 246.807 354.581C246.739 355.907 246.747 357.236 246.831 358.561C246.946 360.074 247.158 361.578 247.466 363.063C248.061 365.845 249.039 368.53 250.371 371.043C251.66 373.391 253.194 375.597 254.946 377.623C256.836 379.744 259.01 381.592 261.407 383.116C262.689 383.92 264.022 384.642 265.398 385.275C266.609 385.815 267.85 386.285 269.114 386.682C271.341 387.381 272.895 387.653 272.874 387.828C272.863 387.961 271.262 387.987 268.9 387.528C267.551 387.263 266.224 386.9 264.929 386.44C263.439 385.893 261.991 385.239 260.596 384.482C257.954 383.025 255.539 381.189 253.43 379.03C251.361 377.008 249.694 374.611 248.518 371.966C247.228 369.235 246.346 366.328 245.9 363.34C245.676 361.767 245.567 360.18 245.572 358.591C245.593 357.215 245.714 355.842 245.934 354.483C246.332 352.11 246.913 350.617 247.042 350.652Z" fill="black"/>
<path d="M259.047 333.627C259.187 333.727 258.658 334.666 257.957 336.084C257.116 337.817 256.425 339.618 255.891 341.469C255.389 343.327 255.059 345.227 254.904 347.146C254.78 348.725 254.815 349.805 254.791 349.87C254.814 349.936 254.732 351.013 254.791 352.595C254.868 354.517 255.121 356.428 255.546 358.304C256.004 360.174 256.621 362.001 257.389 363.765C258.031 365.209 258.52 366.162 258.377 366.262C258.266 366.341 257.526 365.545 256.62 364.18C255.542 362.476 254.672 360.649 254.026 358.739C253.386 356.793 252.951 354.785 252.728 352.748C252.545 351.06 252.567 349.894 252.545 349.824C252.569 349.754 252.597 348.587 252.844 346.907C253.15 344.88 253.664 342.89 254.38 340.969C255.105 339.086 256.053 337.295 257.201 335.636C258.167 334.309 258.939 333.543 259.047 333.627Z" fill="black"/>
<path d="M230.328 491.225C230.906 489.328 231.884 487.73 233.074 487.408C234.544 487.008 236.068 488.077 236.824 489.398C238.693 492.649 236.624 497.771 232.839 498.597C228.788 499.483 229.681 493.332 230.328 491.225Z" fill="white"/>
<path d="M232.249 509.845C232.538 507.458 233.583 505.226 235.232 503.476C238.085 500.766 241.173 503.405 240.654 506.848C240.094 510.56 238.332 516.375 234.204 517.539C230.286 518.645 231.928 511.68 232.249 509.845Z" fill="white"/>
<path d="M225.271 527.637C225.87 526.938 226.649 526.168 227.549 526.348C227.925 526.462 228.251 526.701 228.471 527.026C228.692 527.352 228.794 527.743 228.761 528.134C228.671 528.92 228.335 529.656 227.802 530.239C226.949 531.299 225.887 532.172 224.683 532.803C223.627 533.355 221.78 533.546 222.152 531.81C222.362 531.124 222.743 530.502 223.258 530.002L225.271 527.637Z" fill="white"/>
<path d="M552.139 918.78C555.399 921.104 560.438 927.12 555.05 930.023C551.446 931.964 547.04 928.766 543.875 927.226L535.382 923.088C533.604 922.223 529.295 920.958 529.689 918.27C530.151 915.082 534.851 914.892 537.282 914.875C542.35 914.837 547.801 915.736 552.068 918.734L552.139 918.78Z" fill="white"/>
<path d="M375.24 909.279C373.88 907.825 372.929 905.479 374.164 903.652C375.537 901.622 378.581 901.764 380.712 902.077C384.696 902.66 388.952 904.356 391.313 907.782C393.373 910.771 393.907 914.946 390.784 917.43C388.068 919.591 385.345 918.043 383.061 916.191C380.366 914.088 377.798 911.826 375.371 909.418L375.24 909.279Z" fill="white"/>
<path d="M543.236 478.814C543.068 478.825 542.87 477.915 542.545 476.579C542.144 474.957 541.638 473.363 541.032 471.807C540.404 470.261 539.662 468.764 538.812 467.329C538.113 466.15 537.558 465.393 537.541 465.337C537.496 465.298 537.032 464.486 536.244 463.365C535.282 462.003 534.221 460.715 533.068 459.511C531.895 458.324 530.647 457.212 529.333 456.184C528.25 455.343 527.499 454.791 527.578 454.643C527.643 454.516 528.538 454.809 529.804 455.442C531.346 456.256 532.8 457.226 534.144 458.338C535.5 459.48 536.751 460.74 537.884 462.104C538.821 463.232 539.38 464.073 539.425 464.114C539.444 464.174 539.984 465.026 540.631 466.345C541.412 467.936 542.05 469.594 542.538 471.298C543.005 472.981 543.297 474.708 543.41 476.45C543.471 477.868 543.377 478.807 543.236 478.814Z" fill="black"/>
<path d="M525.571 499.2C525.471 499.059 526.417 498.253 527.617 496.872C528.297 496.09 528.925 495.263 529.497 494.398C530.134 493.402 530.698 492.36 531.182 491.282C532.074 489.261 532.637 487.11 532.85 484.911C533.007 482.846 532.919 480.77 532.586 478.726C532.189 476.555 531.448 474.462 530.391 472.525C529.818 471.492 529.169 470.502 528.45 469.565C527.807 468.752 527.112 467.982 526.368 467.26C525.057 465.986 524.045 465.263 524.134 465.116C524.2 464.998 525.381 465.469 526.928 466.591C527.811 467.236 528.636 467.955 529.395 468.741C530.261 469.661 531.049 470.652 531.748 471.705C533.766 474.669 534.916 478.138 535.068 481.721C535.221 485.304 534.369 488.859 532.609 491.983C532.001 493.092 531.3 494.148 530.514 495.139C529.824 495.987 529.061 496.774 528.236 497.491C526.783 498.74 525.646 499.314 525.571 499.2Z" fill="black"/>
<path d="M418.642 230C417.866 230.009 417.07 223.621 416.405 216.14C416.25 214.27 416.091 212.331 415.932 210.408C415.862 209.446 415.79 208.487 415.72 207.543C415.686 207.071 415.653 206.602 415.62 206.139L415.596 205.792C415.594 205.708 415.587 205.624 415.574 205.54L415.534 205.066C415.482 204.579 415.173 205.019 415.078 205.227C413.915 206.887 413.192 207.915 413.127 208.009C413.012 208.162 410.835 210.803 408 214.151C408.307 208.54 408.665 202.423 409.034 196.846L409.173 194.779L409.207 194.28L409.236 193.981L409.295 193.382C409.375 192.59 409.454 191.801 409.533 191.023C409.706 189.466 409.873 187.947 410.031 186.516C410.711 180.788 411.44 176.437 412.082 176.454C412.724 176.471 413.195 180.862 413.536 186.626C413.61 188.065 413.688 189.591 413.767 191.155C413.8 191.937 413.833 192.728 413.867 193.524L413.891 194.122L413.902 194.422L413.919 194.517L413.935 194.981C413.959 195.713 414.215 196.042 414.485 195.693L419.821 187.955L421.332 186.145C421.278 190.461 421.197 196.861 421.108 204.034C421.101 204.45 421.094 204.868 421.086 205.288L421.056 206.075C421.035 206.539 421.014 207.009 420.992 207.482C420.946 208.427 420.899 209.387 420.853 210.351C420.744 212.278 420.633 214.22 420.528 216.094C420.053 223.584 419.419 229.99 418.642 230Z" fill="url(#paint7_linear)"/>
<path d="M457.649 195.321C456.984 195.121 458.853 186.42 461.473 175.521C462.784 170.071 464.282 164.074 465.746 158.319L466.834 154.06C466.834 154.06 467.104 152.931 467.118 152.862C467.193 152.473 467.182 152.305 467.009 152.417C466.676 152.816 460.239 158.437 451.326 165.856L455.205 151.548L456.233 147.777C456.396 147.187 456.559 146.593 456.723 145.996L457.022 144.957C457.427 143.56 457.84 142.142 458.26 140.703C459.942 134.945 461.728 128.919 463.402 123.453C466.748 112.521 469.638 103.828 470.319 104C471 104.172 469.373 113.19 467.072 124.389C465.922 129.991 464.603 136.132 463.323 141.995C463.003 143.449 462.704 144.911 462.355 146.358C462.261 146.747 462.186 147.142 462.131 147.539C462.118 147.633 461.996 148.401 462.215 148.365C462.485 148.026 469.173 142.242 478.643 134.361L474.257 148.599C473.551 150.87 472.822 153.209 472.079 155.593L470.708 159.769C468.849 165.408 466.889 171.271 465.066 176.57C461.418 187.169 458.314 195.516 457.649 195.321Z" fill="url(#paint8_linear)"/>
<path d="M520.956 177.473L517.174 180.079C516.068 180.844 515.325 181.46 515.167 181.576L510.491 184.96L509.628 185.55C509.679 185.021 509.788 184.499 509.951 183.994L510.014 183.772L510.048 183.657L510.164 183.368L510.689 182.071L511.713 179.53L513.597 174.74C515.929 168.695 517.435 164.235 516.911 163.988C516.386 163.74 513.899 167.733 510.708 173.368L508.202 177.859C507.771 178.647 507.333 179.448 506.888 180.263L506.222 181.489L505.232 183.405C502.342 189.058 499.111 195.473 495.945 201.814C498.501 200.138 500.998 198.502 503.41 196.925C504.673 196.096 505.912 195.282 507.126 194.483C507.732 194.084 508.921 193.385 509.361 193.029C510.253 192.31 509.175 194.835 509.175 194.835C508.961 195.328 508.746 195.827 508.528 196.332L505.861 202.549C502.787 209.782 499.629 216.884 497.793 223.26C497.568 224.042 496.797 226.665 496.797 226.665L498.835 223.804C501.274 220.273 505.826 212.692 510.217 204.662C511.308 202.653 512.396 200.647 513.444 198.718L514.215 197.283L514.594 196.578L515.141 195.524L517.746 190.418C521.293 183.414 524.237 177.601 525.998 174.126L520.956 177.473Z" fill="url(#paint9_linear)"/>
</g>
<defs>
<linearGradient id="paint0_linear" x1="258.988" y1="765.149" x2="406.142" y2="765.149" gradientUnits="userSpaceOnUse">
<stop offset="0.385417" stop-color="#8F6AFA"/>
<stop offset="0.75" stop-color="#375CDC"/>
<stop offset="1" stop-color="#0099EE"/>
</linearGradient>
<linearGradient id="paint1_linear" x1="121.271" y1="494.787" x2="601.923" y2="494.787" gradientUnits="userSpaceOnUse">
<stop offset="0.385417" stop-color="#8F6AFA"/>
<stop offset="0.75" stop-color="#375CDC"/>
<stop offset="1" stop-color="#0099EE"/>
</linearGradient>
<linearGradient id="paint2_linear" x1="444.074" y1="686.676" x2="501.92" y2="686.676" gradientUnits="userSpaceOnUse">
<stop offset="0.385417" stop-color="#8F6AFA"/>
<stop offset="0.75" stop-color="#375CDC"/>
<stop offset="1" stop-color="#0099EE"/>
</linearGradient>
<linearGradient id="paint3_linear" x1="145.941" y1="471.605" x2="249.004" y2="471.605" gradientUnits="userSpaceOnUse">
<stop offset="0.385417" stop-color="#8F6AFA"/>
<stop offset="0.75" stop-color="#375CDC"/>
<stop offset="1" stop-color="#0099EE"/>
</linearGradient>
<linearGradient id="paint4_linear" x1="159.371" y1="462.679" x2="239.906" y2="462.679" gradientUnits="userSpaceOnUse">
<stop offset="0.385417" stop-color="#8F6AFA"/>
<stop offset="0.75" stop-color="#375CDC"/>
<stop offset="1" stop-color="#0099EE"/>
</linearGradient>
<linearGradient id="paint5_linear" x1="260.381" y1="287.616" x2="546.838" y2="287.616" gradientUnits="userSpaceOnUse">
<stop offset="0.385417" stop-color="#8F6AFA"/>
<stop offset="0.75" stop-color="#375CDC"/>
<stop offset="1" stop-color="#0099EE"/>
</linearGradient>
<linearGradient id="paint6_linear" x1="269.227" y1="401.268" x2="321.072" y2="401.268" gradientUnits="userSpaceOnUse">
<stop offset="0.385417" stop-color="#8F6AFA"/>
<stop offset="0.75" stop-color="#375CDC"/>
<stop offset="1" stop-color="#0099EE"/>
</linearGradient>
<linearGradient id="paint7_linear" x1="408" y1="176.454" x2="421.999" y2="176.454" gradientUnits="userSpaceOnUse">
<stop offset="0.385417" stop-color="#8F6AFA"/>
<stop offset="0.75" stop-color="#375CDC"/>
<stop offset="1" stop-color="#0099EE"/>
</linearGradient>
<linearGradient id="paint8_linear" x1="451.326" y1="103.998" x2="480.009" y2="103.998" gradientUnits="userSpaceOnUse">
<stop offset="0.385417" stop-color="#8F6AFA"/>
<stop offset="0.75" stop-color="#375CDC"/>
<stop offset="1" stop-color="#0099EE"/>
</linearGradient>
<linearGradient id="paint9_linear" x1="495.945" y1="163.977" x2="527.5" y2="163.977" gradientUnits="userSpaceOnUse">
<stop offset="0.385417" stop-color="#8F6AFA"/>
<stop offset="0.75" stop-color="#375CDC"/>
<stop offset="1" stop-color="#0099EE"/>
</linearGradient>
<clipPath id="clip0">
<rect width="1000" height="1000" fill="white"/>
</clipPath>
</defs>
</svg>
