<svg width="1325" height="1153" viewBox="0 0 1325 1153" fill="none" xmlns="http://www.w3.org/2000/svg">
<circle cx="482" cy="671" r="477" fill="#B2B2B2" stroke="black" stroke-width="10"/>
<circle cx="482" cy="671" r="442" fill="white" stroke="black" stroke-width="10"/>
<g clip-path="url(#clip0)">
<path d="M1037.49 104.769C1019.33 168.262 1004.86 232.88 990.4 297.177C988.953 303.767 998.917 306.5 1000.52 299.909C1015.47 235.452 1030.58 170.995 1041.82 105.894C1042.15 103.322 1038.29 102.036 1037.49 104.769Z" fill="#444444"/>
<path d="M573.695 565.133C571.446 564.973 569.035 564.812 566.785 564.49C563.25 563.847 563.25 569.313 566.785 568.67C569.035 568.188 571.285 568.188 573.695 568.027C575.463 567.866 575.463 565.133 573.695 565.133Z" fill="#444444"/>
<path d="M1037.32 112.806C1046.32 104.126 1055.32 95.6069 1064.96 87.7306C1074.45 80.015 1085.86 74.389 1095.02 66.1912C1096.78 64.5838 1094.85 61.6904 1092.77 62.3334C1080.87 65.2267 1069.46 73.5853 1059.66 80.8187C1049.22 88.3735 1039.57 97.0536 1031.54 106.859C1028 110.877 1033.31 116.664 1037.32 112.806Z" fill="#444444"/>
<path d="M1091.65 57.0284C1075.41 117.307 1063.84 180.157 1055.01 241.881C1054.04 248.15 1063.68 251.044 1064.81 244.614C1075.58 182.568 1087.15 120.521 1096.95 58.4751C1097.59 54.9388 1092.61 53.4921 1091.65 57.0284Z" fill="#444444"/>
<path d="M1087.95 214.233C1104.5 161.671 1113.66 101.553 1116.87 46.4191C1117.2 41.2753 1108.84 39.9894 1107.71 45.1331C1096.47 99.6246 1086.5 157.813 1082.16 213.269C1082 216.805 1086.98 217.127 1087.95 214.233Z" fill="#444444"/>
<path d="M1112.7 51.8844C1127.8 48.0266 1141.94 39.5072 1155.76 32.5954C1169.75 25.5227 1184.53 18.7716 1196.1 8.00187C1198.19 6.07297 1195.94 2.85814 1193.53 3.50111C1178.26 7.19817 1164.28 16.1997 1150.78 23.9153C1137.44 31.6309 1122.66 38.8643 1111.41 49.3125C1110.13 50.4377 1111.41 52.2058 1112.7 51.8844Z" fill="#444444"/>
<path d="M1183.57 8.16293C1158.98 51.7239 1154.16 112.806 1148.54 161.832C1147.73 169.548 1159.46 169.226 1160.43 161.832C1164.28 132.898 1168.78 103.965 1174.25 75.3529C1178.59 53.3313 1185.5 31.3097 1185.82 8.8059C1185.98 7.51997 1184.21 7.03774 1183.57 8.16293Z" fill="#444444"/>
<path d="M1003.1 296.534C1024.95 300.552 1046.97 303.285 1068.66 308.429C1090.36 313.572 1111.09 322.735 1132.79 327.075C1138.57 328.2 1142.27 320.645 1136.8 317.43C1100.32 295.409 1046.65 286.407 1004.38 286.568C998.919 286.407 997.312 295.409 1003.1 296.534Z" fill="#444444"/>
<path d="M1127.64 327.073C1153.84 317.268 1179.07 305.213 1203.81 292.192C1208.96 289.46 1204.46 281.905 1199.31 284.316C1174.25 296.05 1149.66 308.91 1126.36 323.698C1124.75 324.823 1125.71 327.877 1127.64 327.073Z" fill="#444444"/>
<path d="M1061.92 240.757C1084.09 253.295 1109.64 259.242 1134.07 266.476C1162.03 274.834 1189.84 283.836 1218.12 290.587C1224.87 292.194 1227.44 282.55 1221.01 280.299C1193.53 270.816 1165.09 263.422 1137.29 255.063C1113.02 247.83 1088.59 238.667 1063.2 236.739C1060.79 236.578 1060.15 239.632 1061.92 240.757Z" fill="#444444"/>
<path d="M1106.59 209.411C1130.05 215.841 1153.36 222.431 1176.34 230.307C1199.16 238.184 1221.17 249.436 1244.47 255.383C1249.13 256.508 1251.71 250.239 1247.69 247.667C1208.64 222.27 1154.32 209.572 1109.32 199.606C1103.06 198.32 1100.32 207.643 1106.59 209.411Z" fill="#444444"/>
<path d="M1238.05 251.204C1245.28 246.06 1251.54 239.309 1258.46 233.683C1266.01 227.575 1274.53 222.592 1282.24 216.484C1286.1 213.43 1281.11 208.447 1277.26 210.054C1261.51 217.288 1243.35 233.04 1235.47 248.632C1234.83 250.24 1236.44 252.329 1238.05 251.204Z" fill="#444444"/>
<path d="M1160.1 158.778C1183.57 167.779 1210.89 168.744 1235.64 173.244C1261.03 177.906 1285.94 185.139 1311.33 188.997C1317.11 189.801 1319.36 182.246 1313.74 180.156C1286.42 170.03 1256.37 165.368 1227.6 160.707C1205.42 157.17 1182.28 152.509 1160.1 156.206C1158.66 156.367 1158.98 158.296 1160.1 158.778Z" fill="#444444"/>
<path d="M1322.58 185.461C1307.31 193.498 1292.69 202.178 1278.87 212.626C1267.46 221.146 1254.44 229.826 1247.53 242.524C1245.92 245.418 1248.97 248.15 1251.87 246.864C1264.56 240.917 1274.37 229.504 1284.81 220.342C1297.67 209.411 1310.85 198.642 1324.18 188.194C1325.79 187.068 1324.51 184.497 1322.58 185.461Z" fill="#444444"/>
<path d="M1152.55 161.028C1178.59 169.065 1207.03 168.583 1233.87 172.602C1261.19 176.62 1288.19 182.407 1315.18 188.354C1322.26 189.962 1325.31 179.192 1318.24 177.424C1269.38 164.886 1203.17 147.204 1152.55 156.849C1150.3 157.17 1150.62 160.385 1152.55 161.028Z" fill="#444444"/>
<path d="M1319.04 181.442C1304.9 187.068 1292.36 197.677 1280.79 207.321C1268.74 217.609 1252.99 230.307 1245.92 244.774C1244.15 248.31 1248.01 253.454 1251.86 250.721C1264.24 242.363 1273.88 228.7 1284.65 218.252C1296.38 206.678 1310.04 196.23 1320.32 183.531C1320.97 182.728 1320.32 180.96 1319.04 181.442Z" fill="#444444"/>
<path d="M1104.02 49.6353C1118.48 47.0634 1131.34 37.7404 1144.03 31.15C1158.66 23.5952 1174.73 18.4514 1188.87 10.4144C1193.53 7.84248 1190.15 1.41282 1185.49 2.37727C1169.1 5.43136 1153.03 14.1114 1138.41 21.6663C1125.39 28.4174 1110.77 35.8115 1102.89 48.5101C1102.57 48.9923 1103.37 49.6353 1104.02 49.6353Z" fill="#444444"/>
<path d="M1189.67 -0.517045C1163.15 45.2943 1154.96 101.715 1158.33 153.795C1158.82 159.903 1168.3 160.064 1167.98 153.795C1164.76 99.3035 1176.65 52.5277 1195.46 1.89408C1196.9 -1.4815 1191.44 -3.57114 1189.67 -0.517045Z" fill="#444444"/>
<path d="M1030.58 100.269C1013.54 151.063 998.276 223.075 1005.03 276.763C1005.51 280.46 1010.81 281.907 1011.94 277.727C1019.33 249.276 1019.33 219.057 1023.51 190.123C1027.85 160.707 1034.92 131.935 1039.26 102.68C1040.06 97.0537 1032.51 94.6425 1030.58 100.269Z" fill="#444444"/>
<circle cx="483.5" cy="672.5" r="328.5" fill="url(#paint0_linear)" stroke="black" stroke-width="10"/>
<circle cx="486" cy="678" r="247" fill="#F2F2F2" stroke="black" stroke-width="10"/>
<circle cx="486.5" cy="670.5" r="126.5" fill="url(#paint1_linear)" stroke="black" stroke-width="10"/>
<circle cx="486.5" cy="669.5" r="66.5" fill="white" stroke="black" stroke-width="10"/>
<path d="M477.918 690.03C540.753 664.954 597.803 612.231 652.281 572.367C709.009 530.895 765.095 488.781 820.698 445.863C934.476 358.259 1062.72 270.976 1160.75 165.851C1167.18 158.939 1158.66 146.401 1150.14 152.188C1035.4 230.308 932.709 331.254 822.627 416.447C762.684 462.902 702.099 508.391 641.032 553.078C586.232 593.102 517.29 629.269 471.972 679.742C468.276 683.921 471.811 692.601 477.918 690.03Z" fill="#444444"/>
</g>
<defs>
<linearGradient id="paint0_linear" x1="160" y1="349" x2="839.35" y2="349" gradientUnits="userSpaceOnUse">
<stop offset="0.385417" stop-color="#6633FF"/>
<stop offset="0.75" stop-color="#3366FF"/>
<stop offset="1" stop-color="#0099FF"/>
</linearGradient>
<linearGradient id="paint1_linear" x1="365" y1="549" x2="620.15" y2="549" gradientUnits="userSpaceOnUse">
<stop offset="0.177083" stop-color="#8F6AFA"/>
<stop offset="0.651042" stop-color="#375CDC"/>
<stop offset="1" stop-color="#0099EE"/>
</linearGradient>
<clipPath id="clip0">
<rect width="1325" height="1153" fill="white"/>
</clipPath>
</defs>
</svg>
