<svg width="577" height="493" viewBox="0 0 577 493" fill="none" xmlns="http://www.w3.org/2000/svg">
<path d="M401.479 71.695C423.556 65.2508 472.891 51.4557 499.431 109.646C459.063 131.137 432.799 137.038 401.479 71.695Z" fill="#B1B1B1"/>
<path d="M401.573 72.0459C412.924 68.7328 424.473 65.9776 436.368 65.9406C451.88 65.8926 466.824 70.9562 478.45 81.3863C487.191 89.2281 493.603 99.2903 498.466 109.905L498.865 109.473C491.796 113.375 484.479 116.807 476.96 119.75C470.831 122.212 464.334 123.632 457.737 123.948C451.416 124.092 445.166 122.589 439.599 119.589C432.842 115.949 427.22 110.491 422.404 104.576C414.247 94.5646 408.019 83.0388 402.447 71.4381C402.194 70.9122 400.327 71.561 400.517 71.9559C405.673 82.6929 411.405 93.2909 418.642 102.784C423.622 109.314 429.455 115.454 436.606 119.613C442.147 122.857 448.419 124.646 454.838 124.811C461.681 124.814 468.471 123.616 474.9 121.271C483.618 118.316 491.892 114.133 500.002 109.819C500.102 109.766 500.482 109.568 500.402 109.387C492.41 91.9463 479.872 76.1827 461.5 69.2127C448.156 64.1501 433.521 64.2531 419.649 66.8133C413.489 68.0128 407.394 69.525 401.387 71.3441C401.201 71.3981 400.403 71.634 400.516 71.9539C400.629 72.2738 401.375 72.1039 401.573 72.0459Z" fill="black"/>
<path d="M449.083 78.9778C461.507 78.7449 472.442 78.7929 491.346 95.0193L449.083 78.9778Z" fill="#B1B1B1"/>
<path d="M491.346 95.0245C491.124 95.2854 486.644 91.6954 481.782 88.6682C480.583 87.8794 479.318 87.2156 478.169 86.5218C476.979 85.903 475.871 85.3112 474.897 84.8443L472.5 83.7636L471.491 83.3767C471.403 83.3527 470.08 82.7129 468.05 82.0121C465.586 81.1621 463.053 80.5289 460.479 80.1196C457.673 79.6787 454.818 79.5118 452.673 79.3798C450.528 79.2479 449.089 79.1449 449.087 78.9799C449.085 78.815 450.511 78.638 452.672 78.5021C455.333 78.322 458.004 78.3341 460.664 78.5381C463.376 78.7794 466.058 79.2816 468.674 80.0376C469.919 80.3964 471.145 80.8178 472.348 81.3003L473.389 81.7502L475.835 82.9978C476.82 83.5337 477.933 84.2065 479.117 84.9173C480.256 85.6991 481.514 86.4628 482.671 87.3516C487.405 90.7846 491.53 94.8175 491.346 95.0245Z" fill="black"/>
<path d="M569.727 342.025C551.388 364.122 536.562 388.917 525.773 415.536C516.163 439.188 482.681 438.85 473.855 414.891L436.04 309.213L544.321 297.06C569.192 293.684 585.697 322.648 569.727 342.025Z" fill="#B1B1B1"/>
<path d="M568.826 341.995C551.072 363.505 536.575 387.51 525.8 413.24C523.849 417.926 521.699 422.212 517.899 425.69C514.816 428.506 511.101 430.536 507.067 431.609C500.799 433.308 494.128 432.666 488.298 429.803C482.468 426.941 477.879 422.053 475.386 416.052C474.602 414.214 473.987 412.295 473.313 410.414L467.242 393.45L450.009 345.292L437.529 310.418L437.005 308.955L435.913 309.766L460.599 306.996L499.958 302.578L534.176 298.738L543.34 297.71C545.952 297.345 548.599 297.291 551.224 297.55C554.764 297.996 558.177 299.158 561.256 300.964C573.567 308.157 578.807 324.564 571.996 337.29C571.095 338.956 570.035 340.532 568.831 341.995C568.532 342.367 569.091 342.564 569.361 342.589C569.6 342.604 569.839 342.563 570.059 342.47C570.28 342.378 570.477 342.236 570.634 342.055C572.961 339.253 574.71 336.016 575.779 332.532C576.848 329.049 577.216 325.388 576.861 321.761C576.102 314.932 572.944 308.594 567.949 303.879C562.688 298.936 555.735 296.198 548.518 296.229C545.191 296.367 541.874 296.681 538.581 297.17L506.569 300.763L466.06 305.309L437.801 308.481L436.172 308.664C435.898 308.695 434.907 308.991 435.08 309.474L446.393 341.087L464.106 390.586L470.755 409.165L472.706 414.618C474.072 418.57 476.269 422.184 479.148 425.215C491.421 437.871 513.472 435.712 523.511 421.408C524.879 419.409 526.019 417.263 526.908 415.01C528.258 411.712 529.663 408.438 531.125 405.189C533.986 398.869 537.079 392.663 540.407 386.57C547.282 374.021 555.103 362.015 563.802 350.656C566.026 347.745 568.303 344.875 570.632 342.048C570.931 341.677 570.37 341.478 570.101 341.454C569.861 341.44 569.622 341.481 569.4 341.575C569.179 341.669 568.983 341.813 568.826 341.995Z" fill="black"/>
<path d="M486.617 375.581C486.425 375.808 482.531 372.794 479.054 369.238C477.29 367.488 475.638 365.613 474.406 364.172C473.194 362.713 472.39 361.696 472.351 361.626C472.312 361.556 471.54 360.514 470.527 358.911C469.491 357.322 468.213 355.172 467.066 352.966C464.7 348.579 463.176 343.869 463.462 343.769C463.762 343.655 465.778 348.082 468.444 352.166C469.742 354.229 471.13 356.242 472.234 357.731C473.318 359.23 474.121 360.212 474.158 360.281C474.195 360.35 474.93 361.381 476.027 362.88C477.146 364.36 478.637 366.303 480.223 368.16C483.341 371.929 486.829 375.337 486.617 375.581Z" fill="white"/>
<path d="M472.993 318.548C472.964 318.324 492.55 313.44 514.482 316.087C521.308 316.88 527.992 318.129 527.952 318.416C527.909 318.744 521.152 318.054 514.343 317.671C491.715 316.301 473.077 319.222 472.993 318.548Z" fill="white"/>
<path d="M468.105 331.918C468.222 331.218 485.71 333.613 505.982 346.684C511.664 350.315 516.971 354.362 516.796 354.614C516.621 354.866 511.002 351.298 505.164 348.048C478.561 333.091 467.975 332.691 468.105 331.918Z" fill="white"/>
<path d="M498.445 249.462C496.206 291.741 480.963 330.571 456.324 363.039C409.309 425.006 328.096 463.755 237.966 458.971C226.031 458.343 214.148 456.949 202.392 454.797C183.548 451.363 165.122 445.937 147.423 438.611C105.339 417.663 76.4872 379.851 73.3495 336.927C28.5226 313.818 -0.753252 271.397 1.03191 224.317C1.04989 223.779 1.07786 223.25 1.10683 222.703C1.1398 222.095 1.18176 221.488 1.22371 220.88C4.74908 165.63 30.5116 116.394 70.3356 79.7466C115.544 38.1282 178.885 12.7394 248.406 13.1902C252.758 13.2109 257.141 13.3402 261.556 13.5781C294.376 15.2455 326.627 22.8153 356.766 35.9249C444.595 74.3371 503.343 156.983 498.445 249.462Z" fill="url(#paint0_linear)"/>
<path d="M252.725 459.865C247.802 459.865 242.874 459.735 237.94 459.474C225.984 458.842 214.08 457.444 202.302 455.292C183.424 451.848 164.964 446.413 147.231 439.076C103.833 417.476 76.0657 379.43 72.872 337.246C26.5117 313.24 -1.19878 269.986 0.532436 224.298C0.551416 223.758 0.579388 223.228 0.608358 222.677C0.640325 222.066 0.683281 221.456 0.725237 220.845C4.12274 167.602 28.7234 117.36 69.9969 79.3778C93.3118 58.031 120.494 41.3468 150.075 30.2255C181.479 18.3143 214.827 12.3677 248.409 12.6904C252.692 12.7114 257.123 12.8414 261.582 13.0783C294.464 14.7318 326.778 22.3165 356.966 35.4671C400.802 54.6387 437.396 84.6093 462.792 122.143C488.818 160.603 501.319 204.64 498.943 249.492L498.444 249.466L498.943 249.492C496.776 290.429 482.176 329.799 456.722 363.346C433.182 394.372 400.952 419.668 363.518 436.498C328.641 452.002 290.887 459.965 252.725 459.865ZM246.564 13.6842C213.723 13.5916 181.142 19.5146 150.431 31.1603C120.968 42.2366 93.8948 58.8536 70.6732 80.1146C29.5905 117.921 5.10273 167.924 1.72221 220.912C1.68025 221.519 1.6383 222.124 1.60633 222.729C1.57736 223.274 1.54939 223.799 1.53141 224.334C-0.188822 269.712 27.4178 312.686 73.5772 336.486C73.6534 336.525 73.7181 336.583 73.7654 336.654C73.8126 336.726 73.8407 336.808 73.847 336.894C76.9138 378.833 104.501 416.692 147.646 438.165C165.304 445.468 183.685 450.879 202.482 454.307C214.217 456.452 226.078 457.844 237.992 458.475C281.407 460.774 324.673 452.861 363.108 435.581C400.391 418.82 432.487 393.631 455.927 362.737C481.259 329.347 495.786 290.172 497.946 249.435C500.31 204.803 487.868 160.978 461.964 122.699C436.674 85.3261 400.228 55.4785 356.566 36.3828C326.488 23.2804 294.293 15.7238 261.531 14.0771C257.088 13.8411 252.673 13.7112 248.405 13.6902C247.791 13.6862 247.176 13.6842 246.564 13.6842Z" fill="black"/>
<path d="M456.324 363.039C409.309 425.006 328.096 463.755 237.966 458.971C226.031 458.343 214.148 456.949 202.392 454.797C183.548 451.363 165.122 445.937 147.423 438.611C105.339 417.663 76.4872 379.851 73.3495 336.927C28.5226 313.818 -0.753252 271.397 1.03191 224.317C1.04989 223.779 1.07786 223.25 1.10683 222.703C1.1398 222.095 1.18176 221.488 1.22371 220.88C4.74908 165.63 30.5116 116.394 70.3356 79.7466C75.4223 98.7523 81.9366 123.689 88.7886 151.551C102.874 208.745 159.677 215.734 190.172 216.643C250.975 218.443 281.189 282.914 320.264 348.628C348.035 395.336 414.074 384.78 456.324 363.039Z" fill="white"/>
<path d="M202.392 455.301H202.333C183.154 453.131 164.499 447.638 147.201 439.068C103.746 417.428 75.9448 379.262 72.845 336.973C72.8353 336.84 72.8785 336.71 72.9651 336.61C73.0516 336.509 73.1744 336.447 73.3065 336.438C73.3721 336.432 73.4382 336.439 73.5009 336.459C73.5636 336.48 73.6216 336.512 73.6715 336.555C73.7213 336.598 73.762 336.651 73.7911 336.71C73.8202 336.769 73.8372 336.834 73.8409 336.9C76.9158 378.833 104.509 416.692 147.647 438.171C164.841 446.69 183.384 452.15 202.449 454.307C202.581 454.314 202.705 454.374 202.793 454.473C202.882 454.572 202.927 454.703 202.92 454.835C202.912 454.968 202.852 455.092 202.753 455.18C202.654 455.269 202.524 455.314 202.392 455.306V455.301Z" fill="black"/>
<path d="M373.249 251.489C397.289 260.911 420.454 283.107 440.779 331.995C394.186 356.388 339.549 362.586 310.569 290.353" fill="url(#paint1_linear)"/>
<path d="M310.574 290.353C310.847 290.768 311.077 291.21 311.261 291.672L313.008 295.482C314.524 298.756 316.822 303.38 319.93 308.72C323.514 314.779 327.713 320.453 332.458 325.653L333.432 326.729L334.48 327.75L336.594 329.815C337.294 330.523 338.093 331.123 338.841 331.788C339.611 332.429 340.351 333.116 341.157 333.726L343.602 335.537C344.015 335.837 344.411 336.156 344.839 336.437L346.132 337.259C346.997 337.804 347.852 338.369 348.729 338.9L351.436 340.365C351.891 340.601 352.335 340.864 352.798 341.082L354.196 341.716C355.135 342.127 356.054 342.585 357.006 342.958C358.929 343.653 360.816 344.428 362.778 344.937C366.582 346.066 370.482 346.843 374.427 347.26C381.486 347.96 388.604 347.763 395.613 346.673C400.662 345.88 405.651 344.745 410.546 343.274C414.174 342.214 416.304 341.4 416.56 341.334C423.409 339.008 430.092 336.218 436.562 332.983L438.714 331.901L439.421 331.548C439.476 331.537 439.473 331.509 439.445 331.459C438.817 329.993 438.17 328.48 437.502 326.92C436.136 323.592 434.478 320.196 432.836 316.655C429.335 309.322 425.418 302.195 421.105 295.308C416.81 288.457 411.956 281.973 406.594 275.921C401.923 270.658 396.719 265.895 391.066 261.707C387.038 258.794 382.785 256.206 378.347 253.967C376.749 253.141 375.432 252.613 374.568 252.18C374.107 251.995 373.665 251.765 373.25 251.492C373.733 251.604 374.204 251.763 374.656 251.968C375.555 252.332 376.901 252.794 378.541 253.557C383.095 255.649 387.457 258.138 391.575 260.995C397.376 265.105 402.722 269.825 407.521 275.072C413.029 281.101 418.021 287.583 422.443 294.449C426.875 301.339 430.905 308.48 434.511 315.836C436.2 319.384 437.907 322.791 439.312 326.125L441.556 331.235L442.04 332.341C442.062 332.383 442.079 332.428 442.091 332.475L441.957 332.544L441.69 332.68L441.158 332.953L439.648 333.726L437.485 334.838C430.96 338.176 424.213 341.058 417.29 343.462C417.03 343.529 414.863 344.339 411.163 345.388C406.163 346.849 401.068 347.964 395.915 348.725C388.729 349.777 381.437 349.908 374.218 349.115C370.17 348.646 366.174 347.804 362.28 346.601C360.272 346.055 358.34 345.238 356.376 344.501C355.403 344.107 354.465 343.628 353.508 343.194L352.077 342.526C351.602 342.3 351.153 342.026 350.691 341.773L347.936 340.239C347.045 339.684 346.177 339.095 345.298 338.526L343.989 337.666C343.555 337.376 343.154 337.042 342.736 336.734L340.264 334.85C339.45 334.216 338.706 333.505 337.93 332.842C337.176 332.154 336.37 331.53 335.671 330.8L333.551 328.669L332.503 327.614L331.53 326.507C326.81 321.178 322.667 315.363 319.171 309.16C316.734 304.785 314.537 300.28 312.592 295.664C311.927 293.982 311.403 292.665 311.048 291.759C310.843 291.307 310.685 290.836 310.574 290.353Z" fill="black"/>
<path d="M109.549 247.719C109.449 247.719 109.352 247.689 109.269 247.633C109.187 247.577 109.123 247.498 109.086 247.405C109.049 247.312 109.041 247.211 109.062 247.113C109.083 247.015 109.133 246.927 109.205 246.858C120.312 236.369 133.029 227.733 146.873 221.282C146.932 221.246 146.999 221.224 147.068 221.216C147.137 221.207 147.207 221.214 147.273 221.234C147.34 221.254 147.401 221.288 147.454 221.334C147.506 221.379 147.549 221.435 147.579 221.498C147.608 221.561 147.625 221.629 147.626 221.699C147.628 221.768 147.616 221.838 147.589 221.902C147.563 221.966 147.523 222.024 147.473 222.072C147.423 222.121 147.364 222.158 147.298 222.182C133.552 228.587 120.923 237.16 109.894 247.575C109.802 247.666 109.678 247.718 109.549 247.719Z" fill="black"/>
<path d="M497.47 249.544C494.679 300.215 472.554 347.831 437.213 383.996C404.883 417.083 362.858 439.902 318.073 450.902C265.663 463.636 210.675 460.746 159.886 442.59C153.495 440.404 147.298 437.688 141.358 434.469C136.283 431.626 131.376 428.493 126.661 425.085C117.359 418.388 108.923 410.564 101.544 401.791C87.379 384.872 77.659 364.284 74.8759 342.304C74.6291 340.354 75.0966 337.106 73.4124 336.037C70.836 334.406 68.0079 333.114 65.3876 331.538C60.4298 328.568 55.648 325.313 51.0664 321.789C42.0243 314.859 33.8826 306.825 26.8303 297.876C13.2373 280.533 4.29554 259.637 2.33955 237.605C1.27765 225.663 2.43945 213.547 4.32351 201.742C6.2537 189.663 9.28423 177.786 13.3772 166.259C21.5781 143.385 33.6611 122.098 49.0944 103.335C79.8627 65.7625 122.512 38.892 168.881 25.0669C221.026 9.72519 276.535 10.1241 328.455 26.2135C372.978 40.0547 413.962 65.6555 444.643 100.936C472.962 133.498 491.854 174.003 496.569 217.052C497.736 227.841 498.037 238.706 497.468 249.543C497.418 250.509 499.376 250.21 499.418 249.379C501.678 205.225 489.215 161.498 464.999 124.608C440.212 86.8466 404.219 57.1359 363.439 38.0612C313.722 14.8077 256.885 7.27884 202.749 16.0084C154.474 23.7942 108.261 44.7004 71.7621 77.4592C35.2057 110.269 9.53814 154.671 2.12877 203.474C0.357594 215.14 -0.651368 227.046 0.474473 238.827C1.5633 250.008 4.36385 260.954 8.77792 271.283C17.5889 291.983 32.3367 309.746 50.1623 323.326C54.7669 326.83 59.57 330.064 64.5475 333.013C65.8642 333.792 67.1918 334.553 68.5304 335.295C69.7172 335.952 71.871 336.595 72.4404 337.894C72.812 338.745 72.6741 340.48 72.78 341.415C72.9652 343.049 73.1876 344.678 73.4473 346.302C75.2117 357.155 78.5745 367.686 83.4261 377.551C93.3848 397.898 109.073 415.041 127.618 427.903C132.631 431.374 137.847 434.542 143.238 437.389C149.359 440.431 155.705 442.996 162.219 445.061C175.805 449.726 189.736 453.317 203.884 455.801C230.477 460.487 257.606 461.31 284.434 458.246C331.299 452.868 376.839 435.282 414.256 406.366C452.697 376.653 481.814 335.098 493.674 287.713C496.802 275.147 498.728 262.31 499.423 249.378C499.474 248.414 497.516 248.712 497.47 249.544Z" fill="black"/>
<path d="M329.03 45.1154C324.62 51.2857 318.672 56.3073 312.492 60.6361C273.333 88.0764 220.027 134.821 183.156 173.773C143.759 215.391 87.1162 172.567 119.964 111.327C145.258 64.1561 190.853 21.478 237.449 7.40298C243.716 5.52111 250.084 3.99379 256.523 2.82826C267.452 0.849816 279.954 -0.299862 291.208 1.18172C300.754 2.38231 310.08 4.94075 318.904 8.7796C323.799 10.948 328.018 13.3203 331.061 17.7181C331.154 17.8431 331.247 17.968 331.33 18.102C337.053 26.7556 334.767 37.0897 329.03 45.1154Z" fill="white"/>
<path d="M328.144 45.1423C321.657 54.1288 312.353 59.9692 303.553 66.4064C295.309 72.4357 287.226 78.684 279.256 85.0692C261.574 99.2362 244.408 114.061 227.702 129.373C219.43 136.953 211.281 144.664 203.254 152.506C195.724 159.878 188.514 167.551 181.087 175.021C170.669 185.498 156.043 192.424 141.12 188.925C127.966 185.841 117.903 175.476 113.653 162.845C107.895 145.731 112.505 127.029 120.728 111.548C131.269 91.9224 144.531 73.8873 160.118 57.9777C175.303 42.3591 192.675 28.586 211.985 18.4178C221.012 13.6234 230.517 9.78914 240.344 6.97802C251.986 3.5824 263.992 1.58952 276.107 1.04169C288.666 0.640524 301.183 2.69779 312.955 7.09799C318.067 8.99746 323.522 11.1689 327.528 14.9958C329.536 16.9193 331.12 19.2418 332.178 21.8141C333.237 24.3864 333.746 27.1517 333.674 29.9326C333.36 35.4369 331.437 40.7277 328.144 45.1473C327.709 45.7652 329.604 45.5372 329.916 45.0944C333.234 40.6503 335.204 35.3446 335.591 29.8106C335.704 27.0858 335.267 24.3662 334.307 21.814C333.346 19.2617 331.882 16.9293 330.001 14.9558C326.205 10.9719 320.859 8.71154 315.816 6.75809C309.972 4.51147 303.933 2.81102 297.775 1.67851C285.423 -0.630845 272.943 -0.199966 260.568 1.73449C249.447 3.41856 238.532 6.26018 228.001 10.2131C207.722 17.948 189.23 30.0896 172.893 44.2796C155.618 59.3021 140.558 76.6993 128.162 95.9521C117.473 112.564 107.698 131.136 109.332 151.522C110.461 165.608 117.624 179.207 130.234 186.167C142.638 193.013 157.606 191.756 169.774 185.011C173.385 182.992 176.763 180.582 179.847 177.822C183.597 174.488 186.932 170.697 190.426 167.102C198.274 159.028 206.283 151.113 214.452 143.358C231.543 127.076 249.165 111.374 267.319 96.252C275.829 89.1674 284.469 82.2416 293.238 75.4749C297.241 72.3997 301.28 69.3716 305.353 66.3904C309.581 63.3013 313.969 60.4051 318.074 57.153C322.557 53.6954 326.542 49.6353 329.916 45.0874C330.36 44.4785 328.462 44.7015 328.144 45.1423Z" fill="black"/>
<path d="M331.059 17.7141C307.873 30.3535 281.964 49.1843 258.48 68.2129C250.594 74.5891 242.975 81.0004 235.837 87.2076C233.168 89.5243 230.571 91.808 228.045 94.0587C209.834 110.249 195.548 124.35 188.985 131.896C187.821 133.243 186.536 134.479 185.145 135.589C164.954 151.656 132.744 130.503 150.181 95.6543C159.607 76.8085 196.384 29.6267 256.524 2.82923C267.452 0.849784 279.954 -0.299894 291.208 1.18169C300.754 2.38228 310.08 4.94072 318.904 8.77956C323.801 10.944 328.018 13.3163 331.059 17.7141Z" fill="black"/>
<path d="M169.783 141.52C164.135 141.521 158.66 139.57 154.283 135.997C145.742 129.063 140.062 114.764 149.734 95.4292C161.071 72.7616 200.034 27.4483 256.324 2.37227C256.361 2.35594 256.399 2.34386 256.438 2.33628C269.689 -0.0630446 281.412 -0.616889 291.277 0.685746C300.871 1.88973 310.243 4.46002 319.109 8.31861C324.356 10.641 328.467 13.0793 331.476 17.4291C331.516 17.4867 331.543 17.5522 331.556 17.6212C331.569 17.6901 331.567 17.761 331.551 17.8293C331.535 17.8976 331.505 17.9617 331.462 18.0174C331.419 18.0732 331.366 18.1193 331.304 18.1529C310.825 29.3177 285.751 46.7629 258.801 68.6007C251.244 74.711 243.63 81.0972 236.171 87.5834C233.503 89.8988 230.906 92.1815 228.379 94.4315C211.908 109.074 196.595 123.909 189.366 132.221C188.182 133.59 186.875 134.847 185.461 135.977C181.014 139.549 175.486 141.504 169.783 141.52ZM256.672 3.31001C200.651 28.292 161.899 73.3394 150.627 95.8731C141.221 114.679 146.673 128.528 154.913 135.218C159.147 138.65 164.431 140.521 169.88 140.517C175.329 140.512 180.61 138.633 184.839 135.194C186.205 134.102 187.468 132.888 188.612 131.565C194.386 124.924 207.692 111.485 227.716 93.6807C230.242 91.4353 232.84 89.1503 235.508 86.8256C242.976 80.3325 250.599 73.9382 258.164 67.821C284.945 46.121 309.881 28.7469 330.323 17.543C327.475 13.6641 323.602 11.4007 318.697 9.22935C309.917 5.41018 300.637 2.86585 291.138 1.67347C281.393 0.389829 269.795 0.938675 256.672 3.31001Z" fill="black"/>
<path d="M196.141 137.441C214.59 137.441 229.547 122.474 229.547 104.011C229.547 85.5475 214.59 70.5801 196.141 70.5801C177.692 70.5801 162.735 85.5475 162.735 104.011C162.735 122.474 177.692 137.441 196.141 137.441Z" fill="white"/>
<path d="M246.451 94.2375C253.578 94.2375 259.356 88.4555 259.356 81.3231C259.356 74.1907 253.578 68.4087 246.451 68.4087C239.324 68.4087 233.547 74.1907 233.547 81.3231C233.547 88.4555 239.324 94.2375 246.451 94.2375Z" fill="white"/>
<path d="M115.01 242.309C113.131 243.899 111.31 245.535 109.545 247.218C88.2571 267.472 74.761 293.914 73.2026 323.385C72.9639 327.9 73.0106 332.424 73.3424 336.933C73.3441 336.996 73.3508 337.06 73.3624 337.122C62.6481 342.589 50.5765 344.819 38.6182 343.541C11.0166 340.831 -14.0876 292.164 49.2272 253.416C49.447 226.693 57.4388 192.133 85.1902 193.813C110.274 195.332 115.759 218.415 115.01 242.309Z" fill="#B1B1B1"/>
<path d="M114.25 242.205C103.52 251.245 94.3872 262.03 87.2361 274.106C80.36 285.778 75.6968 298.62 73.4813 311.987C72.0077 320.367 71.6432 328.904 72.3974 337.379L72.782 336.901C65.8952 340.435 58.3765 342.568 50.6608 343.177C45.566 343.586 40.0967 343.67 35.1168 342.321C29.2531 340.638 23.9979 337.3 19.9794 332.707C10.0186 321.587 8.34335 305.704 13.6149 292.037C17.385 282.263 24.1461 273.87 31.8502 266.898C37.0643 262.234 42.6804 258.041 48.6329 254.368C49.0844 254.085 49.9385 253.785 50.1873 253.278C50.281 252.741 50.2901 252.192 50.2142 251.651C50.2369 250.425 50.2765 249.199 50.3331 247.972C50.4557 245.29 50.6608 242.613 50.9485 239.942C52.0334 229.9 54.2031 219.624 58.9403 210.622C63.1359 202.644 69.877 195.795 79.1355 194.49C89.2181 193.069 99.8871 196.92 105.975 205.198C112.047 213.456 113.667 224.376 114.04 234.365C114.139 237.099 114.132 239.837 114.05 242.572C114.036 243.034 115.96 242.73 115.98 242.054C116.526 223.914 113.518 199.748 92.6775 194.405C83.8696 192.146 74.2535 193.186 66.8751 198.744C59.7824 204.091 55.5947 212.49 52.9544 220.778C49.5859 231.357 48.3652 242.604 48.2593 253.669L48.6439 253.19C36.83 260.445 25.5436 269.367 17.7037 280.958C12.3502 288.872 8.76392 298.066 8.65304 307.706C8.55094 315.531 10.8524 323.199 15.2462 329.674C19.1262 335.47 24.701 339.924 31.2078 342.428C35.5465 343.854 40.1029 344.503 44.667 344.342C52.7557 344.373 60.7773 342.872 68.3086 339.919C70.2306 339.157 72.1047 338.288 73.9438 337.342C74.1186 337.252 74.3514 337.089 74.3274 336.864C73.6484 329.262 73.8889 321.607 75.0437 314.063C75.9718 307.421 77.521 300.881 79.6709 294.528C84.0099 281.869 90.5356 270.069 98.9511 259.667C103.999 253.396 109.63 247.619 115.769 242.413C116.573 241.732 114.665 241.853 114.25 242.205Z" fill="black"/>
<path d="M38.6202 343.54C37.6979 343.577 36.7743 343.51 35.867 343.34C33.4614 342.911 31.1229 342.167 28.9122 341.125C25.774 339.631 22.8898 337.652 20.365 335.262C17.452 332.507 15.0089 329.293 13.1324 325.749C9.57989 318.992 8.08372 311.341 8.82887 303.743C8.90879 302.962 8.98604 302.213 9.06063 301.497C9.19249 300.798 9.31836 300.121 9.43624 299.488C9.55412 298.855 9.65202 298.257 9.78488 297.712L10.1955 296.213C10.4492 295.304 10.639 294.572 10.7948 294.061C10.9787 293.561 11.0875 293.261 11.1095 293.199C11.1575 293.076 11.5651 292.019 12.2434 290.264C12.6429 289.416 13.1314 288.399 13.6829 287.241C14.2343 286.084 15.0065 284.873 15.7617 283.513C16.5319 282.16 17.5439 280.814 18.5139 279.34C19.5588 277.917 20.7236 276.467 21.9204 274.974L23.8674 272.808C24.5297 272.082 25.166 271.32 25.9043 270.639L28.0591 268.53C28.4227 268.179 28.7763 267.817 29.1479 267.474L30.2938 266.474C35.8397 261.604 41.8374 257.275 48.2053 253.545C49.47 252.734 50.7128 252.136 51.7777 251.545C52.8545 250.977 53.7926 250.481 54.5658 250.074C55.3523 249.6 56.1859 249.21 57.0532 248.91C56.3538 249.507 55.5945 250.029 54.7876 250.469L52.1153 252.122C51.0904 252.77 49.8876 253.422 48.6669 254.288C42.5264 258.239 36.7385 262.713 31.3677 267.661L30.2688 268.667C29.9122 269.013 29.5695 269.376 29.2259 269.729L27.161 271.849C26.4617 272.532 25.8483 273.291 25.217 274.015L23.3619 276.172C22.2271 277.652 21.1232 279.086 20.1342 280.486C19.2252 281.939 18.2662 283.258 17.5489 284.577C16.8496 285.905 16.1114 287.076 15.6099 288.206C15.1084 289.336 14.6519 290.306 14.2773 291.128C13.6549 292.817 13.2783 293.833 13.2363 293.951C13.2144 294.01 13.1065 294.292 12.9237 294.77C12.7658 295.255 12.576 295.95 12.3243 296.812C12.1984 297.243 12.0585 297.718 11.9087 298.231C11.7589 298.745 11.6779 299.317 11.5481 299.916C11.4182 300.515 11.2933 301.153 11.1555 301.822C11.0736 302.5 10.9866 303.212 10.8967 303.953C10.0542 311.182 11.3242 318.5 14.553 325.022C16.2706 328.473 18.5303 331.627 21.2461 334.362C23.6171 336.75 26.3342 338.766 29.3058 340.344C31.4203 341.446 33.6539 342.303 35.9629 342.898C36.867 343.027 37.7568 343.242 38.6202 343.54Z" fill="black"/>
<path d="M71.8411 247.174C71.858 256.597 75.3235 278.815 62.225 298.233C45.0936 323.625 27.9133 301.026 40.2426 288.116C52.5959 275.184 70.2717 269.603 71.8411 247.174Z" fill="black"/>
<path d="M71.841 247.173C71.883 248.275 71.8279 249.379 71.6761 250.472C71.6512 250.733 71.6382 251.012 71.5972 251.3C71.5563 251.588 71.4843 251.885 71.4234 252.199C71.2995 252.824 71.1657 253.499 71.0238 254.222C70.8665 254.989 70.6545 255.744 70.3895 256.481C70.2636 256.877 70.1344 257.281 70.0019 257.696C69.9349 257.903 69.867 258.113 69.8021 258.325C69.7108 258.529 69.6196 258.735 69.5284 258.943C67.9424 262.801 65.665 266.336 62.8083 269.375C59.5167 272.791 55.9719 275.954 52.2042 278.836C48.4876 281.696 44.9512 284.784 41.6151 288.08C40.1153 289.507 38.9212 291.223 38.1057 293.126C37.3979 294.814 37.059 296.634 37.1117 298.465C37.1699 301.221 38.2211 303.864 40.0717 305.907C40.8289 306.699 41.7196 307.35 42.703 307.832C43.6862 308.296 44.7465 308.574 45.8308 308.653C47.0127 308.696 48.1938 308.546 49.3272 308.208C50.8181 307.723 52.2295 307.021 53.5158 306.124C56.7538 303.714 59.5251 300.733 61.6934 297.327C64.2855 293.46 66.3742 289.277 67.909 284.881C69.438 280.482 70.4991 275.933 71.0748 271.311C71.5755 267.27 71.8244 263.202 71.82 259.13C71.831 255.55 71.7201 252.561 71.7201 250.466C71.7071 249.419 71.7201 248.594 71.7531 248.033C71.7386 247.742 71.7723 247.451 71.853 247.172C72.0385 248.254 72.1463 249.349 72.1756 250.447C72.3275 252.531 72.5752 255.514 72.7031 259.117C72.8561 263.233 72.7316 267.356 72.3305 271.456C71.8659 276.194 70.8903 280.868 69.4205 285.395C67.9318 289.963 65.8598 294.32 63.2558 298.357C61.0122 302.009 58.1155 305.217 54.7106 307.82C53.2597 308.864 51.6614 309.685 49.9685 310.257C48.5933 310.69 47.1558 310.89 45.7149 310.85C44.3384 310.774 42.9889 310.437 41.738 309.857C40.5071 309.247 39.3966 308.42 38.4603 307.414C36.28 304.961 35.0635 301.799 35.0369 298.517C35.0084 296.397 35.4331 294.296 36.2826 292.354C37.2276 290.242 38.5891 288.343 40.2855 286.771C43.7324 283.481 47.3846 280.414 51.2202 277.588C54.9919 274.827 58.558 271.795 61.8902 268.516C64.7377 265.642 67.0514 262.285 68.7232 258.6L69.0129 258.009C69.0868 257.805 69.1601 257.603 69.2327 257.404C69.3785 257.004 69.5204 256.615 69.6582 256.236C69.9484 255.527 70.1891 254.798 70.3785 254.055L70.878 252.092C70.9559 251.788 71.0308 251.496 71.1027 251.218C71.1597 250.937 71.1906 250.664 71.2336 250.408C71.3432 249.314 71.5464 248.232 71.841 247.173Z" fill="black"/>
<path d="M67.4106 284.52C67.2418 284.454 67.973 282.399 68.7612 279.248C69.1528 277.672 69.5314 275.819 69.8191 273.814C70.1068 271.81 70.2747 269.651 70.3626 267.48C70.5194 263.136 70.4475 258.723 70.5474 255.361C70.6323 251.998 70.7931 249.701 70.8021 249.562C70.8281 249.422 71.0159 247.111 71.5653 243.779C72.2489 239.762 73.1361 235.782 74.2236 231.855C75.3854 227.603 76.757 223.441 77.8548 220.358C78.9527 217.275 79.7379 215.247 79.8808 215.287C80.2564 215.398 77.692 223.734 75.766 232.244C74.805 236.501 74.0288 240.804 73.6102 244.083C73.1916 247.362 73.0648 249.605 73.0398 249.742C73.0308 249.88 72.81 252.131 72.6132 255.449C72.4015 258.767 72.3135 263.167 71.9459 267.584C71.7626 269.746 71.4652 271.897 71.0548 274.028C70.6819 275.879 70.1955 277.704 69.5983 279.495C68.5384 282.621 67.5305 284.569 67.4106 284.52Z" fill="black"/>
<path d="M72.4384 241.967C72.1727 242.105 70.4774 239.416 69.2417 236.43C68.6651 235.057 68.1678 233.652 67.7522 232.222C67.3976 231.041 67.2258 230.222 67.2048 230.168C67.1838 230.114 67.0639 229.287 66.9241 228.069C66.7842 226.851 66.6723 225.241 66.6244 223.645C66.5395 220.446 66.7123 217.307 67.014 217.293C67.3317 217.278 67.7222 220.401 68.2068 223.499C68.4555 225.047 68.7232 226.589 68.97 227.745C69.2167 228.901 69.4005 229.684 69.4105 229.732C69.4205 229.78 69.5334 230.577 69.7651 231.731C69.9759 232.893 70.3336 234.405 70.7441 235.907C71.5533 238.915 72.7251 241.823 72.4384 241.967Z" fill="black"/>
<path d="M384.648 160.096C392.462 143.438 398.839 135.686 411.559 123.73C396.559 132.652 387.349 136.639 369.191 139.542" fill="url(#paint2_linear)"/>
<path d="M369.191 139.542C369.163 139.373 371.896 138.826 375.966 137.873C380.948 136.735 385.841 135.239 390.608 133.398C395.396 131.465 400.041 129.191 404.505 126.594C408.235 124.46 410.758 122.887 410.986 122.764L412.328 124.55L412.317 124.561C412.195 124.692 410.015 126.655 406.944 129.638C403.209 133.211 399.733 137.046 396.544 141.115C393.437 145.205 390.631 149.515 388.146 154.011C386.092 157.68 384.803 160.174 384.65 160.1C384.77 159.46 384.982 158.841 385.28 158.263C385.739 157.119 386.463 155.516 387.373 153.605C389.62 148.91 392.262 144.415 395.271 140.169C398.366 135.917 401.779 131.906 405.482 128.172C408.508 125.073 410.656 123.054 410.781 122.921L410.792 122.91L412.136 124.696C411.904 124.82 409.339 126.346 405.505 128.404C400.897 130.925 396.102 133.091 391.164 134.882C386.275 136.587 381.249 137.873 376.142 138.727C374.067 139.07 372.337 139.322 371.119 139.444C370.484 139.571 369.835 139.604 369.191 139.542Z" fill="black"/>
<path d="M204.677 371.324C210.019 388.933 210.471 398.964 209.02 416.367C214.192 399.689 218.365 390.558 229.91 376.234" fill="white"/>
<path d="M229.91 376.234C230.043 376.341 228.379 378.577 225.994 382.012C223.055 386.196 220.422 390.586 218.113 395.148C215.85 399.793 213.921 404.594 212.343 409.514C211.001 413.597 210.18 416.456 210.093 416.7L207.9 416.274V416.258C207.9 416.079 208.209 413.159 208.494 408.887C208.878 403.729 208.893 398.551 208.54 393.391C208.112 388.273 207.314 383.192 206.152 378.189C205.222 374.09 204.511 371.37 204.675 371.321C205.015 371.876 205.271 372.479 205.436 373.109C205.862 374.265 206.396 375.942 206.999 377.97C208.472 382.963 209.517 388.072 210.123 393.242C210.668 398.473 210.814 403.737 210.562 408.991C210.387 413.321 210.144 416.259 210.14 416.442V416.457L207.947 416.031C208.036 415.785 208.922 412.931 210.39 408.833C212.126 403.872 214.238 399.051 216.708 394.412C219.199 389.869 222.071 385.546 225.293 381.489C226.605 379.844 227.72 378.498 228.544 377.59C229.367 376.683 229.85 376.185 229.91 376.234Z" fill="black"/>
<path d="M276.39 383.216C289.36 396.262 294.457 404.91 301.333 420.961C298.086 403.803 297.493 393.78 300.977 375.71" fill="white"/>
<path d="M300.978 375.71C301.145 375.742 300.723 378.499 300.227 382.652C299.592 387.724 299.323 392.836 299.422 397.947C299.599 403.112 300.146 408.257 301.058 413.343C301.785 417.58 302.4 420.49 302.438 420.747L300.3 421.399L300.294 421.385C300.213 421.224 299.115 418.504 297.365 414.596C295.287 409.861 292.875 405.281 290.145 400.89C287.368 396.572 284.282 392.462 280.911 388.591C278.168 385.404 276.268 383.339 276.389 383.219C276.949 383.55 277.458 383.961 277.899 384.439C278.816 385.261 280.075 386.491 281.557 388C285.197 391.719 288.514 395.741 291.472 400.023C294.404 404.387 297.002 408.968 299.241 413.726C301.116 417.633 302.277 420.342 302.359 420.506L302.365 420.52L300.228 421.172C300.191 420.912 299.637 417.973 299.014 413.674C298.223 408.478 297.829 403.229 297.836 397.972C297.907 392.791 298.418 387.625 299.364 382.53C299.75 380.461 300.106 378.749 300.409 377.561C300.505 376.919 300.697 376.295 300.978 375.71Z" fill="black"/>
<path d="M424.785 239.813C437.821 226.833 446.462 221.733 462.503 214.852C445.357 218.101 435.341 218.695 417.285 215.208" fill="url(#paint3_linear)"/>
<path d="M417.285 215.207C417.317 215.04 420.072 215.462 424.221 215.958C429.29 216.594 434.398 216.863 439.506 216.764C444.666 216.587 449.807 216.04 454.89 215.127C459.123 214.4 462.032 213.784 462.288 213.746L462.94 215.885L462.926 215.891C462.766 215.972 460.046 217.071 456.141 218.823C451.41 220.901 446.834 223.316 442.447 226.048C438.13 228.827 434.02 231.915 430.149 235.288C426.964 238.033 424.901 239.935 424.781 239.813C425.111 239.252 425.522 238.743 426 238.302C426.823 237.383 428.051 236.125 429.56 234.641C433.275 230.998 437.294 227.679 441.572 224.719C445.933 221.784 450.511 219.185 455.265 216.944C459.169 215.068 461.876 213.906 462.04 213.824L462.054 213.817L462.707 215.956C462.447 215.992 459.51 216.548 455.214 217.171C450.022 217.963 444.776 218.357 439.524 218.35C434.346 218.278 429.184 217.767 424.093 216.821C422.026 216.433 420.314 216.077 419.129 215.776C418.49 215.677 417.869 215.486 417.285 215.207Z" fill="black"/>
<path d="M50.374 123.887C32.0589 122.236 22.6026 118.889 7.01868 111.017C20.5268 122.073 27.4197 129.37 36.3565 145.453" fill="white"/>
<path d="M36.3625 145.453C36.2137 145.536 34.7642 143.154 32.4795 139.655C29.7067 135.36 26.6282 131.27 23.268 127.417C19.8157 123.574 16.0923 119.985 12.1265 116.675C8.84787 113.897 6.50828 112.063 6.31348 111.891L7.53222 110.016L7.54621 110.023C7.71104 110.094 10.2994 111.472 14.1514 113.34C18.7839 115.631 23.5738 117.587 28.4847 119.196C33.3843 120.717 38.3876 121.881 43.4552 122.68C47.603 123.356 50.3861 123.716 50.3701 123.886C49.7284 123.994 49.0744 124.006 48.4291 123.922C47.1984 123.883 45.4442 123.75 43.3394 123.547C38.1624 123.041 33.0381 122.094 28.0221 120.716C22.9724 119.26 18.0406 117.422 13.2693 115.218C9.32338 113.431 6.69408 112.103 6.52626 112.031L6.51127 112.024L7.73002 110.149C7.92981 110.324 10.2364 112.218 13.4791 115.116C17.4237 118.587 21.0973 122.355 24.4678 126.387C27.7409 130.402 30.6677 134.688 33.2168 139.198C34.2487 141.032 35.0769 142.573 35.6073 143.677C35.9452 144.228 36.1996 144.827 36.3625 145.453Z" fill="black"/>
<path d="M101.753 71.7479C86.1833 61.9567 79.2764 54.6777 68.964 40.5867C75.9848 56.5742 78.8188 66.2065 79.4842 84.5974" fill="url(#paint4_linear)"/>
<path d="M79.4832 84.5974C79.3134 84.6044 79.1036 81.8231 78.654 77.6653C78.1324 72.5785 77.2453 67.5358 75.9998 62.5765C74.666 57.584 72.9764 52.6935 70.944 47.9426C69.2827 43.9777 68.03 41.2805 67.9351 41.0396L69.8711 39.9219L69.8801 39.9349C69.9949 40.0728 71.6782 42.4772 74.2605 45.8912C77.3495 50.0364 80.73 53.956 84.3761 57.6199C88.0531 61.2036 91.9847 64.5161 96.14 67.5312C99.5285 70.0185 101.845 71.603 101.753 71.748C101.133 71.5519 100.545 71.2656 100.008 70.8982C98.9292 70.3044 97.4267 69.3886 95.6425 68.2519C91.2596 65.4489 87.1236 62.277 83.2793 58.7706C79.4392 55.1785 75.8776 51.2994 72.6252 47.1668C69.928 43.7878 68.1828 41.4045 68.0669 41.2635L68.0569 41.2505L69.9929 40.1338C70.0868 40.3797 71.2916 43.116 72.862 47.1718C74.8014 52.0567 76.3653 57.0825 77.5402 62.2056C78.6356 67.2704 79.2989 72.4192 79.5231 77.5963C79.611 79.6957 79.65 81.4483 79.623 82.6719C79.6717 83.3171 79.6245 83.966 79.4832 84.5974Z" fill="black"/>
<path d="M171.889 38.4123C158.254 26.0637 152.709 17.6951 145.005 2.02246C149.146 18.9947 150.262 28.9699 147.728 47.1968" fill="url(#paint5_linear)"/>
<path d="M147.728 47.1968C147.559 47.1738 147.836 44.3975 148.114 40.2247C148.482 35.1244 148.482 30.0043 148.114 24.904C147.668 19.7556 146.852 14.6459 145.675 9.61428C144.727 5.42145 143.961 2.54726 143.91 2.29333L146.008 1.52954L146.015 1.54354C146.105 1.69949 147.342 4.35875 149.295 8.17068C151.618 12.7896 154.267 17.2369 157.222 21.479C160.221 25.6471 163.518 29.5924 167.087 33.2837C169.993 36.3228 171.999 38.2823 171.882 38.4122C171.305 38.1114 170.776 37.727 170.311 37.2715C169.351 36.4998 168.03 35.3371 166.471 33.9075C162.641 30.3854 159.118 26.5429 155.94 22.4217C152.783 18.217 149.95 13.7781 147.465 9.14341C145.388 5.34447 144.087 2.69621 143.996 2.53726L143.989 2.52326L146.087 1.75948C146.136 2.0174 146.844 4.92159 147.691 9.1884C148.753 14.3361 149.421 19.5575 149.689 24.807C149.889 29.9852 149.649 35.1711 148.972 40.3087C148.693 42.3951 148.428 44.1236 148.188 45.3243C148.127 45.9677 147.972 46.5986 147.728 47.1968Z" fill="black"/>
<path d="M472.99 286.733C490.953 282.807 500.946 283.193 518.076 286.115C502.01 279.488 493.338 274.504 480.2 261.633" fill="url(#paint6_linear)"/>
<path d="M480.2 261.632C480.319 261.51 482.378 263.376 485.559 266.073C493.306 272.814 502.091 278.256 511.573 282.191C515.504 283.89 518.266 284.966 518.503 285.075L517.886 287.222H517.871C517.692 287.203 514.821 286.651 510.602 286.004C505.514 285.185 500.372 284.738 495.218 284.665C490.1 284.673 484.988 285.057 479.926 285.815C475.776 286.415 473.021 286.903 472.985 286.736C473.564 286.441 474.182 286.234 474.821 286.12C476.004 285.788 477.712 285.39 479.776 284.952C484.854 283.883 490.014 283.256 495.199 283.076C500.442 282.962 505.686 283.254 510.883 283.95C515.17 284.491 518.066 284.986 518.248 285.005H518.263L517.646 287.154C517.408 287.043 514.649 285.906 510.721 284.076C505.953 281.904 501.361 279.364 496.986 276.478C492.711 273.578 488.692 270.315 484.975 266.726C483.468 265.266 482.239 264.027 481.418 263.127C480.598 262.227 480.146 261.688 480.2 261.632Z" fill="black"/>
<path d="M238.381 451.237C248.889 466.338 252.408 475.742 256.394 492.743C256.174 475.281 257.329 465.307 263.896 448.117" fill="white"/>
<path d="M263.896 448.117C264.056 448.178 263.162 450.817 261.952 454.824C260.446 459.71 259.294 464.699 258.505 469.751C257.783 474.868 257.428 480.03 257.444 485.198C257.425 489.497 257.525 492.47 257.518 492.729L255.3 493V492.985C255.249 492.813 254.64 489.943 253.594 485.787C252.369 480.763 250.788 475.833 248.863 471.034C246.878 466.297 244.552 461.711 241.904 457.311C239.756 453.696 238.243 451.331 238.384 451.234C238.448 451.19 238.905 451.725 239.658 452.699C240.412 453.673 241.445 455.098 242.643 456.842C245.583 461.136 248.152 465.673 250.321 470.404C252.452 475.212 254.215 480.174 255.594 485.249C256.763 489.423 257.436 492.293 257.492 492.468V492.483L255.275 492.754C255.283 492.492 255.247 489.503 255.382 485.156C255.504 479.901 256.026 474.664 256.945 469.488C257.915 464.398 259.315 459.399 261.129 454.546C261.87 452.576 262.518 450.947 263.02 449.835C263.227 449.223 263.522 448.644 263.896 448.117Z" fill="black"/>
<path d="M335.867 432.568C350.904 443.165 357.424 450.794 366.981 465.406C360.807 449.072 358.482 439.304 358.779 420.904" fill="white"/>
<path d="M358.779 420.904C358.949 420.904 359.013 423.694 359.244 427.87C359.499 432.978 360.121 438.06 361.106 443.078C362.177 448.133 363.608 453.105 365.389 457.956C366.84 462.003 367.95 464.762 368.032 465.008L366.04 466.021L366.032 466.008C365.924 465.864 364.372 463.376 361.969 459.831C359.101 455.53 355.93 451.438 352.479 447.589C348.994 443.818 345.241 440.305 341.249 437.078C337.995 434.416 335.764 432.712 335.863 432.573C336.472 432.801 337.045 433.117 337.562 433.513C338.607 434.162 340.059 435.155 341.782 436.385C346.013 439.412 349.979 442.795 353.636 446.497C357.281 450.285 360.634 454.346 363.665 458.642C366.189 462.163 367.802 464.63 367.911 464.777L367.92 464.79L365.929 465.803C365.848 465.554 364.791 462.757 363.432 458.625C361.751 453.646 360.452 448.545 359.547 443.367C358.718 438.251 358.325 433.075 358.372 427.893C358.395 425.794 358.447 424.04 358.539 422.82C358.524 422.173 358.605 421.527 358.779 420.904Z" fill="black"/>
<path d="M414.295 394.035C431.447 400.674 439.618 406.5 452.423 418.365C442.483 404.011 437.867 395.095 433.706 377.17" fill="white"/>
<path d="M433.706 377.17C433.872 377.131 434.605 379.822 435.842 383.817C437.324 388.711 439.157 393.492 441.326 398.122C443.586 402.768 446.177 407.244 449.078 411.519C451.464 415.094 453.208 417.502 453.346 417.717L451.66 419.183L451.648 419.173C451.509 419.059 449.4 417.02 446.213 414.162C442.39 410.683 438.325 407.48 434.047 404.58C429.754 401.764 425.264 399.263 420.61 397.096C416.809 395.296 414.233 394.188 414.295 394.029C414.942 394.102 415.574 394.27 416.171 394.528C417.343 394.905 418.993 395.517 420.961 396.293C425.797 398.208 430.462 400.532 434.904 403.24C439.357 406.033 443.592 409.161 447.571 412.596C450.868 415.403 453.034 417.405 453.175 417.521L453.186 417.531L451.499 418.997C451.36 418.775 449.659 416.316 447.341 412.636C444.506 408.211 442.013 403.576 439.883 398.771C437.842 394.009 436.209 389.082 435.002 384.042C434.516 381.995 434.144 380.285 433.937 379.079C433.768 378.457 433.69 377.814 433.706 377.17Z" fill="black"/>
<path d="M470.058 176.663C483.095 163.684 491.736 158.582 507.775 151.701C490.63 154.952 480.614 155.545 462.558 152.058" fill="url(#paint7_linear)"/>
<path d="M462.558 152.057C462.59 151.89 465.345 152.311 469.495 152.809C474.563 153.445 479.671 153.713 484.779 153.614C489.939 153.437 495.081 152.89 500.163 151.977C504.397 151.249 507.305 150.635 507.561 150.597L508.214 152.735L508.199 152.742C508.038 152.823 505.32 153.922 501.414 155.673C496.683 157.752 492.106 160.167 487.719 162.898C483.402 165.677 479.292 168.765 475.422 172.139C472.238 174.883 470.174 176.785 470.053 176.663C470.384 176.103 470.795 175.594 471.274 175.153C472.095 174.234 473.324 172.975 474.833 171.492C478.548 167.849 482.566 164.529 486.845 161.57C491.206 158.635 495.784 156.036 500.539 153.795C504.443 151.918 507.15 150.757 507.313 150.675L507.328 150.668L507.979 152.807C507.719 152.844 504.782 153.399 500.487 154.021C495.294 154.814 490.049 155.208 484.797 155.2C479.62 155.129 474.458 154.618 469.367 153.672C467.299 153.284 465.588 152.928 464.401 152.626C463.762 152.528 463.141 152.336 462.558 152.057Z" fill="black"/>
<path d="M394.026 78.4569C398.832 60.6939 403.767 51.9523 414.22 37.9683C400.994 49.3651 392.617 54.8875 375.238 60.9028" fill="url(#paint8_linear)"/>
<path d="M375.238 60.9009C375.182 60.7399 377.778 59.7262 381.621 58.0807C386.329 56.0939 390.888 53.7706 395.263 51.1286C399.645 48.3935 403.824 45.3468 407.769 42.0122C411.073 39.2639 413.284 37.2765 413.486 37.1135L415.12 38.6391L415.111 38.6511C415.011 38.8021 413.207 41.1134 410.699 44.5854C407.641 48.7532 404.884 53.1341 402.449 57.6948C400.099 62.2613 398.083 66.992 396.416 71.8498C395.029 75.8207 394.192 78.5009 394.027 78.4559C394.033 77.8049 394.134 77.1582 394.327 76.5365C394.58 75.3298 395.015 73.6243 395.581 71.5849C396.978 66.5717 398.801 61.6871 401.028 56.984C403.338 52.2601 406.004 47.7189 409.003 43.3998C411.446 39.8218 413.211 37.4604 413.311 37.3075L413.32 37.2945L414.953 38.821C414.746 38.982 412.481 40.9325 409.066 43.6247C404.965 46.9087 400.619 49.8745 396.067 52.4962C391.548 55.0255 386.822 57.1659 381.94 58.8944C379.957 59.5942 378.297 60.1411 377.119 60.473C376.516 60.707 375.882 60.8511 375.238 60.9009Z" fill="black"/>
<path d="M154.789 428.085C156.344 446.422 154.694 456.326 149.651 473.044C158.185 457.812 164.168 449.751 178.444 438.154" fill="white"/>
<path d="M178.444 438.152C178.552 438.284 176.458 440.125 173.41 442.987C169.665 446.463 166.174 450.205 162.966 454.184C159.784 458.254 156.898 462.547 154.331 467.031C152.166 470.744 150.767 473.369 150.635 473.59L148.578 472.715V472.7C148.619 472.525 149.526 469.734 150.695 465.615C152.144 460.651 153.238 455.591 153.967 450.472C154.615 445.376 154.893 440.241 154.799 435.105C154.745 430.899 154.616 428.094 154.786 428.08C155.002 428.694 155.128 429.336 155.158 429.987C155.333 431.207 155.507 432.959 155.673 435.068C156.074 440.258 156.031 445.473 155.546 450.656C154.989 455.886 154.037 461.066 152.696 466.151C151.623 470.35 150.772 473.172 150.73 473.349V473.364L148.674 472.49C148.813 472.267 150.272 469.66 152.564 465.961C155.295 461.472 158.365 457.197 161.746 453.175C165.129 449.252 168.839 445.623 172.835 442.328C174.46 440.992 175.832 439.91 176.831 439.194C177.315 438.769 177.858 438.418 178.444 438.152Z" fill="black"/>
<defs>
<linearGradient id="paint0_linear" x1="0.95459" y1="13.1843" x2="523.618" y2="13.1843" gradientUnits="userSpaceOnUse">
<stop offset="0.385417" stop-color="#6633FF"/>
<stop offset="0.75" stop-color="#3366FF"/>
<stop offset="1" stop-color="#0099FF"/>
</linearGradient>
<linearGradient id="paint1_linear" x1="310.569" y1="251.489" x2="447.29" y2="251.489" gradientUnits="userSpaceOnUse">
<stop offset="0.385417" stop-color="#6633FF"/>
<stop offset="0.75" stop-color="#3366FF"/>
<stop offset="1" stop-color="#0099FF"/>
</linearGradient>
<linearGradient id="paint2_linear" x1="369.191" y1="123.73" x2="413.678" y2="123.73" gradientUnits="userSpaceOnUse">
<stop offset="0.385417" stop-color="#6633FF"/>
<stop offset="0.75" stop-color="#3366FF"/>
<stop offset="1" stop-color="#0099FF"/>
</linearGradient>
<linearGradient id="paint3_linear" x1="417.285" y1="214.852" x2="464.764" y2="214.852" gradientUnits="userSpaceOnUse">
<stop offset="0.385417" stop-color="#6633FF"/>
<stop offset="0.75" stop-color="#3366FF"/>
<stop offset="1" stop-color="#0099FF"/>
</linearGradient>
<linearGradient id="paint4_linear" x1="68.964" y1="40.5867" x2="103.393" y2="40.5867" gradientUnits="userSpaceOnUse">
<stop offset="0.385417" stop-color="#6633FF"/>
<stop offset="0.75" stop-color="#3366FF"/>
<stop offset="1" stop-color="#0099FF"/>
</linearGradient>
<linearGradient id="paint5_linear" x1="145.005" y1="2.02246" x2="173.233" y2="2.02246" gradientUnits="userSpaceOnUse">
<stop offset="0.385417" stop-color="#6633FF"/>
<stop offset="0.75" stop-color="#3366FF"/>
<stop offset="1" stop-color="#0099FF"/>
</linearGradient>
<linearGradient id="paint6_linear" x1="472.99" y1="261.633" x2="520.33" y2="261.633" gradientUnits="userSpaceOnUse">
<stop offset="0.385417" stop-color="#6633FF"/>
<stop offset="0.75" stop-color="#3366FF"/>
<stop offset="1" stop-color="#0099FF"/>
</linearGradient>
<linearGradient id="paint7_linear" x1="462.558" y1="151.701" x2="510.036" y2="151.701" gradientUnits="userSpaceOnUse">
<stop offset="0.385417" stop-color="#6633FF"/>
<stop offset="0.75" stop-color="#3366FF"/>
<stop offset="1" stop-color="#0099FF"/>
</linearGradient>
<linearGradient id="paint8_linear" x1="375.238" y1="37.9683" x2="416.169" y2="37.9683" gradientUnits="userSpaceOnUse">
<stop offset="0.385417" stop-color="#6633FF"/>
<stop offset="0.75" stop-color="#3366FF"/>
<stop offset="1" stop-color="#0099FF"/>
</linearGradient>
</defs>
</svg>
