<svg width="106" height="84" viewBox="0 0 106 84" fill="none" xmlns="http://www.w3.org/2000/svg">
<path d="M2.03122 49.065C0.26397 42.8124 0.763534 36.1433 3.44298 30.2182C6.12242 24.293 10.8121 19.487 16.696 16.6364C22.5799 13.7858 29.2855 13.071 35.646 14.6165C42.0064 16.162 47.6191 19.8699 51.5073 25.0949C52.0923 19.5498 54.3589 14.3108 58.0081 10.0692C61.6574 5.82756 66.5177 2.78265 71.9479 1.33621C86.832 -2.79735 101.033 7.10348 104.115 18.0213C105.524 22.8222 105.269 27.9532 103.391 32.5934C98.185 45.4928 76.2024 68.2201 86.0155 82.3766C45.0495 88.4097 5.34915 70.5568 2.03122 49.065Z" fill="url(#paint0_linear)"/>
<path d="M3.03101 48.7993C1.78758 44.3288 1.69155 39.621 2.75167 35.1043C3.8118 30.5876 5.9944 26.4056 9.10078 22.9389C12.5191 19.1727 16.9693 16.4747 21.9081 15.1743C26.8469 13.8739 32.0607 14.0273 36.9131 15.616C42.3726 17.4316 47.1401 20.8622 50.5739 25.446C50.8357 25.7908 52.4575 25.3618 52.502 24.9329C53.0016 20.1285 54.7845 15.5432 57.667 11.6499C60.5495 7.7566 64.4272 4.69619 68.9002 2.78429C78.8177 -1.35337 90.2939 1.53437 97.6583 9.14676C101.127 12.6643 103.315 17.2277 103.876 22.1159C104.47 27.368 102.952 32.224 100.461 36.7824C96.402 44.1978 91.2926 50.9933 87.3858 58.4959C83.6404 65.6947 79.9468 75.1605 85.0241 82.6394L86.1977 81.9621C71.1506 84.1798 55.8016 83.2422 41.1427 79.2099C29.8084 76.044 18.1439 70.8453 10.0332 62.1174C6.42856 58.4578 3.99281 53.8251 3.03101 48.7993C2.95547 48.3324 0.940489 48.7685 1.03156 49.3299C2.65845 59.4482 11.3672 66.9601 19.8152 71.8879C31.6971 78.8199 45.5391 82.3726 59.1999 83.5702C68.0857 84.3397 77.0318 84.0773 85.8562 82.7882C85.94 82.7759 87.2481 82.4342 87.0287 82.112C82.175 74.9634 85.3936 66.0385 88.9123 59.0583C92.9133 51.1226 98.3424 44.0264 102.563 36.2273C105.105 31.5324 106.535 26.4783 105.813 21.1123C105.112 16.1575 102.773 11.5737 99.161 8.0795C95.4647 4.45656 90.8308 1.91646 85.7708 0.73942C80.7108 -0.437616 75.4212 -0.205843 70.4857 1.40917C59.7919 4.8603 51.6875 14.0459 50.518 25.2571L52.4461 24.744C49.1051 20.3817 44.5765 17.0569 39.3937 15.1612C34.2109 13.2655 28.5897 12.8778 23.1922 14.0438C18.2819 15.0506 13.714 17.2887 9.92442 20.5445C6.13485 23.8002 3.25021 27.9648 1.54591 32.6407C-0.32095 38.0245 -0.501339 43.8425 1.02846 49.3299C1.17024 49.8337 3.17073 49.3063 3.03101 48.7993Z" fill="black"/>
<path d="M21.4255 14.8483C25.2423 13.7894 29.2423 13.5457 33.1611 14.1336C37.0799 14.7214 40.8282 16.1274 44.1583 18.2585C47.4884 20.3896 50.3244 23.1972 52.4788 26.4959C54.6332 29.7946 56.057 33.5092 56.6561 37.3941" fill="url(#paint1_linear)"/>
<path d="M21.529 15.2178C27.3336 13.7347 33.4677 14.1699 39.0002 16.4574C44.5328 18.7449 49.1616 22.7597 52.1842 27.8924C53.9321 30.9129 55.1095 34.2243 55.6584 37.6639C55.7402 38.1565 57.7541 37.7132 57.6579 37.1324C56.6314 30.9395 53.5644 25.2585 48.9365 20.9774C44.3085 16.6962 38.3805 14.0562 32.079 13.4701C28.4634 13.1706 24.823 13.5122 21.3283 14.4789C21.1285 14.5333 20.3109 14.7816 20.4279 15.1141C20.5448 15.4466 21.3158 15.2752 21.528 15.2167L21.529 15.2178Z" fill="black"/>
<path d="M63.9034 11.3489C66.4379 8.37802 70.1212 6.7207 73.8386 7.81874C79.3598 9.4504 80.255 16.6092 71.0577 23.3976C69.9411 24.2185 68.9683 24.9882 68.1124 25.7137C67.2256 26.4688 66.118 26.9222 64.9522 27.0072C63.7864 27.0923 62.6238 26.8045 61.6351 26.1862C60.6464 25.5679 59.8836 24.6515 59.4586 23.5717C59.0337 22.4919 58.9691 21.3055 59.2742 20.1866C60.1583 16.9448 61.7373 13.9303 63.9034 11.3489V11.3489Z" fill="white"/>
<path d="M9.04178 28.7297C10.7432 24.7881 14.0828 21.8624 18.356 21.8285C24.7031 21.7782 27.9807 29.0304 20.5024 39.1293C18.446 41.772 16.7245 44.6549 15.3765 47.7135C15.0702 48.4555 14.5344 49.0821 13.8463 49.5031C13.1582 49.9241 12.3531 50.1179 11.5469 50.0565C10.7407 49.9952 9.97487 49.6818 9.35959 49.1616C8.74432 48.6414 8.31129 47.9411 8.12278 47.1614C6.77428 41.8036 6.27339 35.1425 9.04178 28.7297Z" fill="white"/>
<defs>
<linearGradient id="paint0_linear" x1="0.992676" y1="0.376587" x2="110.214" y2="0.376587" gradientUnits="userSpaceOnUse">
<stop offset="0.385417" stop-color="#6633FF"/>
<stop offset="0.75" stop-color="#3366FF"/>
<stop offset="1" stop-color="#0099FF"/>
</linearGradient>
<linearGradient id="paint1_linear" x1="21.4255" y1="13.8212" x2="58.4176" y2="13.8212" gradientUnits="userSpaceOnUse">
<stop offset="0.385417" stop-color="#6633FF"/>
<stop offset="0.75" stop-color="#3366FF"/>
<stop offset="1" stop-color="#0099FF"/>
</linearGradient>
</defs>
</svg>
