<svg width="1000" height="1000" viewBox="0 0 1000 1000" fill="none" xmlns="http://www.w3.org/2000/svg">
<path d="M497 932C636.728 932 750 818.728 750 679C750 539.272 636.728 426 497 426C357.272 426 244 539.272 244 679C244 818.728 357.272 932 497 932Z" fill="url(#paint0_linear)"/>
<path d="M882.023 868.69H146.971L493.613 349.36L882.023 868.69Z" fill="white"/>
<path d="M882.717 867.395H158.746C155.574 867.395 152.061 866.97 148.915 867.395C148.499 867.422 148.082 867.422 147.666 867.395L148.796 868.849L158.071 854.96L183.299 817.164L220.615 761.261L266.136 693.058L316.002 618.35L366.335 542.943L413.084 472.904L452.908 413.238L481.316 370.678L490.231 357.319C491.903 355.1 493.447 352.788 494.853 350.393C495.031 350.089 495.227 349.796 495.439 349.515L491.839 350.172L502.244 364.085L530.56 401.944L572.251 457.689L623.304 525.95L679.23 600.724L735.463 675.911L788.101 746.298L832.575 805.762L864.438 848.365C869.47 855.093 874.24 862.167 879.604 868.638C879.832 868.915 880.036 869.217 880.251 869.505C881.205 870.781 884.904 869.351 883.798 867.872L873.393 853.959L845.077 816.101L803.383 760.355L752.33 692.093L696.404 617.319L640.172 542.132L587.533 471.75L543.06 412.287L511.196 369.683C506.165 362.955 501.399 355.882 496.034 349.411C495.805 349.133 495.601 348.831 495.386 348.543C494.536 347.407 492.413 348.261 491.786 349.2L482.516 363.089L457.287 400.885L419.971 456.788L374.444 524.995L324.578 599.703L274.249 675.112L227.499 745.149L187.675 804.812L159.268 847.371C154.783 854.089 149.81 860.679 145.729 867.653C145.553 867.952 145.338 868.239 145.144 868.53C144.636 869.292 145.586 869.985 146.275 869.985H851.491C861.019 869.985 870.549 869.985 880.079 869.985H881.329C883.042 869.985 885.314 867.395 882.717 867.395Z" fill="black"/>
<path d="M531.951 665.817L531.253 666.097C531.384 666.134 531.523 666.126 531.65 666.076C531.776 666.025 531.882 665.934 531.951 665.817Z" fill="black"/>
<path d="M537.888 679.118C538.272 678.924 538.664 678.737 539.045 678.54C538.899 678.472 538.74 678.435 538.579 678.432C538.181 678.419 537.988 678.701 537.888 679.118Z" fill="black"/>
<path d="M521.396 669.709L520.875 669.882C521.061 669.871 521.24 669.811 521.396 669.709Z" fill="black"/>
<path d="M882.023 868.69H736.775L493.613 349.36L882.023 868.69Z" fill="#B2B2B2"/>
<path d="M882.643 868.276H764.513C755.644 868.276 746.771 868.204 737.902 868.276C737.196 868.282 737.656 868.301 737.702 868.357C737.561 868.144 737.452 867.912 737.379 867.667C736.905 866.497 736.368 865.354 735.773 864.241L728.967 849.704L717.935 826.143L703.427 795.16L685.967 757.872L666.292 715.851L645.076 670.526L623.089 623.568L600.786 575.936L578.945 529.292L558.337 485.277L539.424 444.883L522.982 409.767L509.737 381.483L500.23 361.176L495.201 350.437L494.577 349.101L492.707 349.7L503.105 363.6L531.404 401.438L573.255 457.396L624.31 525.661L680.069 600.214L736.347 675.462L788.968 745.82L833.429 805.267L865.382 847.99L880.481 868.179L881.114 869.026C881.401 869.41 883.245 868.78 882.926 868.354L872.527 854.45L844.229 816.613L802.379 760.654L751.324 692.388L695.563 617.837L639.289 542.589L586.669 472.232L542.208 412.784L510.251 370.059L495.151 349.87L494.519 349.024C494.26 348.679 492.473 349.244 492.649 349.622L499.167 363.543L516.903 401.428L543.045 457.251L574.92 525.328L609.941 600.125L645.288 675.611L678.144 745.783L705.915 805.093L725.945 847.873C729.097 854.604 732.081 861.449 735.414 868.094C735.553 868.374 735.679 868.661 735.813 868.944C735.852 868.997 735.904 869.04 735.965 869.067C736.025 869.094 736.092 869.106 736.158 869.099H881.403C881.839 869.103 883.593 868.276 882.643 868.276Z" fill="black"/>
<path d="M480.88 731.262C492.055 773.588 475.85 787.007 459.584 765.912H459.574C460.633 750.096 467.829 737.811 480.88 731.262Z" fill="white"/>
<path d="M505.89 726.001C507.974 726.001 510.056 726.131 512.124 726.39C521.039 780.68 489.031 761.943 480.884 731.262C487.649 727.853 496 726.001 505.89 726.001Z" fill="white"/>
<path d="M564.386 467.403C564.386 468.022 499.343 468.524 498.293 468.524C497.242 468.524 432.241 468.025 432.241 467.403C432.241 466.781 497.239 466.281 498.293 466.281C499.346 466.281 564.386 466.783 564.386 467.403Z" fill="black"/>
<path d="M452.497 506.891C451.877 506.891 451.375 487.45 451.375 487.141C451.375 486.832 451.874 467.4 452.497 467.4C453.119 467.4 453.62 486.825 453.62 487.141C453.62 487.457 453.117 506.891 452.497 506.891Z" fill="black"/>
<path d="M602.586 547.897C602.586 548.516 559.227 549.018 558.526 549.018C557.826 549.018 514.496 548.52 514.496 547.897C514.496 547.273 557.826 546.775 558.526 546.775C559.227 546.775 602.586 547.28 602.586 547.897Z" fill="black"/>
<path d="M363.204 547.896C363.204 547.278 400.321 546.776 400.919 546.776C401.518 546.776 438.61 547.274 438.61 547.896C438.61 548.519 401.519 549.019 400.919 549.019C400.32 549.019 363.204 548.519 363.204 547.896Z" fill="black"/>
<path d="M660.525 653.079C660.525 653.698 637.706 654.2 637.338 654.2C636.97 654.2 614.166 653.702 614.166 653.079C614.166 652.456 636.97 651.957 637.338 651.957C637.706 651.957 660.525 652.457 660.525 653.079Z" fill="black"/>
<path d="M720.764 653.079C720.764 653.698 709.443 654.2 709.261 654.2C709.078 654.2 697.766 653.702 697.766 653.079C697.766 652.456 709.078 651.957 709.261 651.957C709.443 651.957 720.764 652.457 720.764 653.079Z" fill="black"/>
<path d="M293.197 653.079C293.197 652.459 313.71 651.958 314.041 651.958C314.373 651.958 334.871 652.456 334.871 653.079C334.871 653.701 314.373 654.201 314.041 654.201C313.71 654.201 293.197 653.696 293.197 653.079Z" fill="black"/>
<path d="M323.091 626.118C323.711 626.118 324.214 639.387 324.214 639.601C324.214 639.816 323.711 653.079 323.091 653.079C322.472 653.079 321.969 639.819 321.969 639.603C321.969 639.388 322.472 626.118 323.091 626.118Z" fill="black"/>
<path d="M448.07 750.955C448.07 751.574 346.152 752.077 344.502 752.077C342.853 752.077 241.009 751.578 241.009 750.955C241.009 750.332 342.856 749.833 344.502 749.833C346.149 749.833 448.07 750.336 448.07 750.955Z" fill="black"/>
<path d="M412.265 713.212C412.885 713.212 413.388 731.79 413.388 732.09C413.388 732.39 412.889 750.955 412.265 750.955C411.641 750.955 411.143 732.39 411.143 732.09C411.143 731.79 411.645 713.212 412.265 713.212Z" fill="black"/>
<path d="M794.928 753.719C794.928 754.337 755.724 754.839 755.091 754.839C754.457 754.839 715.28 754.341 715.28 753.719C715.28 753.097 754.456 752.596 755.091 752.596C755.725 752.596 794.928 753.099 794.928 753.719Z" fill="black"/>
<path d="M701.486 696.348C702.02 696.036 718.981 724.023 719.246 724.479C719.51 724.936 735.594 753.41 735.059 753.722C734.524 754.034 717.575 726.068 717.307 725.612C717.04 725.156 700.951 696.657 701.486 696.348Z" fill="black"/>
<path d="M323.09 825.208C322.472 825.208 321.969 788.658 321.969 788.068C321.969 787.478 322.468 750.955 323.09 750.955C323.713 750.955 324.214 787.478 324.214 788.068C324.214 788.658 323.711 825.208 323.09 825.208Z" fill="black"/>
<path d="M620.498 868.69C619.879 868.69 619.377 848.084 619.377 847.753C619.377 847.422 619.876 826.829 620.498 826.829C621.121 826.829 621.622 847.42 621.622 847.753C621.622 848.086 621.119 868.69 620.498 868.69Z" fill="black"/>
<path d="M548.361 524.927C548.98 524.927 549.483 536.235 549.483 536.417C549.483 536.6 548.984 547.899 548.361 547.899C547.737 547.899 547.238 536.6 547.238 536.417C547.238 536.235 547.741 524.927 548.361 524.927Z" fill="black"/>
<path d="M432.364 622.168C441.039 622.168 448.071 615.141 448.071 606.473C448.071 597.806 441.039 590.779 432.364 590.779C423.689 590.779 416.657 597.806 416.657 606.473C416.657 615.141 423.689 622.168 432.364 622.168Z" fill="white"/>
<path d="M854.007 857.262C853.896 857.297 853.787 857.34 853.683 857.391H854.524C854.362 857.312 854.186 857.269 854.007 857.262V857.262Z" fill="black"/>
<path d="M846.047 857.388H847.564C847.297 857.223 846.989 857.136 846.674 857.137C846.449 857.171 846.234 857.257 846.047 857.388V857.388Z" fill="black"/>
<path d="M786.24 857.388H787.698C787.484 857.234 787.238 857.131 786.978 857.089C786.711 857.128 786.458 857.23 786.24 857.388V857.388Z" fill="black"/>
<path d="M793.915 857.388H794.691C794.514 857.325 794.325 857.303 794.139 857.321C794.062 857.336 793.987 857.359 793.915 857.388V857.388Z" fill="black"/>
<path d="M764.066 857.388H764.809C764.7 857.339 764.584 857.305 764.466 857.288C764.33 857.309 764.196 857.343 764.066 857.388V857.388Z" fill="black"/>
<path d="M757.246 857.388H757.417C757.36 857.384 757.303 857.384 757.246 857.388Z" fill="black"/>
<path d="M496.2 257C496.819 257 497.322 291.461 497.322 292.017C497.322 292.574 496.823 327.012 496.2 327.012C495.576 327.012 495.075 292.574 495.075 292.017C495.075 291.461 495.578 257 496.2 257Z" fill="black"/>
<path d="M446.852 343.663C446.381 344.06 430.835 326.692 430.59 326.406C430.345 326.119 415.575 308.112 416.047 307.711C416.52 307.311 432.055 324.67 432.3 324.956C432.544 325.242 447.325 343.262 446.852 343.663Z" fill="black"/>
<path d="M427.077 390.969C426.847 391.542 406.444 383.997 406.117 383.867C405.79 383.738 385.772 375.269 386 374.696C386.228 374.122 406.619 381.661 406.946 381.791C407.272 381.92 427.306 390.395 427.077 390.969Z" fill="black"/>
<path d="M545.148 343.663C544.675 343.265 559.456 325.241 559.702 324.956C559.947 324.671 575.48 307.311 575.953 307.71C576.426 308.11 561.656 326.12 561.411 326.406C561.167 326.691 545.62 344.063 545.148 343.663Z" fill="black"/>
<path d="M564.924 390.968C564.694 390.395 584.726 381.92 585.053 381.791C585.379 381.661 605.769 374.121 605.998 374.695C606.226 375.268 586.21 383.737 585.884 383.867C585.557 383.998 565.151 391.545 564.924 390.968Z" fill="black"/>
<defs>
<linearGradient id="paint0_linear" x1="244" y1="426" x2="775.3" y2="426" gradientUnits="userSpaceOnUse">
<stop offset="0.385417" stop-color="#6633FF"/>
<stop offset="0.75" stop-color="#3366FF"/>
<stop offset="1" stop-color="#0099FF"/>
</linearGradient>
</defs>
</svg>
