<?xml version="1.0" encoding="UTF-8"?>
<svg width="4053px" height="980px" viewBox="0 0 4053 980" version="1.1" xmlns="http://www.w3.org/2000/svg" xmlns:xlink="http://www.w3.org/1999/xlink">
    <title>wavecluster</title>
    <defs>
        <linearGradient x1="-7.27306273%" y1="51.0705839%" x2="31.5006204%" y2="38.0934746%" id="linearGradient-1">
            <stop stop-color="#8F6AFA" offset="0%"></stop>
            <stop stop-color="#375CDC" offset="44.7917%"></stop>
            <stop stop-color="#0099EE" offset="100%"></stop>
        </linearGradient>
        <linearGradient x1="-7.27752277%" y1="51.0673327%" x2="31.4302371%" y2="38.1112783%" id="linearGradient-2">
            <stop stop-color="#8F6AFA" offset="0%"></stop>
            <stop stop-color="#375CDC" offset="44.7917%"></stop>
            <stop stop-color="#0099EE" offset="100%"></stop>
        </linearGradient>
        <linearGradient x1="-7.27751889%" y1="51.0673243%" x2="31.4302737%" y2="38.1137334%" id="linearGradient-3">
            <stop stop-color="#8F6AFA" offset="0%"></stop>
            <stop stop-color="#375CDC" offset="44.7917%"></stop>
            <stop stop-color="#0099EE" offset="100%"></stop>
        </linearGradient>
        <linearGradient x1="-7.27748831%" y1="51.0673016%" x2="31.4303103%" y2="38.1113083%" id="linearGradient-4">
            <stop stop-color="#8F6AFA" offset="0%"></stop>
            <stop stop-color="#375CDC" offset="44.7917%"></stop>
            <stop stop-color="#0099EE" offset="100%"></stop>
        </linearGradient>
        <linearGradient x1="-7.27752666%" y1="51.0673332%" x2="31.4304674%" y2="38.1112794%" id="linearGradient-5">
            <stop stop-color="#8F6AFA" offset="0%"></stop>
            <stop stop-color="#375CDC" offset="44.7917%"></stop>
            <stop stop-color="#0099EE" offset="100%"></stop>
        </linearGradient>
        <linearGradient x1="-7.27752277%" y1="51.0671964%" x2="31.4302371%" y2="38.1117731%" id="linearGradient-6">
            <stop stop-color="#8F6AFA" offset="0%"></stop>
            <stop stop-color="#375CDC" offset="44.7917%"></stop>
            <stop stop-color="#0099EE" offset="100%"></stop>
        </linearGradient>
        <linearGradient x1="-7.27751889%" y1="51.0673357%" x2="31.4302737%" y2="38.1112676%" id="linearGradient-7">
            <stop stop-color="#8F6AFA" offset="0%"></stop>
            <stop stop-color="#375CDC" offset="44.7917%"></stop>
            <stop stop-color="#0099EE" offset="100%"></stop>
        </linearGradient>
    </defs>
    <g id="Symbols" stroke="none" stroke-width="1" fill="none" fill-rule="evenodd">
        <g id="waves" transform="translate(-1537.000000, -864.000000)" fill-rule="nonzero">
            <g id="wavecluster" transform="translate(1537.427000, 864.865037)">
                <path d="M1068.041,745.001349 C593.201,831.821349 5.383,756.721349 0,755.241349 L5.72,745.551349 C11.92,745.651349 589.681,820.131349 1052.821,735.451349 C1445.791,663.591349 1682.031,518.011349 1911.141,377.431349 C2299.101,137.481349 2664.141,-88.4086509 3745.231,34.6813491 L3741.031,45.3113491 C2679.251,-75.1286509 2318.181,147.561349 1936.531,383.891349 C1705.081,524.901349 1468.031,671.871349 1068.041,745.001349 Z" id="Path" fill="url(#linearGradient-1)"></path>
                <path d="M1119.391,776.951349 C644.411,863.681349 56.281,788.551349 50.895,787.061349 L56.61,777.391349 C62.813,777.491349 640.881,851.991349 1104.161,767.401349 C1497.251,695.621349 1733.481,550.121349 1962.581,409.631349 C2350.531,169.831349 2715.571,-55.9186509 3797.211,67.2213491 L3793.021,77.8513491 C2729.171,-43.6086509 2369.621,179.911349 1985.651,416.511349 C1756.551,557.011349 1519.501,703.891349 1119.391,776.951349 Z" id="Path" fill="url(#linearGradient-2)"></path>
                <g id="Group" opacity="0.8" transform="translate(101.543000, 64.420507)" fill="url(#linearGradient-3)">
                    <path d="M1068.498,744.410843 C593.518,831.140843 7.726,755.580843 -1.13686838e-13,754.530843 L5.715,744.850843 C11.918,744.950843 589.978,819.460843 1053.268,734.860843 C1446.358,663.080843 1682.588,517.580843 1911.688,377.090843 C2297.298,137.720843 2664.668,-88.4591574 3746.318,34.6808426 L3742.128,45.3208426 C2679.798,-75.1891574 2318.728,147.370843 1937.098,383.550843 C1707.178,525.430843 1468.608,671.350843 1068.498,744.410843 Z" id="Path" opacity="0.95"></path>
                </g>
                <g id="Group" opacity="0.6" transform="translate(152.191000, 96.266402)" fill="url(#linearGradient-4)">
                    <path d="M1068.5,744.444947 C593.52,831.184947 5.387,756.044947 -2.27373675e-13,754.564947 L5.715,744.884947 C11.918,744.984947 589.98,819.494947 1053.27,734.894947 C1446.35,663.114947 1682.58,517.624947 1911.69,377.124947 C2299.63,137.324947 2664.67,-88.4250528 3746.32,34.7249472 L3742.13,45.3549472 C2679.8,-75.1550528 2318.73,147.404947 1937.1,383.584947 C1707.18,525.464947 1468.61,671.384947 1068.5,744.444947 Z" id="Path" opacity="0.9"></path>
                </g>
                <g id="Group" opacity="0.5" transform="translate(204.247000, 129.031179)" fill="url(#linearGradient-5)">
                    <path d="M1068.504,744.45017 C593.514,831.18017 5.386,756.05017 2.27373675e-13,754.57017 L5.715,744.89017 C11.918,744.99017 589.984,819.50017 1053.264,734.90017 C1446.354,663.12017 1682.584,517.62017 1911.684,377.13017 C2299.634,137.33017 2664.674,-88.4198297 3746.314,34.7201703 L3742.124,45.3601703 C2679.794,-75.1498297 2318.734,147.41017 1937.094,383.59017 C1705.654,524.51017 1468.604,671.39017 1068.504,744.45017 Z" id="Path" opacity="0.88"></path>
                </g>
                <g id="Group" opacity="0.4" transform="translate(254.895000, 160.955734)" fill="url(#linearGradient-6)">
                    <path d="M1068.496,744.405615 C593.516,831.145615 5.387,756.005615 1.13686838e-13,754.525615 L5.715,744.845615 C11.918,744.945615 589.986,819.455615 1053.266,734.855615 C1446.356,663.085615 1682.586,517.585615 1911.686,377.085615 C2297.296,137.715615 2664.676,-88.4643847 3746.316,34.6856153 L3742.126,45.3156153 C2679.796,-75.1943847 2318.736,147.365615 1937.096,383.545615 C1705.656,524.465615 1468.606,671.345615 1068.496,744.405615 Z" id="Path" opacity="0.85"></path>
                </g>
                <g id="Group" opacity="0.3" transform="translate(305.543000, 192.800189)" fill="url(#linearGradient-7)">
                    <path d="M1068.498,744.45116 C593.518,831.18116 5.386,756.05116 -1.13686838e-13,754.56116 L5.715,744.89116 C11.918,744.99116 589.978,819.49116 1053.268,734.90116 C1446.358,663.12116 1682.588,517.62116 1911.688,377.12116 C2299.638,137.32116 2664.668,-88.4188404 3746.318,34.7211596 L3742.128,45.3511596 C2679.798,-75.1488404 2318.728,147.40116 1937.098,383.58116 C1707.178,525.46116 1468.608,671.39116 1068.498,744.45116 Z" id="Path" opacity="0.85"></path>
                </g>
            </g>
        </g>
    </g>
</svg>