<?xml version="1.0" encoding="UTF-8"?>
<svg width="53px" height="48px" viewBox="0 0 53 48" version="1.1" xmlns="http://www.w3.org/2000/svg" xmlns:xlink="http://www.w3.org/1999/xlink">
    <title>molecule</title>
    <defs>
        <linearGradient x1="0%" y1="0%" x2="105%" y2="0%" id="linearGradient-1">
            <stop stop-color="#8F6AFA" offset="0%"></stop>
            <stop stop-color="#375CDC" offset="56.7708%"></stop>
            <stop stop-color="#0099EE" offset="100%"></stop>
        </linearGradient>
    </defs>
    <g id="🧬-Symbols" stroke="none" stroke-width="1" fill="none" fill-rule="evenodd">
        <g id="Ω-Prime/Category/Molecules" transform="translate(2.000000, 0.000000)">
            <g id="Group" transform="translate(-3.297492, -1.696679)">
                <circle id="Oval" fill="url(#linearGradient-1)" transform="translate(28.246684, 15.120882) rotate(162.000000) translate(-28.246684, -15.120882) " cx="28.246684" cy="15.1208821" r="7"></circle>
                <circle id="Oval-Copy-2" fill="url(#linearGradient-1)" transform="translate(15.120882, 36.209109) rotate(162.000000) translate(-15.120882, -36.209109) " cx="15.1208821" cy="36.2091093" r="7"></circle>
                <circle id="Oval-Copy-5" fill="url(#linearGradient-1)" transform="translate(40.418374, 36.401154) rotate(162.000000) translate(-40.418374, -36.401154) " cx="40.4183745" cy="36.4011535" r="7"></circle>
                <circle id="Oval-Copy" stroke="url(#linearGradient-1)" stroke-width="2" transform="translate(28.246684, 15.120882) rotate(162.000000) translate(-28.246684, -15.120882) " cx="28.246684" cy="15.1208821" r="12"></circle>
                <circle id="Oval-Copy-3" stroke="url(#linearGradient-1)" stroke-width="2" transform="translate(15.120882, 36.209109) rotate(162.000000) translate(-15.120882, -36.209109) " cx="15.1208821" cy="36.2091093" r="12"></circle>
                <circle id="Oval-Copy-6" stroke="url(#linearGradient-1)" stroke-width="2" transform="translate(40.418374, 36.401154) rotate(162.000000) translate(-40.418374, -36.401154) " cx="40.4183745" cy="36.4011535" r="12"></circle>
                <circle id="Oval" fill="#CCD9E8" transform="translate(22.159311, 25.510487) rotate(162.000000) translate(-22.159311, -25.510487) " cx="22.1593113" cy="25.5104872" r="2"></circle>
                <circle id="Oval-Copy-4" fill="#CCD9E8" transform="translate(27.769628, 36.305131) rotate(162.000000) translate(-27.769628, -36.305131) " cx="27.7696283" cy="36.3051314" r="2"></circle>
                <circle id="Oval-Copy-7" fill="#CCD9E8" transform="translate(33.857001, 25.915526) rotate(162.000000) translate(-33.857001, -25.915526) " cx="33.857001" cy="25.9155263" r="2"></circle>
            </g>
        </g>
    </g>
</svg>