<svg width="24" height="7" viewBox="0 0 24 7" fill="none" xmlns="http://www.w3.org/2000/svg">
<path d="M17.9749 7C19.4812 7 20.6946 6.74638 21.6151 6.23913C22.5356 5.73188 23.3305 5.05556 24 4.21015L22.3431 1.97826C21.5732 2.55314 20.8954 2.96739 20.3096 3.22101C19.7239 3.47464 19.0126 3.60145 18.1757 3.60145C17.1381 3.60145 16.1674 3.43237 15.2636 3.0942C14.3598 2.75604 13.4393 2.35024 12.5021 1.87681C11.3305 1.30193 10.2678 0.845411 9.31381 0.507246C8.35983 0.169082 7.2636 0 6.0251 0C4.51883 0 3.30544 0.253623 2.38494 0.76087C1.46444 1.26812 0.669456 1.94444 0 2.78985L1.6569 5.02174C2.42678 4.44686 3.1046 4.03261 3.69038 3.77899C4.27615 3.52536 4.98745 3.39855 5.82427 3.39855C6.86192 3.39855 7.83264 3.56763 8.7364 3.9058C9.64017 4.24396 10.5607 4.64976 11.4979 5.12319C12.6695 5.69807 13.7322 6.15459 14.6862 6.49275C15.6402 6.83092 16.7364 7 17.9749 7Z" fill="url(#paint0_linear)"/>
<defs>
<linearGradient id="paint0_linear" x1="0" y1="0" x2="25.2" y2="0" gradientUnits="userSpaceOnUse">
<stop stop-color="#8F6AFA"/>
<stop offset="0.567708" stop-color="#375CDC"/>
<stop offset="1" stop-color="#0099EE"/>
</linearGradient>
</defs>
</svg>
